<?xml version="1.0" encoding="UTF-8" standalone="no"?>
<!DOCTYPE svg PUBLIC "-//W3C//DTD SVG 1.1//EN"
 "http://www.w3.org/Graphics/SVG/1.1/DTD/svg11.dtd">
<!-- Generated by graphviz version 15.0.0 (20260523.1842)
 -->
<!-- Title: bluetape4k&#45;leader&#45;sequence&#45;02 Pages: 1 -->
<svg width="1008pt" height="1261pt"
 viewBox="0.00 0.00 1008.00 1261.00" xmlns="http://www.w3.org/2000/svg" xmlns:xlink="http://www.w3.org/1999/xlink">
<g id="graph0" class="graph" transform="scale(1 1) rotate(0) translate(4 1256.5)">
<title>bluetape4k&#45;leader&#45;sequence&#45;02</title>
<text xml:space="preserve" text-anchor="middle" x="499.84" y="-1235.2" font-family="Times,serif" font-size="14.00">How runIfLeader Works</text>
<!-- n0&#45;&gt;n2 -->
<g id="edge1" class="edge">
<title>n0&#45;&gt;n2</title>
<path fill="none" stroke="#758297" stroke-width="1.8" d="M114.84,-1201.32C114.84,-1215.3 114.84,-1228 114.84,-1228 114.84,-1228 942.26,-1228 942.26,-1228 942.26,-1228 942.26,-1212.04 942.26,-1212.04"/>
<polygon fill="#758297" stroke="#758297" stroke-width="1.8" points="945.06,-1212.04 942.26,-1204.04 939.46,-1212.04 945.06,-1212.04"/>
</g>
<!-- n0&#45;&gt;n2 -->
<g id="edge8" class="edge">
<title>n0&#45;&gt;n2</title>
<path fill="none" stroke="#758297" stroke-width="1.8" d="M172.26,-1201.34C172.26,-1211.1 172.26,-1219 172.26,-1219 172.26,-1219 884.84,-1219 884.84,-1219 884.84,-1219 884.84,-1212.07 884.84,-1212.07"/>
<polygon fill="#758297" stroke="#758297" stroke-width="1.8" points="887.64,-1212.07 884.84,-1204.07 882.04,-1212.07 887.64,-1212.07"/>
</g>
<!-- n0&#45;&gt;r5p1 -->
<g id="edge5" class="edge">
<title>n0&#45;&gt;r5p1</title>
<path fill="none" stroke="#758297" stroke-width="1.8" d="M178.84,-1128.85C178.84,-996.65 178.84,-546.46 178.84,-518.45"/>
</g>
<!-- n0&#45;&gt;r7p1 -->
<g id="edge9" class="edge">
<title>n0&#45;&gt;r7p1</title>
<path fill="none" stroke="#758297" stroke-width="1.8" stroke-dasharray="5,2" d="M204.8,-1128.66C204.8,-962.58 204.8,-285 204.8,-285 204.8,-285 185.63,-285 180.24,-285"/>
</g>
<!-- n1&#45;&gt;n2 -->
<g id="edge2" class="edge">
<title>n1&#45;&gt;n2</title>
<path fill="none" stroke="#758297" stroke-width="1.8" d="M615.09,-1165C615.09,-1165 758.87,-1165 758.87,-1165"/>
<polygon fill="#758297" stroke="#758297" stroke-width="1.8" points="758.87,-1167.8 766.87,-1165 758.87,-1162.2 758.87,-1167.8"/>
</g>
<!-- n1&#45;&gt;r9p1 -->
<g id="edge13" class="edge">
<title>n1&#45;&gt;r9p1</title>
<path fill="none" stroke="#758297" stroke-width="1.8" stroke-dasharray="5,2" d="M563.84,-1128.76C563.84,-939.88 563.84,-76.89 563.84,-36.54"/>
</g>
<!-- n2&#45;&gt;n0 -->
<g id="edge3" class="edge">
<title>n2&#45;&gt;n0</title>
<path fill="none" stroke="#758297" stroke-width="1.8" stroke-dasharray="5,2" d="M827.42,-1201.34C827.42,-1206.45 827.42,-1210 827.42,-1210 827.42,-1210 57.42,-1210 57.42,-1210 57.42,-1210 57.42,-1209.13 57.42,-1209.13"/>
<polygon fill="#758297" stroke="#758297" stroke-width="1.8" points="60.22,-1212.06 57.42,-1204.06 54.62,-1212.06 60.22,-1212.06"/>
</g>
<!-- n2&#45;&gt;n1 -->
<g id="edge4" class="edge">
<title>n2&#45;&gt;n1</title>
<path fill="none" stroke="#758297" stroke-width="1.8" stroke-dasharray="5,2" d="M769.59,-1183C769.59,-1183 625.81,-1183 625.81,-1183"/>
<polygon fill="#758297" stroke="#758297" stroke-width="1.8" points="625.81,-1180.2 617.81,-1183 625.81,-1185.8 625.81,-1180.2"/>
</g>
<!-- n2&#45;&gt;n1 -->
<g id="edge12" class="edge">
<title>n2&#45;&gt;n1</title>
<path fill="none" stroke="#758297" stroke-width="1.8" stroke-dasharray="5,2" d="M769.59,-1147C769.59,-1147 625.81,-1147 625.81,-1147"/>
<polygon fill="#758297" stroke="#758297" stroke-width="1.8" points="625.81,-1144.2 617.81,-1147 625.81,-1149.8 625.81,-1144.2"/>
</g>
<!-- r5p1&#45;&gt;r5p2 -->
<g id="edge6" class="edge">
<title>r5p1&#45;&gt;r5p2</title>
<path fill="none" stroke="#758297" stroke-width="1.8" d="M178.84,-515.62C178.84,-510.03 178.84,-490.02 178.84,-484.5"/>
</g>
<!-- r5p2&#45;&gt;n0 -->
<g id="edge7" class="edge">
<title>r5p2&#45;&gt;n0</title>
<path fill="none" stroke="#758297" stroke-width="1.8" d="M180.09,-483C183.43,-483 192.36,-483 192.36,-483 192.36,-483 192.36,-1118.17 192.36,-1118.17"/>
<polygon fill="#758297" stroke="#758297" stroke-width="1.8" points="189.56,-1118.17 192.36,-1126.17 195.16,-1118.17 189.56,-1118.17"/>
</g>
<!-- r7p1&#45;&gt;r7p2 -->
<g id="edge10" class="edge">
<title>r7p1&#45;&gt;r7p2</title>
<path fill="none" stroke="#758297" stroke-width="1.8" stroke-dasharray="5,2" d="M178.84,-283.62C178.84,-278.03 178.84,-258.02 178.84,-252.5"/>
</g>
<!-- r7p2&#45;&gt;n0 -->
<g id="edge11" class="edge">
<title>r7p2&#45;&gt;n0</title>
<path fill="none" stroke="#758297" stroke-width="1.8" stroke-dasharray="5,2" d="M180.12,-251C186.78,-251 217.24,-251 217.24,-251 217.24,-251 217.24,-1117.96 217.24,-1117.96"/>
<polygon fill="#758297" stroke="#758297" stroke-width="1.8" points="214.44,-1117.96 217.24,-1125.96 220.04,-1117.96 214.44,-1117.96"/>
</g>
<!-- r9p1&#45;&gt;r9p2 -->
<g id="edge14" class="edge">
<title>r9p1&#45;&gt;r9p2</title>
<path fill="none" stroke="#758297" stroke-width="1.8" stroke-dasharray="5,2" d="M563.84,-33.62C563.84,-28.03 563.84,-8.02 563.84,-2.5"/>
</g>
<!-- r9p2&#45;&gt;n1 -->
<g id="edge15" class="edge">
<title>r9p2&#45;&gt;n1</title>
<path fill="none" stroke="#758297" stroke-width="1.8" stroke-dasharray="5,2" d="M565.24,-1C570.63,-1 589.8,-1 589.8,-1 589.8,-1 589.8,-1117.92 589.8,-1117.92"/>
<polygon fill="#758297" stroke="#758297" stroke-width="1.8" points="587,-1117.92 589.8,-1125.92 592.6,-1117.92 587,-1117.92"/>
</g>
<!-- n0 -->
<g id="node1" class="node">
<title>n0</title>
<path fill="#ffffff" stroke="#5b8def" d="M217.68,-1201.08C217.68,-1201.08 12,-1201.08 12,-1201.08 6,-1201.08 0,-1195.08 0,-1189.08 0,-1189.08 0,-1141.08 0,-1141.08 0,-1135.08 6,-1129.08 12,-1129.08 12,-1129.08 217.68,-1129.08 217.68,-1129.08 223.68,-1129.08 229.68,-1135.08 229.68,-1141.08 229.68,-1141.08 229.68,-1189.08 229.68,-1189.08 229.68,-1195.08 223.68,-1201.08 217.68,-1201.08"/>
<text xml:space="preserve" text-anchor="middle" x="114.84" y="-1160.73" font-family="Architects Daughter" font-size="18.00">NodeA</text>
</g>
<!-- n1 -->
<g id="node2" class="node">
<title>n1</title>
<path fill="#ffffff" stroke="#58a978" d="M602.68,-1201.08C602.68,-1201.08 397,-1201.08 397,-1201.08 391,-1201.08 385,-1195.08 385,-1189.08 385,-1189.08 385,-1141.08 385,-1141.08 385,-1135.08 391,-1129.08 397,-1129.08 397,-1129.08 602.68,-1129.08 602.68,-1129.08 608.68,-1129.08 614.68,-1135.08 614.68,-1141.08 614.68,-1141.08 614.68,-1189.08 614.68,-1189.08 614.68,-1195.08 608.68,-1201.08 602.68,-1201.08"/>
<text xml:space="preserve" text-anchor="middle" x="499.84" y="-1160.73" font-family="Architects Daughter" font-size="18.00">NodeB</text>
</g>
<!-- n2 -->
<g id="node3" class="node">
<title>n2</title>
<path fill="#ffffff" stroke="#d6a441" d="M987.68,-1201.08C987.68,-1201.08 782,-1201.08 782,-1201.08 776,-1201.08 770,-1195.08 770,-1189.08 770,-1189.08 770,-1141.08 770,-1141.08 770,-1135.08 776,-1129.08 782,-1129.08 782,-1129.08 987.68,-1129.08 987.68,-1129.08 993.68,-1129.08 999.68,-1135.08 999.68,-1141.08 999.68,-1141.08 999.68,-1189.08 999.68,-1189.08 999.68,-1195.08 993.68,-1201.08 987.68,-1201.08"/>
<text xml:space="preserve" text-anchor="middle" x="884.84" y="-1160.73" font-family="Architects Daughter" font-size="18.00">LockStore</text>
</g>
<!-- r5p1 -->
<!-- r5p2 -->
<!-- r7p1 -->
<!-- r7p2 -->
<!-- r9p1 -->
<!-- r9p2 -->
</g>
</svg>
