<?xml version="1.0" encoding="UTF-8" standalone="no"?>
<!DOCTYPE svg PUBLIC "-//W3C//DTD SVG 1.1//EN"
 "http://www.w3.org/Graphics/SVG/1.1/DTD/svg11.dtd">
<!-- Generated by graphviz version 15.0.0 (20260523.1842)
 -->
<!-- Title: bluetape4k&#45;leader&#45;bom&#45;architecture&#45;01 Pages: 1 -->
<svg width="1057pt" height="210pt"
 viewBox="0.00 0.00 1057.00 210.00" xmlns="http://www.w3.org/2000/svg" xmlns:xlink="http://www.w3.org/1999/xlink">
<g id="graph0" class="graph" transform="scale(1 1) rotate(0) translate(4 206)">
<title>bluetape4k&#45;leader&#45;bom&#45;architecture&#45;01</title>
<!-- gradlePlatform -->
<g id="node1" class="node">
<title>gradlePlatform</title>
<path fill="#f8fafc" stroke="#94a3b8" d="M165.25,-161C165.25,-161 23.25,-161 23.25,-161 17.25,-161 11.25,-155 11.25,-149 11.25,-149 11.25,-137 11.25,-137 11.25,-131 17.25,-125 23.25,-125 23.25,-125 165.25,-125 165.25,-125 171.25,-125 177.25,-131 177.25,-137 177.25,-137 177.25,-149 177.25,-149 177.25,-155 171.25,-161 165.25,-161"/>
<text xml:space="preserve" text-anchor="middle" x="94.25" y="-137.57" font-family="Comic Mono" font-size="14.00">Gradle java&#45;platform</text>
</g>
<!-- bomPom -->
<g id="node2" class="node">
<title>bomPom</title>
<path fill="#f8fafc" stroke="#94a3b8" d="M461,-119C461,-119 319,-119 319,-119 313,-119 307,-113 307,-107 307,-107 307,-95 307,-95 307,-89 313,-83 319,-83 319,-83 461,-83 461,-83 467,-83 473,-89 473,-95 473,-95 473,-107 473,-107 473,-113 467,-119 461,-119"/>
<text xml:space="preserve" text-anchor="middle" x="390" y="-95.58" font-family="Comic Mono" font-size="14.00">Published Leader BOM</text>
</g>
<!-- gradlePlatform&#45;&gt;bomPom -->
<g id="edge1" class="edge">
<title>gradlePlatform&#45;&gt;bomPom</title>
<path fill="none" stroke="#758297" d="M177.73,-143C256.55,-143 362.75,-143 362.75,-143 362.75,-143 362.75,-130.57 362.75,-130.57"/>
<polygon fill="#758297" stroke="#758297" points="366.25,-130.57 362.75,-120.57 359.25,-130.57 366.25,-130.57"/>
<text xml:space="preserve" text-anchor="middle" x="247.75" y="-145.5" font-family="Comic Mono" font-size="10.00">dependency</text>
</g>
<!-- gradleImport -->
<g id="node4" class="node">
<title>gradleImport</title>
<path fill="#f8fafc" stroke="#94a3b8" d="M745.5,-202C745.5,-202 633.5,-202 633.5,-202 627.5,-202 621.5,-196 621.5,-190 621.5,-190 621.5,-178 621.5,-178 621.5,-172 627.5,-166 633.5,-166 633.5,-166 745.5,-166 745.5,-166 751.5,-166 757.5,-172 757.5,-178 757.5,-178 757.5,-190 757.5,-190 757.5,-196 751.5,-202 745.5,-202"/>
<text xml:space="preserve" text-anchor="middle" x="689.5" y="-178.57" font-family="Comic Mono" font-size="14.00">Gradle Consumers</text>
</g>
<!-- bomPom&#45;&gt;gradleImport -->
<g id="edge2" class="edge">
<title>bomPom&#45;&gt;gradleImport</title>
<path fill="none" stroke="#758297" d="M417.75,-119.42C417.75,-143.87 417.75,-184 417.75,-184 417.75,-184 609.76,-184 609.76,-184"/>
<polygon fill="#758297" stroke="#758297" points="609.76,-187.5 619.76,-184 609.76,-180.5 609.76,-187.5"/>
<text xml:space="preserve" text-anchor="middle" x="532.25" y="-176.5" font-family="Comic Mono" font-size="10.00">call</text>
</g>
<!-- mavenImport -->
<g id="node5" class="node">
<title>mavenImport</title>
<path fill="#f8fafc" stroke="#94a3b8" d="M741.75,-119C741.75,-119 637.25,-119 637.25,-119 631.25,-119 625.25,-113 625.25,-107 625.25,-107 625.25,-95 625.25,-95 625.25,-89 631.25,-83 637.25,-83 637.25,-83 741.75,-83 741.75,-83 747.75,-83 753.75,-89 753.75,-95 753.75,-95 753.75,-107 753.75,-107 753.75,-113 747.75,-119 741.75,-119"/>
<text xml:space="preserve" text-anchor="middle" x="689.5" y="-95.58" font-family="Comic Mono" font-size="14.00">Maven Consumers</text>
</g>
<!-- bomPom&#45;&gt;mavenImport -->
<g id="edge3" class="edge">
<title>bomPom&#45;&gt;mavenImport</title>
<path fill="none" stroke="#758297" d="M473.43,-107C473.43,-107 613.51,-107 613.51,-107"/>
<polygon fill="#758297" stroke="#758297" points="613.51,-110.5 623.51,-107 613.51,-103.5 613.51,-110.5"/>
<text xml:space="preserve" text-anchor="middle" x="532.25" y="-103.5" font-family="Comic Mono" font-size="10.00">call</text>
</g>
<!-- constraintOnly -->
<g id="node6" class="node">
<title>constraintOnly</title>
<path fill="#f8fafc" stroke="#94a3b8" d="M775.5,-36C775.5,-36 603.5,-36 603.5,-36 597.5,-36 591.5,-30 591.5,-24 591.5,-24 591.5,-12 591.5,-12 591.5,-6 597.5,0 603.5,0 603.5,0 775.5,0 775.5,0 781.5,0 787.5,-6 787.5,-12 787.5,-12 787.5,-24 787.5,-24 787.5,-30 781.5,-36 775.5,-36"/>
<text xml:space="preserve" text-anchor="middle" x="689.5" y="-12.57" font-family="Comic Mono" font-size="14.00">Constraint&#45;Only Artifact</text>
</g>
<!-- bomPom&#45;&gt;constraintOnly -->
<g id="edge4" class="edge">
<title>bomPom&#45;&gt;constraintOnly</title>
<path fill="none" stroke="#758297" d="M473.49,-95C534.55,-95 606.75,-95 606.75,-95 606.75,-95 606.75,-47.76 606.75,-47.76"/>
<polygon fill="#758297" stroke="#758297" points="610.25,-47.76 606.75,-37.76 603.25,-47.76 610.25,-47.76"/>
<text xml:space="preserve" text-anchor="middle" x="532.25" y="-30.5" font-family="Comic Mono" font-size="10.00">dependency</text>
</g>
<!-- umbrellaBom -->
<g id="node3" class="node">
<title>umbrellaBom</title>
<path fill="#f8fafc" stroke="#94a3b8" d="M176.5,-78C176.5,-78 12,-78 12,-78 6,-78 0,-72 0,-66 0,-66 0,-54 0,-54 0,-48 6,-42 12,-42 12,-42 176.5,-42 176.5,-42 182.5,-42 188.5,-48 188.5,-54 188.5,-54 188.5,-66 188.5,-66 188.5,-72 182.5,-78 176.5,-78"/>
<text xml:space="preserve" text-anchor="middle" x="94.25" y="-54.58" font-family="Comic Mono" font-size="14.00">bluetape4k&#45;dependencies</text>
</g>
<!-- umbrellaBom&#45;&gt;bomPom -->
<g id="edge8" class="edge">
<title>umbrellaBom&#45;&gt;bomPom</title>
<path fill="none" stroke="#758297" d="M182.75,-78.1C182.75,-89.09 182.75,-101 182.75,-101 182.75,-101 295.09,-101 295.09,-101"/>
<polygon fill="#758297" stroke="#758297" points="295.09,-104.5 305.09,-101 295.09,-97.5 295.09,-104.5"/>
<text xml:space="preserve" text-anchor="middle" x="247.75" y="-62.5" font-family="Comic Mono" font-size="10.00">metric</text>
</g>
<!-- core -->
<g id="node7" class="node">
<title>core</title>
<path fill="#f8fafc" stroke="#94a3b8" d="M1025.5,-202C1025.5,-202 913.5,-202 913.5,-202 907.5,-202 901.5,-196 901.5,-190 901.5,-190 901.5,-178 901.5,-178 901.5,-172 907.5,-166 913.5,-166 913.5,-166 1025.5,-166 1025.5,-166 1031.5,-166 1037.5,-172 1037.5,-178 1037.5,-178 1037.5,-190 1037.5,-190 1037.5,-196 1031.5,-202 1025.5,-202"/>
<text xml:space="preserve" text-anchor="middle" x="969.5" y="-178.57" font-family="Comic Mono" font-size="14.00">Core API Modules</text>
</g>
<!-- gradleImport&#45;&gt;core -->
<g id="edge5" class="edge">
<title>gradleImport&#45;&gt;core</title>
<path fill="none" stroke="#758297" d="M758,-184C758,-184 889.71,-184 889.71,-184"/>
<polygon fill="#758297" stroke="#758297" points="889.71,-187.5 899.71,-184 889.71,-180.5 889.71,-187.5"/>
<text xml:space="preserve" text-anchor="middle" x="838.88" y="-186.5" font-family="Comic Mono" font-size="10.00">success</text>
</g>
<!-- backends -->
<g id="node8" class="node">
<title>backends</title>
<path fill="#f8fafc" stroke="#94a3b8" d="M1025.5,-119C1025.5,-119 913.5,-119 913.5,-119 907.5,-119 901.5,-113 901.5,-107 901.5,-107 901.5,-95 901.5,-95 901.5,-89 907.5,-83 913.5,-83 913.5,-83 1025.5,-83 1025.5,-83 1031.5,-83 1037.5,-89 1037.5,-95 1037.5,-95 1037.5,-107 1037.5,-107 1037.5,-113 1031.5,-119 1025.5,-119"/>
<text xml:space="preserve" text-anchor="middle" x="969.5" y="-95.58" font-family="Comic Mono" font-size="14.00">Backend Adapters</text>
</g>
<!-- mavenImport&#45;&gt;backends -->
<g id="edge6" class="edge">
<title>mavenImport&#45;&gt;backends</title>
<path fill="none" stroke="#758297" d="M754.09,-101C754.09,-101 889.82,-101 889.82,-101"/>
<polygon fill="#758297" stroke="#758297" points="889.82,-104.5 899.82,-101 889.82,-97.5 889.82,-104.5"/>
<text xml:space="preserve" text-anchor="middle" x="838.88" y="-103.5" font-family="Comic Mono" font-size="10.00">success</text>
</g>
<!-- integrations -->
<g id="node9" class="node">
<title>integrations</title>
<path fill="#f8fafc" stroke="#94a3b8" d="M1036.75,-36C1036.75,-36 902.25,-36 902.25,-36 896.25,-36 890.25,-30 890.25,-24 890.25,-24 890.25,-12 890.25,-12 890.25,-6 896.25,0 902.25,0 902.25,0 1036.75,0 1036.75,0 1042.75,0 1048.75,-6 1048.75,-12 1048.75,-12 1048.75,-24 1048.75,-24 1048.75,-30 1042.75,-36 1036.75,-36"/>
<text xml:space="preserve" text-anchor="middle" x="969.5" y="-12.57" font-family="Comic Mono" font-size="14.00">Integration Modules</text>
</g>
<!-- constraintOnly&#45;&gt;integrations -->
<g id="edge7" class="edge">
<title>constraintOnly&#45;&gt;integrations</title>
<path fill="none" stroke="#758297" d="M787.82,-18C787.82,-18 878.37,-18 878.37,-18"/>
<polygon fill="#758297" stroke="#758297" points="878.37,-21.5 888.37,-18 878.37,-14.5 878.37,-21.5"/>
<text xml:space="preserve" text-anchor="middle" x="838.88" y="-20.5" font-family="Comic Mono" font-size="10.00">success</text>
</g>
</g>
</svg>
