<?xml version="1.0" encoding="UTF-8" standalone="no"?>
<!DOCTYPE svg PUBLIC "-//W3C//DTD SVG 1.1//EN"
 "http://www.w3.org/Graphics/SVG/1.1/DTD/svg11.dtd">
<!-- Generated by graphviz version 15.0.0 (20260523.1842)
 -->
<!-- Title: bluetape4k&#45;leader&#45;bom&#45;architecture&#45;01 Pages: 1 -->
<svg width="1290pt" height="631pt"
 viewBox="0.00 0.00 1290.00 631.00" xmlns="http://www.w3.org/2000/svg" xmlns:xlink="http://www.w3.org/1999/xlink">
<g id="graph0" class="graph" transform="scale(1 1) rotate(0) translate(4 626.58)">
<title>bluetape4k&#45;leader&#45;bom&#45;architecture&#45;01</title>
<text xml:space="preserve" text-anchor="middle" x="641.04" y="-605.28" font-family="Times,serif" font-size="14.00">leader bom Architecture</text>
<!-- n0&#45;&gt;r7p1 -->
<g id="edge19" class="edge">
<title>n0&#45;&gt;r7p1</title>
<path fill="none" stroke="#758297" stroke-width="1.8" d="M280.2,-548.04C284.06,-548.04 286.94,-548.04 288.56,-548.04"/>
</g>
<!-- n1&#45;&gt;r1p1 -->
<g id="edge1" class="edge">
<title>n1&#45;&gt;r1p1</title>
<path fill="none" stroke="#758297" stroke-width="1.8" d="M474.04,-497.65C474.04,-429.44 474.04,-314.56 474.04,-300.47"/>
</g>
<!-- n1&#45;&gt;r2p1 -->
<g id="edge4" class="edge">
<title>n1&#45;&gt;r2p1</title>
<path fill="none" stroke="#758297" stroke-width="1.8" d="M474.04,-497.65C474.04,-429.44 474.04,-314.56 474.04,-300.47"/>
</g>
<!-- n1&#45;&gt;r3p1 -->
<g id="edge7" class="edge">
<title>n1&#45;&gt;r3p1</title>
<path fill="none" stroke="#758297" stroke-width="1.8" d="M519.45,-497.78C560.5,-452.36 615.62,-391.36 623.17,-383"/>
</g>
<!-- n1&#45;&gt;r4p1 -->
<g id="edge10" class="edge">
<title>n1&#45;&gt;r4p1</title>
<path fill="none" stroke="#758297" stroke-width="1.8" d="M428.63,-497.78C387.58,-452.36 332.46,-391.36 324.91,-383"/>
</g>
<!-- n1&#45;&gt;r5p1 -->
<g id="edge13" class="edge">
<title>n1&#45;&gt;r5p1</title>
<path fill="none" stroke="#758297" stroke-width="1.8" d="M614.2,-548.04C618.06,-548.04 620.94,-548.04 622.56,-548.04"/>
</g>
<!-- n1&#45;&gt;r6p1 -->
<g id="edge16" class="edge">
<title>n1&#45;&gt;r6p1</title>
<path fill="none" stroke="#758297" stroke-width="1.8" d="M614.2,-548.04C618.06,-548.04 620.94,-548.04 622.56,-548.04"/>
</g>
<!-- r1p1&#45;&gt;r1p2 -->
<g id="edge2" class="edge">
<title>r1p1&#45;&gt;r1p2</title>
<path fill="none" stroke="#758297" stroke-width="1.8" d="M475.53,-299.04C498.68,-299.04 784.38,-299.04 806.66,-299.04"/>
</g>
<!-- r1p2&#45;&gt;n13 -->
<g id="edge3" class="edge">
<title>r1p2&#45;&gt;n13</title>
<path fill="none" stroke="#758297" stroke-width="1.8" d="M808.04,-297.93C808.04,-285.98 808.04,-180.28 808.04,-110.81"/>
<polygon fill="#758297" stroke="#758297" stroke-width="1.8" points="810.84,-111.14 808.04,-103.14 805.24,-111.14 810.84,-111.14"/>
</g>
<!-- r2p1&#45;&gt;r2p2 -->
<g id="edge5" class="edge">
<title>r2p1&#45;&gt;r2p2</title>
<path fill="none" stroke="#758297" stroke-width="1.8" d="M474.04,-299.04C474.04,-299.04 474.04,-299.04 474.04,-299.04"/>
</g>
<!-- r2p2&#45;&gt;n12 -->
<g id="edge6" class="edge">
<title>r2p2&#45;&gt;n12</title>
<path fill="none" stroke="#758297" stroke-width="1.8" d="M474.04,-297.93C474.04,-285.98 474.04,-180.28 474.04,-110.81"/>
<polygon fill="#758297" stroke="#758297" stroke-width="1.8" points="476.84,-111.14 474.04,-103.14 471.24,-111.14 476.84,-111.14"/>
</g>
<!-- r3p1&#45;&gt;r3p2 -->
<g id="edge8" class="edge">
<title>r3p1&#45;&gt;r3p2</title>
<path fill="none" stroke="#758297" stroke-width="1.8" d="M625.37,-382.04C648.52,-382.04 965.76,-382.04 990.51,-382.04"/>
</g>
<!-- r3p2&#45;&gt;n11 -->
<g id="edge9" class="edge">
<title>r3p2&#45;&gt;n11</title>
<path fill="none" stroke="#758297" stroke-width="1.8" d="M993,-380.98C1000.44,-372.75 1049.74,-318.19 1089.63,-274.04"/>
<polygon fill="#758297" stroke="#758297" stroke-width="1.8" points="1091.59,-276.05 1094.88,-268.23 1087.44,-272.29 1091.59,-276.05"/>
</g>
<!-- r4p1&#45;&gt;r4p2 -->
<g id="edge11" class="edge">
<title>r4p1&#45;&gt;r4p2</title>
<path fill="none" stroke="#758297" stroke-width="1.8" d="M322.58,-382.04C316.99,-382.04 296.98,-382.04 291.46,-382.04"/>
</g>
<!-- r4p2&#45;&gt;n8 -->
<g id="edge12" class="edge">
<title>r4p2&#45;&gt;n8</title>
<path fill="none" stroke="#758297" stroke-width="1.8" d="M289.08,-380.98C281.64,-372.75 232.34,-318.19 192.45,-274.04"/>
<polygon fill="#758297" stroke="#758297" stroke-width="1.8" points="194.64,-272.29 187.2,-268.23 190.49,-276.05 194.64,-272.29"/>
</g>
<!-- r5p1&#45;&gt;r5p2 -->
<g id="edge14" class="edge">
<title>r5p1&#45;&gt;r5p2</title>
<path fill="none" stroke="#758297" stroke-width="1.8" d="M625.37,-548.04C648.52,-548.04 965.76,-548.04 990.51,-548.04"/>
</g>
<!-- r5p2&#45;&gt;n3 -->
<g id="edge15" class="edge">
<title>r5p2&#45;&gt;n3</title>
<path fill="none" stroke="#758297" stroke-width="1.8" d="M993.34,-548.04C993.43,-548.04 993.54,-548.04 993.64,-548.04"/>
<polygon fill="#758297" stroke="#758297" stroke-width="1.8" points="990.94,-550.84 998.94,-548.04 990.94,-545.24 990.94,-550.84"/>
</g>
<!-- r6p1&#45;&gt;r6p2 -->
<g id="edge17" class="edge">
<title>r6p1&#45;&gt;r6p2</title>
<path fill="none" stroke="#758297" stroke-width="1.8" d="M625.5,-548.04C631.09,-548.04 651.1,-548.04 656.62,-548.04"/>
</g>
<!-- r6p2&#45;&gt;n2 -->
<g id="edge18" class="edge">
<title>r6p2&#45;&gt;n2</title>
<path fill="none" stroke="#758297" stroke-width="1.8" d="M659.34,-548.04C659.43,-548.04 659.54,-548.04 659.64,-548.04"/>
<polygon fill="#758297" stroke="#758297" stroke-width="1.8" points="656.94,-550.84 664.94,-548.04 656.94,-545.24 656.94,-550.84"/>
</g>
<!-- r7p1&#45;&gt;r7p2 -->
<g id="edge20" class="edge">
<title>r7p1&#45;&gt;r7p2</title>
<path fill="none" stroke="#758297" stroke-width="1.8" d="M291.5,-548.04C297.09,-548.04 317.1,-548.04 322.62,-548.04"/>
</g>
<!-- r7p2&#45;&gt;n1 -->
<g id="edge21" class="edge">
<title>r7p2&#45;&gt;n1</title>
<path fill="none" stroke="#758297" stroke-width="1.8" d="M325.34,-548.04C325.43,-548.04 325.54,-548.04 325.64,-548.04"/>
<polygon fill="#758297" stroke="#758297" stroke-width="1.8" points="322.94,-550.84 330.94,-548.04 322.94,-545.24 322.94,-550.84"/>
</g>
<!-- n0 -->
<g id="node1" class="node">
<title>n0</title>
<path fill="#ffffff" stroke="#5b8def" d="M268.08,-598.08C268.08,-598.08 12,-598.08 12,-598.08 6,-598.08 0,-592.08 0,-586.08 0,-586.08 0,-510 0,-510 0,-504 6,-498 12,-498 12,-498 268.08,-498 268.08,-498 274.08,-498 280.08,-504 280.08,-510 280.08,-510 280.08,-586.08 280.08,-586.08 280.08,-592.08 274.08,-598.08 268.08,-598.08"/>
<text xml:space="preserve" text-anchor="middle" x="140.04" y="-543.69" font-family="Architects Daughter" font-size="18.00">Consumer Project</text>
</g>
<!-- n1 -->
<g id="node2" class="node">
<title>n1</title>
<path fill="#ffffff" stroke="#58a978" d="M602.08,-598.08C602.08,-598.08 346,-598.08 346,-598.08 340,-598.08 334,-592.08 334,-586.08 334,-586.08 334,-510 334,-510 334,-504 340,-498 346,-498 346,-498 602.08,-498 602.08,-498 608.08,-498 614.08,-504 614.08,-510 614.08,-510 614.08,-586.08 614.08,-586.08 614.08,-592.08 608.08,-598.08 602.08,-598.08"/>
<text xml:space="preserve" text-anchor="middle" x="474.04" y="-543.69" font-family="Architects Daughter" font-size="18.00">bluetape4k&#45;leader&#45;bo</text>
</g>
<!-- n2 -->
<g id="node3" class="node">
<title>n2</title>
<path fill="#ffffff" stroke="#d6a441" d="M936.08,-598.08C936.08,-598.08 680,-598.08 680,-598.08 674,-598.08 668,-592.08 668,-586.08 668,-586.08 668,-510 668,-510 668,-504 674,-498 680,-498 680,-498 936.08,-498 936.08,-498 942.08,-498 948.08,-504 948.08,-510 948.08,-510 948.08,-586.08 948.08,-586.08 948.08,-592.08 942.08,-598.08 936.08,-598.08"/>
<text xml:space="preserve" text-anchor="middle" x="808.04" y="-543.69" font-family="Architects Daughter" font-size="18.00">leader&#45;core</text>
</g>
<!-- n3 -->
<g id="node4" class="node">
<title>n3</title>
<path fill="#ffffff" stroke="#dc6b82" d="M1270.08,-598.08C1270.08,-598.08 1014,-598.08 1014,-598.08 1008,-598.08 1002,-592.08 1002,-586.08 1002,-586.08 1002,-510 1002,-510 1002,-504 1008,-498 1014,-498 1014,-498 1270.08,-498 1270.08,-498 1276.08,-498 1282.08,-504 1282.08,-510 1282.08,-510 1282.08,-586.08 1282.08,-586.08 1282.08,-592.08 1276.08,-598.08 1270.08,-598.08"/>
<text xml:space="preserve" text-anchor="middle" x="1142.04" y="-543.69" font-family="Architects Daughter" font-size="18.00">leader&#45;redis&#45;lettuce</text>
</g>
<!-- n4 -->
<g id="node5" class="node">
<title>n4</title>
<path fill="#ffffff" stroke="#45a7a1" d="M268.08,-432.08C268.08,-432.08 12,-432.08 12,-432.08 6,-432.08 0,-426.08 0,-420.08 0,-420.08 0,-344 0,-344 0,-338 6,-332 12,-332 12,-332 268.08,-332 268.08,-332 274.08,-332 280.08,-338 280.08,-344 280.08,-344 280.08,-420.08 280.08,-420.08 280.08,-426.08 274.08,-432.08 268.08,-432.08"/>
<text xml:space="preserve" text-anchor="middle" x="140.04" y="-377.69" font-family="Architects Daughter" font-size="18.00">leader&#45;redis&#45;redisso</text>
</g>
<!-- n5 -->
<g id="node6" class="node">
<title>n5</title>
<path fill="#ffffff" stroke="#8a72d6" d="M602.08,-432.08C602.08,-432.08 346,-432.08 346,-432.08 340,-432.08 334,-426.08 334,-420.08 334,-420.08 334,-344 334,-344 334,-338 340,-332 346,-332 346,-332 602.08,-332 602.08,-332 608.08,-332 614.08,-338 614.08,-344 614.08,-344 614.08,-420.08 614.08,-420.08 614.08,-426.08 608.08,-432.08 602.08,-432.08"/>
<text xml:space="preserve" text-anchor="middle" x="474.04" y="-377.69" font-family="Architects Daughter" font-size="18.00">leader&#45;exposed&#45;core</text>
</g>
<!-- n6 -->
<g id="node7" class="node">
<title>n6</title>
<path fill="#ffffff" stroke="#b88a44" d="M936.08,-432.08C936.08,-432.08 680,-432.08 680,-432.08 674,-432.08 668,-426.08 668,-420.08 668,-420.08 668,-344 668,-344 668,-338 674,-332 680,-332 680,-332 936.08,-332 936.08,-332 942.08,-332 948.08,-338 948.08,-344 948.08,-344 948.08,-420.08 948.08,-420.08 948.08,-426.08 942.08,-432.08 936.08,-432.08"/>
<text xml:space="preserve" text-anchor="middle" x="808.04" y="-377.69" font-family="Architects Daughter" font-size="18.00">leader&#45;exposed&#45;jdbc</text>
</g>
<!-- n7 -->
<g id="node8" class="node">
<title>n7</title>
<path fill="#ffffff" stroke="#8ba84d" d="M1270.08,-432.08C1270.08,-432.08 1014,-432.08 1014,-432.08 1008,-432.08 1002,-426.08 1002,-420.08 1002,-420.08 1002,-344 1002,-344 1002,-338 1008,-332 1014,-332 1014,-332 1270.08,-332 1270.08,-332 1276.08,-332 1282.08,-338 1282.08,-344 1282.08,-344 1282.08,-420.08 1282.08,-420.08 1282.08,-426.08 1276.08,-432.08 1270.08,-432.08"/>
<text xml:space="preserve" text-anchor="middle" x="1142.04" y="-377.69" font-family="Architects Daughter" font-size="18.00">leader&#45;exposed&#45;r2dbc</text>
</g>
<!-- n8 -->
<g id="node9" class="node">
<title>n8</title>
<path fill="#ffffff" stroke="#5b8def" d="M268.08,-266.08C268.08,-266.08 12,-266.08 12,-266.08 6,-266.08 0,-260.08 0,-254.08 0,-254.08 0,-178 0,-178 0,-172 6,-166 12,-166 12,-166 268.08,-166 268.08,-166 274.08,-166 280.08,-172 280.08,-178 280.08,-178 280.08,-254.08 280.08,-254.08 280.08,-260.08 274.08,-266.08 268.08,-266.08"/>
<text xml:space="preserve" text-anchor="middle" x="140.04" y="-211.69" font-family="Architects Daughter" font-size="18.00">leader&#45;mongodb</text>
</g>
<!-- n9 -->
<g id="node10" class="node">
<title>n9</title>
<path fill="#ffffff" stroke="#58a978" d="M602.08,-266.08C602.08,-266.08 346,-266.08 346,-266.08 340,-266.08 334,-260.08 334,-254.08 334,-254.08 334,-178 334,-178 334,-172 340,-166 346,-166 346,-166 602.08,-166 602.08,-166 608.08,-166 614.08,-172 614.08,-178 614.08,-178 614.08,-254.08 614.08,-254.08 614.08,-260.08 608.08,-266.08 602.08,-266.08"/>
<text xml:space="preserve" text-anchor="middle" x="474.04" y="-211.69" font-family="Architects Daughter" font-size="18.00">leader&#45;hazelcast</text>
</g>
<!-- n10 -->
<g id="node11" class="node">
<title>n10</title>
<path fill="#ffffff" stroke="#d6a441" d="M936.08,-266.08C936.08,-266.08 680,-266.08 680,-266.08 674,-266.08 668,-260.08 668,-254.08 668,-254.08 668,-178 668,-178 668,-172 674,-166 680,-166 680,-166 936.08,-166 936.08,-166 942.08,-166 948.08,-172 948.08,-178 948.08,-178 948.08,-254.08 948.08,-254.08 948.08,-260.08 942.08,-266.08 936.08,-266.08"/>
<text xml:space="preserve" text-anchor="middle" x="808.04" y="-211.69" font-family="Architects Daughter" font-size="18.00">leader&#45;zookeeper</text>
</g>
<!-- n11 -->
<g id="node12" class="node">
<title>n11</title>
<path fill="#ffffff" stroke="#dc6b82" d="M1270.08,-266.08C1270.08,-266.08 1014,-266.08 1014,-266.08 1008,-266.08 1002,-260.08 1002,-254.08 1002,-254.08 1002,-178 1002,-178 1002,-172 1008,-166 1014,-166 1014,-166 1270.08,-166 1270.08,-166 1276.08,-166 1282.08,-172 1282.08,-178 1282.08,-178 1282.08,-254.08 1282.08,-254.08 1282.08,-260.08 1276.08,-266.08 1270.08,-266.08"/>
<text xml:space="preserve" text-anchor="middle" x="1142.04" y="-211.69" font-family="Architects Daughter" font-size="18.00">leader&#45;spring&#45;boot</text>
</g>
<!-- n12 -->
<g id="node13" class="node">
<title>n12</title>
<path fill="#ffffff" stroke="#45a7a1" d="M602.08,-100.08C602.08,-100.08 346,-100.08 346,-100.08 340,-100.08 334,-94.08 334,-88.08 334,-88.08 334,-12 334,-12 334,-6 340,0 346,0 346,0 602.08,0 602.08,0 608.08,0 614.08,-6 614.08,-12 614.08,-12 614.08,-88.08 614.08,-88.08 614.08,-94.08 608.08,-100.08 602.08,-100.08"/>
<text xml:space="preserve" text-anchor="middle" x="474.04" y="-45.69" font-family="Architects Daughter" font-size="18.00">leader&#45;micrometer</text>
</g>
<!-- n13 -->
<g id="node14" class="node">
<title>n13</title>
<path fill="#ffffff" stroke="#8a72d6" d="M936.08,-100.08C936.08,-100.08 680,-100.08 680,-100.08 674,-100.08 668,-94.08 668,-88.08 668,-88.08 668,-12 668,-12 668,-6 674,0 680,0 680,0 936.08,0 936.08,0 942.08,0 948.08,-6 948.08,-12 948.08,-12 948.08,-88.08 948.08,-88.08 948.08,-94.08 942.08,-100.08 936.08,-100.08"/>
<text xml:space="preserve" text-anchor="middle" x="808.04" y="-45.69" font-family="Architects Daughter" font-size="18.00">leader&#45;ktor</text>
</g>
<!-- r1p1 -->
<!-- r1p2 -->
<!-- r2p1 -->
<!-- r2p2 -->
<!-- r3p1 -->
<!-- r3p2 -->
<!-- r4p1 -->
<!-- r4p2 -->
<!-- r5p1 -->
<!-- r5p2 -->
<!-- r6p1 -->
<!-- r6p2 -->
<!-- r7p1 -->
<!-- r7p2 -->
</g>
</svg>
