<?xml version="1.0" encoding="UTF-8" standalone="no"?>
<!DOCTYPE svg PUBLIC "-//W3C//DTD SVG 1.1//EN"
 "http://www.w3.org/Graphics/SVG/1.1/DTD/svg11.dtd">
<!-- Generated by graphviz version 15.0.0 (20260523.1842)
 -->
<!-- Title: bluetape4k&#45;leader&#45;sequence&#45;02 Pages: 1 -->
<svg width="1008pt" height="1033pt"
 viewBox="0.00 0.00 1008.00 1033.00" xmlns="http://www.w3.org/2000/svg" xmlns:xlink="http://www.w3.org/1999/xlink">
<g id="graph0" class="graph" transform="scale(1 1) rotate(0) translate(4 1028.5)">
<title>bluetape4k&#45;leader&#45;sequence&#45;02</title>
<text xml:space="preserve" text-anchor="middle" x="499.84" y="-1007.2" font-family="Times,serif" font-size="14.00">How runIfLeader Works</text>
<!-- n0&#45;&gt;n2 -->
<g id="edge1" class="edge">
<title>n0&#45;&gt;n2</title>
<path fill="none" stroke="#758297" stroke-width="1.8" d="M114.84,-973.32C114.84,-987.3 114.84,-1000 114.84,-1000 114.84,-1000 942.26,-1000 942.26,-1000 942.26,-1000 942.26,-984.04 942.26,-984.04"/>
<polygon fill="#758297" stroke="#758297" stroke-width="1.8" points="945.06,-984.04 942.26,-976.04 939.46,-984.04 945.06,-984.04"/>
</g>
<!-- n0&#45;&gt;n2 -->
<g id="edge8" class="edge">
<title>n0&#45;&gt;n2</title>
<path fill="none" stroke="#758297" stroke-width="1.8" d="M172.26,-973.34C172.26,-983.1 172.26,-991 172.26,-991 172.26,-991 884.84,-991 884.84,-991 884.84,-991 884.84,-984.07 884.84,-984.07"/>
<polygon fill="#758297" stroke="#758297" stroke-width="1.8" points="887.64,-984.07 884.84,-976.07 882.04,-984.07 887.64,-984.07"/>
</g>
<!-- n0&#45;&gt;r5p1 -->
<g id="edge5" class="edge">
<title>n0&#45;&gt;r5p1</title>
<path fill="none" stroke="#758297" stroke-width="1.8" d="M178.84,-900.94C178.84,-784.56 178.84,-425.56 178.84,-400.47"/>
</g>
<!-- n0&#45;&gt;r7p1 -->
<g id="edge9" class="edge">
<title>n0&#45;&gt;r7p1</title>
<path fill="none" stroke="#758297" stroke-width="1.8" stroke-dasharray="5,2" d="M204.8,-900.88C204.8,-754.86 204.8,-217 204.8,-217 204.8,-217 185.63,-217 180.24,-217"/>
</g>
<!-- n1&#45;&gt;n2 -->
<g id="edge2" class="edge">
<title>n1&#45;&gt;n2</title>
<path fill="none" stroke="#758297" stroke-width="1.8" d="M615.09,-955C615.09,-955 758.87,-955 758.87,-955"/>
<polygon fill="#758297" stroke="#758297" stroke-width="1.8" points="758.87,-957.8 766.87,-955 758.87,-952.2 758.87,-957.8"/>
</g>
<!-- n1&#45;&gt;r9p1 -->
<g id="edge13" class="edge">
<title>n1&#45;&gt;r9p1</title>
<path fill="none" stroke="#758297" stroke-width="1.8" stroke-dasharray="5,2" d="M563.84,-900.6C563.84,-736.47 563.84,-72.79 563.84,-36.62"/>
</g>
<!-- n2&#45;&gt;n0 -->
<g id="edge3" class="edge">
<title>n2&#45;&gt;n0</title>
<path fill="none" stroke="#758297" stroke-width="1.8" stroke-dasharray="5,2" d="M827.42,-973.34C827.42,-978.45 827.42,-982 827.42,-982 827.42,-982 57.42,-982 57.42,-982 57.42,-982 57.42,-981.13 57.42,-981.13"/>
<polygon fill="#758297" stroke="#758297" stroke-width="1.8" points="60.22,-984.06 57.42,-976.06 54.62,-984.06 60.22,-984.06"/>
</g>
<!-- n2&#45;&gt;n1 -->
<g id="edge4" class="edge">
<title>n2&#45;&gt;n1</title>
<path fill="none" stroke="#758297" stroke-width="1.8" stroke-dasharray="5,2" d="M769.59,-937C769.59,-937 625.81,-937 625.81,-937"/>
<polygon fill="#758297" stroke="#758297" stroke-width="1.8" points="625.81,-934.2 617.81,-937 625.81,-939.8 625.81,-934.2"/>
</g>
<!-- n2&#45;&gt;n1 -->
<g id="edge12" class="edge">
<title>n2&#45;&gt;n1</title>
<path fill="none" stroke="#758297" stroke-width="1.8" stroke-dasharray="5,2" d="M769.59,-919C769.59,-919 625.81,-919 625.81,-919"/>
<polygon fill="#758297" stroke="#758297" stroke-width="1.8" points="625.81,-916.2 617.81,-919 625.81,-921.8 625.81,-916.2"/>
</g>
<!-- r5p1&#45;&gt;r5p2 -->
<g id="edge6" class="edge">
<title>r5p1&#45;&gt;r5p2</title>
<path fill="none" stroke="#758297" stroke-width="1.8" d="M178.84,-397.62C178.84,-392.03 178.84,-372.02 178.84,-366.5"/>
</g>
<!-- r5p2&#45;&gt;n0 -->
<g id="edge7" class="edge">
<title>r5p2&#45;&gt;n0</title>
<path fill="none" stroke="#758297" stroke-width="1.8" d="M180.09,-365C183.43,-365 192.36,-365 192.36,-365 192.36,-365 192.36,-890.14 192.36,-890.14"/>
<polygon fill="#758297" stroke="#758297" stroke-width="1.8" points="189.56,-890.14 192.36,-898.14 195.16,-890.14 189.56,-890.14"/>
</g>
<!-- r7p1&#45;&gt;r7p2 -->
<g id="edge10" class="edge">
<title>r7p1&#45;&gt;r7p2</title>
<path fill="none" stroke="#758297" stroke-width="1.8" stroke-dasharray="5,2" d="M178.84,-215.62C178.84,-210.03 178.84,-190.02 178.84,-184.5"/>
</g>
<!-- r7p2&#45;&gt;n0 -->
<g id="edge11" class="edge">
<title>r7p2&#45;&gt;n0</title>
<path fill="none" stroke="#758297" stroke-width="1.8" stroke-dasharray="5,2" d="M180.12,-183C186.78,-183 217.24,-183 217.24,-183 217.24,-183 217.24,-889.98 217.24,-889.98"/>
<polygon fill="#758297" stroke="#758297" stroke-width="1.8" points="214.44,-889.98 217.24,-897.98 220.04,-889.98 214.44,-889.98"/>
</g>
<!-- r9p1&#45;&gt;r9p2 -->
<g id="edge14" class="edge">
<title>r9p1&#45;&gt;r9p2</title>
<path fill="none" stroke="#758297" stroke-width="1.8" stroke-dasharray="5,2" d="M563.84,-33.62C563.84,-28.03 563.84,-8.02 563.84,-2.5"/>
</g>
<!-- r9p2&#45;&gt;n1 -->
<g id="edge15" class="edge">
<title>r9p2&#45;&gt;n1</title>
<path fill="none" stroke="#758297" stroke-width="1.8" stroke-dasharray="5,2" d="M565.24,-1C570.63,-1 589.8,-1 589.8,-1 589.8,-1 589.8,-889.95 589.8,-889.95"/>
<polygon fill="#758297" stroke="#758297" stroke-width="1.8" points="587,-889.95 589.8,-897.95 592.6,-889.95 587,-889.95"/>
</g>
<!-- n0 -->
<g id="node1" class="node">
<title>n0</title>
<path fill="#ffffff" stroke="#5b8def" d="M217.68,-973.08C217.68,-973.08 12,-973.08 12,-973.08 6,-973.08 0,-967.08 0,-961.08 0,-961.08 0,-913.08 0,-913.08 0,-907.08 6,-901.08 12,-901.08 12,-901.08 217.68,-901.08 217.68,-901.08 223.68,-901.08 229.68,-907.08 229.68,-913.08 229.68,-913.08 229.68,-961.08 229.68,-961.08 229.68,-967.08 223.68,-973.08 217.68,-973.08"/>
<text xml:space="preserve" text-anchor="middle" x="114.84" y="-932.73" font-family="Architects Daughter" font-size="18.00">NodeA</text>
</g>
<!-- n1 -->
<g id="node2" class="node">
<title>n1</title>
<path fill="#ffffff" stroke="#58a978" d="M602.68,-973.08C602.68,-973.08 397,-973.08 397,-973.08 391,-973.08 385,-967.08 385,-961.08 385,-961.08 385,-913.08 385,-913.08 385,-907.08 391,-901.08 397,-901.08 397,-901.08 602.68,-901.08 602.68,-901.08 608.68,-901.08 614.68,-907.08 614.68,-913.08 614.68,-913.08 614.68,-961.08 614.68,-961.08 614.68,-967.08 608.68,-973.08 602.68,-973.08"/>
<text xml:space="preserve" text-anchor="middle" x="499.84" y="-932.73" font-family="Architects Daughter" font-size="18.00">NodeB</text>
</g>
<!-- n2 -->
<g id="node3" class="node">
<title>n2</title>
<path fill="#ffffff" stroke="#d6a441" d="M987.68,-973.08C987.68,-973.08 782,-973.08 782,-973.08 776,-973.08 770,-967.08 770,-961.08 770,-961.08 770,-913.08 770,-913.08 770,-907.08 776,-901.08 782,-901.08 782,-901.08 987.68,-901.08 987.68,-901.08 993.68,-901.08 999.68,-907.08 999.68,-913.08 999.68,-913.08 999.68,-961.08 999.68,-961.08 999.68,-967.08 993.68,-973.08 987.68,-973.08"/>
<text xml:space="preserve" text-anchor="middle" x="884.84" y="-932.73" font-family="Architects Daughter" font-size="18.00">LockStore</text>
</g>
<!-- r5p1 -->
<!-- r5p2 -->
<!-- r7p1 -->
<!-- r7p2 -->
<!-- r9p1 -->
<!-- r9p2 -->
</g>
</svg>
