<?xml version="1.0" encoding="UTF-8" standalone="no"?>
<!DOCTYPE svg PUBLIC "-//W3C//DTD SVG 1.1//EN"
 "http://www.w3.org/Graphics/SVG/1.1/DTD/svg11.dtd">
<!-- Generated by graphviz version 15.0.0 (20260523.1842)
 -->
<!-- Title: bluetape4k&#45;leader&#45;sequence&#45;03 Pages: 1 -->
<svg width="942pt" height="428pt"
 viewBox="0.00 0.00 942.00 428.00" xmlns="http://www.w3.org/2000/svg" xmlns:xlink="http://www.w3.org/1999/xlink">
<g id="graph0" class="graph" transform="scale(1 1) rotate(0) translate(4 424)">
<title>bluetape4k&#45;leader&#45;sequence&#45;03</title>
<!-- caller -->
<g id="node1" class="node">
<title>caller</title>
<path fill="#f8fafc" stroke="#94a3b8" d="M49,-219C49,-219 12,-219 12,-219 6,-219 0,-213 0,-207 0,-207 0,-195 0,-195 0,-189 6,-183 12,-183 12,-183 49,-183 49,-183 55,-183 61,-189 61,-195 61,-195 61,-207 61,-207 61,-213 55,-219 49,-219"/>
<text xml:space="preserve" text-anchor="middle" x="30.5" y="-195.57" font-family="Comic Mono" font-size="14.00">Caller</text>
</g>
<!-- group -->
<g id="node2" class="node">
<title>group</title>
<path fill="#f8fafc" stroke="#94a3b8" d="M518,-219C518,-219 338.5,-219 338.5,-219 332.5,-219 326.5,-213 326.5,-207 326.5,-207 326.5,-195 326.5,-195 326.5,-189 332.5,-183 338.5,-183 338.5,-183 518,-183 518,-183 524,-183 530,-189 530,-195 530,-195 530,-207 530,-207 530,-213 524,-219 518,-219"/>
<text xml:space="preserve" text-anchor="middle" x="428.25" y="-195.57" font-family="Comic Mono" font-size="14.00">SuspendLeaderGroupElector</text>
</g>
<!-- caller&#45;&gt;group -->
<g id="edge1" class="edge">
<title>caller&#45;&gt;group</title>
<path fill="none" stroke="#4f83bf" d="M61.38,-192C61.38,-192 317.77,-192 317.77,-192"/>
<polygon fill="#4f83bf" stroke="#4f83bf" points="317.77,-194.45 324.77,-192 317.77,-189.55 317.77,-194.45"/>
<text xml:space="preserve" text-anchor="middle" x="193.75" y="-270.5" font-family="Comic Mono" font-size="10.00">runIfLeader(groupName, slots, body)</text>
</g>
<!-- group&#45;&gt;caller -->
<g id="edge8" class="edge">
<title>group&#45;&gt;caller</title>
<path fill="none" stroke="#3e9868" d="M326.08,-201C326.08,-201 69.94,-201 69.94,-201"/>
<polygon fill="#3e9868" stroke="#3e9868" points="69.94,-198.55 62.94,-201 69.94,-203.45 69.94,-198.55"/>
<text xml:space="preserve" text-anchor="middle" x="193.75" y="-203.5" font-family="Comic Mono" font-size="10.00">return leader result and slot metadata</text>
</g>
<!-- group&#45;&gt;caller -->
<g id="edge10" class="edge">
<title>group&#45;&gt;caller</title>
<path fill="none" stroke="#c94d68" d="M326.08,-210C326.08,-210 69.94,-210 69.94,-210"/>
<polygon fill="#c94d68" stroke="#c94d68" points="69.94,-207.55 62.94,-210 69.94,-212.45 69.94,-207.55"/>
<text xml:space="preserve" text-anchor="middle" x="193.75" y="-136.5" font-family="Comic Mono" font-size="10.00">return null/skipped group result</text>
</g>
<!-- slot -->
<g id="node3" class="node">
<title>slot</title>
<path fill="#f8fafc" stroke="#94a3b8" d="M910.5,-420C910.5,-420 813.5,-420 813.5,-420 807.5,-420 801.5,-414 801.5,-408 801.5,-408 801.5,-396 801.5,-396 801.5,-390 807.5,-384 813.5,-384 813.5,-384 910.5,-384 910.5,-384 916.5,-384 922.5,-390 922.5,-396 922.5,-396 922.5,-408 922.5,-408 922.5,-414 916.5,-420 910.5,-420"/>
<text xml:space="preserve" text-anchor="middle" x="862" y="-396.57" font-family="Comic Mono" font-size="14.00">Slot namespace</text>
</g>
<!-- group&#45;&gt;slot -->
<g id="edge2" class="edge">
<title>group&#45;&gt;slot</title>
<path fill="none" stroke="#2e8f89" d="M427.75,-219.19C427.75,-268.67 427.75,-402 427.75,-402 427.75,-402 792.65,-402 792.65,-402"/>
<polygon fill="#2e8f89" stroke="#2e8f89" points="792.65,-404.45 799.65,-402 792.65,-399.55 792.65,-404.45"/>
<text xml:space="preserve" text-anchor="middle" x="660.12" y="-404.5" font-family="Comic Mono" font-size="10.00">build slot candidates groupName#0..N</text>
</g>
<!-- backend -->
<g id="node4" class="node">
<title>backend</title>
<path fill="#f8fafc" stroke="#94a3b8" d="M921.75,-253C921.75,-253 802.25,-253 802.25,-253 796.25,-253 790.25,-247 790.25,-241 790.25,-241 790.25,-229 790.25,-229 790.25,-223 796.25,-217 802.25,-217 802.25,-217 921.75,-217 921.75,-217 927.75,-217 933.75,-223 933.75,-229 933.75,-229 933.75,-241 933.75,-241 933.75,-247 927.75,-253 921.75,-253"/>
<text xml:space="preserve" text-anchor="middle" x="862" y="-229.57" font-family="Comic Mono" font-size="14.00">Backend primitive</text>
</g>
<!-- group&#45;&gt;backend -->
<g id="edge3" class="edge">
<title>group&#45;&gt;backend</title>
<path fill="none" stroke="#b9851b" d="M530.41,-202.43C672.55,-202.43 912.75,-202.43 912.75,-202.43 912.75,-202.43 912.75,-208.3 912.75,-208.3"/>
<polygon fill="#b9851b" stroke="#b9851b" points="910.3,-208.3 912.75,-215.3 915.2,-208.3 910.3,-208.3"/>
<text xml:space="preserve" text-anchor="middle" x="660.12" y="-337.5" font-family="Comic Mono" font-size="10.00">tryAcquire first available slot token</text>
</g>
<!-- group&#45;&gt;backend -->
<g id="edge7" class="edge">
<title>group&#45;&gt;backend</title>
<path fill="none" stroke="#755bc6" d="M530.47,-197.57C667.24,-197.57 892.75,-197.57 892.75,-197.57 892.75,-197.57 892.75,-208.21 892.75,-208.21"/>
<polygon fill="#755bc6" stroke="#755bc6" points="890.3,-208.21 892.75,-215.21 895.2,-208.21 890.3,-208.21"/>
<text xml:space="preserve" text-anchor="middle" x="660.12" y="-270.5" font-family="Comic Mono" font-size="10.00">release owned slot token</text>
</g>
<!-- body -->
<g id="node5" class="node">
<title>body</title>
<path fill="#f8fafc" stroke="#94a3b8" d="M921.75,-52C921.75,-52 802.25,-52 802.25,-52 796.25,-52 790.25,-46 790.25,-40 790.25,-40 790.25,-28 790.25,-28 790.25,-22 796.25,-16 802.25,-16 802.25,-16 921.75,-16 921.75,-16 927.75,-16 933.75,-22 933.75,-28 933.75,-28 933.75,-40 933.75,-40 933.75,-46 927.75,-52 921.75,-52"/>
<text xml:space="preserve" text-anchor="middle" x="862" y="-28.57" font-family="Comic Mono" font-size="14.00">Group leader body</text>
</g>
<!-- group&#45;&gt;body -->
<g id="edge5" class="edge">
<title>group&#45;&gt;body</title>
<path fill="none" stroke="#4f83bf" d="M530.34,-192.71C649.58,-192.71 830.75,-192.71 830.75,-192.71 830.75,-192.71 830.75,-60.72 830.75,-60.72"/>
<polygon fill="#4f83bf" stroke="#4f83bf" points="833.2,-60.72 830.75,-53.72 828.3,-60.72 833.2,-60.72"/>
<text xml:space="preserve" text-anchor="middle" x="660.12" y="-69.5" font-family="Comic Mono" font-size="10.00">execute body with slot ownership</text>
</g>
<!-- backend&#45;&gt;group -->
<g id="edge4" class="edge">
<title>backend&#45;&gt;group</title>
<path fill="none" stroke="#3e9868" d="M851.75,-216.55C851.75,-213.95 851.75,-212.14 851.75,-212.14 851.75,-212.14 539.01,-212.14 539.01,-212.14"/>
<polygon fill="#3e9868" stroke="#3e9868" points="539.01,-209.69 532.01,-212.14 539.01,-214.59 539.01,-209.69"/>
<text xml:space="preserve" text-anchor="middle" x="660.12" y="-203.5" font-family="Comic Mono" font-size="10.00">slot token acquired</text>
</g>
<!-- backend&#45;&gt;group -->
<g id="edge9" class="edge">
<title>backend&#45;&gt;group</title>
<path fill="none" stroke="#c94d68" d="M871.75,-216.67C871.75,-211.51 871.75,-207.29 871.75,-207.29 871.75,-207.29 538.79,-207.29 538.79,-207.29"/>
<polygon fill="#c94d68" stroke="#c94d68" points="538.79,-204.84 531.79,-207.29 538.79,-209.74 538.79,-204.84"/>
<text xml:space="preserve" text-anchor="middle" x="660.12" y="-136.5" font-family="Comic Mono" font-size="10.00">no available slot before waitTime</text>
</g>
<!-- body&#45;&gt;group -->
<g id="edge6" class="edge">
<title>body&#45;&gt;group</title>
<path fill="none" stroke="#3e9868" d="M810.75,-52.25C810.75,-93.01 810.75,-187.86 810.75,-187.86 810.75,-187.86 538.76,-187.86 538.76,-187.86"/>
<polygon fill="#3e9868" stroke="#3e9868" points="538.76,-185.41 531.76,-187.86 538.76,-190.31 538.76,-185.41"/>
<text xml:space="preserve" text-anchor="middle" x="660.12" y="-2.5" font-family="Comic Mono" font-size="10.00">result for owned slot</text>
</g>
</g>
</svg>
