<?xml version="1.0" encoding="UTF-8" standalone="no"?>
<!DOCTYPE svg PUBLIC "-//W3C//DTD SVG 1.1//EN"
 "http://www.w3.org/Graphics/SVG/1.1/DTD/svg11.dtd">
<!-- Generated by graphviz version 15.0.0 (20260523.1842)
 -->
<!-- Title: bluetape4k&#45;leader&#45;architecture&#45;01 Pages: 1 -->
<svg width="1290pt" height="598pt"
 viewBox="0.00 0.00 1290.00 598.00" xmlns="http://www.w3.org/2000/svg" xmlns:xlink="http://www.w3.org/1999/xlink">
<g id="graph0" class="graph" transform="scale(1 1) rotate(0) translate(4 593.58)">
<title>bluetape4k&#45;leader&#45;architecture&#45;01</title>
<text xml:space="preserve" text-anchor="middle" x="641.04" y="-572.28" font-family="Times,serif" font-size="14.00">leader Architecture</text>
<!-- n1&#45;&gt;r1p1 -->
<g id="edge1" class="edge">
<title>n1&#45;&gt;r1p1</title>
<path fill="none" stroke="#758297" stroke-width="1.8" d="M333.59,-515.04C318.4,-515.04 307.07,-515.04 303.35,-515.04"/>
</g>
<!-- n2&#45;&gt;r2p1 -->
<g id="edge4" class="edge">
<title>n2&#45;&gt;r2p1</title>
<path fill="none" stroke="#758297" stroke-width="1.8" d="M667.76,-515.04C525.03,-515.04 322.14,-515.04 303.43,-515.04"/>
</g>
<!-- n3&#45;&gt;r3p1 -->
<g id="edge7" class="edge">
<title>n3&#45;&gt;r3p1</title>
<path fill="none" stroke="#758297" stroke-width="1.8" d="M1001.92,-515.04C770.39,-515.04 330.63,-515.04 303.37,-515.04"/>
</g>
<!-- n4&#45;&gt;n0 -->
<g id="edge10" class="edge">
<title>n4&#45;&gt;n0</title>
<path fill="none" stroke="#758297" stroke-width="1.8" d="M333.85,-355.04C319.62,-355.04 305.14,-355.04 290.81,-355.04"/>
<polygon fill="#758297" stroke="#758297" stroke-width="1.8" points="291.14,-352.24 283.14,-355.04 291.14,-357.84 291.14,-352.24"/>
</g>
<!-- n5&#45;&gt;r5p1 -->
<g id="edge11" class="edge">
<title>n5&#45;&gt;r5p1</title>
<path fill="none" stroke="#758297" stroke-width="1.8" d="M667.61,-355.04C655.61,-355.04 646.75,-355.04 643.45,-355.04"/>
</g>
<!-- n6&#45;&gt;r6p1 -->
<g id="edge16" class="edge">
<title>n6&#45;&gt;r6p1</title>
<path fill="none" stroke="#758297" stroke-width="1.8" d="M1001.65,-355.04C987.34,-355.04 976.74,-355.04 973.26,-355.04"/>
</g>
<!-- n7&#45;&gt;r10p1 -->
<g id="edge28" class="edge">
<title>n7&#45;&gt;r10p1</title>
<path fill="none" stroke="#758297" stroke-width="1.8" d="M1001.92,-195.04C770.39,-195.04 330.63,-195.04 303.37,-195.04"/>
</g>
<!-- n8&#45;&gt;n0 -->
<g id="edge21" class="edge">
<title>n8&#45;&gt;n0</title>
<path fill="none" stroke="#758297" stroke-width="1.8" d="M140.04,-225.18C140.04,-246.55 140.04,-271.68 140.04,-294.12"/>
<polygon fill="#758297" stroke="#758297" stroke-width="1.8" points="137.24,-293.82 140.04,-301.82 142.84,-293.82 137.24,-293.82"/>
</g>
<!-- n9&#45;&gt;r8p1 -->
<g id="edge22" class="edge">
<title>n9&#45;&gt;r8p1</title>
<path fill="none" stroke="#758297" stroke-width="1.8" d="M333.59,-175.04C318.4,-175.04 307.07,-175.04 303.35,-175.04"/>
</g>
<!-- n10&#45;&gt;r9p1 -->
<g id="edge25" class="edge">
<title>n10&#45;&gt;r9p1</title>
<path fill="none" stroke="#758297" stroke-width="1.8" d="M667.76,-175.04C525.03,-175.04 322.14,-175.04 303.43,-175.04"/>
</g>
<!-- n11&#45;&gt;r11p1 -->
<g id="edge31" class="edge">
<title>n11&#45;&gt;r11p1</title>
<path fill="none" stroke="#758297" stroke-width="1.8" d="M1001.92,-50.04C770.39,-50.04 330.63,-50.04 303.37,-50.04"/>
</g>
<!-- r1p1&#45;&gt;r1p2 -->
<g id="edge2" class="edge">
<title>r1p1&#45;&gt;r1p2</title>
<path fill="none" stroke="#758297" stroke-width="1.8" d="M302.04,-513.66C302.04,-498.87 302.04,-370.3 302.04,-356.28"/>
</g>
<!-- r1p2&#45;&gt;n0 -->
<g id="edge3" class="edge">
<title>r1p2&#45;&gt;n0</title>
<path fill="none" stroke="#758297" stroke-width="1.8" d="M300.64,-355.04C298.91,-355.04 295.66,-355.04 291.22,-355.04"/>
<polygon fill="#758297" stroke="#758297" stroke-width="1.8" points="291.3,-352.24 283.3,-355.04 291.3,-357.84 291.3,-352.24"/>
</g>
<!-- r2p1&#45;&gt;r2p2 -->
<g id="edge5" class="edge">
<title>r2p1&#45;&gt;r2p2</title>
<path fill="none" stroke="#758297" stroke-width="1.8" d="M302.04,-513.66C302.04,-498.87 302.04,-370.3 302.04,-356.28"/>
</g>
<!-- r2p2&#45;&gt;n0 -->
<g id="edge6" class="edge">
<title>r2p2&#45;&gt;n0</title>
<path fill="none" stroke="#758297" stroke-width="1.8" d="M300.64,-355.04C298.91,-355.04 295.66,-355.04 291.22,-355.04"/>
<polygon fill="#758297" stroke="#758297" stroke-width="1.8" points="291.3,-352.24 283.3,-355.04 291.3,-357.84 291.3,-352.24"/>
</g>
<!-- r3p1&#45;&gt;r3p2 -->
<g id="edge8" class="edge">
<title>r3p1&#45;&gt;r3p2</title>
<path fill="none" stroke="#758297" stroke-width="1.8" d="M302.04,-513.66C302.04,-498.87 302.04,-370.3 302.04,-356.28"/>
</g>
<!-- r3p2&#45;&gt;n0 -->
<g id="edge9" class="edge">
<title>r3p2&#45;&gt;n0</title>
<path fill="none" stroke="#758297" stroke-width="1.8" d="M300.64,-355.04C298.91,-355.04 295.66,-355.04 291.22,-355.04"/>
<polygon fill="#758297" stroke="#758297" stroke-width="1.8" points="291.3,-352.24 283.3,-355.04 291.3,-357.84 291.3,-352.24"/>
</g>
<!-- r5p1&#45;&gt;r5p2 -->
<g id="edge12" class="edge">
<title>r5p1&#45;&gt;r5p2</title>
<path fill="none" stroke="#758297" stroke-width="1.8" d="M642.04,-353.56C642.04,-343.25 642.04,-282.01 642.04,-271.56"/>
</g>
<!-- r5p2&#45;&gt;r5p3 -->
<g id="edge13" class="edge">
<title>r5p2&#45;&gt;r5p3</title>
<path fill="none" stroke="#758297" stroke-width="1.8" d="M640.52,-270.04C616.95,-270.04 326.13,-270.04 303.44,-270.04"/>
</g>
<!-- r5p3&#45;&gt;r5p4 -->
<g id="edge14" class="edge">
<title>r5p3&#45;&gt;r5p4</title>
<path fill="none" stroke="#758297" stroke-width="1.8" d="M302.04,-271.52C302.04,-281.83 302.04,-343.07 302.04,-353.52"/>
</g>
<!-- r5p4&#45;&gt;n0 -->
<g id="edge15" class="edge">
<title>r5p4&#45;&gt;n0</title>
<path fill="none" stroke="#758297" stroke-width="1.8" d="M300.64,-355.04C298.91,-355.04 295.66,-355.04 291.22,-355.04"/>
<polygon fill="#758297" stroke="#758297" stroke-width="1.8" points="291.3,-352.24 283.3,-355.04 291.3,-357.84 291.3,-352.24"/>
</g>
<!-- r6p1&#45;&gt;r6p2 -->
<g id="edge17" class="edge">
<title>r6p1&#45;&gt;r6p2</title>
<path fill="none" stroke="#758297" stroke-width="1.8" d="M972.04,-353.56C972.04,-343.25 972.04,-282.01 972.04,-271.56"/>
</g>
<!-- r6p2&#45;&gt;r6p3 -->
<g id="edge18" class="edge">
<title>r6p2&#45;&gt;r6p3</title>
<path fill="none" stroke="#758297" stroke-width="1.8" d="M970.56,-270.04C936.85,-270.04 336.26,-270.04 303.44,-270.04"/>
</g>
<!-- r6p3&#45;&gt;r6p4 -->
<g id="edge19" class="edge">
<title>r6p3&#45;&gt;r6p4</title>
<path fill="none" stroke="#758297" stroke-width="1.8" d="M302.04,-271.52C302.04,-281.83 302.04,-343.07 302.04,-353.52"/>
</g>
<!-- r6p4&#45;&gt;n0 -->
<g id="edge20" class="edge">
<title>r6p4&#45;&gt;n0</title>
<path fill="none" stroke="#758297" stroke-width="1.8" d="M300.64,-355.04C298.91,-355.04 295.66,-355.04 291.22,-355.04"/>
<polygon fill="#758297" stroke="#758297" stroke-width="1.8" points="291.3,-352.24 283.3,-355.04 291.3,-357.84 291.3,-352.24"/>
</g>
<!-- r8p1&#45;&gt;r8p2 -->
<g id="edge23" class="edge">
<title>r8p1&#45;&gt;r8p2</title>
<path fill="none" stroke="#758297" stroke-width="1.8" d="M302.04,-176.6C302.04,-193.23 302.04,-337.88 302.04,-353.65"/>
</g>
<!-- r8p2&#45;&gt;n0 -->
<g id="edge24" class="edge">
<title>r8p2&#45;&gt;n0</title>
<path fill="none" stroke="#758297" stroke-width="1.8" d="M300.64,-355.04C298.91,-355.04 295.66,-355.04 291.22,-355.04"/>
<polygon fill="#758297" stroke="#758297" stroke-width="1.8" points="291.3,-352.24 283.3,-355.04 291.3,-357.84 291.3,-352.24"/>
</g>
<!-- r9p1&#45;&gt;r9p2 -->
<g id="edge26" class="edge">
<title>r9p1&#45;&gt;r9p2</title>
<path fill="none" stroke="#758297" stroke-width="1.8" d="M302.04,-176.6C302.04,-193.23 302.04,-337.88 302.04,-353.65"/>
</g>
<!-- r9p2&#45;&gt;n0 -->
<g id="edge27" class="edge">
<title>r9p2&#45;&gt;n0</title>
<path fill="none" stroke="#758297" stroke-width="1.8" d="M300.64,-355.04C298.91,-355.04 295.66,-355.04 291.22,-355.04"/>
<polygon fill="#758297" stroke="#758297" stroke-width="1.8" points="291.3,-352.24 283.3,-355.04 291.3,-357.84 291.3,-352.24"/>
</g>
<!-- r10p1&#45;&gt;r10p2 -->
<g id="edge29" class="edge">
<title>r10p1&#45;&gt;r10p2</title>
<path fill="none" stroke="#758297" stroke-width="1.8" d="M302.04,-196.42C302.04,-211.21 302.04,-339.78 302.04,-353.8"/>
</g>
<!-- r10p2&#45;&gt;n0 -->
<g id="edge30" class="edge">
<title>r10p2&#45;&gt;n0</title>
<path fill="none" stroke="#758297" stroke-width="1.8" d="M300.64,-355.04C298.91,-355.04 295.66,-355.04 291.22,-355.04"/>
<polygon fill="#758297" stroke="#758297" stroke-width="1.8" points="291.3,-352.24 283.3,-355.04 291.3,-357.84 291.3,-352.24"/>
</g>
<!-- r11p1&#45;&gt;r11p2 -->
<g id="edge32" class="edge">
<title>r11p1&#45;&gt;r11p2</title>
<path fill="none" stroke="#758297" stroke-width="1.8" d="M302.04,-51.4C302.04,-72.46 302.04,-331.32 302.04,-353.52"/>
</g>
<!-- r11p2&#45;&gt;n0 -->
<g id="edge33" class="edge">
<title>r11p2&#45;&gt;n0</title>
<path fill="none" stroke="#758297" stroke-width="1.8" d="M300.64,-355.04C298.91,-355.04 295.66,-355.04 291.22,-355.04"/>
<polygon fill="#758297" stroke="#758297" stroke-width="1.8" points="291.3,-352.24 283.3,-355.04 291.3,-357.84 291.3,-352.24"/>
</g>
<!-- n0 -->
<g id="node1" class="node">
<title>n0</title>
<path fill="#ffffff" stroke="#5b8def" d="M268.08,-405.08C268.08,-405.08 12,-405.08 12,-405.08 6,-405.08 0,-399.08 0,-393.08 0,-393.08 0,-317 0,-317 0,-311 6,-305 12,-305 12,-305 268.08,-305 268.08,-305 274.08,-305 280.08,-311 280.08,-317 280.08,-317 280.08,-393.08 280.08,-393.08 280.08,-399.08 274.08,-405.08 268.08,-405.08"/>
<text xml:space="preserve" text-anchor="middle" x="140.04" y="-350.69" font-family="Architects Daughter" font-size="18.00">leader&#45;core</text>
</g>
<!-- n1 -->
<g id="node2" class="node">
<title>n1</title>
<path fill="#ffffff" stroke="#58a978" d="M602.08,-565.08C602.08,-565.08 346,-565.08 346,-565.08 340,-565.08 334,-559.08 334,-553.08 334,-553.08 334,-477 334,-477 334,-471 340,-465 346,-465 346,-465 602.08,-465 602.08,-465 608.08,-465 614.08,-471 614.08,-477 614.08,-477 614.08,-553.08 614.08,-553.08 614.08,-559.08 608.08,-565.08 602.08,-565.08"/>
<text xml:space="preserve" text-anchor="middle" x="474.04" y="-510.69" font-family="Architects Daughter" font-size="18.00">leader&#45;redis&#45;lettuce</text>
</g>
<!-- n2 -->
<g id="node3" class="node">
<title>n2</title>
<path fill="#ffffff" stroke="#d6a441" d="M936.08,-565.08C936.08,-565.08 680,-565.08 680,-565.08 674,-565.08 668,-559.08 668,-553.08 668,-553.08 668,-477 668,-477 668,-471 674,-465 680,-465 680,-465 936.08,-465 936.08,-465 942.08,-465 948.08,-471 948.08,-477 948.08,-477 948.08,-553.08 948.08,-553.08 948.08,-559.08 942.08,-565.08 936.08,-565.08"/>
<text xml:space="preserve" text-anchor="middle" x="808.04" y="-510.69" font-family="Architects Daughter" font-size="18.00">leader&#45;redis&#45;redisso</text>
</g>
<!-- n3 -->
<g id="node4" class="node">
<title>n3</title>
<path fill="#ffffff" stroke="#dc6b82" d="M1270.08,-565.08C1270.08,-565.08 1014,-565.08 1014,-565.08 1008,-565.08 1002,-559.08 1002,-553.08 1002,-553.08 1002,-477 1002,-477 1002,-471 1008,-465 1014,-465 1014,-465 1270.08,-465 1270.08,-465 1276.08,-465 1282.08,-471 1282.08,-477 1282.08,-477 1282.08,-553.08 1282.08,-553.08 1282.08,-559.08 1276.08,-565.08 1270.08,-565.08"/>
<text xml:space="preserve" text-anchor="middle" x="1142.04" y="-510.69" font-family="Architects Daughter" font-size="18.00">leader&#45;hazelcast</text>
</g>
<!-- n4 -->
<g id="node5" class="node">
<title>n4</title>
<path fill="#ffffff" stroke="#45a7a1" d="M602.08,-405.08C602.08,-405.08 346,-405.08 346,-405.08 340,-405.08 334,-399.08 334,-393.08 334,-393.08 334,-317 334,-317 334,-311 340,-305 346,-305 346,-305 602.08,-305 602.08,-305 608.08,-305 614.08,-311 614.08,-317 614.08,-317 614.08,-393.08 614.08,-393.08 614.08,-399.08 608.08,-405.08 602.08,-405.08"/>
<text xml:space="preserve" text-anchor="middle" x="474.04" y="-350.69" font-family="Architects Daughter" font-size="18.00">leader&#45;exposed&#45;core</text>
</g>
<!-- n5 -->
<g id="node6" class="node">
<title>n5</title>
<path fill="#ffffff" stroke="#8a72d6" d="M936.08,-405.08C936.08,-405.08 680,-405.08 680,-405.08 674,-405.08 668,-399.08 668,-393.08 668,-393.08 668,-317 668,-317 668,-311 674,-305 680,-305 680,-305 936.08,-305 936.08,-305 942.08,-305 948.08,-311 948.08,-317 948.08,-317 948.08,-393.08 948.08,-393.08 948.08,-399.08 942.08,-405.08 936.08,-405.08"/>
<text xml:space="preserve" text-anchor="middle" x="808.04" y="-350.69" font-family="Architects Daughter" font-size="18.00">leader&#45;exposed&#45;jdbc</text>
</g>
<!-- n6 -->
<g id="node7" class="node">
<title>n6</title>
<path fill="#ffffff" stroke="#b88a44" d="M1270.08,-405.08C1270.08,-405.08 1014,-405.08 1014,-405.08 1008,-405.08 1002,-399.08 1002,-393.08 1002,-393.08 1002,-317 1002,-317 1002,-311 1008,-305 1014,-305 1014,-305 1270.08,-305 1270.08,-305 1276.08,-305 1282.08,-311 1282.08,-317 1282.08,-317 1282.08,-393.08 1282.08,-393.08 1282.08,-399.08 1276.08,-405.08 1270.08,-405.08"/>
<text xml:space="preserve" text-anchor="middle" x="1142.04" y="-350.69" font-family="Architects Daughter" font-size="18.00">leader&#45;exposed&#45;r2dbc</text>
</g>
<!-- n7 -->
<g id="node8" class="node">
<title>n7</title>
<path fill="#ffffff" stroke="#8ba84d" d="M1270.08,-245.08C1270.08,-245.08 1014,-245.08 1014,-245.08 1008,-245.08 1002,-239.08 1002,-233.08 1002,-233.08 1002,-157 1002,-157 1002,-151 1008,-145 1014,-145 1014,-145 1270.08,-145 1270.08,-145 1276.08,-145 1282.08,-151 1282.08,-157 1282.08,-157 1282.08,-233.08 1282.08,-233.08 1282.08,-239.08 1276.08,-245.08 1270.08,-245.08"/>
<text xml:space="preserve" text-anchor="middle" x="1142.04" y="-190.69" font-family="Architects Daughter" font-size="18.00">leader&#45;mongodb</text>
</g>
<!-- n8 -->
<g id="node9" class="node">
<title>n8</title>
<path fill="#ffffff" stroke="#5b8def" d="M268.08,-225.08C268.08,-225.08 12,-225.08 12,-225.08 6,-225.08 0,-219.08 0,-213.08 0,-213.08 0,-137 0,-137 0,-131 6,-125 12,-125 12,-125 268.08,-125 268.08,-125 274.08,-125 280.08,-131 280.08,-137 280.08,-137 280.08,-213.08 280.08,-213.08 280.08,-219.08 274.08,-225.08 268.08,-225.08"/>
<text xml:space="preserve" text-anchor="middle" x="140.04" y="-170.69" font-family="Architects Daughter" font-size="18.00">leader&#45;spring&#45;boot</text>
</g>
<!-- n9 -->
<g id="node10" class="node">
<title>n9</title>
<path fill="#ffffff" stroke="#58a978" d="M602.08,-225.08C602.08,-225.08 346,-225.08 346,-225.08 340,-225.08 334,-219.08 334,-213.08 334,-213.08 334,-137 334,-137 334,-131 340,-125 346,-125 346,-125 602.08,-125 602.08,-125 608.08,-125 614.08,-131 614.08,-137 614.08,-137 614.08,-213.08 614.08,-213.08 614.08,-219.08 608.08,-225.08 602.08,-225.08"/>
<text xml:space="preserve" text-anchor="middle" x="474.04" y="-170.69" font-family="Architects Daughter" font-size="18.00">leader&#45;micrometer</text>
</g>
<!-- n10 -->
<g id="node11" class="node">
<title>n10</title>
<path fill="#ffffff" stroke="#d6a441" d="M936.08,-225.08C936.08,-225.08 680,-225.08 680,-225.08 674,-225.08 668,-219.08 668,-213.08 668,-213.08 668,-137 668,-137 668,-131 674,-125 680,-125 680,-125 936.08,-125 936.08,-125 942.08,-125 948.08,-131 948.08,-137 948.08,-137 948.08,-213.08 948.08,-213.08 948.08,-219.08 942.08,-225.08 936.08,-225.08"/>
<text xml:space="preserve" text-anchor="middle" x="808.04" y="-170.69" font-family="Architects Daughter" font-size="18.00">leader&#45;ktor (Ktor</text>
</g>
<!-- n11 -->
<g id="node12" class="node">
<title>n11</title>
<path fill="#ffffff" stroke="#dc6b82" d="M1270.08,-100.08C1270.08,-100.08 1014,-100.08 1014,-100.08 1008,-100.08 1002,-94.08 1002,-88.08 1002,-88.08 1002,-12 1002,-12 1002,-6 1008,0 1014,0 1014,0 1270.08,0 1270.08,0 1276.08,0 1282.08,-6 1282.08,-12 1282.08,-12 1282.08,-88.08 1282.08,-88.08 1282.08,-94.08 1276.08,-100.08 1270.08,-100.08"/>
<text xml:space="preserve" text-anchor="middle" x="1142.04" y="-45.69" font-family="Architects Daughter" font-size="18.00">leader&#45;zookeeper</text>
</g>
<!-- r1p1 -->
<!-- r1p2 -->
<!-- r2p1 -->
<!-- r2p2 -->
<!-- r3p1 -->
<!-- r3p2 -->
<!-- r5p1 -->
<!-- r5p2 -->
<!-- r5p3 -->
<!-- r5p4 -->
<!-- r6p1 -->
<!-- r6p2 -->
<!-- r6p3 -->
<!-- r6p4 -->
<!-- r8p1 -->
<!-- r8p2 -->
<!-- r9p1 -->
<!-- r9p2 -->
<!-- r10p1 -->
<!-- r10p2 -->
<!-- r11p1 -->
<!-- r11p2 -->
</g>
</svg>
