<?xml version="1.0" encoding="UTF-8" standalone="no"?>
<!DOCTYPE svg PUBLIC "-//W3C//DTD SVG 1.1//EN"
 "http://www.w3.org/Graphics/SVG/1.1/DTD/svg11.dtd">
<!-- Generated by graphviz version 15.0.0 (20260523.1842)
 -->
<!-- Title: bluetape4k&#45;leader&#45;sequence&#45;03 Pages: 1 -->
<svg width="1008pt" height="105pt"
 viewBox="0.00 0.00 1008.00 105.00" xmlns="http://www.w3.org/2000/svg" xmlns:xlink="http://www.w3.org/1999/xlink">
<g id="graph0" class="graph" transform="scale(1 1) rotate(0) translate(4 100.5)">
<title>bluetape4k&#45;leader&#45;sequence&#45;03</title>
<text xml:space="preserve" text-anchor="middle" x="499.84" y="-79.2" font-family="Times,serif" font-size="14.00">Multi&#45;leader group: slot&#45;based semap.</text>
<!-- n0&#45;&gt;n1 -->
<g id="edge1" class="edge">
<title>n0&#45;&gt;n1</title>
<path fill="none" stroke="#758297" stroke-width="1.8" d="M230.09,-14C230.09,-14 373.87,-14 373.87,-14"/>
<polygon fill="#758297" stroke="#758297" stroke-width="1.8" points="373.87,-16.8 381.87,-14 373.87,-11.2 373.87,-16.8"/>
</g>
<!-- n0&#45;&gt;n1 -->
<g id="edge5" class="edge">
<title>n0&#45;&gt;n1</title>
<path fill="none" stroke="#758297" stroke-width="1.8" stroke-dasharray="5,2" d="M230.09,-58C230.09,-58 373.87,-58 373.87,-58"/>
<polygon fill="#758297" stroke="#758297" stroke-width="1.8" points="373.87,-60.8 381.87,-58 373.87,-55.2 373.87,-60.8"/>
</g>
<!-- n1&#45;&gt;n0 -->
<g id="edge4" class="edge">
<title>n1&#45;&gt;n0</title>
<path fill="none" stroke="#758297" stroke-width="1.8" d="M384.59,-43C384.59,-43 240.81,-43 240.81,-43"/>
<polygon fill="#758297" stroke="#758297" stroke-width="1.8" points="240.81,-40.2 232.81,-43 240.81,-45.8 240.81,-40.2"/>
</g>
<!-- n1&#45;&gt;n0 -->
<g id="edge7" class="edge">
<title>n1&#45;&gt;n0</title>
<path fill="none" stroke="#758297" stroke-width="1.8" stroke-dasharray="5,2" d="M384.59,-29C384.59,-29 240.81,-29 240.81,-29"/>
<polygon fill="#758297" stroke="#758297" stroke-width="1.8" points="240.81,-26.2 232.81,-29 240.81,-31.8 240.81,-26.2"/>
</g>
<!-- n1&#45;&gt;n2 -->
<g id="edge2" class="edge">
<title>n1&#45;&gt;n2</title>
<path fill="none" stroke="#758297" stroke-width="1.8" d="M615.09,-43C615.09,-43 758.87,-43 758.87,-43"/>
<polygon fill="#758297" stroke="#758297" stroke-width="1.8" points="758.87,-45.8 766.87,-43 758.87,-40.2 758.87,-45.8"/>
</g>
<!-- n1&#45;&gt;n2 -->
<g id="edge6" class="edge">
<title>n1&#45;&gt;n2</title>
<path fill="none" stroke="#758297" stroke-width="1.8" d="M615.09,-29C615.09,-29 758.87,-29 758.87,-29"/>
<polygon fill="#758297" stroke="#758297" stroke-width="1.8" points="758.87,-31.8 766.87,-29 758.87,-26.2 758.87,-31.8"/>
</g>
<!-- n2&#45;&gt;n1 -->
<g id="edge3" class="edge">
<title>n2&#45;&gt;n1</title>
<path fill="none" stroke="#758297" stroke-width="1.8" stroke-dasharray="5,2" d="M769.59,-14C769.59,-14 625.81,-14 625.81,-14"/>
<polygon fill="#758297" stroke="#758297" stroke-width="1.8" points="625.81,-11.2 617.81,-14 625.81,-16.8 625.81,-11.2"/>
</g>
<!-- n2&#45;&gt;n1 -->
<g id="edge8" class="edge">
<title>n2&#45;&gt;n1</title>
<path fill="none" stroke="#758297" stroke-width="1.8" stroke-dasharray="5,2" d="M769.59,-58C769.59,-58 625.81,-58 625.81,-58"/>
<polygon fill="#758297" stroke="#758297" stroke-width="1.8" points="625.81,-55.2 617.81,-58 625.81,-60.8 625.81,-55.2"/>
</g>
<!-- n0 -->
<g id="node1" class="node">
<title>n0</title>
<path fill="#ffffff" stroke="#5b8def" d="M217.68,-72C217.68,-72 12,-72 12,-72 6,-72 0,-66 0,-60 0,-60 0,-12 0,-12 0,-6 6,0 12,0 12,0 217.68,0 217.68,0 223.68,0 229.68,-6 229.68,-12 229.68,-12 229.68,-60 229.68,-60 229.68,-66 223.68,-72 217.68,-72"/>
<text xml:space="preserve" text-anchor="middle" x="114.84" y="-31.65" font-family="Architects Daughter" font-size="18.00">Caller</text>
</g>
<!-- n1 -->
<g id="node2" class="node">
<title>n1</title>
<path fill="#ffffff" stroke="#58a978" d="M602.68,-72C602.68,-72 397,-72 397,-72 391,-72 385,-66 385,-60 385,-60 385,-12 385,-12 385,-6 391,0 397,0 397,0 602.68,0 602.68,0 608.68,0 614.68,-6 614.68,-12 614.68,-12 614.68,-60 614.68,-60 614.68,-66 608.68,-72 602.68,-72"/>
<text xml:space="preserve" text-anchor="middle" x="499.84" y="-31.65" font-family="Architects Daughter" font-size="18.00">GroupElection</text>
</g>
<!-- n2 -->
<g id="node3" class="node">
<title>n2</title>
<path fill="#ffffff" stroke="#d6a441" d="M987.68,-72C987.68,-72 782,-72 782,-72 776,-72 770,-66 770,-60 770,-60 770,-12 770,-12 770,-6 776,0 782,0 782,0 987.68,0 987.68,0 993.68,0 999.68,-6 999.68,-12 999.68,-12 999.68,-60 999.68,-60 999.68,-66 993.68,-72 987.68,-72"/>
<text xml:space="preserve" text-anchor="middle" x="884.84" y="-31.65" font-family="Architects Daughter" font-size="18.00">LockStore</text>
</g>
</g>
</svg>
