<svg xmlns="http://www.w3.org/2000/svg" width="1378" height="858" viewBox="0 0 1378 858" role="img" aria-label="leader bom Architecture">
  <metadata id="graphviz-evidence">Regenerated with Graphviz evidence: bluetape4k-leader-bom-architecture-01.dot, bluetape4k-leader-bom-architecture-01.plain, bluetape4k-leader-bom-architecture-01-graphviz.svg via scripts/regenerate-readme-diagram-graphviz-evidence.mjs.</metadata>
<defs>
  <filter id="shadow" x="-8%" y="-8%" width="116%" height="116%"><feDropShadow dx="0" dy="8" stdDeviation="9" flood-color="#1f2937" flood-opacity="0.10"/></filter>
  <marker id="openArrow" markerWidth="12" markerHeight="10" refX="10" refY="5" orient="auto" markerUnits="strokeWidth"><path d="M 1 1 L 10 5 L 1 9" fill="none" stroke="#758297" stroke-width="1.8" stroke-linecap="round" stroke-linejoin="round"/></marker>
  <marker id="inherit" markerWidth="14" markerHeight="12" refX="12" refY="6" orient="auto" markerUnits="strokeWidth"><path d="M 0 1 L 12 6 L 0 11 Z" fill="#ffffff" stroke="#758297" stroke-width="1.8"/></marker>
  <style>
    .canvas{fill:#f7f9fc}.frame{fill:#fff;stroke:#d8e0ea;stroke-width:1.5}
    .title{font-family:"Architects Daughter","Comic Mono","Comic Sans MS","Comic Sans",cursive;font-size:43px;font-weight:400;fill:#102033}
    .subtitle{font-family:"Comic Mono","Comic Sans MS","Comic Sans","Comic Neue",Arial,sans-serif;font-size:15px;font-weight:400;fill:#536273}
    .label{font-family:"Architects Daughter","Comic Mono","Comic Sans MS","Comic Sans",cursive;font-size:25px;font-weight:400;fill:#102033}
    .smallLabel{font-family:"Architects Daughter","Comic Mono","Comic Sans MS","Comic Sans",cursive;font-size:21px;font-weight:400;fill:#102033}
    .mono{font-family:"Comic Mono","Comic Sans MS","Comic Sans","Comic Neue",Arial,sans-serif;font-size:12px;font-weight:400;fill:#102033}
    .small{font-family:"Comic Mono","Comic Sans MS","Comic Sans","Comic Neue",Arial,sans-serif;font-size:12px;font-weight:400;fill:#536273}
    .strong{font-family:"Comic Mono","Comic Sans MS","Comic Sans","Comic Neue",Arial,sans-serif;font-size:13px;font-weight:400;fill:#102033}
    .card{stroke-width:2.1;filter:url(#shadow)}.compartment{stroke-width:1.5;fill:none}
    .line{stroke:#758297;stroke-width:2.1;fill:none;marker-end:url(#openArrow)}
    .plainLine{stroke:#758297;stroke-width:2.1;fill:none}
    .dashed{stroke:#758297;stroke-width:2.1;stroke-dasharray:7 6;fill:none;marker-end:url(#openArrow)}
    .inheritLine{stroke:#758297;stroke-width:2.2;fill:none;marker-end:url(#inherit)}
    .implLine{stroke:#758297;stroke-width:2.2;stroke-dasharray:8 7;fill:none;marker-end:url(#inherit)}

    .layerBand{fill-opacity:0.45;stroke-width:1.4;stroke-dasharray:9 7}
    .layerLabel{font-family:"Architects Daughter","Comic Mono","Comic Sans MS","Comic Sans",cursive;font-size:19px;font-weight:400;fill:#536273}
  </style>
</defs>
<rect class="canvas" width="1378" height="858"/>
<rect class="frame" x="32" y="28" width="1314" height="802" rx="28"/>
<text class="title" x="66" y="82">leader bom Architecture</text>
<text class="subtitle" x="70" y="118">Architecture nodes and edges from the original Mermaid source</text>
<g id="layer-bands" aria-label="Layer bands">
  <g data-layer="Build Consumers">
    <rect class="layerBand" x="40" y="146" width="1298" height="140" rx="18" fill="#EEF6FF" stroke="#9BC4F8"/>
    <text class="layerLabel" x="58" y="173">Build Consumers</text>
  </g>
  <g data-layer="Published Platform">
    <rect class="layerBand" x="40" y="312" width="1298" height="140" rx="18" fill="#EEF8F1" stroke="#A5D6B7"/>
    <text class="layerLabel" x="58" y="339">Published Platform</text>
  </g>
  <g data-layer="Managed Module Constraints">
    <rect class="layerBand" x="40" y="478" width="1298" height="140" rx="18" fill="#FFF7E8" stroke="#E3BE70"/>
    <text class="layerLabel" x="58" y="505">Managed Module Constraints</text>
  </g>
  <g data-layer="Optional Runtime Modules">
    <rect class="layerBand" x="40" y="644" width="1298" height="140" rx="18" fill="#FDF0F4" stroke="#E7A1B0"/>
    <text class="layerLabel" x="58" y="671">Optional Runtime Modules</text>
  </g>
</g>

<path class="line" d="M522 280 C522 469 856 469 856 658"/>
<path class="line" d="M522 280 C522 469 522 469 522 658"/>
<path class="line" d="M672 220 C672 386 1040 386 1040 552"/>
<path class="line" d="M372 220 C372 386 338 386 338 552"/>
<path class="line" d="M672 220 C672 220 1040 220 1040 220"/>
<path class="line" d="M672 220 C672 220 706 220 706 220"/>
<path class="line" d="M338 220 C338 220 372 220 372 220"/>
<g transform="translate(48,170)">
  <rect class="card" x="0" y="0" width="280" height="100" rx="14" fill="#E8F3FF" stroke="#5B8DEF"/>
  <text class="smallLabel" x="140" y="45" text-anchor="middle">Consumer Project</text>
</g>
<g transform="translate(382,170)">
  <rect class="card" x="0" y="0" width="280" height="100" rx="14" fill="#EAF7EF" stroke="#58A978"/>
  <text class="smallLabel" x="140" y="33" text-anchor="middle">bluetape4k-leader-bo</text>
<text class="smallLabel" x="140" y="59" text-anchor="middle">m java-platform</text>
</g>
<g transform="translate(716,170)">
  <rect class="card" x="0" y="0" width="280" height="100" rx="14" fill="#FFF3D9" stroke="#D6A441"/>
  <text class="smallLabel" x="140" y="45" text-anchor="middle">leader-core</text>
</g>
<g transform="translate(1050,170)">
  <rect class="card" x="0" y="0" width="280" height="100" rx="14" fill="#FDECEF" stroke="#DC6B82"/>
  <text class="smallLabel" x="140" y="45" text-anchor="middle">leader-redis-lettuce</text>
</g>
<g transform="translate(48,336)">
  <rect class="card" x="0" y="0" width="280" height="100" rx="14" fill="#E9F7F6" stroke="#45A7A1"/>
  <text class="smallLabel" x="140" y="33" text-anchor="middle">leader-redis-redisso</text>
<text class="smallLabel" x="140" y="59" text-anchor="middle">n</text>
</g>
<g transform="translate(382,336)">
  <rect class="card" x="0" y="0" width="280" height="100" rx="14" fill="#F1ECFF" stroke="#8A72D6"/>
  <text class="smallLabel" x="140" y="45" text-anchor="middle">leader-exposed-core</text>
</g>
<g transform="translate(716,336)">
  <rect class="card" x="0" y="0" width="280" height="100" rx="14" fill="#F7F1E7" stroke="#B88A44"/>
  <text class="smallLabel" x="140" y="45" text-anchor="middle">leader-exposed-jdbc</text>
</g>
<g transform="translate(1050,336)">
  <rect class="card" x="0" y="0" width="280" height="100" rx="14" fill="#EEF6D9" stroke="#8BA84D"/>
  <text class="smallLabel" x="140" y="45" text-anchor="middle">leader-exposed-r2dbc</text>
</g>
<g transform="translate(48,502)">
  <rect class="card" x="0" y="0" width="280" height="100" rx="14" fill="#E8F3FF" stroke="#5B8DEF"/>
  <text class="smallLabel" x="140" y="45" text-anchor="middle">leader-mongodb</text>
</g>
<g transform="translate(382,502)">
  <rect class="card" x="0" y="0" width="280" height="100" rx="14" fill="#EAF7EF" stroke="#58A978"/>
  <text class="smallLabel" x="140" y="45" text-anchor="middle">leader-hazelcast</text>
</g>
<g transform="translate(716,502)">
  <rect class="card" x="0" y="0" width="280" height="100" rx="14" fill="#FFF3D9" stroke="#D6A441"/>
  <text class="smallLabel" x="140" y="45" text-anchor="middle">leader-zookeeper</text>
</g>
<g transform="translate(1050,502)">
  <rect class="card" x="0" y="0" width="280" height="100" rx="14" fill="#FDECEF" stroke="#DC6B82"/>
  <text class="smallLabel" x="140" y="45" text-anchor="middle">leader-spring-boot</text>
</g>
<g transform="translate(382,668)">
  <rect class="card" x="0" y="0" width="280" height="100" rx="14" fill="#E9F7F6" stroke="#45A7A1"/>
  <text class="smallLabel" x="140" y="45" text-anchor="middle">leader-micrometer</text>
</g>
<g transform="translate(716,668)">
  <rect class="card" x="0" y="0" width="280" height="100" rx="14" fill="#F1ECFF" stroke="#8A72D6"/>
  <text class="smallLabel" x="140" y="45" text-anchor="middle">leader-ktor</text>
</g>
</svg>
