<?xml version="1.0" encoding="UTF-8" standalone="no"?>
<!DOCTYPE svg PUBLIC "-//W3C//DTD SVG 1.1//EN"
 "http://www.w3.org/Graphics/SVG/1.1/DTD/svg11.dtd">
<!-- Generated by graphviz version 15.0.0 (20260523.1842)
 -->
<!-- Title: bluetape4k&#45;leader&#45;sequence&#45;02 Pages: 1 -->
<svg width="931pt" height="489pt"
 viewBox="0.00 0.00 931.00 489.00" xmlns="http://www.w3.org/2000/svg" xmlns:xlink="http://www.w3.org/1999/xlink">
<g id="graph0" class="graph" transform="scale(1 1) rotate(0) translate(4 485)">
<title>bluetape4k&#45;leader&#45;sequence&#45;02</title>
<!-- caller -->
<g id="node1" class="node">
<title>caller</title>
<path fill="#f8fafc" stroke="#94a3b8" d="M49,-252C49,-252 12,-252 12,-252 6,-252 0,-246 0,-240 0,-240 0,-228 0,-228 0,-222 6,-216 12,-216 12,-216 49,-216 49,-216 55,-216 61,-222 61,-228 61,-228 61,-240 61,-240 61,-246 55,-252 49,-252"/>
<text xml:space="preserve" text-anchor="middle" x="30.5" y="-228.57" font-family="Comic Mono" font-size="14.00">Caller</text>
</g>
<!-- elector -->
<g id="node2" class="node">
<title>elector</title>
<path fill="#f8fafc" stroke="#94a3b8" d="M470,-252C470,-252 328,-252 328,-252 322,-252 316,-246 316,-240 316,-240 316,-228 316,-228 316,-222 322,-216 328,-216 328,-216 470,-216 470,-216 476,-216 482,-222 482,-228 482,-228 482,-240 482,-240 482,-246 476,-252 470,-252"/>
<text xml:space="preserve" text-anchor="middle" x="399" y="-228.57" font-family="Comic Mono" font-size="14.00">SuspendLeaderElector</text>
</g>
<!-- caller&#45;&gt;elector -->
<g id="edge1" class="edge">
<title>caller&#45;&gt;elector</title>
<path fill="none" stroke="#4f83bf" d="M61.28,-225C61.28,-225 307.36,-225 307.36,-225"/>
<polygon fill="#4f83bf" stroke="#4f83bf" points="307.36,-227.45 314.36,-225 307.36,-222.55 307.36,-227.45"/>
<text xml:space="preserve" text-anchor="middle" x="188.5" y="-303.5" font-family="Comic Mono" font-size="10.00">runIfLeader(lockName, options, body)</text>
</g>
<!-- elector&#45;&gt;caller -->
<g id="edge8" class="edge">
<title>elector&#45;&gt;caller</title>
<path fill="none" stroke="#3e9868" d="M315.84,-234C315.84,-234 69.61,-234 69.61,-234"/>
<polygon fill="#3e9868" stroke="#3e9868" points="69.61,-231.55 62.61,-234 69.61,-236.45 69.61,-231.55"/>
<text xml:space="preserve" text-anchor="middle" x="188.5" y="-236.5" font-family="Comic Mono" font-size="10.00">return body result</text>
</g>
<!-- elector&#45;&gt;caller -->
<g id="edge11" class="edge">
<title>elector&#45;&gt;caller</title>
<path fill="none" stroke="#c94d68" d="M315.84,-243C315.84,-243 69.61,-243 69.61,-243"/>
<polygon fill="#c94d68" stroke="#c94d68" points="69.61,-240.55 62.61,-243 69.61,-245.45 69.61,-240.55"/>
<text xml:space="preserve" text-anchor="middle" x="188.5" y="-169.5" font-family="Comic Mono" font-size="10.00">return null or skipped result</text>
</g>
<!-- backend -->
<g id="node3" class="node">
<title>backend</title>
<path fill="#f8fafc" stroke="#94a3b8" d="M910.5,-386C910.5,-386 791,-386 791,-386 785,-386 779,-380 779,-374 779,-374 779,-362 779,-362 779,-356 785,-350 791,-350 791,-350 910.5,-350 910.5,-350 916.5,-350 922.5,-356 922.5,-362 922.5,-362 922.5,-374 922.5,-374 922.5,-380 916.5,-386 910.5,-386"/>
<text xml:space="preserve" text-anchor="middle" x="850.75" y="-362.57" font-family="Comic Mono" font-size="14.00">Backend primitive</text>
</g>
<!-- elector&#45;&gt;backend -->
<g id="edge2" class="edge">
<title>elector&#45;&gt;backend</title>
<path fill="none" stroke="#b9851b" d="M482.47,-246.86C599.85,-246.86 799.5,-246.86 799.5,-246.86 799.5,-246.86 799.5,-341.09 799.5,-341.09"/>
<polygon fill="#b9851b" stroke="#b9851b" points="797.05,-341.09 799.5,-348.09 801.95,-341.09 797.05,-341.09"/>
<text xml:space="preserve" text-anchor="middle" x="630.5" y="-471.5" font-family="Comic Mono" font-size="10.00">tryAcquire owner token within waitTime</text>
</g>
<!-- elector&#45;&gt;backend -->
<g id="edge7" class="edge">
<title>elector&#45;&gt;backend</title>
<path fill="none" stroke="#755bc6" d="M482.31,-231.43C615.24,-231.43 860.5,-231.43 860.5,-231.43 860.5,-231.43 860.5,-341.07 860.5,-341.07"/>
<polygon fill="#755bc6" stroke="#755bc6" points="858.05,-341.07 860.5,-348.07 862.95,-341.07 858.05,-341.07"/>
<text xml:space="preserve" text-anchor="middle" x="630.5" y="-404.5" font-family="Comic Mono" font-size="10.00">release token or let lease expire on failure</text>
</g>
<!-- listener -->
<g id="node4" class="node">
<title>listener</title>
<path fill="#f8fafc" stroke="#94a3b8" d="M910.5,-186C910.5,-186 791,-186 791,-186 785,-186 779,-180 779,-174 779,-174 779,-162 779,-162 779,-156 785,-150 791,-150 791,-150 910.5,-150 910.5,-150 916.5,-150 922.5,-156 922.5,-162 922.5,-162 922.5,-174 922.5,-174 922.5,-180 916.5,-186 910.5,-186"/>
<text xml:space="preserve" text-anchor="middle" x="850.75" y="-162.57" font-family="Comic Mono" font-size="14.00">Listeners/metrics</text>
</g>
<!-- elector&#45;&gt;listener -->
<g id="edge4" class="edge">
<title>elector&#45;&gt;listener</title>
<path fill="none" stroke="#718a35" d="M482.49,-221.14C620.59,-221.14 881.5,-221.14 881.5,-221.14 881.5,-221.14 881.5,-194.8 881.5,-194.8"/>
<polygon fill="#718a35" stroke="#718a35" points="883.95,-194.8 881.5,-187.8 879.05,-194.8 883.95,-194.8"/>
<text xml:space="preserve" text-anchor="middle" x="630.5" y="-203.5" font-family="Comic Mono" font-size="10.00">notify acquired</text>
</g>
<!-- elector&#45;&gt;listener -->
<g id="edge10" class="edge">
<title>elector&#45;&gt;listener</title>
<path fill="none" stroke="#718a35" d="M482.26,-226.29C625.07,-226.29 901.5,-226.29 901.5,-226.29 901.5,-226.29 901.5,-194.96 901.5,-194.96"/>
<polygon fill="#718a35" stroke="#718a35" points="903.95,-194.96 901.5,-187.96 899.05,-194.96 903.95,-194.96"/>
<text xml:space="preserve" text-anchor="middle" x="630.5" y="-136.5" font-family="Comic Mono" font-size="10.00">notify skipped</text>
</g>
<!-- body -->
<g id="node5" class="node">
<title>body</title>
<path fill="#f8fafc" stroke="#94a3b8" d="M888,-52C888,-52 813.5,-52 813.5,-52 807.5,-52 801.5,-46 801.5,-40 801.5,-40 801.5,-28 801.5,-28 801.5,-22 807.5,-16 813.5,-16 813.5,-16 888,-16 888,-16 894,-16 900,-22 900,-28 900,-28 900,-40 900,-40 900,-46 894,-52 888,-52"/>
<text xml:space="preserve" text-anchor="middle" x="850.75" y="-28.57" font-family="Comic Mono" font-size="14.00">Leader body</text>
</g>
<!-- elector&#45;&gt;body -->
<g id="edge5" class="edge">
<title>elector&#45;&gt;body</title>
<path fill="none" stroke="#4f83bf" d="M426.5,-215.75C426.5,-167.46 426.5,-40 426.5,-40 426.5,-40 792.74,-40 792.74,-40"/>
<polygon fill="#4f83bf" stroke="#4f83bf" points="792.74,-42.45 799.74,-40 792.74,-37.55 792.74,-42.45"/>
<text xml:space="preserve" text-anchor="middle" x="630.5" y="-69.5" font-family="Comic Mono" font-size="10.00">execute leader&#45;only body</text>
</g>
<!-- backend&#45;&gt;elector -->
<g id="edge3" class="edge">
<title>backend&#45;&gt;elector</title>
<path fill="none" stroke="#3e9868" d="M819.5,-349.64C819.5,-314.61 819.5,-241.71 819.5,-241.71 819.5,-241.71 490.84,-241.71 490.84,-241.71"/>
<polygon fill="#3e9868" stroke="#3e9868" points="490.84,-239.26 483.84,-241.71 490.84,-244.16 490.84,-239.26"/>
<text xml:space="preserve" text-anchor="middle" x="630.5" y="-337.5" font-family="Comic Mono" font-size="10.00">ownership token acquired</text>
</g>
<!-- backend&#45;&gt;elector -->
<g id="edge9" class="edge">
<title>backend&#45;&gt;elector</title>
<path fill="none" stroke="#c94d68" d="M840.5,-349.73C840.5,-313.61 840.5,-236.57 840.5,-236.57 840.5,-236.57 490.82,-236.57 490.82,-236.57"/>
<polygon fill="#c94d68" stroke="#c94d68" points="490.82,-234.12 483.82,-236.57 490.82,-239.02 490.82,-234.12"/>
<text xml:space="preserve" text-anchor="middle" x="630.5" y="-270.5" font-family="Comic Mono" font-size="10.00">contention or valid owner</text>
</g>
<!-- body&#45;&gt;elector -->
<g id="edge6" class="edge">
<title>body&#45;&gt;elector</title>
<path fill="none" stroke="#3e9868" d="M801.27,-28C678.82,-28 371.5,-28 371.5,-28 371.5,-28 371.5,-207.21 371.5,-207.21"/>
<polygon fill="#3e9868" stroke="#3e9868" points="369.05,-207.21 371.5,-214.21 373.95,-207.21 369.05,-207.21"/>
<text xml:space="preserve" text-anchor="middle" x="630.5" y="-2.5" font-family="Comic Mono" font-size="10.00">body result or exception</text>
</g>
</g>
</svg>
