<?xml version="1.0" encoding="UTF-8" standalone="no"?>
<!DOCTYPE svg PUBLIC "-//W3C//DTD SVG 1.1//EN"
 "http://www.w3.org/Graphics/SVG/1.1/DTD/svg11.dtd">
<!-- Generated by graphviz version 15.0.0 (20260523.1842)
 -->
<!-- Title: bluetape4k&#45;leader&#45;architecture&#45;01 Pages: 1 -->
<svg width="1452pt" height="186pt"
 viewBox="0.00 0.00 1452.00 186.00" xmlns="http://www.w3.org/2000/svg" xmlns:xlink="http://www.w3.org/1999/xlink">
<g id="graph0" class="graph" transform="scale(1 1) rotate(0) translate(4 182)">
<title>bluetape4k&#45;leader&#45;architecture&#45;01</title>
<!-- caller -->
<g id="node1" class="node">
<title>caller</title>
<path fill="#f8fafc" stroke="#94a3b8" d="M86.5,-95C86.5,-95 12,-95 12,-95 6,-95 0,-89 0,-83 0,-83 0,-71 0,-71 0,-65 6,-59 12,-59 12,-59 86.5,-59 86.5,-59 92.5,-59 98.5,-65 98.5,-71 98.5,-71 98.5,-83 98.5,-83 98.5,-89 92.5,-95 86.5,-95"/>
<text xml:space="preserve" text-anchor="middle" x="49.25" y="-71.58" font-family="Comic Mono" font-size="14.00">Caller work</text>
</g>
<!-- core -->
<g id="node2" class="node">
<title>core</title>
<path fill="#f8fafc" stroke="#94a3b8" d="M339.5,-95C339.5,-95 197.5,-95 197.5,-95 191.5,-95 185.5,-89 185.5,-83 185.5,-83 185.5,-71 185.5,-71 185.5,-65 191.5,-59 197.5,-59 197.5,-59 339.5,-59 339.5,-59 345.5,-59 351.5,-65 351.5,-71 351.5,-71 351.5,-83 351.5,-83 351.5,-89 345.5,-95 339.5,-95"/>
<text xml:space="preserve" text-anchor="middle" x="268.5" y="-71.58" font-family="Comic Mono" font-size="14.00">SuspendLeaderElector</text>
</g>
<!-- caller&#45;&gt;core -->
<g id="edge1" class="edge">
<title>caller&#45;&gt;core</title>
<path fill="none" stroke="#758297" d="M98.73,-77C98.73,-77 173.7,-77 173.7,-77"/>
<polygon fill="#758297" stroke="#758297" points="173.7,-80.5 183.7,-77 173.7,-73.5 173.7,-80.5"/>
<text xml:space="preserve" text-anchor="middle" x="142" y="-79.5" font-family="Comic Mono" font-size="10.00">call</text>
</g>
<!-- group -->
<g id="node3" class="node">
<title>group</title>
<path fill="#f8fafc" stroke="#94a3b8" d="M661.5,-178C661.5,-178 482,-178 482,-178 476,-178 470,-172 470,-166 470,-166 470,-154 470,-154 470,-148 476,-142 482,-142 482,-142 661.5,-142 661.5,-142 667.5,-142 673.5,-148 673.5,-154 673.5,-154 673.5,-166 673.5,-166 673.5,-172 667.5,-178 661.5,-178"/>
<text xml:space="preserve" text-anchor="middle" x="571.75" y="-154.57" font-family="Comic Mono" font-size="14.00">SuspendLeaderGroupElector</text>
</g>
<!-- core&#45;&gt;group -->
<g id="edge2" class="edge">
<title>core&#45;&gt;group</title>
<path fill="none" stroke="#758297" d="M351.95,-83C413.56,-83 486.75,-83 486.75,-83 486.75,-83 486.75,-130.24 486.75,-130.24"/>
<polygon fill="#758297" stroke="#758297" points="483.25,-130.24 486.75,-140.24 490.25,-130.24 483.25,-130.24"/>
<text xml:space="preserve" text-anchor="middle" x="410.75" y="-152.5" font-family="Comic Mono" font-size="10.00">call</text>
</g>
<!-- options -->
<g id="node4" class="node">
<title>options</title>
<path fill="#f8fafc" stroke="#94a3b8" d="M627.75,-95C627.75,-95 515.75,-95 515.75,-95 509.75,-95 503.75,-89 503.75,-83 503.75,-83 503.75,-71 503.75,-71 503.75,-65 509.75,-59 515.75,-59 515.75,-59 627.75,-59 627.75,-59 633.75,-59 639.75,-65 639.75,-71 639.75,-71 639.75,-83 639.75,-83 639.75,-89 633.75,-95 627.75,-95"/>
<text xml:space="preserve" text-anchor="middle" x="571.75" y="-71.58" font-family="Comic Mono" font-size="14.00">Election options</text>
</g>
<!-- core&#45;&gt;options -->
<g id="edge3" class="edge">
<title>core&#45;&gt;options</title>
<path fill="none" stroke="#758297" d="M351.77,-71C351.77,-71 491.98,-71 491.98,-71"/>
<polygon fill="#758297" stroke="#758297" points="491.98,-74.5 501.98,-71 491.98,-67.5 491.98,-74.5"/>
<text xml:space="preserve" text-anchor="middle" x="410.75" y="-79.5" font-family="Comic Mono" font-size="10.00">dependency</text>
</g>
<!-- adapter -->
<g id="node5" class="node">
<title>adapter</title>
<path fill="#f8fafc" stroke="#94a3b8" d="M908.5,-95C908.5,-95 804,-95 804,-95 798,-95 792,-89 792,-83 792,-83 792,-71 792,-71 792,-65 798,-59 804,-59 804,-59 908.5,-59 908.5,-59 914.5,-59 920.5,-65 920.5,-71 920.5,-71 920.5,-83 920.5,-83 920.5,-89 914.5,-95 908.5,-95"/>
<text xml:space="preserve" text-anchor="middle" x="856.25" y="-71.58" font-family="Comic Mono" font-size="14.00">Backend adapter</text>
</g>
<!-- core&#45;&gt;adapter -->
<g id="edge5" class="edge">
<title>core&#45;&gt;adapter</title>
<path fill="none" stroke="#758297" d="M268.75,-58.58C268.75,-45.04 268.75,-29 268.75,-29 268.75,-29 834.75,-29 834.75,-29 834.75,-29 834.75,-47.07 834.75,-47.07"/>
<polygon fill="#758297" stroke="#758297" points="831.25,-47.07 834.75,-57.07 838.25,-47.07 831.25,-47.07"/>
<text xml:space="preserve" text-anchor="middle" x="571.75" y="-2.5" font-family="Comic Mono" font-size="10.00">call</text>
</g>
<!-- group&#45;&gt;adapter -->
<g id="edge6" class="edge">
<title>group&#45;&gt;adapter</title>
<path fill="none" stroke="#758297" d="M656.75,-141.75C656.75,-118.98 656.75,-83 656.75,-83 656.75,-83 780.24,-83 780.24,-83"/>
<polygon fill="#758297" stroke="#758297" points="780.24,-86.5 790.24,-83 780.24,-79.5 780.24,-86.5"/>
<text xml:space="preserve" text-anchor="middle" x="732.75" y="-152.5" font-family="Comic Mono" font-size="10.00">call</text>
</g>
<!-- options&#45;&gt;adapter -->
<g id="edge4" class="edge">
<title>options&#45;&gt;adapter</title>
<path fill="none" stroke="#758297" d="M639.89,-71C639.89,-71 780.08,-71 780.08,-71"/>
<polygon fill="#758297" stroke="#758297" points="780.08,-74.5 790.08,-71 780.08,-67.5 780.08,-74.5"/>
<text xml:space="preserve" text-anchor="middle" x="732.75" y="-79.5" font-family="Comic Mono" font-size="10.00">dependency</text>
</g>
<!-- listeners -->
<g id="node6" class="node">
<title>listeners</title>
<path fill="#f8fafc" stroke="#94a3b8" d="M1200.5,-178C1200.5,-178 1051,-178 1051,-178 1045,-178 1039,-172 1039,-166 1039,-166 1039,-154 1039,-154 1039,-148 1045,-142 1051,-142 1051,-142 1200.5,-142 1200.5,-142 1206.5,-142 1212.5,-148 1212.5,-154 1212.5,-154 1212.5,-166 1212.5,-166 1212.5,-172 1206.5,-178 1200.5,-178"/>
<text xml:space="preserve" text-anchor="middle" x="1125.75" y="-154.57" font-family="Comic Mono" font-size="14.00">Listeners and metrics</text>
</g>
<!-- adapter&#45;&gt;listeners -->
<g id="edge9" class="edge">
<title>adapter&#45;&gt;listeners</title>
<path fill="none" stroke="#758297" d="M920.95,-83C977.2,-83 1049.75,-83 1049.75,-83 1049.75,-83 1049.75,-130.24 1049.75,-130.24"/>
<polygon fill="#758297" stroke="#758297" points="1046.25,-130.24 1049.75,-140.24 1053.25,-130.24 1046.25,-130.24"/>
<text xml:space="preserve" text-anchor="middle" x="979.75" y="-152.5" font-family="Comic Mono" font-size="10.00">metric</text>
</g>
<!-- store -->
<g id="node7" class="node">
<title>store</title>
<path fill="#f8fafc" stroke="#94a3b8" d="M1178,-95C1178,-95 1073.5,-95 1073.5,-95 1067.5,-95 1061.5,-89 1061.5,-83 1061.5,-83 1061.5,-71 1061.5,-71 1061.5,-65 1067.5,-59 1073.5,-59 1073.5,-59 1178,-59 1178,-59 1184,-59 1190,-65 1190,-71 1190,-71 1190,-83 1190,-83 1190,-89 1184,-95 1178,-95"/>
<text xml:space="preserve" text-anchor="middle" x="1125.75" y="-71.58" font-family="Comic Mono" font-size="14.00">Ownership store</text>
</g>
<!-- adapter&#45;&gt;store -->
<g id="edge7" class="edge">
<title>adapter&#45;&gt;store</title>
<path fill="none" stroke="#758297" d="M920.8,-71C920.8,-71 1049.74,-71 1049.74,-71"/>
<polygon fill="#758297" stroke="#758297" points="1049.74,-74.5 1059.74,-71 1049.74,-67.5 1049.74,-74.5"/>
<text xml:space="preserve" text-anchor="middle" x="979.75" y="-79.5" font-family="Comic Mono" font-size="10.00">contention</text>
</g>
<!-- result -->
<g id="node8" class="node">
<title>result</title>
<path fill="#f8fafc" stroke="#94a3b8" d="M1431.75,-56C1431.75,-56 1327.25,-56 1327.25,-56 1321.25,-56 1315.25,-50 1315.25,-44 1315.25,-44 1315.25,-32 1315.25,-32 1315.25,-26 1321.25,-20 1327.25,-20 1327.25,-20 1431.75,-20 1431.75,-20 1437.75,-20 1443.75,-26 1443.75,-32 1443.75,-32 1443.75,-44 1443.75,-44 1443.75,-50 1437.75,-56 1431.75,-56"/>
<text xml:space="preserve" text-anchor="middle" x="1379.5" y="-32.58" font-family="Comic Mono" font-size="14.00">Election result</text>
</g>
<!-- adapter&#45;&gt;result -->
<g id="edge8" class="edge">
<title>adapter&#45;&gt;result</title>
<path fill="none" stroke="#758297" d="M877.75,-58.87C877.75,-48.69 877.75,-38 877.75,-38 877.75,-38 1303.42,-38 1303.42,-38"/>
<polygon fill="#758297" stroke="#758297" points="1303.42,-41.5 1313.42,-38 1303.42,-34.5 1303.42,-41.5"/>
<text xml:space="preserve" text-anchor="middle" x="1125.75" y="-2.5" font-family="Comic Mono" font-size="10.00">success</text>
</g>
<!-- listeners&#45;&gt;result -->
<g id="edge10" class="edge">
<title>listeners&#45;&gt;result</title>
<path fill="none" stroke="#758297" d="M1200.75,-141.59C1200.75,-109.57 1200.75,-47 1200.75,-47 1200.75,-47 1303.45,-47 1303.45,-47"/>
<polygon fill="#758297" stroke="#758297" points="1303.45,-50.5 1313.45,-47 1303.45,-43.5 1303.45,-50.5"/>
<text xml:space="preserve" text-anchor="middle" x="1263.88" y="-120.5" font-family="Comic Mono" font-size="10.00">release</text>
</g>
</g>
</svg>
