<?xml version="1.0" encoding="UTF-8" standalone="no"?>
<!DOCTYPE svg PUBLIC "-//W3C//DTD SVG 1.1//EN"
 "http://www.w3.org/Graphics/SVG/1.1/DTD/svg11.dtd">
<!-- Generated by graphviz version 15.0.0 (20260523.1842)
 -->
<!-- Title: examples&#45;ktor&#45;app&#45;scenario&#45;01 Pages: 1 -->
<svg width="875pt" height="210pt"
 viewBox="0.00 0.00 875.00 210.00" xmlns="http://www.w3.org/2000/svg" xmlns:xlink="http://www.w3.org/1999/xlink">
<g id="graph0" class="graph" transform="scale(1 1) rotate(0) translate(4 206)">
<title>examples&#45;ktor&#45;app&#45;scenario&#45;01</title>
<!-- tick -->
<g id="node1" class="node">
<title>tick</title>
<path fill="#f8fafc" stroke="#94a3b8" d="M146.5,-119C146.5,-119 12,-119 12,-119 6,-119 0,-113 0,-107 0,-107 0,-95 0,-95 0,-89 6,-83 12,-83 12,-83 146.5,-83 146.5,-83 152.5,-83 158.5,-89 158.5,-95 158.5,-95 158.5,-107 158.5,-107 158.5,-113 152.5,-119 146.5,-119"/>
<text xml:space="preserve" text-anchor="middle" x="79.25" y="-95.58" font-family="Comic Mono" font-size="14.00">Background Schedule</text>
</g>
<!-- nodeA -->
<g id="node2" class="node">
<title>nodeA</title>
<path fill="#f8fafc" stroke="#94a3b8" d="M332,-202C332,-202 257.5,-202 257.5,-202 251.5,-202 245.5,-196 245.5,-190 245.5,-190 245.5,-178 245.5,-178 245.5,-172 251.5,-166 257.5,-166 257.5,-166 332,-166 332,-166 338,-166 344,-172 344,-178 344,-178 344,-190 344,-190 344,-196 338,-202 332,-202"/>
<text xml:space="preserve" text-anchor="middle" x="294.75" y="-178.57" font-family="Comic Mono" font-size="14.00">Candidate A</text>
</g>
<!-- tick&#45;&gt;nodeA -->
<g id="edge1" class="edge">
<title>tick&#45;&gt;nodeA</title>
<path fill="none" stroke="#758297" d="M79.25,-119.42C79.25,-143.87 79.25,-184 79.25,-184 79.25,-184 233.53,-184 233.53,-184"/>
<polygon fill="#758297" stroke="#758297" points="233.53,-187.5 243.53,-184 233.53,-180.5 233.53,-187.5"/>
<text xml:space="preserve" text-anchor="middle" x="202" y="-176.5" font-family="Comic Mono" font-size="10.00">call</text>
</g>
<!-- nodeB -->
<g id="node3" class="node">
<title>nodeB</title>
<path fill="#f8fafc" stroke="#94a3b8" d="M332,-119C332,-119 257.5,-119 257.5,-119 251.5,-119 245.5,-113 245.5,-107 245.5,-107 245.5,-95 245.5,-95 245.5,-89 251.5,-83 257.5,-83 257.5,-83 332,-83 332,-83 338,-83 344,-89 344,-95 344,-95 344,-107 344,-107 344,-113 338,-119 332,-119"/>
<text xml:space="preserve" text-anchor="middle" x="294.75" y="-95.58" font-family="Comic Mono" font-size="14.00">Candidate B</text>
</g>
<!-- tick&#45;&gt;nodeB -->
<g id="edge2" class="edge">
<title>tick&#45;&gt;nodeB</title>
<path fill="none" stroke="#758297" d="M158.88,-101C158.88,-101 233.62,-101 233.62,-101"/>
<polygon fill="#758297" stroke="#758297" points="233.62,-104.5 243.62,-101 233.62,-97.5 233.62,-104.5"/>
<text xml:space="preserve" text-anchor="middle" x="202" y="-103.5" font-family="Comic Mono" font-size="10.00">call</text>
</g>
<!-- nodeC -->
<g id="node4" class="node">
<title>nodeC</title>
<path fill="#f8fafc" stroke="#94a3b8" d="M332,-36C332,-36 257.5,-36 257.5,-36 251.5,-36 245.5,-30 245.5,-24 245.5,-24 245.5,-12 245.5,-12 245.5,-6 251.5,0 257.5,0 257.5,0 332,0 332,0 338,0 344,-6 344,-12 344,-12 344,-24 344,-24 344,-30 338,-36 332,-36"/>
<text xml:space="preserve" text-anchor="middle" x="294.75" y="-12.57" font-family="Comic Mono" font-size="14.00">Candidate C</text>
</g>
<!-- tick&#45;&gt;nodeC -->
<g id="edge3" class="edge">
<title>tick&#45;&gt;nodeC</title>
<path fill="none" stroke="#758297" d="M79.25,-82.58C79.25,-58.13 79.25,-18 79.25,-18 79.25,-18 233.53,-18 233.53,-18"/>
<polygon fill="#758297" stroke="#758297" points="233.53,-21.5 243.53,-18 233.53,-14.5 233.53,-21.5"/>
<text xml:space="preserve" text-anchor="middle" x="202" y="-30.5" font-family="Comic Mono" font-size="10.00">call</text>
</g>
<!-- backend -->
<g id="node5" class="node">
<title>backend</title>
<path fill="#f8fafc" stroke="#94a3b8" d="M571.5,-119C571.5,-119 474.5,-119 474.5,-119 468.5,-119 462.5,-113 462.5,-107 462.5,-107 462.5,-95 462.5,-95 462.5,-89 468.5,-83 474.5,-83 474.5,-83 571.5,-83 571.5,-83 577.5,-83 583.5,-89 583.5,-95 583.5,-95 583.5,-107 583.5,-107 583.5,-113 577.5,-119 571.5,-119"/>
<text xml:space="preserve" text-anchor="middle" x="523" y="-95.58" font-family="Comic Mono" font-size="14.00">Redis lock key</text>
</g>
<!-- nodeA&#45;&gt;backend -->
<g id="edge4" class="edge">
<title>nodeA&#45;&gt;backend</title>
<path fill="none" stroke="#758297" d="M344.33,-184C411.53,-184 523.25,-184 523.25,-184 523.25,-184 523.25,-130.93 523.25,-130.93"/>
<polygon fill="#758297" stroke="#758297" points="526.75,-130.93 523.25,-120.93 519.75,-130.93 526.75,-130.93"/>
<text xml:space="preserve" text-anchor="middle" x="403.25" y="-176.5" font-family="Comic Mono" font-size="10.00">contention</text>
</g>
<!-- nodeB&#45;&gt;backend -->
<g id="edge5" class="edge">
<title>nodeB&#45;&gt;backend</title>
<path fill="none" stroke="#758297" d="M344.28,-101C344.28,-101 450.68,-101 450.68,-101"/>
<polygon fill="#758297" stroke="#758297" points="450.68,-104.5 460.68,-101 450.68,-97.5 450.68,-104.5"/>
<text xml:space="preserve" text-anchor="middle" x="403.25" y="-103.5" font-family="Comic Mono" font-size="10.00">contention</text>
</g>
<!-- nodeC&#45;&gt;backend -->
<g id="edge6" class="edge">
<title>nodeC&#45;&gt;backend</title>
<path fill="none" stroke="#758297" d="M344.33,-18C411.53,-18 523.25,-18 523.25,-18 523.25,-18 523.25,-71.07 523.25,-71.07"/>
<polygon fill="#758297" stroke="#758297" points="519.75,-71.07 523.25,-81.07 526.75,-71.07 519.75,-71.07"/>
<text xml:space="preserve" text-anchor="middle" x="403.25" y="-30.5" font-family="Comic Mono" font-size="10.00">contention</text>
</g>
<!-- recovery -->
<g id="node6" class="node">
<title>recovery</title>
<path fill="#f8fafc" stroke="#94a3b8" d="M855.25,-202C855.25,-202 698.25,-202 698.25,-202 692.25,-202 686.25,-196 686.25,-190 686.25,-190 686.25,-178 686.25,-178 686.25,-172 692.25,-166 698.25,-166 698.25,-166 855.25,-166 855.25,-166 861.25,-166 867.25,-172 867.25,-178 867.25,-178 867.25,-190 867.25,-190 867.25,-196 861.25,-202 855.25,-202"/>
<text xml:space="preserve" text-anchor="middle" x="776.75" y="-178.57" font-family="Comic Mono" font-size="14.00">HTTP Health Visibility</text>
</g>
<!-- backend&#45;&gt;recovery -->
<g id="edge9" class="edge">
<title>backend&#45;&gt;recovery</title>
<path fill="none" stroke="#758297" d="M583.66,-110C634.64,-110 699.25,-110 699.25,-110 699.25,-110 699.25,-154.19 699.25,-154.19"/>
<polygon fill="#758297" stroke="#758297" points="695.75,-154.19 699.25,-164.19 702.75,-154.19 695.75,-154.19"/>
<text xml:space="preserve" text-anchor="middle" x="634.88" y="-186.5" font-family="Comic Mono" font-size="10.00">release</text>
</g>
<!-- skipped -->
<g id="node7" class="node">
<title>skipped</title>
<path fill="#f8fafc" stroke="#94a3b8" d="M810.25,-119C810.25,-119 743.25,-119 743.25,-119 737.25,-119 731.25,-113 731.25,-107 731.25,-107 731.25,-95 731.25,-95 731.25,-89 737.25,-83 743.25,-83 743.25,-83 810.25,-83 810.25,-83 816.25,-83 822.25,-89 822.25,-95 822.25,-95 822.25,-107 822.25,-107 822.25,-113 816.25,-119 810.25,-119"/>
<text xml:space="preserve" text-anchor="middle" x="776.75" y="-95.58" font-family="Comic Mono" font-size="14.00">Peers Skip</text>
</g>
<!-- backend&#45;&gt;skipped -->
<g id="edge8" class="edge">
<title>backend&#45;&gt;skipped</title>
<path fill="none" stroke="#758297" d="M583.78,-101C583.78,-101 719.25,-101 719.25,-101"/>
<polygon fill="#758297" stroke="#758297" points="719.25,-104.5 729.25,-101 719.25,-97.5 719.25,-104.5"/>
<text xml:space="preserve" text-anchor="middle" x="634.88" y="-103.5" font-family="Comic Mono" font-size="10.00">skip</text>
</g>
<!-- leader -->
<g id="node8" class="node">
<title>leader</title>
<path fill="#f8fafc" stroke="#94a3b8" d="M829,-36C829,-36 724.5,-36 724.5,-36 718.5,-36 712.5,-30 712.5,-24 712.5,-24 712.5,-12 712.5,-12 712.5,-6 718.5,0 724.5,0 724.5,0 829,0 829,0 835,0 841,-6 841,-12 841,-12 841,-24 841,-24 841,-30 835,-36 829,-36"/>
<text xml:space="preserve" text-anchor="middle" x="776.75" y="-12.57" font-family="Comic Mono" font-size="14.00">One Leader Runs</text>
</g>
<!-- backend&#45;&gt;leader -->
<g id="edge7" class="edge">
<title>backend&#45;&gt;leader</title>
<path fill="none" stroke="#758297" d="M583.86,-92C642.46,-92 722.25,-92 722.25,-92 722.25,-92 722.25,-47.81 722.25,-47.81"/>
<polygon fill="#758297" stroke="#758297" points="725.75,-47.81 722.25,-37.81 718.75,-47.81 725.75,-47.81"/>
<text xml:space="preserve" text-anchor="middle" x="634.88" y="-20.5" font-family="Comic Mono" font-size="10.00">success</text>
</g>
</g>
</svg>
