<?xml version="1.0" encoding="UTF-8" standalone="no"?>
<!DOCTYPE svg PUBLIC "-//W3C//DTD SVG 1.1//EN"
 "http://www.w3.org/Graphics/SVG/1.1/DTD/svg11.dtd">
<!-- Generated by graphviz version 15.0.0 (20260523.1842)
 -->
<!-- Title: examples&#45;tenant&#45;aggregator&#45;sequence&#45;01 Pages: 1 -->
<svg width="1834pt" height="169pt"
 viewBox="0.00 0.00 1834.00 169.00" xmlns="http://www.w3.org/2000/svg" xmlns:xlink="http://www.w3.org/1999/xlink">
<g id="graph0" class="graph" transform="scale(1 1) rotate(0) translate(4 132.5)">
<title>examples&#45;tenant&#45;aggregator&#45;sequence&#45;01</title>
<text xml:space="preserve" text-anchor="middle" x="912.84" y="-111.2" font-family="Times,serif" font-size="14.00">tenant aggregator Sequence Flow</text>
<!-- n0&#45;&gt;n3 -->
<g id="edge1" class="edge">
<title>n0&#45;&gt;n3</title>
<path fill="none" stroke="#758297" stroke-width="1.8" d="M153.12,0.1C153.12,6.41 153.12,11 153.12,11 153.12,11 1015.02,11 1015.02,11 1015.02,11 1015.02,9.91 1015.02,9.91"/>
<polygon fill="#758297" stroke="#758297" stroke-width="1.8" points="1012.22,10.82 1015.02,2.82 1017.82,10.82 1012.22,10.82"/>
</g>
<!-- n0&#45;&gt;n4 -->
<g id="edge7" class="edge">
<title>n0&#45;&gt;n4</title>
<path fill="none" stroke="#758297" stroke-width="1.8" d="M114.84,-72.39C114.84,-88.56 114.84,-104 114.84,-104 114.84,-104 1460.54,-104 1460.54,-104 1460.54,-104 1460.54,-83.11 1460.54,-83.11"/>
<polygon fill="#758297" stroke="#758297" stroke-width="1.8" points="1463.34,-83.11 1460.54,-75.11 1457.74,-83.11 1463.34,-83.11"/>
</g>
<!-- n0&#45;&gt;n5 -->
<g id="edge13" class="edge">
<title>n0&#45;&gt;n5</title>
<path fill="none" stroke="#758297" stroke-width="1.8" d="M76.56,0.3C76.56,15.19 76.56,29 76.56,29 76.56,29 1779.74,29 1779.74,29 1779.74,29 1779.74,11.03 1779.74,11.03"/>
<polygon fill="#758297" stroke="#758297" stroke-width="1.8" points="1776.94,11.03 1779.74,3.03 1782.54,11.03 1776.94,11.03"/>
</g>
<!-- n1&#45;&gt;n3 -->
<g id="edge2" class="edge">
<title>n1&#45;&gt;n3</title>
<path fill="none" stroke="#758297" stroke-width="1.8" d="M502.94,-72.32C502.94,-77.44 502.94,-81 502.94,-81 502.94,-81 1072.44,-81 1072.44,-81 1072.44,-81 1072.44,-80.13 1072.44,-80.13"/>
<polygon fill="#758297" stroke="#758297" stroke-width="1.8" points="1075.24,-83.05 1072.44,-75.05 1069.64,-83.05 1075.24,-83.05"/>
</g>
<!-- n1&#45;&gt;n4 -->
<g id="edge8" class="edge">
<title>n1&#45;&gt;n4</title>
<path fill="none" stroke="#758297" stroke-width="1.8" d="M411.07,-72.34C411.07,-80.09 411.07,-86 411.07,-86 411.07,-86 1414.61,-86 1414.61,-86 1414.61,-86 1414.61,-83.06 1414.61,-83.06"/>
<polygon fill="#758297" stroke="#758297" stroke-width="1.8" points="1417.41,-83.06 1414.61,-75.06 1411.81,-83.06 1417.41,-83.06"/>
</g>
<!-- n1&#45;&gt;n5 -->
<g id="edge14" class="edge">
<title>n1&#45;&gt;n5</title>
<path fill="none" stroke="#758297" stroke-width="1.8" d="M395.76,0.19C395.76,13.32 395.76,25 395.76,25 395.76,25 1733.81,25 1733.81,25 1733.81,25 1733.81,10.91 1733.81,10.91"/>
<polygon fill="#758297" stroke="#758297" stroke-width="1.8" points="1731.01,10.91 1733.81,2.91 1736.61,10.91 1731.01,10.91"/>
</g>
<!-- n2&#45;&gt;n3 -->
<g id="edge3" class="edge">
<title>n2&#45;&gt;n3</title>
<path fill="none" stroke="#758297" stroke-width="1.8" d="M868.48,-48C868.48,-48 946.38,-48 946.38,-48"/>
<polygon fill="#758297" stroke="#758297" stroke-width="1.8" points="946.38,-50.8 954.38,-48 946.38,-45.2 946.38,-50.8"/>
</g>
<!-- n2&#45;&gt;n4 -->
<g id="edge9" class="edge">
<title>n2&#45;&gt;n4</title>
<path fill="none" stroke="#758297" stroke-width="1.8" d="M791.52,-72.3C791.52,-75.18 791.52,-77 791.52,-77 791.52,-77 1368.67,-77 1368.67,-77 1368.67,-77 1368.67,-76.53 1368.67,-76.53"/>
<polygon fill="#758297" stroke="#758297" stroke-width="1.8" points="1371.47,-83.02 1368.67,-75.02 1365.87,-83.02 1371.47,-83.02"/>
</g>
<!-- n2&#45;&gt;n5 -->
<g id="edge15" class="edge">
<title>n2&#45;&gt;n5</title>
<path fill="none" stroke="#758297" stroke-width="1.8" d="M714.96,0.4C714.96,12.06 714.96,22 714.96,22 714.96,22 1687.87,22 1687.87,22 1687.87,22 1687.87,11.13 1687.87,11.13"/>
<polygon fill="#758297" stroke="#758297" stroke-width="1.8" points="1685.07,11.13 1687.87,3.13 1690.67,11.13 1685.07,11.13"/>
</g>
<!-- n3&#45;&gt;n0 -->
<g id="edge4" class="edge">
<title>n3&#45;&gt;n0</title>
<path fill="none" stroke="#758297" stroke-width="1.8" stroke-dasharray="5,2" d="M1129.86,0.28C1129.86,4.31 1129.86,7 1129.86,7 1129.86,7 191.4,7 191.4,7 191.4,7 191.4,6.33 191.4,6.33"/>
<polygon fill="#758297" stroke="#758297" stroke-width="1.8" points="188.6,11.01 191.4,3.01 194.2,11.01 188.6,11.01"/>
</g>
<!-- n3&#45;&gt;n1 -->
<g id="edge5" class="edge">
<title>n3&#45;&gt;n1</title>
<path fill="none" stroke="#758297" stroke-width="1.8" stroke-dasharray="5,2" d="M1072.44,0.31C1072.44,2.59 1072.44,4 1072.44,4 1072.44,4 472.32,4 472.32,4 472.32,4 472.32,3.63 472.32,3.63"/>
<polygon fill="#758297" stroke="#758297" stroke-width="1.8" points="469.52,11.03 472.32,3.03 475.12,11.03 469.52,11.03"/>
</g>
<!-- n3&#45;&gt;n2 -->
<g id="edge6" class="edge">
<title>n3&#45;&gt;n2</title>
<path fill="none" stroke="#758297" stroke-width="1.8" stroke-dasharray="5,2" d="M957.2,-24C957.2,-24 879.3,-24 879.3,-24"/>
<polygon fill="#758297" stroke="#758297" stroke-width="1.8" points="879.3,-21.2 871.3,-24 879.3,-26.8 879.3,-21.2"/>
</g>
<!-- n4&#45;&gt;n0 -->
<g id="edge11" class="edge">
<title>n4&#45;&gt;n0</title>
<path fill="none" stroke="#758297" stroke-width="1.8" stroke-dasharray="5,2" d="M1429.92,0.32C1429.92,10.09 1429.92,18 1429.92,18 1429.92,18 114.84,18 114.84,18 114.84,18 114.84,11.04 114.84,11.04"/>
<polygon fill="#758297" stroke="#758297" stroke-width="1.8" points="112.04,11.04 114.84,3.04 117.64,11.04 112.04,11.04"/>
</g>
<!-- n4&#45;&gt;n1 -->
<g id="edge10" class="edge">
<title>n4&#45;&gt;n1</title>
<path fill="none" stroke="#758297" stroke-width="1.8" stroke-dasharray="5,2" d="M1322.74,-72.32C1322.74,-82.09 1322.74,-90 1322.74,-90 1322.74,-90 457.01,-90 457.01,-90 457.01,-90 457.01,-83.04 457.01,-83.04"/>
<polygon fill="#758297" stroke="#758297" stroke-width="1.8" points="459.81,-83.04 457.01,-75.04 454.21,-83.04 459.81,-83.04"/>
</g>
<!-- n4&#45;&gt;n2 -->
<g id="edge12" class="edge">
<title>n4&#45;&gt;n2</title>
<path fill="none" stroke="#758297" stroke-width="1.8" stroke-dasharray="5,2" d="M1353.36,0.34C1353.36,8.09 1353.36,14 1353.36,14 1353.36,14 791.52,14 791.52,14 791.52,14 791.52,11.06 791.52,11.06"/>
<polygon fill="#758297" stroke="#758297" stroke-width="1.8" points="788.72,11.06 791.52,3.06 794.32,11.06 788.72,11.06"/>
</g>
<!-- n5&#45;&gt;n0 -->
<g id="edge17" class="edge">
<title>n5&#45;&gt;n0</title>
<path fill="none" stroke="#758297" stroke-width="1.8" stroke-dasharray="5,2" d="M1641.94,0.39C1641.94,16.56 1641.94,32 1641.94,32 1641.94,32 38.28,32 38.28,32 38.28,32 38.28,11.11 38.28,11.11"/>
<polygon fill="#758297" stroke="#758297" stroke-width="1.8" points="35.48,11.11 38.28,3.11 41.08,11.11 35.48,11.11"/>
</g>
<!-- n5&#45;&gt;n1 -->
<g id="edge18" class="edge">
<title>n5&#45;&gt;n1</title>
<path fill="none" stroke="#758297" stroke-width="1.8" stroke-dasharray="5,2" d="M1749.12,-72.28C1749.12,-86.29 1749.12,-99 1749.12,-99 1749.12,-99 365.14,-99 365.14,-99 365.14,-99 365.14,-83.01 365.14,-83.01"/>
<polygon fill="#758297" stroke="#758297" stroke-width="1.8" points="367.94,-83.01 365.14,-75.01 362.34,-83.01 367.94,-83.01"/>
</g>
<!-- n5&#45;&gt;n2 -->
<g id="edge16" class="edge">
<title>n5&#45;&gt;n2</title>
<path fill="none" stroke="#758297" stroke-width="1.8" stroke-dasharray="5,2" d="M1672.56,-72.36C1672.56,-84.5 1672.56,-95 1672.56,-95 1672.56,-95 714.96,-95 714.96,-95 714.96,-95 714.96,-83.08 714.96,-83.08"/>
<polygon fill="#758297" stroke="#758297" stroke-width="1.8" points="717.76,-83.08 714.96,-75.08 712.16,-83.08 717.76,-83.08"/>
</g>
<!-- n0 -->
<g id="node1" class="node">
<title>n0</title>
<path fill="#ffffff" stroke="#5b8def" d="M217.68,-72C217.68,-72 12,-72 12,-72 6,-72 0,-66 0,-60 0,-60 0,-12 0,-12 0,-6 6,0 12,0 12,0 217.68,0 217.68,0 223.68,0 229.68,-6 229.68,-12 229.68,-12 229.68,-60 229.68,-60 229.68,-66 223.68,-72 217.68,-72"/>
<text xml:space="preserve" text-anchor="middle" x="114.84" y="-31.65" font-family="Architects Daughter" font-size="18.00">node&#45;1</text>
</g>
<!-- n1 -->
<g id="node2" class="node">
<title>n1</title>
<path fill="#ffffff" stroke="#58a978" d="M536.88,-72C536.88,-72 331.2,-72 331.2,-72 325.2,-72 319.2,-66 319.2,-60 319.2,-60 319.2,-12 319.2,-12 319.2,-6 325.2,0 331.2,0 331.2,0 536.88,0 536.88,0 542.88,0 548.88,-6 548.88,-12 548.88,-12 548.88,-60 548.88,-60 548.88,-66 542.88,-72 536.88,-72"/>
<text xml:space="preserve" text-anchor="middle" x="434.04" y="-31.65" font-family="Architects Daughter" font-size="18.00">node&#45;2</text>
</g>
<!-- n2 -->
<g id="node3" class="node">
<title>n2</title>
<path fill="#ffffff" stroke="#d6a441" d="M856.08,-72C856.08,-72 650.4,-72 650.4,-72 644.4,-72 638.4,-66 638.4,-60 638.4,-60 638.4,-12 638.4,-12 638.4,-6 644.4,0 650.4,0 650.4,0 856.08,0 856.08,0 862.08,0 868.08,-6 868.08,-12 868.08,-12 868.08,-60 868.08,-60 868.08,-66 862.08,-72 856.08,-72"/>
<text xml:space="preserve" text-anchor="middle" x="753.24" y="-31.65" font-family="Architects Daughter" font-size="18.00">node&#45;3</text>
</g>
<!-- n3 -->
<g id="node4" class="node">
<title>n3</title>
<path fill="#ffffff" stroke="#dc6b82" d="M1175.28,-72C1175.28,-72 969.6,-72 969.6,-72 963.6,-72 957.6,-66 957.6,-60 957.6,-60 957.6,-12 957.6,-12 957.6,-6 963.6,0 969.6,0 969.6,0 1175.28,0 1175.28,0 1181.28,0 1187.28,-6 1187.28,-12 1187.28,-12 1187.28,-60 1187.28,-60 1187.28,-66 1181.28,-72 1175.28,-72"/>
<text xml:space="preserve" text-anchor="middle" x="1072.44" y="-31.65" font-family="Architects Daughter" font-size="18.00">lock(tenant&#45;A)</text>
</g>
<!-- n4 -->
<g id="node5" class="node">
<title>n4</title>
<path fill="#ffffff" stroke="#45a7a1" d="M1494.48,-72C1494.48,-72 1288.8,-72 1288.8,-72 1282.8,-72 1276.8,-66 1276.8,-60 1276.8,-60 1276.8,-12 1276.8,-12 1276.8,-6 1282.8,0 1288.8,0 1288.8,0 1494.48,0 1494.48,0 1500.48,0 1506.48,-6 1506.48,-12 1506.48,-12 1506.48,-60 1506.48,-60 1506.48,-66 1500.48,-72 1494.48,-72"/>
<text xml:space="preserve" text-anchor="middle" x="1391.64" y="-31.65" font-family="Architects Daughter" font-size="18.00">lock(tenant&#45;B)</text>
</g>
<!-- n5 -->
<g id="node6" class="node">
<title>n5</title>
<path fill="#ffffff" stroke="#8a72d6" d="M1813.68,-72C1813.68,-72 1608,-72 1608,-72 1602,-72 1596,-66 1596,-60 1596,-60 1596,-12 1596,-12 1596,-6 1602,0 1608,0 1608,0 1813.68,0 1813.68,0 1819.68,0 1825.68,-6 1825.68,-12 1825.68,-12 1825.68,-60 1825.68,-60 1825.68,-66 1819.68,-72 1813.68,-72"/>
<text xml:space="preserve" text-anchor="middle" x="1710.84" y="-31.65" font-family="Architects Daughter" font-size="18.00">lock(tenant&#45;C)</text>
</g>
</g>
</svg>
