<?xml version="1.0" encoding="UTF-8" standalone="no"?>
<!DOCTYPE svg PUBLIC "-//W3C//DTD SVG 1.1//EN"
 "http://www.w3.org/Graphics/SVG/1.1/DTD/svg11.dtd">
<!-- Generated by graphviz version 15.0.0 (20260523.1842)
 -->
<!-- Title: examples&#45;prometheus&#45;dashboard&#45;sequence&#45;01 Pages: 1 -->
<svg width="1328pt" height="132pt"
 viewBox="0.00 0.00 1328.00 132.00" xmlns="http://www.w3.org/2000/svg" xmlns:xlink="http://www.w3.org/1999/xlink">
<g id="graph0" class="graph" transform="scale(1 1) rotate(0) translate(4 100.5)">
<title>examples&#45;prometheus&#45;dashboard&#45;sequence&#45;01</title>
<text xml:space="preserve" text-anchor="middle" x="660.12" y="-79.2" font-family="Times,serif" font-size="14.00">Prometheus Dashboard Sequence Flow</text>
<!-- n0&#45;&gt;n1 -->
<g id="edge1" class="edge">
<title>n0&#45;&gt;n1</title>
<path fill="none" stroke="#758297" stroke-width="1.8" d="M210.59,-36C210.59,-36 211.7,-36 211.7,-36"/>
<polygon fill="#758297" stroke="#758297" stroke-width="1.8" points="210.95,-38.8 218.95,-36 210.95,-33.2 210.95,-38.8"/>
</g>
<!-- n1&#45;&gt;n2 -->
<g id="edge2" class="edge">
<title>n1&#45;&gt;n2</title>
<path fill="none" stroke="#758297" stroke-width="1.8" d="M432.59,-48C432.59,-48 433.7,-48 433.7,-48"/>
<polygon fill="#758297" stroke="#758297" stroke-width="1.8" points="432.95,-50.8 440.95,-48 432.95,-45.2 432.95,-50.8"/>
</g>
<!-- n1&#45;&gt;n3 -->
<g id="edge4" class="edge">
<title>n1&#45;&gt;n3</title>
<path fill="none" stroke="#758297" stroke-width="1.8" d="M379.68,0.32C379.68,5.44 379.68,9 379.68,9 379.68,9 771.12,9 771.12,9 771.12,9 771.12,8.13 771.12,8.13"/>
<polygon fill="#758297" stroke="#758297" stroke-width="1.8" points="768.32,11.05 771.12,3.05 773.92,11.05 768.32,11.05"/>
</g>
<!-- n1&#45;&gt;n4 -->
<g id="edge6" class="edge">
<title>n1&#45;&gt;n4</title>
<path fill="none" stroke="#758297" stroke-width="1.8" stroke-dasharray="5,2" d="M327.12,0.32C327.12,10.09 327.12,18 327.12,18 327.12,18 1028.16,18 1028.16,18 1028.16,18 1028.16,11.04 1028.16,11.04"/>
<polygon fill="#758297" stroke="#758297" stroke-width="1.8" points="1025.36,11.04 1028.16,3.04 1030.96,11.04 1025.36,11.04"/>
</g>
<!-- n2&#45;&gt;n1 -->
<g id="edge3" class="edge">
<title>n2&#45;&gt;n1</title>
<path fill="none" stroke="#758297" stroke-width="1.8" stroke-dasharray="5,2" d="M443.65,-24C443.65,-24 442.54,-24 442.54,-24"/>
<polygon fill="#758297" stroke="#758297" stroke-width="1.8" points="443.29,-21.2 435.29,-24 443.29,-26.8 443.29,-21.2"/>
</g>
<!-- n4&#45;&gt;n1 -->
<g id="edge5" class="edge">
<title>n4&#45;&gt;n1</title>
<path fill="none" stroke="#758297" stroke-width="1.8" d="M958.08,0.28C958.08,14.29 958.08,27 958.08,27 958.08,27 274.56,27 274.56,27 274.56,27 274.56,11.01 274.56,11.01"/>
<polygon fill="#758297" stroke="#758297" stroke-width="1.8" points="271.76,11.01 274.56,3.01 277.36,11.01 271.76,11.01"/>
</g>
<!-- n4&#45;&gt;n5 -->
<g id="edge8" class="edge">
<title>n4&#45;&gt;n5</title>
<path fill="none" stroke="#758297" stroke-width="1.8" stroke-dasharray="5,2" d="M1098.59,-24C1098.59,-24 1099.7,-24 1099.7,-24"/>
<polygon fill="#758297" stroke="#758297" stroke-width="1.8" points="1098.95,-26.8 1106.95,-24 1098.95,-21.2 1098.95,-26.8"/>
</g>
<!-- n5&#45;&gt;n4 -->
<g id="edge7" class="edge">
<title>n5&#45;&gt;n4</title>
<path fill="none" stroke="#758297" stroke-width="1.8" d="M1109.65,-48C1109.65,-48 1108.54,-48 1108.54,-48"/>
<polygon fill="#758297" stroke="#758297" stroke-width="1.8" points="1109.29,-45.2 1101.29,-48 1109.29,-50.8 1109.29,-45.2"/>
</g>
<!-- n0 -->
<g id="node1" class="node">
<title>n0</title>
<path fill="#ffffff" stroke="#5b8def" d="M198.24,-72C198.24,-72 12,-72 12,-72 6,-72 0,-66 0,-60 0,-60 0,-12 0,-12 0,-6 6,0 12,0 12,0 198.24,0 198.24,0 204.24,0 210.24,-6 210.24,-12 210.24,-12 210.24,-60 210.24,-60 210.24,-66 204.24,-72 198.24,-72"/>
<text xml:space="preserve" text-anchor="middle" x="105.12" y="-31.65" font-family="Architects Daughter" font-size="18.00">Scheduler</text>
</g>
<!-- n1 -->
<g id="node2" class="node">
<title>n1</title>
<path fill="#ffffff" stroke="#58a978" d="M420.24,-72C420.24,-72 234,-72 234,-72 228,-72 222,-66 222,-60 222,-60 222,-12 222,-12 222,-6 228,0 234,0 234,0 420.24,0 420.24,0 426.24,0 432.24,-6 432.24,-12 432.24,-12 432.24,-60 432.24,-60 432.24,-66 426.24,-72 420.24,-72"/>
<text xml:space="preserve" text-anchor="middle" x="327.12" y="-31.65" font-family="Architects Daughter" font-size="18.00">Job bean</text>
</g>
<!-- n2 -->
<g id="node3" class="node">
<title>n2</title>
<path fill="#ffffff" stroke="#d6a441" d="M642.24,-72C642.24,-72 456,-72 456,-72 450,-72 444,-66 444,-60 444,-60 444,-12 444,-12 444,-6 450,0 456,0 456,0 642.24,0 642.24,0 648.24,0 654.24,-6 654.24,-12 654.24,-12 654.24,-60 654.24,-60 654.24,-66 648.24,-72 642.24,-72"/>
<text xml:space="preserve" text-anchor="middle" x="549.12" y="-31.65" font-family="Architects Daughter" font-size="18.00">Redis lock</text>
</g>
<!-- n3 -->
<g id="node4" class="node">
<title>n3</title>
<path fill="#ffffff" stroke="#dc6b82" d="M864.24,-72C864.24,-72 678,-72 678,-72 672,-72 666,-66 666,-60 666,-60 666,-12 666,-12 666,-6 672,0 678,0 678,0 864.24,0 864.24,0 870.24,0 876.24,-6 876.24,-12 876.24,-12 876.24,-60 876.24,-60 876.24,-66 870.24,-72 864.24,-72"/>
<text xml:space="preserve" text-anchor="middle" x="771.12" y="-31.65" font-family="Architects Daughter" font-size="18.00">Micrometer</text>
</g>
<!-- n4 -->
<g id="node5" class="node">
<title>n4</title>
<path fill="#ffffff" stroke="#45a7a1" d="M1086.24,-72C1086.24,-72 900,-72 900,-72 894,-72 888,-66 888,-60 888,-60 888,-12 888,-12 888,-6 894,0 900,0 900,0 1086.24,0 1086.24,0 1092.24,0 1098.24,-6 1098.24,-12 1098.24,-12 1098.24,-60 1098.24,-60 1098.24,-66 1092.24,-72 1086.24,-72"/>
<text xml:space="preserve" text-anchor="middle" x="993.12" y="-31.65" font-family="Architects Daughter" font-size="18.00">Prometheus</text>
</g>
<!-- n5 -->
<g id="node6" class="node">
<title>n5</title>
<path fill="#ffffff" stroke="#8a72d6" d="M1308.24,-72C1308.24,-72 1122,-72 1122,-72 1116,-72 1110,-66 1110,-60 1110,-60 1110,-12 1110,-12 1110,-6 1116,0 1122,0 1122,0 1308.24,0 1308.24,0 1314.24,0 1320.24,-6 1320.24,-12 1320.24,-12 1320.24,-60 1320.24,-60 1320.24,-66 1314.24,-72 1308.24,-72"/>
<text xml:space="preserve" text-anchor="middle" x="1215.12" y="-31.65" font-family="Architects Daughter" font-size="18.00">Grafana</text>
</g>
</g>
</svg>
