<?xml version="1.0" encoding="UTF-8" standalone="no"?>
<!DOCTYPE svg PUBLIC "-//W3C//DTD SVG 1.1//EN"
 "http://www.w3.org/Graphics/SVG/1.1/DTD/svg11.dtd">
<!-- Generated by graphviz version 15.0.0 (20260523.1842)
 -->
<!-- Title: examples&#45;rate&#45;limiter&#45;architecture&#45;01 Pages: 1 -->
<svg width="1178pt" height="445pt"
 viewBox="0.00 0.00 1178.00 445.00" xmlns="http://www.w3.org/2000/svg" xmlns:xlink="http://www.w3.org/1999/xlink">
<g id="graph0" class="graph" transform="scale(1 1) rotate(0) translate(4 440.66)">
<title>examples&#45;rate&#45;limiter&#45;architecture&#45;01</title>
<text xml:space="preserve" text-anchor="middle" x="584.84" y="-419.36" font-family="Times,serif" font-size="14.00">Rate Limiter Architecture</text>
<!-- n0&#45;&gt;r1p1 -->
<g id="edge1" class="edge">
<title>n0&#45;&gt;r1p1</title>
<path fill="none" stroke="#758297" stroke-width="1.8" d="M229.92,-366.08C248.83,-366.08 263.8,-366.08 268.38,-366.08"/>
</g>
<!-- n1&#45;&gt;r2p1 -->
<g id="edge4" class="edge">
<title>n1&#45;&gt;r2p1</title>
<path fill="none" stroke="#758297" stroke-width="1.8" d="M229.92,-206.08C248.83,-206.08 263.8,-206.08 268.38,-206.08"/>
</g>
<!-- n2&#45;&gt;r3p1 -->
<g id="edge7" class="edge">
<title>n2&#45;&gt;r3p1</title>
<path fill="none" stroke="#758297" stroke-width="1.8" d="M229.92,-46.08C248.83,-46.08 263.8,-46.08 268.38,-46.08"/>
</g>
<!-- n3&#45;&gt;r4p1 -->
<g id="edge10" class="edge">
<title>n3&#45;&gt;r4p1</title>
<path fill="none" stroke="#758297" stroke-width="1.8" d="M542.71,-286.08C560.78,-286.08 574.79,-286.08 578.73,-286.08"/>
</g>
<!-- n3&#45;&gt;r5p1 -->
<g id="edge13" class="edge">
<title>n3&#45;&gt;r5p1</title>
<path fill="none" stroke="#758297" stroke-width="1.8" d="M542.71,-286.08C560.78,-286.08 574.79,-286.08 578.73,-286.08"/>
</g>
<!-- n5&#45;&gt;r6p1 -->
<g id="edge16" class="edge">
<title>n5&#45;&gt;r6p1</title>
<path fill="none" stroke="#758297" stroke-width="1.8" d="M874.25,-106.08C883.64,-106.08 890.53,-106.08 893.38,-106.08"/>
</g>
<!-- r1p1&#45;&gt;r1p2 -->
<g id="edge2" class="edge">
<title>r1p1&#45;&gt;r1p2</title>
<path fill="none" stroke="#758297" stroke-width="1.8" d="M269.84,-364.69C269.84,-354.98 269.84,-297.34 269.84,-287.51"/>
</g>
<!-- r1p2&#45;&gt;n3 -->
<g id="edge3" class="edge">
<title>r1p2&#45;&gt;n3</title>
<path fill="none" stroke="#758297" stroke-width="1.8" d="M271.18,-286.08C274.52,-286.08 283.85,-286.08 296.37,-286.08"/>
<polygon fill="#758297" stroke="#758297" stroke-width="1.8" points="296.31,-288.88 304.31,-286.08 296.31,-283.28 296.31,-288.88"/>
</g>
<!-- r2p1&#45;&gt;r2p2 -->
<g id="edge5" class="edge">
<title>r2p1&#45;&gt;r2p2</title>
<path fill="none" stroke="#758297" stroke-width="1.8" d="M269.84,-207.47C269.84,-217.18 269.84,-274.82 269.84,-284.65"/>
</g>
<!-- r2p2&#45;&gt;n3 -->
<g id="edge6" class="edge">
<title>r2p2&#45;&gt;n3</title>
<path fill="none" stroke="#758297" stroke-width="1.8" d="M271.18,-286.08C274.52,-286.08 283.85,-286.08 296.37,-286.08"/>
<polygon fill="#758297" stroke="#758297" stroke-width="1.8" points="296.31,-288.88 304.31,-286.08 296.31,-283.28 296.31,-288.88"/>
</g>
<!-- r3p1&#45;&gt;r3p2 -->
<g id="edge8" class="edge">
<title>r3p1&#45;&gt;r3p2</title>
<path fill="none" stroke="#758297" stroke-width="1.8" d="M269.84,-47.61C269.84,-67.09 269.84,-266.07 269.84,-284.69"/>
</g>
<!-- r3p2&#45;&gt;n3 -->
<g id="edge9" class="edge">
<title>r3p2&#45;&gt;n3</title>
<path fill="none" stroke="#758297" stroke-width="1.8" d="M271.18,-286.08C274.52,-286.08 283.85,-286.08 296.37,-286.08"/>
<polygon fill="#758297" stroke="#758297" stroke-width="1.8" points="296.31,-288.88 304.31,-286.08 296.31,-283.28 296.31,-288.88"/>
</g>
<!-- r4p1&#45;&gt;r4p2 -->
<g id="edge11" class="edge">
<title>r4p1&#45;&gt;r4p2</title>
<path fill="none" stroke="#758297" stroke-width="1.8" d="M579.84,-286.08C579.84,-286.08 579.84,-286.08 579.84,-286.08"/>
</g>
<!-- r4p2&#45;&gt;n4 -->
<g id="edge12" class="edge">
<title>r4p2&#45;&gt;n4</title>
<path fill="none" stroke="#758297" stroke-width="1.8" d="M581.18,-286.08C584.75,-286.08 595.18,-286.08 609.03,-286.08"/>
<polygon fill="#758297" stroke="#758297" stroke-width="1.8" points="608.95,-288.88 616.95,-286.08 608.95,-283.28 608.95,-288.88"/>
</g>
<!-- r5p1&#45;&gt;r5p2 -->
<g id="edge14" class="edge">
<title>r5p1&#45;&gt;r5p2</title>
<path fill="none" stroke="#758297" stroke-width="1.8" d="M579.84,-284.52C579.84,-267.89 579.84,-123.24 579.84,-107.47"/>
</g>
<!-- r5p2&#45;&gt;n5 -->
<g id="edge15" class="edge">
<title>r5p2&#45;&gt;n5</title>
<path fill="none" stroke="#758297" stroke-width="1.8" d="M581.18,-106.08C582.03,-106.08 583.28,-106.08 584.87,-106.08"/>
<polygon fill="#758297" stroke="#758297" stroke-width="1.8" points="584.77,-108.88 592.77,-106.08 584.77,-103.28 584.77,-108.88"/>
</g>
<!-- r6p1&#45;&gt;r6p2 -->
<g id="edge17" class="edge">
<title>r6p1&#45;&gt;r6p2</title>
<path fill="none" stroke="#758297" stroke-width="1.8" d="M894.84,-107.64C894.84,-118.66 894.84,-184.52 894.84,-194.75"/>
</g>
<!-- r6p2&#45;&gt;n6 -->
<g id="edge18" class="edge">
<title>r6p2&#45;&gt;n6</title>
<path fill="none" stroke="#758297" stroke-width="1.8" d="M896.22,-196.08C900.24,-196.08 912.69,-196.08 928.96,-196.08"/>
<polygon fill="#758297" stroke="#758297" stroke-width="1.8" points="928.81,-198.88 936.81,-196.08 928.81,-193.28 928.81,-198.88"/>
</g>
<!-- n0 -->
<g id="node1" class="node">
<title>n0</title>
<path fill="#ffffff" stroke="#5b8def" d="M217.68,-412.16C217.68,-412.16 12,-412.16 12,-412.16 6,-412.16 0,-406.16 0,-400.16 0,-400.16 0,-332 0,-332 0,-326 6,-320 12,-320 12,-320 217.68,-320 217.68,-320 223.68,-320 229.68,-326 229.68,-332 229.68,-332 229.68,-400.16 229.68,-400.16 229.68,-406.16 223.68,-412.16 217.68,-412.16"/>
<text xml:space="preserve" text-anchor="middle" x="114.84" y="-361.73" font-family="Architects Daughter" font-size="18.00">Node&#45;1</text>
</g>
<!-- n1 -->
<g id="node2" class="node">
<title>n1</title>
<path fill="#ffffff" stroke="#58a978" d="M217.68,-252.16C217.68,-252.16 12,-252.16 12,-252.16 6,-252.16 0,-246.16 0,-240.16 0,-240.16 0,-172 0,-172 0,-166 6,-160 12,-160 12,-160 217.68,-160 217.68,-160 223.68,-160 229.68,-166 229.68,-172 229.68,-172 229.68,-240.16 229.68,-240.16 229.68,-246.16 223.68,-252.16 217.68,-252.16"/>
<text xml:space="preserve" text-anchor="middle" x="114.84" y="-201.73" font-family="Architects Daughter" font-size="18.00">Node&#45;2</text>
</g>
<!-- n2 -->
<g id="node3" class="node">
<title>n2</title>
<path fill="#ffffff" stroke="#d6a441" d="M217.68,-92.16C217.68,-92.16 12,-92.16 12,-92.16 6,-92.16 0,-86.16 0,-80.16 0,-80.16 0,-12 0,-12 0,-6 6,0 12,0 12,0 217.68,0 217.68,0 223.68,0 229.68,-6 229.68,-12 229.68,-12 229.68,-80.16 229.68,-80.16 229.68,-86.16 223.68,-92.16 217.68,-92.16"/>
<text xml:space="preserve" text-anchor="middle" x="114.84" y="-41.73" font-family="Architects Daughter" font-size="18.00">Node&#45;3</text>
</g>
<!-- n3 -->
<g id="node4" class="node">
<title>n3</title>
<path fill="#ffffff" stroke="#dc6b82" d="M530.49,-332.16C530.49,-332.16 319.2,-332.16 319.2,-332.16 313.2,-332.16 307.2,-326.16 307.2,-320.16 307.2,-320.16 307.2,-252 307.2,-252 307.2,-246 313.2,-240 319.2,-240 319.2,-240 530.49,-240 530.49,-240 536.49,-240 542.49,-246 542.49,-252 542.49,-252 542.49,-320.16 542.49,-320.16 542.49,-326.16 536.49,-332.16 530.49,-332.16"/>
<text xml:space="preserve" text-anchor="middle" x="424.84" y="-281.73" font-family="Architects Daughter" font-size="18.00">LeaderDispatchScheduler</text>
</g>
<!-- n4 -->
<g id="node5" class="node">
<title>n4</title>
<path fill="#ffffff" stroke="#45a7a1" d="M837.68,-332.16C837.68,-332.16 632,-332.16 632,-332.16 626,-332.16 620,-326.16 620,-320.16 620,-320.16 620,-252 620,-252 620,-246 626,-240 632,-240 632,-240 837.68,-240 837.68,-240 843.68,-240 849.68,-246 849.68,-252 849.68,-252 849.68,-320.16 849.68,-320.16 849.68,-326.16 843.68,-332.16 837.68,-332.16"/>
<text xml:space="preserve" text-anchor="middle" x="734.84" y="-281.73" font-family="Architects Daughter" font-size="18.00">Redis leader lock</text>
</g>
<!-- n5 -->
<g id="node6" class="node">
<title>n5</title>
<path fill="#ffffff" stroke="#8a72d6" d="M861.86,-152.16C861.86,-152.16 607.82,-152.16 607.82,-152.16 601.82,-152.16 595.82,-146.16 595.82,-140.16 595.82,-140.16 595.82,-72 595.82,-72 595.82,-66 601.82,-60 607.82,-60 607.82,-60 861.86,-60 861.86,-60 867.86,-60 873.86,-66 873.86,-72 873.86,-72 873.86,-140.16 873.86,-140.16 873.86,-146.16 867.86,-152.16 861.86,-152.16"/>
<text xml:space="preserve" text-anchor="middle" x="734.84" y="-101.73" font-family="Architects Daughter" font-size="18.00">DistributedSuspendRateLimiter</text>
</g>
<!-- n6 -->
<g id="node7" class="node">
<title>n6</title>
<path fill="#ffffff" stroke="#b88a44" d="M1157.68,-242.16C1157.68,-242.16 952,-242.16 952,-242.16 946,-242.16 940,-236.16 940,-230.16 940,-230.16 940,-162 940,-162 940,-156 946,-150 952,-150 952,-150 1157.68,-150 1157.68,-150 1163.68,-150 1169.68,-156 1169.68,-162 1169.68,-162 1169.68,-230.16 1169.68,-230.16 1169.68,-236.16 1163.68,-242.16 1157.68,-242.16"/>
<text xml:space="preserve" text-anchor="middle" x="1054.84" y="-191.73" font-family="Architects Daughter" font-size="18.00">ExternalApiProbe</text>
</g>
<!-- r1p1 -->
<!-- r1p2 -->
<!-- r2p1 -->
<!-- r2p2 -->
<!-- r3p1 -->
<!-- r3p2 -->
<!-- r4p1 -->
<!-- r4p2 -->
<!-- r5p1 -->
<!-- r5p2 -->
<!-- r6p1 -->
<!-- r6p2 -->
</g>
</svg>
