<?xml version="1.0" encoding="UTF-8" standalone="no"?>
<!DOCTYPE svg PUBLIC "-//W3C//DTD SVG 1.1//EN"
 "http://www.w3.org/Graphics/SVG/1.1/DTD/svg11.dtd">
<!-- Generated by graphviz version 15.0.0 (20260523.1842)
 -->
<!-- Title: examples&#45;k8s&#45;operator&#45;architecture&#45;01 Pages: 1 -->
<svg width="1458pt" height="136pt"
 viewBox="0.00 0.00 1458.00 136.00" xmlns="http://www.w3.org/2000/svg" xmlns:xlink="http://www.w3.org/1999/xlink">
<g id="graph0" class="graph" transform="scale(1 1) rotate(0) translate(4 132)">
<title>examples&#45;k8s&#45;operator&#45;architecture&#45;01</title>
<!-- trigger -->
<g id="node1" class="node">
<title>trigger</title>
<path fill="#f8fafc" stroke="#94a3b8" d="M131.5,-77C131.5,-77 12,-77 12,-77 6,-77 0,-71 0,-65 0,-65 0,-53 0,-53 0,-47 6,-41 12,-41 12,-41 131.5,-41 131.5,-41 137.5,-41 143.5,-47 143.5,-53 143.5,-53 143.5,-65 143.5,-65 143.5,-71 137.5,-77 131.5,-77"/>
<text xml:space="preserve" text-anchor="middle" x="71.75" y="-53.58" font-family="Comic Mono" font-size="14.00">Operator Schedule</text>
</g>
<!-- nodeA -->
<g id="node2" class="node">
<title>nodeA</title>
<path fill="#f8fafc" stroke="#94a3b8" d="M354.5,-119C354.5,-119 242.5,-119 242.5,-119 236.5,-119 230.5,-113 230.5,-107 230.5,-107 230.5,-95 230.5,-95 230.5,-89 236.5,-83 242.5,-83 242.5,-83 354.5,-83 354.5,-83 360.5,-83 366.5,-89 366.5,-95 366.5,-95 366.5,-107 366.5,-107 366.5,-113 360.5,-119 354.5,-119"/>
<text xml:space="preserve" text-anchor="middle" x="298.5" y="-95.58" font-family="Comic Mono" font-size="14.00">Candidate Node A</text>
</g>
<!-- trigger&#45;&gt;nodeA -->
<g id="edge1" class="edge">
<title>trigger&#45;&gt;nodeA</title>
<path fill="none" stroke="#758297" d="M143.89,-68C198.71,-68 264.75,-68 264.75,-68 264.75,-68 264.75,-71.06 264.75,-71.06"/>
<polygon fill="#758297" stroke="#758297" points="261.25,-71.06 264.75,-81.06 268.25,-71.06 261.25,-71.06"/>
<text xml:space="preserve" text-anchor="middle" x="187" y="-98.5" font-family="Comic Mono" font-size="10.00">call</text>
</g>
<!-- nodeB -->
<g id="node3" class="node">
<title>nodeB</title>
<path fill="#f8fafc" stroke="#94a3b8" d="M354.5,-36C354.5,-36 242.5,-36 242.5,-36 236.5,-36 230.5,-30 230.5,-24 230.5,-24 230.5,-12 230.5,-12 230.5,-6 236.5,0 242.5,0 242.5,0 354.5,0 354.5,0 360.5,0 366.5,-6 366.5,-12 366.5,-12 366.5,-24 366.5,-24 366.5,-30 360.5,-36 354.5,-36"/>
<text xml:space="preserve" text-anchor="middle" x="298.5" y="-12.57" font-family="Comic Mono" font-size="14.00">Candidate Node B</text>
</g>
<!-- trigger&#45;&gt;nodeB -->
<g id="edge2" class="edge">
<title>trigger&#45;&gt;nodeB</title>
<path fill="none" stroke="#758297" d="M143.89,-59C210.36,-59 298.75,-59 298.75,-59 298.75,-59 298.75,-47.62 298.75,-47.62"/>
<polygon fill="#758297" stroke="#758297" points="302.25,-47.62 298.75,-37.62 295.25,-47.62 302.25,-47.62"/>
<text xml:space="preserve" text-anchor="middle" x="187" y="-29.5" font-family="Comic Mono" font-size="10.00">call</text>
</g>
<!-- coordinator -->
<g id="node4" class="node">
<title>coordinator</title>
<path fill="#f8fafc" stroke="#94a3b8" d="M592.5,-77C592.5,-77 465.5,-77 465.5,-77 459.5,-77 453.5,-71 453.5,-65 453.5,-65 453.5,-53 453.5,-53 453.5,-47 459.5,-41 465.5,-41 465.5,-41 592.5,-41 592.5,-41 598.5,-41 604.5,-47 604.5,-53 604.5,-53 604.5,-65 604.5,-65 604.5,-71 598.5,-77 592.5,-77"/>
<text xml:space="preserve" text-anchor="middle" x="529" y="-53.58" font-family="Comic Mono" font-size="14.00">OperatorController</text>
</g>
<!-- nodeA&#45;&gt;coordinator -->
<g id="edge3" class="edge">
<title>nodeA&#45;&gt;coordinator</title>
<path fill="none" stroke="#758297" d="M366.96,-87.5C434.83,-87.5 528.75,-87.5 528.75,-87.5 528.75,-87.5 528.75,-86.47 528.75,-86.47"/>
<polygon fill="#758297" stroke="#758297" points="532.25,-88.72 528.75,-78.72 525.25,-88.72 532.25,-88.72"/>
<text xml:space="preserve" text-anchor="middle" x="410" y="-98.5" font-family="Comic Mono" font-size="10.00">call</text>
</g>
<!-- nodeB&#45;&gt;coordinator -->
<g id="edge4" class="edge">
<title>nodeB&#45;&gt;coordinator</title>
<path fill="none" stroke="#758297" d="M332.75,-36.24C332.75,-43.43 332.75,-50 332.75,-50 332.75,-50 441.61,-50 441.61,-50"/>
<polygon fill="#758297" stroke="#758297" points="441.61,-53.5 451.61,-50 441.61,-46.5 441.61,-53.5"/>
<text xml:space="preserve" text-anchor="middle" x="410" y="-29.5" font-family="Comic Mono" font-size="10.00">call</text>
</g>
<!-- elector -->
<g id="node6" class="node">
<title>elector</title>
<path fill="#f8fafc" stroke="#94a3b8" d="M907,-128C907,-128 735,-128 735,-128 729,-128 723,-122 723,-116 723,-116 723,-104 723,-104 723,-98 729,-92 735,-92 735,-92 907,-92 907,-92 913,-92 919,-98 919,-104 919,-104 919,-116 919,-116 919,-122 913,-128 907,-128"/>
<text xml:space="preserve" text-anchor="middle" x="821" y="-104.58" font-family="Comic Mono" font-size="14.00">Kubernetes Lease Elector</text>
</g>
<!-- coordinator&#45;&gt;elector -->
<g id="edge5" class="edge">
<title>coordinator&#45;&gt;elector</title>
<path fill="none" stroke="#758297" d="M604.95,-66.33C663.22,-66.33 733.75,-66.33 733.75,-66.33 733.75,-66.33 733.75,-80.22 733.75,-80.22"/>
<polygon fill="#758297" stroke="#758297" points="730.25,-80.22 733.75,-90.22 737.25,-80.22 730.25,-80.22"/>
<text xml:space="preserve" text-anchor="middle" x="663.75" y="-102.5" font-family="Comic Mono" font-size="10.00">dependency</text>
</g>
<!-- work -->
<g id="node8" class="node">
<title>work</title>
<path fill="#f8fafc" stroke="#94a3b8" d="M884.5,-45C884.5,-45 757.5,-45 757.5,-45 751.5,-45 745.5,-39 745.5,-33 745.5,-33 745.5,-21 745.5,-21 745.5,-15 751.5,-9 757.5,-9 757.5,-9 884.5,-9 884.5,-9 890.5,-9 896.5,-15 896.5,-21 896.5,-21 896.5,-33 896.5,-33 896.5,-39 890.5,-45 884.5,-45"/>
<text xml:space="preserve" text-anchor="middle" x="821" y="-21.57" font-family="Comic Mono" font-size="14.00">Reconcile Workload</text>
</g>
<!-- coordinator&#45;&gt;work -->
<g id="edge7" class="edge">
<title>coordinator&#45;&gt;work</title>
<path fill="none" stroke="#758297" d="M604.89,-55.67C691.34,-55.67 820.75,-55.67 820.75,-55.67 820.75,-55.67 820.75,-54.63 820.75,-54.63"/>
<polygon fill="#758297" stroke="#758297" points="824.25,-56.83 820.75,-46.83 817.25,-56.83 824.25,-56.83"/>
<text xml:space="preserve" text-anchor="middle" x="663.75" y="-29.5" font-family="Comic Mono" font-size="10.00">success</text>
</g>
<!-- backend -->
<g id="node5" class="node">
<title>backend</title>
<path fill="#f8fafc" stroke="#94a3b8" d="M1176.5,-128C1176.5,-128 1049.5,-128 1049.5,-128 1043.5,-128 1037.5,-122 1037.5,-116 1037.5,-116 1037.5,-104 1037.5,-104 1037.5,-98 1043.5,-92 1049.5,-92 1049.5,-92 1176.5,-92 1176.5,-92 1182.5,-92 1188.5,-98 1188.5,-104 1188.5,-104 1188.5,-116 1188.5,-116 1188.5,-122 1182.5,-128 1176.5,-128"/>
<text xml:space="preserve" text-anchor="middle" x="1113" y="-104.58" font-family="Comic Mono" font-size="14.00">coordination Lease</text>
</g>
<!-- recovery -->
<g id="node7" class="node">
<title>recovery</title>
<path fill="#f8fafc" stroke="#94a3b8" d="M1437.75,-128C1437.75,-128 1303.25,-128 1303.25,-128 1297.25,-128 1291.25,-122 1291.25,-116 1291.25,-116 1291.25,-104 1291.25,-104 1291.25,-98 1297.25,-92 1303.25,-92 1303.25,-92 1437.75,-92 1437.75,-92 1443.75,-92 1449.75,-98 1449.75,-104 1449.75,-104 1449.75,-116 1449.75,-116 1449.75,-122 1443.75,-128 1437.75,-128"/>
<text xml:space="preserve" text-anchor="middle" x="1370.5" y="-104.58" font-family="Comic Mono" font-size="14.00">RBAC Scoped Handoff</text>
</g>
<!-- backend&#45;&gt;recovery -->
<g id="edge8" class="edge">
<title>backend&#45;&gt;recovery</title>
<path fill="none" stroke="#758297" d="M1188.87,-110C1188.87,-110 1279.64,-110 1279.64,-110"/>
<polygon fill="#758297" stroke="#758297" points="1279.64,-113.5 1289.64,-110 1279.64,-106.5 1279.64,-113.5"/>
<text xml:space="preserve" text-anchor="middle" x="1239.88" y="-112.5" font-family="Comic Mono" font-size="10.00">release</text>
</g>
<!-- elector&#45;&gt;backend -->
<g id="edge6" class="edge">
<title>elector&#45;&gt;backend</title>
<path fill="none" stroke="#758297" d="M919.45,-110C919.45,-110 1025.61,-110 1025.61,-110"/>
<polygon fill="#758297" stroke="#758297" points="1025.61,-113.5 1035.61,-110 1025.61,-106.5 1025.61,-113.5"/>
<text xml:space="preserve" text-anchor="middle" x="978.25" y="-112.5" font-family="Comic Mono" font-size="10.00">contention</text>
</g>
</g>
</svg>
