<?xml version="1.0" encoding="UTF-8" standalone="no"?>
<!DOCTYPE svg PUBLIC "-//W3C//DTD SVG 1.1//EN"
 "http://www.w3.org/Graphics/SVG/1.1/DTD/svg11.dtd">
<!-- Generated by graphviz version 15.0.0 (20260523.1842)
 -->
<!-- Title: examples&#45;rate&#45;limiter&#45;architecture&#45;01 Pages: 1 -->
<svg width="1258pt" height="445pt"
 viewBox="0.00 0.00 1258.00 445.00" xmlns="http://www.w3.org/2000/svg" xmlns:xlink="http://www.w3.org/1999/xlink">
<g id="graph0" class="graph" transform="scale(1 1) rotate(0) translate(4 440.66)">
<title>examples&#45;rate&#45;limiter&#45;architecture&#45;01</title>
<text xml:space="preserve" text-anchor="middle" x="624.84" y="-419.36" font-family="Times,serif" font-size="14.00">Rate Limiter Architecture</text>
<!-- n0&#45;&gt;r1p1 -->
<g id="edge1" class="edge">
<title>n0&#45;&gt;r1p1</title>
<path fill="none" stroke="#758297" stroke-width="1.8" d="M230.15,-366.08C244.3,-366.08 255.05,-366.08 258.59,-366.08"/>
</g>
<!-- n1&#45;&gt;r2p1 -->
<g id="edge4" class="edge">
<title>n1&#45;&gt;r2p1</title>
<path fill="none" stroke="#758297" stroke-width="1.8" d="M230.15,-206.08C244.3,-206.08 255.05,-206.08 258.59,-206.08"/>
</g>
<!-- n2&#45;&gt;r3p1 -->
<g id="edge7" class="edge">
<title>n2&#45;&gt;r3p1</title>
<path fill="none" stroke="#758297" stroke-width="1.8" d="M230.15,-46.08C244.3,-46.08 255.05,-46.08 258.59,-46.08"/>
</g>
<!-- n3&#45;&gt;r4p1 -->
<g id="edge10" class="edge">
<title>n3&#45;&gt;r4p1</title>
<path fill="none" stroke="#758297" stroke-width="1.8" d="M590.04,-286.08C606.75,-286.08 619.28,-286.08 623.39,-286.08"/>
</g>
<!-- n3&#45;&gt;r5p1 -->
<g id="edge13" class="edge">
<title>n3&#45;&gt;r5p1</title>
<path fill="none" stroke="#758297" stroke-width="1.8" d="M590.34,-286.08C599.29,-286.08 605.78,-286.08 608.47,-286.08"/>
</g>
<!-- n5&#45;&gt;r6p1 -->
<g id="edge16" class="edge">
<title>n5&#45;&gt;r6p1</title>
<path fill="none" stroke="#758297" stroke-width="1.8" d="M970.14,-106.08C981.88,-106.08 990.35,-106.08 993.5,-106.08"/>
</g>
<!-- r1p1&#45;&gt;r1p2 -->
<g id="edge2" class="edge">
<title>r1p1&#45;&gt;r1p2</title>
<path fill="none" stroke="#758297" stroke-width="1.8" d="M259.84,-364.69C259.84,-354.98 259.84,-297.34 259.84,-287.51"/>
</g>
<!-- r1p2&#45;&gt;n3 -->
<g id="edge3" class="edge">
<title>r1p2&#45;&gt;n3</title>
<path fill="none" stroke="#758297" stroke-width="1.8" d="M261.4,-286.08C264.14,-286.08 270.38,-286.08 278.95,-286.08"/>
<polygon fill="#758297" stroke="#758297" stroke-width="1.8" points="278.83,-288.88 286.83,-286.08 278.83,-283.28 278.83,-288.88"/>
</g>
<!-- r2p1&#45;&gt;r2p2 -->
<g id="edge5" class="edge">
<title>r2p1&#45;&gt;r2p2</title>
<path fill="none" stroke="#758297" stroke-width="1.8" d="M259.84,-207.47C259.84,-217.18 259.84,-274.82 259.84,-284.65"/>
</g>
<!-- r2p2&#45;&gt;n3 -->
<g id="edge6" class="edge">
<title>r2p2&#45;&gt;n3</title>
<path fill="none" stroke="#758297" stroke-width="1.8" d="M261.4,-286.08C264.14,-286.08 270.38,-286.08 278.95,-286.08"/>
<polygon fill="#758297" stroke="#758297" stroke-width="1.8" points="278.83,-288.88 286.83,-286.08 278.83,-283.28 278.83,-288.88"/>
</g>
<!-- r3p1&#45;&gt;r3p2 -->
<g id="edge8" class="edge">
<title>r3p1&#45;&gt;r3p2</title>
<path fill="none" stroke="#758297" stroke-width="1.8" d="M259.84,-47.61C259.84,-67.09 259.84,-266.07 259.84,-284.69"/>
</g>
<!-- r3p2&#45;&gt;n3 -->
<g id="edge9" class="edge">
<title>r3p2&#45;&gt;n3</title>
<path fill="none" stroke="#758297" stroke-width="1.8" d="M261.4,-286.08C264.14,-286.08 270.38,-286.08 278.95,-286.08"/>
<polygon fill="#758297" stroke="#758297" stroke-width="1.8" points="278.83,-288.88 286.83,-286.08 278.83,-283.28 278.83,-288.88"/>
</g>
<!-- r4p1&#45;&gt;r4p2 -->
<g id="edge11" class="edge">
<title>r4p1&#45;&gt;r4p2</title>
<path fill="none" stroke="#758297" stroke-width="1.8" d="M624.84,-286.08C624.84,-286.08 624.84,-286.08 624.84,-286.08"/>
</g>
<!-- r4p2&#45;&gt;n4 -->
<g id="edge12" class="edge">
<title>r4p2&#45;&gt;n4</title>
<path fill="none" stroke="#758297" stroke-width="1.8" d="M626.14,-286.08C629.24,-286.08 637.68,-286.08 649.06,-286.08"/>
<polygon fill="#758297" stroke="#758297" stroke-width="1.8" points="649.04,-288.88 657.04,-286.08 649.04,-283.28 649.04,-288.88"/>
</g>
<!-- r5p1&#45;&gt;r5p2 -->
<g id="edge14" class="edge">
<title>r5p1&#45;&gt;r5p2</title>
<path fill="none" stroke="#758297" stroke-width="1.8" d="M609.84,-284.52C609.84,-267.89 609.84,-123.24 609.84,-107.47"/>
</g>
<!-- r5p2&#45;&gt;n5 -->
<g id="edge15" class="edge">
<title>r5p2&#45;&gt;n5</title>
<path fill="none" stroke="#758297" stroke-width="1.8" d="M611.05,-106.08C612.51,-106.08 615.24,-106.08 618.99,-106.08"/>
<polygon fill="#758297" stroke="#758297" stroke-width="1.8" points="618.79,-108.88 626.79,-106.08 618.79,-103.28 618.79,-108.88"/>
</g>
<!-- r6p1&#45;&gt;r6p2 -->
<g id="edge17" class="edge">
<title>r6p1&#45;&gt;r6p2</title>
<path fill="none" stroke="#758297" stroke-width="1.8" d="M994.84,-107.64C994.84,-118.66 994.84,-184.52 994.84,-194.75"/>
</g>
<!-- r6p2&#45;&gt;n6 -->
<g id="edge18" class="edge">
<title>r6p2&#45;&gt;n6</title>
<path fill="none" stroke="#758297" stroke-width="1.8" d="M996.41,-196.08C998.62,-196.08 1003.05,-196.08 1009.01,-196.08"/>
<polygon fill="#758297" stroke="#758297" stroke-width="1.8" points="1008.82,-198.88 1016.82,-196.08 1008.82,-193.28 1008.82,-198.88"/>
</g>
<!-- n0 -->
<g id="node1" class="node">
<title>n0</title>
<path fill="#ffffff" stroke="#5b8def" d="M217.68,-412.16C217.68,-412.16 12,-412.16 12,-412.16 6,-412.16 0,-406.16 0,-400.16 0,-400.16 0,-332 0,-332 0,-326 6,-320 12,-320 12,-320 217.68,-320 217.68,-320 223.68,-320 229.68,-326 229.68,-332 229.68,-332 229.68,-400.16 229.68,-400.16 229.68,-406.16 223.68,-412.16 217.68,-412.16"/>
<text xml:space="preserve" text-anchor="middle" x="114.84" y="-361.73" font-family="Architects Daughter" font-size="18.00">Node&#45;1</text>
</g>
<!-- n1 -->
<g id="node2" class="node">
<title>n1</title>
<path fill="#ffffff" stroke="#58a978" d="M217.68,-252.16C217.68,-252.16 12,-252.16 12,-252.16 6,-252.16 0,-246.16 0,-240.16 0,-240.16 0,-172 0,-172 0,-166 6,-160 12,-160 12,-160 217.68,-160 217.68,-160 223.68,-160 229.68,-166 229.68,-172 229.68,-172 229.68,-240.16 229.68,-240.16 229.68,-246.16 223.68,-252.16 217.68,-252.16"/>
<text xml:space="preserve" text-anchor="middle" x="114.84" y="-201.73" font-family="Architects Daughter" font-size="18.00">Node&#45;2</text>
</g>
<!-- n2 -->
<g id="node3" class="node">
<title>n2</title>
<path fill="#ffffff" stroke="#d6a441" d="M217.68,-92.16C217.68,-92.16 12,-92.16 12,-92.16 6,-92.16 0,-86.16 0,-80.16 0,-80.16 0,-12 0,-12 0,-6 6,0 12,0 12,0 217.68,0 217.68,0 223.68,0 229.68,-6 229.68,-12 229.68,-12 229.68,-80.16 229.68,-80.16 229.68,-86.16 223.68,-92.16 217.68,-92.16"/>
<text xml:space="preserve" text-anchor="middle" x="114.84" y="-41.73" font-family="Architects Daughter" font-size="18.00">Node&#45;3</text>
</g>
<!-- n3 -->
<g id="node4" class="node">
<title>n3</title>
<path fill="#ffffff" stroke="#dc6b82" d="M577.96,-332.16C577.96,-332.16 301.72,-332.16 301.72,-332.16 295.72,-332.16 289.72,-326.16 289.72,-320.16 289.72,-320.16 289.72,-252 289.72,-252 289.72,-246 295.72,-240 301.72,-240 301.72,-240 577.96,-240 577.96,-240 583.96,-240 589.96,-246 589.96,-252 589.96,-252 589.96,-320.16 589.96,-320.16 589.96,-326.16 583.96,-332.16 577.96,-332.16"/>
<text xml:space="preserve" text-anchor="middle" x="439.84" y="-281.73" font-family="Architects Daughter" font-size="18.00">LeaderDispatchScheduler</text>
</g>
<!-- n4 -->
<g id="node5" class="node">
<title>n4</title>
<path fill="#ffffff" stroke="#45a7a1" d="M877.68,-332.16C877.68,-332.16 672,-332.16 672,-332.16 666,-332.16 660,-326.16 660,-320.16 660,-320.16 660,-252 660,-252 660,-246 666,-240 672,-240 672,-240 877.68,-240 877.68,-240 883.68,-240 889.68,-246 889.68,-252 889.68,-252 889.68,-320.16 889.68,-320.16 889.68,-326.16 883.68,-332.16 877.68,-332.16"/>
<text xml:space="preserve" text-anchor="middle" x="774.84" y="-281.73" font-family="Architects Daughter" font-size="18.00">Redis leader lock</text>
</g>
<!-- n5 -->
<g id="node6" class="node">
<title>n5</title>
<path fill="#ffffff" stroke="#8a72d6" d="M957.76,-152.16C957.76,-152.16 641.92,-152.16 641.92,-152.16 635.92,-152.16 629.92,-146.16 629.92,-140.16 629.92,-140.16 629.92,-72 629.92,-72 629.92,-66 635.92,-60 641.92,-60 641.92,-60 957.76,-60 957.76,-60 963.76,-60 969.76,-66 969.76,-72 969.76,-72 969.76,-140.16 969.76,-140.16 969.76,-146.16 963.76,-152.16 957.76,-152.16"/>
<text xml:space="preserve" text-anchor="middle" x="799.84" y="-101.73" font-family="Architects Daughter" font-size="18.00">DistributedSuspendRateLimiter</text>
</g>
<!-- n6 -->
<g id="node7" class="node">
<title>n6</title>
<path fill="#ffffff" stroke="#b88a44" d="M1237.68,-242.16C1237.68,-242.16 1032,-242.16 1032,-242.16 1026,-242.16 1020,-236.16 1020,-230.16 1020,-230.16 1020,-162 1020,-162 1020,-156 1026,-150 1032,-150 1032,-150 1237.68,-150 1237.68,-150 1243.68,-150 1249.68,-156 1249.68,-162 1249.68,-162 1249.68,-230.16 1249.68,-230.16 1249.68,-236.16 1243.68,-242.16 1237.68,-242.16"/>
<text xml:space="preserve" text-anchor="middle" x="1134.84" y="-191.73" font-family="Architects Daughter" font-size="18.00">ExternalApiProbe</text>
</g>
<!-- r1p1 -->
<!-- r1p2 -->
<!-- r2p1 -->
<!-- r2p2 -->
<!-- r3p1 -->
<!-- r3p2 -->
<!-- r4p1 -->
<!-- r4p2 -->
<!-- r5p1 -->
<!-- r5p2 -->
<!-- r6p1 -->
<!-- r6p2 -->
</g>
</svg>
