<?xml version="1.0" encoding="UTF-8" standalone="no"?>
<!DOCTYPE svg PUBLIC "-//W3C//DTD SVG 1.1//EN"
 "http://www.w3.org/Graphics/SVG/1.1/DTD/svg11.dtd">
<!-- Generated by graphviz version 15.0.0 (20260523.1842)
 -->
<!-- Title: examples&#45;k8s&#45;lease&#45;sequence&#45;01 Pages: 1 -->
<svg width="1328pt" height="134pt"
 viewBox="0.00 0.00 1328.00 134.00" xmlns="http://www.w3.org/2000/svg" xmlns:xlink="http://www.w3.org/1999/xlink">
<g id="graph0" class="graph" transform="scale(1 1) rotate(0) translate(4 129.5)">
<title>examples&#45;k8s&#45;lease&#45;sequence&#45;01</title>
<text xml:space="preserve" text-anchor="middle" x="660.12" y="-108.2" font-family="Times,serif" font-size="14.00">K8s Lease Sequence Flow</text>
<!-- n0&#45;&gt;n1 -->
<g id="edge1" class="edge">
<title>n0&#45;&gt;n1</title>
<path fill="none" stroke="#758297" stroke-width="1.8" d="M210.43,-48C210.43,-48 266.66,-48 266.66,-48"/>
<polygon fill="#758297" stroke="#758297" stroke-width="1.8" points="266.66,-50.8 274.66,-48 266.66,-45.2 266.66,-50.8"/>
</g>
<!-- n0&#45;&gt;n1 -->
<g id="edge10" class="edge">
<title>n0&#45;&gt;n1</title>
<path fill="none" stroke="#758297" stroke-width="1.8" d="M210.43,-24C210.43,-24 266.66,-24 266.66,-24"/>
<polygon fill="#758297" stroke="#758297" stroke-width="1.8" points="266.66,-26.8 274.66,-24 266.66,-21.2 266.66,-26.8"/>
</g>
<!-- n1&#45;&gt;n2 -->
<g id="edge2" class="edge">
<title>n1&#45;&gt;n2</title>
<path fill="none" stroke="#758297" stroke-width="1.8" d="M487.93,-27C487.93,-27 544.16,-27 544.16,-27"/>
<polygon fill="#758297" stroke="#758297" stroke-width="1.8" points="544.16,-29.8 552.16,-27 544.16,-24.2 544.16,-29.8"/>
</g>
<!-- n1&#45;&gt;n2 -->
<g id="edge4" class="edge">
<title>n1&#45;&gt;n2</title>
<path fill="none" stroke="#758297" stroke-width="1.8" d="M487.93,-63C487.93,-63 544.16,-63 544.16,-63"/>
<polygon fill="#758297" stroke="#758297" stroke-width="1.8" points="544.16,-65.8 552.16,-63 544.16,-60.2 544.16,-65.8"/>
</g>
<!-- n1&#45;&gt;n2 -->
<g id="edge7" class="edge">
<title>n1&#45;&gt;n2</title>
<path fill="none" stroke="#758297" stroke-width="1.8" d="M487.93,-54C487.93,-54 544.16,-54 544.16,-54"/>
<polygon fill="#758297" stroke="#758297" stroke-width="1.8" points="544.16,-56.8 552.16,-54 544.16,-51.2 544.16,-56.8"/>
</g>
<!-- n1&#45;&gt;n2 -->
<g id="edge11" class="edge">
<title>n1&#45;&gt;n2</title>
<path fill="none" stroke="#758297" stroke-width="1.8" d="M487.93,-45C487.93,-45 544.16,-45 544.16,-45"/>
<polygon fill="#758297" stroke="#758297" stroke-width="1.8" points="544.16,-47.8 552.16,-45 544.16,-42.2 544.16,-47.8"/>
</g>
<!-- n1&#45;&gt;n2 -->
<g id="edge13" class="edge">
<title>n1&#45;&gt;n2</title>
<path fill="none" stroke="#758297" stroke-width="1.8" d="M487.93,-36C487.93,-36 544.16,-36 544.16,-36"/>
<polygon fill="#758297" stroke="#758297" stroke-width="1.8" points="544.16,-38.8 552.16,-36 544.16,-33.2 544.16,-38.8"/>
</g>
<!-- n1&#45;&gt;n4 -->
<g id="edge9" class="edge">
<title>n1&#45;&gt;n4</title>
<path fill="none" stroke="#758297" stroke-width="1.8" stroke-dasharray="5,2" d="M319.55,-72.4C319.55,-84.06 319.55,-94 319.55,-94 319.55,-94 1236.14,-94 1236.14,-94 1236.14,-94 1236.14,-83.13 1236.14,-83.13"/>
<polygon fill="#758297" stroke="#758297" stroke-width="1.8" points="1238.94,-83.13 1236.14,-75.13 1233.34,-83.13 1238.94,-83.13"/>
</g>
<!-- n1&#45;&gt;n4 -->
<g id="edge14" class="edge">
<title>n1&#45;&gt;n4</title>
<path fill="none" stroke="#758297" stroke-width="1.8" stroke-dasharray="5,2" d="M361.6,-72.34C361.6,-80.09 361.6,-86 361.6,-86 361.6,-86 1194.1,-86 1194.1,-86 1194.1,-86 1194.1,-83.06 1194.1,-83.06"/>
<polygon fill="#758297" stroke="#758297" stroke-width="1.8" points="1196.9,-83.06 1194.1,-75.06 1191.3,-83.06 1196.9,-83.06"/>
</g>
<!-- n2&#45;&gt;n1 -->
<g id="edge3" class="edge">
<title>n2&#45;&gt;n1</title>
<path fill="none" stroke="#758297" stroke-width="1.8" stroke-dasharray="5,2" d="M554.81,-9C554.81,-9 498.58,-9 498.58,-9"/>
<polygon fill="#758297" stroke="#758297" stroke-width="1.8" points="498.58,-6.2 490.58,-9 498.58,-11.8 498.58,-6.2"/>
</g>
<!-- n2&#45;&gt;n1 -->
<g id="edge8" class="edge">
<title>n2&#45;&gt;n1</title>
<path fill="none" stroke="#758297" stroke-width="1.8" stroke-dasharray="5,2" d="M554.81,-18C554.81,-18 498.58,-18 498.58,-18"/>
<polygon fill="#758297" stroke="#758297" stroke-width="1.8" points="498.58,-15.2 490.58,-18 498.58,-20.8 498.58,-15.2"/>
</g>
<!-- n2&#45;&gt;n3 -->
<g id="edge5" class="edge">
<title>n2&#45;&gt;n3</title>
<path fill="none" stroke="#758297" stroke-width="1.8" d="M765.43,-36C765.43,-36 821.66,-36 821.66,-36"/>
<polygon fill="#758297" stroke="#758297" stroke-width="1.8" points="821.66,-38.8 829.66,-36 821.66,-33.2 821.66,-38.8"/>
</g>
<!-- n4&#45;&gt;n1 -->
<g id="edge6" class="edge">
<title>n4&#45;&gt;n1</title>
<path fill="none" stroke="#758297" stroke-width="1.8" d="M1152.05,-72.28C1152.05,-76.31 1152.05,-79 1152.05,-79 1152.05,-79 445.69,-79 445.69,-79 445.69,-79 445.69,-78.33 445.69,-78.33"/>
<polygon fill="#758297" stroke="#758297" stroke-width="1.8" points="448.49,-83.01 445.69,-75.01 442.89,-83.01 448.49,-83.01"/>
</g>
<!-- n4&#45;&gt;n1 -->
<g id="edge12" class="edge">
<title>n4&#45;&gt;n1</title>
<path fill="none" stroke="#758297" stroke-width="1.8" d="M1278.19,-72.3C1278.19,-87.19 1278.19,-101 1278.19,-101 1278.19,-101 403.64,-101 403.64,-101 403.64,-101 403.64,-83.03 403.64,-83.03"/>
<polygon fill="#758297" stroke="#758297" stroke-width="1.8" points="406.44,-83.03 403.64,-75.03 400.84,-83.03 406.44,-83.03"/>
</g>
<!-- n0 -->
<g id="node1" class="node">
<title>n0</title>
<path fill="#ffffff" stroke="#5b8def" d="M198.24,-72C198.24,-72 12,-72 12,-72 6,-72 0,-66 0,-60 0,-60 0,-12 0,-12 0,-6 6,0 12,0 12,0 198.24,0 198.24,0 204.24,0 210.24,-6 210.24,-12 210.24,-12 210.24,-60 210.24,-60 210.24,-66 204.24,-72 198.24,-72"/>
<text xml:space="preserve" text-anchor="middle" x="105.12" y="-31.65" font-family="Architects Daughter" font-size="18.00">Holder A</text>
</g>
<!-- n1 -->
<g id="node2" class="node">
<title>n1</title>
<path fill="#ffffff" stroke="#58a978" d="M475.74,-72C475.74,-72 289.5,-72 289.5,-72 283.5,-72 277.5,-66 277.5,-60 277.5,-60 277.5,-12 277.5,-12 277.5,-6 283.5,0 289.5,0 289.5,0 475.74,0 475.74,0 481.74,0 487.74,-6 487.74,-12 487.74,-12 487.74,-60 487.74,-60 487.74,-66 481.74,-72 475.74,-72"/>
<text xml:space="preserve" text-anchor="middle" x="382.62" y="-31.65" font-family="Architects Daughter" font-size="18.00">Example</text>
</g>
<!-- n2 -->
<g id="node3" class="node">
<title>n2</title>
<path fill="#ffffff" stroke="#d6a441" d="M753.24,-72C753.24,-72 567,-72 567,-72 561,-72 555,-66 555,-60 555,-60 555,-12 555,-12 555,-6 561,0 567,0 567,0 753.24,0 753.24,0 759.24,0 765.24,-6 765.24,-12 765.24,-12 765.24,-60 765.24,-60 765.24,-66 759.24,-72 753.24,-72"/>
<text xml:space="preserve" text-anchor="middle" x="660.12" y="-31.65" font-family="Architects Daughter" font-size="18.00">Kubernetes API</text>
</g>
<!-- n3 -->
<g id="node4" class="node">
<title>n3</title>
<path fill="#ffffff" stroke="#dc6b82" d="M1030.74,-72C1030.74,-72 844.5,-72 844.5,-72 838.5,-72 832.5,-66 832.5,-60 832.5,-60 832.5,-12 832.5,-12 832.5,-6 838.5,0 844.5,0 844.5,0 1030.74,0 1030.74,0 1036.74,0 1042.74,-6 1042.74,-12 1042.74,-12 1042.74,-60 1042.74,-60 1042.74,-66 1036.74,-72 1030.74,-72"/>
<text xml:space="preserve" text-anchor="middle" x="937.62" y="-31.65" font-family="Architects Daughter" font-size="18.00">Lease</text>
</g>
<!-- n4 -->
<g id="node5" class="node">
<title>n4</title>
<path fill="#ffffff" stroke="#45a7a1" d="M1308.24,-72C1308.24,-72 1122,-72 1122,-72 1116,-72 1110,-66 1110,-60 1110,-60 1110,-12 1110,-12 1110,-6 1116,0 1122,0 1122,0 1308.24,0 1308.24,0 1314.24,0 1320.24,-6 1320.24,-12 1320.24,-12 1320.24,-60 1320.24,-60 1320.24,-66 1314.24,-72 1308.24,-72"/>
<text xml:space="preserve" text-anchor="middle" x="1215.12" y="-31.65" font-family="Architects Daughter" font-size="18.00">Holder B</text>
</g>
</g>
</svg>
