<?xml version="1.0" encoding="UTF-8" standalone="no"?>
<!DOCTYPE svg PUBLIC "-//W3C//DTD SVG 1.1//EN"
 "http://www.w3.org/Graphics/SVG/1.1/DTD/svg11.dtd">
<!-- Generated by graphviz version 15.0.0 (20260523.1842)
 -->
<!-- Title: examples&#45;k8s&#45;operator&#45;architecture&#45;01 Pages: 1 -->
<svg width="1298pt" height="425pt"
 viewBox="0.00 0.00 1298.00 425.00" xmlns="http://www.w3.org/2000/svg" xmlns:xlink="http://www.w3.org/1999/xlink">
<g id="graph0" class="graph" transform="scale(1 1) rotate(0) translate(4 420.66)">
<title>examples&#45;k8s&#45;operator&#45;architecture&#45;01</title>
<text xml:space="preserve" text-anchor="middle" x="644.84" y="-399.36" font-family="Times,serif" font-size="14.00">K8s Operator Architecture</text>
<!-- n0&#45;&gt;r1p1 -->
<g id="edge1" class="edge">
<title>n0&#45;&gt;r1p1</title>
<path fill="none" stroke="#758297" stroke-width="1.8" d="M230.15,-346.08C244.3,-346.08 255.05,-346.08 258.59,-346.08"/>
</g>
<!-- n1&#45;&gt;r2p1 -->
<g id="edge4" class="edge">
<title>n1&#45;&gt;r2p1</title>
<path fill="none" stroke="#758297" stroke-width="1.8" d="M230.15,-196.08C244.3,-196.08 255.05,-196.08 258.59,-196.08"/>
</g>
<!-- n2&#45;&gt;r3p1 -->
<g id="edge7" class="edge">
<title>n2&#45;&gt;r3p1</title>
<path fill="none" stroke="#758297" stroke-width="1.8" d="M230.15,-46.08C244.3,-46.08 255.05,-46.08 258.59,-46.08"/>
</g>
<!-- n3&#45;&gt;r4p1 -->
<g id="edge10" class="edge">
<title>n3&#45;&gt;r4p1</title>
<path fill="none" stroke="#758297" stroke-width="1.8" d="M549.98,-196.08C569.07,-196.08 583.88,-196.08 588.4,-196.08"/>
</g>
<!-- n3&#45;&gt;r6p1 -->
<g id="edge16" class="edge">
<title>n3&#45;&gt;r6p1</title>
<path fill="none" stroke="#758297" stroke-width="1.8" d="M419.84,-149.59C419.84,-127.15 419.84,-103.76 419.84,-97.63"/>
</g>
<!-- n4&#45;&gt;r5p1 -->
<g id="edge13" class="edge">
<title>n4&#45;&gt;r5p1</title>
<path fill="none" stroke="#758297" stroke-width="1.8" d="M999.95,-196.08C1014.64,-196.08 1025.19,-196.08 1028.63,-196.08"/>
</g>
<!-- r1p1&#45;&gt;r1p2 -->
<g id="edge2" class="edge">
<title>r1p1&#45;&gt;r1p2</title>
<path fill="none" stroke="#758297" stroke-width="1.8" d="M259.84,-344.78C259.84,-331.04 259.84,-212.37 259.84,-197.59"/>
</g>
<!-- r1p2&#45;&gt;n3 -->
<g id="edge3" class="edge">
<title>r1p2&#45;&gt;n3</title>
<path fill="none" stroke="#758297" stroke-width="1.8" d="M261.22,-196.08C263.91,-196.08 270.38,-196.08 279.24,-196.08"/>
<polygon fill="#758297" stroke="#758297" stroke-width="1.8" points="279,-198.88 287,-196.08 279,-193.28 279,-198.88"/>
</g>
<!-- r2p1&#45;&gt;r2p2 -->
<g id="edge5" class="edge">
<title>r2p1&#45;&gt;r2p2</title>
<path fill="none" stroke="#758297" stroke-width="1.8" d="M259.84,-196.08C259.84,-196.08 259.84,-196.08 259.84,-196.08"/>
</g>
<!-- r2p2&#45;&gt;n3 -->
<g id="edge6" class="edge">
<title>r2p2&#45;&gt;n3</title>
<path fill="none" stroke="#758297" stroke-width="1.8" d="M261.22,-196.08C263.91,-196.08 270.38,-196.08 279.24,-196.08"/>
<polygon fill="#758297" stroke="#758297" stroke-width="1.8" points="279,-198.88 287,-196.08 279,-193.28 279,-198.88"/>
</g>
<!-- r3p1&#45;&gt;r3p2 -->
<g id="edge8" class="edge">
<title>r3p1&#45;&gt;r3p2</title>
<path fill="none" stroke="#758297" stroke-width="1.8" d="M259.84,-47.38C259.84,-61.12 259.84,-179.79 259.84,-194.57"/>
</g>
<!-- r3p2&#45;&gt;n3 -->
<g id="edge9" class="edge">
<title>r3p2&#45;&gt;n3</title>
<path fill="none" stroke="#758297" stroke-width="1.8" d="M261.22,-196.08C263.91,-196.08 270.38,-196.08 279.24,-196.08"/>
<polygon fill="#758297" stroke="#758297" stroke-width="1.8" points="279,-198.88 287,-196.08 279,-193.28 279,-198.88"/>
</g>
<!-- r4p1&#45;&gt;r4p2 -->
<g id="edge11" class="edge">
<title>r4p1&#45;&gt;r4p2</title>
<path fill="none" stroke="#758297" stroke-width="1.8" d="M589.84,-196.08C589.84,-196.08 589.84,-196.08 589.84,-196.08"/>
</g>
<!-- r4p2&#45;&gt;n4 -->
<g id="edge12" class="edge">
<title>r4p2&#45;&gt;n4</title>
<path fill="none" stroke="#758297" stroke-width="1.8" d="M591.28,-196.08C594.9,-196.08 605.12,-196.08 619.33,-196.08"/>
<polygon fill="#758297" stroke="#758297" stroke-width="1.8" points="619.04,-198.88 627.04,-196.08 619.04,-193.28 619.04,-198.88"/>
</g>
<!-- r5p1&#45;&gt;r5p2 -->
<g id="edge14" class="edge">
<title>r5p1&#45;&gt;r5p2</title>
<path fill="none" stroke="#758297" stroke-width="1.8" d="M1029.84,-197.49C1029.84,-208.7 1029.84,-283.03 1029.84,-294.57"/>
</g>
<!-- r5p2&#45;&gt;n5 -->
<g id="edge15" class="edge">
<title>r5p2&#45;&gt;n5</title>
<path fill="none" stroke="#758297" stroke-width="1.8" d="M1031.09,-296.08C1033.7,-296.08 1040.19,-296.08 1049.05,-296.08"/>
<polygon fill="#758297" stroke="#758297" stroke-width="1.8" points="1048.81,-298.88 1056.81,-296.08 1048.81,-293.28 1048.81,-298.88"/>
</g>
<!-- r6p1&#45;&gt;n6 -->
<g id="edge17" class="edge">
<title>r6p1&#45;&gt;n6</title>
<path fill="none" stroke="#758297" stroke-width="1.8" d="M421.06,-96.08C445.86,-96.08 841.19,-96.08 1049.14,-96.08"/>
<polygon fill="#758297" stroke="#758297" stroke-width="1.8" points="1049.08,-98.88 1057.08,-96.08 1049.08,-93.28 1049.08,-98.88"/>
</g>
<!-- n0 -->
<g id="node1" class="node">
<title>n0</title>
<path fill="#ffffff" stroke="#5b8def" d="M217.68,-392.16C217.68,-392.16 12,-392.16 12,-392.16 6,-392.16 0,-386.16 0,-380.16 0,-380.16 0,-312 0,-312 0,-306 6,-300 12,-300 12,-300 217.68,-300 217.68,-300 223.68,-300 229.68,-306 229.68,-312 229.68,-312 229.68,-380.16 229.68,-380.16 229.68,-386.16 223.68,-392.16 217.68,-392.16"/>
<text xml:space="preserve" text-anchor="middle" x="114.84" y="-341.73" font-family="Architects Daughter" font-size="18.00">Operator pod&#45;1</text>
</g>
<!-- n1 -->
<g id="node2" class="node">
<title>n1</title>
<path fill="#ffffff" stroke="#58a978" d="M217.68,-242.16C217.68,-242.16 12,-242.16 12,-242.16 6,-242.16 0,-236.16 0,-230.16 0,-230.16 0,-162 0,-162 0,-156 6,-150 12,-150 12,-150 217.68,-150 217.68,-150 223.68,-150 229.68,-156 229.68,-162 229.68,-162 229.68,-230.16 229.68,-230.16 229.68,-236.16 223.68,-242.16 217.68,-242.16"/>
<text xml:space="preserve" text-anchor="middle" x="114.84" y="-191.73" font-family="Architects Daughter" font-size="18.00">Operator pod&#45;2</text>
</g>
<!-- n2 -->
<g id="node3" class="node">
<title>n2</title>
<path fill="#ffffff" stroke="#d6a441" d="M217.68,-92.16C217.68,-92.16 12,-92.16 12,-92.16 6,-92.16 0,-86.16 0,-80.16 0,-80.16 0,-12 0,-12 0,-6 6,0 12,0 12,0 217.68,0 217.68,0 223.68,0 229.68,-6 229.68,-12 229.68,-12 229.68,-80.16 229.68,-80.16 229.68,-86.16 223.68,-92.16 217.68,-92.16"/>
<text xml:space="preserve" text-anchor="middle" x="114.84" y="-41.73" font-family="Architects Daughter" font-size="18.00">Operator pod&#45;3</text>
</g>
<!-- n3 -->
<g id="node4" class="node">
<title>n3</title>
<path fill="#ffffff" stroke="#dc6b82" d="M537.8,-242.16C537.8,-242.16 301.88,-242.16 301.88,-242.16 295.88,-242.16 289.88,-236.16 289.88,-230.16 289.88,-230.16 289.88,-162 289.88,-162 289.88,-156 295.88,-150 301.88,-150 301.88,-150 537.8,-150 537.8,-150 543.8,-150 549.8,-156 549.8,-162 549.8,-162 549.8,-230.16 549.8,-230.16 549.8,-236.16 543.8,-242.16 537.8,-242.16"/>
<text xml:space="preserve" text-anchor="middle" x="419.84" y="-191.73" font-family="Architects Daughter" font-size="18.00">OperatorController</text>
</g>
<!-- n4 -->
<g id="node5" class="node">
<title>n4</title>
<path fill="#ffffff" stroke="#45a7a1" d="M987.88,-242.16C987.88,-242.16 641.8,-242.16 641.8,-242.16 635.8,-242.16 629.8,-236.16 629.8,-230.16 629.8,-230.16 629.8,-162 629.8,-162 629.8,-156 635.8,-150 641.8,-150 641.8,-150 987.88,-150 987.88,-150 993.88,-150 999.88,-156 999.88,-162 999.88,-162 999.88,-230.16 999.88,-230.16 999.88,-236.16 993.88,-242.16 987.88,-242.16"/>
<text xml:space="preserve" text-anchor="middle" x="814.84" y="-191.73" font-family="Architects Daughter" font-size="18.00">KubernetesLeaseLeaderElector</text>
</g>
<!-- n5 -->
<g id="node6" class="node">
<title>n5</title>
<path fill="#ffffff" stroke="#8a72d6" d="M1277.68,-342.16C1277.68,-342.16 1072,-342.16 1072,-342.16 1066,-342.16 1060,-336.16 1060,-330.16 1060,-330.16 1060,-262 1060,-262 1060,-256 1066,-250 1072,-250 1072,-250 1277.68,-250 1277.68,-250 1283.68,-250 1289.68,-256 1289.68,-262 1289.68,-262 1289.68,-330.16 1289.68,-330.16 1289.68,-336.16 1283.68,-342.16 1277.68,-342.16"/>
<text xml:space="preserve" text-anchor="middle" x="1174.84" y="-291.73" font-family="Architects Daughter" font-size="18.00">Kubernetes Lease</text>
</g>
<!-- n6 -->
<g id="node7" class="node">
<title>n6</title>
<path fill="#ffffff" stroke="#b88a44" d="M1277.68,-142.16C1277.68,-142.16 1072,-142.16 1072,-142.16 1066,-142.16 1060,-136.16 1060,-130.16 1060,-130.16 1060,-62 1060,-62 1060,-56 1066,-50 1072,-50 1072,-50 1277.68,-50 1277.68,-50 1283.68,-50 1289.68,-56 1289.68,-62 1289.68,-62 1289.68,-130.16 1289.68,-130.16 1289.68,-136.16 1283.68,-142.16 1277.68,-142.16"/>
<text xml:space="preserve" text-anchor="middle" x="1174.84" y="-91.73" font-family="Architects Daughter" font-size="18.00">Demo workload</text>
</g>
<!-- r1p1 -->
<!-- r1p2 -->
<!-- r2p1 -->
<!-- r2p2 -->
<!-- r3p1 -->
<!-- r3p2 -->
<!-- r4p1 -->
<!-- r4p2 -->
<!-- r5p1 -->
<!-- r5p2 -->
<!-- r6p1 -->
</g>
</svg>
