<?xml version="1.0" encoding="UTF-8" standalone="no"?>
<!DOCTYPE svg PUBLIC "-//W3C//DTD SVG 1.1//EN"
 "http://www.w3.org/Graphics/SVG/1.1/DTD/svg11.dtd">
<!-- Generated by graphviz version 15.0.0 (20260523.1842)
 -->
<!-- Title: examples&#45;consul&#45;maintenance&#45;scenario&#45;01 Pages: 1 -->
<svg width="1108pt" height="665pt"
 viewBox="0.00 0.00 1108.00 665.00" xmlns="http://www.w3.org/2000/svg" xmlns:xlink="http://www.w3.org/1999/xlink">
<g id="graph0" class="graph" transform="scale(1 1) rotate(0) translate(4 660.66)">
<title>examples&#45;consul&#45;maintenance&#45;scenario&#45;01</title>
<text xml:space="preserve" text-anchor="middle" x="550.12" y="-639.36" font-family="Times,serif" font-size="14.00">Consul Maintenance Scenario</text>
<!-- n0&#45;&gt;r1p1 -->
<g id="edge1" class="edge">
<title>n0&#45;&gt;r1p1</title>
<path fill="none" stroke="#758297" stroke-width="1.8" d="M300.68,-586.08C324.66,-586.08 343.37,-586.08 348.63,-586.08"/>
</g>
<!-- n1&#45;&gt;r2p1 -->
<g id="edge4" class="edge">
<title>n1&#45;&gt;r2p1</title>
<path fill="none" stroke="#758297" stroke-width="1.8" d="M550.12,-539.81C550.12,-524.4 550.12,-510.01 550.12,-505.52"/>
</g>
<!-- n2&#45;&gt;r3p1 -->
<g id="edge7" class="edge">
<title>n2&#45;&gt;r3p1</title>
<path fill="none" stroke="#758297" stroke-width="1.8" d="M950.12,-539.81C950.12,-524.4 950.12,-510.01 950.12,-505.52"/>
</g>
<!-- n3&#45;&gt;r4p1 -->
<g id="edge10" class="edge">
<title>n3&#45;&gt;r4p1</title>
<path fill="none" stroke="#758297" stroke-width="1.8" d="M550.12,-375.52C550.12,-358.07 550.12,-341.28 550.12,-336.46"/>
</g>
<!-- n3&#45;&gt;r5p1 -->
<g id="edge13" class="edge">
<title>n3&#45;&gt;r5p1</title>
<path fill="none" stroke="#758297" stroke-width="1.8" d="M550.12,-375.52C550.12,-358.07 550.12,-341.28 550.12,-336.46"/>
</g>
<!-- n4&#45;&gt;r6p1 -->
<g id="edge16" class="edge">
<title>n4&#45;&gt;r6p1</title>
<path fill="none" stroke="#758297" stroke-width="1.8" d="M315.12,-199.59C315.12,-177.15 315.12,-153.76 315.12,-147.63"/>
</g>
<!-- n5&#45;&gt;r7p1 -->
<g id="edge19" class="edge">
<title>n5&#45;&gt;r7p1</title>
<path fill="none" stroke="#758297" stroke-width="1.8" d="M815.12,-199.59C815.12,-177.15 815.12,-153.76 815.12,-147.63"/>
</g>
<!-- n6&#45;&gt;r8p1 -->
<g id="edge22" class="edge">
<title>n6&#45;&gt;r8p1</title>
<path fill="none" stroke="#758297" stroke-width="1.8" d="M480.48,-46.08C521.89,-46.08 556.68,-46.08 563.79,-46.08"/>
</g>
<!-- r1p1&#45;&gt;r1p2 -->
<g id="edge2" class="edge">
<title>r1p1&#45;&gt;r1p2</title>
<path fill="none" stroke="#758297" stroke-width="1.8" d="M350.12,-586.08C350.12,-586.08 350.12,-586.08 350.12,-586.08"/>
</g>
<!-- r1p2&#45;&gt;n1 -->
<g id="edge3" class="edge">
<title>r1p2&#45;&gt;n1</title>
<path fill="none" stroke="#758297" stroke-width="1.8" d="M351.4,-586.08C355.6,-586.08 369.82,-586.08 388.86,-586.08"/>
<polygon fill="#758297" stroke="#758297" stroke-width="1.8" points="388.84,-588.88 396.84,-586.08 388.84,-583.28 388.84,-588.88"/>
</g>
<!-- r2p1&#45;&gt;r2p2 -->
<g id="edge5" class="edge">
<title>r2p1&#45;&gt;r2p2</title>
<path fill="none" stroke="#758297" stroke-width="1.8" d="M550.12,-504.08C550.12,-504.08 550.12,-504.08 550.12,-504.08"/>
</g>
<!-- r2p2&#45;&gt;n3 -->
<g id="edge6" class="edge">
<title>r2p2&#45;&gt;n3</title>
<path fill="none" stroke="#758297" stroke-width="1.8" d="M550.12,-502.66C550.12,-499.24 550.12,-490.02 550.12,-478.98"/>
<polygon fill="#758297" stroke="#758297" stroke-width="1.8" points="552.92,-479.17 550.12,-471.17 547.32,-479.17 552.92,-479.17"/>
</g>
<!-- r3p1&#45;&gt;r3p2 -->
<g id="edge8" class="edge">
<title>r3p1&#45;&gt;r3p2</title>
<path fill="none" stroke="#758297" stroke-width="1.8" d="M948.65,-504.08C925.77,-504.08 643.5,-504.08 621.48,-504.08"/>
</g>
<!-- r3p2&#45;&gt;n3 -->
<g id="edge9" class="edge">
<title>r3p2&#45;&gt;n3</title>
<path fill="none" stroke="#758297" stroke-width="1.8" d="M619.13,-502.92C616.21,-499.5 607.18,-488.92 596.57,-476.5"/>
<polygon fill="#758297" stroke="#758297" stroke-width="1.8" points="598.9,-474.91 591.57,-470.64 594.64,-478.54 598.9,-474.91"/>
</g>
<!-- r4p1&#45;&gt;r4p2 -->
<g id="edge11" class="edge">
<title>r4p1&#45;&gt;r4p2</title>
<path fill="none" stroke="#758297" stroke-width="1.8" d="M548.62,-335.08C529.54,-335.08 334.71,-335.08 316.49,-335.08"/>
</g>
<!-- r4p2&#45;&gt;n4 -->
<g id="edge12" class="edge">
<title>r4p2&#45;&gt;n4</title>
<path fill="none" stroke="#758297" stroke-width="1.8" d="M315.12,-333.54C315.12,-329.34 315.12,-317.09 315.12,-303.04"/>
<polygon fill="#758297" stroke="#758297" stroke-width="1.8" points="317.92,-303.3 315.12,-295.3 312.32,-303.3 317.92,-303.3"/>
</g>
<!-- r5p1&#45;&gt;r5p2 -->
<g id="edge14" class="edge">
<title>r5p1&#45;&gt;r5p2</title>
<path fill="none" stroke="#758297" stroke-width="1.8" d="M551.55,-335.08C571.43,-335.08 792.85,-335.08 813.57,-335.08"/>
</g>
<!-- r5p2&#45;&gt;n5 -->
<g id="edge15" class="edge">
<title>r5p2&#45;&gt;n5</title>
<path fill="none" stroke="#758297" stroke-width="1.8" d="M815.12,-333.54C815.12,-329.34 815.12,-317.09 815.12,-303.04"/>
<polygon fill="#758297" stroke="#758297" stroke-width="1.8" points="817.92,-303.3 815.12,-295.3 812.32,-303.3 817.92,-303.3"/>
</g>
<!-- r6p1&#45;&gt;r6p2 -->
<g id="edge17" class="edge">
<title>r6p1&#45;&gt;r6p2</title>
<path fill="none" stroke="#758297" stroke-width="1.8" d="M315.12,-146.08C315.12,-146.08 315.12,-146.08 315.12,-146.08"/>
</g>
<!-- r6p2&#45;&gt;n6 -->
<g id="edge18" class="edge">
<title>r6p2&#45;&gt;n6</title>
<path fill="none" stroke="#758297" stroke-width="1.8" d="M315.12,-144.67C315.12,-139.66 315.12,-122.04 315.12,-103.06"/>
<polygon fill="#758297" stroke="#758297" stroke-width="1.8" points="317.92,-103.17 315.12,-95.17 312.32,-103.17 317.92,-103.17"/>
</g>
<!-- r7p1&#45;&gt;r7p2 -->
<g id="edge20" class="edge">
<title>r7p1&#45;&gt;r7p2</title>
<path fill="none" stroke="#758297" stroke-width="1.8" d="M815.12,-146.08C815.12,-146.08 815.12,-146.08 815.12,-146.08"/>
</g>
<!-- r7p2&#45;&gt;n7 -->
<g id="edge21" class="edge">
<title>r7p2&#45;&gt;n7</title>
<path fill="none" stroke="#758297" stroke-width="1.8" d="M815.12,-144.67C815.12,-139.66 815.12,-122.04 815.12,-103.06"/>
<polygon fill="#758297" stroke="#758297" stroke-width="1.8" points="817.92,-103.17 815.12,-95.17 812.32,-103.17 817.92,-103.17"/>
</g>
<!-- r8p1&#45;&gt;r8p2 -->
<g id="edge23" class="edge">
<title>r8p1&#45;&gt;r8p2</title>
<path fill="none" stroke="#758297" stroke-width="1.8" d="M565.12,-44.62C565.12,-37.94 565.12,-10.38 565.12,-3.59"/>
</g>
<!-- r8p2&#45;&gt;n7 -->
<g id="edge24" class="edge">
<title>r8p2&#45;&gt;n7</title>
<path fill="none" stroke="#758297" stroke-width="1.8" d="M566.23,-2.28C572.3,-3.34 602.41,-8.64 639.72,-15.21"/>
<polygon fill="#758297" stroke="#758297" stroke-width="1.8" points="638.83,-17.9 647.2,-16.53 639.8,-12.38 638.83,-17.9"/>
</g>
<!-- n0 -->
<g id="node1" class="node">
<title>n0</title>
<path fill="#ffffff" stroke="#5b8def" d="M288.24,-632.16C288.24,-632.16 12,-632.16 12,-632.16 6,-632.16 0,-626.16 0,-620.16 0,-620.16 0,-552 0,-552 0,-546 6,-540 12,-540 12,-540 288.24,-540 288.24,-540 294.24,-540 300.24,-546 300.24,-552 300.24,-552 300.24,-620.16 300.24,-620.16 300.24,-626.16 294.24,-632.16 288.24,-632.16"/>
<text xml:space="preserve" text-anchor="middle" x="150.12" y="-581.73" font-family="Architects Daughter" font-size="18.00">Maintenance tick</text>
</g>
<!-- n1 -->
<g id="node2" class="node">
<title>n1</title>
<path fill="#ffffff" stroke="#58a978" d="M688.24,-632.16C688.24,-632.16 412,-632.16 412,-632.16 406,-632.16 400,-626.16 400,-620.16 400,-620.16 400,-552 400,-552 400,-546 406,-540 412,-540 412,-540 688.24,-540 688.24,-540 694.24,-540 700.24,-546 700.24,-552 700.24,-552 700.24,-620.16 700.24,-620.16 700.24,-626.16 694.24,-632.16 688.24,-632.16"/>
<text xml:space="preserve" text-anchor="middle" x="550.12" y="-581.73" font-family="Architects Daughter" font-size="18.00">Node A elected</text>
</g>
<!-- n2 -->
<g id="node3" class="node">
<title>n2</title>
<path fill="#ffffff" stroke="#dc6b82" d="M1088.24,-632.16C1088.24,-632.16 812,-632.16 812,-632.16 806,-632.16 800,-626.16 800,-620.16 800,-620.16 800,-552 800,-552 800,-546 806,-540 812,-540 812,-540 1088.24,-540 1088.24,-540 1094.24,-540 1100.24,-546 1100.24,-552 1100.24,-552 1100.24,-620.16 1100.24,-620.16 1100.24,-626.16 1094.24,-632.16 1088.24,-632.16"/>
<text xml:space="preserve" text-anchor="middle" x="950.12" y="-581.73" font-family="Architects Daughter" font-size="18.00">Node B contender</text>
</g>
<!-- n3 -->
<g id="node4" class="node">
<title>n3</title>
<path fill="#ffffff" stroke="#8a72d6" d="M688.24,-468.16C688.24,-468.16 412,-468.16 412,-468.16 406,-468.16 400,-462.16 400,-456.16 400,-456.16 400,-388 400,-388 400,-382 406,-376 412,-376 412,-376 688.24,-376 688.24,-376 694.24,-376 700.24,-382 700.24,-388 700.24,-388 700.24,-456.16 700.24,-456.16 700.24,-462.16 694.24,-468.16 688.24,-468.16"/>
<text xml:space="preserve" text-anchor="middle" x="550.12" y="-417.73" font-family="Architects Daughter" font-size="18.00">Consul election</text>
</g>
<!-- n4 -->
<g id="node5" class="node">
<title>n4</title>
<path fill="#ffffff" stroke="#58a978" d="M468,-292.16C468,-292.16 162.24,-292.16 162.24,-292.16 156.24,-292.16 150.24,-286.16 150.24,-280.16 150.24,-280.16 150.24,-212 150.24,-212 150.24,-206 156.24,-200 162.24,-200 162.24,-200 468,-200 468,-200 474,-200 480,-206 480,-212 480,-212 480,-280.16 480,-280.16 480,-286.16 474,-292.16 468,-292.16"/>
<text xml:space="preserve" text-anchor="middle" x="315.12" y="-241.73" font-family="Architects Daughter" font-size="18.00">Run drain steps</text>
</g>
<!-- n5 -->
<g id="node6" class="node">
<title>n5</title>
<path fill="#ffffff" stroke="#dc6b82" d="M968,-292.16C968,-292.16 662.24,-292.16 662.24,-292.16 656.24,-292.16 650.24,-286.16 650.24,-280.16 650.24,-280.16 650.24,-212 650.24,-212 650.24,-206 656.24,-200 662.24,-200 662.24,-200 968,-200 968,-200 974,-200 980,-206 980,-212 980,-212 980,-280.16 980,-280.16 980,-286.16 974,-292.16 968,-292.16"/>
<text xml:space="preserve" text-anchor="middle" x="815.12" y="-241.73" font-family="Architects Daughter" font-size="18.00">Standby node</text>
</g>
<!-- n6 -->
<g id="node7" class="node">
<title>n6</title>
<path fill="#ffffff" stroke="#45a7a1" d="M468,-92.16C468,-92.16 162.24,-92.16 162.24,-92.16 156.24,-92.16 150.24,-86.16 150.24,-80.16 150.24,-80.16 150.24,-12 150.24,-12 150.24,-6 156.24,0 162.24,0 162.24,0 468,0 468,0 474,0 480,-6 480,-12 480,-12 480,-80.16 480,-80.16 480,-86.16 474,-92.16 468,-92.16"/>
<text xml:space="preserve" text-anchor="middle" x="315.12" y="-41.73" font-family="Architects Daughter" font-size="18.00">Return PERFORMED</text>
</g>
<!-- n7 -->
<g id="node8" class="node">
<title>n7</title>
<path fill="#ffffff" stroke="#b88a44" d="M968,-92.16C968,-92.16 662.24,-92.16 662.24,-92.16 656.24,-92.16 650.24,-86.16 650.24,-80.16 650.24,-80.16 650.24,-12 650.24,-12 650.24,-6 656.24,0 662.24,0 662.24,0 968,0 968,0 974,0 980,-6 980,-12 980,-12 980,-80.16 980,-80.16 980,-86.16 974,-92.16 968,-92.16"/>
<text xml:space="preserve" text-anchor="middle" x="815.12" y="-41.73" font-family="Architects Daughter" font-size="18.00">Later window</text>
</g>
<!-- r1p1 -->
<!-- r1p2 -->
<!-- r2p1 -->
<!-- r2p2 -->
<!-- r3p1 -->
<!-- r3p2 -->
<!-- r4p1 -->
<!-- r4p2 -->
<!-- r5p1 -->
<!-- r5p2 -->
<!-- r6p1 -->
<!-- r6p2 -->
<!-- r7p1 -->
<!-- r7p2 -->
<!-- r8p1 -->
<!-- r8p2 -->
</g>
</svg>
