<?xml version="1.0" encoding="UTF-8" standalone="no"?>
<!DOCTYPE svg PUBLIC "-//W3C//DTD SVG 1.1//EN"
 "http://www.w3.org/Graphics/SVG/1.1/DTD/svg11.dtd">
<!-- Generated by graphviz version 15.0.0 (20260523.1842)
 -->
<!-- Title: examples&#45;k8s&#45;lease&#45;architecture&#45;01 Pages: 1 -->
<svg width="608pt" height="585pt"
 viewBox="0.00 0.00 608.00 585.00" xmlns="http://www.w3.org/2000/svg" xmlns:xlink="http://www.w3.org/1999/xlink">
<g id="graph0" class="graph" transform="scale(1 1) rotate(0) translate(4 580.66)">
<title>examples&#45;k8s&#45;lease&#45;architecture&#45;01</title>
<text xml:space="preserve" text-anchor="middle" x="299.96" y="-559.36" font-family="Times,serif" font-size="14.00">K8s Lease Architecture</text>
<!-- n0&#45;&gt;r1p1 -->
<g id="edge1" class="edge">
<title>n0&#45;&gt;r1p1</title>
<path fill="none" stroke="#758297" stroke-width="1.8" d="M184.8,-506.08C184.85,-506.08 184.89,-506.08 184.92,-506.08"/>
</g>
<!-- n1&#45;&gt;r2p1 -->
<g id="edge4" class="edge">
<title>n1&#45;&gt;r2p1</title>
<path fill="none" stroke="#758297" stroke-width="1.8" d="M415.12,-506.08C415.07,-506.08 415.03,-506.08 415,-506.08"/>
</g>
<!-- n2&#45;&gt;r3p1 -->
<g id="edge7" class="edge">
<title>n2&#45;&gt;r3p1</title>
<path fill="none" stroke="#758297" stroke-width="1.8" d="M299.96,-299.86C299.96,-287.32 299.96,-276.16 299.96,-272.41"/>
</g>
<!-- n3&#45;&gt;r4p1 -->
<g id="edge10" class="edge">
<title>n3&#45;&gt;r4p1</title>
<path fill="none" stroke="#758297" stroke-width="1.8" d="M299.96,-149.86C299.96,-137.32 299.96,-126.16 299.96,-122.41"/>
</g>
<!-- r1p1&#45;&gt;r1p2 -->
<g id="edge2" class="edge">
<title>r1p1&#45;&gt;r1p2</title>
<path fill="none" stroke="#758297" stroke-width="1.8" d="M184.96,-504.7C184.96,-489.91 184.96,-361.34 184.96,-347.32"/>
</g>
<!-- r1p2&#45;&gt;n0 -->
<g id="edge3" class="edge">
<title>r1p2&#45;&gt;n0</title>
<path fill="none" stroke="#758297" stroke-width="1.8" d="M184.48,-347.46C181.39,-356.46 163.79,-407.65 149.42,-449.48"/>
<polygon fill="#758297" stroke="#758297" stroke-width="1.8" points="146.77,-448.56 146.82,-457.03 152.07,-450.38 146.77,-448.56"/>
</g>
<!-- r2p1&#45;&gt;r2p2 -->
<g id="edge5" class="edge">
<title>r2p1&#45;&gt;r2p2</title>
<path fill="none" stroke="#758297" stroke-width="1.8" d="M414.96,-504.7C414.96,-489.91 414.96,-361.34 414.96,-347.32"/>
</g>
<!-- r2p2&#45;&gt;n1 -->
<g id="edge6" class="edge">
<title>r2p2&#45;&gt;n1</title>
<path fill="none" stroke="#758297" stroke-width="1.8" d="M415.44,-347.46C418.53,-356.46 436.13,-407.65 450.5,-449.48"/>
<polygon fill="#758297" stroke="#758297" stroke-width="1.8" points="447.85,-450.38 453.1,-457.03 453.15,-448.56 447.85,-450.38"/>
</g>
<!-- r3p1&#45;&gt;r3p2 -->
<g id="edge8" class="edge">
<title>r3p1&#45;&gt;r3p2</title>
<path fill="none" stroke="#758297" stroke-width="1.8" d="M299.96,-271.08C299.96,-271.08 299.96,-271.08 299.96,-271.08"/>
</g>
<!-- r3p2&#45;&gt;n3 -->
<g id="edge9" class="edge">
<title>r3p2&#45;&gt;n3</title>
<path fill="none" stroke="#758297" stroke-width="1.8" d="M299.96,-269.51C299.96,-266.76 299.96,-260.63 299.96,-253.02"/>
<polygon fill="#758297" stroke="#758297" stroke-width="1.8" points="302.76,-253.06 299.96,-245.06 297.16,-253.06 302.76,-253.06"/>
</g>
<!-- r4p1&#45;&gt;r4p2 -->
<g id="edge11" class="edge">
<title>r4p1&#45;&gt;r4p2</title>
<path fill="none" stroke="#758297" stroke-width="1.8" d="M299.96,-121.08C299.96,-121.08 299.96,-121.08 299.96,-121.08"/>
</g>
<!-- r4p2&#45;&gt;n4 -->
<g id="edge12" class="edge">
<title>r4p2&#45;&gt;n4</title>
<path fill="none" stroke="#758297" stroke-width="1.8" d="M299.96,-119.51C299.96,-116.76 299.96,-110.63 299.96,-103.02"/>
<polygon fill="#758297" stroke="#758297" stroke-width="1.8" points="302.76,-103.06 299.96,-95.06 297.16,-103.06 302.76,-103.06"/>
</g>
<!-- n0 -->
<g id="node1" class="node">
<title>n0</title>
<path fill="#ffffff" stroke="#5b8def" d="M247.92,-552.16C247.92,-552.16 12,-552.16 12,-552.16 6,-552.16 0,-546.16 0,-540.16 0,-540.16 0,-472 0,-472 0,-466 6,-460 12,-460 12,-460 247.92,-460 247.92,-460 253.92,-460 259.92,-466 259.92,-472 259.92,-472 259.92,-540.16 259.92,-540.16 259.92,-546.16 253.92,-552.16 247.92,-552.16"/>
<text xml:space="preserve" text-anchor="middle" x="129.96" y="-501.73" font-family="Architects Daughter" font-size="18.00">Holder A</text>
</g>
<!-- n1 -->
<g id="node2" class="node">
<title>n1</title>
<path fill="#ffffff" stroke="#58a978" d="M587.92,-552.16C587.92,-552.16 352,-552.16 352,-552.16 346,-552.16 340,-546.16 340,-540.16 340,-540.16 340,-472 340,-472 340,-466 346,-460 352,-460 352,-460 587.92,-460 587.92,-460 593.92,-460 599.92,-466 599.92,-472 599.92,-472 599.92,-540.16 599.92,-540.16 599.92,-546.16 593.92,-552.16 587.92,-552.16"/>
<text xml:space="preserve" text-anchor="middle" x="469.96" y="-501.73" font-family="Architects Daughter" font-size="18.00">Holder B</text>
</g>
<!-- n2 -->
<g id="node3" class="node">
<title>n2</title>
<path fill="#ffffff" stroke="#d6a441" d="M478.04,-392.16C478.04,-392.16 121.88,-392.16 121.88,-392.16 115.88,-392.16 109.88,-386.16 109.88,-380.16 109.88,-380.16 109.88,-312 109.88,-312 109.88,-306 115.88,-300 121.88,-300 121.88,-300 478.04,-300 478.04,-300 484.04,-300 490.04,-306 490.04,-312 490.04,-312 490.04,-380.16 490.04,-380.16 490.04,-386.16 484.04,-392.16 478.04,-392.16"/>
<text xml:space="preserve" text-anchor="middle" x="299.96" y="-341.73" font-family="Architects Daughter" font-size="18.00">K8sLeaseLeaderElectionExample</text>
</g>
<!-- n3 -->
<g id="node4" class="node">
<title>n3</title>
<path fill="#ffffff" stroke="#dc6b82" d="M478.04,-242.16C478.04,-242.16 121.88,-242.16 121.88,-242.16 115.88,-242.16 109.88,-236.16 109.88,-230.16 109.88,-230.16 109.88,-162 109.88,-162 109.88,-156 115.88,-150 121.88,-150 121.88,-150 478.04,-150 478.04,-150 484.04,-150 490.04,-156 490.04,-162 490.04,-162 490.04,-230.16 490.04,-230.16 490.04,-236.16 484.04,-242.16 478.04,-242.16"/>
<text xml:space="preserve" text-anchor="middle" x="299.96" y="-191.73" font-family="Architects Daughter" font-size="18.00">Fabric8 KubernetesClient</text>
</g>
<!-- n4 -->
<g id="node5" class="node">
<title>n4</title>
<path fill="#ffffff" stroke="#45a7a1" d="M478.04,-92.16C478.04,-92.16 121.88,-92.16 121.88,-92.16 115.88,-92.16 109.88,-86.16 109.88,-80.16 109.88,-80.16 109.88,-12 109.88,-12 109.88,-6 115.88,0 121.88,0 121.88,0 478.04,0 478.04,0 484.04,0 490.04,-6 490.04,-12 490.04,-12 490.04,-80.16 490.04,-80.16 490.04,-86.16 484.04,-92.16 478.04,-92.16"/>
<text xml:space="preserve" text-anchor="middle" x="299.96" y="-41.73" font-family="Architects Daughter" font-size="18.00">Kubernetes Lease</text>
</g>
<!-- r1p1 -->
<!-- r1p2 -->
<!-- r2p1 -->
<!-- r2p2 -->
<!-- r3p1 -->
<!-- r3p2 -->
<!-- r4p1 -->
<!-- r4p2 -->
</g>
</svg>
