<svg xmlns="http://www.w3.org/2000/svg" width="1720" height="1790" viewBox="0 0 1720 1790" role="img" aria-label="batch scheduler Sequence Flow">
  <metadata id="graphviz-evidence">Regenerated with Graphviz evidence: examples-batch-scheduler-sequence-01.dot, examples-batch-scheduler-sequence-01.plain, examples-batch-scheduler-sequence-01-graphviz.svg via scripts/regenerate-readme-diagram-graphviz-evidence.mjs.</metadata>
<defs>
  <filter id="shadow" x="-8%" y="-8%" width="116%" height="116%"><feDropShadow dx="0" dy="8" stdDeviation="9" flood-color="#1f2937" flood-opacity="0.10"/></filter>
  <marker id="openArrow" markerWidth="12" markerHeight="10" refX="10" refY="5" orient="auto" markerUnits="strokeWidth"><path d="M 1 1 L 10 5 L 1 9" fill="none" stroke="#758297" stroke-width="1.8" stroke-linecap="round" stroke-linejoin="round"/></marker>
  <marker id="inherit" markerWidth="14" markerHeight="12" refX="12" refY="6" orient="auto" markerUnits="strokeWidth"><path d="M 0 1 L 12 6 L 0 11 Z" fill="#ffffff" stroke="#758297" stroke-width="1.8"/></marker>
  <style>
    .canvas{fill:#f7f9fc}.frame{fill:#fff;stroke:#d8e0ea;stroke-width:1.5}
    .title{font-family:"Architects Daughter","Comic Mono","Comic Sans MS","Comic Sans",cursive;font-size:43px;font-weight:400;fill:#102033}
    .subtitle{font-family:"Comic Mono","Comic Sans MS","Comic Sans","Comic Neue",Arial,sans-serif;font-size:15px;font-weight:400;fill:#536273}
    .label{font-family:"Architects Daughter","Comic Mono","Comic Sans MS","Comic Sans",cursive;font-size:25px;font-weight:400;fill:#102033}
    .smallLabel{font-family:"Architects Daughter","Comic Mono","Comic Sans MS","Comic Sans",cursive;font-size:21px;font-weight:400;fill:#102033}
    .mono{font-family:"Comic Mono","Comic Sans MS","Comic Sans","Comic Neue",Arial,sans-serif;font-size:12px;font-weight:400;fill:#102033}
    .small{font-family:"Comic Mono","Comic Sans MS","Comic Sans","Comic Neue",Arial,sans-serif;font-size:12px;font-weight:400;fill:#536273}
    .strong{font-family:"Comic Mono","Comic Sans MS","Comic Sans","Comic Neue",Arial,sans-serif;font-size:13px;font-weight:400;fill:#102033}
    .card{stroke-width:2.1;filter:url(#shadow)}.compartment{stroke-width:1.5;fill:none}
    .line{stroke:#758297;stroke-width:2.1;fill:none;marker-end:url(#openArrow)}
    .plainLine{stroke:#758297;stroke-width:2.1;fill:none}
    .dashed{stroke:#758297;stroke-width:2.1;stroke-dasharray:7 6;fill:none;marker-end:url(#openArrow)}
    .inheritLine{stroke:#758297;stroke-width:2.2;fill:none;marker-end:url(#inherit)}
    .implLine{stroke:#758297;stroke-width:2.2;stroke-dasharray:8 7;fill:none;marker-end:url(#inherit)}
  </style>
</defs>
<rect class="canvas" width="1720" height="1790"/>
<rect class="frame" x="32" y="28" width="1656" height="1734" rx="28"/>
<text class="title" x="66" y="82">batch scheduler Sequence Flow</text>
<text class="subtitle" x="70" y="118">Sequence messages from the original Mermaid source</text>
<rect class="card" x="80" y="166" width="230" height="72" rx="12" fill="#E8F3FF" stroke="#5B8DEF"/>
<text class="smallLabel" x="195" y="209" text-anchor="middle">Cron</text>
<line class="lifeline" x1="195" y1="252" x2="195" y2="1730" stroke="#b7c2d1" stroke-width="2" stroke-dasharray="10 10"/>
<rect class="card" x="412.5" y="166" width="230" height="72" rx="12" fill="#EAF7EF" stroke="#58A978"/>
<text class="smallLabel" x="527.5" y="209" text-anchor="middle">Node-1</text>
<line class="lifeline" x1="527.5" y1="252" x2="527.5" y2="1730" stroke="#b7c2d1" stroke-width="2" stroke-dasharray="10 10"/>
<rect class="card" x="745" y="166" width="230" height="72" rx="12" fill="#FFF3D9" stroke="#D6A441"/>
<text class="smallLabel" x="860" y="209" text-anchor="middle">Node-2</text>
<line class="lifeline" x1="860" y1="252" x2="860" y2="1730" stroke="#b7c2d1" stroke-width="2" stroke-dasharray="10 10"/>
<rect class="card" x="1077.5" y="166" width="230" height="72" rx="12" fill="#FDECEF" stroke="#DC6B82"/>
<text class="smallLabel" x="1192.5" y="209" text-anchor="middle">Node-3</text>
<line class="lifeline" x1="1192.5" y1="252" x2="1192.5" y2="1730" stroke="#b7c2d1" stroke-width="2" stroke-dasharray="10 10"/>
<rect class="card" x="1410" y="166" width="230" height="72" rx="12" fill="#E9F7F6" stroke="#45A7A1"/>
<text class="smallLabel" x="1525" y="209" text-anchor="middle">Redis</text>
<line class="lifeline" x1="1525" y1="252" x2="1525" y2="1730" stroke="#b7c2d1" stroke-width="2" stroke-dasharray="10 10"/>
<rect x="256.3" y="286" width="210" height="40" rx="67" fill="#ffffff" opacity="0.97"/>
<text class="strong" x="274.3" y="313" text-anchor="start">1. 02:00 trigger</text>
<path class="line" d="M195 332 L527.5 332"/>
<rect x="422.5" y="396" width="210" height="40" rx="67" fill="#ffffff" opacity="0.97"/>
<text class="strong" x="440.5" y="423" text-anchor="start">2. 02:00 trigger</text>
<path class="line" d="M195 442 L860 442"/>
<rect x="588.8" y="506" width="210" height="40" rx="67" fill="#ffffff" opacity="0.97"/>
<text class="strong" x="606.8" y="533" text-anchor="start">3. 02:00 trigger</text>
<path class="line" d="M195 552 L1192.5 552"/>
<rect x="125" y="616" width="1470" height="40" rx="71" fill="#F7F1E7" stroke="#B88A44" stroke-width="1.6" opacity="0.96"/>
<text class="strong" x="147" y="643" text-anchor="start">PAR: par</text>
<rect x="858.8" y="684" width="335" height="40" rx="67" fill="#ffffff" opacity="0.97"/>
<text class="strong" x="876.8" y="711" text-anchor="start">5. SET nightly-settlement (NX EX 30s)</text>
<path class="line" d="M527.5 730 L1525 730"/>
<rect x="125" y="794" width="1470" height="40" rx="71" fill="#F7F1E7" stroke="#B88A44" stroke-width="1.6" opacity="0.96"/>
<text class="strong" x="147" y="821" text-anchor="start">AND: and</text>
<rect x="1025" y="862" width="335" height="40" rx="67" fill="#ffffff" opacity="0.97"/>
<text class="strong" x="1043" y="889" text-anchor="start">7. SET nightly-settlement (NX EX 30s)</text>
<path class="line" d="M860 908 L1525 908"/>
<rect x="125" y="972" width="1470" height="40" rx="71" fill="#F7F1E7" stroke="#B88A44" stroke-width="1.6" opacity="0.96"/>
<text class="strong" x="147" y="999" text-anchor="start">AND: and</text>
<rect x="1191.3" y="1040" width="335" height="40" rx="67" fill="#ffffff" opacity="0.97"/>
<text class="strong" x="1209.3" y="1067" text-anchor="start">9. SET nightly-settlement (NX EX 30s)</text>
<path class="line" d="M1192.5 1086 L1525 1086"/>
<rect x="919.3" y="1150" width="214" height="40" rx="67" fill="#ffffff" opacity="0.97"/>
<text class="strong" x="937.3" y="1177" text-anchor="start">10. OK (lock acquired)</text>
<path class="dashed" d="M1525 1196 L527.5 1196"/>
<rect x="1087.5" y="1260" width="210" height="40" rx="67" fill="#ffffff" opacity="0.97"/>
<text class="strong" x="1105.5" y="1287" text-anchor="start">11. nil (skip)</text>
<path class="dashed" d="M1525 1306 L860 1306"/>
<rect x="1253.8" y="1370" width="210" height="40" rx="67" fill="#ffffff" opacity="0.97"/>
<text class="strong" x="1271.8" y="1397" text-anchor="start">12. nil (skip)</text>
<path class="dashed" d="M1525 1416 L1192.5 1416"/>
<rect x="468.5" y="1480" width="214" height="40" rx="67" fill="#ffffff" opacity="0.97"/>
<text class="strong" x="486.5" y="1507" text-anchor="start">13. run settlement job</text>
<path class="line" d="M527.5 1526 C591.5 1526 591.5 1560 527.5 1560"/>
<rect x="903.3" y="1610" width="246" height="40" rx="67" fill="#ffffff" opacity="0.97"/>
<text class="strong" x="921.3" y="1637" text-anchor="start">14. DEL nightly-settlement</text>
<path class="line" d="M527.5 1656 L1525 1656"/>
</svg>
