<?xml version="1.0" encoding="UTF-8" standalone="no"?>
<!DOCTYPE svg PUBLIC "-//W3C//DTD SVG 1.1//EN"
 "http://www.w3.org/Graphics/SVG/1.1/DTD/svg11.dtd">
<!-- Generated by graphviz version 15.0.0 (20260523.1842)
 -->
<!-- Title: examples&#45;cache&#45;warmer&#45;architecture&#45;01 Pages: 1 -->
<svg width="1413pt" height="136pt"
 viewBox="0.00 0.00 1413.00 136.00" xmlns="http://www.w3.org/2000/svg" xmlns:xlink="http://www.w3.org/1999/xlink">
<g id="graph0" class="graph" transform="scale(1 1) rotate(0) translate(4 132)">
<title>examples&#45;cache&#45;warmer&#45;architecture&#45;01</title>
<!-- trigger -->
<g id="node1" class="node">
<title>trigger</title>
<path fill="#f8fafc" stroke="#94a3b8" d="M124,-77C124,-77 12,-77 12,-77 6,-77 0,-71 0,-65 0,-65 0,-53 0,-53 0,-47 6,-41 12,-41 12,-41 124,-41 124,-41 130,-41 136,-47 136,-53 136,-53 136,-65 136,-65 136,-71 130,-77 124,-77"/>
<text xml:space="preserve" text-anchor="middle" x="68" y="-53.58" font-family="Comic Mono" font-size="14.00">Cache Warm Cycle</text>
</g>
<!-- nodeA -->
<g id="node2" class="node">
<title>nodeA</title>
<path fill="#f8fafc" stroke="#94a3b8" d="M347,-119C347,-119 235,-119 235,-119 229,-119 223,-113 223,-107 223,-107 223,-95 223,-95 223,-89 229,-83 235,-83 235,-83 347,-83 347,-83 353,-83 359,-89 359,-95 359,-95 359,-107 359,-107 359,-113 353,-119 347,-119"/>
<text xml:space="preserve" text-anchor="middle" x="291" y="-95.58" font-family="Comic Mono" font-size="14.00">Candidate Node A</text>
</g>
<!-- trigger&#45;&gt;nodeA -->
<g id="edge1" class="edge">
<title>trigger&#45;&gt;nodeA</title>
<path fill="none" stroke="#758297" d="M67.75,-77.06C67.75,-88.44 67.75,-101 67.75,-101 67.75,-101 210.99,-101 210.99,-101"/>
<polygon fill="#758297" stroke="#758297" points="210.99,-104.5 220.99,-101 210.99,-97.5 210.99,-104.5"/>
<text xml:space="preserve" text-anchor="middle" x="179.5" y="-98.5" font-family="Comic Mono" font-size="10.00">call</text>
</g>
<!-- nodeB -->
<g id="node3" class="node">
<title>nodeB</title>
<path fill="#f8fafc" stroke="#94a3b8" d="M347,-36C347,-36 235,-36 235,-36 229,-36 223,-30 223,-24 223,-24 223,-12 223,-12 223,-6 229,0 235,0 235,0 347,0 347,0 353,0 359,-6 359,-12 359,-12 359,-24 359,-24 359,-30 353,-36 347,-36"/>
<text xml:space="preserve" text-anchor="middle" x="291" y="-12.57" font-family="Comic Mono" font-size="14.00">Candidate Node B</text>
</g>
<!-- trigger&#45;&gt;nodeB -->
<g id="edge2" class="edge">
<title>trigger&#45;&gt;nodeB</title>
<path fill="none" stroke="#758297" d="M136.35,-59C201.82,-59 290.75,-59 290.75,-59 290.75,-59 290.75,-47.62 290.75,-47.62"/>
<polygon fill="#758297" stroke="#758297" points="294.25,-47.62 290.75,-37.62 287.25,-47.62 294.25,-47.62"/>
<text xml:space="preserve" text-anchor="middle" x="179.5" y="-29.5" font-family="Comic Mono" font-size="10.00">call</text>
</g>
<!-- coordinator -->
<g id="node4" class="node">
<title>coordinator</title>
<path fill="#f8fafc" stroke="#94a3b8" d="M532.5,-77C532.5,-77 458,-77 458,-77 452,-77 446,-71 446,-65 446,-65 446,-53 446,-53 446,-47 452,-41 458,-41 458,-41 532.5,-41 532.5,-41 538.5,-41 544.5,-47 544.5,-53 544.5,-53 544.5,-65 544.5,-65 544.5,-71 538.5,-77 532.5,-77"/>
<text xml:space="preserve" text-anchor="middle" x="495.25" y="-53.58" font-family="Comic Mono" font-size="14.00">CacheWarmer</text>
</g>
<!-- nodeA&#45;&gt;coordinator -->
<g id="edge3" class="edge">
<title>nodeA&#45;&gt;coordinator</title>
<path fill="none" stroke="#758297" d="M359.41,-87.5C418.6,-87.5 494.75,-87.5 494.75,-87.5 494.75,-87.5 494.75,-86.47 494.75,-86.47"/>
<polygon fill="#758297" stroke="#758297" points="498.25,-88.72 494.75,-78.72 491.25,-88.72 498.25,-88.72"/>
<text xml:space="preserve" text-anchor="middle" x="402.5" y="-98.5" font-family="Comic Mono" font-size="10.00">call</text>
</g>
<!-- nodeB&#45;&gt;coordinator -->
<g id="edge4" class="edge">
<title>nodeB&#45;&gt;coordinator</title>
<path fill="none" stroke="#758297" d="M359.31,-27C413,-27 478.75,-27 478.75,-27 478.75,-27 478.75,-29.24 478.75,-29.24"/>
<polygon fill="#758297" stroke="#758297" points="475.25,-29.24 478.75,-39.24 482.25,-29.24 475.25,-29.24"/>
<text xml:space="preserve" text-anchor="middle" x="402.5" y="-29.5" font-family="Comic Mono" font-size="10.00">call</text>
</g>
<!-- elector -->
<g id="node6" class="node">
<title>elector</title>
<path fill="#f8fafc" stroke="#94a3b8" d="M832,-128C832,-128 675,-128 675,-128 669,-128 663,-122 663,-116 663,-116 663,-104 663,-104 663,-98 669,-92 675,-92 675,-92 832,-92 832,-92 838,-92 844,-98 844,-104 844,-104 844,-116 844,-116 844,-122 838,-128 832,-128"/>
<text xml:space="preserve" text-anchor="middle" x="753.5" y="-104.58" font-family="Comic Mono" font-size="14.00">Leader elector factory</text>
</g>
<!-- coordinator&#45;&gt;elector -->
<g id="edge5" class="edge">
<title>coordinator&#45;&gt;elector</title>
<path fill="none" stroke="#758297" d="M544.85,-61C595.51,-61 666.75,-61 666.75,-61 666.75,-61 666.75,-80.24 666.75,-80.24"/>
<polygon fill="#758297" stroke="#758297" points="663.25,-80.24 666.75,-90.24 670.25,-80.24 663.25,-80.24"/>
<text xml:space="preserve" text-anchor="middle" x="603.75" y="-102.5" font-family="Comic Mono" font-size="10.00">dependency</text>
</g>
<!-- work -->
<g id="node8" class="node">
<title>work</title>
<path fill="#f8fafc" stroke="#94a3b8" d="M824.5,-45C824.5,-45 682.5,-45 682.5,-45 676.5,-45 670.5,-39 670.5,-33 670.5,-33 670.5,-21 670.5,-21 670.5,-15 676.5,-9 682.5,-9 682.5,-9 824.5,-9 824.5,-9 830.5,-9 836.5,-15 836.5,-21 836.5,-21 836.5,-33 836.5,-33 836.5,-39 830.5,-45 824.5,-45"/>
<text xml:space="preserve" text-anchor="middle" x="753.5" y="-21.57" font-family="Comic Mono" font-size="14.00">Warm Cache Partition</text>
</g>
<!-- coordinator&#45;&gt;work -->
<g id="edge7" class="edge">
<title>coordinator&#45;&gt;work</title>
<path fill="none" stroke="#758297" d="M511.75,-40.9C511.75,-29.91 511.75,-18 511.75,-18 511.75,-18 658.79,-18 658.79,-18"/>
<polygon fill="#758297" stroke="#758297" points="658.79,-21.5 668.79,-18 658.79,-14.5 658.79,-21.5"/>
<text xml:space="preserve" text-anchor="middle" x="603.75" y="-29.5" font-family="Comic Mono" font-size="10.00">success</text>
</g>
<!-- backend -->
<g id="node5" class="node">
<title>backend</title>
<path fill="#f8fafc" stroke="#94a3b8" d="M1079,-128C1079,-128 974.5,-128 974.5,-128 968.5,-128 962.5,-122 962.5,-116 962.5,-116 962.5,-104 962.5,-104 962.5,-98 968.5,-92 974.5,-92 974.5,-92 1079,-92 1079,-92 1085,-92 1091,-98 1091,-104 1091,-104 1091,-116 1091,-116 1091,-122 1085,-128 1079,-128"/>
<text xml:space="preserve" text-anchor="middle" x="1026.75" y="-104.58" font-family="Comic Mono" font-size="14.00">partition locks</text>
</g>
<!-- recovery -->
<g id="node7" class="node">
<title>recovery</title>
<path fill="#f8fafc" stroke="#94a3b8" d="M1392.75,-128C1392.75,-128 1205.75,-128 1205.75,-128 1199.75,-128 1193.75,-122 1193.75,-116 1193.75,-116 1193.75,-104 1193.75,-104 1193.75,-98 1199.75,-92 1205.75,-92 1205.75,-92 1392.75,-92 1392.75,-92 1398.75,-92 1404.75,-98 1404.75,-104 1404.75,-104 1404.75,-116 1404.75,-116 1404.75,-122 1398.75,-128 1392.75,-128"/>
<text xml:space="preserve" text-anchor="middle" x="1299.25" y="-104.58" font-family="Comic Mono" font-size="14.00">Failed Partition Isolation</text>
</g>
<!-- backend&#45;&gt;recovery -->
<g id="edge8" class="edge">
<title>backend&#45;&gt;recovery</title>
<path fill="none" stroke="#758297" d="M1091.33,-110C1091.33,-110 1181.82,-110 1181.82,-110"/>
<polygon fill="#758297" stroke="#758297" points="1181.82,-113.5 1191.82,-110 1181.82,-106.5 1181.82,-113.5"/>
<text xml:space="preserve" text-anchor="middle" x="1142.38" y="-112.5" font-family="Comic Mono" font-size="10.00">release</text>
</g>
<!-- elector&#45;&gt;backend -->
<g id="edge6" class="edge">
<title>elector&#45;&gt;backend</title>
<path fill="none" stroke="#758297" d="M844.49,-110C844.49,-110 950.54,-110 950.54,-110"/>
<polygon fill="#758297" stroke="#758297" points="950.54,-113.5 960.54,-110 950.54,-106.5 950.54,-113.5"/>
<text xml:space="preserve" text-anchor="middle" x="903.25" y="-112.5" font-family="Comic Mono" font-size="10.00">contention</text>
</g>
</g>
</svg>
