<?xml version="1.0" encoding="UTF-8" standalone="no"?>
<!DOCTYPE svg PUBLIC "-//W3C//DTD SVG 1.1//EN"
 "http://www.w3.org/Graphics/SVG/1.1/DTD/svg11.dtd">
<!-- Generated by graphviz version 15.0.0 (20260523.1842)
 -->
<!-- Title: examples&#45;dynamodb&#45;export&#45;scenario&#45;01 Pages: 1 -->
<svg width="823pt" height="210pt"
 viewBox="0.00 0.00 823.00 210.00" xmlns="http://www.w3.org/2000/svg" xmlns:xlink="http://www.w3.org/1999/xlink">
<g id="graph0" class="graph" transform="scale(1 1) rotate(0) translate(4 206)">
<title>examples&#45;dynamodb&#45;export&#45;scenario&#45;01</title>
<!-- tick -->
<g id="node1" class="node">
<title>tick</title>
<path fill="#f8fafc" stroke="#94a3b8" d="M109,-119C109,-119 12,-119 12,-119 6,-119 0,-113 0,-107 0,-107 0,-95 0,-95 0,-89 6,-83 12,-83 12,-83 109,-83 109,-83 115,-83 121,-89 121,-95 121,-95 121,-107 121,-107 121,-113 115,-119 109,-119"/>
<text xml:space="preserve" text-anchor="middle" x="60.5" y="-95.58" font-family="Comic Mono" font-size="14.00">Export Request</text>
</g>
<!-- nodeA -->
<g id="node2" class="node">
<title>nodeA</title>
<path fill="#f8fafc" stroke="#94a3b8" d="M294.5,-202C294.5,-202 220,-202 220,-202 214,-202 208,-196 208,-190 208,-190 208,-178 208,-178 208,-172 214,-166 220,-166 220,-166 294.5,-166 294.5,-166 300.5,-166 306.5,-172 306.5,-178 306.5,-178 306.5,-190 306.5,-190 306.5,-196 300.5,-202 294.5,-202"/>
<text xml:space="preserve" text-anchor="middle" x="257.25" y="-178.57" font-family="Comic Mono" font-size="14.00">Candidate A</text>
</g>
<!-- tick&#45;&gt;nodeA -->
<g id="edge1" class="edge">
<title>tick&#45;&gt;nodeA</title>
<path fill="none" stroke="#758297" d="M60.75,-119.42C60.75,-143.87 60.75,-184 60.75,-184 60.75,-184 196.15,-184 196.15,-184"/>
<polygon fill="#758297" stroke="#758297" points="196.15,-187.5 206.15,-184 196.15,-180.5 196.15,-187.5"/>
<text xml:space="preserve" text-anchor="middle" x="164.5" y="-176.5" font-family="Comic Mono" font-size="10.00">call</text>
</g>
<!-- nodeB -->
<g id="node3" class="node">
<title>nodeB</title>
<path fill="#f8fafc" stroke="#94a3b8" d="M294.5,-119C294.5,-119 220,-119 220,-119 214,-119 208,-113 208,-107 208,-107 208,-95 208,-95 208,-89 214,-83 220,-83 220,-83 294.5,-83 294.5,-83 300.5,-83 306.5,-89 306.5,-95 306.5,-95 306.5,-107 306.5,-107 306.5,-113 300.5,-119 294.5,-119"/>
<text xml:space="preserve" text-anchor="middle" x="257.25" y="-95.58" font-family="Comic Mono" font-size="14.00">Candidate B</text>
</g>
<!-- tick&#45;&gt;nodeB -->
<g id="edge2" class="edge">
<title>tick&#45;&gt;nodeB</title>
<path fill="none" stroke="#758297" d="M121.41,-101C121.41,-101 196,-101 196,-101"/>
<polygon fill="#758297" stroke="#758297" points="196,-104.5 206,-101 196,-97.5 196,-104.5"/>
<text xml:space="preserve" text-anchor="middle" x="164.5" y="-103.5" font-family="Comic Mono" font-size="10.00">call</text>
</g>
<!-- nodeC -->
<g id="node4" class="node">
<title>nodeC</title>
<path fill="#f8fafc" stroke="#94a3b8" d="M294.5,-36C294.5,-36 220,-36 220,-36 214,-36 208,-30 208,-24 208,-24 208,-12 208,-12 208,-6 214,0 220,0 220,0 294.5,0 294.5,0 300.5,0 306.5,-6 306.5,-12 306.5,-12 306.5,-24 306.5,-24 306.5,-30 300.5,-36 294.5,-36"/>
<text xml:space="preserve" text-anchor="middle" x="257.25" y="-12.57" font-family="Comic Mono" font-size="14.00">Candidate C</text>
</g>
<!-- tick&#45;&gt;nodeC -->
<g id="edge3" class="edge">
<title>tick&#45;&gt;nodeC</title>
<path fill="none" stroke="#758297" d="M60.75,-82.58C60.75,-58.13 60.75,-18 60.75,-18 60.75,-18 196.15,-18 196.15,-18"/>
<polygon fill="#758297" stroke="#758297" points="196.15,-21.5 206.15,-18 196.15,-14.5 196.15,-21.5"/>
<text xml:space="preserve" text-anchor="middle" x="164.5" y="-30.5" font-family="Comic Mono" font-size="10.00">call</text>
</g>
<!-- backend -->
<g id="node5" class="node">
<title>backend</title>
<path fill="#f8fafc" stroke="#94a3b8" d="M534,-119C534,-119 437,-119 437,-119 431,-119 425,-113 425,-107 425,-107 425,-95 425,-95 425,-89 431,-83 437,-83 437,-83 534,-83 534,-83 540,-83 546,-89 546,-95 546,-95 546,-107 546,-107 546,-113 540,-119 534,-119"/>
<text xml:space="preserve" text-anchor="middle" x="485.5" y="-95.58" font-family="Comic Mono" font-size="14.00">lock table row</text>
</g>
<!-- nodeA&#45;&gt;backend -->
<g id="edge4" class="edge">
<title>nodeA&#45;&gt;backend</title>
<path fill="none" stroke="#758297" d="M306.83,-184C374.03,-184 485.75,-184 485.75,-184 485.75,-184 485.75,-130.93 485.75,-130.93"/>
<polygon fill="#758297" stroke="#758297" points="489.25,-130.93 485.75,-120.93 482.25,-130.93 489.25,-130.93"/>
<text xml:space="preserve" text-anchor="middle" x="365.75" y="-176.5" font-family="Comic Mono" font-size="10.00">contention</text>
</g>
<!-- nodeB&#45;&gt;backend -->
<g id="edge5" class="edge">
<title>nodeB&#45;&gt;backend</title>
<path fill="none" stroke="#758297" d="M306.78,-101C306.78,-101 413.18,-101 413.18,-101"/>
<polygon fill="#758297" stroke="#758297" points="413.18,-104.5 423.18,-101 413.18,-97.5 413.18,-104.5"/>
<text xml:space="preserve" text-anchor="middle" x="365.75" y="-103.5" font-family="Comic Mono" font-size="10.00">contention</text>
</g>
<!-- nodeC&#45;&gt;backend -->
<g id="edge6" class="edge">
<title>nodeC&#45;&gt;backend</title>
<path fill="none" stroke="#758297" d="M306.83,-18C374.03,-18 485.75,-18 485.75,-18 485.75,-18 485.75,-71.07 485.75,-71.07"/>
<polygon fill="#758297" stroke="#758297" points="482.25,-71.07 485.75,-81.07 489.25,-71.07 482.25,-71.07"/>
<text xml:space="preserve" text-anchor="middle" x="365.75" y="-30.5" font-family="Comic Mono" font-size="10.00">contention</text>
</g>
<!-- recovery -->
<g id="node6" class="node">
<title>recovery</title>
<path fill="#f8fafc" stroke="#94a3b8" d="M802.75,-202C802.75,-202 660.75,-202 660.75,-202 654.75,-202 648.75,-196 648.75,-190 648.75,-190 648.75,-178 648.75,-178 648.75,-172 654.75,-166 660.75,-166 660.75,-166 802.75,-166 802.75,-166 808.75,-166 814.75,-172 814.75,-178 814.75,-178 814.75,-190 814.75,-190 814.75,-196 808.75,-202 802.75,-202"/>
<text xml:space="preserve" text-anchor="middle" x="731.75" y="-178.57" font-family="Comic Mono" font-size="14.00">Logical Lease Expiry</text>
</g>
<!-- backend&#45;&gt;recovery -->
<g id="edge9" class="edge">
<title>backend&#45;&gt;recovery</title>
<path fill="none" stroke="#758297" d="M546.23,-110C595.82,-110 657.75,-110 657.75,-110 657.75,-110 657.75,-154.19 657.75,-154.19"/>
<polygon fill="#758297" stroke="#758297" points="654.25,-154.19 657.75,-164.19 661.25,-154.19 654.25,-154.19"/>
<text xml:space="preserve" text-anchor="middle" x="597.38" y="-186.5" font-family="Comic Mono" font-size="10.00">release</text>
</g>
<!-- skipped -->
<g id="node7" class="node">
<title>skipped</title>
<path fill="#f8fafc" stroke="#94a3b8" d="M765.25,-119C765.25,-119 698.25,-119 698.25,-119 692.25,-119 686.25,-113 686.25,-107 686.25,-107 686.25,-95 686.25,-95 686.25,-89 692.25,-83 698.25,-83 698.25,-83 765.25,-83 765.25,-83 771.25,-83 777.25,-89 777.25,-95 777.25,-95 777.25,-107 777.25,-107 777.25,-113 771.25,-119 765.25,-119"/>
<text xml:space="preserve" text-anchor="middle" x="731.75" y="-95.58" font-family="Comic Mono" font-size="14.00">Peers Skip</text>
</g>
<!-- backend&#45;&gt;skipped -->
<g id="edge8" class="edge">
<title>backend&#45;&gt;skipped</title>
<path fill="none" stroke="#758297" d="M546.37,-101C546.37,-101 674.36,-101 674.36,-101"/>
<polygon fill="#758297" stroke="#758297" points="674.36,-104.5 684.36,-101 674.36,-97.5 674.36,-104.5"/>
<text xml:space="preserve" text-anchor="middle" x="597.38" y="-103.5" font-family="Comic Mono" font-size="10.00">skip</text>
</g>
<!-- leader -->
<g id="node8" class="node">
<title>leader</title>
<path fill="#f8fafc" stroke="#94a3b8" d="M784,-36C784,-36 679.5,-36 679.5,-36 673.5,-36 667.5,-30 667.5,-24 667.5,-24 667.5,-12 667.5,-12 667.5,-6 673.5,0 679.5,0 679.5,0 784,0 784,0 790,0 796,-6 796,-12 796,-12 796,-24 796,-24 796,-30 790,-36 784,-36"/>
<text xml:space="preserve" text-anchor="middle" x="731.75" y="-12.57" font-family="Comic Mono" font-size="14.00">One Leader Runs</text>
</g>
<!-- backend&#45;&gt;leader -->
<g id="edge7" class="edge">
<title>backend&#45;&gt;leader</title>
<path fill="none" stroke="#758297" d="M546.28,-92C602.28,-92 676.75,-92 676.75,-92 676.75,-92 676.75,-47.81 676.75,-47.81"/>
<polygon fill="#758297" stroke="#758297" points="680.25,-47.81 676.75,-37.81 673.25,-47.81 680.25,-47.81"/>
<text xml:space="preserve" text-anchor="middle" x="597.38" y="-20.5" font-family="Comic Mono" font-size="10.00">success</text>
</g>
</g>
</svg>
