<svg xmlns="http://www.w3.org/2000/svg" width="2296" height="1702" viewBox="0 0 2296 1702" role="img" aria-label="ktor app Sequence Flow">
<defs>
  <filter id="shadow" x="-8%" y="-8%" width="116%" height="116%"><feDropShadow dx="0" dy="8" stdDeviation="9" flood-color="#1f2937" flood-opacity="0.10"/></filter>
  <marker id="openArrow" markerWidth="12" markerHeight="10" refX="10" refY="5" orient="auto" markerUnits="strokeWidth"><path d="M 1 1 L 10 5 L 1 9" fill="none" stroke="#758297" stroke-width="1.8" stroke-linecap="round" stroke-linejoin="round"/></marker>
  <marker id="inherit" markerWidth="14" markerHeight="12" refX="12" refY="6" orient="auto" markerUnits="strokeWidth"><path d="M 0 1 L 12 6 L 0 11 Z" fill="#ffffff" stroke="#758297" stroke-width="1.8"/></marker>
  <style>
    .canvas{fill:#f7f9fc}.frame{fill:#fff;stroke:#d8e0ea;stroke-width:1.5}
    .title{font-family:"Architects Daughter","Comic Sans MS","Comic Sans",cursive;font-size:43px;font-weight:400;fill:#102033}
    .subtitle{font-family:"Comic Sans MS","Comic Sans","Comic Neue",Arial,sans-serif;font-size:15px;font-weight:400;fill:#536273}
    .label{font-family:"Architects Daughter","Comic Sans MS","Comic Sans",cursive;font-size:25px;font-weight:400;fill:#102033}
    .smallLabel{font-family:"Architects Daughter","Comic Sans MS","Comic Sans",cursive;font-size:21px;font-weight:400;fill:#102033}
    .mono{font-family:"Comic Sans MS","Comic Sans","Comic Neue",Arial,sans-serif;font-size:12px;font-weight:400;fill:#102033}
    .small{font-family:"Comic Sans MS","Comic Sans","Comic Neue",Arial,sans-serif;font-size:12px;font-weight:400;fill:#536273}
    .strong{font-family:"Comic Sans MS","Comic Sans","Comic Neue",Arial,sans-serif;font-size:13px;font-weight:400;fill:#102033}
    .card{stroke-width:2.1;filter:url(#shadow)}.compartment{stroke-width:1.5;fill:none}
    .line{stroke:#758297;stroke-width:2.1;fill:none;marker-end:url(#openArrow)}
    .plainLine{stroke:#758297;stroke-width:2.1;fill:none}
    .dashed{stroke:#758297;stroke-width:2.1;stroke-dasharray:7 6;fill:none;marker-end:url(#openArrow)}
    .inheritLine{stroke:#758297;stroke-width:2.2;fill:none;marker-end:url(#inherit)}
    .implLine{stroke:#758297;stroke-width:2.2;stroke-dasharray:8 7;fill:none;marker-end:url(#inherit)}
  </style>
</defs>
<rect class="canvas" width="2296" height="1702"/>
<rect class="frame" x="32" y="28" width="2232" height="1646" rx="28"/>
<text class="title" x="66" y="82">ktor app Sequence Flow</text>
<text class="subtitle" x="70" y="118">Sequence messages from the original Mermaid source</text>
<rect class="card" x="-10" y="166" width="300" height="72" rx="20" fill="#E8F3FF" stroke="#5B8DEF"/>
<text class="smallLabel" x="140" y="209" text-anchor="middle">Client</text>
<line class="lifeline" x1="140" y1="252" x2="140" y2="1642" stroke="#b7c2d1" stroke-width="2" stroke-dasharray="10 10"/>
<rect class="card" x="393.20000000000005" y="166" width="300" height="72" rx="20" fill="#EAF7EF" stroke="#58A978"/>
<text class="smallLabel" x="543.2" y="209" text-anchor="middle">Ktor Node-1</text>
<line class="lifeline" x1="543.2" y1="252" x2="543.2" y2="1642" stroke="#b7c2d1" stroke-width="2" stroke-dasharray="10 10"/>
<rect class="card" x="796.4" y="166" width="300" height="72" rx="20" fill="#FFF3D9" stroke="#D6A441"/>
<text class="smallLabel" x="946.4" y="209" text-anchor="middle">Ktor Node-2</text>
<line class="lifeline" x1="946.4" y1="252" x2="946.4" y2="1642" stroke="#b7c2d1" stroke-width="2" stroke-dasharray="10 10"/>
<rect class="card" x="1199.6" y="166" width="300" height="72" rx="20" fill="#FDECEF" stroke="#DC6B82"/>
<text class="smallLabel" x="1349.6" y="198.5" text-anchor="middle">Leader Election</text>
<text class="smallLabel" x="1349.6" y="219.5" text-anchor="middle">Plugin</text>
<line class="lifeline" x1="1349.6" y1="252" x2="1349.6" y2="1642" stroke="#b7c2d1" stroke-width="2" stroke-dasharray="10 10"/>
<rect class="card" x="1602.8" y="166" width="300" height="72" rx="20" fill="#E9F7F6" stroke="#45A7A1"/>
<text class="smallLabel" x="1752.8" y="209" text-anchor="middle">StatsAggregator</text>
<line class="lifeline" x1="1752.8" y1="252" x2="1752.8" y2="1642" stroke="#b7c2d1" stroke-width="2" stroke-dasharray="10 10"/>
<rect class="card" x="2006" y="166" width="300" height="72" rx="20" fill="#F1ECFF" stroke="#8A72D6"/>
<text class="smallLabel" x="2156" y="209" text-anchor="middle">Redis</text>
<line class="lifeline" x1="2156" y1="252" x2="2156" y2="1642" stroke="#b7c2d1" stroke-width="2" stroke-dasharray="10 10"/>
<rect x="694.4" y="286" width="504" height="40" rx="12" fill="#ffffff" opacity="0.97"/>
<text class="strong" x="712.4" y="313" text-anchor="start">1. install + leaderScheduled(hourly-stats-aggregation, 1h)</text>
<path class="line" d="M543.2 344 L1349.6 344"/>
<rect x="896" y="396" width="504" height="40" rx="12" fill="#ffffff" opacity="0.97"/>
<text class="strong" x="914" y="423" text-anchor="start">2. install + leaderScheduled(hourly-stats-aggregation, 1h)</text>
<path class="line" d="M946.4 454 L1349.6 454"/>
<rect x="70" y="506" width="2156" height="40" rx="16" fill="#F7F1E7" stroke="#B88A44" stroke-width="1.6" opacity="0.96"/>
<text class="strong" x="92" y="533" text-anchor="start">PAR: Cycle 1</text>
<rect x="1166.1" y="574" width="367" height="40" rx="12" fill="#ffffff" opacity="0.97"/>
<text class="strong" x="1184.1" y="601" text-anchor="start">4. SET hourly-stats-aggregation NX EX 60s</text>
<path class="line" d="M543.2 632 L2156 632"/>
<rect x="70" y="684" width="2156" height="40" rx="16" fill="#F7F1E7" stroke="#B88A44" stroke-width="1.6" opacity="0.96"/>
<text class="strong" x="92" y="711" text-anchor="start">AND: and</text>
<rect x="1367.7" y="752" width="367" height="40" rx="12" fill="#ffffff" opacity="0.97"/>
<text class="strong" x="1385.7" y="779" text-anchor="start">6. SET hourly-stats-aggregation NX EX 60s</text>
<path class="line" d="M946.4 810 L2156 810"/>
<rect x="1244.6" y="862" width="210" height="40" rx="12" fill="#ffffff" opacity="0.97"/>
<text class="strong" x="1262.6" y="889" text-anchor="start">7. OK (leader)</text>
<path class="dashed" d="M2156 920 L543.2 920"/>
<rect x="1446.2" y="972" width="210" height="40" rx="12" fill="#ffffff" opacity="0.97"/>
<text class="strong" x="1464.2" y="999" text-anchor="start">8. nil (skip)</text>
<path class="dashed" d="M2156 1030 L946.4 1030"/>
<rect x="1043" y="1082" width="210" height="40" rx="12" fill="#ffffff" opacity="0.97"/>
<text class="strong" x="1061" y="1109" text-anchor="start">9. aggregate()</text>
<path class="line" d="M543.2 1140 L1752.8 1140"/>
<rect x="236.60000000000002" y="1192" width="210" height="40" rx="12" fill="#ffffff" opacity="0.97"/>
<text class="strong" x="254.60000000000002" y="1219" text-anchor="start">10. GET /stats</text>
<path class="line" d="M140 1250 L543.2 1250"/>
<rect x="222.60000000000002" y="1302" width="238" height="40" rx="12" fill="#ffffff" opacity="0.97"/>
<text class="strong" x="240.60000000000002" y="1329" text-anchor="start">11. {runCount, lastRunAt}</text>
<path class="dashed" d="M543.2 1360 L140 1360"/>
<rect x="438.20000000000005" y="1412" width="210" height="40" rx="12" fill="#ffffff" opacity="0.97"/>
<text class="strong" x="456.20000000000005" y="1439" text-anchor="start">12. GET /health</text>
<path class="line" d="M140 1470 L946.4 1470"/>
<rect x="438.20000000000005" y="1522" width="210" height="40" rx="12" fill="#ffffff" opacity="0.97"/>
<text class="strong" x="456.20000000000005" y="1549" text-anchor="start">13. {status: UP}</text>
<path class="dashed" d="M946.4 1580 L140 1580"/>
</svg>
