<?xml version="1.0" encoding="UTF-8" standalone="no"?>
<!DOCTYPE svg PUBLIC "-//W3C//DTD SVG 1.1//EN"
 "http://www.w3.org/Graphics/SVG/1.1/DTD/svg11.dtd">
<!-- Generated by graphviz version 15.0.0 (20260523.1842)
 -->
<!-- Title: examples&#45;rate&#45;limiter&#45;sequence&#45;01 Pages: 1 -->
<svg width="1347pt" height="503pt"
 viewBox="0.00 0.00 1347.00 503.00" xmlns="http://www.w3.org/2000/svg" xmlns:xlink="http://www.w3.org/1999/xlink">
<g id="graph0" class="graph" transform="scale(1 1) rotate(0) translate(4 499)">
<title>examples&#45;rate&#45;limiter&#45;sequence&#45;01</title>
<!-- trigger -->
<g id="node1" class="node">
<title>trigger</title>
<path fill="#f8fafc" stroke="#94a3b8" d="M116.5,-58C116.5,-58 12,-58 12,-58 6,-58 0,-52 0,-46 0,-46 0,-34 0,-34 0,-28 6,-22 12,-22 12,-22 116.5,-22 116.5,-22 122.5,-22 128.5,-28 128.5,-34 128.5,-34 128.5,-46 128.5,-46 128.5,-52 122.5,-58 116.5,-58"/>
<text xml:space="preserve" text-anchor="middle" x="64.25" y="-34.58" font-family="Comic Mono" font-size="14.00">Dispatch Window</text>
</g>
<!-- coord -->
<g id="node2" class="node">
<title>coord</title>
<path fill="#f8fafc" stroke="#94a3b8" d="M481.25,-150C481.25,-150 316.75,-150 316.75,-150 310.75,-150 304.75,-144 304.75,-138 304.75,-138 304.75,-126 304.75,-126 304.75,-120 310.75,-114 316.75,-114 316.75,-114 481.25,-114 481.25,-114 487.25,-114 493.25,-120 493.25,-126 493.25,-126 493.25,-138 493.25,-138 493.25,-144 487.25,-150 481.25,-150"/>
<text xml:space="preserve" text-anchor="middle" x="399" y="-126.58" font-family="Comic Mono" font-size="14.00">LeaderDispatchScheduler</text>
</g>
<!-- trigger&#45;&gt;coord -->
<g id="edge1" class="edge">
<title>trigger&#45;&gt;coord</title>
<path fill="none" stroke="#4f83bf" d="M64,-58.18C64,-84.99 64,-132 64,-132 64,-132 295.83,-132 295.83,-132"/>
<polygon fill="#4f83bf" stroke="#4f83bf" points="295.83,-134.45 302.83,-132 295.83,-129.55 295.83,-134.45"/>
<text xml:space="preserve" text-anchor="middle" x="216.62" y="-89.5" font-family="Comic Mono" font-size="10.00">start dispatch window</text>
</g>
<!-- elector -->
<g id="node3" class="node">
<title>elector</title>
<path fill="#f8fafc" stroke="#94a3b8" d="M912.75,-266C912.75,-266 770.75,-266 770.75,-266 764.75,-266 758.75,-260 758.75,-254 758.75,-254 758.75,-242 758.75,-242 758.75,-236 764.75,-230 770.75,-230 770.75,-230 912.75,-230 912.75,-230 918.75,-230 924.75,-236 924.75,-242 924.75,-242 924.75,-254 924.75,-254 924.75,-260 918.75,-266 912.75,-266"/>
<text xml:space="preserve" text-anchor="middle" x="841.75" y="-242.57" font-family="Comic Mono" font-size="14.00">Redis Leader Elector</text>
</g>
<!-- coord&#45;&gt;elector -->
<g id="edge2" class="edge">
<title>coord&#45;&gt;elector</title>
<path fill="none" stroke="#4f83bf" d="M493.69,-132C616.17,-132 814,-132 814,-132 814,-132 814,-221.11 814,-221.11"/>
<polygon fill="#4f83bf" stroke="#4f83bf" points="811.55,-221.11 814,-228.11 816.45,-221.11 811.55,-221.11"/>
<text xml:space="preserve" text-anchor="middle" x="626" y="-211.5" font-family="Comic Mono" font-size="10.00">runIfLeader with source options</text>
</g>
<!-- backend -->
<g id="node4" class="node">
<title>backend</title>
<path fill="#f8fafc" stroke="#94a3b8" d="M1315.75,-400C1315.75,-400 1218.75,-400 1218.75,-400 1212.75,-400 1206.75,-394 1206.75,-388 1206.75,-388 1206.75,-376 1206.75,-376 1206.75,-370 1212.75,-364 1218.75,-364 1218.75,-364 1315.75,-364 1315.75,-364 1321.75,-364 1327.75,-370 1327.75,-376 1327.75,-376 1327.75,-388 1327.75,-388 1327.75,-394 1321.75,-400 1315.75,-400"/>
<text xml:space="preserve" text-anchor="middle" x="1267.25" y="-376.57" font-family="Comic Mono" font-size="14.00">Bucket4j quota</text>
</g>
<!-- elector&#45;&gt;backend -->
<g id="edge3" class="edge">
<title>elector&#45;&gt;backend</title>
<path fill="none" stroke="#b9851b" d="M925.02,-250.57C1051.89,-250.57 1279,-250.57 1279,-250.57 1279,-250.57 1279,-355.21 1279,-355.21"/>
<polygon fill="#b9851b" stroke="#b9851b" points="1276.55,-355.21 1279,-362.21 1281.45,-355.21 1276.55,-355.21"/>
<text xml:space="preserve" text-anchor="middle" x="1060.12" y="-485.5" font-family="Comic Mono" font-size="10.00">attempt backend ownership</text>
</g>
<!-- elector&#45;&gt;backend -->
<g id="edge7" class="edge">
<title>elector&#45;&gt;backend</title>
<path fill="none" stroke="#755bc6" d="M925.19,-245.43C1058.34,-245.43 1304,-245.43 1304,-245.43 1304,-245.43 1304,-355.07 1304,-355.07"/>
<polygon fill="#755bc6" stroke="#755bc6" points="1301.55,-355.07 1304,-362.07 1306.45,-355.07 1301.55,-355.07"/>
<text xml:space="preserve" text-anchor="middle" x="1060.12" y="-418.5" font-family="Comic Mono" font-size="10.00">release or renew for quota window reset</text>
</g>
<!-- work -->
<g id="node5" class="node">
<title>work</title>
<path fill="#f8fafc" stroke="#94a3b8" d="M1327,-200C1327,-200 1207.5,-200 1207.5,-200 1201.5,-200 1195.5,-194 1195.5,-188 1195.5,-188 1195.5,-176 1195.5,-176 1195.5,-170 1201.5,-164 1207.5,-164 1207.5,-164 1327,-164 1327,-164 1333,-164 1339,-170 1339,-176 1339,-176 1339,-188 1339,-188 1339,-194 1333,-200 1327,-200"/>
<text xml:space="preserve" text-anchor="middle" x="1267.25" y="-176.57" font-family="Comic Mono" font-size="14.00">Call External API</text>
</g>
<!-- elector&#45;&gt;work -->
<g id="edge5" class="edge">
<title>elector&#45;&gt;work</title>
<path fill="none" stroke="#3e9868" d="M925.08,-240.29C1031.77,-240.29 1203,-240.29 1203,-240.29 1203,-240.29 1203,-208.96 1203,-208.96"/>
<polygon fill="#3e9868" stroke="#3e9868" points="1205.45,-208.96 1203,-201.96 1200.55,-208.96 1205.45,-208.96"/>
<text xml:space="preserve" text-anchor="middle" x="1060.12" y="-217.5" font-family="Comic Mono" font-size="10.00">execute call external API</text>
</g>
<!-- peer -->
<g id="node6" class="node">
<title>peer</title>
<path fill="#f8fafc" stroke="#94a3b8" d="M1308.25,-59C1308.25,-59 1226.25,-59 1226.25,-59 1220.25,-59 1214.25,-53 1214.25,-47 1214.25,-47 1214.25,-35 1214.25,-35 1214.25,-29 1220.25,-23 1226.25,-23 1226.25,-23 1308.25,-23 1308.25,-23 1314.25,-23 1320.25,-29 1320.25,-35 1320.25,-35 1320.25,-47 1320.25,-47 1320.25,-53 1314.25,-59 1308.25,-59"/>
<text xml:space="preserve" text-anchor="middle" x="1267.25" y="-35.58" font-family="Comic Mono" font-size="14.00">Skipped Peer</text>
</g>
<!-- elector&#45;&gt;peer -->
<g id="edge9" class="edge">
<title>elector&#45;&gt;peer</title>
<path fill="none" stroke="#c94d68" d="M869,-229.75C869,-180.11 869,-46.33 869,-46.33 869,-46.33 1205.44,-46.33 1205.44,-46.33"/>
<polygon fill="#c94d68" stroke="#c94d68" points="1205.44,-48.78 1212.44,-46.33 1205.44,-43.88 1205.44,-48.78"/>
<text xml:space="preserve" text-anchor="middle" x="1060.12" y="-83.5" font-family="Comic Mono" font-size="10.00">return skipped result</text>
</g>
<!-- backend&#45;&gt;elector -->
<g id="edge4" class="edge">
<title>backend&#45;&gt;elector</title>
<path fill="none" stroke="#3e9868" d="M1231,-363.6C1231,-329.71 1231,-260.86 1231,-260.86 1231,-260.86 933.29,-260.86 933.29,-260.86"/>
<polygon fill="#3e9868" stroke="#3e9868" points="933.29,-258.41 926.29,-260.86 933.29,-263.31 933.29,-258.41"/>
<text xml:space="preserve" text-anchor="middle" x="1060.12" y="-351.5" font-family="Comic Mono" font-size="10.00">owner token accepted</text>
</g>
<!-- backend&#45;&gt;elector -->
<g id="edge8" class="edge">
<title>backend&#45;&gt;elector</title>
<path fill="none" stroke="#c94d68" d="M1255,-363.64C1255,-328.61 1255,-255.71 1255,-255.71 1255,-255.71 933.39,-255.71 933.39,-255.71"/>
<polygon fill="#c94d68" stroke="#c94d68" points="933.39,-253.26 926.39,-255.71 933.39,-258.16 933.39,-253.26"/>
<text xml:space="preserve" text-anchor="middle" x="1060.12" y="-284.5" font-family="Comic Mono" font-size="10.00">lock already owned</text>
</g>
<!-- work&#45;&gt;elector -->
<g id="edge6" class="edge">
<title>work&#45;&gt;elector</title>
<path fill="none" stroke="#3e9868" d="M1199,-200.29C1199,-215.66 1199,-235.14 1199,-235.14 1199,-235.14 933.57,-235.14 933.57,-235.14"/>
<polygon fill="#3e9868" stroke="#3e9868" points="933.57,-232.69 926.57,-235.14 933.57,-237.59 933.57,-232.69"/>
<text xml:space="preserve" text-anchor="middle" x="1060.12" y="-150.5" font-family="Comic Mono" font-size="10.00">return leader result</text>
</g>
<!-- peer&#45;&gt;trigger -->
<g id="edge10" class="edge">
<title>peer&#45;&gt;trigger</title>
<path fill="none" stroke="#c94d68" d="M1214.01,-34.67C1214.01,-34.67 137.49,-34.67 137.49,-34.67"/>
<polygon fill="#c94d68" stroke="#c94d68" points="137.49,-32.22 130.49,-34.67 137.49,-37.12 137.49,-32.22"/>
<text xml:space="preserve" text-anchor="middle" x="626" y="-2.5" font-family="Comic Mono" font-size="10.00">cycle completes without duplicate work</text>
</g>
</g>
</svg>
