<svg xmlns="http://www.w3.org/2000/svg" width="1540" height="1312" viewBox="0 0 1540 1312" role="img" aria-label="Prometheus Dashboard Sequence Flow">
  <metadata id="graphviz-evidence">Regenerated with Graphviz evidence: examples-prometheus-dashboard-sequence-01.dot, examples-prometheus-dashboard-sequence-01.plain, examples-prometheus-dashboard-sequence-01-graphviz.svg via scripts/regenerate-readme-diagram-graphviz-evidence.mjs.</metadata>
<defs>
  <filter id="shadow" x="-8%" y="-8%" width="116%" height="116%"><feDropShadow dx="0" dy="8" stdDeviation="9" flood-color="#1f2937" flood-opacity="0.10"/></filter>
  <marker id="openArrow" markerWidth="12" markerHeight="10" refX="10" refY="5" orient="auto" markerUnits="strokeWidth"><path d="M 1 1 L 10 5 L 1 9" fill="none" stroke="#758297" stroke-width="1.8" stroke-linecap="round" stroke-linejoin="round"/></marker>
  <style>
    .canvas{fill:#f7f9fc}.frame{fill:#fff;stroke:#d8e0ea;stroke-width:1.5}
    .title{font-family:"Architects Daughter","Comic Mono","Comic Sans MS","Comic Sans",cursive;font-size:43px;font-weight:400;fill:#102033}
    .subtitle{font-family:"Comic Mono","Comic Sans MS","Comic Sans","Comic Neue",Arial,sans-serif;font-size:15px;font-weight:400;fill:#536273}
    .smallLabel{font-family:"Architects Daughter","Comic Mono","Comic Sans MS","Comic Sans",cursive;font-size:21px;font-weight:400;fill:#102033}
    .mono{font-family:"Comic Mono","Comic Sans MS","Comic Sans","Comic Neue",Arial,sans-serif;font-size:12px;font-weight:400;fill:#102033}
    .strong{font-family:"Comic Mono","Comic Sans MS","Comic Sans","Comic Neue",Arial,sans-serif;font-size:13px;font-weight:400;fill:#102033}
    .card{stroke-width:2.1;filter:url(#shadow)}
    .line{stroke:#758297;stroke-width:2.1;fill:none;marker-end:url(#openArrow)}
    .dashed{stroke:#758297;stroke-width:2.1;stroke-dasharray:7 6;fill:none;marker-end:url(#openArrow)}
    .lifeline{stroke:#b7c2d1;stroke-width:2;stroke-dasharray:10 10}
  </style>
</defs>
<rect class="canvas" width="1540" height="1312"/>
<rect class="frame" x="32" y="28" width="1476" height="1256" rx="28"/>
<text class="title" x="66" y="82">Prometheus Dashboard Sequence Flow</text>
<text class="subtitle" x="70" y="118">The proxied leader job records Micrometer metrics before Prometheus and Grafana read them</text>
<rect class="card" x="110" y="166" width="210" height="72" rx="12" fill="#E8F3FF" stroke="#5B8DEF"/>
<text class="smallLabel" x="215" y="209" text-anchor="middle">Scheduler</text>
<line class="lifeline" x1="215" y1="252" x2="215" y2="1252"/>
<rect class="card" x="332" y="166" width="210" height="72" rx="12" fill="#EAF7EF" stroke="#58A978"/>
<text class="smallLabel" x="437" y="209" text-anchor="middle">Job bean</text>
<line class="lifeline" x1="437" y1="252" x2="437" y2="1252"/>
<rect class="card" x="554" y="166" width="210" height="72" rx="12" fill="#FFF3D9" stroke="#D6A441"/>
<text class="smallLabel" x="659" y="209" text-anchor="middle">Redis lock</text>
<line class="lifeline" x1="659" y1="252" x2="659" y2="1252"/>
<rect class="card" x="776" y="166" width="210" height="72" rx="12" fill="#FDECEF" stroke="#DC6B82"/>
<text class="smallLabel" x="881" y="209" text-anchor="middle">Micrometer</text>
<line class="lifeline" x1="881" y1="252" x2="881" y2="1252"/>
<rect class="card" x="998" y="166" width="210" height="72" rx="12" fill="#E9F7F6" stroke="#45A7A1"/>
<text class="smallLabel" x="1103" y="209" text-anchor="middle">Prometheus</text>
<line class="lifeline" x1="1103" y1="252" x2="1103" y2="1252"/>
<rect class="card" x="1220" y="166" width="210" height="72" rx="12" fill="#F1ECFF" stroke="#8A72D6"/>
<text class="smallLabel" x="1325" y="209" text-anchor="middle">Grafana</text>
<line class="lifeline" x1="1325" y1="252" x2="1325" y2="1252"/>
<rect x="181.0" y="264" width="250" height="40" rx="20" fill="#ffffff" opacity="0.97"/>
<text class="strong" x="199.0" y="291" text-anchor="start">1. fixed-delay tick</text>
<path class="line" d="M215.0 310 L437.0 310"/>
<rect x="403.0" y="368" width="260" height="40" rx="20" fill="#ffffff" opacity="0.97"/>
<text class="strong" x="421.0" y="395" text-anchor="start">2. runIfLeader(dashboard-job)</text>
<path class="line" d="M437.0 414 L659.0 414"/>
<rect x="403.0" y="472" width="250" height="40" rx="20" fill="#ffffff" opacity="0.97"/>
<text class="strong" x="421.0" y="499" text-anchor="start">3. ACQUIRED or skip</text>
<path class="dashed" d="M659.0 518 L437.0 518"/>
<rect x="514.0" y="576" width="250" height="40" rx="20" fill="#ffffff" opacity="0.97"/>
<text class="strong" x="532.0" y="603" text-anchor="start">4. record leader_aop_*</text>
<path class="line" d="M437.0 622 L881.0 622"/>
<rect x="625.0" y="680" width="268" height="40" rx="20" fill="#ffffff" opacity="0.97"/>
<text class="strong" x="643.0" y="707" text-anchor="start">5. scrape /actuator/prometheus</text>
<path class="line" d="M1103.0 726 L437.0 726"/>
<rect x="625.0" y="784" width="250" height="40" rx="20" fill="#ffffff" opacity="0.97"/>
<text class="strong" x="643.0" y="811" text-anchor="start">6. metrics text</text>
<path class="dashed" d="M437.0 830 L1103.0 830"/>
<rect x="1069.0" y="888" width="250" height="40" rx="20" fill="#ffffff" opacity="0.97"/>
<text class="strong" x="1087.0" y="915" text-anchor="start">7. query dashboard panels</text>
<path class="line" d="M1325.0 934 L1103.0 934"/>
<rect x="1069.0" y="992" width="250" height="40" rx="20" fill="#ffffff" opacity="0.97"/>
<text class="strong" x="1087.0" y="1019" text-anchor="start">8. time series</text>
<path class="dashed" d="M1103.0 1038 L1325.0 1038"/>
</svg>
