<?xml version="1.0" encoding="UTF-8" standalone="no"?>
<!DOCTYPE svg PUBLIC "-//W3C//DTD SVG 1.1//EN"
 "http://www.w3.org/Graphics/SVG/1.1/DTD/svg11.dtd">
<!-- Generated by graphviz version 15.0.0 (20260523.1842)
 -->
<!-- Title: examples&#45;rate&#45;limiter&#45;scenario&#45;01 Pages: 1 -->
<svg width="815pt" height="210pt"
 viewBox="0.00 0.00 815.00 210.00" xmlns="http://www.w3.org/2000/svg" xmlns:xlink="http://www.w3.org/1999/xlink">
<g id="graph0" class="graph" transform="scale(1 1) rotate(0) translate(4 206)">
<title>examples&#45;rate&#45;limiter&#45;scenario&#45;01</title>
<!-- tick -->
<g id="node1" class="node">
<title>tick</title>
<path fill="#f8fafc" stroke="#94a3b8" d="M116.5,-119C116.5,-119 12,-119 12,-119 6,-119 0,-113 0,-107 0,-107 0,-95 0,-95 0,-89 6,-83 12,-83 12,-83 116.5,-83 116.5,-83 122.5,-83 128.5,-89 128.5,-95 128.5,-95 128.5,-107 128.5,-107 128.5,-113 122.5,-119 116.5,-119"/>
<text xml:space="preserve" text-anchor="middle" x="64.25" y="-95.58" font-family="Comic Mono" font-size="14.00">Dispatch Window</text>
</g>
<!-- nodeA -->
<g id="node2" class="node">
<title>nodeA</title>
<path fill="#f8fafc" stroke="#94a3b8" d="M302,-202C302,-202 227.5,-202 227.5,-202 221.5,-202 215.5,-196 215.5,-190 215.5,-190 215.5,-178 215.5,-178 215.5,-172 221.5,-166 227.5,-166 227.5,-166 302,-166 302,-166 308,-166 314,-172 314,-178 314,-178 314,-190 314,-190 314,-196 308,-202 302,-202"/>
<text xml:space="preserve" text-anchor="middle" x="264.75" y="-178.57" font-family="Comic Mono" font-size="14.00">Candidate A</text>
</g>
<!-- tick&#45;&gt;nodeA -->
<g id="edge1" class="edge">
<title>tick&#45;&gt;nodeA</title>
<path fill="none" stroke="#758297" d="M64.25,-119.42C64.25,-143.87 64.25,-184 64.25,-184 64.25,-184 203.67,-184 203.67,-184"/>
<polygon fill="#758297" stroke="#758297" points="203.67,-187.5 213.67,-184 203.67,-180.5 203.67,-187.5"/>
<text xml:space="preserve" text-anchor="middle" x="172" y="-176.5" font-family="Comic Mono" font-size="10.00">call</text>
</g>
<!-- nodeB -->
<g id="node3" class="node">
<title>nodeB</title>
<path fill="#f8fafc" stroke="#94a3b8" d="M302,-119C302,-119 227.5,-119 227.5,-119 221.5,-119 215.5,-113 215.5,-107 215.5,-107 215.5,-95 215.5,-95 215.5,-89 221.5,-83 227.5,-83 227.5,-83 302,-83 302,-83 308,-83 314,-89 314,-95 314,-95 314,-107 314,-107 314,-113 308,-119 302,-119"/>
<text xml:space="preserve" text-anchor="middle" x="264.75" y="-95.58" font-family="Comic Mono" font-size="14.00">Candidate B</text>
</g>
<!-- tick&#45;&gt;nodeB -->
<g id="edge2" class="edge">
<title>tick&#45;&gt;nodeB</title>
<path fill="none" stroke="#758297" d="M128.79,-101C128.79,-101 203.76,-101 203.76,-101"/>
<polygon fill="#758297" stroke="#758297" points="203.76,-104.5 213.76,-101 203.76,-97.5 203.76,-104.5"/>
<text xml:space="preserve" text-anchor="middle" x="172" y="-103.5" font-family="Comic Mono" font-size="10.00">call</text>
</g>
<!-- nodeC -->
<g id="node4" class="node">
<title>nodeC</title>
<path fill="#f8fafc" stroke="#94a3b8" d="M302,-36C302,-36 227.5,-36 227.5,-36 221.5,-36 215.5,-30 215.5,-24 215.5,-24 215.5,-12 215.5,-12 215.5,-6 221.5,0 227.5,0 227.5,0 302,0 302,0 308,0 314,-6 314,-12 314,-12 314,-24 314,-24 314,-30 308,-36 302,-36"/>
<text xml:space="preserve" text-anchor="middle" x="264.75" y="-12.57" font-family="Comic Mono" font-size="14.00">Candidate C</text>
</g>
<!-- tick&#45;&gt;nodeC -->
<g id="edge3" class="edge">
<title>tick&#45;&gt;nodeC</title>
<path fill="none" stroke="#758297" d="M64.25,-82.58C64.25,-58.13 64.25,-18 64.25,-18 64.25,-18 203.67,-18 203.67,-18"/>
<polygon fill="#758297" stroke="#758297" points="203.67,-21.5 213.67,-18 203.67,-14.5 203.67,-21.5"/>
<text xml:space="preserve" text-anchor="middle" x="172" y="-30.5" font-family="Comic Mono" font-size="10.00">call</text>
</g>
<!-- backend -->
<g id="node5" class="node">
<title>backend</title>
<path fill="#f8fafc" stroke="#94a3b8" d="M541.5,-119C541.5,-119 444.5,-119 444.5,-119 438.5,-119 432.5,-113 432.5,-107 432.5,-107 432.5,-95 432.5,-95 432.5,-89 438.5,-83 444.5,-83 444.5,-83 541.5,-83 541.5,-83 547.5,-83 553.5,-89 553.5,-95 553.5,-95 553.5,-107 553.5,-107 553.5,-113 547.5,-119 541.5,-119"/>
<text xml:space="preserve" text-anchor="middle" x="493" y="-95.58" font-family="Comic Mono" font-size="14.00">Bucket4j quota</text>
</g>
<!-- nodeA&#45;&gt;backend -->
<g id="edge4" class="edge">
<title>nodeA&#45;&gt;backend</title>
<path fill="none" stroke="#758297" d="M314.33,-184C381.53,-184 493.25,-184 493.25,-184 493.25,-184 493.25,-130.93 493.25,-130.93"/>
<polygon fill="#758297" stroke="#758297" points="496.75,-130.93 493.25,-120.93 489.75,-130.93 496.75,-130.93"/>
<text xml:space="preserve" text-anchor="middle" x="373.25" y="-176.5" font-family="Comic Mono" font-size="10.00">contention</text>
</g>
<!-- nodeB&#45;&gt;backend -->
<g id="edge5" class="edge">
<title>nodeB&#45;&gt;backend</title>
<path fill="none" stroke="#758297" d="M314.28,-101C314.28,-101 420.68,-101 420.68,-101"/>
<polygon fill="#758297" stroke="#758297" points="420.68,-104.5 430.68,-101 420.68,-97.5 420.68,-104.5"/>
<text xml:space="preserve" text-anchor="middle" x="373.25" y="-103.5" font-family="Comic Mono" font-size="10.00">contention</text>
</g>
<!-- nodeC&#45;&gt;backend -->
<g id="edge6" class="edge">
<title>nodeC&#45;&gt;backend</title>
<path fill="none" stroke="#758297" d="M314.33,-18C381.53,-18 493.25,-18 493.25,-18 493.25,-18 493.25,-71.07 493.25,-71.07"/>
<polygon fill="#758297" stroke="#758297" points="489.75,-71.07 493.25,-81.07 496.75,-71.07 489.75,-71.07"/>
<text xml:space="preserve" text-anchor="middle" x="373.25" y="-30.5" font-family="Comic Mono" font-size="10.00">contention</text>
</g>
<!-- recovery -->
<g id="node6" class="node">
<title>recovery</title>
<path fill="#f8fafc" stroke="#94a3b8" d="M795.25,-202C795.25,-202 668.25,-202 668.25,-202 662.25,-202 656.25,-196 656.25,-190 656.25,-190 656.25,-178 656.25,-178 656.25,-172 662.25,-166 668.25,-166 668.25,-166 795.25,-166 795.25,-166 801.25,-166 807.25,-172 807.25,-178 807.25,-178 807.25,-190 807.25,-190 807.25,-196 801.25,-202 795.25,-202"/>
<text xml:space="preserve" text-anchor="middle" x="731.75" y="-178.57" font-family="Comic Mono" font-size="14.00">Quota Window Reset</text>
</g>
<!-- backend&#45;&gt;recovery -->
<g id="edge9" class="edge">
<title>backend&#45;&gt;recovery</title>
<path fill="none" stroke="#758297" d="M553.63,-110C602.19,-110 662.25,-110 662.25,-110 662.25,-110 662.25,-154.19 662.25,-154.19"/>
<polygon fill="#758297" stroke="#758297" points="658.75,-154.19 662.25,-164.19 665.75,-154.19 658.75,-154.19"/>
<text xml:space="preserve" text-anchor="middle" x="604.88" y="-186.5" font-family="Comic Mono" font-size="10.00">release</text>
</g>
<!-- skipped -->
<g id="node7" class="node">
<title>skipped</title>
<path fill="#f8fafc" stroke="#94a3b8" d="M765.25,-119C765.25,-119 698.25,-119 698.25,-119 692.25,-119 686.25,-113 686.25,-107 686.25,-107 686.25,-95 686.25,-95 686.25,-89 692.25,-83 698.25,-83 698.25,-83 765.25,-83 765.25,-83 771.25,-83 777.25,-89 777.25,-95 777.25,-95 777.25,-107 777.25,-107 777.25,-113 771.25,-119 765.25,-119"/>
<text xml:space="preserve" text-anchor="middle" x="731.75" y="-95.58" font-family="Comic Mono" font-size="14.00">Peers Skip</text>
</g>
<!-- backend&#45;&gt;skipped -->
<g id="edge8" class="edge">
<title>backend&#45;&gt;skipped</title>
<path fill="none" stroke="#758297" d="M553.86,-101C553.86,-101 674.56,-101 674.56,-101"/>
<polygon fill="#758297" stroke="#758297" points="674.56,-104.5 684.56,-101 674.56,-97.5 674.56,-104.5"/>
<text xml:space="preserve" text-anchor="middle" x="604.88" y="-103.5" font-family="Comic Mono" font-size="10.00">skip</text>
</g>
<!-- leader -->
<g id="node8" class="node">
<title>leader</title>
<path fill="#f8fafc" stroke="#94a3b8" d="M784,-36C784,-36 679.5,-36 679.5,-36 673.5,-36 667.5,-30 667.5,-24 667.5,-24 667.5,-12 667.5,-12 667.5,-6 673.5,0 679.5,0 679.5,0 784,0 784,0 790,0 796,-6 796,-12 796,-12 796,-24 796,-24 796,-30 790,-36 784,-36"/>
<text xml:space="preserve" text-anchor="middle" x="731.75" y="-12.57" font-family="Comic Mono" font-size="14.00">One Leader Runs</text>
</g>
<!-- backend&#45;&gt;leader -->
<g id="edge7" class="edge">
<title>backend&#45;&gt;leader</title>
<path fill="none" stroke="#758297" d="M553.84,-92C607.51,-92 677.25,-92 677.25,-92 677.25,-92 677.25,-47.81 677.25,-47.81"/>
<polygon fill="#758297" stroke="#758297" points="680.75,-47.81 677.25,-37.81 673.75,-47.81 680.75,-47.81"/>
<text xml:space="preserve" text-anchor="middle" x="604.88" y="-20.5" font-family="Comic Mono" font-size="10.00">success</text>
</g>
</g>
</svg>
