<svg xmlns="http://www.w3.org/2000/svg" width="1500" height="980" viewBox="0 0 1500 980" role="img" aria-labelledby="title desc" data-source-read="examples/migration-gate/src/main/kotlin/io/bluetape4k/leader/examples/migration/MigrationGate.kt; examples/migration-gate/src/main/kotlin/io/bluetape4k/leader/examples/migration/Outcome.kt; examples/migration-gate/src/test/kotlin/io/bluetape4k/leader/examples/migration/MigrationGateTest.kt">
  <title id="title">Migration Gate Outcome Flow</title>
  <desc id="desc">MigrationGate outcome decision tree: precheck, leader lock, in-lock recheck, migration execution, post-skip marker check, and failure handling.</desc>
  <defs>
    <marker id="arrow-blue" markerWidth="5" markerHeight="5" refX="4.5" refY="2.5" orient="auto" markerUnits="strokeWidth"><path d="M 0.5 0.5 L 4.5 2.5 L 0.5 4.5 Z" fill="#4f77c9"/></marker>
    <marker id="arrow-green" markerWidth="5" markerHeight="5" refX="4.5" refY="2.5" orient="auto" markerUnits="strokeWidth"><path d="M 0.5 0.5 L 4.5 2.5 L 0.5 4.5 Z" fill="#329a74"/></marker>
    <marker id="arrow-amber" markerWidth="5" markerHeight="5" refX="4.5" refY="2.5" orient="auto" markerUnits="strokeWidth"><path d="M 0.5 0.5 L 4.5 2.5 L 0.5 4.5 Z" fill="#cf8428"/></marker>
    <marker id="arrow-red" markerWidth="5" markerHeight="5" refX="4.5" refY="2.5" orient="auto" markerUnits="strokeWidth"><path d="M 0.5 0.5 L 4.5 2.5 L 0.5 4.5 Z" fill="#bd4e64"/></marker>
    <style>
      .canvas { fill: #f6f9fc; }
      .frame { fill: #ffffff; stroke: #c4d5e8; stroke-width: 3; }
      .title, .node-title { font-family: "Architects Daughter"; fill: #263a57; }
      .title { font-size: 44px; }
      .subtitle, .node-sub, .label, .footer { font-family: "Comic Mono"; fill: #526276; }
      .subtitle { font-size: 17px; }
      .node-title { font-size: 24px; }
      .node-sub { font-size: 13px; }
      .label { font-size: 13px; }
      .footer { font-size: 14px; }
      .node { stroke-width: 2.4; rx: 16; }
      .decision { stroke-width: 2.4; }
      .route { fill: none; stroke-width: 3; stroke-linecap: round; stroke-linejoin: round; }
      .dash { stroke-dasharray: 9 8; }
      .pill { fill: #ffffff; stroke: #cbd9e7; stroke-width: 1.4; rx: 10; }
    </style>
  </defs>

  <rect class="canvas" width="1500" height="980"/>
  <rect class="frame" x="42" y="34" width="1416" height="900" rx="30"/>
  <text class="title" x="86" y="92">Migration Gate Outcome Flow</text>
  <text class="subtitle" x="90" y="126">The gate treats unknown marker state as failure, normal contention as skip, and marker visibility as AlreadyApplied.</text>

  <rect class="node" x="572" y="162" width="356" height="76" fill="#eaf2ff" stroke="#6d9df0"/>
  <text class="node-title" x="750" y="194" text-anchor="middle">runMigration()</text>
  <text class="node-sub" x="750" y="216" text-anchor="middle">validate migrationId, start timer</text>

  <path class="decision" d="M750 276 L922 358 L750 440 L578 358 Z" fill="#fff4de" stroke="#d59c3f"/>
  <text class="node-title" x="750" y="350" text-anchor="middle">precheck</text>
  <text class="node-sub" x="750" y="374" text-anchor="middle">isApplied()?</text>

  <rect class="node" x="1060" y="322" width="286" height="72" fill="#f8fbff" stroke="#cbd9e7"/>
  <text class="node-title" x="1203" y="354" text-anchor="middle">AlreadyApplied</text>
  <text class="node-sub" x="1203" y="376" text-anchor="middle">no lock attempt</text>

  <rect class="node" x="154" y="322" width="280" height="72" fill="#fff0f5" stroke="#de7f9e"/>
  <text class="node-title" x="294" y="354" text-anchor="middle">Failed</text>
  <text class="node-sub" x="294" y="376" text-anchor="middle">marker state unknown</text>

  <rect class="node" x="572" y="482" width="356" height="76" fill="#f0ecff" stroke="#9b7aec"/>
  <text class="node-title" x="750" y="514" text-anchor="middle">runIfLeader(lockName)</text>
  <text class="node-sub" x="750" y="536" text-anchor="middle">wait up to waitTime</text>

  <path class="decision" d="M750 596 L922 678 L750 760 L578 678 Z" fill="#fff4de" stroke="#d59c3f"/>
  <text class="node-title" x="750" y="670" text-anchor="middle">in-lock recheck</text>
  <text class="node-sub" x="750" y="694" text-anchor="middle">marker appeared?</text>

  <rect class="node" x="1060" y="642" width="286" height="72" fill="#f8fbff" stroke="#cbd9e7"/>
  <text class="node-title" x="1203" y="674" text-anchor="middle">AlreadyApplied</text>
  <text class="node-sub" x="1203" y="696" text-anchor="middle">another path already wrote marker</text>

  <rect class="node" x="572" y="820" width="356" height="72" fill="#edf9f4" stroke="#63b891"/>
  <text class="node-title" x="750" y="852" text-anchor="middle">Migrated</text>
  <text class="node-sub" x="750" y="874" text-anchor="middle">run migration + marker in same tx</text>

  <rect class="node" x="154" y="642" width="286" height="72" fill="#fff0f5" stroke="#de7f9e"/>
  <text class="node-title" x="297" y="674" text-anchor="middle">Failed</text>
  <text class="node-sub" x="297" y="696" text-anchor="middle">in-lock check or migration threw</text>

  <path class="decision" d="M1088 474 L1252 552 L1088 630 L924 552 Z" fill="#fff4de" stroke="#d59c3f"/>
  <text class="node-title" x="1088" y="544" text-anchor="middle">post-skip</text>
  <text class="node-sub" x="1088" y="568" text-anchor="middle">marker now exists?</text>

  <rect class="node" x="1172" y="768" width="242" height="72" fill="#fff5ec" stroke="#e49a72"/>
  <text class="node-title" x="1293" y="800" text-anchor="middle">Skipped</text>
  <text class="node-sub" x="1293" y="822" text-anchor="middle">no lock + no marker</text>

  <path class="route" d="M750 238 L750 276" stroke="#4f77c9" marker-end="url(#arrow-blue)"/>
  <path class="route" d="M922 358 L1060 358" stroke="#329a74" marker-end="url(#arrow-green)"/>
  <rect class="pill" x="952" y="328" width="58" height="26"/>
  <text class="label" x="981" y="346" text-anchor="middle">true</text>
  <path class="route" d="M578 358 L434 358" stroke="#bd4e64" marker-end="url(#arrow-red)"/>
  <rect class="pill" x="474" y="328" width="74" height="26"/>
  <text class="label" x="511" y="346" text-anchor="middle">throws</text>
  <path class="route" d="M750 440 L750 482" stroke="#4f77c9" marker-end="url(#arrow-blue)"/>
  <rect class="pill" x="770" y="446" width="62" height="26"/>
  <text class="label" x="801" y="464" text-anchor="middle">false</text>
  <path class="route" d="M750 558 L750 596" stroke="#4f77c9" marker-end="url(#arrow-blue)"/>
  <path class="route" d="M922 678 L1060 678" stroke="#329a74" marker-end="url(#arrow-green)"/>
  <rect class="pill" x="952" y="648" width="58" height="26"/>
  <text class="label" x="981" y="666" text-anchor="middle">true</text>
  <path class="route" d="M578 678 L440 678" stroke="#bd4e64" marker-end="url(#arrow-red)"/>
  <rect class="pill" x="468" y="648" width="78" height="26"/>
  <text class="label" x="507" y="666" text-anchor="middle">throws</text>
  <path class="route" d="M750 760 L750 820" stroke="#329a74" marker-end="url(#arrow-green)"/>
  <rect class="pill" x="770" y="774" width="62" height="26"/>
  <text class="label" x="801" y="792" text-anchor="middle">false</text>
  <path class="route dash" d="M928 520 L978 520 L978 552 L924 552" stroke="#cf8428" marker-end="url(#arrow-amber)"/>
  <rect class="pill" x="940" y="490" width="104" height="26"/>
  <text class="label" x="992" y="508" text-anchor="middle">not leader</text>
  <path class="route" d="M1252 552 L1336 552 L1336 642 L1203 642" stroke="#329a74" marker-end="url(#arrow-green)"/>
  <rect class="pill" x="1308" y="586" width="58" height="26"/>
  <text class="label" x="1337" y="604" text-anchor="middle">true</text>
  <path class="route" d="M1088 630 L1088 804 L1172 804" stroke="#cf8428" marker-end="url(#arrow-amber)"/>
  <rect class="pill" x="1108" y="714" width="62" height="26"/>
  <text class="label" x="1139" y="732" text-anchor="middle">false</text>

  <text class="footer" x="750" y="928" text-anchor="middle">Cancellation is rethrown; ordinary exceptions become Failed so startup can stop instead of serving with unknown schema state.</text>
</svg>
