<?xml version="1.0" encoding="UTF-8" standalone="no"?>
<!DOCTYPE svg PUBLIC "-//W3C//DTD SVG 1.1//EN"
 "http://www.w3.org/Graphics/SVG/1.1/DTD/svg11.dtd">
<!-- Generated by graphviz version 15.0.0 (20260523.1842)
 -->
<!-- Title: examples&#45;migration&#45;gate&#45;flow&#45;01 Pages: 1 -->
<svg width="1652pt" height="127pt"
 viewBox="0.00 0.00 1652.00 127.00" xmlns="http://www.w3.org/2000/svg" xmlns:xlink="http://www.w3.org/1999/xlink">
<g id="graph0" class="graph" transform="scale(1 1) rotate(0) translate(4 123)">
<title>examples&#45;migration&#45;gate&#45;flow&#45;01</title>
<!-- start -->
<g id="node1" class="node">
<title>start</title>
<path fill="#f8fafc" stroke="#94a3b8" d="M109,-68C109,-68 12,-68 12,-68 6,-68 0,-62 0,-56 0,-56 0,-44 0,-44 0,-38 6,-32 12,-32 12,-32 109,-32 109,-32 115,-32 121,-38 121,-44 121,-44 121,-56 121,-56 121,-62 115,-68 109,-68"/>
<text xml:space="preserve" text-anchor="middle" x="60.5" y="-44.58" font-family="Comic Mono" font-size="14.00">Deploy Startup</text>
</g>
<!-- validate -->
<g id="node2" class="node">
<title>validate</title>
<path fill="#f8fafc" stroke="#94a3b8" d="M384.5,-68C384.5,-68 220,-68 220,-68 214,-68 208,-62 208,-56 208,-56 208,-44 208,-44 208,-38 214,-32 220,-32 220,-32 384.5,-32 384.5,-32 390.5,-32 396.5,-38 396.5,-44 396.5,-44 396.5,-56 396.5,-56 396.5,-62 390.5,-68 384.5,-68"/>
<text xml:space="preserve" text-anchor="middle" x="302.25" y="-44.58" font-family="Comic Mono" font-size="14.00">Validate Example Inputs</text>
</g>
<!-- start&#45;&gt;validate -->
<g id="edge1" class="edge">
<title>start&#45;&gt;validate</title>
<path fill="none" stroke="#758297" d="M121.19,-50C121.19,-50 196.11,-50 196.11,-50"/>
<polygon fill="#758297" stroke="#758297" points="196.11,-53.5 206.11,-50 196.11,-46.5 196.11,-53.5"/>
<text xml:space="preserve" text-anchor="middle" x="164.5" y="-52.5" font-family="Comic Mono" font-size="10.00">call</text>
</g>
<!-- attempt -->
<g id="node3" class="node">
<title>attempt</title>
<path fill="#f8fafc" stroke="#94a3b8" d="M669,-68C669,-68 527,-68 527,-68 521,-68 515,-62 515,-56 515,-56 515,-44 515,-44 515,-38 521,-32 527,-32 527,-32 669,-32 669,-32 675,-32 681,-38 681,-44 681,-44 681,-56 681,-56 681,-62 675,-68 669,-68"/>
<text xml:space="preserve" text-anchor="middle" x="598" y="-44.58" font-family="Comic Mono" font-size="14.00">Exposed JDBC Elector</text>
</g>
<!-- validate&#45;&gt;attempt -->
<g id="edge2" class="edge">
<title>validate&#45;&gt;attempt</title>
<path fill="none" stroke="#758297" d="M396.64,-50C396.64,-50 503.46,-50 503.46,-50"/>
<polygon fill="#758297" stroke="#758297" points="503.46,-53.5 513.46,-50 503.46,-46.5 503.46,-53.5"/>
<text xml:space="preserve" text-anchor="middle" x="455.75" y="-52.5" font-family="Comic Mono" font-size="10.00">dependency</text>
</g>
<!-- decision -->
<g id="node4" class="node">
<title>decision</title>
<path fill="#f8fafc" stroke="#94a3b8" d="M931,-68C931,-68 811.5,-68 811.5,-68 805.5,-68 799.5,-62 799.5,-56 799.5,-56 799.5,-44 799.5,-44 799.5,-38 805.5,-32 811.5,-32 811.5,-32 931,-32 931,-32 937,-32 943,-38 943,-44 943,-44 943,-56 943,-56 943,-62 937,-68 931,-68"/>
<text xml:space="preserve" text-anchor="middle" x="871.25" y="-44.58" font-family="Comic Mono" font-size="14.00">Leadership Result</text>
</g>
<!-- attempt&#45;&gt;decision -->
<g id="edge3" class="edge">
<title>attempt&#45;&gt;decision</title>
<path fill="none" stroke="#758297" d="M681.47,-50C681.47,-50 787.85,-50 787.85,-50"/>
<polygon fill="#758297" stroke="#758297" points="787.85,-53.5 797.85,-50 787.85,-46.5 787.85,-53.5"/>
<text xml:space="preserve" text-anchor="middle" x="740.25" y="-52.5" font-family="Comic Mono" font-size="10.00">contention</text>
</g>
<!-- execute -->
<g id="node6" class="node">
<title>execute</title>
<path fill="#f8fafc" stroke="#94a3b8" d="M1151,-119C1151,-119 1061.5,-119 1061.5,-119 1055.5,-119 1049.5,-113 1049.5,-107 1049.5,-107 1049.5,-95 1049.5,-95 1049.5,-89 1055.5,-83 1061.5,-83 1061.5,-83 1151,-83 1151,-83 1157,-83 1163,-89 1163,-95 1163,-95 1163,-107 1163,-107 1163,-113 1157,-119 1151,-119"/>
<text xml:space="preserve" text-anchor="middle" x="1106.25" y="-95.58" font-family="Comic Mono" font-size="14.00">Run Migration</text>
</g>
<!-- decision&#45;&gt;execute -->
<g id="edge4" class="edge">
<title>decision&#45;&gt;execute</title>
<path fill="none" stroke="#758297" d="M943.48,-57.33C1006.27,-57.33 1087.25,-57.33 1087.25,-57.33 1087.25,-57.33 1087.25,-71.22 1087.25,-71.22"/>
<polygon fill="#758297" stroke="#758297" points="1083.75,-71.22 1087.25,-81.22 1090.75,-71.22 1083.75,-71.22"/>
<text xml:space="preserve" text-anchor="middle" x="994.38" y="-93.5" font-family="Comic Mono" font-size="10.00">success</text>
</g>
<!-- skipped -->
<g id="node8" class="node">
<title>skipped</title>
<path fill="#f8fafc" stroke="#94a3b8" d="M1154.75,-36C1154.75,-36 1057.75,-36 1057.75,-36 1051.75,-36 1045.75,-30 1045.75,-24 1045.75,-24 1045.75,-12 1045.75,-12 1045.75,-6 1051.75,0 1057.75,0 1057.75,0 1154.75,0 1154.75,0 1160.75,0 1166.75,-6 1166.75,-12 1166.75,-12 1166.75,-24 1166.75,-24 1166.75,-30 1160.75,-36 1154.75,-36"/>
<text xml:space="preserve" text-anchor="middle" x="1106.25" y="-12.57" font-family="Comic Mono" font-size="14.00">Return Skipped</text>
</g>
<!-- decision&#45;&gt;skipped -->
<g id="edge7" class="edge">
<title>decision&#45;&gt;skipped</title>
<path fill="none" stroke="#758297" d="M943.36,-46.67C1018.45,-46.67 1125.25,-46.67 1125.25,-46.67 1125.25,-46.67 1125.25,-45.63 1125.25,-45.63"/>
<polygon fill="#758297" stroke="#758297" points="1128.75,-47.83 1125.25,-37.83 1121.75,-47.83 1128.75,-47.83"/>
<text xml:space="preserve" text-anchor="middle" x="994.38" y="-20.5" font-family="Comic Mono" font-size="10.00">skip</text>
</g>
<!-- release -->
<g id="node5" class="node">
<title>release</title>
<path fill="#f8fafc" stroke="#94a3b8" d="M1401,-119C1401,-119 1281.5,-119 1281.5,-119 1275.5,-119 1269.5,-113 1269.5,-107 1269.5,-107 1269.5,-95 1269.5,-95 1269.5,-89 1275.5,-83 1281.5,-83 1281.5,-83 1401,-83 1401,-83 1407,-83 1413,-89 1413,-95 1413,-95 1413,-107 1413,-107 1413,-113 1407,-119 1401,-119"/>
<text xml:space="preserve" text-anchor="middle" x="1341.25" y="-95.58" font-family="Comic Mono" font-size="14.00">Release Or Extend</text>
</g>
<!-- executed -->
<g id="node7" class="node">
<title>executed</title>
<path fill="#f8fafc" stroke="#94a3b8" d="M1632.25,-119C1632.25,-119 1527.75,-119 1527.75,-119 1521.75,-119 1515.75,-113 1515.75,-107 1515.75,-107 1515.75,-95 1515.75,-95 1515.75,-89 1521.75,-83 1527.75,-83 1527.75,-83 1632.25,-83 1632.25,-83 1638.25,-83 1644.25,-89 1644.25,-95 1644.25,-95 1644.25,-107 1644.25,-107 1644.25,-113 1638.25,-119 1632.25,-119"/>
<text xml:space="preserve" text-anchor="middle" x="1580" y="-95.58" font-family="Comic Mono" font-size="14.00">Return Executed</text>
</g>
<!-- release&#45;&gt;executed -->
<g id="edge6" class="edge">
<title>release&#45;&gt;executed</title>
<path fill="none" stroke="#758297" d="M1413.21,-101C1413.21,-101 1503.98,-101 1503.98,-101"/>
<polygon fill="#758297" stroke="#758297" points="1503.98,-104.5 1513.98,-101 1503.98,-97.5 1503.98,-104.5"/>
<text xml:space="preserve" text-anchor="middle" x="1464.38" y="-103.5" font-family="Comic Mono" font-size="10.00">success</text>
</g>
<!-- execute&#45;&gt;release -->
<g id="edge5" class="edge">
<title>execute&#45;&gt;release</title>
<path fill="none" stroke="#758297" d="M1163.44,-101C1163.44,-101 1257.52,-101 1257.52,-101"/>
<polygon fill="#758297" stroke="#758297" points="1257.52,-104.5 1267.52,-101 1257.52,-97.5 1257.52,-104.5"/>
<text xml:space="preserve" text-anchor="middle" x="1218.12" y="-103.5" font-family="Comic Mono" font-size="10.00">release</text>
</g>
</g>
</svg>
