<?xml version="1.0" encoding="UTF-8" standalone="no"?>
<!DOCTYPE svg PUBLIC "-//W3C//DTD SVG 1.1//EN"
 "http://www.w3.org/Graphics/SVG/1.1/DTD/svg11.dtd">
<!-- Generated by graphviz version 15.0.0 (20260523.1842)
 -->
<!-- Title: examples&#45;strategic&#45;election&#45;flow&#45;01 Pages: 1 -->
<svg width="1697pt" height="127pt"
 viewBox="0.00 0.00 1697.00 127.00" xmlns="http://www.w3.org/2000/svg" xmlns:xlink="http://www.w3.org/1999/xlink">
<g id="graph0" class="graph" transform="scale(1 1) rotate(0) translate(4 123)">
<title>examples&#45;strategic&#45;election&#45;flow&#45;01</title>
<!-- start -->
<g id="node1" class="node">
<title>start</title>
<path fill="#f8fafc" stroke="#94a3b8" d="M109,-68C109,-68 12,-68 12,-68 6,-68 0,-62 0,-56 0,-56 0,-44 0,-44 0,-38 6,-32 12,-32 12,-32 109,-32 109,-32 115,-32 121,-38 121,-44 121,-44 121,-56 121,-56 121,-62 115,-68 109,-68"/>
<text xml:space="preserve" text-anchor="middle" x="60.5" y="-44.58" font-family="Comic Mono" font-size="14.00">Candidate Scan</text>
</g>
<!-- validate -->
<g id="node2" class="node">
<title>validate</title>
<path fill="#f8fafc" stroke="#94a3b8" d="M384.5,-68C384.5,-68 220,-68 220,-68 214,-68 208,-62 208,-56 208,-56 208,-44 208,-44 208,-38 214,-32 220,-32 220,-32 384.5,-32 384.5,-32 390.5,-32 396.5,-38 396.5,-44 396.5,-44 396.5,-56 396.5,-56 396.5,-62 390.5,-68 384.5,-68"/>
<text xml:space="preserve" text-anchor="middle" x="302.25" y="-44.58" font-family="Comic Mono" font-size="14.00">Validate Example Inputs</text>
</g>
<!-- start&#45;&gt;validate -->
<g id="edge1" class="edge">
<title>start&#45;&gt;validate</title>
<path fill="none" stroke="#758297" d="M121.19,-50C121.19,-50 196.11,-50 196.11,-50"/>
<polygon fill="#758297" stroke="#758297" points="196.11,-53.5 206.11,-50 196.11,-46.5 196.11,-53.5"/>
<text xml:space="preserve" text-anchor="middle" x="164.5" y="-52.5" font-family="Comic Mono" font-size="10.00">call</text>
</g>
<!-- attempt -->
<g id="node3" class="node">
<title>attempt</title>
<path fill="#f8fafc" stroke="#94a3b8" d="M699,-68C699,-68 527,-68 527,-68 521,-68 515,-62 515,-56 515,-56 515,-44 515,-44 515,-38 521,-32 527,-32 527,-32 699,-32 699,-32 705,-32 711,-38 711,-44 711,-44 711,-56 711,-56 711,-62 705,-68 699,-68"/>
<text xml:space="preserve" text-anchor="middle" x="613" y="-44.58" font-family="Comic Mono" font-size="14.00">Scored election strategy</text>
</g>
<!-- validate&#45;&gt;attempt -->
<g id="edge2" class="edge">
<title>validate&#45;&gt;attempt</title>
<path fill="none" stroke="#758297" d="M396.75,-50C396.75,-50 503.13,-50 503.13,-50"/>
<polygon fill="#758297" stroke="#758297" points="503.13,-53.5 513.13,-50 503.13,-46.5 503.13,-53.5"/>
<text xml:space="preserve" text-anchor="middle" x="455.75" y="-52.5" font-family="Comic Mono" font-size="10.00">dependency</text>
</g>
<!-- decision -->
<g id="node4" class="node">
<title>decision</title>
<path fill="#f8fafc" stroke="#94a3b8" d="M961,-68C961,-68 841.5,-68 841.5,-68 835.5,-68 829.5,-62 829.5,-56 829.5,-56 829.5,-44 829.5,-44 829.5,-38 835.5,-32 841.5,-32 841.5,-32 961,-32 961,-32 967,-32 973,-38 973,-44 973,-44 973,-56 973,-56 973,-62 967,-68 961,-68"/>
<text xml:space="preserve" text-anchor="middle" x="901.25" y="-44.58" font-family="Comic Mono" font-size="14.00">Leadership Result</text>
</g>
<!-- attempt&#45;&gt;decision -->
<g id="edge3" class="edge">
<title>attempt&#45;&gt;decision</title>
<path fill="none" stroke="#758297" d="M711.39,-50C711.39,-50 817.71,-50 817.71,-50"/>
<polygon fill="#758297" stroke="#758297" points="817.71,-53.5 827.71,-50 817.71,-46.5 817.71,-53.5"/>
<text xml:space="preserve" text-anchor="middle" x="770.25" y="-52.5" font-family="Comic Mono" font-size="10.00">contention</text>
</g>
<!-- execute -->
<g id="node6" class="node">
<title>execute</title>
<path fill="#f8fafc" stroke="#94a3b8" d="M1199.75,-119C1199.75,-119 1087.75,-119 1087.75,-119 1081.75,-119 1075.75,-113 1075.75,-107 1075.75,-107 1075.75,-95 1075.75,-95 1075.75,-89 1081.75,-83 1087.75,-83 1087.75,-83 1199.75,-83 1199.75,-83 1205.75,-83 1211.75,-89 1211.75,-95 1211.75,-95 1211.75,-107 1211.75,-107 1211.75,-113 1205.75,-119 1199.75,-119"/>
<text xml:space="preserve" text-anchor="middle" x="1143.75" y="-95.58" font-family="Comic Mono" font-size="14.00">Winner&#45;Only Work</text>
</g>
<!-- decision&#45;&gt;execute -->
<g id="edge4" class="edge">
<title>decision&#45;&gt;execute</title>
<path fill="none" stroke="#758297" d="M973.39,-57.33C1022.73,-57.33 1079.25,-57.33 1079.25,-57.33 1079.25,-57.33 1079.25,-71.22 1079.25,-71.22"/>
<polygon fill="#758297" stroke="#758297" points="1075.75,-71.22 1079.25,-81.22 1082.75,-71.22 1075.75,-71.22"/>
<text xml:space="preserve" text-anchor="middle" x="1024.38" y="-93.5" font-family="Comic Mono" font-size="10.00">success</text>
</g>
<!-- skipped -->
<g id="node8" class="node">
<title>skipped</title>
<path fill="#f8fafc" stroke="#94a3b8" d="M1192.25,-36C1192.25,-36 1095.25,-36 1095.25,-36 1089.25,-36 1083.25,-30 1083.25,-24 1083.25,-24 1083.25,-12 1083.25,-12 1083.25,-6 1089.25,0 1095.25,0 1095.25,0 1192.25,0 1192.25,0 1198.25,0 1204.25,-6 1204.25,-12 1204.25,-12 1204.25,-24 1204.25,-24 1204.25,-30 1198.25,-36 1192.25,-36"/>
<text xml:space="preserve" text-anchor="middle" x="1143.75" y="-12.57" font-family="Comic Mono" font-size="14.00">Return Skipped</text>
</g>
<!-- decision&#45;&gt;skipped -->
<g id="edge7" class="edge">
<title>decision&#45;&gt;skipped</title>
<path fill="none" stroke="#758297" d="M973.2,-46.67C1044.54,-46.67 1143.25,-46.67 1143.25,-46.67 1143.25,-46.67 1143.25,-45.63 1143.25,-45.63"/>
<polygon fill="#758297" stroke="#758297" points="1146.75,-47.83 1143.25,-37.83 1139.75,-47.83 1146.75,-47.83"/>
<text xml:space="preserve" text-anchor="middle" x="1024.38" y="-20.5" font-family="Comic Mono" font-size="10.00">skip</text>
</g>
<!-- release -->
<g id="node5" class="node">
<title>release</title>
<path fill="#f8fafc" stroke="#94a3b8" d="M1446,-119C1446,-119 1326.5,-119 1326.5,-119 1320.5,-119 1314.5,-113 1314.5,-107 1314.5,-107 1314.5,-95 1314.5,-95 1314.5,-89 1320.5,-83 1326.5,-83 1326.5,-83 1446,-83 1446,-83 1452,-83 1458,-89 1458,-95 1458,-95 1458,-107 1458,-107 1458,-113 1452,-119 1446,-119"/>
<text xml:space="preserve" text-anchor="middle" x="1386.25" y="-95.58" font-family="Comic Mono" font-size="14.00">Release Or Extend</text>
</g>
<!-- executed -->
<g id="node7" class="node">
<title>executed</title>
<path fill="#f8fafc" stroke="#94a3b8" d="M1677.25,-119C1677.25,-119 1572.75,-119 1572.75,-119 1566.75,-119 1560.75,-113 1560.75,-107 1560.75,-107 1560.75,-95 1560.75,-95 1560.75,-89 1566.75,-83 1572.75,-83 1572.75,-83 1677.25,-83 1677.25,-83 1683.25,-83 1689.25,-89 1689.25,-95 1689.25,-95 1689.25,-107 1689.25,-107 1689.25,-113 1683.25,-119 1677.25,-119"/>
<text xml:space="preserve" text-anchor="middle" x="1625" y="-95.58" font-family="Comic Mono" font-size="14.00">Return Executed</text>
</g>
<!-- release&#45;&gt;executed -->
<g id="edge6" class="edge">
<title>release&#45;&gt;executed</title>
<path fill="none" stroke="#758297" d="M1458.21,-101C1458.21,-101 1548.98,-101 1548.98,-101"/>
<polygon fill="#758297" stroke="#758297" points="1548.98,-104.5 1558.98,-101 1548.98,-97.5 1548.98,-104.5"/>
<text xml:space="preserve" text-anchor="middle" x="1509.38" y="-103.5" font-family="Comic Mono" font-size="10.00">success</text>
</g>
<!-- execute&#45;&gt;release -->
<g id="edge5" class="edge">
<title>execute&#45;&gt;release</title>
<path fill="none" stroke="#758297" d="M1211.95,-101C1211.95,-101 1302.82,-101 1302.82,-101"/>
<polygon fill="#758297" stroke="#758297" points="1302.82,-104.5 1312.82,-101 1302.82,-97.5 1302.82,-104.5"/>
<text xml:space="preserve" text-anchor="middle" x="1263.12" y="-103.5" font-family="Comic Mono" font-size="10.00">release</text>
</g>
</g>
</svg>
