<?xml version="1.0" encoding="UTF-8" standalone="no"?>
<!DOCTYPE svg PUBLIC "-//W3C//DTD SVG 1.1//EN"
 "http://www.w3.org/Graphics/SVG/1.1/DTD/svg11.dtd">
<!-- Generated by graphviz version 15.0.0 (20260523.1842)
 -->
<!-- Title: examples&#45;redisson&#45;watchdog&#45;flow&#45;01 Pages: 1 -->
<svg width="1697pt" height="127pt"
 viewBox="0.00 0.00 1697.00 127.00" xmlns="http://www.w3.org/2000/svg" xmlns:xlink="http://www.w3.org/1999/xlink">
<g id="graph0" class="graph" transform="scale(1 1) rotate(0) translate(4 123)">
<title>examples&#45;redisson&#45;watchdog&#45;flow&#45;01</title>
<!-- start -->
<g id="node1" class="node">
<title>start</title>
<path fill="#f8fafc" stroke="#94a3b8" d="M124,-68C124,-68 12,-68 12,-68 6,-68 0,-62 0,-56 0,-56 0,-44 0,-44 0,-38 6,-32 12,-32 12,-32 124,-32 124,-32 130,-32 136,-38 136,-44 136,-44 136,-56 136,-56 136,-62 130,-68 124,-68"/>
<text xml:space="preserve" text-anchor="middle" x="68" y="-44.58" font-family="Comic Mono" font-size="14.00">Long Job Trigger</text>
</g>
<!-- validate -->
<g id="node2" class="node">
<title>validate</title>
<path fill="#f8fafc" stroke="#94a3b8" d="M399.5,-68C399.5,-68 235,-68 235,-68 229,-68 223,-62 223,-56 223,-56 223,-44 223,-44 223,-38 229,-32 235,-32 235,-32 399.5,-32 399.5,-32 405.5,-32 411.5,-38 411.5,-44 411.5,-44 411.5,-56 411.5,-56 411.5,-62 405.5,-68 399.5,-68"/>
<text xml:space="preserve" text-anchor="middle" x="317.25" y="-44.58" font-family="Comic Mono" font-size="14.00">Validate Example Inputs</text>
</g>
<!-- start&#45;&gt;validate -->
<g id="edge1" class="edge">
<title>start&#45;&gt;validate</title>
<path fill="none" stroke="#758297" d="M136.44,-50C136.44,-50 211.31,-50 211.31,-50"/>
<polygon fill="#758297" stroke="#758297" points="211.31,-53.5 221.31,-50 211.31,-46.5 211.31,-53.5"/>
<text xml:space="preserve" text-anchor="middle" x="179.5" y="-52.5" font-family="Comic Mono" font-size="10.00">call</text>
</g>
<!-- attempt -->
<g id="node3" class="node">
<title>attempt</title>
<path fill="#f8fafc" stroke="#94a3b8" d="M691.5,-68C691.5,-68 542,-68 542,-68 536,-68 530,-62 530,-56 530,-56 530,-44 530,-44 530,-38 536,-32 542,-32 542,-32 691.5,-32 691.5,-32 697.5,-32 703.5,-38 703.5,-44 703.5,-44 703.5,-56 703.5,-56 703.5,-62 697.5,-68 691.5,-68"/>
<text xml:space="preserve" text-anchor="middle" x="616.75" y="-44.58" font-family="Comic Mono" font-size="14.00">RedissonLeaderElector</text>
</g>
<!-- validate&#45;&gt;attempt -->
<g id="edge2" class="edge">
<title>validate&#45;&gt;attempt</title>
<path fill="none" stroke="#758297" d="M411.6,-50C411.6,-50 518.23,-50 518.23,-50"/>
<polygon fill="#758297" stroke="#758297" points="518.23,-53.5 528.23,-50 518.23,-46.5 518.23,-53.5"/>
<text xml:space="preserve" text-anchor="middle" x="470.75" y="-52.5" font-family="Comic Mono" font-size="10.00">dependency</text>
</g>
<!-- decision -->
<g id="node4" class="node">
<title>decision</title>
<path fill="#f8fafc" stroke="#94a3b8" d="M953.5,-68C953.5,-68 834,-68 834,-68 828,-68 822,-62 822,-56 822,-56 822,-44 822,-44 822,-38 828,-32 834,-32 834,-32 953.5,-32 953.5,-32 959.5,-32 965.5,-38 965.5,-44 965.5,-44 965.5,-56 965.5,-56 965.5,-62 959.5,-68 953.5,-68"/>
<text xml:space="preserve" text-anchor="middle" x="893.75" y="-44.58" font-family="Comic Mono" font-size="14.00">Leadership Result</text>
</g>
<!-- attempt&#45;&gt;decision -->
<g id="edge3" class="edge">
<title>attempt&#45;&gt;decision</title>
<path fill="none" stroke="#758297" d="M703.63,-50C703.63,-50 810.07,-50 810.07,-50"/>
<polygon fill="#758297" stroke="#758297" points="810.07,-53.5 820.07,-50 810.07,-46.5 810.07,-53.5"/>
<text xml:space="preserve" text-anchor="middle" x="762.75" y="-52.5" font-family="Comic Mono" font-size="10.00">contention</text>
</g>
<!-- execute -->
<g id="node6" class="node">
<title>execute</title>
<path fill="#f8fafc" stroke="#94a3b8" d="M1199.75,-119C1199.75,-119 1080.25,-119 1080.25,-119 1074.25,-119 1068.25,-113 1068.25,-107 1068.25,-107 1068.25,-95 1068.25,-95 1068.25,-89 1074.25,-83 1080.25,-83 1080.25,-83 1199.75,-83 1199.75,-83 1205.75,-83 1211.75,-89 1211.75,-95 1211.75,-95 1211.75,-107 1211.75,-107 1211.75,-113 1205.75,-119 1199.75,-119"/>
<text xml:space="preserve" text-anchor="middle" x="1140" y="-95.58" font-family="Comic Mono" font-size="14.00">Long&#45;Running Body</text>
</g>
<!-- decision&#45;&gt;execute -->
<g id="edge4" class="edge">
<title>decision&#45;&gt;execute</title>
<path fill="none" stroke="#758297" d="M965.87,-57.33C1016.14,-57.33 1074.25,-57.33 1074.25,-57.33 1074.25,-57.33 1074.25,-71.22 1074.25,-71.22"/>
<polygon fill="#758297" stroke="#758297" points="1070.75,-71.22 1074.25,-81.22 1077.75,-71.22 1070.75,-71.22"/>
<text xml:space="preserve" text-anchor="middle" x="1016.88" y="-93.5" font-family="Comic Mono" font-size="10.00">success</text>
</g>
<!-- skipped -->
<g id="node8" class="node">
<title>skipped</title>
<path fill="#f8fafc" stroke="#94a3b8" d="M1188.5,-36C1188.5,-36 1091.5,-36 1091.5,-36 1085.5,-36 1079.5,-30 1079.5,-24 1079.5,-24 1079.5,-12 1079.5,-12 1079.5,-6 1085.5,0 1091.5,0 1091.5,0 1188.5,0 1188.5,0 1194.5,0 1200.5,-6 1200.5,-12 1200.5,-12 1200.5,-24 1200.5,-24 1200.5,-30 1194.5,-36 1188.5,-36"/>
<text xml:space="preserve" text-anchor="middle" x="1140" y="-12.57" font-family="Comic Mono" font-size="14.00">Return Skipped</text>
</g>
<!-- decision&#45;&gt;skipped -->
<g id="edge7" class="edge">
<title>decision&#45;&gt;skipped</title>
<path fill="none" stroke="#758297" d="M965.71,-46.67C1038.47,-46.67 1140.25,-46.67 1140.25,-46.67 1140.25,-46.67 1140.25,-45.63 1140.25,-45.63"/>
<polygon fill="#758297" stroke="#758297" points="1143.75,-47.83 1140.25,-37.83 1136.75,-47.83 1143.75,-47.83"/>
<text xml:space="preserve" text-anchor="middle" x="1016.88" y="-20.5" font-family="Comic Mono" font-size="10.00">skip</text>
</g>
<!-- release -->
<g id="node5" class="node">
<title>release</title>
<path fill="#f8fafc" stroke="#94a3b8" d="M1446,-119C1446,-119 1326.5,-119 1326.5,-119 1320.5,-119 1314.5,-113 1314.5,-107 1314.5,-107 1314.5,-95 1314.5,-95 1314.5,-89 1320.5,-83 1326.5,-83 1326.5,-83 1446,-83 1446,-83 1452,-83 1458,-89 1458,-95 1458,-95 1458,-107 1458,-107 1458,-113 1452,-119 1446,-119"/>
<text xml:space="preserve" text-anchor="middle" x="1386.25" y="-95.58" font-family="Comic Mono" font-size="14.00">Release Or Extend</text>
</g>
<!-- executed -->
<g id="node7" class="node">
<title>executed</title>
<path fill="#f8fafc" stroke="#94a3b8" d="M1677.25,-119C1677.25,-119 1572.75,-119 1572.75,-119 1566.75,-119 1560.75,-113 1560.75,-107 1560.75,-107 1560.75,-95 1560.75,-95 1560.75,-89 1566.75,-83 1572.75,-83 1572.75,-83 1677.25,-83 1677.25,-83 1683.25,-83 1689.25,-89 1689.25,-95 1689.25,-95 1689.25,-107 1689.25,-107 1689.25,-113 1683.25,-119 1677.25,-119"/>
<text xml:space="preserve" text-anchor="middle" x="1625" y="-95.58" font-family="Comic Mono" font-size="14.00">Return Executed</text>
</g>
<!-- release&#45;&gt;executed -->
<g id="edge6" class="edge">
<title>release&#45;&gt;executed</title>
<path fill="none" stroke="#758297" d="M1458.21,-101C1458.21,-101 1548.98,-101 1548.98,-101"/>
<polygon fill="#758297" stroke="#758297" points="1548.98,-104.5 1558.98,-101 1548.98,-97.5 1548.98,-104.5"/>
<text xml:space="preserve" text-anchor="middle" x="1509.38" y="-103.5" font-family="Comic Mono" font-size="10.00">success</text>
</g>
<!-- execute&#45;&gt;release -->
<g id="edge5" class="edge">
<title>execute&#45;&gt;release</title>
<path fill="none" stroke="#758297" d="M1212.22,-101C1212.22,-101 1302.52,-101 1302.52,-101"/>
<polygon fill="#758297" stroke="#758297" points="1302.52,-104.5 1312.52,-101 1302.52,-97.5 1302.52,-104.5"/>
<text xml:space="preserve" text-anchor="middle" x="1263.12" y="-103.5" font-family="Comic Mono" font-size="10.00">release</text>
</g>
</g>
</svg>
