<svg xmlns="http://www.w3.org/2000/svg" width="1624" height="1852" viewBox="0 0 1624 1852" role="img" aria-label="cache warmer Sequence Flow">
<defs>
  <filter id="shadow" x="-8%" y="-8%" width="116%" height="116%"><feDropShadow dx="0" dy="8" stdDeviation="9" flood-color="#1f2937" flood-opacity="0.10"/></filter>
  <marker id="openArrow" markerWidth="12" markerHeight="10" refX="10" refY="5" orient="auto" markerUnits="strokeWidth"><path d="M 1 1 L 10 5 L 1 9" fill="none" stroke="#758297" stroke-width="1.8" stroke-linecap="round" stroke-linejoin="round"/></marker>
  <marker id="inherit" markerWidth="14" markerHeight="12" refX="12" refY="6" orient="auto" markerUnits="strokeWidth"><path d="M 0 1 L 12 6 L 0 11 Z" fill="#ffffff" stroke="#758297" stroke-width="1.8"/></marker>
  <style>
    .canvas{fill:#f7f9fc}.frame{fill:#fff;stroke:#d8e0ea;stroke-width:1.5}
    .title{font-family:"Architects Daughter","Comic Sans MS","Comic Sans",cursive;font-size:43px;font-weight:400;fill:#102033}
    .subtitle{font-family:"Comic Sans MS","Comic Sans","Comic Neue",Arial,sans-serif;font-size:15px;font-weight:400;fill:#536273}
    .label{font-family:"Architects Daughter","Comic Sans MS","Comic Sans",cursive;font-size:25px;font-weight:400;fill:#102033}
    .smallLabel{font-family:"Architects Daughter","Comic Sans MS","Comic Sans",cursive;font-size:21px;font-weight:400;fill:#102033}
    .mono{font-family:"Comic Sans MS","Comic Sans","Comic Neue",Arial,sans-serif;font-size:12px;font-weight:400;fill:#102033}
    .small{font-family:"Comic Sans MS","Comic Sans","Comic Neue",Arial,sans-serif;font-size:12px;font-weight:400;fill:#536273}
    .strong{font-family:"Comic Sans MS","Comic Sans","Comic Neue",Arial,sans-serif;font-size:13px;font-weight:400;fill:#102033}
    .card{stroke-width:2.1;filter:url(#shadow)}.compartment{stroke-width:1.5;fill:none}
    .line{stroke:#758297;stroke-width:2.1;fill:none;marker-end:url(#openArrow)}
    .plainLine{stroke:#758297;stroke-width:2.1;fill:none}
    .dashed{stroke:#758297;stroke-width:2.1;stroke-dasharray:7 6;fill:none;marker-end:url(#openArrow)}
    .inheritLine{stroke:#758297;stroke-width:2.2;fill:none;marker-end:url(#inherit)}
    .implLine{stroke:#758297;stroke-width:2.2;stroke-dasharray:8 7;fill:none;marker-end:url(#inherit)}
  </style>
</defs>
<rect class="canvas" width="1624" height="1852"/>
<rect class="frame" x="32" y="28" width="1560" height="1796" rx="28"/>
<text class="title" x="66" y="82">cache warmer Sequence Flow</text>
<text class="subtitle" x="70" y="118">Sequence messages from the original Mermaid source</text>
<rect class="card" x="-10" y="166" width="300" height="72" rx="20" fill="#E8F3FF" stroke="#5B8DEF"/>
<text class="smallLabel" x="140" y="209" text-anchor="middle">Cron</text>
<line class="lifeline" x1="140" y1="252" x2="140" y2="1792" stroke="#b7c2d1" stroke-width="2" stroke-dasharray="10 10"/>
<rect class="card" x="438" y="166" width="300" height="72" rx="20" fill="#EAF7EF" stroke="#58A978"/>
<text class="smallLabel" x="588" y="209" text-anchor="middle">Node-1</text>
<line class="lifeline" x1="588" y1="252" x2="588" y2="1792" stroke="#b7c2d1" stroke-width="2" stroke-dasharray="10 10"/>
<rect class="card" x="886" y="166" width="300" height="72" rx="20" fill="#FFF3D9" stroke="#D6A441"/>
<text class="smallLabel" x="1036" y="209" text-anchor="middle">Node-2</text>
<line class="lifeline" x1="1036" y1="252" x2="1036" y2="1792" stroke="#b7c2d1" stroke-width="2" stroke-dasharray="10 10"/>
<rect class="card" x="1334" y="166" width="300" height="72" rx="20" fill="#FDECEF" stroke="#DC6B82"/>
<text class="smallLabel" x="1484" y="198.5" text-anchor="middle">Hazelcast (IMap</text>
<text class="smallLabel" x="1484" y="219.5" text-anchor="middle">lock)</text>
<line class="lifeline" x1="1484" y1="252" x2="1484" y2="1792" stroke="#b7c2d1" stroke-width="2" stroke-dasharray="10 10"/>
<rect x="259" y="286" width="210" height="40" rx="12" fill="#ffffff" opacity="0.97"/>
<text class="strong" x="277" y="313" text-anchor="start">1. tick — warmAll()</text>
<path class="line" d="M140 344 L588 344"/>
<rect x="483" y="396" width="210" height="40" rx="12" fill="#ffffff" opacity="0.97"/>
<text class="strong" x="501" y="423" text-anchor="start">2. tick — warmAll()</text>
<path class="line" d="M140 454 L1036 454"/>
<rect x="70" y="506" width="1484" height="40" rx="16" fill="#F7F1E7" stroke="#B88A44" stroke-width="1.6" opacity="0.96"/>
<text class="strong" x="92" y="533" text-anchor="start">PAR: partition=region-asia</text>
<rect x="864.5" y="574" width="343" height="40" rx="12" fill="#ffffff" opacity="0.97"/>
<text class="strong" x="882.5" y="601" text-anchor="start">4. tryLock(warmer:product-region-asia)</text>
<path class="line" d="M588 632 L1484 632"/>
<rect x="1088.5" y="684" width="343" height="40" rx="12" fill="#ffffff" opacity="0.97"/>
<text class="strong" x="1106.5" y="711" text-anchor="start">5. tryLock(warmer:product-region-asia)</text>
<path class="line" d="M1036 742 L1484 742"/>
<rect x="931" y="794" width="210" height="40" rx="12" fill="#ffffff" opacity="0.97"/>
<text class="strong" x="949" y="821" text-anchor="start">6. acquired</text>
<path class="dashed" d="M1484 852 L588 852"/>
<rect x="1155" y="904" width="210" height="40" rx="12" fill="#ffffff" opacity="0.97"/>
<text class="strong" x="1173" y="931" text-anchor="start">7. skipped (null)</text>
<path class="dashed" d="M1484 962 L1036 962"/>
<rect x="505" y="1014" width="262" height="40" rx="12" fill="#ffffff" opacity="0.97"/>
<text class="strong" x="523" y="1041" text-anchor="start">8. warmFunction(region-asia)</text>
<path class="line" d="M588 1072 C652 1072 652 1106 588 1106"/>
<rect x="70" y="1144" width="1484" height="40" rx="16" fill="#F7F1E7" stroke="#B88A44" stroke-width="1.6" opacity="0.96"/>
<text class="strong" x="92" y="1171" text-anchor="start">PAR: partition=region-eu</text>
<rect x="868.5" y="1212" width="335" height="40" rx="12" fill="#ffffff" opacity="0.97"/>
<text class="strong" x="886.5" y="1239" text-anchor="start">10. tryLock(warmer:product-region-eu)</text>
<path class="line" d="M588 1270 L1484 1270"/>
<rect x="1092.5" y="1322" width="335" height="40" rx="12" fill="#ffffff" opacity="0.97"/>
<text class="strong" x="1110.5" y="1349" text-anchor="start">11. tryLock(warmer:product-region-eu)</text>
<path class="line" d="M1036 1380 L1484 1380"/>
<rect x="1155" y="1432" width="210" height="40" rx="12" fill="#ffffff" opacity="0.97"/>
<text class="strong" x="1173" y="1459" text-anchor="start">12. acquired</text>
<path class="dashed" d="M1484 1490 L1036 1490"/>
<rect x="931" y="1542" width="210" height="40" rx="12" fill="#ffffff" opacity="0.97"/>
<text class="strong" x="949" y="1569" text-anchor="start">13. skipped (null)</text>
<path class="dashed" d="M1484 1600 L588 1600"/>
<rect x="957" y="1652" width="254" height="40" rx="12" fill="#ffffff" opacity="0.97"/>
<text class="strong" x="975" y="1679" text-anchor="start">14. warmFunction(region-eu)</text>
<path class="line" d="M1036 1710 C1100 1710 1100 1744 1036 1744"/>
</svg>
