<?xml version="1.0" encoding="UTF-8" standalone="no"?>
<!DOCTYPE svg PUBLIC "-//W3C//DTD SVG 1.1//EN"
 "http://www.w3.org/Graphics/SVG/1.1/DTD/svg11.dtd">
<!-- Generated by graphviz version 15.0.0 (20260523.1842)
 -->
<!-- Title: examples&#45;migration&#45;gate&#45;architecture&#45;01 Pages: 1 -->
<svg width="1375pt" height="136pt"
 viewBox="0.00 0.00 1375.00 136.00" xmlns="http://www.w3.org/2000/svg" xmlns:xlink="http://www.w3.org/1999/xlink">
<g id="graph0" class="graph" transform="scale(1 1) rotate(0) translate(4 132)">
<title>examples&#45;migration&#45;gate&#45;architecture&#45;01</title>
<!-- trigger -->
<g id="node1" class="node">
<title>trigger</title>
<path fill="#f8fafc" stroke="#94a3b8" d="M109,-77C109,-77 12,-77 12,-77 6,-77 0,-71 0,-65 0,-65 0,-53 0,-53 0,-47 6,-41 12,-41 12,-41 109,-41 109,-41 115,-41 121,-47 121,-53 121,-53 121,-65 121,-65 121,-71 115,-77 109,-77"/>
<text xml:space="preserve" text-anchor="middle" x="60.5" y="-53.58" font-family="Comic Mono" font-size="14.00">Deploy Startup</text>
</g>
<!-- nodeA -->
<g id="node2" class="node">
<title>nodeA</title>
<path fill="#f8fafc" stroke="#94a3b8" d="M332,-119C332,-119 220,-119 220,-119 214,-119 208,-113 208,-107 208,-107 208,-95 208,-95 208,-89 214,-83 220,-83 220,-83 332,-83 332,-83 338,-83 344,-89 344,-95 344,-95 344,-107 344,-107 344,-113 338,-119 332,-119"/>
<text xml:space="preserve" text-anchor="middle" x="276" y="-95.58" font-family="Comic Mono" font-size="14.00">Candidate Node A</text>
</g>
<!-- trigger&#45;&gt;nodeA -->
<g id="edge1" class="edge">
<title>trigger&#45;&gt;nodeA</title>
<path fill="none" stroke="#758297" d="M60.25,-77.06C60.25,-88.44 60.25,-101 60.25,-101 60.25,-101 196.22,-101 196.22,-101"/>
<polygon fill="#758297" stroke="#758297" points="196.22,-104.5 206.22,-101 196.22,-97.5 196.22,-104.5"/>
<text xml:space="preserve" text-anchor="middle" x="164.5" y="-98.5" font-family="Comic Mono" font-size="10.00">call</text>
</g>
<!-- nodeB -->
<g id="node3" class="node">
<title>nodeB</title>
<path fill="#f8fafc" stroke="#94a3b8" d="M332,-36C332,-36 220,-36 220,-36 214,-36 208,-30 208,-24 208,-24 208,-12 208,-12 208,-6 214,0 220,0 220,0 332,0 332,0 338,0 344,-6 344,-12 344,-12 344,-24 344,-24 344,-30 338,-36 332,-36"/>
<text xml:space="preserve" text-anchor="middle" x="276" y="-12.57" font-family="Comic Mono" font-size="14.00">Candidate Node B</text>
</g>
<!-- trigger&#45;&gt;nodeB -->
<g id="edge2" class="edge">
<title>trigger&#45;&gt;nodeB</title>
<path fill="none" stroke="#758297" d="M60.25,-40.9C60.25,-29.91 60.25,-18 60.25,-18 60.25,-18 196.22,-18 196.22,-18"/>
<polygon fill="#758297" stroke="#758297" points="196.22,-21.5 206.22,-18 196.22,-14.5 196.22,-21.5"/>
<text xml:space="preserve" text-anchor="middle" x="164.5" y="-29.5" font-family="Comic Mono" font-size="10.00">call</text>
</g>
<!-- coordinator -->
<g id="node4" class="node">
<title>coordinator</title>
<path fill="#f8fafc" stroke="#94a3b8" d="M532.5,-77C532.5,-77 443,-77 443,-77 437,-77 431,-71 431,-65 431,-65 431,-53 431,-53 431,-47 437,-41 443,-41 443,-41 532.5,-41 532.5,-41 538.5,-41 544.5,-47 544.5,-53 544.5,-53 544.5,-65 544.5,-65 544.5,-71 538.5,-77 532.5,-77"/>
<text xml:space="preserve" text-anchor="middle" x="487.75" y="-53.58" font-family="Comic Mono" font-size="14.00">MigrationGate</text>
</g>
<!-- nodeA&#45;&gt;coordinator -->
<g id="edge3" class="edge">
<title>nodeA&#45;&gt;coordinator</title>
<path fill="none" stroke="#758297" d="M344.3,-87.5C406.01,-87.5 487.25,-87.5 487.25,-87.5 487.25,-87.5 487.25,-86.47 487.25,-86.47"/>
<polygon fill="#758297" stroke="#758297" points="490.75,-88.72 487.25,-78.72 483.75,-88.72 490.75,-88.72"/>
<text xml:space="preserve" text-anchor="middle" x="387.5" y="-98.5" font-family="Comic Mono" font-size="10.00">call</text>
</g>
<!-- nodeB&#45;&gt;coordinator -->
<g id="edge4" class="edge">
<title>nodeB&#45;&gt;coordinator</title>
<path fill="none" stroke="#758297" d="M344.3,-22.5C406.01,-22.5 487.25,-22.5 487.25,-22.5 487.25,-22.5 487.25,-29.24 487.25,-29.24"/>
<polygon fill="#758297" stroke="#758297" points="483.75,-29.24 487.25,-39.24 490.75,-29.24 483.75,-29.24"/>
<text xml:space="preserve" text-anchor="middle" x="387.5" y="-29.5" font-family="Comic Mono" font-size="10.00">call</text>
</g>
<!-- elector -->
<g id="node6" class="node">
<title>elector</title>
<path fill="#f8fafc" stroke="#94a3b8" d="M817,-128C817,-128 675,-128 675,-128 669,-128 663,-122 663,-116 663,-116 663,-104 663,-104 663,-98 669,-92 675,-92 675,-92 817,-92 817,-92 823,-92 829,-98 829,-104 829,-104 829,-116 829,-116 829,-122 823,-128 817,-128"/>
<text xml:space="preserve" text-anchor="middle" x="746" y="-104.58" font-family="Comic Mono" font-size="14.00">Exposed JDBC Elector</text>
</g>
<!-- coordinator&#45;&gt;elector -->
<g id="edge5" class="edge">
<title>coordinator&#45;&gt;elector</title>
<path fill="none" stroke="#758297" d="M544.82,-66.33C600.3,-66.33 676.25,-66.33 676.25,-66.33 676.25,-66.33 676.25,-80.22 676.25,-80.22"/>
<polygon fill="#758297" stroke="#758297" points="672.75,-80.22 676.25,-90.22 679.75,-80.22 672.75,-80.22"/>
<text xml:space="preserve" text-anchor="middle" x="603.75" y="-102.5" font-family="Comic Mono" font-size="10.00">dependency</text>
</g>
<!-- work -->
<g id="node8" class="node">
<title>work</title>
<path fill="#f8fafc" stroke="#94a3b8" d="M790.75,-45C790.75,-45 701.25,-45 701.25,-45 695.25,-45 689.25,-39 689.25,-33 689.25,-33 689.25,-21 689.25,-21 689.25,-15 695.25,-9 701.25,-9 701.25,-9 790.75,-9 790.75,-9 796.75,-9 802.75,-15 802.75,-21 802.75,-21 802.75,-33 802.75,-33 802.75,-39 796.75,-45 790.75,-45"/>
<text xml:space="preserve" text-anchor="middle" x="746" y="-21.57" font-family="Comic Mono" font-size="14.00">Run Migration</text>
</g>
<!-- coordinator&#45;&gt;work -->
<g id="edge7" class="edge">
<title>coordinator&#45;&gt;work</title>
<path fill="none" stroke="#758297" d="M544.8,-55.67C620.92,-55.67 746.25,-55.67 746.25,-55.67 746.25,-55.67 746.25,-54.63 746.25,-54.63"/>
<polygon fill="#758297" stroke="#758297" points="749.75,-56.83 746.25,-46.83 742.75,-56.83 749.75,-56.83"/>
<text xml:space="preserve" text-anchor="middle" x="603.75" y="-29.5" font-family="Comic Mono" font-size="10.00">success</text>
</g>
<!-- backend -->
<g id="node5" class="node">
<title>backend</title>
<path fill="#f8fafc" stroke="#94a3b8" d="M1079,-128C1079,-128 959.5,-128 959.5,-128 953.5,-128 947.5,-122 947.5,-116 947.5,-116 947.5,-104 947.5,-104 947.5,-98 953.5,-92 959.5,-92 959.5,-92 1079,-92 1079,-92 1085,-92 1091,-98 1091,-104 1091,-104 1091,-116 1091,-116 1091,-122 1085,-128 1079,-128"/>
<text xml:space="preserve" text-anchor="middle" x="1019.25" y="-104.58" font-family="Comic Mono" font-size="14.00">leader lock table</text>
</g>
<!-- recovery -->
<g id="node7" class="node">
<title>recovery</title>
<path fill="#f8fafc" stroke="#94a3b8" d="M1355.25,-128C1355.25,-128 1205.75,-128 1205.75,-128 1199.75,-128 1193.75,-122 1193.75,-116 1193.75,-116 1193.75,-104 1193.75,-104 1193.75,-98 1199.75,-92 1205.75,-92 1205.75,-92 1355.25,-92 1355.25,-92 1361.25,-92 1367.25,-98 1367.25,-104 1367.25,-104 1367.25,-116 1367.25,-116 1367.25,-122 1361.25,-128 1355.25,-128"/>
<text xml:space="preserve" text-anchor="middle" x="1280.5" y="-104.58" font-family="Comic Mono" font-size="14.00">Schema Marker Recheck</text>
</g>
<!-- backend&#45;&gt;recovery -->
<g id="edge8" class="edge">
<title>backend&#45;&gt;recovery</title>
<path fill="none" stroke="#758297" d="M1091.33,-110C1091.33,-110 1181.81,-110 1181.81,-110"/>
<polygon fill="#758297" stroke="#758297" points="1181.81,-113.5 1191.81,-110 1181.81,-106.5 1181.81,-113.5"/>
<text xml:space="preserve" text-anchor="middle" x="1142.38" y="-112.5" font-family="Comic Mono" font-size="10.00">release</text>
</g>
<!-- elector&#45;&gt;backend -->
<g id="edge6" class="edge">
<title>elector&#45;&gt;backend</title>
<path fill="none" stroke="#758297" d="M829.47,-110C829.47,-110 935.85,-110 935.85,-110"/>
<polygon fill="#758297" stroke="#758297" points="935.85,-113.5 945.85,-110 935.85,-106.5 935.85,-113.5"/>
<text xml:space="preserve" text-anchor="middle" x="888.25" y="-112.5" font-family="Comic Mono" font-size="10.00">contention</text>
</g>
</g>
</svg>
