<svg xmlns="http://www.w3.org/2000/svg" width="1340" height="630" viewBox="0 0 1340 630" role="img" aria-label="Webhook Poller Architecture">
  <metadata id="graphviz-evidence">Regenerated with Graphviz evidence: examples-webhook-poller-architecture-01.dot, examples-webhook-poller-architecture-01.plain, examples-webhook-poller-architecture-01-graphviz.svg via scripts/regenerate-readme-diagram-graphviz-evidence.mjs.</metadata>
<defs>
  <filter id="shadow" x="-8%" y="-8%" width="116%" height="116%"><feDropShadow dx="0" dy="8" stdDeviation="9" flood-color="#1f2937" flood-opacity="0.10"/></filter>
  <marker id="openArrow" markerWidth="12" markerHeight="10" refX="10" refY="5" orient="auto" markerUnits="strokeWidth"><path d="M 1 1 L 10 5 L 1 9" fill="none" stroke="#758297" stroke-width="1.8" stroke-linecap="round" stroke-linejoin="round"/></marker>
  <style>
    .canvas{fill:#f7f9fc}.frame{fill:#fff;stroke:#d8e0ea;stroke-width:1.5}
    .title{font-family:"Architects Daughter","Comic Mono","Comic Sans MS","Comic Sans",cursive;font-size:43px;font-weight:400;fill:#102033}
    .subtitle{font-family:"Comic Mono","Comic Sans MS","Comic Sans","Comic Neue",Arial,sans-serif;font-size:15px;font-weight:400;fill:#536273}
    .smallLabel{font-family:"Architects Daughter","Comic Mono","Comic Sans MS","Comic Sans",cursive;font-size:21px;font-weight:400;fill:#102033}
    .mono{font-family:"Comic Mono","Comic Sans MS","Comic Sans","Comic Neue",Arial,sans-serif;font-size:12px;font-weight:400;fill:#102033}
    .strong{font-family:"Comic Mono","Comic Sans MS","Comic Sans","Comic Neue",Arial,sans-serif;font-size:13px;font-weight:400;fill:#102033}
    .card{stroke-width:2.1;filter:url(#shadow)}
    .line{stroke:#758297;stroke-width:2.1;fill:none;marker-end:url(#openArrow)}
    .dashed{stroke:#758297;stroke-width:2.1;stroke-dasharray:7 6;fill:none;marker-end:url(#openArrow)}
    .lifeline{stroke:#b7c2d1;stroke-width:2;stroke-dasharray:10 10}
  </style>
</defs>
<rect class="canvas" width="1340" height="630"/>
<rect class="frame" x="32" y="28" width="1276" height="574" rx="28"/>
<text class="title" x="66" y="82">Webhook Poller Architecture</text>
<text class="subtitle" x="70" y="118">One elected poller claims MongoDB events atomically and processes each claim at least once</text>
<path class="line" d="M300 196 L340 196 L340 281 L380 281"/>
<path class="line" d="M300 366 L340 366 L340 281 L380 281"/>
<path class="line" d="M610 281 L650 281 L650 196 L690 196"/>
<path class="line" d="M805 242 L805 281 L805 281 L805 320"/>
<path class="line" d="M920 196 L960 196 L960 281 L1000 281"/>
<path class="line" d="M920 366 L960 366 L960 281 L1000 281"/>
<g id="pollerA" transform="translate(70,150)">
  <rect class="card" x="0" y="0" width="230" height="92" rx="14" fill="#E8F3FF" stroke="#5B8DEF"/>
  <text class="smallLabel" x="115" y="28" text-anchor="middle">Poller node-A</text>
  <text class="mono" x="115" y="53" text-anchor="middle">runLoop</text>
  <text class="mono" x="115" y="70" text-anchor="middle">candidate</text>
</g>
<g id="pollerB" transform="translate(70,320)">
  <rect class="card" x="0" y="0" width="230" height="92" rx="14" fill="#EAF7EF" stroke="#58A978"/>
  <text class="smallLabel" x="115" y="28" text-anchor="middle">Poller node-B</text>
  <text class="mono" x="115" y="53" text-anchor="middle">runLoop</text>
  <text class="mono" x="115" y="70" text-anchor="middle">standby</text>
</g>
<g id="elector" transform="translate(380,235)">
  <rect class="card" x="0" y="0" width="230" height="92" rx="14" fill="#FFF3D9" stroke="#D6A441"/>
  <text class="smallLabel" x="115" y="28" text-anchor="middle">SuspendLeaderElector</text>
  <text class="mono" x="115" y="53" text-anchor="middle">lockName</text>
  <text class="mono" x="115" y="70" text-anchor="middle">handoff on death</text>
</g>
<g id="claim" transform="translate(690,150)">
  <rect class="card" x="0" y="0" width="230" height="92" rx="14" fill="#FDECEF" stroke="#DC6B82"/>
  <text class="smallLabel" x="115" y="28" text-anchor="middle">claimNext</text>
  <text class="mono" x="115" y="53" text-anchor="middle">findOneAndUpdate</text>
  <text class="mono" x="115" y="70" text-anchor="middle">attempts +1</text>
</g>
<g id="handler" transform="translate(690,320)">
  <rect class="card" x="0" y="0" width="230" height="92" rx="14" fill="#E9F7F6" stroke="#45A7A1"/>
  <text class="smallLabel" x="115" y="28" text-anchor="middle">handler(event)</text>
  <text class="mono" x="115" y="53" text-anchor="middle">markDone</text>
  <text class="mono" x="115" y="70" text-anchor="middle">requeue or FAILED</text>
</g>
<g id="mongo" transform="translate(1000,235)">
  <rect class="card" x="0" y="0" width="230" height="92" rx="14" fill="#F1ECFF" stroke="#8A72D6"/>
  <text class="smallLabel" x="115" y="28" text-anchor="middle">Mongo events</text>
  <text class="mono" x="115" y="53" text-anchor="middle">PENDING/CLAIMED/DONE</text>
  <text class="mono" x="115" y="70" text-anchor="middle">claimExpiresAt index</text>
</g>
</svg>
