<?xml version="1.0" encoding="UTF-8" standalone="no"?>
<!DOCTYPE svg PUBLIC "-//W3C//DTD SVG 1.1//EN"
 "http://www.w3.org/Graphics/SVG/1.1/DTD/svg11.dtd">
<!-- Generated by graphviz version 15.0.0 (20260523.1842)
 -->
<!-- Title: examples&#45;dynamodb&#45;export&#45;flow&#45;01 Pages: 1 -->
<svg width="1675pt" height="127pt"
 viewBox="0.00 0.00 1675.00 127.00" xmlns="http://www.w3.org/2000/svg" xmlns:xlink="http://www.w3.org/1999/xlink">
<g id="graph0" class="graph" transform="scale(1 1) rotate(0) translate(4 123)">
<title>examples&#45;dynamodb&#45;export&#45;flow&#45;01</title>
<!-- start -->
<g id="node1" class="node">
<title>start</title>
<path fill="#f8fafc" stroke="#94a3b8" d="M109,-68C109,-68 12,-68 12,-68 6,-68 0,-62 0,-56 0,-56 0,-44 0,-44 0,-38 6,-32 12,-32 12,-32 109,-32 109,-32 115,-32 121,-38 121,-44 121,-44 121,-56 121,-56 121,-62 115,-68 109,-68"/>
<text xml:space="preserve" text-anchor="middle" x="60.5" y="-44.58" font-family="Comic Mono" font-size="14.00">Export Request</text>
</g>
<!-- validate -->
<g id="node2" class="node">
<title>validate</title>
<path fill="#f8fafc" stroke="#94a3b8" d="M384.5,-68C384.5,-68 220,-68 220,-68 214,-68 208,-62 208,-56 208,-56 208,-44 208,-44 208,-38 214,-32 220,-32 220,-32 384.5,-32 384.5,-32 390.5,-32 396.5,-38 396.5,-44 396.5,-44 396.5,-56 396.5,-56 396.5,-62 390.5,-68 384.5,-68"/>
<text xml:space="preserve" text-anchor="middle" x="302.25" y="-44.58" font-family="Comic Mono" font-size="14.00">Validate Example Inputs</text>
</g>
<!-- start&#45;&gt;validate -->
<g id="edge1" class="edge">
<title>start&#45;&gt;validate</title>
<path fill="none" stroke="#758297" d="M121.19,-50C121.19,-50 196.11,-50 196.11,-50"/>
<polygon fill="#758297" stroke="#758297" points="196.11,-53.5 206.11,-50 196.11,-46.5 196.11,-53.5"/>
<text xml:space="preserve" text-anchor="middle" x="164.5" y="-52.5" font-family="Comic Mono" font-size="10.00">call</text>
</g>
<!-- attempt -->
<g id="node3" class="node">
<title>attempt</title>
<path fill="#f8fafc" stroke="#94a3b8" d="M691.5,-68C691.5,-68 527,-68 527,-68 521,-68 515,-62 515,-56 515,-56 515,-44 515,-44 515,-38 521,-32 527,-32 527,-32 691.5,-32 691.5,-32 697.5,-32 703.5,-38 703.5,-44 703.5,-44 703.5,-56 703.5,-56 703.5,-62 697.5,-68 691.5,-68"/>
<text xml:space="preserve" text-anchor="middle" x="609.25" y="-44.58" font-family="Comic Mono" font-size="14.00">DynamoDB leader elector</text>
</g>
<!-- validate&#45;&gt;attempt -->
<g id="edge2" class="edge">
<title>validate&#45;&gt;attempt</title>
<path fill="none" stroke="#758297" d="M396.87,-50C396.87,-50 503.17,-50 503.17,-50"/>
<polygon fill="#758297" stroke="#758297" points="503.17,-53.5 513.17,-50 503.17,-46.5 503.17,-53.5"/>
<text xml:space="preserve" text-anchor="middle" x="455.75" y="-52.5" font-family="Comic Mono" font-size="10.00">dependency</text>
</g>
<!-- decision -->
<g id="node4" class="node">
<title>decision</title>
<path fill="#f8fafc" stroke="#94a3b8" d="M953.5,-68C953.5,-68 834,-68 834,-68 828,-68 822,-62 822,-56 822,-56 822,-44 822,-44 822,-38 828,-32 834,-32 834,-32 953.5,-32 953.5,-32 959.5,-32 965.5,-38 965.5,-44 965.5,-44 965.5,-56 965.5,-56 965.5,-62 959.5,-68 953.5,-68"/>
<text xml:space="preserve" text-anchor="middle" x="893.75" y="-44.58" font-family="Comic Mono" font-size="14.00">Leadership Result</text>
</g>
<!-- attempt&#45;&gt;decision -->
<g id="edge3" class="edge">
<title>attempt&#45;&gt;decision</title>
<path fill="none" stroke="#758297" d="M703.98,-50C703.98,-50 810.42,-50 810.42,-50"/>
<polygon fill="#758297" stroke="#758297" points="810.42,-53.5 820.42,-50 810.42,-46.5 810.42,-53.5"/>
<text xml:space="preserve" text-anchor="middle" x="762.75" y="-52.5" font-family="Comic Mono" font-size="10.00">contention</text>
</g>
<!-- execute -->
<g id="node6" class="node">
<title>execute</title>
<path fill="#f8fafc" stroke="#94a3b8" d="M1169.75,-119C1169.75,-119 1087.75,-119 1087.75,-119 1081.75,-119 1075.75,-113 1075.75,-107 1075.75,-107 1075.75,-95 1075.75,-95 1075.75,-89 1081.75,-83 1087.75,-83 1087.75,-83 1169.75,-83 1169.75,-83 1175.75,-83 1181.75,-89 1181.75,-95 1181.75,-95 1181.75,-107 1181.75,-107 1181.75,-113 1175.75,-119 1169.75,-119"/>
<text xml:space="preserve" text-anchor="middle" x="1128.75" y="-95.58" font-family="Comic Mono" font-size="14.00">Export Batch</text>
</g>
<!-- decision&#45;&gt;execute -->
<g id="edge4" class="edge">
<title>decision&#45;&gt;execute</title>
<path fill="none" stroke="#758297" d="M965.85,-57.33C1034.93,-57.33 1128.75,-57.33 1128.75,-57.33 1128.75,-57.33 1128.75,-71.22 1128.75,-71.22"/>
<polygon fill="#758297" stroke="#758297" points="1125.25,-71.22 1128.75,-81.22 1132.25,-71.22 1125.25,-71.22"/>
<text xml:space="preserve" text-anchor="middle" x="1016.88" y="-93.5" font-family="Comic Mono" font-size="10.00">success</text>
</g>
<!-- skipped -->
<g id="node8" class="node">
<title>skipped</title>
<path fill="#f8fafc" stroke="#94a3b8" d="M1177.25,-36C1177.25,-36 1080.25,-36 1080.25,-36 1074.25,-36 1068.25,-30 1068.25,-24 1068.25,-24 1068.25,-12 1068.25,-12 1068.25,-6 1074.25,0 1080.25,0 1080.25,0 1177.25,0 1177.25,0 1183.25,0 1189.25,-6 1189.25,-12 1189.25,-12 1189.25,-24 1189.25,-24 1189.25,-30 1183.25,-36 1177.25,-36"/>
<text xml:space="preserve" text-anchor="middle" x="1128.75" y="-12.57" font-family="Comic Mono" font-size="14.00">Return Skipped</text>
</g>
<!-- decision&#45;&gt;skipped -->
<g id="edge7" class="edge">
<title>decision&#45;&gt;skipped</title>
<path fill="none" stroke="#758297" d="M965.89,-46.67C1015.23,-46.67 1071.75,-46.67 1071.75,-46.67 1071.75,-46.67 1071.75,-45.63 1071.75,-45.63"/>
<polygon fill="#758297" stroke="#758297" points="1075.25,-47.83 1071.75,-37.83 1068.25,-47.83 1075.25,-47.83"/>
<text xml:space="preserve" text-anchor="middle" x="1016.88" y="-20.5" font-family="Comic Mono" font-size="10.00">skip</text>
</g>
<!-- release -->
<g id="node5" class="node">
<title>release</title>
<path fill="#f8fafc" stroke="#94a3b8" d="M1423.5,-119C1423.5,-119 1304,-119 1304,-119 1298,-119 1292,-113 1292,-107 1292,-107 1292,-95 1292,-95 1292,-89 1298,-83 1304,-83 1304,-83 1423.5,-83 1423.5,-83 1429.5,-83 1435.5,-89 1435.5,-95 1435.5,-95 1435.5,-107 1435.5,-107 1435.5,-113 1429.5,-119 1423.5,-119"/>
<text xml:space="preserve" text-anchor="middle" x="1363.75" y="-95.58" font-family="Comic Mono" font-size="14.00">Release Or Extend</text>
</g>
<!-- executed -->
<g id="node7" class="node">
<title>executed</title>
<path fill="#f8fafc" stroke="#94a3b8" d="M1654.75,-119C1654.75,-119 1550.25,-119 1550.25,-119 1544.25,-119 1538.25,-113 1538.25,-107 1538.25,-107 1538.25,-95 1538.25,-95 1538.25,-89 1544.25,-83 1550.25,-83 1550.25,-83 1654.75,-83 1654.75,-83 1660.75,-83 1666.75,-89 1666.75,-95 1666.75,-95 1666.75,-107 1666.75,-107 1666.75,-113 1660.75,-119 1654.75,-119"/>
<text xml:space="preserve" text-anchor="middle" x="1602.5" y="-95.58" font-family="Comic Mono" font-size="14.00">Return Executed</text>
</g>
<!-- release&#45;&gt;executed -->
<g id="edge6" class="edge">
<title>release&#45;&gt;executed</title>
<path fill="none" stroke="#758297" d="M1435.71,-101C1435.71,-101 1526.48,-101 1526.48,-101"/>
<polygon fill="#758297" stroke="#758297" points="1526.48,-104.5 1536.48,-101 1526.48,-97.5 1526.48,-104.5"/>
<text xml:space="preserve" text-anchor="middle" x="1486.88" y="-103.5" font-family="Comic Mono" font-size="10.00">success</text>
</g>
<!-- execute&#45;&gt;release -->
<g id="edge5" class="edge">
<title>execute&#45;&gt;release</title>
<path fill="none" stroke="#758297" d="M1182.08,-101C1182.08,-101 1280.41,-101 1280.41,-101"/>
<polygon fill="#758297" stroke="#758297" points="1280.41,-104.5 1290.41,-101 1280.41,-97.5 1280.41,-104.5"/>
<text xml:space="preserve" text-anchor="middle" x="1240.62" y="-103.5" font-family="Comic Mono" font-size="10.00">release</text>
</g>
</g>
</svg>
