<?xml version="1.0" encoding="UTF-8" standalone="no"?>
<!DOCTYPE svg PUBLIC "-//W3C//DTD SVG 1.1//EN"
 "http://www.w3.org/Graphics/SVG/1.1/DTD/svg11.dtd">
<!-- Generated by graphviz version 15.0.0 (20260523.1842)
 -->
<!-- Title: examples&#45;ktor&#45;app&#45;architecture&#45;01 Pages: 1 -->
<svg width="1450pt" height="136pt"
 viewBox="0.00 0.00 1450.00 136.00" xmlns="http://www.w3.org/2000/svg" xmlns:xlink="http://www.w3.org/1999/xlink">
<g id="graph0" class="graph" transform="scale(1 1) rotate(0) translate(4 132)">
<title>examples&#45;ktor&#45;app&#45;architecture&#45;01</title>
<!-- trigger -->
<g id="node1" class="node">
<title>trigger</title>
<path fill="#f8fafc" stroke="#94a3b8" d="M146.5,-77C146.5,-77 12,-77 12,-77 6,-77 0,-71 0,-65 0,-65 0,-53 0,-53 0,-47 6,-41 12,-41 12,-41 146.5,-41 146.5,-41 152.5,-41 158.5,-47 158.5,-53 158.5,-53 158.5,-65 158.5,-65 158.5,-71 152.5,-77 146.5,-77"/>
<text xml:space="preserve" text-anchor="middle" x="79.25" y="-53.58" font-family="Comic Mono" font-size="14.00">Background Schedule</text>
</g>
<!-- nodeA -->
<g id="node2" class="node">
<title>nodeA</title>
<path fill="#f8fafc" stroke="#94a3b8" d="M369.5,-119C369.5,-119 257.5,-119 257.5,-119 251.5,-119 245.5,-113 245.5,-107 245.5,-107 245.5,-95 245.5,-95 245.5,-89 251.5,-83 257.5,-83 257.5,-83 369.5,-83 369.5,-83 375.5,-83 381.5,-89 381.5,-95 381.5,-95 381.5,-107 381.5,-107 381.5,-113 375.5,-119 369.5,-119"/>
<text xml:space="preserve" text-anchor="middle" x="313.5" y="-95.58" font-family="Comic Mono" font-size="14.00">Candidate Node A</text>
</g>
<!-- trigger&#45;&gt;nodeA -->
<g id="edge1" class="edge">
<title>trigger&#45;&gt;nodeA</title>
<path fill="none" stroke="#758297" d="M158.86,-69.8C212.03,-69.8 272.25,-69.8 272.25,-69.8 272.25,-69.8 272.25,-71.34 272.25,-71.34"/>
<polygon fill="#758297" stroke="#758297" points="268.75,-71.34 272.25,-81.34 275.75,-71.34 268.75,-71.34"/>
<text xml:space="preserve" text-anchor="middle" x="202" y="-98.5" font-family="Comic Mono" font-size="10.00">call</text>
</g>
<!-- nodeB -->
<g id="node3" class="node">
<title>nodeB</title>
<path fill="#f8fafc" stroke="#94a3b8" d="M369.5,-36C369.5,-36 257.5,-36 257.5,-36 251.5,-36 245.5,-30 245.5,-24 245.5,-24 245.5,-12 245.5,-12 245.5,-6 251.5,0 257.5,0 257.5,0 369.5,0 369.5,0 375.5,0 381.5,-6 381.5,-12 381.5,-12 381.5,-24 381.5,-24 381.5,-30 375.5,-36 369.5,-36"/>
<text xml:space="preserve" text-anchor="middle" x="313.5" y="-12.57" font-family="Comic Mono" font-size="14.00">Candidate Node B</text>
</g>
<!-- trigger&#45;&gt;nodeB -->
<g id="edge2" class="edge">
<title>trigger&#45;&gt;nodeB</title>
<path fill="none" stroke="#758297" d="M158.72,-55.4C222.08,-55.4 300.25,-55.4 300.25,-55.4 300.25,-55.4 300.25,-47.78 300.25,-47.78"/>
<polygon fill="#758297" stroke="#758297" points="303.75,-47.78 300.25,-37.78 296.75,-47.78 303.75,-47.78"/>
<text xml:space="preserve" text-anchor="middle" x="202" y="-29.5" font-family="Comic Mono" font-size="10.00">call</text>
</g>
<!-- coordinator -->
<g id="node4" class="node">
<title>coordinator</title>
<path fill="#f8fafc" stroke="#94a3b8" d="M622.5,-77C622.5,-77 480.5,-77 480.5,-77 474.5,-77 468.5,-71 468.5,-65 468.5,-65 468.5,-53 468.5,-53 468.5,-47 474.5,-41 480.5,-41 480.5,-41 622.5,-41 622.5,-41 628.5,-41 634.5,-47 634.5,-53 634.5,-53 634.5,-65 634.5,-65 634.5,-71 628.5,-77 622.5,-77"/>
<text xml:space="preserve" text-anchor="middle" x="551.5" y="-53.58" font-family="Comic Mono" font-size="14.00">LeaderElectionPlugin</text>
</g>
<!-- nodeA&#45;&gt;coordinator -->
<g id="edge3" class="edge">
<title>nodeA&#45;&gt;coordinator</title>
<path fill="none" stroke="#758297" d="M327.25,-82.7C327.25,-72.81 327.25,-62.6 327.25,-62.6 327.25,-62.6 456.8,-62.6 456.8,-62.6"/>
<polygon fill="#758297" stroke="#758297" points="456.8,-66.1 466.8,-62.6 456.8,-59.1 456.8,-66.1"/>
<text xml:space="preserve" text-anchor="middle" x="425" y="-98.5" font-family="Comic Mono" font-size="10.00">call</text>
</g>
<!-- nodeB&#45;&gt;coordinator -->
<g id="edge4" class="edge">
<title>nodeB&#45;&gt;coordinator</title>
<path fill="none" stroke="#758297" d="M354.25,-36.26C354.25,-42.62 354.25,-48.2 354.25,-48.2 354.25,-48.2 456.62,-48.2 456.62,-48.2"/>
<polygon fill="#758297" stroke="#758297" points="456.62,-51.7 466.62,-48.2 456.62,-44.7 456.62,-51.7"/>
<text xml:space="preserve" text-anchor="middle" x="425" y="-29.5" font-family="Comic Mono" font-size="10.00">call</text>
</g>
<!-- elector -->
<g id="node6" class="node">
<title>elector</title>
<path fill="#f8fafc" stroke="#94a3b8" d="M907,-128C907,-128 765,-128 765,-128 759,-128 753,-122 753,-116 753,-116 753,-104 753,-104 753,-98 759,-92 765,-92 765,-92 907,-92 907,-92 913,-92 919,-98 919,-104 919,-104 919,-116 919,-116 919,-122 913,-128 907,-128"/>
<text xml:space="preserve" text-anchor="middle" x="836" y="-104.58" font-family="Comic Mono" font-size="14.00">SuspendLeaderElector</text>
</g>
<!-- coordinator&#45;&gt;elector -->
<g id="edge5" class="edge">
<title>coordinator&#45;&gt;elector</title>
<path fill="none" stroke="#758297" d="M634.79,-66.33C693.7,-66.33 762.25,-66.33 762.25,-66.33 762.25,-66.33 762.25,-80.22 762.25,-80.22"/>
<polygon fill="#758297" stroke="#758297" points="758.75,-80.22 762.25,-90.22 765.75,-80.22 758.75,-80.22"/>
<text xml:space="preserve" text-anchor="middle" x="693.75" y="-102.5" font-family="Comic Mono" font-size="10.00">dependency</text>
</g>
<!-- work -->
<g id="node8" class="node">
<title>work</title>
<path fill="#f8fafc" stroke="#94a3b8" d="M888.25,-45C888.25,-45 783.75,-45 783.75,-45 777.75,-45 771.75,-39 771.75,-33 771.75,-33 771.75,-21 771.75,-21 771.75,-15 777.75,-9 783.75,-9 783.75,-9 888.25,-9 888.25,-9 894.25,-9 900.25,-15 900.25,-21 900.25,-21 900.25,-33 900.25,-33 900.25,-39 894.25,-45 888.25,-45"/>
<text xml:space="preserve" text-anchor="middle" x="836" y="-21.57" font-family="Comic Mono" font-size="14.00">Aggregate Stats</text>
</g>
<!-- coordinator&#45;&gt;work -->
<g id="edge7" class="edge">
<title>coordinator&#45;&gt;work</title>
<path fill="none" stroke="#758297" d="M634.63,-55.67C718.67,-55.67 836.25,-55.67 836.25,-55.67 836.25,-55.67 836.25,-54.63 836.25,-54.63"/>
<polygon fill="#758297" stroke="#758297" points="839.75,-56.83 836.25,-46.83 832.75,-56.83 839.75,-56.83"/>
<text xml:space="preserve" text-anchor="middle" x="693.75" y="-29.5" font-family="Comic Mono" font-size="10.00">success</text>
</g>
<!-- backend -->
<g id="node5" class="node">
<title>backend</title>
<path fill="#f8fafc" stroke="#94a3b8" d="M1146.5,-128C1146.5,-128 1049.5,-128 1049.5,-128 1043.5,-128 1037.5,-122 1037.5,-116 1037.5,-116 1037.5,-104 1037.5,-104 1037.5,-98 1043.5,-92 1049.5,-92 1049.5,-92 1146.5,-92 1146.5,-92 1152.5,-92 1158.5,-98 1158.5,-104 1158.5,-104 1158.5,-116 1158.5,-116 1158.5,-122 1152.5,-128 1146.5,-128"/>
<text xml:space="preserve" text-anchor="middle" x="1098" y="-104.58" font-family="Comic Mono" font-size="14.00">Redis lock key</text>
</g>
<!-- recovery -->
<g id="node7" class="node">
<title>recovery</title>
<path fill="#f8fafc" stroke="#94a3b8" d="M1430.25,-128C1430.25,-128 1273.25,-128 1273.25,-128 1267.25,-128 1261.25,-122 1261.25,-116 1261.25,-116 1261.25,-104 1261.25,-104 1261.25,-98 1267.25,-92 1273.25,-92 1273.25,-92 1430.25,-92 1430.25,-92 1436.25,-92 1442.25,-98 1442.25,-104 1442.25,-104 1442.25,-116 1442.25,-116 1442.25,-122 1436.25,-128 1430.25,-128"/>
<text xml:space="preserve" text-anchor="middle" x="1351.75" y="-104.58" font-family="Comic Mono" font-size="14.00">HTTP Health Visibility</text>
</g>
<!-- backend&#45;&gt;recovery -->
<g id="edge8" class="edge">
<title>backend&#45;&gt;recovery</title>
<path fill="none" stroke="#758297" d="M1158.78,-110C1158.78,-110 1249.67,-110 1249.67,-110"/>
<polygon fill="#758297" stroke="#758297" points="1249.68,-113.5 1259.67,-110 1249.67,-106.5 1249.68,-113.5"/>
<text xml:space="preserve" text-anchor="middle" x="1209.88" y="-112.5" font-family="Comic Mono" font-size="10.00">release</text>
</g>
<!-- elector&#45;&gt;backend -->
<g id="edge6" class="edge">
<title>elector&#45;&gt;backend</title>
<path fill="none" stroke="#758297" d="M919.26,-110C919.26,-110 1025.88,-110 1025.88,-110"/>
<polygon fill="#758297" stroke="#758297" points="1025.88,-113.5 1035.88,-110 1025.88,-106.5 1025.88,-113.5"/>
<text xml:space="preserve" text-anchor="middle" x="978.25" y="-112.5" font-family="Comic Mono" font-size="10.00">contention</text>
</g>
</g>
</svg>
