<?xml version="1.0" encoding="UTF-8" standalone="no"?>
<!DOCTYPE svg PUBLIC "-//W3C//DTD SVG 1.1//EN"
 "http://www.w3.org/Graphics/SVG/1.1/DTD/svg11.dtd">
<!-- Generated by graphviz version 15.0.0 (20260523.1842)
 -->
<!-- Title: examples&#45;zookeeper&#45;scheduler&#45;flow&#45;01 Pages: 1 -->
<svg width="1488pt" height="141pt"
 viewBox="7.00 7.00 1481.00 134.00" xmlns="http://www.w3.org/2000/svg" xmlns:xlink="http://www.w3.org/1999/xlink">
<g id="graph0" class="graph" transform="scale(1 1) rotate(0) translate(11.2 130.2)">
<title>examples&#45;zookeeper&#45;scheduler&#45;flow&#45;01</title>
<!-- Scheduled tick -->
<g id="node1" class="node">
<title>Scheduled tick</title>
<path fill="#f8fafc" stroke="#94a3b8" d="M109,-68C109,-68 12,-68 12,-68 6,-68 0,-62 0,-56 0,-56 0,-44 0,-44 0,-38 6,-32 12,-32 12,-32 109,-32 109,-32 115,-32 121,-38 121,-44 121,-44 121,-56 121,-56 121,-62 115,-68 109,-68"/>
<text xml:space="preserve" text-anchor="middle" x="60.5" y="-44.58" font-family="Comic Mono" font-size="14.00">Scheduled tick</text>
</g>
<!-- Validate inputs -->
<g id="node2" class="node">
<title>Validate inputs</title>
<path fill="#f8fafc" stroke="#94a3b8" d="M329.75,-68C329.75,-68 225.25,-68 225.25,-68 219.25,-68 213.25,-62 213.25,-56 213.25,-56 213.25,-44 213.25,-44 213.25,-38 219.25,-32 225.25,-32 225.25,-32 329.75,-32 329.75,-32 335.75,-32 341.75,-38 341.75,-44 341.75,-44 341.75,-56 341.75,-56 341.75,-62 335.75,-68 329.75,-68"/>
<text xml:space="preserve" text-anchor="middle" x="277.5" y="-44.58" font-family="Comic Mono" font-size="14.00">Validate inputs</text>
</g>
<!-- Scheduled tick&#45;&gt;Validate inputs -->
<g id="edge1" class="edge">
<title>Scheduled tick&#45;&gt;Validate inputs</title>
<path fill="none" stroke="#758297" d="M121.39,-50C146.18,-50 175.19,-50 201.38,-50"/>
<polygon fill="#758297" stroke="#758297" points="201.29,-53.5 211.29,-50 201.29,-46.5 201.29,-53.5"/>
<text xml:space="preserve" text-anchor="middle" x="167.12" y="-52.5" font-family="Comic Mono" font-size="10.00">input</text>
</g>
<!-- runIfLeader -->
<g id="node3" class="node">
<title>runIfLeader</title>
<path fill="#f8fafc" stroke="#94a3b8" d="M525.75,-68C525.75,-68 451.25,-68 451.25,-68 445.25,-68 439.25,-62 439.25,-56 439.25,-56 439.25,-44 439.25,-44 439.25,-38 445.25,-32 451.25,-32 451.25,-32 525.75,-32 525.75,-32 531.75,-32 537.75,-38 537.75,-44 537.75,-44 537.75,-56 537.75,-56 537.75,-62 531.75,-68 525.75,-68"/>
<text xml:space="preserve" text-anchor="middle" x="488.5" y="-44.58" font-family="Comic Mono" font-size="14.00">runIfLeader</text>
</g>
<!-- Validate inputs&#45;&gt;runIfLeader -->
<g id="edge2" class="edge">
<title>Validate inputs&#45;&gt;runIfLeader</title>
<path fill="none" stroke="#758297" d="M342.06,-50C369.27,-50 400.89,-50 427.68,-50"/>
<polygon fill="#758297" stroke="#758297" points="427.33,-53.5 437.33,-50 427.33,-46.5 427.33,-53.5"/>
<text xml:space="preserve" text-anchor="middle" x="390.5" y="-52.5" font-family="Comic Mono" font-size="10.00">config</text>
</g>
<!-- Leadership? -->
<g id="node4" class="node">
<title>Leadership?</title>
<path fill="#f8fafc" stroke="#94a3b8" d="M727,-68C727,-68 652.5,-68 652.5,-68 646.5,-68 640.5,-62 640.5,-56 640.5,-56 640.5,-44 640.5,-44 640.5,-38 646.5,-32 652.5,-32 652.5,-32 727,-32 727,-32 733,-32 739,-38 739,-44 739,-44 739,-56 739,-56 739,-62 733,-68 727,-68"/>
<text xml:space="preserve" text-anchor="middle" x="689.75" y="-44.58" font-family="Comic Mono" font-size="14.00">Leadership?</text>
</g>
<!-- runIfLeader&#45;&gt;Leadership? -->
<g id="edge3" class="edge">
<title>runIfLeader&#45;&gt;Leadership?</title>
<path fill="none" stroke="#758297" d="M538.24,-50C565.6,-50 599.96,-50 628.94,-50"/>
<polygon fill="#758297" stroke="#758297" points="628.65,-53.5 638.65,-50 628.65,-46.5 628.65,-53.5"/>
<text xml:space="preserve" text-anchor="middle" x="589.12" y="-52.5" font-family="Comic Mono" font-size="10.00">outcome</text>
</g>
<!-- Execute job body -->
<g id="node5" class="node">
<title>Execute job body</title>
<path fill="#f8fafc" stroke="#94a3b8" d="M944.75,-119C944.75,-119 832.75,-119 832.75,-119 826.75,-119 820.75,-113 820.75,-107 820.75,-107 820.75,-95 820.75,-95 820.75,-89 826.75,-83 832.75,-83 832.75,-83 944.75,-83 944.75,-83 950.75,-83 956.75,-89 956.75,-95 956.75,-95 956.75,-107 956.75,-107 956.75,-113 950.75,-119 944.75,-119"/>
<text xml:space="preserve" text-anchor="middle" x="888.75" y="-95.58" font-family="Comic Mono" font-size="14.00">Execute job body</text>
</g>
<!-- Leadership?&#45;&gt;Execute job body -->
<g id="edge4" class="edge">
<title>Leadership?&#45;&gt;Execute job body</title>
<path fill="none" stroke="#758297" d="M739.45,-62.61C760.5,-68.06 785.66,-74.57 809.24,-80.67"/>
<polygon fill="#758297" stroke="#758297" points="808.27,-84.04 818.83,-83.16 810.03,-77.26 808.27,-84.04"/>
<text xml:space="preserve" text-anchor="middle" x="779.88" y="-76.47" font-family="Comic Mono" font-size="10.00">yes</text>
</g>
<!-- Return SKIPPED -->
<g id="node8" class="node">
<title>Return SKIPPED</title>
<path fill="#f8fafc" stroke="#94a3b8" d="M937.25,-36C937.25,-36 840.25,-36 840.25,-36 834.25,-36 828.25,-30 828.25,-24 828.25,-24 828.25,-12 828.25,-12 828.25,-6 834.25,0 840.25,0 840.25,0 937.25,0 937.25,0 943.25,0 949.25,-6 949.25,-12 949.25,-12 949.25,-24 949.25,-24 949.25,-30 943.25,-36 937.25,-36"/>
<text xml:space="preserve" text-anchor="middle" x="888.75" y="-12.57" font-family="Comic Mono" font-size="14.00">Return SKIPPED</text>
</g>
<!-- Leadership?&#45;&gt;Return SKIPPED -->
<g id="edge7" class="edge">
<title>Leadership?&#45;&gt;Return SKIPPED</title>
<path fill="none" stroke="#758297" d="M734.32,-31.59C746.32,-27.32 759.48,-23.33 772,-21 786.33,-18.33 801.83,-16.93 816.69,-16.3"/>
<polygon fill="#758297" stroke="#758297" points="816.49,-19.8 826.38,-16 816.28,-12.81 816.49,-19.8"/>
<text xml:space="preserve" text-anchor="middle" x="779.88" y="-23.5" font-family="Comic Mono" font-size="10.00">no</text>
</g>
<!-- Validate completed steps -->
<g id="node6" class="node">
<title>Validate completed steps</title>
<path fill="#f8fafc" stroke="#94a3b8" d="M1233,-119C1233,-119 1061,-119 1061,-119 1055,-119 1049,-113 1049,-107 1049,-107 1049,-95 1049,-95 1049,-89 1055,-83 1061,-83 1061,-83 1233,-83 1233,-83 1239,-83 1245,-89 1245,-95 1245,-95 1245,-107 1245,-107 1245,-113 1239,-119 1233,-119"/>
<text xml:space="preserve" text-anchor="middle" x="1147" y="-95.58" font-family="Comic Mono" font-size="14.00">Validate completed steps</text>
</g>
<!-- Execute job body&#45;&gt;Validate completed steps -->
<g id="edge5" class="edge">
<title>Execute job body&#45;&gt;Validate completed steps</title>
<path fill="none" stroke="#758297" d="M957.08,-101C981.71,-101 1010.24,-101 1037.56,-101"/>
<polygon fill="#758297" stroke="#758297" points="1037.25,-104.5 1047.25,-101 1037.25,-97.5 1037.25,-104.5"/>
<text xml:space="preserve" text-anchor="middle" x="1002.88" y="-103.5" font-family="Comic Mono" font-size="10.00">steps</text>
</g>
<!-- Return EXECUTED -->
<g id="node7" class="node">
<title>Return EXECUTED</title>
<path fill="#f8fafc" stroke="#94a3b8" d="M1453.75,-119C1453.75,-119 1349.25,-119 1349.25,-119 1343.25,-119 1337.25,-113 1337.25,-107 1337.25,-107 1337.25,-95 1337.25,-95 1337.25,-89 1343.25,-83 1349.25,-83 1349.25,-83 1453.75,-83 1453.75,-83 1459.75,-83 1465.75,-89 1465.75,-95 1465.75,-95 1465.75,-107 1465.75,-107 1465.75,-113 1459.75,-119 1453.75,-119"/>
<text xml:space="preserve" text-anchor="middle" x="1401.5" y="-95.58" font-family="Comic Mono" font-size="14.00">Return EXECUTED</text>
</g>
<!-- Validate completed steps&#45;&gt;Return EXECUTED -->
<g id="edge6" class="edge">
<title>Validate completed steps&#45;&gt;Return EXECUTED</title>
<path fill="none" stroke="#758297" d="M1245.26,-101C1271.89,-101 1300.33,-101 1325.5,-101"/>
<polygon fill="#758297" stroke="#758297" points="1325.3,-104.5 1335.3,-101 1325.3,-97.5 1325.3,-104.5"/>
<text xml:space="preserve" text-anchor="middle" x="1291.12" y="-103.5" font-family="Comic Mono" font-size="10.00">valid</text>
</g>
</g>
</svg>
