<?xml version="1.0" encoding="UTF-8" standalone="no"?>
<!DOCTYPE svg PUBLIC "-//W3C//DTD SVG 1.1//EN"
 "http://www.w3.org/Graphics/SVG/1.1/DTD/svg11.dtd">
<!-- Generated by graphviz version 15.0.0 (20260523.1842)
 -->
<!-- Title: examples&#45;migration&#45;gate&#45;architecture&#45;01 Pages: 1 -->
<svg width="1228pt" height="295pt"
 viewBox="0.00 0.00 1228.00 295.00" xmlns="http://www.w3.org/2000/svg" xmlns:xlink="http://www.w3.org/1999/xlink">
<g id="graph0" class="graph" transform="scale(1 1) rotate(0) translate(4 290.66)">
<title>examples&#45;migration&#45;gate&#45;architecture&#45;01</title>
<text xml:space="preserve" text-anchor="middle" x="609.84" y="-269.36" font-family="Times,serif" font-size="14.00">Migration Gate Architecture</text>
<!-- n0&#45;&gt;r1p1 -->
<g id="edge1" class="edge">
<title>n0&#45;&gt;r1p1</title>
<path fill="none" stroke="#758297" stroke-width="1.8" d="M229.85,-216.08C251.31,-216.08 268.59,-216.08 273.46,-216.08"/>
</g>
<!-- n1&#45;&gt;r2p1 -->
<g id="edge4" class="edge">
<title>n1&#45;&gt;r2p1</title>
<path fill="none" stroke="#758297" stroke-width="1.8" d="M229.85,-46.08C251.31,-46.08 268.59,-46.08 273.46,-46.08"/>
</g>
<!-- n2&#45;&gt;r3p1 -->
<g id="edge7" class="edge">
<title>n2&#45;&gt;r3p1</title>
<path fill="none" stroke="#758297" stroke-width="1.8" d="M549.92,-136.08C568.83,-136.08 583.8,-136.08 588.38,-136.08"/>
</g>
<!-- n2&#45;&gt;r5p1 -->
<g id="edge13" class="edge">
<title>n2&#45;&gt;r5p1</title>
<path fill="none" stroke="#758297" stroke-width="1.8" d="M434.84,-89.76C434.84,-71.16 434.84,-52.85 434.84,-47.58"/>
</g>
<!-- n3&#45;&gt;r4p1 -->
<g id="edge10" class="edge">
<title>n3&#45;&gt;r4p1</title>
<path fill="none" stroke="#758297" stroke-width="1.8" d="M940.19,-136.08C951.85,-136.08 960.34,-136.08 963.49,-136.08"/>
</g>
<!-- n3&#45;&gt;r6p1 -->
<g id="edge15" class="edge">
<title>n3&#45;&gt;r6p1</title>
<path fill="none" stroke="#758297" stroke-width="1.8" d="M940.19,-136.08C951.85,-136.08 960.34,-136.08 963.49,-136.08"/>
</g>
<!-- r1p1&#45;&gt;r1p2 -->
<g id="edge2" class="edge">
<title>r1p1&#45;&gt;r1p2</title>
<path fill="none" stroke="#758297" stroke-width="1.8" d="M274.84,-214.69C274.84,-204.98 274.84,-147.34 274.84,-137.51"/>
</g>
<!-- r1p2&#45;&gt;n2 -->
<g id="edge3" class="edge">
<title>r1p2&#45;&gt;n2</title>
<path fill="none" stroke="#758297" stroke-width="1.8" d="M276.22,-136.08C280.24,-136.08 292.69,-136.08 308.96,-136.08"/>
<polygon fill="#758297" stroke="#758297" stroke-width="1.8" points="308.81,-138.88 316.81,-136.08 308.81,-133.28 308.81,-138.88"/>
</g>
<!-- r2p1&#45;&gt;r2p2 -->
<g id="edge5" class="edge">
<title>r2p1&#45;&gt;r2p2</title>
<path fill="none" stroke="#758297" stroke-width="1.8" d="M274.84,-47.64C274.84,-58.66 274.84,-124.52 274.84,-134.75"/>
</g>
<!-- r2p2&#45;&gt;n2 -->
<g id="edge6" class="edge">
<title>r2p2&#45;&gt;n2</title>
<path fill="none" stroke="#758297" stroke-width="1.8" d="M276.22,-136.08C280.24,-136.08 292.69,-136.08 308.96,-136.08"/>
<polygon fill="#758297" stroke="#758297" stroke-width="1.8" points="308.81,-138.88 316.81,-136.08 308.81,-133.28 308.81,-138.88"/>
</g>
<!-- r3p1&#45;&gt;r3p2 -->
<g id="edge8" class="edge">
<title>r3p1&#45;&gt;r3p2</title>
<path fill="none" stroke="#758297" stroke-width="1.8" d="M589.84,-136.08C589.84,-136.08 589.84,-136.08 589.84,-136.08"/>
</g>
<!-- r3p2&#45;&gt;n3 -->
<g id="edge9" class="edge">
<title>r3p2&#45;&gt;n3</title>
<path fill="none" stroke="#758297" stroke-width="1.8" d="M591.09,-136.08C594.51,-136.08 604.77,-136.08 618.9,-136.08"/>
<polygon fill="#758297" stroke="#758297" stroke-width="1.8" points="618.53,-138.88 626.53,-136.08 618.53,-133.28 618.53,-138.88"/>
</g>
<!-- r4p1&#45;&gt;r4p2 -->
<g id="edge11" class="edge">
<title>r4p1&#45;&gt;r4p2</title>
<path fill="none" stroke="#758297" stroke-width="1.8" d="M964.84,-137.47C964.84,-147.18 964.84,-204.82 964.84,-214.65"/>
</g>
<!-- r4p2&#45;&gt;n4 -->
<g id="edge12" class="edge">
<title>r4p2&#45;&gt;n4</title>
<path fill="none" stroke="#758297" stroke-width="1.8" d="M966.41,-216.08C968.62,-216.08 973.05,-216.08 979.01,-216.08"/>
<polygon fill="#758297" stroke="#758297" stroke-width="1.8" points="978.82,-218.88 986.82,-216.08 978.82,-213.28 978.82,-218.88"/>
</g>
<!-- r5p1&#45;&gt;n5 -->
<g id="edge14" class="edge">
<title>r5p1&#45;&gt;n5</title>
<path fill="none" stroke="#758297" stroke-width="1.8" d="M436.32,-46.08C461.1,-46.08 792.32,-46.08 979.02,-46.08"/>
<polygon fill="#758297" stroke="#758297" stroke-width="1.8" points="979.01,-48.88 987.01,-46.08 979.01,-43.28 979.01,-48.88"/>
</g>
<!-- r6p1&#45;&gt;r6p2 -->
<g id="edge16" class="edge">
<title>r6p1&#45;&gt;r6p2</title>
<path fill="none" stroke="#758297" stroke-width="1.8" d="M964.84,-134.52C964.84,-123.5 964.84,-57.64 964.84,-47.41"/>
</g>
<!-- r6p2&#45;&gt;n5 -->
<g id="edge17" class="edge">
<title>r6p2&#45;&gt;n5</title>
<path fill="none" stroke="#758297" stroke-width="1.8" d="M966.41,-46.08C968.62,-46.08 973.05,-46.08 979.01,-46.08"/>
<polygon fill="#758297" stroke="#758297" stroke-width="1.8" points="978.82,-48.88 986.82,-46.08 978.82,-43.28 978.82,-48.88"/>
</g>
<!-- n0 -->
<g id="node1" class="node">
<title>n0</title>
<path fill="#ffffff" stroke="#5b8def" d="M217.68,-262.16C217.68,-262.16 12,-262.16 12,-262.16 6,-262.16 0,-256.16 0,-250.16 0,-250.16 0,-182 0,-182 0,-176 6,-170 12,-170 12,-170 217.68,-170 217.68,-170 223.68,-170 229.68,-176 229.68,-182 229.68,-182 229.68,-250.16 229.68,-250.16 229.68,-256.16 223.68,-262.16 217.68,-262.16"/>
<text xml:space="preserve" text-anchor="middle" x="114.84" y="-211.73" font-family="Architects Daughter" font-size="18.00">Deploy pod&#45;A</text>
</g>
<!-- n1 -->
<g id="node2" class="node">
<title>n1</title>
<path fill="#ffffff" stroke="#58a978" d="M217.68,-92.16C217.68,-92.16 12,-92.16 12,-92.16 6,-92.16 0,-86.16 0,-80.16 0,-80.16 0,-12 0,-12 0,-6 6,0 12,0 12,0 217.68,0 217.68,0 223.68,0 229.68,-6 229.68,-12 229.68,-12 229.68,-80.16 229.68,-80.16 229.68,-86.16 223.68,-92.16 217.68,-92.16"/>
<text xml:space="preserve" text-anchor="middle" x="114.84" y="-41.73" font-family="Architects Daughter" font-size="18.00">Deploy pod&#45;B</text>
</g>
<!-- n2 -->
<g id="node3" class="node">
<title>n2</title>
<path fill="#ffffff" stroke="#d6a441" d="M537.68,-182.16C537.68,-182.16 332,-182.16 332,-182.16 326,-182.16 320,-176.16 320,-170.16 320,-170.16 320,-102 320,-102 320,-96 326,-90 332,-90 332,-90 537.68,-90 537.68,-90 543.68,-90 549.68,-96 549.68,-102 549.68,-102 549.68,-170.16 549.68,-170.16 549.68,-176.16 543.68,-182.16 537.68,-182.16"/>
<text xml:space="preserve" text-anchor="middle" x="434.84" y="-131.73" font-family="Architects Daughter" font-size="18.00">MigrationGate</text>
</g>
<!-- n3 -->
<g id="node4" class="node">
<title>n3</title>
<path fill="#ffffff" stroke="#dc6b82" d="M928,-182.16C928,-182.16 641.68,-182.16 641.68,-182.16 635.68,-182.16 629.68,-176.16 629.68,-170.16 629.68,-170.16 629.68,-102 629.68,-102 629.68,-96 635.68,-90 641.68,-90 641.68,-90 928,-90 928,-90 934,-90 940,-96 940,-102 940,-102 940,-170.16 940,-170.16 940,-176.16 934,-182.16 928,-182.16"/>
<text xml:space="preserve" text-anchor="middle" x="784.84" y="-131.73" font-family="Architects Daughter" font-size="18.00">ExposedJdbcLeaderElector</text>
</g>
<!-- n4 -->
<g id="node5" class="node">
<title>n4</title>
<path fill="#ffffff" stroke="#45a7a1" d="M1207.68,-262.16C1207.68,-262.16 1002,-262.16 1002,-262.16 996,-262.16 990,-256.16 990,-250.16 990,-250.16 990,-182 990,-182 990,-176 996,-170 1002,-170 1002,-170 1207.68,-170 1207.68,-170 1213.68,-170 1219.68,-176 1219.68,-182 1219.68,-182 1219.68,-250.16 1219.68,-250.16 1219.68,-256.16 1213.68,-262.16 1207.68,-262.16"/>
<text xml:space="preserve" text-anchor="middle" x="1104.84" y="-211.73" font-family="Architects Daughter" font-size="18.00">Leader lock table</text>
</g>
<!-- n5 -->
<g id="node6" class="node">
<title>n5</title>
<path fill="#ffffff" stroke="#8a72d6" d="M1207.68,-92.16C1207.68,-92.16 1002,-92.16 1002,-92.16 996,-92.16 990,-86.16 990,-80.16 990,-80.16 990,-12 990,-12 990,-6 996,0 1002,0 1002,0 1207.68,0 1207.68,0 1213.68,0 1219.68,-6 1219.68,-12 1219.68,-12 1219.68,-80.16 1219.68,-80.16 1219.68,-86.16 1213.68,-92.16 1207.68,-92.16"/>
<text xml:space="preserve" text-anchor="middle" x="1104.84" y="-41.73" font-family="Architects Daughter" font-size="18.00">Schema marker</text>
</g>
<!-- r1p1 -->
<!-- r1p2 -->
<!-- r2p1 -->
<!-- r2p2 -->
<!-- r3p1 -->
<!-- r3p2 -->
<!-- r4p1 -->
<!-- r4p2 -->
<!-- r5p1 -->
<!-- r6p1 -->
<!-- r6p2 -->
</g>
</svg>
