<?xml version="1.0" encoding="UTF-8" standalone="no"?>
<!DOCTYPE svg PUBLIC "-//W3C//DTD SVG 1.1//EN"
 "http://www.w3.org/Graphics/SVG/1.1/DTD/svg11.dtd">
<!-- Generated by graphviz version 15.0.0 (20260523.1842)
 -->
<!-- Title: examples&#45;prometheus&#45;dashboard&#45;scenario&#45;01 Pages: 1 -->
<svg width="845pt" height="210pt"
 viewBox="0.00 0.00 845.00 210.00" xmlns="http://www.w3.org/2000/svg" xmlns:xlink="http://www.w3.org/1999/xlink">
<g id="graph0" class="graph" transform="scale(1 1) rotate(0) translate(4 206)">
<title>examples&#45;prometheus&#45;dashboard&#45;scenario&#45;01</title>
<!-- tick -->
<g id="node1" class="node">
<title>tick</title>
<path fill="#f8fafc" stroke="#94a3b8" d="M154,-119C154,-119 12,-119 12,-119 6,-119 0,-113 0,-107 0,-107 0,-95 0,-95 0,-89 6,-83 12,-83 12,-83 154,-83 154,-83 160,-83 166,-89 166,-95 166,-95 166,-107 166,-107 166,-113 160,-119 154,-119"/>
<text xml:space="preserve" text-anchor="middle" x="83" y="-95.58" font-family="Comic Mono" font-size="14.00">Scheduled Metric Job</text>
</g>
<!-- nodeA -->
<g id="node2" class="node">
<title>nodeA</title>
<path fill="#f8fafc" stroke="#94a3b8" d="M339.5,-202C339.5,-202 265,-202 265,-202 259,-202 253,-196 253,-190 253,-190 253,-178 253,-178 253,-172 259,-166 265,-166 265,-166 339.5,-166 339.5,-166 345.5,-166 351.5,-172 351.5,-178 351.5,-178 351.5,-190 351.5,-190 351.5,-196 345.5,-202 339.5,-202"/>
<text xml:space="preserve" text-anchor="middle" x="302.25" y="-178.57" font-family="Comic Mono" font-size="14.00">Candidate A</text>
</g>
<!-- tick&#45;&gt;nodeA -->
<g id="edge1" class="edge">
<title>tick&#45;&gt;nodeA</title>
<path fill="none" stroke="#758297" d="M83.25,-119.42C83.25,-143.87 83.25,-184 83.25,-184 83.25,-184 241.04,-184 241.04,-184"/>
<polygon fill="#758297" stroke="#758297" points="241.04,-187.5 251.04,-184 241.04,-180.5 241.04,-187.5"/>
<text xml:space="preserve" text-anchor="middle" x="209.5" y="-176.5" font-family="Comic Mono" font-size="10.00">call</text>
</g>
<!-- nodeB -->
<g id="node3" class="node">
<title>nodeB</title>
<path fill="#f8fafc" stroke="#94a3b8" d="M339.5,-119C339.5,-119 265,-119 265,-119 259,-119 253,-113 253,-107 253,-107 253,-95 253,-95 253,-89 259,-83 265,-83 265,-83 339.5,-83 339.5,-83 345.5,-83 351.5,-89 351.5,-95 351.5,-95 351.5,-107 351.5,-107 351.5,-113 345.5,-119 339.5,-119"/>
<text xml:space="preserve" text-anchor="middle" x="302.25" y="-95.58" font-family="Comic Mono" font-size="14.00">Candidate B</text>
</g>
<!-- tick&#45;&gt;nodeB -->
<g id="edge2" class="edge">
<title>tick&#45;&gt;nodeB</title>
<path fill="none" stroke="#758297" d="M166.2,-101C166.2,-101 241.28,-101 241.28,-101"/>
<polygon fill="#758297" stroke="#758297" points="241.28,-104.5 251.28,-101 241.28,-97.5 241.28,-104.5"/>
<text xml:space="preserve" text-anchor="middle" x="209.5" y="-103.5" font-family="Comic Mono" font-size="10.00">call</text>
</g>
<!-- nodeC -->
<g id="node4" class="node">
<title>nodeC</title>
<path fill="#f8fafc" stroke="#94a3b8" d="M339.5,-36C339.5,-36 265,-36 265,-36 259,-36 253,-30 253,-24 253,-24 253,-12 253,-12 253,-6 259,0 265,0 265,0 339.5,0 339.5,0 345.5,0 351.5,-6 351.5,-12 351.5,-12 351.5,-24 351.5,-24 351.5,-30 345.5,-36 339.5,-36"/>
<text xml:space="preserve" text-anchor="middle" x="302.25" y="-12.57" font-family="Comic Mono" font-size="14.00">Candidate C</text>
</g>
<!-- tick&#45;&gt;nodeC -->
<g id="edge3" class="edge">
<title>tick&#45;&gt;nodeC</title>
<path fill="none" stroke="#758297" d="M83.25,-82.58C83.25,-58.13 83.25,-18 83.25,-18 83.25,-18 241.04,-18 241.04,-18"/>
<polygon fill="#758297" stroke="#758297" points="241.04,-21.5 251.04,-18 241.04,-14.5 241.04,-21.5"/>
<text xml:space="preserve" text-anchor="middle" x="209.5" y="-30.5" font-family="Comic Mono" font-size="10.00">call</text>
</g>
<!-- backend -->
<g id="node5" class="node">
<title>backend</title>
<path fill="#f8fafc" stroke="#94a3b8" d="M579,-119C579,-119 482,-119 482,-119 476,-119 470,-113 470,-107 470,-107 470,-95 470,-95 470,-89 476,-83 482,-83 482,-83 579,-83 579,-83 585,-83 591,-89 591,-95 591,-95 591,-107 591,-107 591,-113 585,-119 579,-119"/>
<text xml:space="preserve" text-anchor="middle" x="530.5" y="-95.58" font-family="Comic Mono" font-size="14.00">Redis lock key</text>
</g>
<!-- nodeA&#45;&gt;backend -->
<g id="edge4" class="edge">
<title>nodeA&#45;&gt;backend</title>
<path fill="none" stroke="#758297" d="M351.72,-184C418.78,-184 530.25,-184 530.25,-184 530.25,-184 530.25,-130.93 530.25,-130.93"/>
<polygon fill="#758297" stroke="#758297" points="533.75,-130.93 530.25,-120.93 526.75,-130.93 533.75,-130.93"/>
<text xml:space="preserve" text-anchor="middle" x="410.75" y="-176.5" font-family="Comic Mono" font-size="10.00">contention</text>
</g>
<!-- nodeB&#45;&gt;backend -->
<g id="edge5" class="edge">
<title>nodeB&#45;&gt;backend</title>
<path fill="none" stroke="#758297" d="M351.78,-101C351.78,-101 458.18,-101 458.18,-101"/>
<polygon fill="#758297" stroke="#758297" points="458.18,-104.5 468.18,-101 458.18,-97.5 458.18,-104.5"/>
<text xml:space="preserve" text-anchor="middle" x="410.75" y="-103.5" font-family="Comic Mono" font-size="10.00">contention</text>
</g>
<!-- nodeC&#45;&gt;backend -->
<g id="edge6" class="edge">
<title>nodeC&#45;&gt;backend</title>
<path fill="none" stroke="#758297" d="M351.72,-18C418.78,-18 530.25,-18 530.25,-18 530.25,-18 530.25,-71.07 530.25,-71.07"/>
<polygon fill="#758297" stroke="#758297" points="526.75,-71.07 530.25,-81.07 533.75,-71.07 526.75,-71.07"/>
<text xml:space="preserve" text-anchor="middle" x="410.75" y="-30.5" font-family="Comic Mono" font-size="10.00">contention</text>
</g>
<!-- recovery -->
<g id="node6" class="node">
<title>recovery</title>
<path fill="#f8fafc" stroke="#94a3b8" d="M825.25,-202C825.25,-202 705.75,-202 705.75,-202 699.75,-202 693.75,-196 693.75,-190 693.75,-190 693.75,-178 693.75,-178 693.75,-172 699.75,-166 705.75,-166 705.75,-166 825.25,-166 825.25,-166 831.25,-166 837.25,-172 837.25,-178 837.25,-178 837.25,-190 837.25,-190 837.25,-196 831.25,-202 825.25,-202"/>
<text xml:space="preserve" text-anchor="middle" x="765.5" y="-178.57" font-family="Comic Mono" font-size="14.00">Prometheus Scrape</text>
</g>
<!-- backend&#45;&gt;recovery -->
<g id="edge9" class="edge">
<title>backend&#45;&gt;recovery</title>
<path fill="none" stroke="#758297" d="M591.17,-110C638.85,-110 697.25,-110 697.25,-110 697.25,-110 697.25,-154.19 697.25,-154.19"/>
<polygon fill="#758297" stroke="#758297" points="693.75,-154.19 697.25,-164.19 700.75,-154.19 693.75,-154.19"/>
<text xml:space="preserve" text-anchor="middle" x="642.38" y="-186.5" font-family="Comic Mono" font-size="10.00">release</text>
</g>
<!-- skipped -->
<g id="node7" class="node">
<title>skipped</title>
<path fill="#f8fafc" stroke="#94a3b8" d="M799,-119C799,-119 732,-119 732,-119 726,-119 720,-113 720,-107 720,-107 720,-95 720,-95 720,-89 726,-83 732,-83 732,-83 799,-83 799,-83 805,-83 811,-89 811,-95 811,-95 811,-107 811,-107 811,-113 805,-119 799,-119"/>
<text xml:space="preserve" text-anchor="middle" x="765.5" y="-95.58" font-family="Comic Mono" font-size="14.00">Peers Skip</text>
</g>
<!-- backend&#45;&gt;skipped -->
<g id="edge8" class="edge">
<title>backend&#45;&gt;skipped</title>
<path fill="none" stroke="#758297" d="M591.32,-101C591.32,-101 708.26,-101 708.26,-101"/>
<polygon fill="#758297" stroke="#758297" points="708.27,-104.5 718.26,-101 708.26,-97.5 708.27,-104.5"/>
<text xml:space="preserve" text-anchor="middle" x="642.38" y="-103.5" font-family="Comic Mono" font-size="10.00">skip</text>
</g>
<!-- leader -->
<g id="node8" class="node">
<title>leader</title>
<path fill="#f8fafc" stroke="#94a3b8" d="M817.75,-36C817.75,-36 713.25,-36 713.25,-36 707.25,-36 701.25,-30 701.25,-24 701.25,-24 701.25,-12 701.25,-12 701.25,-6 707.25,0 713.25,0 713.25,0 817.75,0 817.75,0 823.75,0 829.75,-6 829.75,-12 829.75,-12 829.75,-24 829.75,-24 829.75,-30 823.75,-36 817.75,-36"/>
<text xml:space="preserve" text-anchor="middle" x="765.5" y="-12.57" font-family="Comic Mono" font-size="14.00">One Leader Runs</text>
</g>
<!-- backend&#45;&gt;leader -->
<g id="edge7" class="edge">
<title>backend&#45;&gt;leader</title>
<path fill="none" stroke="#758297" d="M591.36,-92C643.5,-92 710.25,-92 710.25,-92 710.25,-92 710.25,-47.81 710.25,-47.81"/>
<polygon fill="#758297" stroke="#758297" points="713.75,-47.81 710.25,-37.81 706.75,-47.81 713.75,-47.81"/>
<text xml:space="preserve" text-anchor="middle" x="642.38" y="-20.5" font-family="Comic Mono" font-size="10.00">success</text>
</g>
</g>
</svg>
