<?xml version="1.0" encoding="UTF-8" standalone="no"?>
<!DOCTYPE svg PUBLIC "-//W3C//DTD SVG 1.1//EN"
 "http://www.w3.org/Graphics/SVG/1.1/DTD/svg11.dtd">
<!-- Generated by graphviz version 15.0.0 (20260523.1842)
 -->
<!-- Title: examples&#45;k8s&#45;operator&#45;scenario&#45;01 Pages: 1 -->
<svg width="868pt" height="210pt"
 viewBox="0.00 0.00 868.00 210.00" xmlns="http://www.w3.org/2000/svg" xmlns:xlink="http://www.w3.org/1999/xlink">
<g id="graph0" class="graph" transform="scale(1 1) rotate(0) translate(4 206)">
<title>examples&#45;k8s&#45;operator&#45;scenario&#45;01</title>
<!-- tick -->
<g id="node1" class="node">
<title>tick</title>
<path fill="#f8fafc" stroke="#94a3b8" d="M131.5,-119C131.5,-119 12,-119 12,-119 6,-119 0,-113 0,-107 0,-107 0,-95 0,-95 0,-89 6,-83 12,-83 12,-83 131.5,-83 131.5,-83 137.5,-83 143.5,-89 143.5,-95 143.5,-95 143.5,-107 143.5,-107 143.5,-113 137.5,-119 131.5,-119"/>
<text xml:space="preserve" text-anchor="middle" x="71.75" y="-95.58" font-family="Comic Mono" font-size="14.00">Operator Schedule</text>
</g>
<!-- nodeA -->
<g id="node2" class="node">
<title>nodeA</title>
<path fill="#f8fafc" stroke="#94a3b8" d="M317,-202C317,-202 242.5,-202 242.5,-202 236.5,-202 230.5,-196 230.5,-190 230.5,-190 230.5,-178 230.5,-178 230.5,-172 236.5,-166 242.5,-166 242.5,-166 317,-166 317,-166 323,-166 329,-172 329,-178 329,-178 329,-190 329,-190 329,-196 323,-202 317,-202"/>
<text xml:space="preserve" text-anchor="middle" x="279.75" y="-178.57" font-family="Comic Mono" font-size="14.00">Candidate A</text>
</g>
<!-- tick&#45;&gt;nodeA -->
<g id="edge1" class="edge">
<title>tick&#45;&gt;nodeA</title>
<path fill="none" stroke="#758297" d="M71.75,-119.42C71.75,-143.87 71.75,-184 71.75,-184 71.75,-184 218.68,-184 218.68,-184"/>
<polygon fill="#758297" stroke="#758297" points="218.68,-187.5 228.68,-184 218.68,-180.5 218.68,-187.5"/>
<text xml:space="preserve" text-anchor="middle" x="187" y="-176.5" font-family="Comic Mono" font-size="10.00">call</text>
</g>
<!-- nodeB -->
<g id="node3" class="node">
<title>nodeB</title>
<path fill="#f8fafc" stroke="#94a3b8" d="M317,-119C317,-119 242.5,-119 242.5,-119 236.5,-119 230.5,-113 230.5,-107 230.5,-107 230.5,-95 230.5,-95 230.5,-89 236.5,-83 242.5,-83 242.5,-83 317,-83 317,-83 323,-83 329,-89 329,-95 329,-95 329,-107 329,-107 329,-113 323,-119 317,-119"/>
<text xml:space="preserve" text-anchor="middle" x="279.75" y="-95.58" font-family="Comic Mono" font-size="14.00">Candidate B</text>
</g>
<!-- tick&#45;&gt;nodeB -->
<g id="edge2" class="edge">
<title>tick&#45;&gt;nodeB</title>
<path fill="none" stroke="#758297" d="M143.91,-101C143.91,-101 218.76,-101 218.76,-101"/>
<polygon fill="#758297" stroke="#758297" points="218.76,-104.5 228.76,-101 218.76,-97.5 218.76,-104.5"/>
<text xml:space="preserve" text-anchor="middle" x="187" y="-103.5" font-family="Comic Mono" font-size="10.00">call</text>
</g>
<!-- nodeC -->
<g id="node4" class="node">
<title>nodeC</title>
<path fill="#f8fafc" stroke="#94a3b8" d="M317,-36C317,-36 242.5,-36 242.5,-36 236.5,-36 230.5,-30 230.5,-24 230.5,-24 230.5,-12 230.5,-12 230.5,-6 236.5,0 242.5,0 242.5,0 317,0 317,0 323,0 329,-6 329,-12 329,-12 329,-24 329,-24 329,-30 323,-36 317,-36"/>
<text xml:space="preserve" text-anchor="middle" x="279.75" y="-12.57" font-family="Comic Mono" font-size="14.00">Candidate C</text>
</g>
<!-- tick&#45;&gt;nodeC -->
<g id="edge3" class="edge">
<title>tick&#45;&gt;nodeC</title>
<path fill="none" stroke="#758297" d="M71.75,-82.58C71.75,-58.13 71.75,-18 71.75,-18 71.75,-18 218.68,-18 218.68,-18"/>
<polygon fill="#758297" stroke="#758297" points="218.68,-21.5 228.68,-18 218.68,-14.5 218.68,-21.5"/>
<text xml:space="preserve" text-anchor="middle" x="187" y="-30.5" font-family="Comic Mono" font-size="10.00">call</text>
</g>
<!-- backend -->
<g id="node5" class="node">
<title>backend</title>
<path fill="#f8fafc" stroke="#94a3b8" d="M586.5,-119C586.5,-119 459.5,-119 459.5,-119 453.5,-119 447.5,-113 447.5,-107 447.5,-107 447.5,-95 447.5,-95 447.5,-89 453.5,-83 459.5,-83 459.5,-83 586.5,-83 586.5,-83 592.5,-83 598.5,-89 598.5,-95 598.5,-95 598.5,-107 598.5,-107 598.5,-113 592.5,-119 586.5,-119"/>
<text xml:space="preserve" text-anchor="middle" x="523" y="-95.58" font-family="Comic Mono" font-size="14.00">coordination Lease</text>
</g>
<!-- nodeA&#45;&gt;backend -->
<g id="edge4" class="edge">
<title>nodeA&#45;&gt;backend</title>
<path fill="none" stroke="#758297" d="M329.22,-184C400.27,-184 522.75,-184 522.75,-184 522.75,-184 522.75,-130.93 522.75,-130.93"/>
<polygon fill="#758297" stroke="#758297" points="526.25,-130.93 522.75,-120.93 519.25,-130.93 526.25,-130.93"/>
<text xml:space="preserve" text-anchor="middle" x="388.25" y="-176.5" font-family="Comic Mono" font-size="10.00">contention</text>
</g>
<!-- nodeB&#45;&gt;backend -->
<g id="edge5" class="edge">
<title>nodeB&#45;&gt;backend</title>
<path fill="none" stroke="#758297" d="M329.27,-101C329.27,-101 435.67,-101 435.67,-101"/>
<polygon fill="#758297" stroke="#758297" points="435.67,-104.5 445.67,-101 435.67,-97.5 435.67,-104.5"/>
<text xml:space="preserve" text-anchor="middle" x="388.25" y="-103.5" font-family="Comic Mono" font-size="10.00">contention</text>
</g>
<!-- nodeC&#45;&gt;backend -->
<g id="edge6" class="edge">
<title>nodeC&#45;&gt;backend</title>
<path fill="none" stroke="#758297" d="M329.22,-18C400.27,-18 522.75,-18 522.75,-18 522.75,-18 522.75,-71.07 522.75,-71.07"/>
<polygon fill="#758297" stroke="#758297" points="519.25,-71.07 522.75,-81.07 526.25,-71.07 519.25,-71.07"/>
<text xml:space="preserve" text-anchor="middle" x="388.25" y="-30.5" font-family="Comic Mono" font-size="10.00">contention</text>
</g>
<!-- recovery -->
<g id="node6" class="node">
<title>recovery</title>
<path fill="#f8fafc" stroke="#94a3b8" d="M847.75,-202C847.75,-202 713.25,-202 713.25,-202 707.25,-202 701.25,-196 701.25,-190 701.25,-190 701.25,-178 701.25,-178 701.25,-172 707.25,-166 713.25,-166 713.25,-166 847.75,-166 847.75,-166 853.75,-166 859.75,-172 859.75,-178 859.75,-178 859.75,-190 859.75,-190 859.75,-196 853.75,-202 847.75,-202"/>
<text xml:space="preserve" text-anchor="middle" x="780.5" y="-178.57" font-family="Comic Mono" font-size="14.00">RBAC Scoped Handoff</text>
</g>
<!-- backend&#45;&gt;recovery -->
<g id="edge9" class="edge">
<title>backend&#45;&gt;recovery</title>
<path fill="none" stroke="#758297" d="M598.82,-110C650.18,-110 708.75,-110 708.75,-110 708.75,-110 708.75,-154.19 708.75,-154.19"/>
<polygon fill="#758297" stroke="#758297" points="705.25,-154.19 708.75,-164.19 712.25,-154.19 705.25,-154.19"/>
<text xml:space="preserve" text-anchor="middle" x="649.88" y="-186.5" font-family="Comic Mono" font-size="10.00">release</text>
</g>
<!-- skipped -->
<g id="node7" class="node">
<title>skipped</title>
<path fill="#f8fafc" stroke="#94a3b8" d="M814,-119C814,-119 747,-119 747,-119 741,-119 735,-113 735,-107 735,-107 735,-95 735,-95 735,-89 741,-83 747,-83 747,-83 814,-83 814,-83 820,-83 826,-89 826,-95 826,-95 826,-107 826,-107 826,-113 820,-119 814,-119"/>
<text xml:space="preserve" text-anchor="middle" x="780.5" y="-95.58" font-family="Comic Mono" font-size="14.00">Peers Skip</text>
</g>
<!-- backend&#45;&gt;skipped -->
<g id="edge8" class="edge">
<title>backend&#45;&gt;skipped</title>
<path fill="none" stroke="#758297" d="M598.87,-101C598.87,-101 723.11,-101 723.11,-101"/>
<polygon fill="#758297" stroke="#758297" points="723.11,-104.5 733.11,-101 723.11,-97.5 723.11,-104.5"/>
<text xml:space="preserve" text-anchor="middle" x="649.88" y="-103.5" font-family="Comic Mono" font-size="10.00">skip</text>
</g>
<!-- leader -->
<g id="node8" class="node">
<title>leader</title>
<path fill="#f8fafc" stroke="#94a3b8" d="M832.75,-36C832.75,-36 728.25,-36 728.25,-36 722.25,-36 716.25,-30 716.25,-24 716.25,-24 716.25,-12 716.25,-12 716.25,-6 722.25,0 728.25,0 728.25,0 832.75,0 832.75,0 838.75,0 844.75,-6 844.75,-12 844.75,-12 844.75,-24 844.75,-24 844.75,-30 838.75,-36 832.75,-36"/>
<text xml:space="preserve" text-anchor="middle" x="780.5" y="-12.57" font-family="Comic Mono" font-size="14.00">One Leader Runs</text>
</g>
<!-- backend&#45;&gt;leader -->
<g id="edge7" class="edge">
<title>backend&#45;&gt;leader</title>
<path fill="none" stroke="#758297" d="M598.78,-92C656.37,-92 725.75,-92 725.75,-92 725.75,-92 725.75,-47.81 725.75,-47.81"/>
<polygon fill="#758297" stroke="#758297" points="729.25,-47.81 725.75,-37.81 722.25,-47.81 729.25,-47.81"/>
<text xml:space="preserve" text-anchor="middle" x="649.88" y="-20.5" font-family="Comic Mono" font-size="10.00">success</text>
</g>
</g>
</svg>
