<?xml version="1.0" encoding="UTF-8" standalone="no"?>
<!DOCTYPE svg PUBLIC "-//W3C//DTD SVG 1.1//EN"
 "http://www.w3.org/Graphics/SVG/1.1/DTD/svg11.dtd">
<!-- Generated by graphviz version 15.0.0 (20260523.1842)
 -->
<!-- Title: examples&#45;virtual&#45;thread&#45;runner&#45;flow&#45;01 Pages: 1 -->
<svg width="1268pt" height="555pt"
 viewBox="0.00 0.00 1268.00 555.00" xmlns="http://www.w3.org/2000/svg" xmlns:xlink="http://www.w3.org/1999/xlink">
<g id="graph0" class="graph" transform="scale(1 1) rotate(0) translate(4 550.66)">
<title>examples&#45;virtual&#45;thread&#45;runner&#45;flow&#45;01</title>
<text xml:space="preserve" text-anchor="middle" x="630" y="-529.36" font-family="Times,serif" font-size="14.00">Virtual Thread Runner Flow</text>
<!-- n0&#45;&gt;r1p1 -->
<g id="edge1" class="edge">
<title>n0&#45;&gt;r1p1</title>
<path fill="none" stroke="#758297" stroke-width="1.8" d="M300.4,-476.08C314.83,-476.08 325.43,-476.08 328.9,-476.08"/>
</g>
<!-- n1&#45;&gt;r2p1 -->
<g id="edge4" class="edge">
<title>n1&#45;&gt;r2p1</title>
<path fill="none" stroke="#758297" stroke-width="1.8" d="M660.4,-476.08C674.83,-476.08 685.43,-476.08 688.9,-476.08"/>
</g>
<!-- n2&#45;&gt;r3p1 -->
<g id="edge7" class="edge">
<title>n2&#45;&gt;r3p1</title>
<path fill="none" stroke="#758297" stroke-width="1.8" d="M870.12,-429.77C870.12,-407.63 870.12,-384.63 870.12,-378.6"/>
</g>
<!-- n2&#45;&gt;r4p1 -->
<g id="edge10" class="edge">
<title>n2&#45;&gt;r4p1</title>
<path fill="none" stroke="#758297" stroke-width="1.8" d="M1020.51,-476.08C1056.5,-476.08 1086.63,-476.08 1093.6,-476.08"/>
</g>
<!-- n3&#45;&gt;n5 -->
<g id="edge13" class="edge">
<title>n3&#45;&gt;n5</title>
<path fill="none" stroke="#758297" stroke-width="1.8" d="M445.12,-219.69C445.12,-185.61 445.12,-139.13 445.12,-102.83"/>
<polygon fill="#758297" stroke="#758297" stroke-width="1.8" points="447.92,-103.13 445.12,-95.13 442.32,-103.13 447.92,-103.13"/>
</g>
<!-- n4&#45;&gt;n6 -->
<g id="edge14" class="edge">
<title>n4&#45;&gt;n6</title>
<path fill="none" stroke="#758297" stroke-width="1.8" d="M1095.12,-219.69C1095.12,-185.61 1095.12,-139.13 1095.12,-102.83"/>
<polygon fill="#758297" stroke="#758297" stroke-width="1.8" points="1097.92,-103.13 1095.12,-95.13 1092.32,-103.13 1097.92,-103.13"/>
</g>
<!-- n5&#45;&gt;r7p1 -->
<g id="edge15" class="edge">
<title>n5&#45;&gt;r7p1</title>
<path fill="none" stroke="#758297" stroke-width="1.8" d="M610.1,-46.08C677.77,-46.08 742.9,-46.08 753.59,-46.08"/>
</g>
<!-- r1p1&#45;&gt;r1p2 -->
<g id="edge2" class="edge">
<title>r1p1&#45;&gt;r1p2</title>
<path fill="none" stroke="#758297" stroke-width="1.8" d="M330.12,-476.08C330.12,-476.08 330.12,-476.08 330.12,-476.08"/>
</g>
<!-- r1p2&#45;&gt;n1 -->
<g id="edge3" class="edge">
<title>r1p2&#45;&gt;n1</title>
<path fill="none" stroke="#758297" stroke-width="1.8" d="M331.68,-476.08C334.42,-476.08 340.66,-476.08 349.23,-476.08"/>
<polygon fill="#758297" stroke="#758297" stroke-width="1.8" points="349.11,-478.88 357.11,-476.08 349.11,-473.28 349.11,-478.88"/>
</g>
<!-- r2p1&#45;&gt;r2p2 -->
<g id="edge5" class="edge">
<title>r2p1&#45;&gt;r2p2</title>
<path fill="none" stroke="#758297" stroke-width="1.8" d="M690.12,-476.08C690.12,-476.08 690.12,-476.08 690.12,-476.08"/>
</g>
<!-- r2p2&#45;&gt;n2 -->
<g id="edge6" class="edge">
<title>r2p2&#45;&gt;n2</title>
<path fill="none" stroke="#758297" stroke-width="1.8" d="M691.68,-476.08C694.42,-476.08 700.66,-476.08 709.23,-476.08"/>
<polygon fill="#758297" stroke="#758297" stroke-width="1.8" points="709.11,-478.88 717.11,-476.08 709.11,-473.28 709.11,-478.88"/>
</g>
<!-- r3p1&#45;&gt;r3p2 -->
<g id="edge8" class="edge">
<title>r3p1&#45;&gt;r3p2</title>
<path fill="none" stroke="#758297" stroke-width="1.8" d="M868.58,-377.08C841.74,-377.08 472.48,-377.08 446.55,-377.08"/>
</g>
<!-- r3p2&#45;&gt;n3 -->
<g id="edge9" class="edge">
<title>r3p2&#45;&gt;n3</title>
<path fill="none" stroke="#758297" stroke-width="1.8" d="M445.12,-375.51C445.12,-369.41 445.12,-346.45 445.12,-323.12"/>
<polygon fill="#758297" stroke="#758297" stroke-width="1.8" points="447.92,-323.16 445.12,-315.16 442.32,-323.16 447.92,-323.16"/>
</g>
<!-- r4p1&#45;&gt;r4p2 -->
<g id="edge11" class="edge">
<title>r4p1&#45;&gt;r4p2</title>
<path fill="none" stroke="#758297" stroke-width="1.8" d="M1095.12,-474.78C1095.12,-462.93 1095.12,-373.98 1095.12,-361.53"/>
</g>
<!-- r4p2&#45;&gt;n4 -->
<g id="edge12" class="edge">
<title>r4p2&#45;&gt;n4</title>
<path fill="none" stroke="#758297" stroke-width="1.8" d="M1095.12,-358.75C1095.12,-354.33 1095.12,-339.48 1095.12,-322.93"/>
<polygon fill="#758297" stroke="#758297" stroke-width="1.8" points="1097.92,-323.2 1095.12,-315.2 1092.32,-323.2 1097.92,-323.2"/>
</g>
<!-- r7p1&#45;&gt;r7p2 -->
<g id="edge16" class="edge">
<title>r7p1&#45;&gt;r7p2</title>
<path fill="none" stroke="#758297" stroke-width="1.8" d="M755.12,-44.62C755.12,-37.94 755.12,-10.38 755.12,-3.59"/>
</g>
<!-- r7p2&#45;&gt;n6 -->
<g id="edge17" class="edge">
<title>r7p2&#45;&gt;n6</title>
<path fill="none" stroke="#758297" stroke-width="1.8" d="M756.64,-2.28C768.12,-3.76 843.06,-13.46 919.51,-23.35"/>
<polygon fill="#758297" stroke="#758297" stroke-width="1.8" points="918.82,-26.09 927.11,-24.34 919.54,-20.53 918.82,-26.09"/>
</g>
<!-- n0 -->
<g id="node1" class="node">
<title>n0</title>
<path fill="#ffffff" stroke="#5b8def" d="M288.24,-522.16C288.24,-522.16 12,-522.16 12,-522.16 6,-522.16 0,-516.16 0,-510.16 0,-510.16 0,-442 0,-442 0,-436 6,-430 12,-430 12,-430 288.24,-430 288.24,-430 294.24,-430 300.24,-436 300.24,-442 300.24,-442 300.24,-510.16 300.24,-510.16 300.24,-516.16 294.24,-522.16 288.24,-522.16"/>
<text xml:space="preserve" text-anchor="middle" x="150.12" y="-471.73" font-family="Architects Daughter" font-size="18.00">runRound()</text>
</g>
<!-- n1 -->
<g id="node2" class="node">
<title>n1</title>
<path fill="#ffffff" stroke="#8a72d6" d="M648.24,-522.16C648.24,-522.16 372,-522.16 372,-522.16 366,-522.16 360,-516.16 360,-510.16 360,-510.16 360,-442 360,-442 360,-436 366,-430 372,-430 372,-430 648.24,-430 648.24,-430 654.24,-430 660.24,-436 660.24,-442 660.24,-442 660.24,-510.16 660.24,-510.16 660.24,-516.16 654.24,-522.16 648.24,-522.16"/>
<text xml:space="preserve" text-anchor="middle" x="510.12" y="-471.73" font-family="Architects Daughter" font-size="18.00">runAsyncIfLeader</text>
</g>
<!-- n2 -->
<g id="node3" class="node">
<title>n2</title>
<path fill="#ffffff" stroke="#d6a441" d="M1008.24,-522.16C1008.24,-522.16 732,-522.16 732,-522.16 726,-522.16 720,-516.16 720,-510.16 720,-510.16 720,-442 720,-442 720,-436 726,-430 732,-430 732,-430 1008.24,-430 1008.24,-430 1014.24,-430 1020.24,-436 1020.24,-442 1020.24,-442 1020.24,-510.16 1020.24,-510.16 1020.24,-516.16 1014.24,-522.16 1008.24,-522.16"/>
<text xml:space="preserve" text-anchor="middle" x="870.12" y="-471.73" font-family="Architects Daughter" font-size="18.00">First holder?</text>
</g>
<!-- n3 -->
<g id="node4" class="node">
<title>n3</title>
<path fill="#ffffff" stroke="#58a978" d="M598,-312.16C598,-312.16 292.24,-312.16 292.24,-312.16 286.24,-312.16 280.24,-306.16 280.24,-300.16 280.24,-300.16 280.24,-232 280.24,-232 280.24,-226 286.24,-220 292.24,-220 292.24,-220 598,-220 598,-220 604,-220 610,-226 610,-232 610,-232 610,-300.16 610,-300.16 610,-306.16 604,-312.16 598,-312.16"/>
<text xml:space="preserve" text-anchor="middle" x="445.12" y="-261.73" font-family="Architects Daughter" font-size="18.00">Virtual thread body</text>
</g>
<!-- n4 -->
<g id="node5" class="node">
<title>n4</title>
<path fill="#ffffff" stroke="#dc6b82" d="M1248,-312.16C1248,-312.16 942.24,-312.16 942.24,-312.16 936.24,-312.16 930.24,-306.16 930.24,-300.16 930.24,-300.16 930.24,-232 930.24,-232 930.24,-226 936.24,-220 942.24,-220 942.24,-220 1248,-220 1248,-220 1254,-220 1260,-226 1260,-232 1260,-232 1260,-300.16 1260,-300.16 1260,-306.16 1254,-312.16 1248,-312.16"/>
<text xml:space="preserve" text-anchor="middle" x="1095.12" y="-261.73" font-family="Architects Daughter" font-size="18.00">Contenders</text>
</g>
<!-- n5 -->
<g id="node6" class="node">
<title>n5</title>
<path fill="#ffffff" stroke="#45a7a1" d="M598,-92.16C598,-92.16 292.24,-92.16 292.24,-92.16 286.24,-92.16 280.24,-86.16 280.24,-80.16 280.24,-80.16 280.24,-12 280.24,-12 280.24,-6 286.24,0 292.24,0 292.24,0 598,0 598,0 604,0 610,-6 610,-12 610,-12 610,-80.16 610,-80.16 610,-86.16 604,-92.16 598,-92.16"/>
<text xml:space="preserve" text-anchor="middle" x="445.12" y="-41.73" font-family="Architects Daughter" font-size="18.00">Release latch</text>
</g>
<!-- n6 -->
<g id="node7" class="node">
<title>n6</title>
<path fill="#ffffff" stroke="#b88a44" d="M1248,-92.16C1248,-92.16 942.24,-92.16 942.24,-92.16 936.24,-92.16 930.24,-86.16 930.24,-80.16 930.24,-80.16 930.24,-12 930.24,-12 930.24,-6 936.24,0 942.24,0 942.24,0 1248,0 1248,0 1254,0 1260,-6 1260,-12 1260,-12 1260,-80.16 1260,-80.16 1260,-86.16 1254,-92.16 1248,-92.16"/>
<text xml:space="preserve" text-anchor="middle" x="1095.12" y="-41.73" font-family="Architects Daughter" font-size="18.00">Round report</text>
</g>
<!-- r1p1 -->
<!-- r1p2 -->
<!-- r2p1 -->
<!-- r2p2 -->
<!-- r3p1 -->
<!-- r3p2 -->
<!-- r4p1 -->
<!-- r4p2 -->
<!-- r7p1 -->
<!-- r7p2 -->
</g>
</svg>
