<?xml version="1.0" encoding="UTF-8" standalone="no"?>
<!DOCTYPE svg PUBLIC "-//W3C//DTD SVG 1.1//EN"
 "http://www.w3.org/Graphics/SVG/1.1/DTD/svg11.dtd">
<!-- Generated by graphviz version 15.0.0 (20260523.1842)
 -->
<!-- Title: examples&#45;k8s&#45;operator&#45;architecture&#45;01 Pages: 1 -->
<svg width="1138pt" height="425pt"
 viewBox="0.00 0.00 1138.00 425.00" xmlns="http://www.w3.org/2000/svg" xmlns:xlink="http://www.w3.org/1999/xlink">
<g id="graph0" class="graph" transform="scale(1 1) rotate(0) translate(4 420.66)">
<title>examples&#45;k8s&#45;operator&#45;architecture&#45;01</title>
<text xml:space="preserve" text-anchor="middle" x="564.84" y="-399.36" font-family="Times,serif" font-size="14.00">K8s Operator Architecture</text>
<!-- n0&#45;&gt;r1p1 -->
<g id="edge1" class="edge">
<title>n0&#45;&gt;r1p1</title>
<path fill="none" stroke="#758297" stroke-width="1.8" d="M230.05,-346.08C246.42,-346.08 259.15,-346.08 263.36,-346.08"/>
</g>
<!-- n1&#45;&gt;r2p1 -->
<g id="edge4" class="edge">
<title>n1&#45;&gt;r2p1</title>
<path fill="none" stroke="#758297" stroke-width="1.8" d="M230.05,-196.08C246.42,-196.08 259.15,-196.08 263.36,-196.08"/>
</g>
<!-- n2&#45;&gt;r3p1 -->
<g id="edge7" class="edge">
<title>n2&#45;&gt;r3p1</title>
<path fill="none" stroke="#758297" stroke-width="1.8" d="M230.05,-46.08C246.42,-46.08 259.15,-46.08 263.36,-46.08"/>
</g>
<!-- n3&#45;&gt;r4p1 -->
<g id="edge10" class="edge">
<title>n3&#45;&gt;r4p1</title>
<path fill="none" stroke="#758297" stroke-width="1.8" d="M529.92,-196.08C548.83,-196.08 563.8,-196.08 568.38,-196.08"/>
</g>
<!-- n3&#45;&gt;r6p1 -->
<g id="edge16" class="edge">
<title>n3&#45;&gt;r6p1</title>
<path fill="none" stroke="#758297" stroke-width="1.8" d="M529.97,-196.08C608.62,-196.08 700.82,-196.08 713.39,-196.08"/>
</g>
<!-- n4&#45;&gt;r5p1 -->
<g id="edge13" class="edge">
<title>n4&#45;&gt;r5p1</title>
<path fill="none" stroke="#758297" stroke-width="1.8" d="M869.73,-196.08C869.77,-196.08 869.8,-196.08 869.81,-196.08"/>
</g>
<!-- r1p1&#45;&gt;r1p2 -->
<g id="edge2" class="edge">
<title>r1p1&#45;&gt;r1p2</title>
<path fill="none" stroke="#758297" stroke-width="1.8" d="M264.84,-344.78C264.84,-331.04 264.84,-212.37 264.84,-197.59"/>
</g>
<!-- r1p2&#45;&gt;n3 -->
<g id="edge3" class="edge">
<title>r1p2&#45;&gt;n3</title>
<path fill="none" stroke="#758297" stroke-width="1.8" d="M266.14,-196.08C269.24,-196.08 277.68,-196.08 289.06,-196.08"/>
<polygon fill="#758297" stroke="#758297" stroke-width="1.8" points="289.04,-198.88 297.04,-196.08 289.04,-193.28 289.04,-198.88"/>
</g>
<!-- r2p1&#45;&gt;r2p2 -->
<g id="edge5" class="edge">
<title>r2p1&#45;&gt;r2p2</title>
<path fill="none" stroke="#758297" stroke-width="1.8" d="M264.84,-196.08C264.84,-196.08 264.84,-196.08 264.84,-196.08"/>
</g>
<!-- r2p2&#45;&gt;n3 -->
<g id="edge6" class="edge">
<title>r2p2&#45;&gt;n3</title>
<path fill="none" stroke="#758297" stroke-width="1.8" d="M266.14,-196.08C269.24,-196.08 277.68,-196.08 289.06,-196.08"/>
<polygon fill="#758297" stroke="#758297" stroke-width="1.8" points="289.04,-198.88 297.04,-196.08 289.04,-193.28 289.04,-198.88"/>
</g>
<!-- r3p1&#45;&gt;r3p2 -->
<g id="edge8" class="edge">
<title>r3p1&#45;&gt;r3p2</title>
<path fill="none" stroke="#758297" stroke-width="1.8" d="M264.84,-47.38C264.84,-61.12 264.84,-179.79 264.84,-194.57"/>
</g>
<!-- r3p2&#45;&gt;n3 -->
<g id="edge9" class="edge">
<title>r3p2&#45;&gt;n3</title>
<path fill="none" stroke="#758297" stroke-width="1.8" d="M266.14,-196.08C269.24,-196.08 277.68,-196.08 289.06,-196.08"/>
<polygon fill="#758297" stroke="#758297" stroke-width="1.8" points="289.04,-198.88 297.04,-196.08 289.04,-193.28 289.04,-198.88"/>
</g>
<!-- r4p1&#45;&gt;r4p2 -->
<g id="edge11" class="edge">
<title>r4p1&#45;&gt;r4p2</title>
<path fill="none" stroke="#758297" stroke-width="1.8" d="M569.84,-196.08C569.84,-196.08 569.84,-196.08 569.84,-196.08"/>
</g>
<!-- r4p2&#45;&gt;n4 -->
<g id="edge12" class="edge">
<title>r4p2&#45;&gt;n4</title>
<path fill="none" stroke="#758297" stroke-width="1.8" d="M571.18,-196.08C571.28,-196.08 571.38,-196.08 571.48,-196.08"/>
<polygon fill="#758297" stroke="#758297" stroke-width="1.8" points="568.61,-198.88 576.61,-196.08 568.61,-193.28 568.61,-198.88"/>
</g>
<!-- r5p1&#45;&gt;r5p2 -->
<g id="edge14" class="edge">
<title>r5p1&#45;&gt;r5p2</title>
<path fill="none" stroke="#758297" stroke-width="1.8" d="M869.84,-197.49C869.84,-208.7 869.84,-283.03 869.84,-294.57"/>
</g>
<!-- r5p2&#45;&gt;n5 -->
<g id="edge15" class="edge">
<title>r5p2&#45;&gt;n5</title>
<path fill="none" stroke="#758297" stroke-width="1.8" d="M871.09,-296.08C873.7,-296.08 880.19,-296.08 889.05,-296.08"/>
<polygon fill="#758297" stroke="#758297" stroke-width="1.8" points="888.81,-298.88 896.81,-296.08 888.81,-293.28 888.81,-298.88"/>
</g>
<!-- r6p1&#45;&gt;r6p2 -->
<g id="edge17" class="edge">
<title>r6p1&#45;&gt;r6p2</title>
<path fill="none" stroke="#758297" stroke-width="1.8" d="M714.84,-194.67C714.84,-183.46 714.84,-109.13 714.84,-97.59"/>
</g>
<!-- r6p2&#45;&gt;n6 -->
<g id="edge18" class="edge">
<title>r6p2&#45;&gt;n6</title>
<path fill="none" stroke="#758297" stroke-width="1.8" d="M716.18,-96.08C727.76,-96.08 812.55,-96.08 888.83,-96.08"/>
<polygon fill="#758297" stroke="#758297" stroke-width="1.8" points="888.8,-98.88 896.8,-96.08 888.8,-93.28 888.8,-98.88"/>
</g>
<!-- n0 -->
<g id="node1" class="node">
<title>n0</title>
<path fill="#ffffff" stroke="#5b8def" d="M217.68,-392.16C217.68,-392.16 12,-392.16 12,-392.16 6,-392.16 0,-386.16 0,-380.16 0,-380.16 0,-312 0,-312 0,-306 6,-300 12,-300 12,-300 217.68,-300 217.68,-300 223.68,-300 229.68,-306 229.68,-312 229.68,-312 229.68,-380.16 229.68,-380.16 229.68,-386.16 223.68,-392.16 217.68,-392.16"/>
<text xml:space="preserve" text-anchor="middle" x="114.84" y="-341.73" font-family="Architects Daughter" font-size="18.00">Operator pod&#45;1</text>
</g>
<!-- n1 -->
<g id="node2" class="node">
<title>n1</title>
<path fill="#ffffff" stroke="#58a978" d="M217.68,-242.16C217.68,-242.16 12,-242.16 12,-242.16 6,-242.16 0,-236.16 0,-230.16 0,-230.16 0,-162 0,-162 0,-156 6,-150 12,-150 12,-150 217.68,-150 217.68,-150 223.68,-150 229.68,-156 229.68,-162 229.68,-162 229.68,-230.16 229.68,-230.16 229.68,-236.16 223.68,-242.16 217.68,-242.16"/>
<text xml:space="preserve" text-anchor="middle" x="114.84" y="-191.73" font-family="Architects Daughter" font-size="18.00">Operator pod&#45;2</text>
</g>
<!-- n2 -->
<g id="node3" class="node">
<title>n2</title>
<path fill="#ffffff" stroke="#d6a441" d="M217.68,-92.16C217.68,-92.16 12,-92.16 12,-92.16 6,-92.16 0,-86.16 0,-80.16 0,-80.16 0,-12 0,-12 0,-6 6,0 12,0 12,0 217.68,0 217.68,0 223.68,0 229.68,-6 229.68,-12 229.68,-12 229.68,-80.16 229.68,-80.16 229.68,-86.16 223.68,-92.16 217.68,-92.16"/>
<text xml:space="preserve" text-anchor="middle" x="114.84" y="-41.73" font-family="Architects Daughter" font-size="18.00">Operator pod&#45;3</text>
</g>
<!-- n3 -->
<g id="node4" class="node">
<title>n3</title>
<path fill="#ffffff" stroke="#dc6b82" d="M517.68,-242.16C517.68,-242.16 312,-242.16 312,-242.16 306,-242.16 300,-236.16 300,-230.16 300,-230.16 300,-162 300,-162 300,-156 306,-150 312,-150 312,-150 517.68,-150 517.68,-150 523.68,-150 529.68,-156 529.68,-162 529.68,-162 529.68,-230.16 529.68,-230.16 529.68,-236.16 523.68,-242.16 517.68,-242.16"/>
<text xml:space="preserve" text-anchor="middle" x="414.84" y="-191.73" font-family="Architects Daughter" font-size="18.00">OperatorController</text>
</g>
<!-- n4 -->
<g id="node5" class="node">
<title>n4</title>
<path fill="#ffffff" stroke="#45a7a1" d="M857.86,-242.16C857.86,-242.16 591.82,-242.16 591.82,-242.16 585.82,-242.16 579.82,-236.16 579.82,-230.16 579.82,-230.16 579.82,-162 579.82,-162 579.82,-156 585.82,-150 591.82,-150 591.82,-150 857.86,-150 857.86,-150 863.86,-150 869.86,-156 869.86,-162 869.86,-162 869.86,-230.16 869.86,-230.16 869.86,-236.16 863.86,-242.16 857.86,-242.16"/>
<text xml:space="preserve" text-anchor="middle" x="724.84" y="-191.73" font-family="Architects Daughter" font-size="18.00">KubernetesLeaseLeaderElector</text>
</g>
<!-- n5 -->
<g id="node6" class="node">
<title>n5</title>
<path fill="#ffffff" stroke="#8a72d6" d="M1117.68,-342.16C1117.68,-342.16 912,-342.16 912,-342.16 906,-342.16 900,-336.16 900,-330.16 900,-330.16 900,-262 900,-262 900,-256 906,-250 912,-250 912,-250 1117.68,-250 1117.68,-250 1123.68,-250 1129.68,-256 1129.68,-262 1129.68,-262 1129.68,-330.16 1129.68,-330.16 1129.68,-336.16 1123.68,-342.16 1117.68,-342.16"/>
<text xml:space="preserve" text-anchor="middle" x="1014.84" y="-291.73" font-family="Architects Daughter" font-size="18.00">Kubernetes Lease</text>
</g>
<!-- n6 -->
<g id="node7" class="node">
<title>n6</title>
<path fill="#ffffff" stroke="#b88a44" d="M1117.68,-142.16C1117.68,-142.16 912,-142.16 912,-142.16 906,-142.16 900,-136.16 900,-130.16 900,-130.16 900,-62 900,-62 900,-56 906,-50 912,-50 912,-50 1117.68,-50 1117.68,-50 1123.68,-50 1129.68,-56 1129.68,-62 1129.68,-62 1129.68,-130.16 1129.68,-130.16 1129.68,-136.16 1123.68,-142.16 1117.68,-142.16"/>
<text xml:space="preserve" text-anchor="middle" x="1014.84" y="-91.73" font-family="Architects Daughter" font-size="18.00">Demo workload</text>
</g>
<!-- r1p1 -->
<!-- r1p2 -->
<!-- r2p1 -->
<!-- r2p2 -->
<!-- r3p1 -->
<!-- r3p2 -->
<!-- r4p1 -->
<!-- r4p2 -->
<!-- r5p1 -->
<!-- r5p2 -->
<!-- r6p1 -->
<!-- r6p2 -->
</g>
</svg>
