<?xml version="1.0" encoding="UTF-8" standalone="no"?>
<!DOCTYPE svg PUBLIC "-//W3C//DTD SVG 1.1//EN"
 "http://www.w3.org/Graphics/SVG/1.1/DTD/svg11.dtd">
<!-- Generated by graphviz version 15.0.0 (20260523.1842)
 -->
<!-- Title: examples&#45;zookeeper&#45;scheduler&#45;architecture&#45;01 Pages: 1 -->
<svg width="1465pt" height="136pt"
 viewBox="0.00 0.00 1465.00 136.00" xmlns="http://www.w3.org/2000/svg" xmlns:xlink="http://www.w3.org/1999/xlink">
<g id="graph0" class="graph" transform="scale(1 1) rotate(0) translate(4 132)">
<title>examples&#45;zookeeper&#45;scheduler&#45;architecture&#45;01</title>
<!-- trigger -->
<g id="node1" class="node">
<title>trigger</title>
<path fill="#f8fafc" stroke="#94a3b8" d="M109,-77C109,-77 12,-77 12,-77 6,-77 0,-71 0,-65 0,-65 0,-53 0,-53 0,-47 6,-41 12,-41 12,-41 109,-41 109,-41 115,-41 121,-47 121,-53 121,-53 121,-65 121,-65 121,-71 115,-77 109,-77"/>
<text xml:space="preserve" text-anchor="middle" x="60.5" y="-53.58" font-family="Comic Mono" font-size="14.00">Scheduler Tick</text>
</g>
<!-- nodeA -->
<g id="node2" class="node">
<title>nodeA</title>
<path fill="#f8fafc" stroke="#94a3b8" d="M332,-119C332,-119 220,-119 220,-119 214,-119 208,-113 208,-107 208,-107 208,-95 208,-95 208,-89 214,-83 220,-83 220,-83 332,-83 332,-83 338,-83 344,-89 344,-95 344,-95 344,-107 344,-107 344,-113 338,-119 332,-119"/>
<text xml:space="preserve" text-anchor="middle" x="276" y="-95.58" font-family="Comic Mono" font-size="14.00">Candidate Node A</text>
</g>
<!-- trigger&#45;&gt;nodeA -->
<g id="edge1" class="edge">
<title>trigger&#45;&gt;nodeA</title>
<path fill="none" stroke="#758297" d="M60.25,-77.06C60.25,-88.44 60.25,-101 60.25,-101 60.25,-101 196.22,-101 196.22,-101"/>
<polygon fill="#758297" stroke="#758297" points="196.22,-104.5 206.22,-101 196.22,-97.5 196.22,-104.5"/>
<text xml:space="preserve" text-anchor="middle" x="164.5" y="-98.5" font-family="Comic Mono" font-size="10.00">call</text>
</g>
<!-- nodeB -->
<g id="node3" class="node">
<title>nodeB</title>
<path fill="#f8fafc" stroke="#94a3b8" d="M332,-36C332,-36 220,-36 220,-36 214,-36 208,-30 208,-24 208,-24 208,-12 208,-12 208,-6 214,0 220,0 220,0 332,0 332,0 338,0 344,-6 344,-12 344,-12 344,-24 344,-24 344,-30 338,-36 332,-36"/>
<text xml:space="preserve" text-anchor="middle" x="276" y="-12.57" font-family="Comic Mono" font-size="14.00">Candidate Node B</text>
</g>
<!-- trigger&#45;&gt;nodeB -->
<g id="edge2" class="edge">
<title>trigger&#45;&gt;nodeB</title>
<path fill="none" stroke="#758297" d="M60.25,-40.9C60.25,-29.91 60.25,-18 60.25,-18 60.25,-18 196.22,-18 196.22,-18"/>
<polygon fill="#758297" stroke="#758297" points="196.22,-21.5 206.22,-18 196.22,-14.5 196.22,-21.5"/>
<text xml:space="preserve" text-anchor="middle" x="164.5" y="-29.5" font-family="Comic Mono" font-size="10.00">call</text>
</g>
<!-- coordinator -->
<g id="node4" class="node">
<title>coordinator</title>
<path fill="#f8fafc" stroke="#94a3b8" d="M615,-77C615,-77 443,-77 443,-77 437,-77 431,-71 431,-65 431,-65 431,-53 431,-53 431,-47 437,-41 443,-41 443,-41 615,-41 615,-41 621,-41 627,-47 627,-53 627,-53 627,-65 627,-65 627,-71 621,-77 615,-77"/>
<text xml:space="preserve" text-anchor="middle" x="529" y="-53.58" font-family="Comic Mono" font-size="14.00">ZooKeeperLegacyScheduler</text>
</g>
<!-- nodeA&#45;&gt;coordinator -->
<g id="edge3" class="edge">
<title>nodeA&#45;&gt;coordinator</title>
<path fill="none" stroke="#758297" d="M253.25,-82.58C253.25,-73.72 253.25,-65 253.25,-65 253.25,-65 419.1,-65 419.1,-65"/>
<polygon fill="#758297" stroke="#758297" points="419.1,-68.5 429.1,-65 419.1,-61.5 419.1,-68.5"/>
<text xml:space="preserve" text-anchor="middle" x="387.5" y="-98.5" font-family="Comic Mono" font-size="10.00">call</text>
</g>
<!-- nodeB&#45;&gt;coordinator -->
<g id="edge4" class="edge">
<title>nodeB&#45;&gt;coordinator</title>
<path fill="none" stroke="#758297" d="M298.25,-36.32C298.25,-44.79 298.25,-53 298.25,-53 298.25,-53 419.29,-53 419.29,-53"/>
<polygon fill="#758297" stroke="#758297" points="419.29,-56.5 429.29,-53 419.29,-49.5 419.29,-56.5"/>
<text xml:space="preserve" text-anchor="middle" x="387.5" y="-29.5" font-family="Comic Mono" font-size="10.00">call</text>
</g>
<!-- elector -->
<g id="node6" class="node">
<title>elector</title>
<path fill="#f8fafc" stroke="#94a3b8" d="M914.5,-128C914.5,-128 757.5,-128 757.5,-128 751.5,-128 745.5,-122 745.5,-116 745.5,-116 745.5,-104 745.5,-104 745.5,-98 751.5,-92 757.5,-92 757.5,-92 914.5,-92 914.5,-92 920.5,-92 926.5,-98 926.5,-104 926.5,-104 926.5,-116 926.5,-116 926.5,-122 920.5,-128 914.5,-128"/>
<text xml:space="preserve" text-anchor="middle" x="836" y="-104.58" font-family="Comic Mono" font-size="14.00">ZooKeeperLeaderElector</text>
</g>
<!-- coordinator&#45;&gt;elector -->
<g id="edge5" class="edge">
<title>coordinator&#45;&gt;elector</title>
<path fill="none" stroke="#758297" d="M627.21,-66.33C685.94,-66.33 749.25,-66.33 749.25,-66.33 749.25,-66.33 749.25,-80.22 749.25,-80.22"/>
<polygon fill="#758297" stroke="#758297" points="745.75,-80.22 749.25,-90.22 752.75,-80.22 745.75,-80.22"/>
<text xml:space="preserve" text-anchor="middle" x="686.25" y="-102.5" font-family="Comic Mono" font-size="10.00">dependency</text>
</g>
<!-- work -->
<g id="node8" class="node">
<title>work</title>
<path fill="#f8fafc" stroke="#94a3b8" d="M907,-45C907,-45 765,-45 765,-45 759,-45 753,-39 753,-33 753,-33 753,-21 753,-21 753,-15 759,-9 765,-9 765,-9 907,-9 907,-9 913,-9 919,-15 919,-21 919,-21 919,-33 919,-33 919,-39 913,-45 907,-45"/>
<text xml:space="preserve" text-anchor="middle" x="836" y="-21.57" font-family="Comic Mono" font-size="14.00">Legacy Scheduled Job</text>
</g>
<!-- coordinator&#45;&gt;work -->
<g id="edge7" class="edge">
<title>coordinator&#45;&gt;work</title>
<path fill="none" stroke="#758297" d="M627.48,-55.67C717.35,-55.67 836.25,-55.67 836.25,-55.67 836.25,-55.67 836.25,-54.63 836.25,-54.63"/>
<polygon fill="#758297" stroke="#758297" points="839.75,-56.83 836.25,-46.83 832.75,-56.83 839.75,-56.83"/>
<text xml:space="preserve" text-anchor="middle" x="686.25" y="-29.5" font-family="Comic Mono" font-size="10.00">success</text>
</g>
<!-- backend -->
<g id="node5" class="node">
<title>backend</title>
<path fill="#f8fafc" stroke="#94a3b8" d="M1176.5,-128C1176.5,-128 1057,-128 1057,-128 1051,-128 1045,-122 1045,-116 1045,-116 1045,-104 1045,-104 1045,-98 1051,-92 1057,-92 1057,-92 1176.5,-92 1176.5,-92 1182.5,-92 1188.5,-98 1188.5,-104 1188.5,-104 1188.5,-116 1188.5,-116 1188.5,-122 1182.5,-128 1176.5,-128"/>
<text xml:space="preserve" text-anchor="middle" x="1116.75" y="-104.58" font-family="Comic Mono" font-size="14.00">Curator lock path</text>
</g>
<!-- recovery -->
<g id="node7" class="node">
<title>recovery</title>
<path fill="#f8fafc" stroke="#94a3b8" d="M1445.25,-128C1445.25,-128 1303.25,-128 1303.25,-128 1297.25,-128 1291.25,-122 1291.25,-116 1291.25,-116 1291.25,-104 1291.25,-104 1291.25,-98 1297.25,-92 1303.25,-92 1303.25,-92 1445.25,-92 1445.25,-92 1451.25,-92 1457.25,-98 1457.25,-104 1457.25,-104 1457.25,-116 1457.25,-116 1457.25,-122 1451.25,-128 1445.25,-128"/>
<text xml:space="preserve" text-anchor="middle" x="1374.25" y="-104.58" font-family="Comic Mono" font-size="14.00">Session Lock Release</text>
</g>
<!-- backend&#45;&gt;recovery -->
<g id="edge8" class="edge">
<title>backend&#45;&gt;recovery</title>
<path fill="none" stroke="#758297" d="M1188.82,-110C1188.82,-110 1279.31,-110 1279.31,-110"/>
<polygon fill="#758297" stroke="#758297" points="1279.31,-113.5 1289.31,-110 1279.31,-106.5 1279.31,-113.5"/>
<text xml:space="preserve" text-anchor="middle" x="1239.88" y="-112.5" font-family="Comic Mono" font-size="10.00">release</text>
</g>
<!-- elector&#45;&gt;backend -->
<g id="edge6" class="edge">
<title>elector&#45;&gt;backend</title>
<path fill="none" stroke="#758297" d="M926.76,-110C926.76,-110 1033,-110 1033,-110"/>
<polygon fill="#758297" stroke="#758297" points="1033,-113.5 1043,-110 1033,-106.5 1033,-113.5"/>
<text xml:space="preserve" text-anchor="middle" x="985.75" y="-112.5" font-family="Comic Mono" font-size="10.00">contention</text>
</g>
</g>
</svg>
