<?xml version="1.0" encoding="UTF-8" standalone="no"?>
<!DOCTYPE svg PUBLIC "-//W3C//DTD SVG 1.1//EN"
 "http://www.w3.org/Graphics/SVG/1.1/DTD/svg11.dtd">
<!-- Generated by graphviz version 15.0.0 (20260523.1842)
 -->
<!-- Title: examples&#45;batch&#45;scheduler&#45;architecture&#45;01 Pages: 1 -->
<svg width="1158pt" height="365pt"
 viewBox="0.00 0.00 1158.00 365.00" xmlns="http://www.w3.org/2000/svg" xmlns:xlink="http://www.w3.org/1999/xlink">
<g id="graph0" class="graph" transform="scale(1 1) rotate(0) translate(4 360.66)">
<title>examples&#45;batch&#45;scheduler&#45;architecture&#45;01</title>
<text xml:space="preserve" text-anchor="middle" x="574.84" y="-339.36" font-family="Times,serif" font-size="14.00">Batch Scheduler Architecture</text>
<!-- n0&#45;&gt;r1p1 -->
<g id="edge1" class="edge">
<title>n0&#45;&gt;r1p1</title>
<path fill="none" stroke="#758297" stroke-width="1.8" d="M229.93,-246.08C236.49,-246.08 241.32,-246.08 243.52,-246.08"/>
</g>
<!-- n0&#45;&gt;r2p1 -->
<g id="edge4" class="edge">
<title>n0&#45;&gt;r2p1</title>
<path fill="none" stroke="#758297" stroke-width="1.8" d="M229.93,-246.08C236.49,-246.08 241.32,-246.08 243.52,-246.08"/>
</g>
<!-- n0&#45;&gt;r3p1 -->
<g id="edge7" class="edge">
<title>n0&#45;&gt;r3p1</title>
<path fill="none" stroke="#758297" stroke-width="1.8" d="M229.93,-246.08C236.49,-246.08 241.32,-246.08 243.52,-246.08"/>
</g>
<!-- n1&#45;&gt;r4p1 -->
<g id="edge10" class="edge">
<title>n1&#45;&gt;r4p1</title>
<path fill="none" stroke="#758297" stroke-width="1.8" d="M540.23,-286.08C554.54,-286.08 565.14,-286.08 568.62,-286.08"/>
</g>
<!-- n2&#45;&gt;r5p1 -->
<g id="edge13" class="edge">
<title>n2&#45;&gt;r5p1</title>
<path fill="none" stroke="#758297" stroke-width="1.8" d="M540.23,-166.08C554.54,-166.08 565.14,-166.08 568.62,-166.08"/>
</g>
<!-- n3&#45;&gt;r6p1 -->
<g id="edge16" class="edge">
<title>n3&#45;&gt;r6p1</title>
<path fill="none" stroke="#758297" stroke-width="1.8" d="M540.23,-46.08C554.54,-46.08 565.14,-46.08 568.62,-46.08"/>
</g>
<!-- n4&#45;&gt;r7p1 -->
<g id="edge19" class="edge">
<title>n4&#45;&gt;r7p1</title>
<path fill="none" stroke="#758297" stroke-width="1.8" d="M880.22,-166.08C889.19,-166.08 895.74,-166.08 898.46,-166.08"/>
</g>
<!-- r1p1&#45;&gt;r1p2 -->
<g id="edge2" class="edge">
<title>r1p1&#45;&gt;r1p2</title>
<path fill="none" stroke="#758297" stroke-width="1.8" d="M244.84,-247.41C244.84,-253.48 244.84,-278.54 244.84,-284.7"/>
</g>
<!-- r1p2&#45;&gt;n1 -->
<g id="edge3" class="edge">
<title>r1p2&#45;&gt;n1</title>
<path fill="none" stroke="#758297" stroke-width="1.8" d="M246.18,-286.08C246.85,-286.08 247.77,-286.08 248.92,-286.08"/>
<polygon fill="#758297" stroke="#758297" stroke-width="1.8" points="248.7,-288.88 256.7,-286.08 248.7,-283.28 248.7,-288.88"/>
</g>
<!-- r2p1&#45;&gt;r2p2 -->
<g id="edge5" class="edge">
<title>r2p1&#45;&gt;r2p2</title>
<path fill="none" stroke="#758297" stroke-width="1.8" d="M244.84,-244.69C244.84,-234.98 244.84,-177.34 244.84,-167.51"/>
</g>
<!-- r2p2&#45;&gt;n2 -->
<g id="edge6" class="edge">
<title>r2p2&#45;&gt;n2</title>
<path fill="none" stroke="#758297" stroke-width="1.8" d="M246.18,-166.08C246.85,-166.08 247.77,-166.08 248.92,-166.08"/>
<polygon fill="#758297" stroke="#758297" stroke-width="1.8" points="248.7,-168.88 256.7,-166.08 248.7,-163.28 248.7,-168.88"/>
</g>
<!-- r3p1&#45;&gt;r3p2 -->
<g id="edge8" class="edge">
<title>r3p1&#45;&gt;r3p2</title>
<path fill="none" stroke="#758297" stroke-width="1.8" d="M244.84,-244.8C244.84,-228.7 244.84,-65.46 244.84,-47.65"/>
</g>
<!-- r3p2&#45;&gt;n3 -->
<g id="edge9" class="edge">
<title>r3p2&#45;&gt;n3</title>
<path fill="none" stroke="#758297" stroke-width="1.8" d="M246.18,-46.08C246.85,-46.08 247.77,-46.08 248.92,-46.08"/>
<polygon fill="#758297" stroke="#758297" stroke-width="1.8" points="248.7,-48.88 256.7,-46.08 248.7,-43.28 248.7,-48.88"/>
</g>
<!-- r4p1&#45;&gt;r4p2 -->
<g id="edge11" class="edge">
<title>r4p1&#45;&gt;r4p2</title>
<path fill="none" stroke="#758297" stroke-width="1.8" d="M569.84,-284.73C569.84,-272.48 569.84,-180.46 569.84,-167.58"/>
</g>
<!-- r4p2&#45;&gt;n4 -->
<g id="edge12" class="edge">
<title>r4p2&#45;&gt;n4</title>
<path fill="none" stroke="#758297" stroke-width="1.8" d="M571.31,-166.08C574,-166.08 580.23,-166.08 588.78,-166.08"/>
<polygon fill="#758297" stroke="#758297" stroke-width="1.8" points="588.64,-168.88 596.64,-166.08 588.64,-163.28 588.64,-168.88"/>
</g>
<!-- r5p1&#45;&gt;r5p2 -->
<g id="edge14" class="edge">
<title>r5p1&#45;&gt;r5p2</title>
<path fill="none" stroke="#758297" stroke-width="1.8" d="M569.84,-166.08C569.84,-166.08 569.84,-166.08 569.84,-166.08"/>
</g>
<!-- r5p2&#45;&gt;n4 -->
<g id="edge15" class="edge">
<title>r5p2&#45;&gt;n4</title>
<path fill="none" stroke="#758297" stroke-width="1.8" d="M571.31,-166.08C574,-166.08 580.23,-166.08 588.78,-166.08"/>
<polygon fill="#758297" stroke="#758297" stroke-width="1.8" points="588.64,-168.88 596.64,-166.08 588.64,-163.28 588.64,-168.88"/>
</g>
<!-- r6p1&#45;&gt;r6p2 -->
<g id="edge17" class="edge">
<title>r6p1&#45;&gt;r6p2</title>
<path fill="none" stroke="#758297" stroke-width="1.8" d="M569.84,-47.43C569.84,-59.68 569.84,-151.7 569.84,-164.58"/>
</g>
<!-- r6p2&#45;&gt;n4 -->
<g id="edge18" class="edge">
<title>r6p2&#45;&gt;n4</title>
<path fill="none" stroke="#758297" stroke-width="1.8" d="M571.31,-166.08C574,-166.08 580.23,-166.08 588.78,-166.08"/>
<polygon fill="#758297" stroke="#758297" stroke-width="1.8" points="588.64,-168.88 596.64,-166.08 588.64,-163.28 588.64,-168.88"/>
</g>
<!-- r7p1&#45;&gt;r7p2 -->
<g id="edge20" class="edge">
<title>r7p1&#45;&gt;r7p2</title>
<path fill="none" stroke="#758297" stroke-width="1.8" d="M899.84,-166.08C899.84,-166.08 899.84,-166.08 899.84,-166.08"/>
</g>
<!-- r7p2&#45;&gt;n5 -->
<g id="edge21" class="edge">
<title>r7p2&#45;&gt;n5</title>
<path fill="none" stroke="#758297" stroke-width="1.8" d="M901.36,-166.08C902.91,-166.08 905.6,-166.08 909.17,-166.08"/>
<polygon fill="#758297" stroke="#758297" stroke-width="1.8" points="909,-168.88 917,-166.08 909,-163.28 909,-168.88"/>
</g>
<!-- n0 -->
<g id="node1" class="node">
<title>n0</title>
<path fill="#ffffff" stroke="#5b8def" d="M217.68,-292.16C217.68,-292.16 12,-292.16 12,-292.16 6,-292.16 0,-286.16 0,-280.16 0,-280.16 0,-212 0,-212 0,-206 6,-200 12,-200 12,-200 217.68,-200 217.68,-200 223.68,-200 229.68,-206 229.68,-212 229.68,-212 229.68,-280.16 229.68,-280.16 229.68,-286.16 223.68,-292.16 217.68,-292.16"/>
<text xml:space="preserve" text-anchor="middle" x="114.84" y="-241.73" font-family="Architects Daughter" font-size="18.00">Cron trigger</text>
</g>
<!-- n1 -->
<g id="node2" class="node">
<title>n1</title>
<path fill="#ffffff" stroke="#58a978" d="M527.88,-332.16C527.88,-332.16 271.8,-332.16 271.8,-332.16 265.8,-332.16 259.8,-326.16 259.8,-320.16 259.8,-320.16 259.8,-252 259.8,-252 259.8,-246 265.8,-240 271.8,-240 271.8,-240 527.88,-240 527.88,-240 533.88,-240 539.88,-246 539.88,-252 539.88,-252 539.88,-320.16 539.88,-320.16 539.88,-326.16 533.88,-332.16 527.88,-332.16"/>
<text xml:space="preserve" text-anchor="middle" x="399.84" y="-281.73" font-family="Architects Daughter" font-size="18.00">BatchScheduler node&#45;1</text>
</g>
<!-- n2 -->
<g id="node3" class="node">
<title>n2</title>
<path fill="#ffffff" stroke="#d6a441" d="M527.88,-212.16C527.88,-212.16 271.8,-212.16 271.8,-212.16 265.8,-212.16 259.8,-206.16 259.8,-200.16 259.8,-200.16 259.8,-132 259.8,-132 259.8,-126 265.8,-120 271.8,-120 271.8,-120 527.88,-120 527.88,-120 533.88,-120 539.88,-126 539.88,-132 539.88,-132 539.88,-200.16 539.88,-200.16 539.88,-206.16 533.88,-212.16 527.88,-212.16"/>
<text xml:space="preserve" text-anchor="middle" x="399.84" y="-161.73" font-family="Architects Daughter" font-size="18.00">BatchScheduler node&#45;2</text>
</g>
<!-- n3 -->
<g id="node4" class="node">
<title>n3</title>
<path fill="#ffffff" stroke="#dc6b82" d="M527.88,-92.16C527.88,-92.16 271.8,-92.16 271.8,-92.16 265.8,-92.16 259.8,-86.16 259.8,-80.16 259.8,-80.16 259.8,-12 259.8,-12 259.8,-6 265.8,0 271.8,0 271.8,0 527.88,0 527.88,0 533.88,0 539.88,-6 539.88,-12 539.88,-12 539.88,-80.16 539.88,-80.16 539.88,-86.16 533.88,-92.16 527.88,-92.16"/>
<text xml:space="preserve" text-anchor="middle" x="399.84" y="-41.73" font-family="Architects Daughter" font-size="18.00">BatchScheduler node&#45;3</text>
</g>
<!-- n4 -->
<g id="node5" class="node">
<title>n4</title>
<path fill="#ffffff" stroke="#45a7a1" d="M867.88,-212.16C867.88,-212.16 611.8,-212.16 611.8,-212.16 605.8,-212.16 599.8,-206.16 599.8,-200.16 599.8,-200.16 599.8,-132 599.8,-132 599.8,-126 605.8,-120 611.8,-120 611.8,-120 867.88,-120 867.88,-120 873.88,-120 879.88,-126 879.88,-132 879.88,-132 879.88,-200.16 879.88,-200.16 879.88,-206.16 873.88,-212.16 867.88,-212.16"/>
<text xml:space="preserve" text-anchor="middle" x="739.84" y="-161.73" font-family="Architects Daughter" font-size="18.00">LettuceLeaderElector</text>
</g>
<!-- n5 -->
<g id="node6" class="node">
<title>n5</title>
<path fill="#ffffff" stroke="#8a72d6" d="M1137.68,-212.16C1137.68,-212.16 932,-212.16 932,-212.16 926,-212.16 920,-206.16 920,-200.16 920,-200.16 920,-132 920,-132 920,-126 926,-120 932,-120 932,-120 1137.68,-120 1137.68,-120 1143.68,-120 1149.68,-126 1149.68,-132 1149.68,-132 1149.68,-200.16 1149.68,-200.16 1149.68,-206.16 1143.68,-212.16 1137.68,-212.16"/>
<text xml:space="preserve" text-anchor="middle" x="1034.84" y="-161.73" font-family="Architects Daughter" font-size="18.00">Redis lock</text>
</g>
<!-- r1p1 -->
<!-- r1p2 -->
<!-- r2p1 -->
<!-- r2p2 -->
<!-- r3p1 -->
<!-- r3p2 -->
<!-- r4p1 -->
<!-- r4p2 -->
<!-- r5p1 -->
<!-- r5p2 -->
<!-- r6p1 -->
<!-- r6p2 -->
<!-- r7p1 -->
<!-- r7p2 -->
</g>
</svg>
