<?xml version="1.0" encoding="UTF-8" standalone="no"?>
<!DOCTYPE svg PUBLIC "-//W3C//DTD SVG 1.1//EN"
 "http://www.w3.org/Graphics/SVG/1.1/DTD/svg11.dtd">
<!-- Generated by graphviz version 15.0.0 (20260523.1842)
 -->
<!-- Title: examples&#45;cache&#45;warmer&#45;sequence&#45;01 Pages: 1 -->
<svg width="1349pt" height="503pt"
 viewBox="0.00 0.00 1349.00 503.00" xmlns="http://www.w3.org/2000/svg" xmlns:xlink="http://www.w3.org/1999/xlink">
<g id="graph0" class="graph" transform="scale(1 1) rotate(0) translate(4 499)">
<title>examples&#45;cache&#45;warmer&#45;sequence&#45;01</title>
<!-- trigger -->
<g id="node1" class="node">
<title>trigger</title>
<path fill="#f8fafc" stroke="#94a3b8" d="M124,-58C124,-58 12,-58 12,-58 6,-58 0,-52 0,-46 0,-46 0,-34 0,-34 0,-28 6,-22 12,-22 12,-22 124,-22 124,-22 130,-22 136,-28 136,-34 136,-34 136,-46 136,-46 136,-52 130,-58 124,-58"/>
<text xml:space="preserve" text-anchor="middle" x="68" y="-34.58" font-family="Comic Mono" font-size="14.00">Cache Warm Cycle</text>
</g>
<!-- coord -->
<g id="node2" class="node">
<title>coord</title>
<path fill="#f8fafc" stroke="#94a3b8" d="M404,-150C404,-150 329.5,-150 329.5,-150 323.5,-150 317.5,-144 317.5,-138 317.5,-138 317.5,-126 317.5,-126 317.5,-120 323.5,-114 329.5,-114 329.5,-114 404,-114 404,-114 410,-114 416,-120 416,-126 416,-126 416,-138 416,-138 416,-144 410,-150 404,-150"/>
<text xml:space="preserve" text-anchor="middle" x="366.75" y="-126.58" font-family="Comic Mono" font-size="14.00">CacheWarmer</text>
</g>
<!-- trigger&#45;&gt;coord -->
<g id="edge1" class="edge">
<title>trigger&#45;&gt;coord</title>
<path fill="none" stroke="#4f83bf" d="M136.42,-49.25C224.48,-49.25 366.25,-49.25 366.25,-49.25 366.25,-49.25 366.25,-105.12 366.25,-105.12"/>
<polygon fill="#4f83bf" stroke="#4f83bf" points="363.8,-105.12 366.25,-112.12 368.7,-105.12 363.8,-105.12"/>
<text xml:space="preserve" text-anchor="middle" x="226.75" y="-89.5" font-family="Comic Mono" font-size="10.00">start cache warm cycle</text>
</g>
<!-- elector -->
<g id="node3" class="node">
<title>elector</title>
<path fill="#f8fafc" stroke="#94a3b8" d="M850.5,-266C850.5,-266 693.5,-266 693.5,-266 687.5,-266 681.5,-260 681.5,-254 681.5,-254 681.5,-242 681.5,-242 681.5,-236 687.5,-230 693.5,-230 693.5,-230 850.5,-230 850.5,-230 856.5,-230 862.5,-236 862.5,-242 862.5,-242 862.5,-254 862.5,-254 862.5,-260 856.5,-266 850.5,-266"/>
<text xml:space="preserve" text-anchor="middle" x="772" y="-242.57" font-family="Comic Mono" font-size="14.00">Leader elector factory</text>
</g>
<!-- coord&#45;&gt;elector -->
<g id="edge2" class="edge">
<title>coord&#45;&gt;elector</title>
<path fill="none" stroke="#4f83bf" d="M366.25,-150.38C366.25,-183.09 366.25,-248 366.25,-248 366.25,-248 672.68,-248 672.68,-248"/>
<polygon fill="#4f83bf" stroke="#4f83bf" points="672.68,-250.45 679.68,-248 672.68,-245.55 672.68,-250.45"/>
<text xml:space="preserve" text-anchor="middle" x="548.75" y="-211.5" font-family="Comic Mono" font-size="10.00">runIfLeader with source options</text>
</g>
<!-- backend -->
<g id="node4" class="node">
<title>backend</title>
<path fill="#f8fafc" stroke="#94a3b8" d="M1310.5,-400C1310.5,-400 1206,-400 1206,-400 1200,-400 1194,-394 1194,-388 1194,-388 1194,-376 1194,-376 1194,-370 1200,-364 1206,-364 1206,-364 1310.5,-364 1310.5,-364 1316.5,-364 1322.5,-370 1322.5,-376 1322.5,-376 1322.5,-388 1322.5,-388 1322.5,-394 1316.5,-400 1310.5,-400"/>
<text xml:space="preserve" text-anchor="middle" x="1258.25" y="-376.57" font-family="Comic Mono" font-size="14.00">partition locks</text>
</g>
<!-- elector&#45;&gt;backend -->
<g id="edge3" class="edge">
<title>elector&#45;&gt;backend</title>
<path fill="none" stroke="#b9851b" d="M862.78,-260.86C993.51,-260.86 1219.25,-260.86 1219.25,-260.86 1219.25,-260.86 1219.25,-355.09 1219.25,-355.09"/>
<polygon fill="#b9851b" stroke="#b9851b" points="1216.8,-355.09 1219.25,-362.09 1221.7,-355.09 1216.8,-355.09"/>
<text xml:space="preserve" text-anchor="middle" x="1018.88" y="-485.5" font-family="Comic Mono" font-size="10.00">attempt backend ownership</text>
</g>
<!-- elector&#45;&gt;backend -->
<g id="edge7" class="edge">
<title>elector&#45;&gt;backend</title>
<path fill="none" stroke="#755bc6" d="M862.97,-255.71C1000.44,-255.71 1245.25,-255.71 1245.25,-255.71 1245.25,-255.71 1245.25,-355.12 1245.25,-355.12"/>
<polygon fill="#755bc6" stroke="#755bc6" points="1242.8,-355.12 1245.25,-362.12 1247.7,-355.12 1242.8,-355.12"/>
<text xml:space="preserve" text-anchor="middle" x="1018.88" y="-418.5" font-family="Comic Mono" font-size="10.00">release or renew for failed partition isolation</text>
</g>
<!-- work -->
<g id="node5" class="node">
<title>work</title>
<path fill="#f8fafc" stroke="#94a3b8" d="M1329.25,-200C1329.25,-200 1187.25,-200 1187.25,-200 1181.25,-200 1175.25,-194 1175.25,-188 1175.25,-188 1175.25,-176 1175.25,-176 1175.25,-170 1181.25,-164 1187.25,-164 1187.25,-164 1329.25,-164 1329.25,-164 1335.25,-164 1341.25,-170 1341.25,-176 1341.25,-176 1341.25,-188 1341.25,-188 1341.25,-194 1335.25,-200 1329.25,-200"/>
<text xml:space="preserve" text-anchor="middle" x="1258.25" y="-176.57" font-family="Comic Mono" font-size="14.00">Warm Cache Partition</text>
</g>
<!-- elector&#45;&gt;work -->
<g id="edge5" class="edge">
<title>elector&#45;&gt;work</title>
<path fill="none" stroke="#3e9868" d="M862.83,-235.14C983.39,-235.14 1181.25,-235.14 1181.25,-235.14 1181.25,-235.14 1181.25,-208.8 1181.25,-208.8"/>
<polygon fill="#3e9868" stroke="#3e9868" points="1183.7,-208.8 1181.25,-201.8 1178.8,-208.8 1183.7,-208.8"/>
<text xml:space="preserve" text-anchor="middle" x="1018.88" y="-217.5" font-family="Comic Mono" font-size="10.00">execute warm cache partition</text>
</g>
<!-- peer -->
<g id="node6" class="node">
<title>peer</title>
<path fill="#f8fafc" stroke="#94a3b8" d="M1299.25,-59C1299.25,-59 1217.25,-59 1217.25,-59 1211.25,-59 1205.25,-53 1205.25,-47 1205.25,-47 1205.25,-35 1205.25,-35 1205.25,-29 1211.25,-23 1217.25,-23 1217.25,-23 1299.25,-23 1299.25,-23 1305.25,-23 1311.25,-29 1311.25,-35 1311.25,-35 1311.25,-47 1311.25,-47 1311.25,-53 1305.25,-59 1299.25,-59"/>
<text xml:space="preserve" text-anchor="middle" x="1258.25" y="-35.58" font-family="Comic Mono" font-size="14.00">Skipped Peer</text>
</g>
<!-- elector&#45;&gt;peer -->
<g id="edge9" class="edge">
<title>elector&#45;&gt;peer</title>
<path fill="none" stroke="#c94d68" d="M772.25,-229.59C772.25,-178.8 772.25,-40.5 772.25,-40.5 772.25,-40.5 1196.34,-40.5 1196.34,-40.5"/>
<polygon fill="#c94d68" stroke="#c94d68" points="1196.34,-42.95 1203.34,-40.5 1196.34,-38.05 1196.34,-42.95"/>
<text xml:space="preserve" text-anchor="middle" x="1018.88" y="-83.5" font-family="Comic Mono" font-size="10.00">return skipped result</text>
</g>
<!-- backend&#45;&gt;elector -->
<g id="edge4" class="edge">
<title>backend&#45;&gt;elector</title>
<path fill="none" stroke="#3e9868" d="M1271.25,-363.73C1271.25,-327.61 1271.25,-250.57 1271.25,-250.57 1271.25,-250.57 871.5,-250.57 871.5,-250.57"/>
<polygon fill="#3e9868" stroke="#3e9868" points="871.5,-248.12 864.5,-250.57 871.5,-253.02 871.5,-248.12"/>
<text xml:space="preserve" text-anchor="middle" x="1018.88" y="-351.5" font-family="Comic Mono" font-size="10.00">owner token accepted</text>
</g>
<!-- backend&#45;&gt;elector -->
<g id="edge8" class="edge">
<title>backend&#45;&gt;elector</title>
<path fill="none" stroke="#c94d68" d="M1297.25,-363.58C1297.25,-326.3 1297.25,-245.43 1297.25,-245.43 1297.25,-245.43 871.41,-245.43 871.41,-245.43"/>
<polygon fill="#c94d68" stroke="#c94d68" points="871.41,-242.98 864.41,-245.43 871.41,-247.88 871.41,-242.98"/>
<text xml:space="preserve" text-anchor="middle" x="1018.88" y="-284.5" font-family="Comic Mono" font-size="10.00">lock already owned</text>
</g>
<!-- work&#45;&gt;elector -->
<g id="edge6" class="edge">
<title>work&#45;&gt;elector</title>
<path fill="none" stroke="#3e9868" d="M1187.25,-200.44C1187.25,-217.52 1187.25,-240.29 1187.25,-240.29 1187.25,-240.29 871.39,-240.29 871.39,-240.29"/>
<polygon fill="#3e9868" stroke="#3e9868" points="871.39,-237.84 864.39,-240.29 871.39,-242.74 871.39,-237.84"/>
<text xml:space="preserve" text-anchor="middle" x="1018.88" y="-150.5" font-family="Comic Mono" font-size="10.00">return leader result</text>
</g>
<!-- peer&#45;&gt;trigger -->
<g id="edge10" class="edge">
<title>peer&#45;&gt;trigger</title>
<path fill="none" stroke="#c94d68" d="M1204.8,-31.75C1204.8,-31.75 144.89,-31.75 144.89,-31.75"/>
<polygon fill="#c94d68" stroke="#c94d68" points="144.89,-29.3 137.89,-31.75 144.89,-34.2 144.89,-29.3"/>
<text xml:space="preserve" text-anchor="middle" x="548.75" y="-2.5" font-family="Comic Mono" font-size="10.00">cycle completes without duplicate work</text>
</g>
</g>
</svg>
