<?xml version="1.0" encoding="UTF-8" standalone="no"?>
<!DOCTYPE svg PUBLIC "-//W3C//DTD SVG 1.1//EN"
 "http://www.w3.org/Graphics/SVG/1.1/DTD/svg11.dtd">
<!-- Generated by graphviz version 15.0.0 (20260523.1842)
 -->
<!-- Title: examples&#45;zookeeper&#45;scheduler&#45;architecture&#45;01 Pages: 1 -->
<svg width="1125pt" height="224pt"
 viewBox="7.00 7.00 1118.00 217.00" xmlns="http://www.w3.org/2000/svg" xmlns:xlink="http://www.w3.org/1999/xlink">
<g id="graph0" class="graph" transform="scale(1 1) rotate(0) translate(11.2 213.2)">
<title>examples&#45;zookeeper&#45;scheduler&#45;architecture&#45;01</title>
<!-- node&#45;a service -->
<g id="node1" class="node">
<title>node&#45;a service</title>
<path fill="#f8fafc" stroke="#94a3b8" d="M146.5,-202C146.5,-202 49.5,-202 49.5,-202 43.5,-202 37.5,-196 37.5,-190 37.5,-190 37.5,-178 37.5,-178 37.5,-172 43.5,-166 49.5,-166 49.5,-166 146.5,-166 146.5,-166 152.5,-166 158.5,-172 158.5,-178 158.5,-178 158.5,-190 158.5,-190 158.5,-196 152.5,-202 146.5,-202"/>
<text xml:space="preserve" text-anchor="middle" x="98" y="-178.57" font-family="Comic Mono" font-size="14.00">node&#45;a service</text>
</g>
<!-- ZooKeeperLegacyScheduler -->
<g id="node3" class="node">
<title>ZooKeeperLegacyScheduler</title>
<path fill="#f8fafc" stroke="#94a3b8" d="M498.5,-119C498.5,-119 326.5,-119 326.5,-119 320.5,-119 314.5,-113 314.5,-107 314.5,-107 314.5,-95 314.5,-95 314.5,-89 320.5,-83 326.5,-83 326.5,-83 498.5,-83 498.5,-83 504.5,-83 510.5,-89 510.5,-95 510.5,-95 510.5,-107 510.5,-107 510.5,-113 504.5,-119 498.5,-119"/>
<text xml:space="preserve" text-anchor="middle" x="412.5" y="-95.58" font-family="Comic Mono" font-size="14.00">ZooKeeperLegacyScheduler</text>
</g>
<!-- node&#45;a service&#45;&gt;ZooKeeperLegacyScheduler -->
<g id="edge1" class="edge">
<title>node&#45;a service&#45;&gt;ZooKeeperLegacyScheduler</title>
<path fill="none" stroke="#758297" d="M158.88,-168.09C207.8,-155.1 277.38,-136.62 331.13,-122.35"/>
<polygon fill="#758297" stroke="#758297" points="331.78,-125.8 340.54,-119.85 329.98,-119.03 331.78,-125.8"/>
<text xml:space="preserve" text-anchor="middle" x="255.25" y="-149.97" font-family="Comic Mono" font-size="10.00">calls</text>
</g>
<!-- node&#45;b service -->
<g id="node2" class="node">
<title>node&#45;b service</title>
<path fill="#f8fafc" stroke="#94a3b8" d="M146.5,-119C146.5,-119 49.5,-119 49.5,-119 43.5,-119 37.5,-113 37.5,-107 37.5,-107 37.5,-95 37.5,-95 37.5,-89 43.5,-83 49.5,-83 49.5,-83 146.5,-83 146.5,-83 152.5,-83 158.5,-89 158.5,-95 158.5,-95 158.5,-107 158.5,-107 158.5,-113 152.5,-119 146.5,-119"/>
<text xml:space="preserve" text-anchor="middle" x="98" y="-95.58" font-family="Comic Mono" font-size="14.00">node&#45;b service</text>
</g>
<!-- node&#45;b service&#45;&gt;ZooKeeperLegacyScheduler -->
<g id="edge2" class="edge">
<title>node&#45;b service&#45;&gt;ZooKeeperLegacyScheduler</title>
<path fill="none" stroke="#758297" d="M158.88,-101C199.49,-101 254.35,-101 302.56,-101"/>
<polygon fill="#758297" stroke="#758297" points="302.51,-104.5 312.51,-101 302.51,-97.5 302.51,-104.5"/>
<text xml:space="preserve" text-anchor="middle" x="255.25" y="-103.5" font-family="Comic Mono" font-size="10.00">calls</text>
</g>
<!-- ZooKeeperLeaderElector -->
<g id="node5" class="node">
<title>ZooKeeperLeaderElector</title>
<path fill="#f8fafc" stroke="#94a3b8" d="M803.25,-202C803.25,-202 646.25,-202 646.25,-202 640.25,-202 634.25,-196 634.25,-190 634.25,-190 634.25,-178 634.25,-178 634.25,-172 640.25,-166 646.25,-166 646.25,-166 803.25,-166 803.25,-166 809.25,-166 815.25,-172 815.25,-178 815.25,-178 815.25,-190 815.25,-190 815.25,-196 809.25,-202 803.25,-202"/>
<text xml:space="preserve" text-anchor="middle" x="724.75" y="-178.57" font-family="Comic Mono" font-size="14.00">ZooKeeperLeaderElector</text>
</g>
<!-- ZooKeeperLegacyScheduler&#45;&gt;ZooKeeperLeaderElector -->
<g id="edge4" class="edge">
<title>ZooKeeperLegacyScheduler&#45;&gt;ZooKeeperLeaderElector</title>
<path fill="none" stroke="#758297" d="M482.35,-119.42C530.07,-132.19 593.75,-149.22 643.73,-162.59"/>
<polygon fill="#758297" stroke="#758297" points="642.79,-165.96 653.36,-165.17 644.6,-159.2 642.79,-165.96"/>
<text xml:space="preserve" text-anchor="middle" x="572.38" y="-152.43" font-family="Comic Mono" font-size="10.00">delegates</text>
</g>
<!-- SchedulerRunReport -->
<g id="node6" class="node">
<title>SchedulerRunReport</title>
<path fill="#f8fafc" stroke="#94a3b8" d="M788.25,-119C788.25,-119 661.25,-119 661.25,-119 655.25,-119 649.25,-113 649.25,-107 649.25,-107 649.25,-95 649.25,-95 649.25,-89 655.25,-83 661.25,-83 661.25,-83 788.25,-83 788.25,-83 794.25,-83 800.25,-89 800.25,-95 800.25,-95 800.25,-107 800.25,-107 800.25,-113 794.25,-119 788.25,-119"/>
<text xml:space="preserve" text-anchor="middle" x="724.75" y="-95.58" font-family="Comic Mono" font-size="14.00">SchedulerRunReport</text>
</g>
<!-- ZooKeeperLegacyScheduler&#45;&gt;SchedulerRunReport -->
<g id="edge7" class="edge">
<title>ZooKeeperLegacyScheduler&#45;&gt;SchedulerRunReport</title>
<path fill="none" stroke="#758297" d="M510.81,-101C551.41,-101 598.17,-101 637.52,-101"/>
<polygon fill="#758297" stroke="#758297" points="637.42,-104.5 647.42,-101 637.42,-97.5 637.42,-104.5"/>
<text xml:space="preserve" text-anchor="middle" x="572.38" y="-103.5" font-family="Comic Mono" font-size="10.00">returns</text>
</g>
<!-- Legacy scheduled job -->
<g id="node8" class="node">
<title>Legacy scheduled job</title>
<path fill="#f8fafc" stroke="#94a3b8" d="M795.75,-36C795.75,-36 653.75,-36 653.75,-36 647.75,-36 641.75,-30 641.75,-24 641.75,-24 641.75,-12 641.75,-12 641.75,-6 647.75,0 653.75,0 653.75,0 795.75,0 795.75,0 801.75,0 807.75,-6 807.75,-12 807.75,-12 807.75,-24 807.75,-24 807.75,-30 801.75,-36 795.75,-36"/>
<text xml:space="preserve" text-anchor="middle" x="724.75" y="-12.57" font-family="Comic Mono" font-size="14.00">Legacy scheduled job</text>
</g>
<!-- ZooKeeperLegacyScheduler&#45;&gt;Legacy scheduled job -->
<g id="edge6" class="edge">
<title>ZooKeeperLegacyScheduler&#45;&gt;Legacy scheduled job</title>
<path fill="none" stroke="#758297" d="M482.35,-82.58C530.07,-69.81 593.75,-52.78 643.73,-39.41"/>
<polygon fill="#758297" stroke="#758297" points="644.6,-42.8 653.36,-36.83 642.79,-36.04 644.6,-42.8"/>
<text xml:space="preserve" text-anchor="middle" x="572.38" y="-66.97" font-family="Comic Mono" font-size="10.00">leader only</text>
</g>
<!-- ZooKeeperSchedulerConfig -->
<g id="node4" class="node">
<title>ZooKeeperSchedulerConfig</title>
<path fill="#f8fafc" stroke="#94a3b8" d="M184,-36C184,-36 12,-36 12,-36 6,-36 0,-30 0,-24 0,-24 0,-12 0,-12 0,-6 6,0 12,0 12,0 184,0 184,0 190,0 196,-6 196,-12 196,-12 196,-24 196,-24 196,-30 190,-36 184,-36"/>
<text xml:space="preserve" text-anchor="middle" x="98" y="-12.57" font-family="Comic Mono" font-size="14.00">ZooKeeperSchedulerConfig</text>
</g>
<!-- ZooKeeperSchedulerConfig&#45;&gt;ZooKeeperLegacyScheduler -->
<g id="edge3" class="edge">
<title>ZooKeeperSchedulerConfig&#45;&gt;ZooKeeperLegacyScheduler</title>
<path fill="none" stroke="#758297" d="M168.35,-36.42C216.52,-49.21 280.83,-66.29 331.22,-79.68"/>
<polygon fill="#758297" stroke="#758297" points="330.04,-82.99 340.61,-82.17 331.84,-76.22 330.04,-82.99"/>
<text xml:space="preserve" text-anchor="middle" x="255.25" y="-66.97" font-family="Comic Mono" font-size="10.00">configures</text>
</g>
<!-- ZooKeeper / Curator -->
<g id="node7" class="node">
<title>ZooKeeper / Curator</title>
<path fill="#f8fafc" stroke="#94a3b8" d="M1090.75,-202C1090.75,-202 956.25,-202 956.25,-202 950.25,-202 944.25,-196 944.25,-190 944.25,-190 944.25,-178 944.25,-178 944.25,-172 950.25,-166 956.25,-166 956.25,-166 1090.75,-166 1090.75,-166 1096.75,-166 1102.75,-172 1102.75,-178 1102.75,-178 1102.75,-190 1102.75,-190 1102.75,-196 1096.75,-202 1090.75,-202"/>
<text xml:space="preserve" text-anchor="middle" x="1023.5" y="-178.57" font-family="Comic Mono" font-size="14.00">ZooKeeper / Curator</text>
</g>
<!-- ZooKeeperLeaderElector&#45;&gt;ZooKeeper / Curator -->
<g id="edge5" class="edge">
<title>ZooKeeperLeaderElector&#45;&gt;ZooKeeper / Curator</title>
<path fill="none" stroke="#758297" d="M815.59,-184C852.69,-184 895.61,-184 932.71,-184"/>
<polygon fill="#758297" stroke="#758297" points="932.51,-187.5 942.51,-184 932.51,-180.5 932.51,-187.5"/>
<text xml:space="preserve" text-anchor="middle" x="879.75" y="-186.5" font-family="Comic Mono" font-size="10.00">Curator lock</text>
</g>
</g>
</svg>
