<?xml version="1.0" encoding="UTF-8" standalone="no"?>
<!DOCTYPE svg PUBLIC "-//W3C//DTD SVG 1.1//EN"
 "http://www.w3.org/Graphics/SVG/1.1/DTD/svg11.dtd">
<!-- Generated by graphviz version 15.0.0 (20260523.1842)
 -->
<!-- Title: examples&#45;tenant&#45;aggregator&#45;architecture&#45;01 Pages: 1 -->
<svg width="1168pt" height="305pt"
 viewBox="0.00 0.00 1168.00 305.00" xmlns="http://www.w3.org/2000/svg" xmlns:xlink="http://www.w3.org/1999/xlink">
<g id="graph0" class="graph" transform="scale(1 1) rotate(0) translate(4 300.66)">
<title>examples&#45;tenant&#45;aggregator&#45;architecture&#45;01</title>
<text xml:space="preserve" text-anchor="middle" x="579.84" y="-279.36" font-family="Times,serif" font-size="14.00">Tenant Aggregator Architecture</text>
<!-- n0&#45;&gt;r1p1 -->
<g id="edge1" class="edge">
<title>n0&#45;&gt;r1p1</title>
<path fill="none" stroke="#758297" stroke-width="1.8" d="M229.92,-226.08C248.83,-226.08 263.8,-226.08 268.38,-226.08"/>
</g>
<!-- n1&#45;&gt;r2p1 -->
<g id="edge4" class="edge">
<title>n1&#45;&gt;r2p1</title>
<path fill="none" stroke="#758297" stroke-width="1.8" d="M229.92,-46.08C248.83,-46.08 263.8,-46.08 268.38,-46.08"/>
</g>
<!-- n2&#45;&gt;r3p1 -->
<g id="edge7" class="edge">
<title>n2&#45;&gt;r3p1</title>
<path fill="none" stroke="#758297" stroke-width="1.8" d="M539.85,-136.08C561.31,-136.08 578.59,-136.08 583.46,-136.08"/>
</g>
<!-- n3&#45;&gt;r4p1 -->
<g id="edge10" class="edge">
<title>n3&#45;&gt;r4p1</title>
<path fill="none" stroke="#758297" stroke-width="1.8" d="M860.05,-136.08C876.42,-136.08 889.15,-136.08 893.36,-136.08"/>
</g>
<!-- n3&#45;&gt;r5p1 -->
<g id="edge13" class="edge">
<title>n3&#45;&gt;r5p1</title>
<path fill="none" stroke="#758297" stroke-width="1.8" d="M860.05,-136.08C876.42,-136.08 889.15,-136.08 893.36,-136.08"/>
</g>
<!-- r1p1&#45;&gt;r1p2 -->
<g id="edge2" class="edge">
<title>r1p1&#45;&gt;r1p2</title>
<path fill="none" stroke="#758297" stroke-width="1.8" d="M269.84,-224.52C269.84,-213.5 269.84,-147.64 269.84,-137.41"/>
</g>
<!-- r1p2&#45;&gt;n2 -->
<g id="edge3" class="edge">
<title>r1p2&#45;&gt;n2</title>
<path fill="none" stroke="#758297" stroke-width="1.8" d="M271.18,-136.08C274.75,-136.08 285.18,-136.08 299.03,-136.08"/>
<polygon fill="#758297" stroke="#758297" stroke-width="1.8" points="298.95,-138.88 306.95,-136.08 298.95,-133.28 298.95,-138.88"/>
</g>
<!-- r2p1&#45;&gt;r2p2 -->
<g id="edge5" class="edge">
<title>r2p1&#45;&gt;r2p2</title>
<path fill="none" stroke="#758297" stroke-width="1.8" d="M269.84,-47.64C269.84,-58.66 269.84,-124.52 269.84,-134.75"/>
</g>
<!-- r2p2&#45;&gt;n2 -->
<g id="edge6" class="edge">
<title>r2p2&#45;&gt;n2</title>
<path fill="none" stroke="#758297" stroke-width="1.8" d="M271.18,-136.08C274.75,-136.08 285.18,-136.08 299.03,-136.08"/>
<polygon fill="#758297" stroke="#758297" stroke-width="1.8" points="298.95,-138.88 306.95,-136.08 298.95,-133.28 298.95,-138.88"/>
</g>
<!-- r3p1&#45;&gt;r3p2 -->
<g id="edge8" class="edge">
<title>r3p1&#45;&gt;r3p2</title>
<path fill="none" stroke="#758297" stroke-width="1.8" d="M584.84,-136.08C584.84,-136.08 584.84,-136.08 584.84,-136.08"/>
</g>
<!-- r3p2&#45;&gt;n3 -->
<g id="edge9" class="edge">
<title>r3p2&#45;&gt;n3</title>
<path fill="none" stroke="#758297" stroke-width="1.8" d="M586.22,-136.08C590.24,-136.08 602.69,-136.08 618.96,-136.08"/>
<polygon fill="#758297" stroke="#758297" stroke-width="1.8" points="618.81,-138.88 626.81,-136.08 618.81,-133.28 618.81,-138.88"/>
</g>
<!-- r4p1&#45;&gt;r4p2 -->
<g id="edge11" class="edge">
<title>r4p1&#45;&gt;r4p2</title>
<path fill="none" stroke="#758297" stroke-width="1.8" d="M894.84,-137.64C894.84,-148.66 894.84,-214.52 894.84,-224.75"/>
</g>
<!-- r4p2&#45;&gt;n4 -->
<g id="edge12" class="edge">
<title>r4p2&#45;&gt;n4</title>
<path fill="none" stroke="#758297" stroke-width="1.8" d="M896.14,-226.08C899.24,-226.08 907.68,-226.08 919.06,-226.08"/>
<polygon fill="#758297" stroke="#758297" stroke-width="1.8" points="919.04,-228.88 927.04,-226.08 919.04,-223.28 919.04,-228.88"/>
</g>
<!-- r5p1&#45;&gt;r5p2 -->
<g id="edge14" class="edge">
<title>r5p1&#45;&gt;r5p2</title>
<path fill="none" stroke="#758297" stroke-width="1.8" d="M894.84,-134.52C894.84,-123.5 894.84,-57.64 894.84,-47.41"/>
</g>
<!-- r5p2&#45;&gt;n5 -->
<g id="edge15" class="edge">
<title>r5p2&#45;&gt;n5</title>
<path fill="none" stroke="#758297" stroke-width="1.8" d="M896.14,-46.08C899.24,-46.08 907.68,-46.08 919.06,-46.08"/>
<polygon fill="#758297" stroke="#758297" stroke-width="1.8" points="919.04,-48.88 927.04,-46.08 919.04,-43.28 919.04,-48.88"/>
</g>
<!-- n0 -->
<g id="node1" class="node">
<title>n0</title>
<path fill="#ffffff" stroke="#5b8def" d="M217.68,-272.16C217.68,-272.16 12,-272.16 12,-272.16 6,-272.16 0,-266.16 0,-260.16 0,-260.16 0,-192 0,-192 0,-186 6,-180 12,-180 12,-180 217.68,-180 217.68,-180 223.68,-180 229.68,-186 229.68,-192 229.68,-192 229.68,-260.16 229.68,-260.16 229.68,-266.16 223.68,-272.16 217.68,-272.16"/>
<text xml:space="preserve" text-anchor="middle" x="114.84" y="-221.73" font-family="Architects Daughter" font-size="18.00">App instance A</text>
</g>
<!-- n1 -->
<g id="node2" class="node">
<title>n1</title>
<path fill="#ffffff" stroke="#58a978" d="M217.68,-92.16C217.68,-92.16 12,-92.16 12,-92.16 6,-92.16 0,-86.16 0,-80.16 0,-80.16 0,-12 0,-12 0,-6 6,0 12,0 12,0 217.68,0 217.68,0 223.68,0 229.68,-6 229.68,-12 229.68,-12 229.68,-80.16 229.68,-80.16 229.68,-86.16 223.68,-92.16 217.68,-92.16"/>
<text xml:space="preserve" text-anchor="middle" x="114.84" y="-41.73" font-family="Architects Daughter" font-size="18.00">App instance B</text>
</g>
<!-- n2 -->
<g id="node3" class="node">
<title>n2</title>
<path fill="#ffffff" stroke="#d6a441" d="M527.68,-182.16C527.68,-182.16 322,-182.16 322,-182.16 316,-182.16 310,-176.16 310,-170.16 310,-170.16 310,-102 310,-102 310,-96 316,-90 322,-90 322,-90 527.68,-90 527.68,-90 533.68,-90 539.68,-96 539.68,-102 539.68,-102 539.68,-170.16 539.68,-170.16 539.68,-176.16 533.68,-182.16 527.68,-182.16"/>
<text xml:space="preserve" text-anchor="middle" x="424.84" y="-131.73" font-family="Architects Daughter" font-size="18.00">TenantAggregator</text>
</g>
<!-- n3 -->
<g id="node4" class="node">
<title>n3</title>
<path fill="#ffffff" stroke="#dc6b82" d="M847.68,-182.16C847.68,-182.16 642,-182.16 642,-182.16 636,-182.16 630,-176.16 630,-170.16 630,-170.16 630,-102 630,-102 630,-96 636,-90 642,-90 642,-90 847.68,-90 847.68,-90 853.68,-90 859.68,-96 859.68,-102 859.68,-102 859.68,-170.16 859.68,-170.16 859.68,-176.16 853.68,-182.16 847.68,-182.16"/>
<text xml:space="preserve" text-anchor="middle" x="744.84" y="-131.73" font-family="Architects Daughter" font-size="18.00">Tenant locks</text>
</g>
<!-- n4 -->
<g id="node5" class="node">
<title>n4</title>
<path fill="#ffffff" stroke="#45a7a1" d="M1147.68,-272.16C1147.68,-272.16 942,-272.16 942,-272.16 936,-272.16 930,-266.16 930,-260.16 930,-260.16 930,-192 930,-192 930,-186 936,-180 942,-180 942,-180 1147.68,-180 1147.68,-180 1153.68,-180 1159.68,-186 1159.68,-192 1159.68,-192 1159.68,-260.16 1159.68,-260.16 1159.68,-266.16 1153.68,-272.16 1147.68,-272.16"/>
<text xml:space="preserve" text-anchor="middle" x="1044.84" y="-221.73" font-family="Architects Daughter" font-size="18.00">Exposed R2DBC elector</text>
</g>
<!-- n5 -->
<g id="node6" class="node">
<title>n5</title>
<path fill="#ffffff" stroke="#8a72d6" d="M1147.68,-92.16C1147.68,-92.16 942,-92.16 942,-92.16 936,-92.16 930,-86.16 930,-80.16 930,-80.16 930,-12 930,-12 930,-6 936,0 942,0 942,0 1147.68,0 1147.68,0 1153.68,0 1159.68,-6 1159.68,-12 1159.68,-12 1159.68,-80.16 1159.68,-80.16 1159.68,-86.16 1153.68,-92.16 1147.68,-92.16"/>
<text xml:space="preserve" text-anchor="middle" x="1044.84" y="-41.73" font-family="Architects Daughter" font-size="18.00">Tenant metrics service</text>
</g>
<!-- r1p1 -->
<!-- r1p2 -->
<!-- r2p1 -->
<!-- r2p2 -->
<!-- r3p1 -->
<!-- r3p2 -->
<!-- r4p1 -->
<!-- r4p2 -->
<!-- r5p1 -->
<!-- r5p2 -->
</g>
</svg>
