<svg xmlns="http://www.w3.org/2000/svg" width="1320" height="600" viewBox="0 0 1320 600" role="img" aria-label="Ktor App Architecture">
  <metadata id="graphviz-evidence">Regenerated with Graphviz evidence: examples-ktor-app-architecture-01.dot, examples-ktor-app-architecture-01.plain, examples-ktor-app-architecture-01-graphviz.svg via scripts/regenerate-readme-diagram-graphviz-evidence.mjs.</metadata>
<defs>
  <filter id="shadow" x="-8%" y="-8%" width="116%" height="116%"><feDropShadow dx="0" dy="8" stdDeviation="9" flood-color="#1f2937" flood-opacity="0.10"/></filter>
  <marker id="openArrow" markerWidth="12" markerHeight="10" refX="10" refY="5" orient="auto" markerUnits="strokeWidth"><path d="M 1 1 L 10 5 L 1 9" fill="none" stroke="#758297" stroke-width="1.8" stroke-linecap="round" stroke-linejoin="round"/></marker>
  <style>
    .canvas{fill:#f7f9fc}.frame{fill:#fff;stroke:#d8e0ea;stroke-width:1.5}
    .title{font-family:"Architects Daughter","Comic Mono","Comic Sans MS","Comic Sans",cursive;font-size:43px;font-weight:400;fill:#102033}
    .subtitle{font-family:"Comic Mono","Comic Sans MS","Comic Sans","Comic Neue",Arial,sans-serif;font-size:15px;font-weight:400;fill:#536273}
    .smallLabel{font-family:"Architects Daughter","Comic Mono","Comic Sans MS","Comic Sans",cursive;font-size:21px;font-weight:400;fill:#102033}
    .mono{font-family:"Comic Mono","Comic Sans MS","Comic Sans","Comic Neue",Arial,sans-serif;font-size:12px;font-weight:400;fill:#102033}
    .strong{font-family:"Comic Mono","Comic Sans MS","Comic Sans","Comic Neue",Arial,sans-serif;font-size:13px;font-weight:400;fill:#102033}
    .card{stroke-width:2.1;filter:url(#shadow)}
    .line{stroke:#758297;stroke-width:2.1;fill:none;marker-end:url(#openArrow)}
    .dashed{stroke:#758297;stroke-width:2.1;stroke-dasharray:7 6;fill:none;marker-end:url(#openArrow)}
    .lifeline{stroke:#b7c2d1;stroke-width:2;stroke-dasharray:10 10}
  </style>
</defs>
<rect class="canvas" width="1320" height="600"/>
<rect class="frame" x="32" y="28" width="1256" height="544" rx="28"/>
<text class="title" x="66" y="82">Ktor App Architecture</text>
<text class="subtitle" x="70" y="118">Ktor exposes stats routes while a leader-scheduled background job aggregates once per cycle</text>
<path class="line" d="M300 266 L320 266 L320 266 L340 266"/>
<path class="line" d="M570 266 L605 266 L605 176 L640 176"/>
<path class="line" d="M870 176 L905 176 L905 176 L940 176"/>
<path class="line" d="M570 266 L605 266 L605 356 L640 356"/>
<path class="line" d="M890 356 L915 356 L915 176 L940 176"/>
<path class="line" d="M890 356 L915 356 L915 356 L940 356"/>
<g id="client" transform="translate(70,220)">
  <rect class="card" x="0" y="0" width="230" height="92" rx="14" fill="#E8F3FF" stroke="#5B8DEF"/>
  <text class="smallLabel" x="115" y="28" text-anchor="middle">HTTP client</text>
  <text class="mono" x="115" y="53" text-anchor="middle">GET /stats</text>
  <text class="mono" x="115" y="70" text-anchor="middle">GET /health</text>
</g>
<g id="ktor" transform="translate(340,220)">
  <rect class="card" x="0" y="0" width="230" height="92" rx="14" fill="#EAF7EF" stroke="#58A978"/>
  <text class="smallLabel" x="115" y="28" text-anchor="middle">Ktor CIO app</text>
  <text class="mono" x="115" y="53" text-anchor="middle">ContentNegotiation</text>
  <text class="mono" x="115" y="70" text-anchor="middle">routing</text>
</g>
<g id="routes" transform="translate(640,130)">
  <rect class="card" x="0" y="0" width="230" height="92" rx="14" fill="#FFF3D9" stroke="#D6A441"/>
  <text class="smallLabel" x="115" y="28" text-anchor="middle">Stats routes</text>
  <text class="mono" x="115" y="53" text-anchor="middle">currentState</text>
  <text class="mono" x="115" y="70" text-anchor="middle">health</text>
</g>
<g id="plugin" transform="translate(640,310)">
  <rect class="card" x="0" y="0" width="250" height="92" rx="14" fill="#FDECEF" stroke="#DC6B82"/>
  <text class="smallLabel" x="125" y="28" text-anchor="middle">LeaderElectionPlugin</text>
  <text class="mono" x="125" y="53" text-anchor="middle">SuspendLeaderElector</text>
  <text class="mono" x="125" y="70" text-anchor="middle">leaderScheduled</text>
</g>
<g id="aggregator" transform="translate(940,130)">
  <rect class="card" x="0" y="0" width="230" height="92" rx="14" fill="#E9F7F6" stroke="#45A7A1"/>
  <text class="smallLabel" x="115" y="28" text-anchor="middle">StatsAggregator</text>
  <text class="mono" x="115" y="53" text-anchor="middle">runCount</text>
  <text class="mono" x="115" y="70" text-anchor="middle">lastRunAt</text>
</g>
<g id="redis" transform="translate(940,310)">
  <rect class="card" x="0" y="0" width="230" height="92" rx="14" fill="#F1ECFF" stroke="#8A72D6"/>
  <text class="smallLabel" x="115" y="28" text-anchor="middle">Redis lock</text>
  <text class="mono" x="115" y="53" text-anchor="middle">hourly-stats-aggregation</text>
  <text class="mono" x="115" y="70" text-anchor="middle">minLeaseTime</text>
</g>
</svg>
