<?xml version="1.0" encoding="UTF-8" standalone="no"?>
<!DOCTYPE svg PUBLIC "-//W3C//DTD SVG 1.1//EN"
 "http://www.w3.org/Graphics/SVG/1.1/DTD/svg11.dtd">
<!-- Generated by graphviz version 15.0.0 (20260523.1842)
 -->
<!-- Title: examples&#45;cache&#45;warmer&#45;architecture&#45;01 Pages: 1 -->
<svg width="1108pt" height="275pt"
 viewBox="0.00 0.00 1108.00 275.00" xmlns="http://www.w3.org/2000/svg" xmlns:xlink="http://www.w3.org/1999/xlink">
<g id="graph0" class="graph" transform="scale(1 1) rotate(0) translate(4 270.66)">
<title>examples&#45;cache&#45;warmer&#45;architecture&#45;01</title>
<text xml:space="preserve" text-anchor="middle" x="549.84" y="-249.36" font-family="Times,serif" font-size="14.00">Cache Warmer Architecture</text>
<!-- n0&#45;&gt;r1p1 -->
<g id="edge1" class="edge">
<title>n0&#45;&gt;r1p1</title>
<path fill="none" stroke="#758297" stroke-width="1.8" d="M230.15,-196.08C244.3,-196.08 255.05,-196.08 258.59,-196.08"/>
</g>
<!-- n1&#45;&gt;r2p1 -->
<g id="edge4" class="edge">
<title>n1&#45;&gt;r2p1</title>
<path fill="none" stroke="#758297" stroke-width="1.8" d="M230.15,-46.08C244.3,-46.08 255.05,-46.08 258.59,-46.08"/>
</g>
<!-- n2&#45;&gt;r3p1 -->
<g id="edge7" class="edge">
<title>n2&#45;&gt;r3p1</title>
<path fill="none" stroke="#758297" stroke-width="1.8" d="M520.15,-121.08C534.3,-121.08 545.05,-121.08 548.59,-121.08"/>
</g>
<!-- n3&#45;&gt;r4p1 -->
<g id="edge10" class="edge">
<title>n3&#45;&gt;r4p1</title>
<path fill="none" stroke="#758297" stroke-width="1.8" d="M810.15,-121.08C824.3,-121.08 835.05,-121.08 838.59,-121.08"/>
</g>
<!-- r1p1&#45;&gt;r1p2 -->
<g id="edge2" class="edge">
<title>r1p1&#45;&gt;r1p2</title>
<path fill="none" stroke="#758297" stroke-width="1.8" d="M259.84,-194.51C259.84,-184.75 259.84,-132.37 259.84,-122.64"/>
</g>
<!-- r1p2&#45;&gt;n2 -->
<g id="edge3" class="edge">
<title>r1p2&#45;&gt;n2</title>
<path fill="none" stroke="#758297" stroke-width="1.8" d="M261.09,-121.08C263.7,-121.08 270.19,-121.08 279.05,-121.08"/>
<polygon fill="#758297" stroke="#758297" stroke-width="1.8" points="278.81,-123.88 286.81,-121.08 278.81,-118.28 278.81,-123.88"/>
</g>
<!-- r2p1&#45;&gt;r2p2 -->
<g id="edge5" class="edge">
<title>r2p1&#45;&gt;r2p2</title>
<path fill="none" stroke="#758297" stroke-width="1.8" d="M259.84,-47.65C259.84,-57.41 259.84,-109.79 259.84,-119.52"/>
</g>
<!-- r2p2&#45;&gt;n2 -->
<g id="edge6" class="edge">
<title>r2p2&#45;&gt;n2</title>
<path fill="none" stroke="#758297" stroke-width="1.8" d="M261.09,-121.08C263.7,-121.08 270.19,-121.08 279.05,-121.08"/>
<polygon fill="#758297" stroke="#758297" stroke-width="1.8" points="278.81,-123.88 286.81,-121.08 278.81,-118.28 278.81,-123.88"/>
</g>
<!-- r3p1&#45;&gt;r3p2 -->
<g id="edge8" class="edge">
<title>r3p1&#45;&gt;r3p2</title>
<path fill="none" stroke="#758297" stroke-width="1.8" d="M549.84,-121.08C549.84,-121.08 549.84,-121.08 549.84,-121.08"/>
</g>
<!-- r3p2&#45;&gt;n3 -->
<g id="edge9" class="edge">
<title>r3p2&#45;&gt;n3</title>
<path fill="none" stroke="#758297" stroke-width="1.8" d="M551.09,-121.08C553.7,-121.08 560.19,-121.08 569.05,-121.08"/>
<polygon fill="#758297" stroke="#758297" stroke-width="1.8" points="568.81,-123.88 576.81,-121.08 568.81,-118.28 568.81,-123.88"/>
</g>
<!-- r4p1&#45;&gt;r4p2 -->
<g id="edge11" class="edge">
<title>r4p1&#45;&gt;r4p2</title>
<path fill="none" stroke="#758297" stroke-width="1.8" d="M839.84,-121.08C839.84,-121.08 839.84,-121.08 839.84,-121.08"/>
</g>
<!-- r4p2&#45;&gt;n4 -->
<g id="edge12" class="edge">
<title>r4p2&#45;&gt;n4</title>
<path fill="none" stroke="#758297" stroke-width="1.8" d="M841.09,-121.08C843.7,-121.08 850.19,-121.08 859.05,-121.08"/>
<polygon fill="#758297" stroke="#758297" stroke-width="1.8" points="858.81,-123.88 866.81,-121.08 858.81,-118.28 858.81,-123.88"/>
</g>
<!-- n0 -->
<g id="node1" class="node">
<title>n0</title>
<path fill="#ffffff" stroke="#5b8def" d="M217.68,-242.16C217.68,-242.16 12,-242.16 12,-242.16 6,-242.16 0,-236.16 0,-230.16 0,-230.16 0,-162 0,-162 0,-156 6,-150 12,-150 12,-150 217.68,-150 217.68,-150 223.68,-150 229.68,-156 229.68,-162 229.68,-162 229.68,-230.16 229.68,-230.16 229.68,-236.16 223.68,-242.16 217.68,-242.16"/>
<text xml:space="preserve" text-anchor="middle" x="114.84" y="-191.73" font-family="Architects Daughter" font-size="18.00">Warmer node&#45;A</text>
</g>
<!-- n1 -->
<g id="node2" class="node">
<title>n1</title>
<path fill="#ffffff" stroke="#58a978" d="M217.68,-92.16C217.68,-92.16 12,-92.16 12,-92.16 6,-92.16 0,-86.16 0,-80.16 0,-80.16 0,-12 0,-12 0,-6 6,0 12,0 12,0 217.68,0 217.68,0 223.68,0 229.68,-6 229.68,-12 229.68,-12 229.68,-80.16 229.68,-80.16 229.68,-86.16 223.68,-92.16 217.68,-92.16"/>
<text xml:space="preserve" text-anchor="middle" x="114.84" y="-41.73" font-family="Architects Daughter" font-size="18.00">Warmer node&#45;B</text>
</g>
<!-- n2 -->
<g id="node3" class="node">
<title>n2</title>
<path fill="#ffffff" stroke="#d6a441" d="M507.68,-167.16C507.68,-167.16 302,-167.16 302,-167.16 296,-167.16 290,-161.16 290,-155.16 290,-155.16 290,-87 290,-87 290,-81 296,-75 302,-75 302,-75 507.68,-75 507.68,-75 513.68,-75 519.68,-81 519.68,-87 519.68,-87 519.68,-155.16 519.68,-155.16 519.68,-161.16 513.68,-167.16 507.68,-167.16"/>
<text xml:space="preserve" text-anchor="middle" x="404.84" y="-116.73" font-family="Architects Daughter" font-size="18.00">Elector factory</text>
</g>
<!-- n3 -->
<g id="node4" class="node">
<title>n3</title>
<path fill="#ffffff" stroke="#dc6b82" d="M797.68,-167.16C797.68,-167.16 592,-167.16 592,-167.16 586,-167.16 580,-161.16 580,-155.16 580,-155.16 580,-87 580,-87 580,-81 586,-75 592,-75 592,-75 797.68,-75 797.68,-75 803.68,-75 809.68,-81 809.68,-87 809.68,-87 809.68,-155.16 809.68,-155.16 809.68,-161.16 803.68,-167.16 797.68,-167.16"/>
<text xml:space="preserve" text-anchor="middle" x="694.84" y="-116.73" font-family="Architects Daughter" font-size="18.00">Partition locks</text>
</g>
<!-- n4 -->
<g id="node5" class="node">
<title>n4</title>
<path fill="#ffffff" stroke="#45a7a1" d="M1087.68,-167.16C1087.68,-167.16 882,-167.16 882,-167.16 876,-167.16 870,-161.16 870,-155.16 870,-155.16 870,-87 870,-87 870,-81 876,-75 882,-75 882,-75 1087.68,-75 1087.68,-75 1093.68,-75 1099.68,-81 1099.68,-87 1099.68,-87 1099.68,-155.16 1099.68,-155.16 1099.68,-161.16 1093.68,-167.16 1087.68,-167.16"/>
<text xml:space="preserve" text-anchor="middle" x="984.84" y="-116.73" font-family="Architects Daughter" font-size="18.00">Cache partitions</text>
</g>
<!-- r1p1 -->
<!-- r1p2 -->
<!-- r2p1 -->
<!-- r2p2 -->
<!-- r3p1 -->
<!-- r3p2 -->
<!-- r4p1 -->
<!-- r4p2 -->
</g>
</svg>
