<?xml version="1.0" encoding="UTF-8" standalone="no"?>
<!DOCTYPE svg PUBLIC "-//W3C//DTD SVG 1.1//EN"
 "http://www.w3.org/Graphics/SVG/1.1/DTD/svg11.dtd">
<!-- Generated by graphviz version 15.0.0 (20260523.1842)
 -->
<!-- Title: examples&#45;virtual&#45;thread&#45;runner&#45;architecture&#45;01 Pages: 1 -->
<svg width="1278pt" height="315pt"
 viewBox="0.00 0.00 1278.00 315.00" xmlns="http://www.w3.org/2000/svg" xmlns:xlink="http://www.w3.org/1999/xlink">
<g id="graph0" class="graph" transform="scale(1 1) rotate(0) translate(4 310.66)">
<title>examples&#45;virtual&#45;thread&#45;runner&#45;architecture&#45;01</title>
<text xml:space="preserve" text-anchor="middle" x="634.9" y="-289.36" font-family="Times,serif" font-size="14.00">Virtual Thread Runner Architecture</text>
<!-- n0&#45;&gt;r1p1 -->
<g id="edge1" class="edge">
<title>n0&#45;&gt;r1p1</title>
<path fill="none" stroke="#758297" stroke-width="1.8" d="M229.85,-236.08C251.31,-236.08 268.59,-236.08 273.46,-236.08"/>
</g>
<!-- n1&#45;&gt;r2p1 -->
<g id="edge4" class="edge">
<title>n1&#45;&gt;r2p1</title>
<path fill="none" stroke="#758297" stroke-width="1.8" d="M229.85,-46.08C251.31,-46.08 268.59,-46.08 273.46,-46.08"/>
</g>
<!-- n2&#45;&gt;r3p1 -->
<g id="edge7" class="edge">
<title>n2&#45;&gt;r3p1</title>
<path fill="none" stroke="#758297" stroke-width="1.8" d="M639.89,-136.08C651.71,-136.08 660.29,-136.08 663.48,-136.08"/>
</g>
<!-- n2&#45;&gt;r4p1 -->
<g id="edge10" class="edge">
<title>n2&#45;&gt;r4p1</title>
<path fill="none" stroke="#758297" stroke-width="1.8" d="M639.97,-136.08C723.8,-136.08 811.54,-136.08 823.47,-136.08"/>
</g>
<!-- n4&#45;&gt;r5p1 -->
<g id="edge13" class="edge">
<title>n4&#45;&gt;r5p1</title>
<path fill="none" stroke="#758297" stroke-width="1.8" d="M1139.84,-189.69C1139.84,-168.97 1139.84,-147.96 1139.84,-142.46"/>
</g>
<!-- n5&#45;&gt;r6p1 -->
<g id="edge16" class="edge">
<title>n5&#45;&gt;r6p1</title>
<path fill="none" stroke="#758297" stroke-width="1.8" d="M1009.4,-46.08C997.9,-46.08 989.38,-46.08 986.2,-46.08"/>
</g>
<!-- r1p1&#45;&gt;r1p2 -->
<g id="edge2" class="edge">
<title>r1p1&#45;&gt;r1p2</title>
<path fill="none" stroke="#758297" stroke-width="1.8" d="M274.84,-234.67C274.84,-223.46 274.84,-149.13 274.84,-137.59"/>
</g>
<!-- r1p2&#45;&gt;n2 -->
<g id="edge3" class="edge">
<title>r1p2&#45;&gt;n2</title>
<path fill="none" stroke="#758297" stroke-width="1.8" d="M276.15,-136.08C280.05,-136.08 292.4,-136.08 309.22,-136.08"/>
<polygon fill="#758297" stroke="#758297" stroke-width="1.8" points="308.89,-138.88 316.89,-136.08 308.89,-133.28 308.89,-138.88"/>
</g>
<!-- r2p1&#45;&gt;r2p2 -->
<g id="edge5" class="edge">
<title>r2p1&#45;&gt;r2p2</title>
<path fill="none" stroke="#758297" stroke-width="1.8" d="M274.84,-47.64C274.84,-58.66 274.84,-124.52 274.84,-134.75"/>
</g>
<!-- r2p2&#45;&gt;n2 -->
<g id="edge6" class="edge">
<title>r2p2&#45;&gt;n2</title>
<path fill="none" stroke="#758297" stroke-width="1.8" d="M276.15,-136.08C280.05,-136.08 292.4,-136.08 309.22,-136.08"/>
<polygon fill="#758297" stroke="#758297" stroke-width="1.8" points="308.89,-138.88 316.89,-136.08 308.89,-133.28 308.89,-138.88"/>
</g>
<!-- r3p1&#45;&gt;r3p2 -->
<g id="edge8" class="edge">
<title>r3p1&#45;&gt;r3p2</title>
<path fill="none" stroke="#758297" stroke-width="1.8" d="M664.84,-136.08C664.84,-136.08 664.84,-136.08 664.84,-136.08"/>
</g>
<!-- r3p2&#45;&gt;n3 -->
<g id="edge9" class="edge">
<title>r3p2&#45;&gt;n3</title>
<path fill="none" stroke="#758297" stroke-width="1.8" d="M666.22,-136.08C668.38,-136.08 672.95,-136.08 679.23,-136.08"/>
<polygon fill="#758297" stroke="#758297" stroke-width="1.8" points="678.86,-138.88 686.86,-136.08 678.86,-133.28 678.86,-138.88"/>
</g>
<!-- r4p1&#45;&gt;r4p2 -->
<g id="edge11" class="edge">
<title>r4p1&#45;&gt;r4p2</title>
<path fill="none" stroke="#758297" stroke-width="1.8" d="M824.84,-137.49C824.84,-148.7 824.84,-223.03 824.84,-234.57"/>
</g>
<!-- r4p2&#45;&gt;n4 -->
<g id="edge12" class="edge">
<title>r4p2&#45;&gt;n4</title>
<path fill="none" stroke="#758297" stroke-width="1.8" d="M826.24,-236.08C837.99,-236.08 921.36,-236.08 999.18,-236.08"/>
<polygon fill="#758297" stroke="#758297" stroke-width="1.8" points="998.9,-238.88 1006.9,-236.08 998.9,-233.28 998.9,-238.88"/>
</g>
<!-- r5p1&#45;&gt;r5p2 -->
<g id="edge14" class="edge">
<title>r5p1&#45;&gt;r5p2</title>
<path fill="none" stroke="#758297" stroke-width="1.8" d="M1139.84,-141.08C1139.84,-141.08 1139.84,-141.08 1139.84,-141.08"/>
</g>
<!-- r5p2&#45;&gt;n5 -->
<g id="edge15" class="edge">
<title>r5p2&#45;&gt;n5</title>
<path fill="none" stroke="#758297" stroke-width="1.8" d="M1139.84,-139.74C1139.84,-135.24 1139.84,-120.01 1139.84,-103.11"/>
<polygon fill="#758297" stroke="#758297" stroke-width="1.8" points="1142.64,-103.18 1139.84,-95.18 1137.04,-103.18 1142.64,-103.18"/>
</g>
<!-- r6p1&#45;&gt;r6p2 -->
<g id="edge17" class="edge">
<title>r6p1&#45;&gt;r6p2</title>
<path fill="none" stroke="#758297" stroke-width="1.8" d="M984.84,-47.64C984.84,-58.66 984.84,-124.52 984.84,-134.75"/>
</g>
<!-- r6p2&#45;&gt;n3 -->
<g id="edge18" class="edge">
<title>r6p2&#45;&gt;n3</title>
<path fill="none" stroke="#758297" stroke-width="1.8" d="M983.46,-136.08C981.3,-136.08 976.73,-136.08 970.45,-136.08"/>
<polygon fill="#758297" stroke="#758297" stroke-width="1.8" points="970.82,-133.28 962.82,-136.08 970.82,-138.88 970.82,-133.28"/>
</g>
<!-- n0 -->
<g id="node1" class="node">
<title>n0</title>
<path fill="#ffffff" stroke="#5b8def" d="M217.68,-282.16C217.68,-282.16 12,-282.16 12,-282.16 6,-282.16 0,-276.16 0,-270.16 0,-270.16 0,-202 0,-202 0,-196 6,-190 12,-190 12,-190 217.68,-190 217.68,-190 223.68,-190 229.68,-196 229.68,-202 229.68,-202 229.68,-270.16 229.68,-270.16 229.68,-276.16 223.68,-282.16 217.68,-282.16"/>
<text xml:space="preserve" text-anchor="middle" x="114.84" y="-231.73" font-family="Architects Daughter" font-size="18.00">Service node A</text>
</g>
<!-- n1 -->
<g id="node2" class="node">
<title>n1</title>
<path fill="#ffffff" stroke="#58a978" d="M217.68,-92.16C217.68,-92.16 12,-92.16 12,-92.16 6,-92.16 0,-86.16 0,-80.16 0,-80.16 0,-12 0,-12 0,-6 6,0 12,0 12,0 217.68,0 217.68,0 223.68,0 229.68,-6 229.68,-12 229.68,-12 229.68,-80.16 229.68,-80.16 229.68,-86.16 223.68,-92.16 217.68,-92.16"/>
<text xml:space="preserve" text-anchor="middle" x="114.84" y="-41.73" font-family="Architects Daughter" font-size="18.00">Service node B</text>
</g>
<!-- n2 -->
<g id="node3" class="node">
<title>n2</title>
<path fill="#ffffff" stroke="#d6a441" d="M627.68,-182.16C627.68,-182.16 332,-182.16 332,-182.16 326,-182.16 320,-176.16 320,-170.16 320,-170.16 320,-102 320,-102 320,-96 326,-90 332,-90 332,-90 627.68,-90 627.68,-90 633.68,-90 639.68,-96 639.68,-102 639.68,-102 639.68,-170.16 639.68,-170.16 639.68,-176.16 633.68,-182.16 627.68,-182.16"/>
<text xml:space="preserve" text-anchor="middle" x="479.84" y="-131.73" font-family="Architects Daughter" font-size="18.00">VirtualThreadLeaderElector</text>
</g>
<!-- n3 -->
<g id="node4" class="node">
<title>n3</title>
<path fill="#ffffff" stroke="#dc6b82" d="M947.84,-182.16C947.84,-182.16 701.84,-182.16 701.84,-182.16 695.84,-182.16 689.84,-176.16 689.84,-170.16 689.84,-170.16 689.84,-102 689.84,-102 689.84,-96 695.84,-90 701.84,-90 701.84,-90 947.84,-90 947.84,-90 953.84,-90 959.84,-96 959.84,-102 959.84,-102 959.84,-170.16 959.84,-170.16 959.84,-176.16 953.84,-182.16 947.84,-182.16"/>
<text xml:space="preserve" text-anchor="middle" x="824.84" y="-131.73" font-family="Architects Daughter" font-size="18.00">Local leader backend</text>
</g>
<!-- n4 -->
<g id="node5" class="node">
<title>n4</title>
<path fill="#ffffff" stroke="#45a7a1" d="M1257.8,-282.16C1257.8,-282.16 1021.88,-282.16 1021.88,-282.16 1015.88,-282.16 1009.88,-276.16 1009.88,-270.16 1009.88,-270.16 1009.88,-202 1009.88,-202 1009.88,-196 1015.88,-190 1021.88,-190 1021.88,-190 1257.8,-190 1257.8,-190 1263.8,-190 1269.8,-196 1269.8,-202 1269.8,-202 1269.8,-270.16 1269.8,-270.16 1269.8,-276.16 1263.8,-282.16 1257.8,-282.16"/>
<text xml:space="preserve" text-anchor="middle" x="1139.84" y="-231.73" font-family="Architects Daughter" font-size="18.00">Virtual thread</text>
</g>
<!-- n5 -->
<g id="node6" class="node">
<title>n5</title>
<path fill="#ffffff" stroke="#8a72d6" d="M1257.8,-92.16C1257.8,-92.16 1021.88,-92.16 1021.88,-92.16 1015.88,-92.16 1009.88,-86.16 1009.88,-80.16 1009.88,-80.16 1009.88,-12 1009.88,-12 1009.88,-6 1015.88,0 1021.88,0 1021.88,0 1257.8,0 1257.8,0 1263.8,0 1269.8,-6 1269.8,-12 1269.8,-12 1269.8,-80.16 1269.8,-80.16 1269.8,-86.16 1263.8,-92.16 1257.8,-92.16"/>
<text xml:space="preserve" text-anchor="middle" x="1139.84" y="-41.73" font-family="Architects Daughter" font-size="18.00">Maintenance task</text>
</g>
<!-- r1p1 -->
<!-- r1p2 -->
<!-- r2p1 -->
<!-- r2p2 -->
<!-- r3p1 -->
<!-- r3p2 -->
<!-- r4p1 -->
<!-- r4p2 -->
<!-- r5p1 -->
<!-- r5p2 -->
<!-- r6p1 -->
<!-- r6p2 -->
</g>
</svg>
