<?xml version="1.0" encoding="UTF-8" standalone="no"?>
<!DOCTYPE svg PUBLIC "-//W3C//DTD SVG 1.1//EN"
 "http://www.w3.org/Graphics/SVG/1.1/DTD/svg11.dtd">
<!-- Generated by graphviz version 15.0.0 (20260523.1842)
 -->
<!-- Title: examples&#45;strategic&#45;election&#45;architecture&#45;01 Pages: 1 -->
<svg width="1328pt" height="465pt"
 viewBox="0.00 0.00 1328.00 465.00" xmlns="http://www.w3.org/2000/svg" xmlns:xlink="http://www.w3.org/1999/xlink">
<g id="graph0" class="graph" transform="scale(1 1) rotate(0) translate(4 460.66)">
<title>examples&#45;strategic&#45;election&#45;architecture&#45;01</title>
<text xml:space="preserve" text-anchor="middle" x="659.88" y="-439.36" font-family="Times,serif" font-size="14.00">Strategic Election Architecture</text>
<!-- n0&#45;&gt;r1p1 -->
<g id="edge1" class="edge">
<title>n0&#45;&gt;r1p1</title>
<path fill="none" stroke="#758297" stroke-width="1.8" d="M229.85,-386.08C251.31,-386.08 268.59,-386.08 273.46,-386.08"/>
</g>
<!-- n1&#45;&gt;r2p1 -->
<g id="edge4" class="edge">
<title>n1&#45;&gt;r2p1</title>
<path fill="none" stroke="#758297" stroke-width="1.8" d="M229.85,-216.08C251.31,-216.08 268.59,-216.08 273.46,-216.08"/>
</g>
<!-- n2&#45;&gt;r3p1 -->
<g id="edge7" class="edge">
<title>n2&#45;&gt;r3p1</title>
<path fill="none" stroke="#758297" stroke-width="1.8" d="M229.85,-46.08C251.31,-46.08 268.59,-46.08 273.46,-46.08"/>
</g>
<!-- n3&#45;&gt;r4p1 -->
<g id="edge10" class="edge">
<title>n3&#45;&gt;r4p1</title>
<path fill="none" stroke="#758297" stroke-width="1.8" d="M620.14,-216.08C631.8,-216.08 640.32,-216.08 643.49,-216.08"/>
</g>
<!-- n4&#45;&gt;r5p1 -->
<g id="edge13" class="edge">
<title>n4&#45;&gt;r5p1</title>
<path fill="none" stroke="#758297" stroke-width="1.8" d="M960.14,-296.08C963.96,-296.08 966.79,-296.08 968.38,-296.08"/>
</g>
<!-- n5&#45;&gt;r6p1 -->
<g id="edge16" class="edge">
<title>n5&#45;&gt;r6p1</title>
<path fill="none" stroke="#758297" stroke-width="1.8" d="M1149.84,-249.76C1149.84,-231.16 1149.84,-212.85 1149.84,-207.58"/>
</g>
<!-- r1p1&#45;&gt;r1p2 -->
<g id="edge2" class="edge">
<title>r1p1&#45;&gt;r1p2</title>
<path fill="none" stroke="#758297" stroke-width="1.8" d="M274.84,-384.61C274.84,-368.9 274.84,-232.29 274.84,-217.4"/>
</g>
<!-- r1p2&#45;&gt;n3 -->
<g id="edge3" class="edge">
<title>r1p2&#45;&gt;n3</title>
<path fill="none" stroke="#758297" stroke-width="1.8" d="M276.09,-216.08C279.91,-216.08 292.24,-216.08 308.96,-216.08"/>
<polygon fill="#758297" stroke="#758297" stroke-width="1.8" points="308.55,-218.88 316.55,-216.08 308.55,-213.28 308.55,-218.88"/>
</g>
<!-- r2p1&#45;&gt;r2p2 -->
<g id="edge5" class="edge">
<title>r2p1&#45;&gt;r2p2</title>
<path fill="none" stroke="#758297" stroke-width="1.8" d="M274.84,-216.08C274.84,-216.08 274.84,-216.08 274.84,-216.08"/>
</g>
<!-- r2p2&#45;&gt;n3 -->
<g id="edge6" class="edge">
<title>r2p2&#45;&gt;n3</title>
<path fill="none" stroke="#758297" stroke-width="1.8" d="M276.09,-216.08C279.91,-216.08 292.24,-216.08 308.96,-216.08"/>
<polygon fill="#758297" stroke="#758297" stroke-width="1.8" points="308.55,-218.88 316.55,-216.08 308.55,-213.28 308.55,-218.88"/>
</g>
<!-- r3p1&#45;&gt;r3p2 -->
<g id="edge8" class="edge">
<title>r3p1&#45;&gt;r3p2</title>
<path fill="none" stroke="#758297" stroke-width="1.8" d="M274.84,-47.55C274.84,-63.26 274.84,-199.87 274.84,-214.76"/>
</g>
<!-- r3p2&#45;&gt;n3 -->
<g id="edge9" class="edge">
<title>r3p2&#45;&gt;n3</title>
<path fill="none" stroke="#758297" stroke-width="1.8" d="M276.09,-216.08C279.91,-216.08 292.24,-216.08 308.96,-216.08"/>
<polygon fill="#758297" stroke="#758297" stroke-width="1.8" points="308.55,-218.88 316.55,-216.08 308.55,-213.28 308.55,-218.88"/>
</g>
<!-- r4p1&#45;&gt;r4p2 -->
<g id="edge11" class="edge">
<title>r4p1&#45;&gt;r4p2</title>
<path fill="none" stroke="#758297" stroke-width="1.8" d="M644.84,-217.47C644.84,-227.18 644.84,-284.82 644.84,-294.65"/>
</g>
<!-- r4p2&#45;&gt;n4 -->
<g id="edge12" class="edge">
<title>r4p2&#45;&gt;n4</title>
<path fill="none" stroke="#758297" stroke-width="1.8" d="M646.31,-296.08C648.44,-296.08 652.79,-296.08 658.76,-296.08"/>
<polygon fill="#758297" stroke="#758297" stroke-width="1.8" points="658.66,-298.88 666.66,-296.08 658.66,-293.28 658.66,-298.88"/>
</g>
<!-- r5p1&#45;&gt;r5p2 -->
<g id="edge14" class="edge">
<title>r5p1&#45;&gt;r5p2</title>
<path fill="none" stroke="#758297" stroke-width="1.8" d="M969.84,-296.08C969.84,-296.08 969.84,-296.08 969.84,-296.08"/>
</g>
<!-- r5p2&#45;&gt;n4 -->
<g id="edge15" class="edge">
<title>r5p2&#45;&gt;n4</title>
<path fill="none" stroke="#758297" stroke-width="1.8" d="M968.5,-296.08C968.4,-296.08 968.3,-296.08 968.2,-296.08"/>
<polygon fill="#758297" stroke="#758297" stroke-width="1.8" points="971.07,-293.28 963.07,-296.08 971.07,-298.88 971.07,-293.28"/>
</g>
<!-- r6p1&#45;&gt;r6p2 -->
<g id="edge17" class="edge">
<title>r6p1&#45;&gt;r6p2</title>
<path fill="none" stroke="#758297" stroke-width="1.8" d="M1149.84,-206.08C1149.84,-206.08 1149.84,-206.08 1149.84,-206.08"/>
</g>
<!-- r6p2&#45;&gt;n6 -->
<g id="edge18" class="edge">
<title>r6p2&#45;&gt;n6</title>
<path fill="none" stroke="#758297" stroke-width="1.8" d="M1149.84,-204.52C1149.84,-200.24 1149.84,-187.67 1149.84,-173.3"/>
<polygon fill="#758297" stroke="#758297" stroke-width="1.8" points="1152.64,-173.34 1149.84,-165.34 1147.04,-173.34 1152.64,-173.34"/>
</g>
<!-- n0 -->
<g id="node1" class="node">
<title>n0</title>
<path fill="#ffffff" stroke="#5b8def" d="M217.68,-432.16C217.68,-432.16 12,-432.16 12,-432.16 6,-432.16 0,-426.16 0,-420.16 0,-420.16 0,-352 0,-352 0,-346 6,-340 12,-340 12,-340 217.68,-340 217.68,-340 223.68,-340 229.68,-346 229.68,-352 229.68,-352 229.68,-420.16 229.68,-420.16 229.68,-426.16 223.68,-432.16 217.68,-432.16"/>
<text xml:space="preserve" text-anchor="middle" x="114.84" y="-381.73" font-family="Architects Daughter" font-size="18.00">Service node A</text>
</g>
<!-- n1 -->
<g id="node2" class="node">
<title>n1</title>
<path fill="#ffffff" stroke="#58a978" d="M217.68,-262.16C217.68,-262.16 12,-262.16 12,-262.16 6,-262.16 0,-256.16 0,-250.16 0,-250.16 0,-182 0,-182 0,-176 6,-170 12,-170 12,-170 217.68,-170 217.68,-170 223.68,-170 229.68,-176 229.68,-182 229.68,-182 229.68,-250.16 229.68,-250.16 229.68,-256.16 223.68,-262.16 217.68,-262.16"/>
<text xml:space="preserve" text-anchor="middle" x="114.84" y="-211.73" font-family="Architects Daughter" font-size="18.00">Service node B</text>
</g>
<!-- n2 -->
<g id="node3" class="node">
<title>n2</title>
<path fill="#ffffff" stroke="#d6a441" d="M217.68,-92.16C217.68,-92.16 12,-92.16 12,-92.16 6,-92.16 0,-86.16 0,-80.16 0,-80.16 0,-12 0,-12 0,-6 6,0 12,0 12,0 217.68,0 217.68,0 223.68,0 229.68,-6 229.68,-12 229.68,-12 229.68,-80.16 229.68,-80.16 229.68,-86.16 223.68,-92.16 217.68,-92.16"/>
<text xml:space="preserve" text-anchor="middle" x="114.84" y="-41.73" font-family="Architects Daughter" font-size="18.00">Service node C</text>
</g>
<!-- n3 -->
<g id="node4" class="node">
<title>n3</title>
<path fill="#ffffff" stroke="#dc6b82" d="M607.96,-262.16C607.96,-262.16 331.72,-262.16 331.72,-262.16 325.72,-262.16 319.72,-256.16 319.72,-250.16 319.72,-250.16 319.72,-182 319.72,-182 319.72,-176 325.72,-170 331.72,-170 331.72,-170 607.96,-170 607.96,-170 613.96,-170 619.96,-176 619.96,-182 619.96,-182 619.96,-250.16 619.96,-250.16 619.96,-256.16 613.96,-262.16 607.96,-262.16"/>
<text xml:space="preserve" text-anchor="middle" x="469.84" y="-211.73" font-family="Architects Daughter" font-size="18.00">WeightedScorer</text>
</g>
<!-- n4 -->
<g id="node5" class="node">
<title>n4</title>
<path fill="#ffffff" stroke="#45a7a1" d="M947.92,-342.16C947.92,-342.16 681.76,-342.16 681.76,-342.16 675.76,-342.16 669.76,-336.16 669.76,-330.16 669.76,-330.16 669.76,-262 669.76,-262 669.76,-256 675.76,-250 681.76,-250 681.76,-250 947.92,-250 947.92,-250 953.92,-250 959.92,-256 959.92,-262 959.92,-262 959.92,-330.16 959.92,-330.16 959.92,-336.16 953.92,-342.16 947.92,-342.16"/>
<text xml:space="preserve" text-anchor="middle" x="814.84" y="-291.73" font-family="Architects Daughter" font-size="18.00">ScoredElectionStrategy</text>
</g>
<!-- n5 -->
<g id="node6" class="node">
<title>n5</title>
<path fill="#ffffff" stroke="#8a72d6" d="M1307.76,-342.16C1307.76,-342.16 991.92,-342.16 991.92,-342.16 985.92,-342.16 979.92,-336.16 979.92,-330.16 979.92,-330.16 979.92,-262 979.92,-262 979.92,-256 985.92,-250 991.92,-250 991.92,-250 1307.76,-250 1307.76,-250 1313.76,-250 1319.76,-256 1319.76,-262 1319.76,-262 1319.76,-330.16 1319.76,-330.16 1319.76,-336.16 1313.76,-342.16 1307.76,-342.16"/>
<text xml:space="preserve" text-anchor="middle" x="1149.84" y="-291.73" font-family="Architects Daughter" font-size="18.00">LocalStrategicLeaderElector</text>
</g>
<!-- n6 -->
<g id="node7" class="node">
<title>n6</title>
<path fill="#ffffff" stroke="#b88a44" d="M1307.76,-162.16C1307.76,-162.16 991.92,-162.16 991.92,-162.16 985.92,-162.16 979.92,-156.16 979.92,-150.16 979.92,-150.16 979.92,-82 979.92,-82 979.92,-76 985.92,-70 991.92,-70 991.92,-70 1307.76,-70 1307.76,-70 1313.76,-70 1319.76,-76 1319.76,-82 1319.76,-82 1319.76,-150.16 1319.76,-150.16 1319.76,-156.16 1313.76,-162.16 1307.76,-162.16"/>
<text xml:space="preserve" text-anchor="middle" x="1149.84" y="-111.73" font-family="Architects Daughter" font-size="18.00">Leader&#45;only work</text>
</g>
<!-- r1p1 -->
<!-- r1p2 -->
<!-- r2p1 -->
<!-- r2p2 -->
<!-- r3p1 -->
<!-- r3p2 -->
<!-- r4p1 -->
<!-- r4p2 -->
<!-- r5p1 -->
<!-- r5p2 -->
<!-- r6p1 -->
<!-- r6p2 -->
</g>
</svg>
