<?xml version="1.0" encoding="UTF-8" standalone="no"?>
<!DOCTYPE svg PUBLIC "-//W3C//DTD SVG 1.1//EN"
 "http://www.w3.org/Graphics/SVG/1.1/DTD/svg11.dtd">
<!-- Generated by graphviz version 15.0.0 (20260523.1842)
 -->
<!-- Title: examples&#45;webhook&#45;poller&#45;sequence&#45;01 Pages: 1 -->
<svg width="1232pt" height="503pt"
 viewBox="0.00 0.00 1232.00 503.00" xmlns="http://www.w3.org/2000/svg" xmlns:xlink="http://www.w3.org/1999/xlink">
<g id="graph0" class="graph" transform="scale(1 1) rotate(0) translate(4 499)">
<title>examples&#45;webhook&#45;poller&#45;sequence&#45;01</title>
<!-- trigger -->
<g id="node1" class="node">
<title>trigger</title>
<path fill="#f8fafc" stroke="#94a3b8" d="M71.5,-58C71.5,-58 12,-58 12,-58 6,-58 0,-52 0,-46 0,-46 0,-34 0,-34 0,-28 6,-22 12,-22 12,-22 71.5,-22 71.5,-22 77.5,-22 83.5,-28 83.5,-34 83.5,-34 83.5,-46 83.5,-46 83.5,-52 77.5,-58 71.5,-58"/>
<text xml:space="preserve" text-anchor="middle" x="41.75" y="-34.58" font-family="Comic Mono" font-size="14.00">Poll Loop</text>
</g>
<!-- coord -->
<g id="node2" class="node">
<title>coord</title>
<path fill="#f8fafc" stroke="#94a3b8" d="M329.75,-150C329.75,-150 240.25,-150 240.25,-150 234.25,-150 228.25,-144 228.25,-138 228.25,-138 228.25,-126 228.25,-126 228.25,-120 234.25,-114 240.25,-114 240.25,-114 329.75,-114 329.75,-114 335.75,-114 341.75,-120 341.75,-126 341.75,-126 341.75,-138 341.75,-138 341.75,-144 335.75,-150 329.75,-150"/>
<text xml:space="preserve" text-anchor="middle" x="285" y="-126.58" font-family="Comic Mono" font-size="14.00">WebhookPoller</text>
</g>
<!-- trigger&#45;&gt;coord -->
<g id="edge1" class="edge">
<title>trigger&#45;&gt;coord</title>
<path fill="none" stroke="#4f83bf" d="M41.5,-58.18C41.5,-84.99 41.5,-132 41.5,-132 41.5,-132 219.4,-132 219.4,-132"/>
<polygon fill="#4f83bf" stroke="#4f83bf" points="219.4,-134.45 226.4,-132 219.4,-129.55 219.4,-134.45"/>
<text xml:space="preserve" text-anchor="middle" x="155.88" y="-89.5" font-family="Comic Mono" font-size="10.00">start poll loop</text>
</g>
<!-- elector -->
<g id="node3" class="node">
<title>elector</title>
<path fill="#f8fafc" stroke="#94a3b8" d="M761.25,-266C761.25,-266 619.25,-266 619.25,-266 613.25,-266 607.25,-260 607.25,-254 607.25,-254 607.25,-242 607.25,-242 607.25,-236 613.25,-230 619.25,-230 619.25,-230 761.25,-230 761.25,-230 767.25,-230 773.25,-236 773.25,-242 773.25,-242 773.25,-254 773.25,-254 773.25,-260 767.25,-266 761.25,-266"/>
<text xml:space="preserve" text-anchor="middle" x="690.25" y="-242.57" font-family="Comic Mono" font-size="14.00">Mongo leader elector</text>
</g>
<!-- coord&#45;&gt;elector -->
<g id="edge2" class="edge">
<title>coord&#45;&gt;elector</title>
<path fill="none" stroke="#4f83bf" d="M284.5,-150.38C284.5,-183.09 284.5,-248 284.5,-248 284.5,-248 598.65,-248 598.65,-248"/>
<polygon fill="#4f83bf" stroke="#4f83bf" points="598.65,-250.45 605.65,-248 598.65,-245.55 598.65,-250.45"/>
<text xml:space="preserve" text-anchor="middle" x="474.5" y="-211.5" font-family="Comic Mono" font-size="10.00">runIfLeader with source options</text>
</g>
<!-- backend -->
<g id="node4" class="node">
<title>backend</title>
<path fill="#f8fafc" stroke="#94a3b8" d="M1211.5,-400C1211.5,-400 1077,-400 1077,-400 1071,-400 1065,-394 1065,-388 1065,-388 1065,-376 1065,-376 1065,-370 1071,-364 1077,-364 1077,-364 1211.5,-364 1211.5,-364 1217.5,-364 1223.5,-370 1223.5,-376 1223.5,-376 1223.5,-388 1223.5,-388 1223.5,-394 1217.5,-400 1211.5,-400"/>
<text xml:space="preserve" text-anchor="middle" x="1144.25" y="-376.57" font-family="Comic Mono" font-size="14.00">Mongo lock document</text>
</g>
<!-- elector&#45;&gt;backend -->
<g id="edge3" class="edge">
<title>elector&#45;&gt;backend</title>
<path fill="none" stroke="#b9851b" d="M773.53,-260.86C890.01,-260.86 1087.5,-260.86 1087.5,-260.86 1087.5,-260.86 1087.5,-355.09 1087.5,-355.09"/>
<polygon fill="#b9851b" stroke="#b9851b" points="1085.05,-355.09 1087.5,-362.09 1089.95,-355.09 1085.05,-355.09"/>
<text xml:space="preserve" text-anchor="middle" x="919.12" y="-485.5" font-family="Comic Mono" font-size="10.00">attempt backend ownership</text>
</g>
<!-- elector&#45;&gt;backend -->
<g id="edge7" class="edge">
<title>elector&#45;&gt;backend</title>
<path fill="none" stroke="#755bc6" d="M773.53,-255.71C896.04,-255.71 1110.5,-255.71 1110.5,-255.71 1110.5,-255.71 1110.5,-355.12 1110.5,-355.12"/>
<polygon fill="#755bc6" stroke="#755bc6" points="1108.05,-355.12 1110.5,-362.12 1112.95,-355.12 1108.05,-355.12"/>
<text xml:space="preserve" text-anchor="middle" x="919.12" y="-418.5" font-family="Comic Mono" font-size="10.00">release or renew for claim timeout recovery</text>
</g>
<!-- work -->
<g id="node5" class="node">
<title>work</title>
<path fill="#f8fafc" stroke="#94a3b8" d="M1211.5,-200C1211.5,-200 1077,-200 1077,-200 1071,-200 1065,-194 1065,-188 1065,-188 1065,-176 1065,-176 1065,-170 1071,-164 1077,-164 1077,-164 1211.5,-164 1211.5,-164 1217.5,-164 1223.5,-170 1223.5,-176 1223.5,-176 1223.5,-188 1223.5,-188 1223.5,-194 1217.5,-200 1211.5,-200"/>
<text xml:space="preserve" text-anchor="middle" x="1144.25" y="-176.57" font-family="Comic Mono" font-size="14.00">Claim Webhook Event</text>
</g>
<!-- elector&#45;&gt;work -->
<g id="edge5" class="edge">
<title>elector&#45;&gt;work</title>
<path fill="none" stroke="#3e9868" d="M773.63,-235.14C913.08,-235.14 1178.5,-235.14 1178.5,-235.14 1178.5,-235.14 1178.5,-208.8 1178.5,-208.8"/>
<polygon fill="#3e9868" stroke="#3e9868" points="1180.95,-208.8 1178.5,-201.8 1176.05,-208.8 1180.95,-208.8"/>
<text xml:space="preserve" text-anchor="middle" x="919.12" y="-217.5" font-family="Comic Mono" font-size="10.00">execute claim webhook event</text>
</g>
<!-- peer -->
<g id="node6" class="node">
<title>peer</title>
<path fill="#f8fafc" stroke="#94a3b8" d="M1185.25,-59C1185.25,-59 1103.25,-59 1103.25,-59 1097.25,-59 1091.25,-53 1091.25,-47 1091.25,-47 1091.25,-35 1091.25,-35 1091.25,-29 1097.25,-23 1103.25,-23 1103.25,-23 1185.25,-23 1185.25,-23 1191.25,-23 1197.25,-29 1197.25,-35 1197.25,-35 1197.25,-47 1197.25,-47 1197.25,-53 1191.25,-59 1185.25,-59"/>
<text xml:space="preserve" text-anchor="middle" x="1144.25" y="-35.58" font-family="Comic Mono" font-size="14.00">Skipped Peer</text>
</g>
<!-- elector&#45;&gt;peer -->
<g id="edge9" class="edge">
<title>elector&#45;&gt;peer</title>
<path fill="none" stroke="#c94d68" d="M690.5,-229.75C690.5,-180.11 690.5,-46.33 690.5,-46.33 690.5,-46.33 1082.35,-46.33 1082.35,-46.33"/>
<polygon fill="#c94d68" stroke="#c94d68" points="1082.35,-48.78 1089.35,-46.33 1082.35,-43.88 1082.35,-48.78"/>
<text xml:space="preserve" text-anchor="middle" x="919.12" y="-83.5" font-family="Comic Mono" font-size="10.00">return skipped result</text>
</g>
<!-- backend&#45;&gt;elector -->
<g id="edge4" class="edge">
<title>backend&#45;&gt;elector</title>
<path fill="none" stroke="#3e9868" d="M1132.5,-363.73C1132.5,-327.61 1132.5,-250.57 1132.5,-250.57 1132.5,-250.57 782.21,-250.57 782.21,-250.57"/>
<polygon fill="#3e9868" stroke="#3e9868" points="782.21,-248.12 775.21,-250.57 782.21,-253.02 782.21,-248.12"/>
<text xml:space="preserve" text-anchor="middle" x="919.12" y="-351.5" font-family="Comic Mono" font-size="10.00">owner token accepted</text>
</g>
<!-- backend&#45;&gt;elector -->
<g id="edge8" class="edge">
<title>backend&#45;&gt;elector</title>
<path fill="none" stroke="#c94d68" d="M1155.5,-363.58C1155.5,-326.3 1155.5,-245.43 1155.5,-245.43 1155.5,-245.43 782.21,-245.43 782.21,-245.43"/>
<polygon fill="#c94d68" stroke="#c94d68" points="782.21,-242.98 775.21,-245.43 782.21,-247.88 782.21,-242.98"/>
<text xml:space="preserve" text-anchor="middle" x="919.12" y="-284.5" font-family="Comic Mono" font-size="10.00">lock already owned</text>
</g>
<!-- work&#45;&gt;elector -->
<g id="edge6" class="edge">
<title>work&#45;&gt;elector</title>
<path fill="none" stroke="#3e9868" d="M1200.5,-200.44C1200.5,-217.52 1200.5,-240.29 1200.5,-240.29 1200.5,-240.29 782.16,-240.29 782.16,-240.29"/>
<polygon fill="#3e9868" stroke="#3e9868" points="782.16,-237.84 775.16,-240.29 782.16,-242.74 782.16,-237.84"/>
<text xml:space="preserve" text-anchor="middle" x="919.12" y="-150.5" font-family="Comic Mono" font-size="10.00">return leader result</text>
</g>
<!-- peer&#45;&gt;trigger -->
<g id="edge10" class="edge">
<title>peer&#45;&gt;trigger</title>
<path fill="none" stroke="#c94d68" d="M1091.07,-34.67C1091.07,-34.67 92.5,-34.67 92.5,-34.67"/>
<polygon fill="#c94d68" stroke="#c94d68" points="92.5,-32.22 85.5,-34.67 92.5,-37.12 92.5,-32.22"/>
<text xml:space="preserve" text-anchor="middle" x="474.5" y="-2.5" font-family="Comic Mono" font-size="10.00">cycle completes without duplicate work</text>
</g>
</g>
</svg>
