<?xml version="1.0" encoding="UTF-8" standalone="no"?>
<!DOCTYPE svg PUBLIC "-//W3C//DTD SVG 1.1//EN"
 "http://www.w3.org/Graphics/SVG/1.1/DTD/svg11.dtd">
<!-- Generated by graphviz version 15.0.0 (20260523.1842)
 -->
<!-- Title: examples&#45;webhook&#45;poller&#45;architecture&#45;01 Pages: 1 -->
<svg width="1168pt" height="295pt"
 viewBox="0.00 0.00 1168.00 295.00" xmlns="http://www.w3.org/2000/svg" xmlns:xlink="http://www.w3.org/1999/xlink">
<g id="graph0" class="graph" transform="scale(1 1) rotate(0) translate(4 290.66)">
<title>examples&#45;webhook&#45;poller&#45;architecture&#45;01</title>
<text xml:space="preserve" text-anchor="middle" x="579.84" y="-269.36" font-family="Times,serif" font-size="14.00">Webhook Poller Architecture</text>
<!-- n0&#45;&gt;r1p1 -->
<g id="edge1" class="edge">
<title>n0&#45;&gt;r1p1</title>
<path fill="none" stroke="#758297" stroke-width="1.8" d="M229.92,-216.08C248.83,-216.08 263.8,-216.08 268.38,-216.08"/>
</g>
<!-- n1&#45;&gt;r2p1 -->
<g id="edge4" class="edge">
<title>n1&#45;&gt;r2p1</title>
<path fill="none" stroke="#758297" stroke-width="1.8" d="M229.92,-46.08C248.83,-46.08 263.8,-46.08 268.38,-46.08"/>
</g>
<!-- n2&#45;&gt;r3p1 -->
<g id="edge7" class="edge">
<title>n2&#45;&gt;r3p1</title>
<path fill="none" stroke="#758297" stroke-width="1.8" d="M539.92,-131.08C558.83,-131.08 573.8,-131.08 578.38,-131.08"/>
</g>
<!-- n3&#45;&gt;r4p1 -->
<g id="edge10" class="edge">
<title>n3&#45;&gt;r4p1</title>
<path fill="none" stroke="#758297" stroke-width="1.8" d="M734.84,-169.6C734.84,-153.17 734.84,-137.53 734.84,-132.65"/>
</g>
<!-- n3&#45;&gt;r5p1 -->
<g id="edge13" class="edge">
<title>n3&#45;&gt;r5p1</title>
<path fill="none" stroke="#758297" stroke-width="1.8" d="M849.92,-216.08C868.83,-216.08 883.8,-216.08 888.38,-216.08"/>
</g>
<!-- n4&#45;&gt;r6p1 -->
<g id="edge16" class="edge">
<title>n4&#45;&gt;r6p1</title>
<path fill="none" stroke="#758297" stroke-width="1.8" d="M849.92,-46.08C868.83,-46.08 883.8,-46.08 888.38,-46.08"/>
</g>
<!-- r1p1&#45;&gt;r1p2 -->
<g id="edge2" class="edge">
<title>r1p1&#45;&gt;r1p2</title>
<path fill="none" stroke="#758297" stroke-width="1.8" d="M269.84,-214.6C269.84,-204.29 269.84,-143.05 269.84,-132.6"/>
</g>
<!-- r1p2&#45;&gt;n2 -->
<g id="edge3" class="edge">
<title>r1p2&#45;&gt;n2</title>
<path fill="none" stroke="#758297" stroke-width="1.8" d="M271.18,-131.08C274.75,-131.08 285.18,-131.08 299.03,-131.08"/>
<polygon fill="#758297" stroke="#758297" stroke-width="1.8" points="298.95,-133.88 306.95,-131.08 298.95,-128.28 298.95,-133.88"/>
</g>
<!-- r2p1&#45;&gt;r2p2 -->
<g id="edge5" class="edge">
<title>r2p1&#45;&gt;r2p2</title>
<path fill="none" stroke="#758297" stroke-width="1.8" d="M269.84,-47.56C269.84,-57.87 269.84,-119.11 269.84,-129.56"/>
</g>
<!-- r2p2&#45;&gt;n2 -->
<g id="edge6" class="edge">
<title>r2p2&#45;&gt;n2</title>
<path fill="none" stroke="#758297" stroke-width="1.8" d="M271.18,-131.08C274.75,-131.08 285.18,-131.08 299.03,-131.08"/>
<polygon fill="#758297" stroke="#758297" stroke-width="1.8" points="298.95,-133.88 306.95,-131.08 298.95,-128.28 298.95,-133.88"/>
</g>
<!-- r3p1&#45;&gt;r3p2 -->
<g id="edge8" class="edge">
<title>r3p1&#45;&gt;r3p2</title>
<path fill="none" stroke="#758297" stroke-width="1.8" d="M579.84,-132.56C579.84,-142.87 579.84,-204.11 579.84,-214.56"/>
</g>
<!-- r3p2&#45;&gt;n3 -->
<g id="edge9" class="edge">
<title>r3p2&#45;&gt;n3</title>
<path fill="none" stroke="#758297" stroke-width="1.8" d="M581.18,-216.08C584.75,-216.08 595.18,-216.08 609.03,-216.08"/>
<polygon fill="#758297" stroke="#758297" stroke-width="1.8" points="608.95,-218.88 616.95,-216.08 608.95,-213.28 608.95,-218.88"/>
</g>
<!-- r4p1&#45;&gt;r4p2 -->
<g id="edge11" class="edge">
<title>r4p1&#45;&gt;r4p2</title>
<path fill="none" stroke="#758297" stroke-width="1.8" d="M734.84,-131.08C734.84,-131.08 734.84,-131.08 734.84,-131.08"/>
</g>
<!-- r4p2&#45;&gt;n4 -->
<g id="edge12" class="edge">
<title>r4p2&#45;&gt;n4</title>
<path fill="none" stroke="#758297" stroke-width="1.8" d="M734.84,-129.6C734.84,-125.85 734.84,-115.35 734.84,-103.01"/>
<polygon fill="#758297" stroke="#758297" stroke-width="1.8" points="737.64,-103.04 734.84,-95.04 732.04,-103.04 737.64,-103.04"/>
</g>
<!-- r5p1&#45;&gt;r5p2 -->
<g id="edge14" class="edge">
<title>r5p1&#45;&gt;r5p2</title>
<path fill="none" stroke="#758297" stroke-width="1.8" d="M889.84,-214.6C889.84,-204.29 889.84,-143.05 889.84,-132.6"/>
</g>
<!-- r5p2&#45;&gt;n5 -->
<g id="edge15" class="edge">
<title>r5p2&#45;&gt;n5</title>
<path fill="none" stroke="#758297" stroke-width="1.8" d="M891.18,-131.08C894.75,-131.08 905.18,-131.08 919.03,-131.08"/>
<polygon fill="#758297" stroke="#758297" stroke-width="1.8" points="918.95,-133.88 926.95,-131.08 918.95,-128.28 918.95,-133.88"/>
</g>
<!-- r6p1&#45;&gt;r6p2 -->
<g id="edge17" class="edge">
<title>r6p1&#45;&gt;r6p2</title>
<path fill="none" stroke="#758297" stroke-width="1.8" d="M889.84,-47.56C889.84,-57.87 889.84,-119.11 889.84,-129.56"/>
</g>
<!-- r6p2&#45;&gt;n5 -->
<g id="edge18" class="edge">
<title>r6p2&#45;&gt;n5</title>
<path fill="none" stroke="#758297" stroke-width="1.8" d="M891.18,-131.08C894.75,-131.08 905.18,-131.08 919.03,-131.08"/>
<polygon fill="#758297" stroke="#758297" stroke-width="1.8" points="918.95,-133.88 926.95,-131.08 918.95,-128.28 918.95,-133.88"/>
</g>
<!-- n0 -->
<g id="node1" class="node">
<title>n0</title>
<path fill="#ffffff" stroke="#5b8def" d="M217.68,-262.16C217.68,-262.16 12,-262.16 12,-262.16 6,-262.16 0,-256.16 0,-250.16 0,-250.16 0,-182 0,-182 0,-176 6,-170 12,-170 12,-170 217.68,-170 217.68,-170 223.68,-170 229.68,-176 229.68,-182 229.68,-182 229.68,-250.16 229.68,-250.16 229.68,-256.16 223.68,-262.16 217.68,-262.16"/>
<text xml:space="preserve" text-anchor="middle" x="114.84" y="-211.73" font-family="Architects Daughter" font-size="18.00">Poller node&#45;A</text>
</g>
<!-- n1 -->
<g id="node2" class="node">
<title>n1</title>
<path fill="#ffffff" stroke="#58a978" d="M217.68,-92.16C217.68,-92.16 12,-92.16 12,-92.16 6,-92.16 0,-86.16 0,-80.16 0,-80.16 0,-12 0,-12 0,-6 6,0 12,0 12,0 217.68,0 217.68,0 223.68,0 229.68,-6 229.68,-12 229.68,-12 229.68,-80.16 229.68,-80.16 229.68,-86.16 223.68,-92.16 217.68,-92.16"/>
<text xml:space="preserve" text-anchor="middle" x="114.84" y="-41.73" font-family="Architects Daughter" font-size="18.00">Poller node&#45;B</text>
</g>
<!-- n2 -->
<g id="node3" class="node">
<title>n2</title>
<path fill="#ffffff" stroke="#d6a441" d="M527.68,-177.16C527.68,-177.16 322,-177.16 322,-177.16 316,-177.16 310,-171.16 310,-165.16 310,-165.16 310,-97 310,-97 310,-91 316,-85 322,-85 322,-85 527.68,-85 527.68,-85 533.68,-85 539.68,-91 539.68,-97 539.68,-97 539.68,-165.16 539.68,-165.16 539.68,-171.16 533.68,-177.16 527.68,-177.16"/>
<text xml:space="preserve" text-anchor="middle" x="424.84" y="-126.73" font-family="Architects Daughter" font-size="18.00">SuspendLeaderElector</text>
</g>
<!-- n3 -->
<g id="node4" class="node">
<title>n3</title>
<path fill="#ffffff" stroke="#dc6b82" d="M837.68,-262.16C837.68,-262.16 632,-262.16 632,-262.16 626,-262.16 620,-256.16 620,-250.16 620,-250.16 620,-182 620,-182 620,-176 626,-170 632,-170 632,-170 837.68,-170 837.68,-170 843.68,-170 849.68,-176 849.68,-182 849.68,-182 849.68,-250.16 849.68,-250.16 849.68,-256.16 843.68,-262.16 837.68,-262.16"/>
<text xml:space="preserve" text-anchor="middle" x="734.84" y="-211.73" font-family="Architects Daughter" font-size="18.00">claimNext</text>
</g>
<!-- n4 -->
<g id="node5" class="node">
<title>n4</title>
<path fill="#ffffff" stroke="#45a7a1" d="M837.68,-92.16C837.68,-92.16 632,-92.16 632,-92.16 626,-92.16 620,-86.16 620,-80.16 620,-80.16 620,-12 620,-12 620,-6 626,0 632,0 632,0 837.68,0 837.68,0 843.68,0 849.68,-6 849.68,-12 849.68,-12 849.68,-80.16 849.68,-80.16 849.68,-86.16 843.68,-92.16 837.68,-92.16"/>
<text xml:space="preserve" text-anchor="middle" x="734.84" y="-41.73" font-family="Architects Daughter" font-size="18.00">handler(event)</text>
</g>
<!-- n5 -->
<g id="node6" class="node">
<title>n5</title>
<path fill="#ffffff" stroke="#8a72d6" d="M1147.68,-177.16C1147.68,-177.16 942,-177.16 942,-177.16 936,-177.16 930,-171.16 930,-165.16 930,-165.16 930,-97 930,-97 930,-91 936,-85 942,-85 942,-85 1147.68,-85 1147.68,-85 1153.68,-85 1159.68,-91 1159.68,-97 1159.68,-97 1159.68,-165.16 1159.68,-165.16 1159.68,-171.16 1153.68,-177.16 1147.68,-177.16"/>
<text xml:space="preserve" text-anchor="middle" x="1044.84" y="-126.73" font-family="Architects Daughter" font-size="18.00">Mongo events</text>
</g>
<!-- r1p1 -->
<!-- r1p2 -->
<!-- r2p1 -->
<!-- r2p2 -->
<!-- r3p1 -->
<!-- r3p2 -->
<!-- r4p1 -->
<!-- r4p2 -->
<!-- r5p1 -->
<!-- r5p2 -->
<!-- r6p1 -->
<!-- r6p2 -->
</g>
</svg>
