<?xml version="1.0" encoding="UTF-8" standalone="no"?>
<!DOCTYPE svg PUBLIC "-//W3C//DTD SVG 1.1//EN"
 "http://www.w3.org/Graphics/SVG/1.1/DTD/svg11.dtd">
<!-- Generated by graphviz version 15.0.0 (20260523.1842)
 -->
<!-- Title: examples&#45;tenant&#45;aggregator&#45;flow&#45;01 Pages: 1 -->
<svg width="1720pt" height="127pt"
 viewBox="0.00 0.00 1720.00 127.00" xmlns="http://www.w3.org/2000/svg" xmlns:xlink="http://www.w3.org/1999/xlink">
<g id="graph0" class="graph" transform="scale(1 1) rotate(0) translate(4 123)">
<title>examples&#45;tenant&#45;aggregator&#45;flow&#45;01</title>
<!-- start -->
<g id="node1" class="node">
<title>start</title>
<path fill="#f8fafc" stroke="#94a3b8" d="M94,-68C94,-68 12,-68 12,-68 6,-68 0,-62 0,-56 0,-56 0,-44 0,-44 0,-38 6,-32 12,-32 12,-32 94,-32 94,-32 100,-32 106,-38 106,-44 106,-44 106,-56 106,-56 106,-62 100,-68 94,-68"/>
<text xml:space="preserve" text-anchor="middle" x="53" y="-44.58" font-family="Comic Mono" font-size="14.00">Tenant Cycle</text>
</g>
<!-- validate -->
<g id="node2" class="node">
<title>validate</title>
<path fill="#f8fafc" stroke="#94a3b8" d="M369.5,-68C369.5,-68 205,-68 205,-68 199,-68 193,-62 193,-56 193,-56 193,-44 193,-44 193,-38 199,-32 205,-32 205,-32 369.5,-32 369.5,-32 375.5,-32 381.5,-38 381.5,-44 381.5,-44 381.5,-56 381.5,-56 381.5,-62 375.5,-68 369.5,-68"/>
<text xml:space="preserve" text-anchor="middle" x="287.25" y="-44.58" font-family="Comic Mono" font-size="14.00">Validate Example Inputs</text>
</g>
<!-- start&#45;&gt;validate -->
<g id="edge1" class="edge">
<title>start&#45;&gt;validate</title>
<path fill="none" stroke="#758297" d="M106.45,-50C106.45,-50 181.13,-50 181.13,-50"/>
<polygon fill="#758297" stroke="#758297" points="181.13,-53.5 191.13,-50 181.13,-46.5 181.13,-53.5"/>
<text xml:space="preserve" text-anchor="middle" x="149.5" y="-52.5" font-family="Comic Mono" font-size="10.00">call</text>
</g>
<!-- attempt -->
<g id="node3" class="node">
<title>attempt</title>
<path fill="#f8fafc" stroke="#94a3b8" d="M661.5,-68C661.5,-68 512,-68 512,-68 506,-68 500,-62 500,-56 500,-56 500,-44 500,-44 500,-38 506,-32 512,-32 512,-32 661.5,-32 661.5,-32 667.5,-32 673.5,-38 673.5,-44 673.5,-44 673.5,-56 673.5,-56 673.5,-62 667.5,-68 661.5,-68"/>
<text xml:space="preserve" text-anchor="middle" x="586.75" y="-44.58" font-family="Comic Mono" font-size="14.00">R2DBC leader electors</text>
</g>
<!-- validate&#45;&gt;attempt -->
<g id="edge2" class="edge">
<title>validate&#45;&gt;attempt</title>
<path fill="none" stroke="#758297" d="M381.6,-50C381.6,-50 488.23,-50 488.23,-50"/>
<polygon fill="#758297" stroke="#758297" points="488.23,-53.5 498.23,-50 488.23,-46.5 488.23,-53.5"/>
<text xml:space="preserve" text-anchor="middle" x="440.75" y="-52.5" font-family="Comic Mono" font-size="10.00">dependency</text>
</g>
<!-- decision -->
<g id="node4" class="node">
<title>decision</title>
<path fill="#f8fafc" stroke="#94a3b8" d="M923.5,-68C923.5,-68 804,-68 804,-68 798,-68 792,-62 792,-56 792,-56 792,-44 792,-44 792,-38 798,-32 804,-32 804,-32 923.5,-32 923.5,-32 929.5,-32 935.5,-38 935.5,-44 935.5,-44 935.5,-56 935.5,-56 935.5,-62 929.5,-68 923.5,-68"/>
<text xml:space="preserve" text-anchor="middle" x="863.75" y="-44.58" font-family="Comic Mono" font-size="14.00">Leadership Result</text>
</g>
<!-- attempt&#45;&gt;decision -->
<g id="edge3" class="edge">
<title>attempt&#45;&gt;decision</title>
<path fill="none" stroke="#758297" d="M673.63,-50C673.63,-50 780.07,-50 780.07,-50"/>
<polygon fill="#758297" stroke="#758297" points="780.07,-53.5 790.07,-50 780.07,-46.5 780.07,-53.5"/>
<text xml:space="preserve" text-anchor="middle" x="732.75" y="-52.5" font-family="Comic Mono" font-size="10.00">contention</text>
</g>
<!-- execute -->
<g id="node6" class="node">
<title>execute</title>
<path fill="#f8fafc" stroke="#94a3b8" d="M1222.25,-119C1222.25,-119 1050.25,-119 1050.25,-119 1044.25,-119 1038.25,-113 1038.25,-107 1038.25,-107 1038.25,-95 1038.25,-95 1038.25,-89 1044.25,-83 1050.25,-83 1050.25,-83 1222.25,-83 1222.25,-83 1228.25,-83 1234.25,-89 1234.25,-95 1234.25,-95 1234.25,-107 1234.25,-107 1234.25,-113 1228.25,-119 1222.25,-119"/>
<text xml:space="preserve" text-anchor="middle" x="1136.25" y="-95.58" font-family="Comic Mono" font-size="14.00">Aggregate Tenant Metrics</text>
</g>
<!-- decision&#45;&gt;execute -->
<g id="edge4" class="edge">
<title>decision&#45;&gt;execute</title>
<path fill="none" stroke="#758297" d="M935.89,-57.33C990.71,-57.33 1056.75,-57.33 1056.75,-57.33 1056.75,-57.33 1056.75,-71.22 1056.75,-71.22"/>
<polygon fill="#758297" stroke="#758297" points="1053.25,-71.22 1056.75,-81.22 1060.25,-71.22 1053.25,-71.22"/>
<text xml:space="preserve" text-anchor="middle" x="986.88" y="-93.5" font-family="Comic Mono" font-size="10.00">success</text>
</g>
<!-- skipped -->
<g id="node8" class="node">
<title>skipped</title>
<path fill="#f8fafc" stroke="#94a3b8" d="M1184.75,-36C1184.75,-36 1087.75,-36 1087.75,-36 1081.75,-36 1075.75,-30 1075.75,-24 1075.75,-24 1075.75,-12 1075.75,-12 1075.75,-6 1081.75,0 1087.75,0 1087.75,0 1184.75,0 1184.75,0 1190.75,0 1196.75,-6 1196.75,-12 1196.75,-12 1196.75,-24 1196.75,-24 1196.75,-30 1190.75,-36 1184.75,-36"/>
<text xml:space="preserve" text-anchor="middle" x="1136.25" y="-12.57" font-family="Comic Mono" font-size="14.00">Return Skipped</text>
</g>
<!-- decision&#45;&gt;skipped -->
<g id="edge7" class="edge">
<title>decision&#45;&gt;skipped</title>
<path fill="none" stroke="#758297" d="M935.93,-46.67C1016.51,-46.67 1135.75,-46.67 1135.75,-46.67 1135.75,-46.67 1135.75,-45.63 1135.75,-45.63"/>
<polygon fill="#758297" stroke="#758297" points="1139.25,-47.83 1135.75,-37.83 1132.25,-47.83 1139.25,-47.83"/>
<text xml:space="preserve" text-anchor="middle" x="986.88" y="-20.5" font-family="Comic Mono" font-size="10.00">skip</text>
</g>
<!-- release -->
<g id="node5" class="node">
<title>release</title>
<path fill="#f8fafc" stroke="#94a3b8" d="M1468.5,-119C1468.5,-119 1349,-119 1349,-119 1343,-119 1337,-113 1337,-107 1337,-107 1337,-95 1337,-95 1337,-89 1343,-83 1349,-83 1349,-83 1468.5,-83 1468.5,-83 1474.5,-83 1480.5,-89 1480.5,-95 1480.5,-95 1480.5,-107 1480.5,-107 1480.5,-113 1474.5,-119 1468.5,-119"/>
<text xml:space="preserve" text-anchor="middle" x="1408.75" y="-95.58" font-family="Comic Mono" font-size="14.00">Release Or Extend</text>
</g>
<!-- executed -->
<g id="node7" class="node">
<title>executed</title>
<path fill="#f8fafc" stroke="#94a3b8" d="M1699.75,-119C1699.75,-119 1595.25,-119 1595.25,-119 1589.25,-119 1583.25,-113 1583.25,-107 1583.25,-107 1583.25,-95 1583.25,-95 1583.25,-89 1589.25,-83 1595.25,-83 1595.25,-83 1699.75,-83 1699.75,-83 1705.75,-83 1711.75,-89 1711.75,-95 1711.75,-95 1711.75,-107 1711.75,-107 1711.75,-113 1705.75,-119 1699.75,-119"/>
<text xml:space="preserve" text-anchor="middle" x="1647.5" y="-95.58" font-family="Comic Mono" font-size="14.00">Return Executed</text>
</g>
<!-- release&#45;&gt;executed -->
<g id="edge6" class="edge">
<title>release&#45;&gt;executed</title>
<path fill="none" stroke="#758297" d="M1480.71,-101C1480.71,-101 1571.48,-101 1571.48,-101"/>
<polygon fill="#758297" stroke="#758297" points="1571.48,-104.5 1581.48,-101 1571.48,-97.5 1571.48,-104.5"/>
<text xml:space="preserve" text-anchor="middle" x="1531.88" y="-103.5" font-family="Comic Mono" font-size="10.00">success</text>
</g>
<!-- execute&#45;&gt;release -->
<g id="edge5" class="edge">
<title>execute&#45;&gt;release</title>
<path fill="none" stroke="#758297" d="M1234.63,-101C1234.63,-101 1325.08,-101 1325.08,-101"/>
<polygon fill="#758297" stroke="#758297" points="1325.08,-104.5 1335.08,-101 1325.08,-97.5 1325.08,-104.5"/>
<text xml:space="preserve" text-anchor="middle" x="1285.62" y="-103.5" font-family="Comic Mono" font-size="10.00">release</text>
</g>
</g>
</svg>
