<?xml version="1.0" encoding="UTF-8" standalone="no"?>
<!DOCTYPE svg PUBLIC "-//W3C//DTD SVG 1.1//EN"
 "http://www.w3.org/Graphics/SVG/1.1/DTD/svg11.dtd">
<!-- Generated by graphviz version 15.0.0 (20260523.1842)
 -->
<!-- Title: examples&#45;k8s&#45;operator&#45;flow&#45;01 Pages: 1 -->
<svg width="1735pt" height="127pt"
 viewBox="0.00 0.00 1735.00 127.00" xmlns="http://www.w3.org/2000/svg" xmlns:xlink="http://www.w3.org/1999/xlink">
<g id="graph0" class="graph" transform="scale(1 1) rotate(0) translate(4 123)">
<title>examples&#45;k8s&#45;operator&#45;flow&#45;01</title>
<!-- start -->
<g id="node1" class="node">
<title>start</title>
<path fill="#f8fafc" stroke="#94a3b8" d="M131.5,-68C131.5,-68 12,-68 12,-68 6,-68 0,-62 0,-56 0,-56 0,-44 0,-44 0,-38 6,-32 12,-32 12,-32 131.5,-32 131.5,-32 137.5,-32 143.5,-38 143.5,-44 143.5,-44 143.5,-56 143.5,-56 143.5,-62 137.5,-68 131.5,-68"/>
<text xml:space="preserve" text-anchor="middle" x="71.75" y="-44.58" font-family="Comic Mono" font-size="14.00">Operator Schedule</text>
</g>
<!-- validate -->
<g id="node2" class="node">
<title>validate</title>
<path fill="#f8fafc" stroke="#94a3b8" d="M407,-68C407,-68 242.5,-68 242.5,-68 236.5,-68 230.5,-62 230.5,-56 230.5,-56 230.5,-44 230.5,-44 230.5,-38 236.5,-32 242.5,-32 242.5,-32 407,-32 407,-32 413,-32 419,-38 419,-44 419,-44 419,-56 419,-56 419,-62 413,-68 407,-68"/>
<text xml:space="preserve" text-anchor="middle" x="324.75" y="-44.58" font-family="Comic Mono" font-size="14.00">Validate Example Inputs</text>
</g>
<!-- start&#45;&gt;validate -->
<g id="edge1" class="edge">
<title>start&#45;&gt;validate</title>
<path fill="none" stroke="#758297" d="M143.91,-50C143.91,-50 218.76,-50 218.76,-50"/>
<polygon fill="#758297" stroke="#758297" points="218.76,-53.5 228.76,-50 218.76,-46.5 218.76,-53.5"/>
<text xml:space="preserve" text-anchor="middle" x="187" y="-52.5" font-family="Comic Mono" font-size="10.00">call</text>
</g>
<!-- attempt -->
<g id="node3" class="node">
<title>attempt</title>
<path fill="#f8fafc" stroke="#94a3b8" d="M721.5,-68C721.5,-68 549.5,-68 549.5,-68 543.5,-68 537.5,-62 537.5,-56 537.5,-56 537.5,-44 537.5,-44 537.5,-38 543.5,-32 549.5,-32 549.5,-32 721.5,-32 721.5,-32 727.5,-32 733.5,-38 733.5,-44 733.5,-44 733.5,-56 733.5,-56 733.5,-62 727.5,-68 721.5,-68"/>
<text xml:space="preserve" text-anchor="middle" x="635.5" y="-44.58" font-family="Comic Mono" font-size="14.00">Kubernetes Lease Elector</text>
</g>
<!-- validate&#45;&gt;attempt -->
<g id="edge2" class="edge">
<title>validate&#45;&gt;attempt</title>
<path fill="none" stroke="#758297" d="M419.25,-50C419.25,-50 525.63,-50 525.63,-50"/>
<polygon fill="#758297" stroke="#758297" points="525.63,-53.5 535.63,-50 525.63,-46.5 525.63,-53.5"/>
<text xml:space="preserve" text-anchor="middle" x="478.25" y="-52.5" font-family="Comic Mono" font-size="10.00">dependency</text>
</g>
<!-- decision -->
<g id="node4" class="node">
<title>decision</title>
<path fill="#f8fafc" stroke="#94a3b8" d="M983.5,-68C983.5,-68 864,-68 864,-68 858,-68 852,-62 852,-56 852,-56 852,-44 852,-44 852,-38 858,-32 864,-32 864,-32 983.5,-32 983.5,-32 989.5,-32 995.5,-38 995.5,-44 995.5,-44 995.5,-56 995.5,-56 995.5,-62 989.5,-68 983.5,-68"/>
<text xml:space="preserve" text-anchor="middle" x="923.75" y="-44.58" font-family="Comic Mono" font-size="14.00">Leadership Result</text>
</g>
<!-- attempt&#45;&gt;decision -->
<g id="edge3" class="edge">
<title>attempt&#45;&gt;decision</title>
<path fill="none" stroke="#758297" d="M733.89,-50C733.89,-50 840.21,-50 840.21,-50"/>
<polygon fill="#758297" stroke="#758297" points="840.21,-53.5 850.21,-50 840.21,-46.5 840.21,-53.5"/>
<text xml:space="preserve" text-anchor="middle" x="792.75" y="-52.5" font-family="Comic Mono" font-size="10.00">contention</text>
</g>
<!-- execute -->
<g id="node6" class="node">
<title>execute</title>
<path fill="#f8fafc" stroke="#94a3b8" d="M1237.25,-119C1237.25,-119 1110.25,-119 1110.25,-119 1104.25,-119 1098.25,-113 1098.25,-107 1098.25,-107 1098.25,-95 1098.25,-95 1098.25,-89 1104.25,-83 1110.25,-83 1110.25,-83 1237.25,-83 1237.25,-83 1243.25,-83 1249.25,-89 1249.25,-95 1249.25,-95 1249.25,-107 1249.25,-107 1249.25,-113 1243.25,-119 1237.25,-119"/>
<text xml:space="preserve" text-anchor="middle" x="1173.75" y="-95.58" font-family="Comic Mono" font-size="14.00">Reconcile Workload</text>
</g>
<!-- decision&#45;&gt;execute -->
<g id="edge4" class="edge">
<title>decision&#45;&gt;execute</title>
<path fill="none" stroke="#758297" d="M995.94,-57.33C1046.76,-57.33 1105.75,-57.33 1105.75,-57.33 1105.75,-57.33 1105.75,-71.22 1105.75,-71.22"/>
<polygon fill="#758297" stroke="#758297" points="1102.25,-71.22 1105.75,-81.22 1109.25,-71.22 1102.25,-71.22"/>
<text xml:space="preserve" text-anchor="middle" x="1046.88" y="-93.5" font-family="Comic Mono" font-size="10.00">success</text>
</g>
<!-- skipped -->
<g id="node8" class="node">
<title>skipped</title>
<path fill="#f8fafc" stroke="#94a3b8" d="M1222.25,-36C1222.25,-36 1125.25,-36 1125.25,-36 1119.25,-36 1113.25,-30 1113.25,-24 1113.25,-24 1113.25,-12 1113.25,-12 1113.25,-6 1119.25,0 1125.25,0 1125.25,0 1222.25,0 1222.25,0 1228.25,0 1234.25,-6 1234.25,-12 1234.25,-12 1234.25,-24 1234.25,-24 1234.25,-30 1228.25,-36 1222.25,-36"/>
<text xml:space="preserve" text-anchor="middle" x="1173.75" y="-12.57" font-family="Comic Mono" font-size="14.00">Return Skipped</text>
</g>
<!-- decision&#45;&gt;skipped -->
<g id="edge7" class="edge">
<title>decision&#45;&gt;skipped</title>
<path fill="none" stroke="#758297" d="M995.72,-46.67C1069.58,-46.67 1173.75,-46.67 1173.75,-46.67 1173.75,-46.67 1173.75,-45.63 1173.75,-45.63"/>
<polygon fill="#758297" stroke="#758297" points="1177.25,-47.83 1173.75,-37.83 1170.25,-47.83 1177.25,-47.83"/>
<text xml:space="preserve" text-anchor="middle" x="1046.88" y="-20.5" font-family="Comic Mono" font-size="10.00">skip</text>
</g>
<!-- release -->
<g id="node5" class="node">
<title>release</title>
<path fill="#f8fafc" stroke="#94a3b8" d="M1483.5,-119C1483.5,-119 1364,-119 1364,-119 1358,-119 1352,-113 1352,-107 1352,-107 1352,-95 1352,-95 1352,-89 1358,-83 1364,-83 1364,-83 1483.5,-83 1483.5,-83 1489.5,-83 1495.5,-89 1495.5,-95 1495.5,-95 1495.5,-107 1495.5,-107 1495.5,-113 1489.5,-119 1483.5,-119"/>
<text xml:space="preserve" text-anchor="middle" x="1423.75" y="-95.58" font-family="Comic Mono" font-size="14.00">Release Or Extend</text>
</g>
<!-- executed -->
<g id="node7" class="node">
<title>executed</title>
<path fill="#f8fafc" stroke="#94a3b8" d="M1714.75,-119C1714.75,-119 1610.25,-119 1610.25,-119 1604.25,-119 1598.25,-113 1598.25,-107 1598.25,-107 1598.25,-95 1598.25,-95 1598.25,-89 1604.25,-83 1610.25,-83 1610.25,-83 1714.75,-83 1714.75,-83 1720.75,-83 1726.75,-89 1726.75,-95 1726.75,-95 1726.75,-107 1726.75,-107 1726.75,-113 1720.75,-119 1714.75,-119"/>
<text xml:space="preserve" text-anchor="middle" x="1662.5" y="-95.58" font-family="Comic Mono" font-size="14.00">Return Executed</text>
</g>
<!-- release&#45;&gt;executed -->
<g id="edge6" class="edge">
<title>release&#45;&gt;executed</title>
<path fill="none" stroke="#758297" d="M1495.71,-101C1495.71,-101 1586.48,-101 1586.48,-101"/>
<polygon fill="#758297" stroke="#758297" points="1586.48,-104.5 1596.48,-101 1586.48,-97.5 1586.48,-104.5"/>
<text xml:space="preserve" text-anchor="middle" x="1546.88" y="-103.5" font-family="Comic Mono" font-size="10.00">success</text>
</g>
<!-- execute&#45;&gt;release -->
<g id="edge5" class="edge">
<title>execute&#45;&gt;release</title>
<path fill="none" stroke="#758297" d="M1249.44,-101C1249.44,-101 1340.23,-101 1340.23,-101"/>
<polygon fill="#758297" stroke="#758297" points="1340.23,-104.5 1350.23,-101 1340.23,-97.5 1340.23,-104.5"/>
<text xml:space="preserve" text-anchor="middle" x="1300.62" y="-103.5" font-family="Comic Mono" font-size="10.00">release</text>
</g>
</g>
</svg>
