<?xml version="1.0" encoding="UTF-8" standalone="no"?>
<!DOCTYPE svg PUBLIC "-//W3C//DTD SVG 1.1//EN"
 "http://www.w3.org/Graphics/SVG/1.1/DTD/svg11.dtd">
<!-- Generated by graphviz version 15.0.0 (20260523.1842)
 -->
<!-- Title: examples&#45;etcd&#45;reconciler&#45;sequence&#45;01 Pages: 1 -->
<svg width="1292pt" height="503pt"
 viewBox="0.00 0.00 1292.00 503.00" xmlns="http://www.w3.org/2000/svg" xmlns:xlink="http://www.w3.org/1999/xlink">
<g id="graph0" class="graph" transform="scale(1 1) rotate(0) translate(4 499)">
<title>examples&#45;etcd&#45;reconciler&#45;sequence&#45;01</title>
<!-- trigger -->
<g id="node1" class="node">
<title>trigger</title>
<path fill="#f8fafc" stroke="#94a3b8" d="M109,-58C109,-58 12,-58 12,-58 6,-58 0,-52 0,-46 0,-46 0,-34 0,-34 0,-28 6,-22 12,-22 12,-22 109,-22 109,-22 115,-22 121,-28 121,-34 121,-34 121,-46 121,-46 121,-52 115,-58 109,-58"/>
<text xml:space="preserve" text-anchor="middle" x="60.5" y="-34.58" font-family="Comic Mono" font-size="14.00">Reconcile Tick</text>
</g>
<!-- coord -->
<g id="node2" class="node">
<title>coord</title>
<path fill="#f8fafc" stroke="#94a3b8" d="M423.5,-150C423.5,-150 304,-150 304,-150 298,-150 292,-144 292,-138 292,-138 292,-126 292,-126 292,-120 298,-114 304,-114 304,-114 423.5,-114 423.5,-114 429.5,-114 435.5,-120 435.5,-126 435.5,-126 435.5,-138 435.5,-138 435.5,-144 429.5,-150 423.5,-150"/>
<text xml:space="preserve" text-anchor="middle" x="363.75" y="-126.58" font-family="Comic Mono" font-size="14.00">ClusterReconciler</text>
</g>
<!-- trigger&#45;&gt;coord -->
<g id="edge1" class="edge">
<title>trigger&#45;&gt;coord</title>
<path fill="none" stroke="#4f83bf" d="M60.25,-58.18C60.25,-84.99 60.25,-132 60.25,-132 60.25,-132 283.31,-132 283.31,-132"/>
<polygon fill="#4f83bf" stroke="#4f83bf" points="283.31,-134.45 290.31,-132 283.31,-129.55 283.31,-134.45"/>
<text xml:space="preserve" text-anchor="middle" x="206.5" y="-89.5" font-family="Comic Mono" font-size="10.00">start reconcile tick</text>
</g>
<!-- elector -->
<g id="node3" class="node">
<title>elector</title>
<path fill="#f8fafc" stroke="#94a3b8" d="M832.5,-266C832.5,-266 713,-266 713,-266 707,-266 701,-260 701,-254 701,-254 701,-242 701,-242 701,-236 707,-230 713,-230 713,-230 832.5,-230 832.5,-230 838.5,-230 844.5,-236 844.5,-242 844.5,-242 844.5,-254 844.5,-254 844.5,-260 838.5,-266 832.5,-266"/>
<text xml:space="preserve" text-anchor="middle" x="772.75" y="-242.57" font-family="Comic Mono" font-size="14.00">EtcdLeaderElector</text>
</g>
<!-- coord&#45;&gt;elector -->
<g id="edge2" class="edge">
<title>coord&#45;&gt;elector</title>
<path fill="none" stroke="#4f83bf" d="M435.81,-132C547.39,-132 749.25,-132 749.25,-132 749.25,-132 749.25,-221.11 749.25,-221.11"/>
<polygon fill="#4f83bf" stroke="#4f83bf" points="746.8,-221.11 749.25,-228.11 751.7,-221.11 746.8,-221.11"/>
<text xml:space="preserve" text-anchor="middle" x="568.25" y="-211.5" font-family="Comic Mono" font-size="10.00">runIfLeader with source options</text>
</g>
<!-- backend -->
<g id="node4" class="node">
<title>backend</title>
<path fill="#f8fafc" stroke="#94a3b8" d="M1253.5,-400C1253.5,-400 1156.5,-400 1156.5,-400 1150.5,-400 1144.5,-394 1144.5,-388 1144.5,-388 1144.5,-376 1144.5,-376 1144.5,-370 1150.5,-364 1156.5,-364 1156.5,-364 1253.5,-364 1253.5,-364 1259.5,-364 1265.5,-370 1265.5,-376 1265.5,-376 1265.5,-388 1265.5,-388 1265.5,-394 1259.5,-400 1253.5,-400"/>
<text xml:space="preserve" text-anchor="middle" x="1205" y="-376.57" font-family="Comic Mono" font-size="14.00">etcd lease key</text>
</g>
<!-- elector&#45;&gt;backend -->
<g id="edge3" class="edge">
<title>elector&#45;&gt;backend</title>
<path fill="none" stroke="#b9851b" d="M844.83,-260.86C958.91,-260.86 1168.25,-260.86 1168.25,-260.86 1168.25,-260.86 1168.25,-355.09 1168.25,-355.09"/>
<polygon fill="#b9851b" stroke="#b9851b" points="1165.8,-355.09 1168.25,-362.09 1170.7,-355.09 1165.8,-355.09"/>
<text xml:space="preserve" text-anchor="middle" x="985.12" y="-485.5" font-family="Comic Mono" font-size="10.00">attempt backend ownership</text>
</g>
<!-- elector&#45;&gt;backend -->
<g id="edge7" class="edge">
<title>elector&#45;&gt;backend</title>
<path fill="none" stroke="#755bc6" d="M844.56,-255.71C964.66,-255.71 1193.25,-255.71 1193.25,-255.71 1193.25,-255.71 1193.25,-355.12 1193.25,-355.12"/>
<polygon fill="#755bc6" stroke="#755bc6" points="1190.8,-355.12 1193.25,-362.12 1195.7,-355.12 1190.8,-355.12"/>
<text xml:space="preserve" text-anchor="middle" x="985.12" y="-418.5" font-family="Comic Mono" font-size="10.00">release or renew for lease revoke handoff</text>
</g>
<!-- work -->
<g id="node5" class="node">
<title>work</title>
<path fill="#f8fafc" stroke="#94a3b8" d="M1272.25,-200C1272.25,-200 1137.75,-200 1137.75,-200 1131.75,-200 1125.75,-194 1125.75,-188 1125.75,-188 1125.75,-176 1125.75,-176 1125.75,-170 1131.75,-164 1137.75,-164 1137.75,-164 1272.25,-164 1272.25,-164 1278.25,-164 1284.25,-170 1284.25,-176 1284.25,-176 1284.25,-188 1284.25,-188 1284.25,-194 1278.25,-200 1272.25,-200"/>
<text xml:space="preserve" text-anchor="middle" x="1205" y="-176.57" font-family="Comic Mono" font-size="14.00">Apply Desired State</text>
</g>
<!-- elector&#45;&gt;work -->
<g id="edge5" class="edge">
<title>elector&#45;&gt;work</title>
<path fill="none" stroke="#3e9868" d="M844.64,-235.14C949.55,-235.14 1132.25,-235.14 1132.25,-235.14 1132.25,-235.14 1132.25,-208.8 1132.25,-208.8"/>
<polygon fill="#3e9868" stroke="#3e9868" points="1134.7,-208.8 1132.25,-201.8 1129.8,-208.8 1134.7,-208.8"/>
<text xml:space="preserve" text-anchor="middle" x="985.12" y="-217.5" font-family="Comic Mono" font-size="10.00">execute apply desired state</text>
</g>
<!-- peer -->
<g id="node6" class="node">
<title>peer</title>
<path fill="#f8fafc" stroke="#94a3b8" d="M1246,-59C1246,-59 1164,-59 1164,-59 1158,-59 1152,-53 1152,-47 1152,-47 1152,-35 1152,-35 1152,-29 1158,-23 1164,-23 1164,-23 1246,-23 1246,-23 1252,-23 1258,-29 1258,-35 1258,-35 1258,-47 1258,-47 1258,-53 1252,-59 1246,-59"/>
<text xml:space="preserve" text-anchor="middle" x="1205" y="-35.58" font-family="Comic Mono" font-size="14.00">Skipped Peer</text>
</g>
<!-- elector&#45;&gt;peer -->
<g id="edge9" class="edge">
<title>elector&#45;&gt;peer</title>
<path fill="none" stroke="#c94d68" d="M796.25,-229.75C796.25,-180.11 796.25,-46.33 796.25,-46.33 796.25,-46.33 1143.05,-46.33 1143.05,-46.33"/>
<polygon fill="#c94d68" stroke="#c94d68" points="1143.05,-48.78 1150.05,-46.33 1143.05,-43.88 1143.05,-48.78"/>
<text xml:space="preserve" text-anchor="middle" x="985.12" y="-83.5" font-family="Comic Mono" font-size="10.00">return skipped result</text>
</g>
<!-- backend&#45;&gt;elector -->
<g id="edge4" class="edge">
<title>backend&#45;&gt;elector</title>
<path fill="none" stroke="#3e9868" d="M1217.25,-363.73C1217.25,-327.61 1217.25,-250.57 1217.25,-250.57 1217.25,-250.57 853.17,-250.57 853.17,-250.57"/>
<polygon fill="#3e9868" stroke="#3e9868" points="853.17,-248.12 846.17,-250.57 853.17,-253.02 853.17,-248.12"/>
<text xml:space="preserve" text-anchor="middle" x="985.12" y="-351.5" font-family="Comic Mono" font-size="10.00">owner token accepted</text>
</g>
<!-- backend&#45;&gt;elector -->
<g id="edge8" class="edge">
<title>backend&#45;&gt;elector</title>
<path fill="none" stroke="#c94d68" d="M1241.25,-363.58C1241.25,-326.3 1241.25,-245.43 1241.25,-245.43 1241.25,-245.43 853.44,-245.43 853.44,-245.43"/>
<polygon fill="#c94d68" stroke="#c94d68" points="853.44,-242.98 846.44,-245.43 853.44,-247.88 853.44,-242.98"/>
<text xml:space="preserve" text-anchor="middle" x="985.12" y="-284.5" font-family="Comic Mono" font-size="10.00">lock already owned</text>
</g>
<!-- work&#45;&gt;elector -->
<g id="edge6" class="edge">
<title>work&#45;&gt;elector</title>
<path fill="none" stroke="#3e9868" d="M1138.25,-200.44C1138.25,-217.52 1138.25,-240.29 1138.25,-240.29 1138.25,-240.29 853.47,-240.29 853.47,-240.29"/>
<polygon fill="#3e9868" stroke="#3e9868" points="853.47,-237.84 846.47,-240.29 853.47,-242.74 853.47,-237.84"/>
<text xml:space="preserve" text-anchor="middle" x="985.12" y="-150.5" font-family="Comic Mono" font-size="10.00">return leader result</text>
</g>
<!-- peer&#45;&gt;trigger -->
<g id="edge10" class="edge">
<title>peer&#45;&gt;trigger</title>
<path fill="none" stroke="#c94d68" d="M1151.71,-34.67C1151.71,-34.67 129.78,-34.67 129.78,-34.67"/>
<polygon fill="#c94d68" stroke="#c94d68" points="129.78,-32.22 122.78,-34.67 129.78,-37.12 129.78,-32.22"/>
<text xml:space="preserve" text-anchor="middle" x="568.25" y="-2.5" font-family="Comic Mono" font-size="10.00">cycle completes without duplicate work</text>
</g>
</g>
</svg>
