<?xml version="1.0" encoding="UTF-8" standalone="no"?>
<!DOCTYPE svg PUBLIC "-//W3C//DTD SVG 1.1//EN"
 "http://www.w3.org/Graphics/SVG/1.1/DTD/svg11.dtd">
<!-- Generated by graphviz version 15.0.0 (20260523.1842)
 -->
<!-- Title: examples&#45;etcd&#45;reconciler&#45;architecture&#45;01 Pages: 1 -->
<svg width="1368pt" height="136pt"
 viewBox="0.00 0.00 1368.00 136.00" xmlns="http://www.w3.org/2000/svg" xmlns:xlink="http://www.w3.org/1999/xlink">
<g id="graph0" class="graph" transform="scale(1 1) rotate(0) translate(4 132)">
<title>examples&#45;etcd&#45;reconciler&#45;architecture&#45;01</title>
<!-- trigger -->
<g id="node1" class="node">
<title>trigger</title>
<path fill="#f8fafc" stroke="#94a3b8" d="M109,-77C109,-77 12,-77 12,-77 6,-77 0,-71 0,-65 0,-65 0,-53 0,-53 0,-47 6,-41 12,-41 12,-41 109,-41 109,-41 115,-41 121,-47 121,-53 121,-53 121,-65 121,-65 121,-71 115,-77 109,-77"/>
<text xml:space="preserve" text-anchor="middle" x="60.5" y="-53.58" font-family="Comic Mono" font-size="14.00">Reconcile Tick</text>
</g>
<!-- nodeA -->
<g id="node2" class="node">
<title>nodeA</title>
<path fill="#f8fafc" stroke="#94a3b8" d="M332,-119C332,-119 220,-119 220,-119 214,-119 208,-113 208,-107 208,-107 208,-95 208,-95 208,-89 214,-83 220,-83 220,-83 332,-83 332,-83 338,-83 344,-89 344,-95 344,-95 344,-107 344,-107 344,-113 338,-119 332,-119"/>
<text xml:space="preserve" text-anchor="middle" x="276" y="-95.58" font-family="Comic Mono" font-size="14.00">Candidate Node A</text>
</g>
<!-- trigger&#45;&gt;nodeA -->
<g id="edge1" class="edge">
<title>trigger&#45;&gt;nodeA</title>
<path fill="none" stroke="#758297" d="M60.75,-77.06C60.75,-88.44 60.75,-101 60.75,-101 60.75,-101 196.08,-101 196.08,-101"/>
<polygon fill="#758297" stroke="#758297" points="196.08,-104.5 206.08,-101 196.08,-97.5 196.08,-104.5"/>
<text xml:space="preserve" text-anchor="middle" x="164.5" y="-98.5" font-family="Comic Mono" font-size="10.00">call</text>
</g>
<!-- nodeB -->
<g id="node3" class="node">
<title>nodeB</title>
<path fill="#f8fafc" stroke="#94a3b8" d="M332,-36C332,-36 220,-36 220,-36 214,-36 208,-30 208,-24 208,-24 208,-12 208,-12 208,-6 214,0 220,0 220,0 332,0 332,0 338,0 344,-6 344,-12 344,-12 344,-24 344,-24 344,-30 338,-36 332,-36"/>
<text xml:space="preserve" text-anchor="middle" x="276" y="-12.57" font-family="Comic Mono" font-size="14.00">Candidate Node B</text>
</g>
<!-- trigger&#45;&gt;nodeB -->
<g id="edge2" class="edge">
<title>trigger&#45;&gt;nodeB</title>
<path fill="none" stroke="#758297" d="M60.75,-40.9C60.75,-29.91 60.75,-18 60.75,-18 60.75,-18 196.08,-18 196.08,-18"/>
<polygon fill="#758297" stroke="#758297" points="196.08,-21.5 206.08,-18 196.08,-14.5 196.08,-21.5"/>
<text xml:space="preserve" text-anchor="middle" x="164.5" y="-29.5" font-family="Comic Mono" font-size="10.00">call</text>
</g>
<!-- coordinator -->
<g id="node4" class="node">
<title>coordinator</title>
<path fill="#f8fafc" stroke="#94a3b8" d="M562.5,-77C562.5,-77 443,-77 443,-77 437,-77 431,-71 431,-65 431,-65 431,-53 431,-53 431,-47 437,-41 443,-41 443,-41 562.5,-41 562.5,-41 568.5,-41 574.5,-47 574.5,-53 574.5,-53 574.5,-65 574.5,-65 574.5,-71 568.5,-77 562.5,-77"/>
<text xml:space="preserve" text-anchor="middle" x="502.75" y="-53.58" font-family="Comic Mono" font-size="14.00">ClusterReconciler</text>
</g>
<!-- nodeA&#45;&gt;coordinator -->
<g id="edge3" class="edge">
<title>nodeA&#45;&gt;coordinator</title>
<path fill="none" stroke="#758297" d="M344.36,-87.5C403.22,-87.5 478.75,-87.5 478.75,-87.5 478.75,-87.5 478.75,-86.47 478.75,-86.47"/>
<polygon fill="#758297" stroke="#758297" points="482.25,-88.72 478.75,-78.72 475.25,-88.72 482.25,-88.72"/>
<text xml:space="preserve" text-anchor="middle" x="387.5" y="-98.5" font-family="Comic Mono" font-size="10.00">call</text>
</g>
<!-- nodeB&#45;&gt;coordinator -->
<g id="edge4" class="edge">
<title>nodeB&#45;&gt;coordinator</title>
<path fill="none" stroke="#758297" d="M344.34,-22.5C411.1,-22.5 502.75,-22.5 502.75,-22.5 502.75,-22.5 502.75,-29.24 502.75,-29.24"/>
<polygon fill="#758297" stroke="#758297" points="499.25,-29.24 502.75,-39.24 506.25,-29.24 499.25,-29.24"/>
<text xml:space="preserve" text-anchor="middle" x="387.5" y="-29.5" font-family="Comic Mono" font-size="10.00">call</text>
</g>
<!-- elector -->
<g id="node6" class="node">
<title>elector</title>
<path fill="#f8fafc" stroke="#94a3b8" d="M832,-128C832,-128 712.5,-128 712.5,-128 706.5,-128 700.5,-122 700.5,-116 700.5,-116 700.5,-104 700.5,-104 700.5,-98 706.5,-92 712.5,-92 712.5,-92 832,-92 832,-92 838,-92 844,-98 844,-104 844,-104 844,-116 844,-116 844,-122 838,-128 832,-128"/>
<text xml:space="preserve" text-anchor="middle" x="772.25" y="-104.58" font-family="Comic Mono" font-size="14.00">EtcdLeaderElector</text>
</g>
<!-- coordinator&#45;&gt;elector -->
<g id="edge5" class="edge">
<title>coordinator&#45;&gt;elector</title>
<path fill="none" stroke="#758297" d="M526.75,-77.38C526.75,-90.38 526.75,-105.5 526.75,-105.5 526.75,-105.5 688.74,-105.5 688.74,-105.5"/>
<polygon fill="#758297" stroke="#758297" points="688.74,-109 698.74,-105.5 688.74,-102 688.74,-109"/>
<text xml:space="preserve" text-anchor="middle" x="633.75" y="-102.5" font-family="Comic Mono" font-size="10.00">dependency</text>
</g>
<!-- work -->
<g id="node8" class="node">
<title>work</title>
<path fill="#f8fafc" stroke="#94a3b8" d="M839.5,-45C839.5,-45 705,-45 705,-45 699,-45 693,-39 693,-33 693,-33 693,-21 693,-21 693,-15 699,-9 705,-9 705,-9 839.5,-9 839.5,-9 845.5,-9 851.5,-15 851.5,-21 851.5,-21 851.5,-33 851.5,-33 851.5,-39 845.5,-45 839.5,-45"/>
<text xml:space="preserve" text-anchor="middle" x="772.25" y="-21.57" font-family="Comic Mono" font-size="14.00">Apply Desired State</text>
</g>
<!-- coordinator&#45;&gt;work -->
<g id="edge7" class="edge">
<title>coordinator&#45;&gt;work</title>
<path fill="none" stroke="#758297" d="M574.99,-61C630.15,-61 696.75,-61 696.75,-61 696.75,-61 696.75,-56.71 696.75,-56.71"/>
<polygon fill="#758297" stroke="#758297" points="700.25,-56.71 696.75,-46.71 693.25,-56.71 700.25,-56.71"/>
<text xml:space="preserve" text-anchor="middle" x="633.75" y="-29.5" font-family="Comic Mono" font-size="10.00">success</text>
</g>
<!-- backend -->
<g id="node5" class="node">
<title>backend</title>
<path fill="#f8fafc" stroke="#94a3b8" d="M1079,-128C1079,-128 982,-128 982,-128 976,-128 970,-122 970,-116 970,-116 970,-104 970,-104 970,-98 976,-92 982,-92 982,-92 1079,-92 1079,-92 1085,-92 1091,-98 1091,-104 1091,-104 1091,-116 1091,-116 1091,-122 1085,-128 1079,-128"/>
<text xml:space="preserve" text-anchor="middle" x="1030.5" y="-104.58" font-family="Comic Mono" font-size="14.00">etcd lease key</text>
</g>
<!-- recovery -->
<g id="node7" class="node">
<title>recovery</title>
<path fill="#f8fafc" stroke="#94a3b8" d="M1347.75,-128C1347.75,-128 1205.75,-128 1205.75,-128 1199.75,-128 1193.75,-122 1193.75,-116 1193.75,-116 1193.75,-104 1193.75,-104 1193.75,-98 1199.75,-92 1205.75,-92 1205.75,-92 1347.75,-92 1347.75,-92 1353.75,-92 1359.75,-98 1359.75,-104 1359.75,-104 1359.75,-116 1359.75,-116 1359.75,-122 1353.75,-128 1347.75,-128"/>
<text xml:space="preserve" text-anchor="middle" x="1276.75" y="-104.58" font-family="Comic Mono" font-size="14.00">Lease Revoke Handoff</text>
</g>
<!-- backend&#45;&gt;recovery -->
<g id="edge8" class="edge">
<title>backend&#45;&gt;recovery</title>
<path fill="none" stroke="#758297" d="M1091.37,-110C1091.37,-110 1181.85,-110 1181.85,-110"/>
<polygon fill="#758297" stroke="#758297" points="1181.85,-113.5 1191.85,-110 1181.85,-106.5 1181.85,-113.5"/>
<text xml:space="preserve" text-anchor="middle" x="1142.38" y="-112.5" font-family="Comic Mono" font-size="10.00">release</text>
</g>
<!-- elector&#45;&gt;backend -->
<g id="edge6" class="edge">
<title>elector&#45;&gt;backend</title>
<path fill="none" stroke="#758297" d="M844.19,-110C844.19,-110 958.35,-110 958.35,-110"/>
<polygon fill="#758297" stroke="#758297" points="958.35,-113.5 968.35,-110 958.35,-106.5 958.35,-113.5"/>
<text xml:space="preserve" text-anchor="middle" x="910.75" y="-112.5" font-family="Comic Mono" font-size="10.00">contention</text>
</g>
</g>
</svg>
