<?xml version="1.0" encoding="UTF-8" standalone="no"?>
<!DOCTYPE svg PUBLIC "-//W3C//DTD SVG 1.1//EN"
 "http://www.w3.org/Graphics/SVG/1.1/DTD/svg11.dtd">
<!-- Generated by graphviz version 15.0.0 (20260523.1842)
 -->
<!-- Title: examples&#45;consul&#45;maintenance&#45;sequence&#45;01 Pages: 1 -->
<svg width="1433pt" height="503pt"
 viewBox="0.00 0.00 1433.00 503.00" xmlns="http://www.w3.org/2000/svg" xmlns:xlink="http://www.w3.org/1999/xlink">
<g id="graph0" class="graph" transform="scale(1 1) rotate(0) translate(4 499)">
<title>examples&#45;consul&#45;maintenance&#45;sequence&#45;01</title>
<!-- trigger -->
<g id="node1" class="node">
<title>trigger</title>
<path fill="#f8fafc" stroke="#94a3b8" d="M124,-58C124,-58 12,-58 12,-58 6,-58 0,-52 0,-46 0,-46 0,-34 0,-34 0,-28 6,-22 12,-22 12,-22 124,-22 124,-22 130,-22 136,-28 136,-34 136,-34 136,-46 136,-46 136,-52 130,-58 124,-58"/>
<text xml:space="preserve" text-anchor="middle" x="68" y="-34.58" font-family="Comic Mono" font-size="14.00">Maintenance Tick</text>
</g>
<!-- coord -->
<g id="node2" class="node">
<title>coord</title>
<path fill="#f8fafc" stroke="#94a3b8" d="M539,-150C539,-150 329.5,-150 329.5,-150 323.5,-150 317.5,-144 317.5,-138 317.5,-138 317.5,-126 317.5,-126 317.5,-120 323.5,-114 329.5,-114 329.5,-114 539,-114 539,-114 545,-114 551,-120 551,-126 551,-126 551,-138 551,-138 551,-144 545,-150 539,-150"/>
<text xml:space="preserve" text-anchor="middle" x="434.25" y="-126.58" font-family="Comic Mono" font-size="14.00">ServiceMaintenanceCoordinator</text>
</g>
<!-- trigger&#45;&gt;coord -->
<g id="edge1" class="edge">
<title>trigger&#45;&gt;coord</title>
<path fill="none" stroke="#4f83bf" d="M67.5,-58.18C67.5,-84.99 67.5,-132 67.5,-132 67.5,-132 308.69,-132 308.69,-132"/>
<polygon fill="#4f83bf" stroke="#4f83bf" points="308.69,-134.45 315.69,-132 308.69,-129.55 308.69,-134.45"/>
<text xml:space="preserve" text-anchor="middle" x="226.75" y="-89.5" font-family="Comic Mono" font-size="10.00">start maintenance tick</text>
</g>
<!-- elector -->
<g id="node3" class="node">
<title>elector</title>
<path fill="#f8fafc" stroke="#94a3b8" d="M963,-266C963,-266 828.5,-266 828.5,-266 822.5,-266 816.5,-260 816.5,-254 816.5,-254 816.5,-242 816.5,-242 816.5,-236 822.5,-230 828.5,-230 828.5,-230 963,-230 963,-230 969,-230 975,-236 975,-242 975,-242 975,-254 975,-254 975,-260 969,-266 963,-266"/>
<text xml:space="preserve" text-anchor="middle" x="895.75" y="-242.57" font-family="Comic Mono" font-size="14.00">ConsulLeaderElector</text>
</g>
<!-- coord&#45;&gt;elector -->
<g id="edge2" class="edge">
<title>coord&#45;&gt;elector</title>
<path fill="none" stroke="#4f83bf" d="M551.46,-132C680.38,-132 869.5,-132 869.5,-132 869.5,-132 869.5,-221.11 869.5,-221.11"/>
<polygon fill="#4f83bf" stroke="#4f83bf" points="867.05,-221.11 869.5,-228.11 871.95,-221.11 867.05,-221.11"/>
<text xml:space="preserve" text-anchor="middle" x="683.75" y="-211.5" font-family="Comic Mono" font-size="10.00">runIfLeader with source options</text>
</g>
<!-- backend -->
<g id="node4" class="node">
<title>backend</title>
<path fill="#f8fafc" stroke="#94a3b8" d="M1412.5,-400C1412.5,-400 1263,-400 1263,-400 1257,-400 1251,-394 1251,-388 1251,-388 1251,-376 1251,-376 1251,-370 1257,-364 1263,-364 1263,-364 1412.5,-364 1412.5,-364 1418.5,-364 1424.5,-370 1424.5,-376 1424.5,-376 1424.5,-388 1424.5,-388 1424.5,-394 1418.5,-400 1412.5,-400"/>
<text xml:space="preserve" text-anchor="middle" x="1337.75" y="-376.57" font-family="Comic Mono" font-size="14.00">Consul Session and KV</text>
</g>
<!-- elector&#45;&gt;backend -->
<g id="edge3" class="edge">
<title>elector&#45;&gt;backend</title>
<path fill="none" stroke="#b9851b" d="M975.13,-250.57C1082.16,-250.57 1259.5,-250.57 1259.5,-250.57 1259.5,-250.57 1259.5,-355.21 1259.5,-355.21"/>
<polygon fill="#b9851b" stroke="#b9851b" points="1257.05,-355.21 1259.5,-362.21 1261.95,-355.21 1257.05,-355.21"/>
<text xml:space="preserve" text-anchor="middle" x="1113" y="-485.5" font-family="Comic Mono" font-size="10.00">attempt backend ownership</text>
</g>
<!-- elector&#45;&gt;backend -->
<g id="edge7" class="edge">
<title>elector&#45;&gt;backend</title>
<path fill="none" stroke="#755bc6" d="M975.33,-245.43C1083.19,-245.43 1262.5,-245.43 1262.5,-245.43 1262.5,-245.43 1262.5,-355.07 1262.5,-355.07"/>
<polygon fill="#755bc6" stroke="#755bc6" points="1260.05,-355.07 1262.5,-362.07 1264.95,-355.07 1260.05,-355.07"/>
<text xml:space="preserve" text-anchor="middle" x="1113" y="-418.5" font-family="Comic Mono" font-size="10.00">release or renew for session TTL release</text>
</g>
<!-- work -->
<g id="node5" class="node">
<title>work</title>
<path fill="#f8fafc" stroke="#94a3b8" d="M1397.5,-200C1397.5,-200 1278,-200 1278,-200 1272,-200 1266,-194 1266,-188 1266,-188 1266,-176 1266,-176 1266,-170 1272,-164 1278,-164 1278,-164 1397.5,-164 1397.5,-164 1403.5,-164 1409.5,-170 1409.5,-176 1409.5,-176 1409.5,-188 1409.5,-188 1409.5,-194 1403.5,-200 1397.5,-200"/>
<text xml:space="preserve" text-anchor="middle" x="1337.75" y="-176.57" font-family="Comic Mono" font-size="14.00">Drain Maintenance</text>
</g>
<!-- elector&#45;&gt;work -->
<g id="edge5" class="edge">
<title>elector&#45;&gt;work</title>
<path fill="none" stroke="#3e9868" d="M975.29,-240.29C1108.31,-240.29 1361.5,-240.29 1361.5,-240.29 1361.5,-240.29 1361.5,-208.96 1361.5,-208.96"/>
<polygon fill="#3e9868" stroke="#3e9868" points="1363.95,-208.96 1361.5,-201.96 1359.05,-208.96 1363.95,-208.96"/>
<text xml:space="preserve" text-anchor="middle" x="1113" y="-217.5" font-family="Comic Mono" font-size="10.00">execute drain maintenance</text>
</g>
<!-- peer -->
<g id="node6" class="node">
<title>peer</title>
<path fill="#f8fafc" stroke="#94a3b8" d="M1378.75,-59C1378.75,-59 1296.75,-59 1296.75,-59 1290.75,-59 1284.75,-53 1284.75,-47 1284.75,-47 1284.75,-35 1284.75,-35 1284.75,-29 1290.75,-23 1296.75,-23 1296.75,-23 1378.75,-23 1378.75,-23 1384.75,-23 1390.75,-29 1390.75,-35 1390.75,-35 1390.75,-47 1390.75,-47 1390.75,-53 1384.75,-59 1378.75,-59"/>
<text xml:space="preserve" text-anchor="middle" x="1337.75" y="-35.58" font-family="Comic Mono" font-size="14.00">Skipped Peer</text>
</g>
<!-- elector&#45;&gt;peer -->
<g id="edge9" class="edge">
<title>elector&#45;&gt;peer</title>
<path fill="none" stroke="#c94d68" d="M922.5,-229.75C922.5,-180.11 922.5,-46.33 922.5,-46.33 922.5,-46.33 1275.8,-46.33 1275.8,-46.33"/>
<polygon fill="#c94d68" stroke="#c94d68" points="1275.8,-48.78 1282.8,-46.33 1275.8,-43.88 1275.8,-48.78"/>
<text xml:space="preserve" text-anchor="middle" x="1113" y="-83.5" font-family="Comic Mono" font-size="10.00">return skipped result</text>
</g>
<!-- backend&#45;&gt;elector -->
<g id="edge4" class="edge">
<title>backend&#45;&gt;elector</title>
<path fill="none" stroke="#3e9868" d="M1253.5,-363.6C1253.5,-329.71 1253.5,-260.86 1253.5,-260.86 1253.5,-260.86 983.66,-260.86 983.66,-260.86"/>
<polygon fill="#3e9868" stroke="#3e9868" points="983.66,-258.41 976.66,-260.86 983.66,-263.31 983.66,-258.41"/>
<text xml:space="preserve" text-anchor="middle" x="1113" y="-351.5" font-family="Comic Mono" font-size="10.00">owner token accepted</text>
</g>
<!-- backend&#45;&gt;elector -->
<g id="edge8" class="edge">
<title>backend&#45;&gt;elector</title>
<path fill="none" stroke="#c94d68" d="M1256.5,-363.64C1256.5,-328.61 1256.5,-255.71 1256.5,-255.71 1256.5,-255.71 983.88,-255.71 983.88,-255.71"/>
<polygon fill="#c94d68" stroke="#c94d68" points="983.88,-253.26 976.88,-255.71 983.88,-258.16 983.88,-253.26"/>
<text xml:space="preserve" text-anchor="middle" x="1113" y="-284.5" font-family="Comic Mono" font-size="10.00">lock already owned</text>
</g>
<!-- work&#45;&gt;elector -->
<g id="edge6" class="edge">
<title>work&#45;&gt;elector</title>
<path fill="none" stroke="#3e9868" d="M1313.5,-200.29C1313.5,-215.66 1313.5,-235.14 1313.5,-235.14 1313.5,-235.14 983.82,-235.14 983.82,-235.14"/>
<polygon fill="#3e9868" stroke="#3e9868" points="983.82,-232.69 976.82,-235.14 983.82,-237.59 983.82,-232.69"/>
<text xml:space="preserve" text-anchor="middle" x="1113" y="-150.5" font-family="Comic Mono" font-size="10.00">return leader result</text>
</g>
<!-- peer&#45;&gt;trigger -->
<g id="edge10" class="edge">
<title>peer&#45;&gt;trigger</title>
<path fill="none" stroke="#c94d68" d="M1284.4,-34.67C1284.4,-34.67 144.94,-34.67 144.94,-34.67"/>
<polygon fill="#c94d68" stroke="#c94d68" points="144.94,-32.22 137.94,-34.67 144.94,-37.12 144.94,-32.22"/>
<text xml:space="preserve" text-anchor="middle" x="683.75" y="-2.5" font-family="Comic Mono" font-size="10.00">cycle completes without duplicate work</text>
</g>
</g>
</svg>
