<?xml version="1.0" encoding="UTF-8" standalone="no"?>
<!DOCTYPE svg PUBLIC "-//W3C//DTD SVG 1.1//EN"
 "http://www.w3.org/Graphics/SVG/1.1/DTD/svg11.dtd">
<!-- Generated by graphviz version 15.0.0 (20260523.1842)
 -->
<!-- Title: examples&#45;dynamodb&#45;export&#45;architecture&#45;01 Pages: 1 -->
<svg width="1338pt" height="510pt"
 viewBox="0.00 0.00 1338.00 510.00" xmlns="http://www.w3.org/2000/svg" xmlns:xlink="http://www.w3.org/1999/xlink">
<g id="graph0" class="graph" transform="scale(1 1) rotate(0) translate(4 505.66)">
<title>examples&#45;dynamodb&#45;export&#45;architecture&#45;01</title>
<text xml:space="preserve" text-anchor="middle" x="665.12" y="-484.36" font-family="Times,serif" font-size="14.00">DynamoDB Export Architecture</text>
<!-- n0&#45;&gt;r1p1 -->
<g id="edge1" class="edge">
<title>n0&#45;&gt;r1p1</title>
<path fill="none" stroke="#758297" stroke-width="1.8" d="M150.12,-384.63C150.12,-364.28 150.12,-343.79 150.12,-338.43"/>
</g>
<!-- n1&#45;&gt;r2p1 -->
<g id="edge4" class="edge">
<title>n1&#45;&gt;r2p1</title>
<path fill="none" stroke="#758297" stroke-width="1.8" d="M550.12,-384.77C550.12,-362.63 550.12,-339.63 550.12,-333.6"/>
</g>
<!-- n2&#45;&gt;n3 -->
<g id="edge7" class="edge">
<title>n2&#45;&gt;n3</title>
<path fill="none" stroke="#758297" stroke-width="1.8" d="M595.72,-246.08C630.13,-246.08 665.76,-246.08 699.58,-246.08"/>
<polygon fill="#758297" stroke="#758297" stroke-width="1.8" points="699.3,-248.88 707.3,-246.08 699.3,-243.28 699.3,-248.88"/>
</g>
<!-- n2&#45;&gt;r5p1 -->
<g id="edge11" class="edge">
<title>n2&#45;&gt;r5p1</title>
<path fill="none" stroke="#758297" stroke-width="1.8" d="M400.12,-199.63C400.12,-179.28 400.12,-158.79 400.12,-153.43"/>
</g>
<!-- n2&#45;&gt;r6p1 -->
<g id="edge14" class="edge">
<title>n2&#45;&gt;r6p1</title>
<path fill="none" stroke="#758297" stroke-width="1.8" d="M400.12,-199.54C400.12,-173.62 400.12,-145.24 400.12,-138.55"/>
</g>
<!-- n3&#45;&gt;r4p1 -->
<g id="edge8" class="edge">
<title>n3&#45;&gt;r4p1</title>
<path fill="none" stroke="#758297" stroke-width="1.8" d="M875.12,-199.77C875.12,-177.63 875.12,-154.63 875.12,-148.6"/>
</g>
<!-- n5&#45;&gt;r7p1 -->
<g id="edge17" class="edge">
<title>n5&#45;&gt;r7p1</title>
<path fill="none" stroke="#758297" stroke-width="1.8" d="M940.31,-46.08C962.44,-46.08 979.13,-46.08 983.8,-46.08"/>
</g>
<!-- r1p1&#45;&gt;r1p2 -->
<g id="edge2" class="edge">
<title>r1p1&#45;&gt;r1p2</title>
<path fill="none" stroke="#758297" stroke-width="1.8" d="M151.23,-337.08C168.42,-337.08 378.95,-337.08 398.64,-337.08"/>
</g>
<!-- r1p2&#45;&gt;n2 -->
<g id="edge3" class="edge">
<title>r1p2&#45;&gt;n2</title>
<path fill="none" stroke="#758297" stroke-width="1.8" d="M400.12,-335.5C400.12,-331.09 400.12,-317.99 400.12,-303.12"/>
<polygon fill="#758297" stroke="#758297" stroke-width="1.8" points="402.92,-303.36 400.12,-295.36 397.32,-303.36 402.92,-303.36"/>
</g>
<!-- r2p1&#45;&gt;r2p2 -->
<g id="edge5" class="edge">
<title>r2p1&#45;&gt;r2p2</title>
<path fill="none" stroke="#758297" stroke-width="1.8" d="M548.77,-332.08C536.52,-332.08 444.5,-332.08 431.62,-332.08"/>
</g>
<!-- r2p2&#45;&gt;n2 -->
<g id="edge6" class="edge">
<title>r2p2&#45;&gt;n2</title>
<path fill="none" stroke="#758297" stroke-width="1.8" d="M429.7,-330.86C428.42,-327.22 424.44,-315.79 419.79,-302.46"/>
<polygon fill="#758297" stroke="#758297" stroke-width="1.8" points="422.49,-301.71 417.21,-295.08 417.2,-303.55 422.49,-301.71"/>
</g>
<!-- r4p1&#45;&gt;r4p2 -->
<g id="edge9" class="edge">
<title>r4p1&#45;&gt;r4p2</title>
<path fill="none" stroke="#758297" stroke-width="1.8" d="M873.88,-147.08C845.56,-147.08 343.03,-147.08 311.65,-147.08"/>
</g>
<!-- r4p2&#45;&gt;n4 -->
<g id="edge10" class="edge">
<title>r4p2&#45;&gt;n4</title>
<path fill="none" stroke="#758297" stroke-width="1.8" d="M310.12,-145.65C310.12,-140.55 310.12,-122.49 310.12,-103.13"/>
<polygon fill="#758297" stroke="#758297" stroke-width="1.8" points="312.92,-103.36 310.12,-95.36 307.32,-103.36 312.92,-103.36"/>
</g>
<!-- r5p1&#45;&gt;r5p2 -->
<g id="edge12" class="edge">
<title>r5p1&#45;&gt;r5p2</title>
<path fill="none" stroke="#758297" stroke-width="1.8" d="M401.46,-152.08C424.73,-152.08 743.7,-152.08 768.58,-152.08"/>
</g>
<!-- r5p2&#45;&gt;n5 -->
<g id="edge13" class="edge">
<title>r5p2&#45;&gt;n5</title>
<path fill="none" stroke="#758297" stroke-width="1.8" d="M770.12,-150.58C770.12,-144.98 770.12,-124.5 770.12,-103.14"/>
<polygon fill="#758297" stroke="#758297" stroke-width="1.8" points="772.92,-103.36 770.12,-95.36 767.32,-103.36 772.92,-103.36"/>
</g>
<!-- r6p1&#45;&gt;r6p2 -->
<g id="edge15" class="edge">
<title>r6p1&#45;&gt;r6p2</title>
<path fill="none" stroke="#758297" stroke-width="1.8" d="M401.39,-137.08C435.44,-137.08 1145.64,-137.08 1178.91,-137.08"/>
</g>
<!-- r6p2&#45;&gt;n6 -->
<g id="edge16" class="edge">
<title>r6p2&#45;&gt;n6</title>
<path fill="none" stroke="#758297" stroke-width="1.8" d="M1180.12,-135.5C1180.12,-131.09 1180.12,-117.99 1180.12,-103.12"/>
<polygon fill="#758297" stroke="#758297" stroke-width="1.8" points="1182.92,-103.36 1180.12,-95.36 1177.32,-103.36 1182.92,-103.36"/>
</g>
<!-- r7p1&#45;&gt;r7p2 -->
<g id="edge18" class="edge">
<title>r7p1&#45;&gt;r7p2</title>
<path fill="none" stroke="#758297" stroke-width="1.8" d="M985.12,-46.08C985.12,-46.08 985.12,-46.08 985.12,-46.08"/>
</g>
<!-- r7p2&#45;&gt;n6 -->
<g id="edge19" class="edge">
<title>r7p2&#45;&gt;n6</title>
<path fill="none" stroke="#758297" stroke-width="1.8" d="M986.37,-46.08C990.19,-46.08 1002.52,-46.08 1019.24,-46.08"/>
<polygon fill="#758297" stroke="#758297" stroke-width="1.8" points="1018.83,-48.88 1026.83,-46.08 1018.83,-43.28 1018.83,-48.88"/>
</g>
<!-- n0 -->
<g id="node1" class="node">
<title>n0</title>
<path fill="#ffffff" stroke="#5b8def" d="M288.24,-477.16C288.24,-477.16 12,-477.16 12,-477.16 6,-477.16 0,-471.16 0,-465.16 0,-465.16 0,-397 0,-397 0,-391 6,-385 12,-385 12,-385 288.24,-385 288.24,-385 294.24,-385 300.24,-391 300.24,-397 300.24,-397 300.24,-465.16 300.24,-465.16 300.24,-471.16 294.24,-477.16 288.24,-477.16"/>
<text xml:space="preserve" text-anchor="middle" x="150.12" y="-426.73" font-family="Architects Daughter" font-size="18.00">Service node A</text>
</g>
<!-- n1 -->
<g id="node2" class="node">
<title>n1</title>
<path fill="#ffffff" stroke="#d6a441" d="M688.24,-477.16C688.24,-477.16 412,-477.16 412,-477.16 406,-477.16 400,-471.16 400,-465.16 400,-465.16 400,-397 400,-397 400,-391 406,-385 412,-385 412,-385 688.24,-385 688.24,-385 694.24,-385 700.24,-391 700.24,-397 700.24,-397 700.24,-465.16 700.24,-465.16 700.24,-471.16 694.24,-477.16 688.24,-477.16"/>
<text xml:space="preserve" text-anchor="middle" x="550.12" y="-426.73" font-family="Architects Daughter" font-size="18.00">Service node B</text>
</g>
<!-- n2 -->
<g id="node3" class="node">
<title>n2</title>
<path fill="#ffffff" stroke="#58a978" d="M583.24,-292.16C583.24,-292.16 217,-292.16 217,-292.16 211,-292.16 205,-286.16 205,-280.16 205,-280.16 205,-212 205,-212 205,-206 211,-200 217,-200 217,-200 583.24,-200 583.24,-200 589.24,-200 595.24,-206 595.24,-212 595.24,-212 595.24,-280.16 595.24,-280.16 595.24,-286.16 589.24,-292.16 583.24,-292.16"/>
<text xml:space="preserve" text-anchor="middle" x="400.12" y="-241.73" font-family="Architects Daughter" font-size="18.00">Export runner</text>
</g>
<!-- n3 -->
<g id="node4" class="node">
<title>n3</title>
<path fill="#ffffff" stroke="#8a72d6" d="M1028,-292.16C1028,-292.16 722.24,-292.16 722.24,-292.16 716.24,-292.16 710.24,-286.16 710.24,-280.16 710.24,-280.16 710.24,-212 710.24,-212 710.24,-206 716.24,-200 722.24,-200 722.24,-200 1028,-200 1028,-200 1034,-200 1040,-206 1040,-212 1040,-212 1040,-280.16 1040,-280.16 1040,-286.16 1034,-292.16 1028,-292.16"/>
<text xml:space="preserve" text-anchor="middle" x="875.12" y="-241.73" font-family="Architects Daughter" font-size="18.00">DynamoDB elector</text>
</g>
<!-- n4 -->
<g id="node5" class="node">
<title>n4</title>
<path fill="#ffffff" stroke="#b88a44" d="M468.04,-92.16C468.04,-92.16 152.2,-92.16 152.2,-92.16 146.2,-92.16 140.2,-86.16 140.2,-80.16 140.2,-80.16 140.2,-12 140.2,-12 140.2,-6 146.2,0 152.2,0 152.2,0 468.04,0 468.04,0 474.04,0 480.04,-6 480.04,-12 480.04,-12 480.04,-80.16 480.04,-80.16 480.04,-86.16 474.04,-92.16 468.04,-92.16"/>
<text xml:space="preserve" text-anchor="middle" x="310.12" y="-41.73" font-family="Architects Daughter" font-size="18.00">Leader lock table</text>
</g>
<!-- n5 -->
<g id="node6" class="node">
<title>n5</title>
<path fill="#ffffff" stroke="#45a7a1" d="M928.04,-92.16C928.04,-92.16 612.2,-92.16 612.2,-92.16 606.2,-92.16 600.2,-86.16 600.2,-80.16 600.2,-80.16 600.2,-12 600.2,-12 600.2,-6 606.2,0 612.2,0 612.2,0 928.04,0 928.04,0 934.04,0 940.04,-6 940.04,-12 940.04,-12 940.04,-80.16 940.04,-80.16 940.04,-86.16 934.04,-92.16 928.04,-92.16"/>
<text xml:space="preserve" text-anchor="middle" x="770.12" y="-41.73" font-family="Architects Daughter" font-size="18.00">Export table</text>
</g>
<!-- n6 -->
<g id="node7" class="node">
<title>n6</title>
<path fill="#ffffff" stroke="#dc6b82" d="M1318.24,-92.16C1318.24,-92.16 1042,-92.16 1042,-92.16 1036,-92.16 1030,-86.16 1030,-80.16 1030,-80.16 1030,-12 1030,-12 1030,-6 1036,0 1042,0 1042,0 1318.24,0 1318.24,0 1324.24,0 1330.24,-6 1330.24,-12 1330.24,-12 1330.24,-80.16 1330.24,-80.16 1330.24,-86.16 1324.24,-92.16 1318.24,-92.16"/>
<text xml:space="preserve" text-anchor="middle" x="1180.12" y="-41.73" font-family="Architects Daughter" font-size="18.00">Export report</text>
</g>
<!-- r1p1 -->
<!-- r1p2 -->
<!-- r2p1 -->
<!-- r2p2 -->
<!-- r4p1 -->
<!-- r4p2 -->
<!-- r5p1 -->
<!-- r5p2 -->
<!-- r6p1 -->
<!-- r6p2 -->
<!-- r7p1 -->
<!-- r7p2 -->
</g>
</svg>
