<?xml version="1.0" encoding="UTF-8" standalone="no"?>
<!DOCTYPE svg PUBLIC "-//W3C//DTD SVG 1.1//EN"
 "http://www.w3.org/Graphics/SVG/1.1/DTD/svg11.dtd">
<!-- Generated by graphviz version 15.0.0 (20260523.1842)
 -->
<!-- Title: examples&#45;k8s&#45;lease&#45;sequence&#45;01 Pages: 1 -->
<svg width="1314pt" height="503pt"
 viewBox="0.00 0.00 1314.00 503.00" xmlns="http://www.w3.org/2000/svg" xmlns:xlink="http://www.w3.org/1999/xlink">
<g id="graph0" class="graph" transform="scale(1 1) rotate(0) translate(4 499)">
<title>examples&#45;k8s&#45;lease&#45;sequence&#45;01</title>
<!-- trigger -->
<g id="node1" class="node">
<title>trigger</title>
<path fill="#f8fafc" stroke="#94a3b8" d="M101.5,-58C101.5,-58 12,-58 12,-58 6,-58 0,-52 0,-46 0,-46 0,-34 0,-34 0,-28 6,-22 12,-22 12,-22 101.5,-22 101.5,-22 107.5,-22 113.5,-28 113.5,-34 113.5,-34 113.5,-46 113.5,-46 113.5,-52 107.5,-58 101.5,-58"/>
<text xml:space="preserve" text-anchor="middle" x="56.75" y="-34.58" font-family="Comic Mono" font-size="14.00">Lease Attempt</text>
</g>
<!-- coord -->
<g id="node2" class="node">
<title>coord</title>
<path fill="#f8fafc" stroke="#94a3b8" d="M395.75,-150C395.75,-150 291.25,-150 291.25,-150 285.25,-150 279.25,-144 279.25,-138 279.25,-138 279.25,-126 279.25,-126 279.25,-120 285.25,-114 291.25,-114 291.25,-114 395.75,-114 395.75,-114 401.75,-114 407.75,-120 407.75,-126 407.75,-126 407.75,-138 407.75,-138 407.75,-144 401.75,-150 395.75,-150"/>
<text xml:space="preserve" text-anchor="middle" x="343.5" y="-126.58" font-family="Comic Mono" font-size="14.00">K8sLeaseExample</text>
</g>
<!-- trigger&#45;&gt;coord -->
<g id="edge1" class="edge">
<title>trigger&#45;&gt;coord</title>
<path fill="none" stroke="#4f83bf" d="M57,-58.18C57,-84.99 57,-132 57,-132 57,-132 270.33,-132 270.33,-132"/>
<polygon fill="#4f83bf" stroke="#4f83bf" points="270.33,-134.45 277.33,-132 270.33,-129.55 270.33,-134.45"/>
<text xml:space="preserve" text-anchor="middle" x="196.38" y="-89.5" font-family="Comic Mono" font-size="10.00">start lease attempt</text>
</g>
<!-- elector -->
<g id="node3" class="node">
<title>elector</title>
<path fill="#f8fafc" stroke="#94a3b8" d="M887.25,-266C887.25,-266 685.25,-266 685.25,-266 679.25,-266 673.25,-260 673.25,-254 673.25,-254 673.25,-242 673.25,-242 673.25,-236 679.25,-230 685.25,-230 685.25,-230 887.25,-230 887.25,-230 893.25,-230 899.25,-236 899.25,-242 899.25,-242 899.25,-254 899.25,-254 899.25,-260 893.25,-266 887.25,-266"/>
<text xml:space="preserve" text-anchor="middle" x="786.25" y="-242.57" font-family="Comic Mono" font-size="14.00">KubernetesLeaseLeaderElector</text>
</g>
<!-- coord&#45;&gt;elector -->
<g id="edge2" class="edge">
<title>coord&#45;&gt;elector</title>
<path fill="none" stroke="#4f83bf" d="M343,-150.38C343,-183.09 343,-248 343,-248 343,-248 664.45,-248 664.45,-248"/>
<polygon fill="#4f83bf" stroke="#4f83bf" points="664.45,-250.45 671.45,-248 664.45,-245.55 664.45,-250.45"/>
<text xml:space="preserve" text-anchor="middle" x="540.5" y="-211.5" font-family="Comic Mono" font-size="10.00">runIfLeader with source options</text>
</g>
<!-- backend -->
<g id="node4" class="node">
<title>backend</title>
<path fill="#f8fafc" stroke="#94a3b8" d="M1286.5,-400C1286.5,-400 1189.5,-400 1189.5,-400 1183.5,-400 1177.5,-394 1177.5,-388 1177.5,-388 1177.5,-376 1177.5,-376 1177.5,-370 1183.5,-364 1189.5,-364 1189.5,-364 1286.5,-364 1286.5,-364 1292.5,-364 1298.5,-370 1298.5,-376 1298.5,-376 1298.5,-388 1298.5,-388 1298.5,-394 1292.5,-400 1286.5,-400"/>
<text xml:space="preserve" text-anchor="middle" x="1238" y="-376.57" font-family="Comic Mono" font-size="14.00">Lease resource</text>
</g>
<!-- elector&#45;&gt;backend -->
<g id="edge3" class="edge">
<title>elector&#45;&gt;backend</title>
<path fill="none" stroke="#b9851b" d="M899.58,-260.86C1022.68,-260.86 1202,-260.86 1202,-260.86 1202,-260.86 1202,-355.09 1202,-355.09"/>
<polygon fill="#b9851b" stroke="#b9851b" points="1199.55,-355.09 1202,-362.09 1204.45,-355.09 1199.55,-355.09"/>
<text xml:space="preserve" text-anchor="middle" x="1034.62" y="-485.5" font-family="Comic Mono" font-size="10.00">attempt backend ownership</text>
</g>
<!-- elector&#45;&gt;backend -->
<g id="edge7" class="edge">
<title>elector&#45;&gt;backend</title>
<path fill="none" stroke="#755bc6" d="M899.5,-255.71C1029.79,-255.71 1226,-255.71 1226,-255.71 1226,-255.71 1226,-355.12 1226,-355.12"/>
<polygon fill="#755bc6" stroke="#755bc6" points="1223.55,-355.12 1226,-362.12 1228.45,-355.12 1223.55,-355.12"/>
<text xml:space="preserve" text-anchor="middle" x="1034.62" y="-418.5" font-family="Comic Mono" font-size="10.00">release or renew for renewTime takeover</text>
</g>
<!-- work -->
<g id="node5" class="node">
<title>work</title>
<path fill="#f8fafc" stroke="#94a3b8" d="M1294,-200C1294,-200 1182,-200 1182,-200 1176,-200 1170,-194 1170,-188 1170,-188 1170,-176 1170,-176 1170,-170 1176,-164 1182,-164 1182,-164 1294,-164 1294,-164 1300,-164 1306,-170 1306,-176 1306,-176 1306,-188 1306,-188 1306,-194 1300,-200 1294,-200"/>
<text xml:space="preserve" text-anchor="middle" x="1238" y="-176.57" font-family="Comic Mono" font-size="14.00">Holder Operation</text>
</g>
<!-- elector&#45;&gt;work -->
<g id="edge5" class="edge">
<title>elector&#45;&gt;work</title>
<path fill="none" stroke="#3e9868" d="M899.64,-235.14C1013.45,-235.14 1172,-235.14 1172,-235.14 1172,-235.14 1172,-208.8 1172,-208.8"/>
<polygon fill="#3e9868" stroke="#3e9868" points="1174.45,-208.8 1172,-201.8 1169.55,-208.8 1174.45,-208.8"/>
<text xml:space="preserve" text-anchor="middle" x="1034.62" y="-217.5" font-family="Comic Mono" font-size="10.00">execute holder operation</text>
</g>
<!-- peer -->
<g id="node6" class="node">
<title>peer</title>
<path fill="#f8fafc" stroke="#94a3b8" d="M1279,-59C1279,-59 1197,-59 1197,-59 1191,-59 1185,-53 1185,-47 1185,-47 1185,-35 1185,-35 1185,-29 1191,-23 1197,-23 1197,-23 1279,-23 1279,-23 1285,-23 1291,-29 1291,-35 1291,-35 1291,-47 1291,-47 1291,-53 1285,-59 1279,-59"/>
<text xml:space="preserve" text-anchor="middle" x="1238" y="-35.58" font-family="Comic Mono" font-size="14.00">Skipped Peer</text>
</g>
<!-- elector&#45;&gt;peer -->
<g id="edge9" class="edge">
<title>elector&#45;&gt;peer</title>
<path fill="none" stroke="#c94d68" d="M786,-229.75C786,-180.11 786,-46.33 786,-46.33 786,-46.33 1176.31,-46.33 1176.31,-46.33"/>
<polygon fill="#c94d68" stroke="#c94d68" points="1176.31,-48.78 1183.31,-46.33 1176.31,-43.88 1176.31,-48.78"/>
<text xml:space="preserve" text-anchor="middle" x="1034.62" y="-83.5" font-family="Comic Mono" font-size="10.00">return skipped result</text>
</g>
<!-- backend&#45;&gt;elector -->
<g id="edge4" class="edge">
<title>backend&#45;&gt;elector</title>
<path fill="none" stroke="#3e9868" d="M1250,-363.73C1250,-327.61 1250,-250.57 1250,-250.57 1250,-250.57 908.21,-250.57 908.21,-250.57"/>
<polygon fill="#3e9868" stroke="#3e9868" points="908.21,-248.12 901.21,-250.57 908.21,-253.02 908.21,-248.12"/>
<text xml:space="preserve" text-anchor="middle" x="1034.62" y="-351.5" font-family="Comic Mono" font-size="10.00">owner token accepted</text>
</g>
<!-- backend&#45;&gt;elector -->
<g id="edge8" class="edge">
<title>backend&#45;&gt;elector</title>
<path fill="none" stroke="#c94d68" d="M1274,-363.58C1274,-326.3 1274,-245.43 1274,-245.43 1274,-245.43 908.2,-245.43 908.2,-245.43"/>
<polygon fill="#c94d68" stroke="#c94d68" points="908.2,-242.98 901.2,-245.43 908.2,-247.88 908.2,-242.98"/>
<text xml:space="preserve" text-anchor="middle" x="1034.62" y="-284.5" font-family="Comic Mono" font-size="10.00">lock already owned</text>
</g>
<!-- work&#45;&gt;elector -->
<g id="edge6" class="edge">
<title>work&#45;&gt;elector</title>
<path fill="none" stroke="#3e9868" d="M1175,-200.44C1175,-217.52 1175,-240.29 1175,-240.29 1175,-240.29 908.25,-240.29 908.25,-240.29"/>
<polygon fill="#3e9868" stroke="#3e9868" points="908.25,-237.84 901.25,-240.29 908.25,-242.74 908.25,-237.84"/>
<text xml:space="preserve" text-anchor="middle" x="1034.62" y="-150.5" font-family="Comic Mono" font-size="10.00">return leader result</text>
</g>
<!-- peer&#45;&gt;trigger -->
<g id="edge10" class="edge">
<title>peer&#45;&gt;trigger</title>
<path fill="none" stroke="#c94d68" d="M1184.56,-34.67C1184.56,-34.67 122.21,-34.67 122.21,-34.67"/>
<polygon fill="#c94d68" stroke="#c94d68" points="122.21,-32.22 115.21,-34.67 122.21,-37.12 122.21,-32.22"/>
<text xml:space="preserve" text-anchor="middle" x="540.5" y="-2.5" font-family="Comic Mono" font-size="10.00">cycle completes without duplicate work</text>
</g>
</g>
</svg>
