<?xml version="1.0" encoding="UTF-8" standalone="no"?>
<!DOCTYPE svg PUBLIC "-//W3C//DTD SVG 1.1//EN"
 "http://www.w3.org/Graphics/SVG/1.1/DTD/svg11.dtd">
<!-- Generated by graphviz version 15.0.0 (20260523.1842)
 -->
<!-- Title: examples&#45;redisson&#45;watchdog&#45;scenario&#45;01 Pages: 1 -->
<svg width="823pt" height="210pt"
 viewBox="0.00 0.00 823.00 210.00" xmlns="http://www.w3.org/2000/svg" xmlns:xlink="http://www.w3.org/1999/xlink">
<g id="graph0" class="graph" transform="scale(1 1) rotate(0) translate(4 206)">
<title>examples&#45;redisson&#45;watchdog&#45;scenario&#45;01</title>
<!-- tick -->
<g id="node1" class="node">
<title>tick</title>
<path fill="#f8fafc" stroke="#94a3b8" d="M124,-119C124,-119 12,-119 12,-119 6,-119 0,-113 0,-107 0,-107 0,-95 0,-95 0,-89 6,-83 12,-83 12,-83 124,-83 124,-83 130,-83 136,-89 136,-95 136,-95 136,-107 136,-107 136,-113 130,-119 124,-119"/>
<text xml:space="preserve" text-anchor="middle" x="68" y="-95.58" font-family="Comic Mono" font-size="14.00">Long Job Trigger</text>
</g>
<!-- nodeA -->
<g id="node2" class="node">
<title>nodeA</title>
<path fill="#f8fafc" stroke="#94a3b8" d="M309.5,-202C309.5,-202 235,-202 235,-202 229,-202 223,-196 223,-190 223,-190 223,-178 223,-178 223,-172 229,-166 235,-166 235,-166 309.5,-166 309.5,-166 315.5,-166 321.5,-172 321.5,-178 321.5,-178 321.5,-190 321.5,-190 321.5,-196 315.5,-202 309.5,-202"/>
<text xml:space="preserve" text-anchor="middle" x="272.25" y="-178.57" font-family="Comic Mono" font-size="14.00">Candidate A</text>
</g>
<!-- tick&#45;&gt;nodeA -->
<g id="edge1" class="edge">
<title>tick&#45;&gt;nodeA</title>
<path fill="none" stroke="#758297" d="M67.75,-119.42C67.75,-143.87 67.75,-184 67.75,-184 67.75,-184 211.23,-184 211.23,-184"/>
<polygon fill="#758297" stroke="#758297" points="211.23,-187.5 221.23,-184 211.23,-180.5 211.23,-187.5"/>
<text xml:space="preserve" text-anchor="middle" x="179.5" y="-176.5" font-family="Comic Mono" font-size="10.00">call</text>
</g>
<!-- nodeB -->
<g id="node3" class="node">
<title>nodeB</title>
<path fill="#f8fafc" stroke="#94a3b8" d="M309.5,-119C309.5,-119 235,-119 235,-119 229,-119 223,-113 223,-107 223,-107 223,-95 223,-95 223,-89 229,-83 235,-83 235,-83 309.5,-83 309.5,-83 315.5,-83 321.5,-89 321.5,-95 321.5,-95 321.5,-107 321.5,-107 321.5,-113 315.5,-119 309.5,-119"/>
<text xml:space="preserve" text-anchor="middle" x="272.25" y="-95.58" font-family="Comic Mono" font-size="14.00">Candidate B</text>
</g>
<!-- tick&#45;&gt;nodeB -->
<g id="edge2" class="edge">
<title>tick&#45;&gt;nodeB</title>
<path fill="none" stroke="#758297" d="M136.3,-101C136.3,-101 211.24,-101 211.24,-101"/>
<polygon fill="#758297" stroke="#758297" points="211.24,-104.5 221.24,-101 211.24,-97.5 211.24,-104.5"/>
<text xml:space="preserve" text-anchor="middle" x="179.5" y="-103.5" font-family="Comic Mono" font-size="10.00">call</text>
</g>
<!-- nodeC -->
<g id="node4" class="node">
<title>nodeC</title>
<path fill="#f8fafc" stroke="#94a3b8" d="M309.5,-36C309.5,-36 235,-36 235,-36 229,-36 223,-30 223,-24 223,-24 223,-12 223,-12 223,-6 229,0 235,0 235,0 309.5,0 309.5,0 315.5,0 321.5,-6 321.5,-12 321.5,-12 321.5,-24 321.5,-24 321.5,-30 315.5,-36 309.5,-36"/>
<text xml:space="preserve" text-anchor="middle" x="272.25" y="-12.57" font-family="Comic Mono" font-size="14.00">Candidate C</text>
</g>
<!-- tick&#45;&gt;nodeC -->
<g id="edge3" class="edge">
<title>tick&#45;&gt;nodeC</title>
<path fill="none" stroke="#758297" d="M67.75,-82.58C67.75,-58.13 67.75,-18 67.75,-18 67.75,-18 211.23,-18 211.23,-18"/>
<polygon fill="#758297" stroke="#758297" points="211.23,-21.5 221.23,-18 211.23,-14.5 211.23,-21.5"/>
<text xml:space="preserve" text-anchor="middle" x="179.5" y="-30.5" font-family="Comic Mono" font-size="10.00">call</text>
</g>
<!-- backend -->
<g id="node5" class="node">
<title>backend</title>
<path fill="#f8fafc" stroke="#94a3b8" d="M541.5,-119C541.5,-119 452,-119 452,-119 446,-119 440,-113 440,-107 440,-107 440,-95 440,-95 440,-89 446,-83 452,-83 452,-83 541.5,-83 541.5,-83 547.5,-83 553.5,-89 553.5,-95 553.5,-95 553.5,-107 553.5,-107 553.5,-113 547.5,-119 541.5,-119"/>
<text xml:space="preserve" text-anchor="middle" x="496.75" y="-95.58" font-family="Comic Mono" font-size="14.00">RLock storage</text>
</g>
<!-- nodeA&#45;&gt;backend -->
<g id="edge4" class="edge">
<title>nodeA&#45;&gt;backend</title>
<path fill="none" stroke="#758297" d="M321.8,-184C387.91,-184 496.75,-184 496.75,-184 496.75,-184 496.75,-130.93 496.75,-130.93"/>
<polygon fill="#758297" stroke="#758297" points="500.25,-130.93 496.75,-120.93 493.25,-130.93 500.25,-130.93"/>
<text xml:space="preserve" text-anchor="middle" x="380.75" y="-176.5" font-family="Comic Mono" font-size="10.00">contention</text>
</g>
<!-- nodeB&#45;&gt;backend -->
<g id="edge5" class="edge">
<title>nodeB&#45;&gt;backend</title>
<path fill="none" stroke="#758297" d="M321.8,-101C321.8,-101 428.29,-101 428.29,-101"/>
<polygon fill="#758297" stroke="#758297" points="428.29,-104.5 438.29,-101 428.29,-97.5 428.29,-104.5"/>
<text xml:space="preserve" text-anchor="middle" x="380.75" y="-103.5" font-family="Comic Mono" font-size="10.00">contention</text>
</g>
<!-- nodeC&#45;&gt;backend -->
<g id="edge6" class="edge">
<title>nodeC&#45;&gt;backend</title>
<path fill="none" stroke="#758297" d="M321.8,-18C387.91,-18 496.75,-18 496.75,-18 496.75,-18 496.75,-71.07 496.75,-71.07"/>
<polygon fill="#758297" stroke="#758297" points="493.25,-71.07 496.75,-81.07 500.25,-71.07 493.25,-71.07"/>
<text xml:space="preserve" text-anchor="middle" x="380.75" y="-30.5" font-family="Comic Mono" font-size="10.00">contention</text>
</g>
<!-- recovery -->
<g id="node6" class="node">
<title>recovery</title>
<path fill="#f8fafc" stroke="#94a3b8" d="M802.75,-202C802.75,-202 668.25,-202 668.25,-202 662.25,-202 656.25,-196 656.25,-190 656.25,-190 656.25,-178 656.25,-178 656.25,-172 662.25,-166 668.25,-166 668.25,-166 802.75,-166 802.75,-166 808.75,-166 814.75,-172 814.75,-178 814.75,-178 814.75,-190 814.75,-190 814.75,-196 808.75,-202 802.75,-202"/>
<text xml:space="preserve" text-anchor="middle" x="735.5" y="-178.57" font-family="Comic Mono" font-size="14.00">Auto&#45;Extension Stop</text>
</g>
<!-- backend&#45;&gt;recovery -->
<g id="edge9" class="edge">
<title>backend&#45;&gt;recovery</title>
<path fill="none" stroke="#758297" d="M553.75,-110C602.13,-110 663.75,-110 663.75,-110 663.75,-110 663.75,-154.19 663.75,-154.19"/>
<polygon fill="#758297" stroke="#758297" points="660.25,-154.19 663.75,-164.19 667.25,-154.19 660.25,-154.19"/>
<text xml:space="preserve" text-anchor="middle" x="604.88" y="-186.5" font-family="Comic Mono" font-size="10.00">release</text>
</g>
<!-- skipped -->
<g id="node7" class="node">
<title>skipped</title>
<path fill="#f8fafc" stroke="#94a3b8" d="M769,-119C769,-119 702,-119 702,-119 696,-119 690,-113 690,-107 690,-107 690,-95 690,-95 690,-89 696,-83 702,-83 702,-83 769,-83 769,-83 775,-83 781,-89 781,-95 781,-95 781,-107 781,-107 781,-113 775,-119 769,-119"/>
<text xml:space="preserve" text-anchor="middle" x="735.5" y="-95.58" font-family="Comic Mono" font-size="14.00">Peers Skip</text>
</g>
<!-- backend&#45;&gt;skipped -->
<g id="edge8" class="edge">
<title>backend&#45;&gt;skipped</title>
<path fill="none" stroke="#758297" d="M553.94,-101C553.94,-101 678.05,-101 678.05,-101"/>
<polygon fill="#758297" stroke="#758297" points="678.05,-104.5 688.05,-101 678.05,-97.5 678.05,-104.5"/>
<text xml:space="preserve" text-anchor="middle" x="604.88" y="-103.5" font-family="Comic Mono" font-size="10.00">skip</text>
</g>
<!-- leader -->
<g id="node8" class="node">
<title>leader</title>
<path fill="#f8fafc" stroke="#94a3b8" d="M787.75,-36C787.75,-36 683.25,-36 683.25,-36 677.25,-36 671.25,-30 671.25,-24 671.25,-24 671.25,-12 671.25,-12 671.25,-6 677.25,0 683.25,0 683.25,0 787.75,0 787.75,0 793.75,0 799.75,-6 799.75,-12 799.75,-12 799.75,-24 799.75,-24 799.75,-30 793.75,-36 787.75,-36"/>
<text xml:space="preserve" text-anchor="middle" x="735.5" y="-12.57" font-family="Comic Mono" font-size="14.00">One Leader Runs</text>
</g>
<!-- backend&#45;&gt;leader -->
<g id="edge7" class="edge">
<title>backend&#45;&gt;leader</title>
<path fill="none" stroke="#758297" d="M553.96,-92C607.97,-92 680.75,-92 680.75,-92 680.75,-92 680.75,-47.81 680.75,-47.81"/>
<polygon fill="#758297" stroke="#758297" points="684.25,-47.81 680.75,-37.81 677.25,-47.81 684.25,-47.81"/>
<text xml:space="preserve" text-anchor="middle" x="604.88" y="-20.5" font-family="Comic Mono" font-size="10.00">success</text>
</g>
</g>
</svg>
