<?xml version="1.0" encoding="UTF-8" standalone="no"?>
<!DOCTYPE svg PUBLIC "-//W3C//DTD SVG 1.1//EN"
 "http://www.w3.org/Graphics/SVG/1.1/DTD/svg11.dtd">
<!-- Generated by graphviz version 15.0.0 (20260523.1842)
 -->
<!-- Title: examples&#45;ktor&#45;app&#45;sequence&#45;01 Pages: 1 -->
<svg width="1382pt" height="503pt"
 viewBox="0.00 0.00 1382.00 503.00" xmlns="http://www.w3.org/2000/svg" xmlns:xlink="http://www.w3.org/1999/xlink">
<g id="graph0" class="graph" transform="scale(1 1) rotate(0) translate(4 499)">
<title>examples&#45;ktor&#45;app&#45;sequence&#45;01</title>
<!-- trigger -->
<g id="node1" class="node">
<title>trigger</title>
<path fill="#f8fafc" stroke="#94a3b8" d="M146.5,-58C146.5,-58 12,-58 12,-58 6,-58 0,-52 0,-46 0,-46 0,-34 0,-34 0,-28 6,-22 12,-22 12,-22 146.5,-22 146.5,-22 152.5,-22 158.5,-28 158.5,-34 158.5,-34 158.5,-46 158.5,-46 158.5,-52 152.5,-58 146.5,-58"/>
<text xml:space="preserve" text-anchor="middle" x="79.25" y="-34.58" font-family="Comic Mono" font-size="14.00">Background Schedule</text>
</g>
<!-- coord -->
<g id="node2" class="node">
<title>coord</title>
<path fill="#f8fafc" stroke="#94a3b8" d="M509.75,-150C509.75,-150 367.75,-150 367.75,-150 361.75,-150 355.75,-144 355.75,-138 355.75,-138 355.75,-126 355.75,-126 355.75,-120 361.75,-114 367.75,-114 367.75,-114 509.75,-114 509.75,-114 515.75,-114 521.75,-120 521.75,-126 521.75,-126 521.75,-138 521.75,-138 521.75,-144 515.75,-150 509.75,-150"/>
<text xml:space="preserve" text-anchor="middle" x="438.75" y="-126.58" font-family="Comic Mono" font-size="14.00">LeaderElectionPlugin</text>
</g>
<!-- trigger&#45;&gt;coord -->
<g id="edge1" class="edge">
<title>trigger&#45;&gt;coord</title>
<path fill="none" stroke="#4f83bf" d="M79.5,-58.18C79.5,-84.99 79.5,-132 79.5,-132 79.5,-132 346.91,-132 346.91,-132"/>
<polygon fill="#4f83bf" stroke="#4f83bf" points="346.91,-134.45 353.91,-132 346.91,-129.55 346.91,-134.45"/>
<text xml:space="preserve" text-anchor="middle" x="257.12" y="-89.5" font-family="Comic Mono" font-size="10.00">start background schedule</text>
</g>
<!-- elector -->
<g id="node3" class="node">
<title>elector</title>
<path fill="#f8fafc" stroke="#94a3b8" d="M941.25,-266C941.25,-266 799.25,-266 799.25,-266 793.25,-266 787.25,-260 787.25,-254 787.25,-254 787.25,-242 787.25,-242 787.25,-236 793.25,-230 799.25,-230 799.25,-230 941.25,-230 941.25,-230 947.25,-230 953.25,-236 953.25,-242 953.25,-242 953.25,-254 953.25,-254 953.25,-260 947.25,-266 941.25,-266"/>
<text xml:space="preserve" text-anchor="middle" x="870.25" y="-242.57" font-family="Comic Mono" font-size="14.00">SuspendLeaderElector</text>
</g>
<!-- coord&#45;&gt;elector -->
<g id="edge2" class="edge">
<title>coord&#45;&gt;elector</title>
<path fill="none" stroke="#4f83bf" d="M521.92,-132C640.11,-132 842.5,-132 842.5,-132 842.5,-132 842.5,-221.11 842.5,-221.11"/>
<polygon fill="#4f83bf" stroke="#4f83bf" points="840.05,-221.11 842.5,-228.11 844.95,-221.11 840.05,-221.11"/>
<text xml:space="preserve" text-anchor="middle" x="654.5" y="-211.5" font-family="Comic Mono" font-size="10.00">runIfLeader with source options</text>
</g>
<!-- backend -->
<g id="node4" class="node">
<title>backend</title>
<path fill="#f8fafc" stroke="#94a3b8" d="M1357.75,-400C1357.75,-400 1260.75,-400 1260.75,-400 1254.75,-400 1248.75,-394 1248.75,-388 1248.75,-388 1248.75,-376 1248.75,-376 1248.75,-370 1254.75,-364 1260.75,-364 1260.75,-364 1357.75,-364 1357.75,-364 1363.75,-364 1369.75,-370 1369.75,-376 1369.75,-376 1369.75,-388 1369.75,-388 1369.75,-394 1363.75,-400 1357.75,-400"/>
<text xml:space="preserve" text-anchor="middle" x="1309.25" y="-376.57" font-family="Comic Mono" font-size="14.00">Redis lock key</text>
</g>
<!-- elector&#45;&gt;backend -->
<g id="edge3" class="edge">
<title>elector&#45;&gt;backend</title>
<path fill="none" stroke="#b9851b" d="M953.32,-260.86C1069.51,-260.86 1266.5,-260.86 1266.5,-260.86 1266.5,-260.86 1266.5,-355.09 1266.5,-355.09"/>
<polygon fill="#b9851b" stroke="#b9851b" points="1264.05,-355.09 1266.5,-362.09 1268.95,-355.09 1264.05,-355.09"/>
<text xml:space="preserve" text-anchor="middle" x="1099.12" y="-485.5" font-family="Comic Mono" font-size="10.00">attempt backend ownership</text>
</g>
<!-- elector&#45;&gt;backend -->
<g id="edge7" class="edge">
<title>elector&#45;&gt;backend</title>
<path fill="none" stroke="#755bc6" d="M953.38,-255.71C1074.06,-255.71 1283.5,-255.71 1283.5,-255.71 1283.5,-255.71 1283.5,-355.12 1283.5,-355.12"/>
<polygon fill="#755bc6" stroke="#755bc6" points="1281.05,-355.12 1283.5,-362.12 1285.95,-355.12 1281.05,-355.12"/>
<text xml:space="preserve" text-anchor="middle" x="1099.12" y="-418.5" font-family="Comic Mono" font-size="10.00">release or renew for HTTP health visibility</text>
</g>
<!-- work -->
<g id="node5" class="node">
<title>work</title>
<path fill="#f8fafc" stroke="#94a3b8" d="M1361.5,-200C1361.5,-200 1257,-200 1257,-200 1251,-200 1245,-194 1245,-188 1245,-188 1245,-176 1245,-176 1245,-170 1251,-164 1257,-164 1257,-164 1361.5,-164 1361.5,-164 1367.5,-164 1373.5,-170 1373.5,-176 1373.5,-176 1373.5,-188 1373.5,-188 1373.5,-194 1367.5,-200 1361.5,-200"/>
<text xml:space="preserve" text-anchor="middle" x="1309.25" y="-176.57" font-family="Comic Mono" font-size="14.00">Aggregate Stats</text>
</g>
<!-- elector&#45;&gt;work -->
<g id="edge5" class="edge">
<title>elector&#45;&gt;work</title>
<path fill="none" stroke="#3e9868" d="M953.7,-235.14C1087.58,-235.14 1335.5,-235.14 1335.5,-235.14 1335.5,-235.14 1335.5,-208.8 1335.5,-208.8"/>
<polygon fill="#3e9868" stroke="#3e9868" points="1337.95,-208.8 1335.5,-201.8 1333.05,-208.8 1337.95,-208.8"/>
<text xml:space="preserve" text-anchor="middle" x="1099.12" y="-217.5" font-family="Comic Mono" font-size="10.00">execute aggregate stats</text>
</g>
<!-- peer -->
<g id="node6" class="node">
<title>peer</title>
<path fill="#f8fafc" stroke="#94a3b8" d="M1350.25,-59C1350.25,-59 1268.25,-59 1268.25,-59 1262.25,-59 1256.25,-53 1256.25,-47 1256.25,-47 1256.25,-35 1256.25,-35 1256.25,-29 1262.25,-23 1268.25,-23 1268.25,-23 1350.25,-23 1350.25,-23 1356.25,-23 1362.25,-29 1362.25,-35 1362.25,-35 1362.25,-47 1362.25,-47 1362.25,-53 1356.25,-59 1350.25,-59"/>
<text xml:space="preserve" text-anchor="middle" x="1309.25" y="-35.58" font-family="Comic Mono" font-size="14.00">Skipped Peer</text>
</g>
<!-- elector&#45;&gt;peer -->
<g id="edge9" class="edge">
<title>elector&#45;&gt;peer</title>
<path fill="none" stroke="#c94d68" d="M897.5,-229.75C897.5,-180.11 897.5,-46.33 897.5,-46.33 897.5,-46.33 1247.33,-46.33 1247.33,-46.33"/>
<polygon fill="#c94d68" stroke="#c94d68" points="1247.33,-48.78 1254.33,-46.33 1247.33,-43.88 1247.33,-48.78"/>
<text xml:space="preserve" text-anchor="middle" x="1099.12" y="-83.5" font-family="Comic Mono" font-size="10.00">return skipped result</text>
</g>
<!-- backend&#45;&gt;elector -->
<g id="edge4" class="edge">
<title>backend&#45;&gt;elector</title>
<path fill="none" stroke="#3e9868" d="M1300.5,-363.73C1300.5,-327.61 1300.5,-250.57 1300.5,-250.57 1300.5,-250.57 962.23,-250.57 962.23,-250.57"/>
<polygon fill="#3e9868" stroke="#3e9868" points="962.23,-248.12 955.23,-250.57 962.23,-253.02 962.23,-248.12"/>
<text xml:space="preserve" text-anchor="middle" x="1099.12" y="-351.5" font-family="Comic Mono" font-size="10.00">owner token accepted</text>
</g>
<!-- backend&#45;&gt;elector -->
<g id="edge8" class="edge">
<title>backend&#45;&gt;elector</title>
<path fill="none" stroke="#c94d68" d="M1317.5,-363.58C1317.5,-326.3 1317.5,-245.43 1317.5,-245.43 1317.5,-245.43 962.1,-245.43 962.1,-245.43"/>
<polygon fill="#c94d68" stroke="#c94d68" points="962.1,-242.98 955.1,-245.43 962.1,-247.88 962.1,-242.98"/>
<text xml:space="preserve" text-anchor="middle" x="1099.12" y="-284.5" font-family="Comic Mono" font-size="10.00">lock already owned</text>
</g>
<!-- work&#45;&gt;elector -->
<g id="edge6" class="edge">
<title>work&#45;&gt;elector</title>
<path fill="none" stroke="#3e9868" d="M1352.5,-200.44C1352.5,-217.52 1352.5,-240.29 1352.5,-240.29 1352.5,-240.29 962.21,-240.29 962.21,-240.29"/>
<polygon fill="#3e9868" stroke="#3e9868" points="962.21,-237.84 955.21,-240.29 962.21,-242.74 962.21,-237.84"/>
<text xml:space="preserve" text-anchor="middle" x="1099.12" y="-150.5" font-family="Comic Mono" font-size="10.00">return leader result</text>
</g>
<!-- peer&#45;&gt;trigger -->
<g id="edge10" class="edge">
<title>peer&#45;&gt;trigger</title>
<path fill="none" stroke="#c94d68" d="M1256,-34.67C1256,-34.67 167.26,-34.67 167.26,-34.67"/>
<polygon fill="#c94d68" stroke="#c94d68" points="167.26,-32.22 160.26,-34.67 167.26,-37.12 167.26,-32.22"/>
<text xml:space="preserve" text-anchor="middle" x="654.5" y="-2.5" font-family="Comic Mono" font-size="10.00">cycle completes without duplicate work</text>
</g>
</g>
</svg>
