<?xml version="1.0" encoding="UTF-8" standalone="no"?>
<!DOCTYPE svg PUBLIC "-//W3C//DTD SVG 1.1//EN"
 "http://www.w3.org/Graphics/SVG/1.1/DTD/svg11.dtd">
<!-- Generated by graphviz version 15.0.0 (20260523.1842)
 -->
<!-- Title: examples&#45;batch&#45;scheduler&#45;flow&#45;01 Pages: 1 -->
<svg width="1660pt" height="127pt"
 viewBox="0.00 0.00 1660.00 127.00" xmlns="http://www.w3.org/2000/svg" xmlns:xlink="http://www.w3.org/1999/xlink">
<g id="graph0" class="graph" transform="scale(1 1) rotate(0) translate(4 123)">
<title>examples&#45;batch&#45;scheduler&#45;flow&#45;01</title>
<!-- start -->
<g id="node1" class="node">
<title>start</title>
<path fill="#f8fafc" stroke="#94a3b8" d="M154,-68C154,-68 12,-68 12,-68 6,-68 0,-62 0,-56 0,-56 0,-44 0,-44 0,-38 6,-32 12,-32 12,-32 154,-32 154,-32 160,-32 166,-38 166,-44 166,-44 166,-56 166,-56 166,-62 160,-68 154,-68"/>
<text xml:space="preserve" text-anchor="middle" x="83" y="-44.58" font-family="Comic Mono" font-size="14.00">Scheduled Batch Tick</text>
</g>
<!-- validate -->
<g id="node2" class="node">
<title>validate</title>
<path fill="#f8fafc" stroke="#94a3b8" d="M429.5,-68C429.5,-68 265,-68 265,-68 259,-68 253,-62 253,-56 253,-56 253,-44 253,-44 253,-38 259,-32 265,-32 265,-32 429.5,-32 429.5,-32 435.5,-32 441.5,-38 441.5,-44 441.5,-44 441.5,-56 441.5,-56 441.5,-62 435.5,-68 429.5,-68"/>
<text xml:space="preserve" text-anchor="middle" x="347.25" y="-44.58" font-family="Comic Mono" font-size="14.00">Validate Example Inputs</text>
</g>
<!-- start&#45;&gt;validate -->
<g id="edge1" class="edge">
<title>start&#45;&gt;validate</title>
<path fill="none" stroke="#758297" d="M166.25,-50C166.25,-50 241.4,-50 241.4,-50"/>
<polygon fill="#758297" stroke="#758297" points="241.4,-53.5 251.4,-50 241.4,-46.5 241.4,-53.5"/>
<text xml:space="preserve" text-anchor="middle" x="209.5" y="-52.5" font-family="Comic Mono" font-size="10.00">call</text>
</g>
<!-- attempt -->
<g id="node3" class="node">
<title>attempt</title>
<path fill="#f8fafc" stroke="#94a3b8" d="M676.5,-68C676.5,-68 572,-68 572,-68 566,-68 560,-62 560,-56 560,-56 560,-44 560,-44 560,-38 566,-32 572,-32 572,-32 676.5,-32 676.5,-32 682.5,-32 688.5,-38 688.5,-44 688.5,-44 688.5,-56 688.5,-56 688.5,-62 682.5,-68 676.5,-68"/>
<text xml:space="preserve" text-anchor="middle" x="624.25" y="-44.58" font-family="Comic Mono" font-size="14.00">Lettuce Elector</text>
</g>
<!-- validate&#45;&gt;attempt -->
<g id="edge2" class="edge">
<title>validate&#45;&gt;attempt</title>
<path fill="none" stroke="#758297" d="M441.8,-50C441.8,-50 548.24,-50 548.24,-50"/>
<polygon fill="#758297" stroke="#758297" points="548.24,-53.5 558.24,-50 548.24,-46.5 548.24,-53.5"/>
<text xml:space="preserve" text-anchor="middle" x="500.75" y="-52.5" font-family="Comic Mono" font-size="10.00">dependency</text>
</g>
<!-- decision -->
<g id="node4" class="node">
<title>decision</title>
<path fill="#f8fafc" stroke="#94a3b8" d="M938.5,-68C938.5,-68 819,-68 819,-68 813,-68 807,-62 807,-56 807,-56 807,-44 807,-44 807,-38 813,-32 819,-32 819,-32 938.5,-32 938.5,-32 944.5,-32 950.5,-38 950.5,-44 950.5,-44 950.5,-56 950.5,-56 950.5,-62 944.5,-68 938.5,-68"/>
<text xml:space="preserve" text-anchor="middle" x="878.75" y="-44.58" font-family="Comic Mono" font-size="14.00">Leadership Result</text>
</g>
<!-- attempt&#45;&gt;decision -->
<g id="edge3" class="edge">
<title>attempt&#45;&gt;decision</title>
<path fill="none" stroke="#758297" d="M688.8,-50C688.8,-50 795.12,-50 795.12,-50"/>
<polygon fill="#758297" stroke="#758297" points="795.12,-53.5 805.12,-50 795.12,-46.5 795.12,-53.5"/>
<text xml:space="preserve" text-anchor="middle" x="747.75" y="-52.5" font-family="Comic Mono" font-size="10.00">contention</text>
</g>
<!-- execute -->
<g id="node6" class="node">
<title>execute</title>
<path fill="#f8fafc" stroke="#94a3b8" d="M1162.25,-119C1162.25,-119 1065.25,-119 1065.25,-119 1059.25,-119 1053.25,-113 1053.25,-107 1053.25,-107 1053.25,-95 1053.25,-95 1053.25,-89 1059.25,-83 1065.25,-83 1065.25,-83 1162.25,-83 1162.25,-83 1168.25,-83 1174.25,-89 1174.25,-95 1174.25,-95 1174.25,-107 1174.25,-107 1174.25,-113 1168.25,-119 1162.25,-119"/>
<text xml:space="preserve" text-anchor="middle" x="1113.75" y="-95.58" font-family="Comic Mono" font-size="14.00">Settlement Job</text>
</g>
<!-- decision&#45;&gt;execute -->
<g id="edge4" class="edge">
<title>decision&#45;&gt;execute</title>
<path fill="none" stroke="#758297" d="M950.94,-57.33C1013.4,-57.33 1093.75,-57.33 1093.75,-57.33 1093.75,-57.33 1093.75,-71.22 1093.75,-71.22"/>
<polygon fill="#758297" stroke="#758297" points="1090.25,-71.22 1093.75,-81.22 1097.25,-71.22 1090.25,-71.22"/>
<text xml:space="preserve" text-anchor="middle" x="1001.88" y="-93.5" font-family="Comic Mono" font-size="10.00">success</text>
</g>
<!-- skipped -->
<g id="node8" class="node">
<title>skipped</title>
<path fill="#f8fafc" stroke="#94a3b8" d="M1162.25,-36C1162.25,-36 1065.25,-36 1065.25,-36 1059.25,-36 1053.25,-30 1053.25,-24 1053.25,-24 1053.25,-12 1053.25,-12 1053.25,-6 1059.25,0 1065.25,0 1065.25,0 1162.25,0 1162.25,0 1168.25,0 1174.25,-6 1174.25,-12 1174.25,-12 1174.25,-24 1174.25,-24 1174.25,-30 1168.25,-36 1162.25,-36"/>
<text xml:space="preserve" text-anchor="middle" x="1113.75" y="-12.57" font-family="Comic Mono" font-size="14.00">Return Skipped</text>
</g>
<!-- decision&#45;&gt;skipped -->
<g id="edge7" class="edge">
<title>decision&#45;&gt;skipped</title>
<path fill="none" stroke="#758297" d="M950.8,-46.67C1026.21,-46.67 1133.75,-46.67 1133.75,-46.67 1133.75,-46.67 1133.75,-45.63 1133.75,-45.63"/>
<polygon fill="#758297" stroke="#758297" points="1137.25,-47.83 1133.75,-37.83 1130.25,-47.83 1137.25,-47.83"/>
<text xml:space="preserve" text-anchor="middle" x="1001.88" y="-20.5" font-family="Comic Mono" font-size="10.00">skip</text>
</g>
<!-- release -->
<g id="node5" class="node">
<title>release</title>
<path fill="#f8fafc" stroke="#94a3b8" d="M1408.5,-119C1408.5,-119 1289,-119 1289,-119 1283,-119 1277,-113 1277,-107 1277,-107 1277,-95 1277,-95 1277,-89 1283,-83 1289,-83 1289,-83 1408.5,-83 1408.5,-83 1414.5,-83 1420.5,-89 1420.5,-95 1420.5,-95 1420.5,-107 1420.5,-107 1420.5,-113 1414.5,-119 1408.5,-119"/>
<text xml:space="preserve" text-anchor="middle" x="1348.75" y="-95.58" font-family="Comic Mono" font-size="14.00">Release Or Extend</text>
</g>
<!-- executed -->
<g id="node7" class="node">
<title>executed</title>
<path fill="#f8fafc" stroke="#94a3b8" d="M1639.75,-119C1639.75,-119 1535.25,-119 1535.25,-119 1529.25,-119 1523.25,-113 1523.25,-107 1523.25,-107 1523.25,-95 1523.25,-95 1523.25,-89 1529.25,-83 1535.25,-83 1535.25,-83 1639.75,-83 1639.75,-83 1645.75,-83 1651.75,-89 1651.75,-95 1651.75,-95 1651.75,-107 1651.75,-107 1651.75,-113 1645.75,-119 1639.75,-119"/>
<text xml:space="preserve" text-anchor="middle" x="1587.5" y="-95.58" font-family="Comic Mono" font-size="14.00">Return Executed</text>
</g>
<!-- release&#45;&gt;executed -->
<g id="edge6" class="edge">
<title>release&#45;&gt;executed</title>
<path fill="none" stroke="#758297" d="M1420.71,-101C1420.71,-101 1511.48,-101 1511.48,-101"/>
<polygon fill="#758297" stroke="#758297" points="1511.48,-104.5 1521.48,-101 1511.48,-97.5 1511.48,-104.5"/>
<text xml:space="preserve" text-anchor="middle" x="1471.88" y="-103.5" font-family="Comic Mono" font-size="10.00">success</text>
</g>
<!-- execute&#45;&gt;release -->
<g id="edge5" class="edge">
<title>execute&#45;&gt;release</title>
<path fill="none" stroke="#758297" d="M1174.57,-101C1174.57,-101 1265.39,-101 1265.39,-101"/>
<polygon fill="#758297" stroke="#758297" points="1265.39,-104.5 1275.39,-101 1265.39,-97.5 1265.39,-104.5"/>
<text xml:space="preserve" text-anchor="middle" x="1225.62" y="-103.5" font-family="Comic Mono" font-size="10.00">release</text>
</g>
</g>
</svg>
