<?xml version="1.0" encoding="UTF-8" standalone="no"?>
<!DOCTYPE svg PUBLIC "-//W3C//DTD SVG 1.1//EN"
 "http://www.w3.org/Graphics/SVG/1.1/DTD/svg11.dtd">
<!-- Generated by graphviz version 15.0.0 (20260523.1842)
 -->
<!-- Title: examples&#45;webhook&#45;poller&#45;scenario&#45;01 Pages: 1 -->
<svg width="838pt" height="210pt"
 viewBox="0.00 0.00 838.00 210.00" xmlns="http://www.w3.org/2000/svg" xmlns:xlink="http://www.w3.org/1999/xlink">
<g id="graph0" class="graph" transform="scale(1 1) rotate(0) translate(4 206)">
<title>examples&#45;webhook&#45;poller&#45;scenario&#45;01</title>
<!-- tick -->
<g id="node1" class="node">
<title>tick</title>
<path fill="#f8fafc" stroke="#94a3b8" d="M71.5,-119C71.5,-119 12,-119 12,-119 6,-119 0,-113 0,-107 0,-107 0,-95 0,-95 0,-89 6,-83 12,-83 12,-83 71.5,-83 71.5,-83 77.5,-83 83.5,-89 83.5,-95 83.5,-95 83.5,-107 83.5,-107 83.5,-113 77.5,-119 71.5,-119"/>
<text xml:space="preserve" text-anchor="middle" x="41.75" y="-95.58" font-family="Comic Mono" font-size="14.00">Poll Loop</text>
</g>
<!-- nodeA -->
<g id="node2" class="node">
<title>nodeA</title>
<path fill="#f8fafc" stroke="#94a3b8" d="M257,-202C257,-202 182.5,-202 182.5,-202 176.5,-202 170.5,-196 170.5,-190 170.5,-190 170.5,-178 170.5,-178 170.5,-172 176.5,-166 182.5,-166 182.5,-166 257,-166 257,-166 263,-166 269,-172 269,-178 269,-178 269,-190 269,-190 269,-196 263,-202 257,-202"/>
<text xml:space="preserve" text-anchor="middle" x="219.75" y="-178.57" font-family="Comic Mono" font-size="14.00">Candidate A</text>
</g>
<!-- tick&#45;&gt;nodeA -->
<g id="edge1" class="edge">
<title>tick&#45;&gt;nodeA</title>
<path fill="none" stroke="#758297" d="M41.75,-119.42C41.75,-143.87 41.75,-184 41.75,-184 41.75,-184 158.65,-184 158.65,-184"/>
<polygon fill="#758297" stroke="#758297" points="158.65,-187.5 168.65,-184 158.65,-180.5 158.65,-187.5"/>
<text xml:space="preserve" text-anchor="middle" x="127" y="-176.5" font-family="Comic Mono" font-size="10.00">call</text>
</g>
<!-- nodeB -->
<g id="node3" class="node">
<title>nodeB</title>
<path fill="#f8fafc" stroke="#94a3b8" d="M257,-119C257,-119 182.5,-119 182.5,-119 176.5,-119 170.5,-113 170.5,-107 170.5,-107 170.5,-95 170.5,-95 170.5,-89 176.5,-83 182.5,-83 182.5,-83 257,-83 257,-83 263,-83 269,-89 269,-95 269,-95 269,-107 269,-107 269,-113 263,-119 257,-119"/>
<text xml:space="preserve" text-anchor="middle" x="219.75" y="-95.58" font-family="Comic Mono" font-size="14.00">Candidate B</text>
</g>
<!-- tick&#45;&gt;nodeB -->
<g id="edge2" class="edge">
<title>tick&#45;&gt;nodeB</title>
<path fill="none" stroke="#758297" d="M83.93,-101C83.93,-101 158.78,-101 158.78,-101"/>
<polygon fill="#758297" stroke="#758297" points="158.78,-104.5 168.78,-101 158.78,-97.5 158.78,-104.5"/>
<text xml:space="preserve" text-anchor="middle" x="127" y="-103.5" font-family="Comic Mono" font-size="10.00">call</text>
</g>
<!-- nodeC -->
<g id="node4" class="node">
<title>nodeC</title>
<path fill="#f8fafc" stroke="#94a3b8" d="M257,-36C257,-36 182.5,-36 182.5,-36 176.5,-36 170.5,-30 170.5,-24 170.5,-24 170.5,-12 170.5,-12 170.5,-6 176.5,0 182.5,0 182.5,0 257,0 257,0 263,0 269,-6 269,-12 269,-12 269,-24 269,-24 269,-30 263,-36 257,-36"/>
<text xml:space="preserve" text-anchor="middle" x="219.75" y="-12.57" font-family="Comic Mono" font-size="14.00">Candidate C</text>
</g>
<!-- tick&#45;&gt;nodeC -->
<g id="edge3" class="edge">
<title>tick&#45;&gt;nodeC</title>
<path fill="none" stroke="#758297" d="M41.75,-82.58C41.75,-58.13 41.75,-18 41.75,-18 41.75,-18 158.65,-18 158.65,-18"/>
<polygon fill="#758297" stroke="#758297" points="158.65,-21.5 168.65,-18 158.65,-14.5 158.65,-21.5"/>
<text xml:space="preserve" text-anchor="middle" x="127" y="-30.5" font-family="Comic Mono" font-size="10.00">call</text>
</g>
<!-- backend -->
<g id="node5" class="node">
<title>backend</title>
<path fill="#f8fafc" stroke="#94a3b8" d="M534,-119C534,-119 399.5,-119 399.5,-119 393.5,-119 387.5,-113 387.5,-107 387.5,-107 387.5,-95 387.5,-95 387.5,-89 393.5,-83 399.5,-83 399.5,-83 534,-83 534,-83 540,-83 546,-89 546,-95 546,-95 546,-107 546,-107 546,-113 540,-119 534,-119"/>
<text xml:space="preserve" text-anchor="middle" x="466.75" y="-95.58" font-family="Comic Mono" font-size="14.00">Mongo lock document</text>
</g>
<!-- nodeA&#45;&gt;backend -->
<g id="edge4" class="edge">
<title>nodeA&#45;&gt;backend</title>
<path fill="none" stroke="#758297" d="M269.44,-184C341.57,-184 466.75,-184 466.75,-184 466.75,-184 466.75,-130.93 466.75,-130.93"/>
<polygon fill="#758297" stroke="#758297" points="470.25,-130.93 466.75,-120.93 463.25,-130.93 470.25,-130.93"/>
<text xml:space="preserve" text-anchor="middle" x="328.25" y="-176.5" font-family="Comic Mono" font-size="10.00">contention</text>
</g>
<!-- nodeB&#45;&gt;backend -->
<g id="edge5" class="edge">
<title>nodeB&#45;&gt;backend</title>
<path fill="none" stroke="#758297" d="M269.44,-101C269.44,-101 375.97,-101 375.97,-101"/>
<polygon fill="#758297" stroke="#758297" points="375.97,-104.5 385.97,-101 375.97,-97.5 375.97,-104.5"/>
<text xml:space="preserve" text-anchor="middle" x="328.25" y="-103.5" font-family="Comic Mono" font-size="10.00">contention</text>
</g>
<!-- nodeC&#45;&gt;backend -->
<g id="edge6" class="edge">
<title>nodeC&#45;&gt;backend</title>
<path fill="none" stroke="#758297" d="M269.44,-18C341.57,-18 466.75,-18 466.75,-18 466.75,-18 466.75,-71.07 466.75,-71.07"/>
<polygon fill="#758297" stroke="#758297" points="463.25,-71.07 466.75,-81.07 470.25,-71.07 463.25,-71.07"/>
<text xml:space="preserve" text-anchor="middle" x="328.25" y="-30.5" font-family="Comic Mono" font-size="10.00">contention</text>
</g>
<!-- recovery -->
<g id="node6" class="node">
<title>recovery</title>
<path fill="#f8fafc" stroke="#94a3b8" d="M817.75,-202C817.75,-202 660.75,-202 660.75,-202 654.75,-202 648.75,-196 648.75,-190 648.75,-190 648.75,-178 648.75,-178 648.75,-172 654.75,-166 660.75,-166 660.75,-166 817.75,-166 817.75,-166 823.75,-166 829.75,-172 829.75,-178 829.75,-178 829.75,-190 829.75,-190 829.75,-196 823.75,-202 817.75,-202"/>
<text xml:space="preserve" text-anchor="middle" x="739.25" y="-178.57" font-family="Comic Mono" font-size="14.00">Claim Timeout Recovery</text>
</g>
<!-- backend&#45;&gt;recovery -->
<g id="edge9" class="edge">
<title>backend&#45;&gt;recovery</title>
<path fill="none" stroke="#758297" d="M546.35,-110C600.26,-110 661.75,-110 661.75,-110 661.75,-110 661.75,-154.19 661.75,-154.19"/>
<polygon fill="#758297" stroke="#758297" points="658.25,-154.19 661.75,-164.19 665.25,-154.19 658.25,-154.19"/>
<text xml:space="preserve" text-anchor="middle" x="597.38" y="-186.5" font-family="Comic Mono" font-size="10.00">release</text>
</g>
<!-- skipped -->
<g id="node7" class="node">
<title>skipped</title>
<path fill="#f8fafc" stroke="#94a3b8" d="M772.75,-119C772.75,-119 705.75,-119 705.75,-119 699.75,-119 693.75,-113 693.75,-107 693.75,-107 693.75,-95 693.75,-95 693.75,-89 699.75,-83 705.75,-83 705.75,-83 772.75,-83 772.75,-83 778.75,-83 784.75,-89 784.75,-95 784.75,-95 784.75,-107 784.75,-107 784.75,-113 778.75,-119 772.75,-119"/>
<text xml:space="preserve" text-anchor="middle" x="739.25" y="-95.58" font-family="Comic Mono" font-size="14.00">Peers Skip</text>
</g>
<!-- backend&#45;&gt;skipped -->
<g id="edge8" class="edge">
<title>backend&#45;&gt;skipped</title>
<path fill="none" stroke="#758297" d="M546.3,-101C546.3,-101 682.12,-101 682.12,-101"/>
<polygon fill="#758297" stroke="#758297" points="682.12,-104.5 692.12,-101 682.12,-97.5 682.12,-104.5"/>
<text xml:space="preserve" text-anchor="middle" x="597.38" y="-103.5" font-family="Comic Mono" font-size="10.00">skip</text>
</g>
<!-- leader -->
<g id="node8" class="node">
<title>leader</title>
<path fill="#f8fafc" stroke="#94a3b8" d="M791.5,-36C791.5,-36 687,-36 687,-36 681,-36 675,-30 675,-24 675,-24 675,-12 675,-12 675,-6 681,0 687,0 687,0 791.5,0 791.5,0 797.5,0 803.5,-6 803.5,-12 803.5,-12 803.5,-24 803.5,-24 803.5,-30 797.5,-36 791.5,-36"/>
<text xml:space="preserve" text-anchor="middle" x="739.25" y="-12.57" font-family="Comic Mono" font-size="14.00">One Leader Runs</text>
</g>
<!-- backend&#45;&gt;leader -->
<g id="edge7" class="edge">
<title>backend&#45;&gt;leader</title>
<path fill="none" stroke="#758297" d="M546.38,-92C608.65,-92 684.75,-92 684.75,-92 684.75,-92 684.75,-47.81 684.75,-47.81"/>
<polygon fill="#758297" stroke="#758297" points="688.25,-47.81 684.75,-37.81 681.25,-47.81 688.25,-47.81"/>
<text xml:space="preserve" text-anchor="middle" x="597.38" y="-20.5" font-family="Comic Mono" font-size="10.00">success</text>
</g>
</g>
</svg>
