<?xml version="1.0" encoding="UTF-8" standalone="no"?>
<!DOCTYPE svg PUBLIC "-//W3C//DTD SVG 1.1//EN"
 "http://www.w3.org/Graphics/SVG/1.1/DTD/svg11.dtd">
<!-- Generated by graphviz version 15.0.0 (20260523.1842)
 -->
<!-- Title: examples&#45;redisson&#45;watchdog&#45;sequence&#45;01 Pages: 1 -->
<svg width="1328pt" height="503pt"
 viewBox="0.00 0.00 1328.00 503.00" xmlns="http://www.w3.org/2000/svg" xmlns:xlink="http://www.w3.org/1999/xlink">
<g id="graph0" class="graph" transform="scale(1 1) rotate(0) translate(4 499)">
<title>examples&#45;redisson&#45;watchdog&#45;sequence&#45;01</title>
<!-- trigger -->
<g id="node1" class="node">
<title>trigger</title>
<path fill="#f8fafc" stroke="#94a3b8" d="M124,-58C124,-58 12,-58 12,-58 6,-58 0,-52 0,-46 0,-46 0,-34 0,-34 0,-28 6,-22 12,-22 12,-22 124,-22 124,-22 130,-22 136,-28 136,-34 136,-34 136,-46 136,-46 136,-52 130,-58 124,-58"/>
<text xml:space="preserve" text-anchor="middle" x="68" y="-34.58" font-family="Comic Mono" font-size="14.00">Long Job Trigger</text>
</g>
<!-- coord -->
<g id="node2" class="node">
<title>coord</title>
<path fill="#f8fafc" stroke="#94a3b8" d="M449,-150C449,-150 329.5,-150 329.5,-150 323.5,-150 317.5,-144 317.5,-138 317.5,-138 317.5,-126 317.5,-126 317.5,-120 323.5,-114 329.5,-114 329.5,-114 449,-114 449,-114 455,-114 461,-120 461,-126 461,-126 461,-138 461,-138 461,-144 455,-150 449,-150"/>
<text xml:space="preserve" text-anchor="middle" x="389.25" y="-126.58" font-family="Comic Mono" font-size="14.00">WatchdogJobRunner</text>
</g>
<!-- trigger&#45;&gt;coord -->
<g id="edge1" class="edge">
<title>trigger&#45;&gt;coord</title>
<path fill="none" stroke="#4f83bf" d="M67.5,-58.18C67.5,-84.99 67.5,-132 67.5,-132 67.5,-132 308.53,-132 308.53,-132"/>
<polygon fill="#4f83bf" stroke="#4f83bf" points="308.53,-134.45 315.53,-132 308.53,-129.55 308.53,-134.45"/>
<text xml:space="preserve" text-anchor="middle" x="226.75" y="-89.5" font-family="Comic Mono" font-size="10.00">start long job trigger</text>
</g>
<!-- elector -->
<g id="node3" class="node">
<title>elector</title>
<path fill="#f8fafc" stroke="#94a3b8" d="M888,-266C888,-266 738.5,-266 738.5,-266 732.5,-266 726.5,-260 726.5,-254 726.5,-254 726.5,-242 726.5,-242 726.5,-236 732.5,-230 738.5,-230 738.5,-230 888,-230 888,-230 894,-230 900,-236 900,-242 900,-242 900,-254 900,-254 900,-260 894,-266 888,-266"/>
<text xml:space="preserve" text-anchor="middle" x="813.25" y="-242.57" font-family="Comic Mono" font-size="14.00">RedissonLeaderElector</text>
</g>
<!-- coord&#45;&gt;elector -->
<g id="edge2" class="edge">
<title>coord&#45;&gt;elector</title>
<path fill="none" stroke="#4f83bf" d="M389.5,-150.38C389.5,-183.09 389.5,-248 389.5,-248 389.5,-248 717.71,-248 717.71,-248"/>
<polygon fill="#4f83bf" stroke="#4f83bf" points="717.71,-250.45 724.71,-248 717.71,-245.55 717.71,-250.45"/>
<text xml:space="preserve" text-anchor="middle" x="593.75" y="-211.5" font-family="Comic Mono" font-size="10.00">runIfLeader with source options</text>
</g>
<!-- backend -->
<g id="node4" class="node">
<title>backend</title>
<path fill="#f8fafc" stroke="#94a3b8" d="M1292.5,-400C1292.5,-400 1203,-400 1203,-400 1197,-400 1191,-394 1191,-388 1191,-388 1191,-376 1191,-376 1191,-370 1197,-364 1203,-364 1203,-364 1292.5,-364 1292.5,-364 1298.5,-364 1304.5,-370 1304.5,-376 1304.5,-376 1304.5,-388 1304.5,-388 1304.5,-394 1298.5,-400 1292.5,-400"/>
<text xml:space="preserve" text-anchor="middle" x="1247.75" y="-376.57" font-family="Comic Mono" font-size="14.00">RLock storage</text>
</g>
<!-- elector&#45;&gt;backend -->
<g id="edge3" class="edge">
<title>elector&#45;&gt;backend</title>
<path fill="none" stroke="#b9851b" d="M900.1,-260.86C1017.82,-260.86 1213.5,-260.86 1213.5,-260.86 1213.5,-260.86 1213.5,-355.09 1213.5,-355.09"/>
<polygon fill="#b9851b" stroke="#b9851b" points="1211.05,-355.09 1213.5,-362.09 1215.95,-355.09 1211.05,-355.09"/>
<text xml:space="preserve" text-anchor="middle" x="1038" y="-485.5" font-family="Comic Mono" font-size="10.00">attempt backend ownership</text>
</g>
<!-- elector&#45;&gt;backend -->
<g id="edge7" class="edge">
<title>elector&#45;&gt;backend</title>
<path fill="none" stroke="#755bc6" d="M900.43,-255.71C1024.34,-255.71 1236.5,-255.71 1236.5,-255.71 1236.5,-255.71 1236.5,-355.12 1236.5,-355.12"/>
<polygon fill="#755bc6" stroke="#755bc6" points="1234.05,-355.12 1236.5,-362.12 1238.95,-355.12 1234.05,-355.12"/>
<text xml:space="preserve" text-anchor="middle" x="1038" y="-418.5" font-family="Comic Mono" font-size="10.00">release or renew for auto&#45;extension stop</text>
</g>
<!-- work -->
<g id="node5" class="node">
<title>work</title>
<path fill="#f8fafc" stroke="#94a3b8" d="M1307.5,-200C1307.5,-200 1188,-200 1188,-200 1182,-200 1176,-194 1176,-188 1176,-188 1176,-176 1176,-176 1176,-170 1182,-164 1188,-164 1188,-164 1307.5,-164 1307.5,-164 1313.5,-164 1319.5,-170 1319.5,-176 1319.5,-176 1319.5,-188 1319.5,-188 1319.5,-194 1313.5,-200 1307.5,-200"/>
<text xml:space="preserve" text-anchor="middle" x="1247.75" y="-176.57" font-family="Comic Mono" font-size="14.00">Long&#45;Running Body</text>
</g>
<!-- elector&#45;&gt;work -->
<g id="edge5" class="edge">
<title>elector&#45;&gt;work</title>
<path fill="none" stroke="#3e9868" d="M900.28,-235.14C1008.88,-235.14 1180.5,-235.14 1180.5,-235.14 1180.5,-235.14 1180.5,-208.8 1180.5,-208.8"/>
<polygon fill="#3e9868" stroke="#3e9868" points="1182.95,-208.8 1180.5,-201.8 1178.05,-208.8 1182.95,-208.8"/>
<text xml:space="preserve" text-anchor="middle" x="1038" y="-217.5" font-family="Comic Mono" font-size="10.00">execute long&#45;running body</text>
</g>
<!-- peer -->
<g id="node6" class="node">
<title>peer</title>
<path fill="#f8fafc" stroke="#94a3b8" d="M1288.75,-59C1288.75,-59 1206.75,-59 1206.75,-59 1200.75,-59 1194.75,-53 1194.75,-47 1194.75,-47 1194.75,-35 1194.75,-35 1194.75,-29 1200.75,-23 1206.75,-23 1206.75,-23 1288.75,-23 1288.75,-23 1294.75,-23 1300.75,-29 1300.75,-35 1300.75,-35 1300.75,-47 1300.75,-47 1300.75,-53 1294.75,-59 1288.75,-59"/>
<text xml:space="preserve" text-anchor="middle" x="1247.75" y="-35.58" font-family="Comic Mono" font-size="14.00">Skipped Peer</text>
</g>
<!-- elector&#45;&gt;peer -->
<g id="edge9" class="edge">
<title>elector&#45;&gt;peer</title>
<path fill="none" stroke="#c94d68" d="M813.5,-229.75C813.5,-180.11 813.5,-46.33 813.5,-46.33 813.5,-46.33 1185.99,-46.33 1185.99,-46.33"/>
<polygon fill="#c94d68" stroke="#c94d68" points="1185.99,-48.78 1192.99,-46.33 1185.99,-43.88 1185.99,-48.78"/>
<text xml:space="preserve" text-anchor="middle" x="1038" y="-83.5" font-family="Comic Mono" font-size="10.00">return skipped result</text>
</g>
<!-- backend&#45;&gt;elector -->
<g id="edge4" class="edge">
<title>backend&#45;&gt;elector</title>
<path fill="none" stroke="#3e9868" d="M1259.5,-363.73C1259.5,-327.61 1259.5,-250.57 1259.5,-250.57 1259.5,-250.57 908.86,-250.57 908.86,-250.57"/>
<polygon fill="#3e9868" stroke="#3e9868" points="908.86,-248.12 901.86,-250.57 908.86,-253.02 908.86,-248.12"/>
<text xml:space="preserve" text-anchor="middle" x="1038" y="-351.5" font-family="Comic Mono" font-size="10.00">owner token accepted</text>
</g>
<!-- backend&#45;&gt;elector -->
<g id="edge8" class="edge">
<title>backend&#45;&gt;elector</title>
<path fill="none" stroke="#c94d68" d="M1281.5,-363.58C1281.5,-326.3 1281.5,-245.43 1281.5,-245.43 1281.5,-245.43 908.74,-245.43 908.74,-245.43"/>
<polygon fill="#c94d68" stroke="#c94d68" points="908.74,-242.98 901.74,-245.43 908.74,-247.88 908.74,-242.98"/>
<text xml:space="preserve" text-anchor="middle" x="1038" y="-284.5" font-family="Comic Mono" font-size="10.00">lock already owned</text>
</g>
<!-- work&#45;&gt;elector -->
<g id="edge6" class="edge">
<title>work&#45;&gt;elector</title>
<path fill="none" stroke="#3e9868" d="M1185.5,-200.44C1185.5,-217.52 1185.5,-240.29 1185.5,-240.29 1185.5,-240.29 908.57,-240.29 908.57,-240.29"/>
<polygon fill="#3e9868" stroke="#3e9868" points="908.57,-237.84 901.57,-240.29 908.57,-242.74 908.57,-237.84"/>
<text xml:space="preserve" text-anchor="middle" x="1038" y="-150.5" font-family="Comic Mono" font-size="10.00">return leader result</text>
</g>
<!-- peer&#45;&gt;trigger -->
<g id="edge10" class="edge">
<title>peer&#45;&gt;trigger</title>
<path fill="none" stroke="#c94d68" d="M1194.38,-34.67C1194.38,-34.67 144.97,-34.67 144.97,-34.67"/>
<polygon fill="#c94d68" stroke="#c94d68" points="144.97,-32.22 137.97,-34.67 144.97,-37.12 144.97,-32.22"/>
<text xml:space="preserve" text-anchor="middle" x="593.75" y="-2.5" font-family="Comic Mono" font-size="10.00">cycle completes without duplicate work</text>
</g>
</g>
</svg>
