<?xml version="1.0" encoding="UTF-8" standalone="no"?>
<!DOCTYPE svg PUBLIC "-//W3C//DTD SVG 1.1//EN"
 "http://www.w3.org/Graphics/SVG/1.1/DTD/svg11.dtd">
<!-- Generated by graphviz version 15.0.0 (20260523.1842)
 -->
<!-- Title: examples&#45;prometheus&#45;dashboard&#45;architecture&#45;01 Pages: 1 -->
<svg width="1413pt" height="136pt"
 viewBox="0.00 0.00 1413.00 136.00" xmlns="http://www.w3.org/2000/svg" xmlns:xlink="http://www.w3.org/1999/xlink">
<g id="graph0" class="graph" transform="scale(1 1) rotate(0) translate(4 132)">
<title>examples&#45;prometheus&#45;dashboard&#45;architecture&#45;01</title>
<!-- trigger -->
<g id="node1" class="node">
<title>trigger</title>
<path fill="#f8fafc" stroke="#94a3b8" d="M154,-77C154,-77 12,-77 12,-77 6,-77 0,-71 0,-65 0,-65 0,-53 0,-53 0,-47 6,-41 12,-41 12,-41 154,-41 154,-41 160,-41 166,-47 166,-53 166,-53 166,-65 166,-65 166,-71 160,-77 154,-77"/>
<text xml:space="preserve" text-anchor="middle" x="83" y="-53.58" font-family="Comic Mono" font-size="14.00">Scheduled Metric Job</text>
</g>
<!-- nodeA -->
<g id="node2" class="node">
<title>nodeA</title>
<path fill="#f8fafc" stroke="#94a3b8" d="M377,-119C377,-119 265,-119 265,-119 259,-119 253,-113 253,-107 253,-107 253,-95 253,-95 253,-89 259,-83 265,-83 265,-83 377,-83 377,-83 383,-83 389,-89 389,-95 389,-95 389,-107 389,-107 389,-113 383,-119 377,-119"/>
<text xml:space="preserve" text-anchor="middle" x="321" y="-95.58" font-family="Comic Mono" font-size="14.00">Candidate Node A</text>
</g>
<!-- trigger&#45;&gt;nodeA -->
<g id="edge1" class="edge">
<title>trigger&#45;&gt;nodeA</title>
<path fill="none" stroke="#758297" d="M166.41,-65C227.13,-65 298.75,-65 298.75,-65 298.75,-65 298.75,-71.06 298.75,-71.06"/>
<polygon fill="#758297" stroke="#758297" points="295.25,-71.06 298.75,-81.06 302.25,-71.06 295.25,-71.06"/>
<text xml:space="preserve" text-anchor="middle" x="209.5" y="-98.5" font-family="Comic Mono" font-size="10.00">call</text>
</g>
<!-- nodeB -->
<g id="node3" class="node">
<title>nodeB</title>
<path fill="#f8fafc" stroke="#94a3b8" d="M377,-36C377,-36 265,-36 265,-36 259,-36 253,-30 253,-24 253,-24 253,-12 253,-12 253,-6 259,0 265,0 265,0 377,0 377,0 383,0 389,-6 389,-12 389,-12 389,-24 389,-24 389,-30 383,-36 377,-36"/>
<text xml:space="preserve" text-anchor="middle" x="321" y="-12.57" font-family="Comic Mono" font-size="14.00">Candidate Node B</text>
</g>
<!-- trigger&#45;&gt;nodeB -->
<g id="edge2" class="edge">
<title>trigger&#45;&gt;nodeB</title>
<path fill="none" stroke="#758297" d="M166.22,-53C242.53,-53 343.75,-53 343.75,-53 343.75,-53 343.75,-47.83 343.75,-47.83"/>
<polygon fill="#758297" stroke="#758297" points="347.25,-47.83 343.75,-37.83 340.25,-47.83 347.25,-47.83"/>
<text xml:space="preserve" text-anchor="middle" x="209.5" y="-29.5" font-family="Comic Mono" font-size="10.00">call</text>
</g>
<!-- coordinator -->
<g id="node4" class="node">
<title>coordinator</title>
<path fill="#f8fafc" stroke="#94a3b8" d="M592.5,-77C592.5,-77 488,-77 488,-77 482,-77 476,-71 476,-65 476,-65 476,-53 476,-53 476,-47 482,-41 488,-41 488,-41 592.5,-41 592.5,-41 598.5,-41 604.5,-47 604.5,-53 604.5,-53 604.5,-65 604.5,-65 604.5,-71 598.5,-77 592.5,-77"/>
<text xml:space="preserve" text-anchor="middle" x="540.25" y="-53.58" font-family="Comic Mono" font-size="14.00">Leader job bean</text>
</g>
<!-- nodeA&#45;&gt;coordinator -->
<g id="edge3" class="edge">
<title>nodeA&#45;&gt;coordinator</title>
<path fill="none" stroke="#758297" d="M389.33,-87.5C446.49,-87.5 518.75,-87.5 518.75,-87.5 518.75,-87.5 518.75,-86.47 518.75,-86.47"/>
<polygon fill="#758297" stroke="#758297" points="522.25,-88.72 518.75,-78.72 515.25,-88.72 522.25,-88.72"/>
<text xml:space="preserve" text-anchor="middle" x="432.5" y="-98.5" font-family="Comic Mono" font-size="10.00">call</text>
</g>
<!-- nodeB&#45;&gt;coordinator -->
<g id="edge4" class="edge">
<title>nodeB&#45;&gt;coordinator</title>
<path fill="none" stroke="#758297" d="M389.33,-27C446.49,-27 518.75,-27 518.75,-27 518.75,-27 518.75,-29.24 518.75,-29.24"/>
<polygon fill="#758297" stroke="#758297" points="515.25,-29.24 518.75,-39.24 522.25,-29.24 515.25,-29.24"/>
<text xml:space="preserve" text-anchor="middle" x="432.5" y="-29.5" font-family="Comic Mono" font-size="10.00">call</text>
</g>
<!-- elector -->
<g id="node6" class="node">
<title>elector</title>
<path fill="#f8fafc" stroke="#94a3b8" d="M903.25,-128C903.25,-128 738.75,-128 738.75,-128 732.75,-128 726.75,-122 726.75,-116 726.75,-116 726.75,-104 726.75,-104 726.75,-98 732.75,-92 738.75,-92 738.75,-92 903.25,-92 903.25,-92 909.25,-92 915.25,-98 915.25,-104 915.25,-104 915.25,-116 915.25,-116 915.25,-122 909.25,-128 903.25,-128"/>
<text xml:space="preserve" text-anchor="middle" x="821" y="-104.58" font-family="Comic Mono" font-size="14.00">Spring AOP leader proxy</text>
</g>
<!-- coordinator&#45;&gt;elector -->
<g id="edge5" class="edge">
<title>coordinator&#45;&gt;elector</title>
<path fill="none" stroke="#758297" d="M561.75,-77.38C561.75,-90.38 561.75,-105.5 561.75,-105.5 561.75,-105.5 714.79,-105.5 714.79,-105.5"/>
<polygon fill="#758297" stroke="#758297" points="714.79,-109 724.79,-105.5 714.79,-102 714.79,-109"/>
<text xml:space="preserve" text-anchor="middle" x="663.75" y="-102.5" font-family="Comic Mono" font-size="10.00">dependency</text>
</g>
<!-- work -->
<g id="node8" class="node">
<title>work</title>
<path fill="#f8fafc" stroke="#94a3b8" d="M907,-45C907,-45 735,-45 735,-45 729,-45 723,-39 723,-33 723,-33 723,-21 723,-21 723,-15 729,-9 735,-9 735,-9 907,-9 907,-9 913,-9 919,-15 919,-21 919,-21 919,-33 919,-33 919,-39 913,-45 907,-45"/>
<text xml:space="preserve" text-anchor="middle" x="821" y="-21.57" font-family="Comic Mono" font-size="14.00">Record Micrometer Meters</text>
</g>
<!-- coordinator&#45;&gt;work -->
<g id="edge7" class="edge">
<title>coordinator&#45;&gt;work</title>
<path fill="none" stroke="#758297" d="M561.75,-40.9C561.75,-29.91 561.75,-18 561.75,-18 561.75,-18 711.11,-18 711.11,-18"/>
<polygon fill="#758297" stroke="#758297" points="711.11,-21.5 721.11,-18 711.11,-14.5 711.11,-21.5"/>
<text xml:space="preserve" text-anchor="middle" x="663.75" y="-29.5" font-family="Comic Mono" font-size="10.00">success</text>
</g>
<!-- backend -->
<g id="node5" class="node">
<title>backend</title>
<path fill="#f8fafc" stroke="#94a3b8" d="M1146.5,-128C1146.5,-128 1049.5,-128 1049.5,-128 1043.5,-128 1037.5,-122 1037.5,-116 1037.5,-116 1037.5,-104 1037.5,-104 1037.5,-98 1043.5,-92 1049.5,-92 1049.5,-92 1146.5,-92 1146.5,-92 1152.5,-92 1158.5,-98 1158.5,-104 1158.5,-104 1158.5,-116 1158.5,-116 1158.5,-122 1152.5,-128 1146.5,-128"/>
<text xml:space="preserve" text-anchor="middle" x="1098" y="-104.58" font-family="Comic Mono" font-size="14.00">Redis lock key</text>
</g>
<!-- recovery -->
<g id="node7" class="node">
<title>recovery</title>
<path fill="#f8fafc" stroke="#94a3b8" d="M1392.75,-128C1392.75,-128 1273.25,-128 1273.25,-128 1267.25,-128 1261.25,-122 1261.25,-116 1261.25,-116 1261.25,-104 1261.25,-104 1261.25,-98 1267.25,-92 1273.25,-92 1273.25,-92 1392.75,-92 1392.75,-92 1398.75,-92 1404.75,-98 1404.75,-104 1404.75,-104 1404.75,-116 1404.75,-116 1404.75,-122 1398.75,-128 1392.75,-128"/>
<text xml:space="preserve" text-anchor="middle" x="1333" y="-104.58" font-family="Comic Mono" font-size="14.00">Prometheus Scrape</text>
</g>
<!-- backend&#45;&gt;recovery -->
<g id="edge8" class="edge">
<title>backend&#45;&gt;recovery</title>
<path fill="none" stroke="#758297" d="M1158.82,-110C1158.82,-110 1249.64,-110 1249.64,-110"/>
<polygon fill="#758297" stroke="#758297" points="1249.64,-113.5 1259.64,-110 1249.64,-106.5 1249.64,-113.5"/>
<text xml:space="preserve" text-anchor="middle" x="1209.88" y="-112.5" font-family="Comic Mono" font-size="10.00">release</text>
</g>
<!-- elector&#45;&gt;backend -->
<g id="edge6" class="edge">
<title>elector&#45;&gt;backend</title>
<path fill="none" stroke="#758297" d="M915.55,-110C915.55,-110 1025.77,-110 1025.77,-110"/>
<polygon fill="#758297" stroke="#758297" points="1025.77,-113.5 1035.77,-110 1025.77,-106.5 1025.77,-113.5"/>
<text xml:space="preserve" text-anchor="middle" x="978.25" y="-112.5" font-family="Comic Mono" font-size="10.00">contention</text>
</g>
</g>
</svg>
