<?xml version="1.0" encoding="UTF-8" standalone="no"?>
<!DOCTYPE svg PUBLIC "-//W3C//DTD SVG 1.1//EN"
 "http://www.w3.org/Graphics/SVG/1.1/DTD/svg11.dtd">
<!-- Generated by graphviz version 15.0.0 (20260523.1842)
 -->
<!-- Title: examples&#45;webhook&#45;poller&#45;architecture&#45;01 Pages: 1 -->
<svg width="1360pt" height="136pt"
 viewBox="0.00 0.00 1360.00 136.00" xmlns="http://www.w3.org/2000/svg" xmlns:xlink="http://www.w3.org/1999/xlink">
<g id="graph0" class="graph" transform="scale(1 1) rotate(0) translate(4 132)">
<title>examples&#45;webhook&#45;poller&#45;architecture&#45;01</title>
<!-- trigger -->
<g id="node1" class="node">
<title>trigger</title>
<path fill="#f8fafc" stroke="#94a3b8" d="M71.5,-77C71.5,-77 12,-77 12,-77 6,-77 0,-71 0,-65 0,-65 0,-53 0,-53 0,-47 6,-41 12,-41 12,-41 71.5,-41 71.5,-41 77.5,-41 83.5,-47 83.5,-53 83.5,-53 83.5,-65 83.5,-65 83.5,-71 77.5,-77 71.5,-77"/>
<text xml:space="preserve" text-anchor="middle" x="41.75" y="-53.58" font-family="Comic Mono" font-size="14.00">Poll Loop</text>
</g>
<!-- nodeA -->
<g id="node2" class="node">
<title>nodeA</title>
<path fill="#f8fafc" stroke="#94a3b8" d="M294.5,-119C294.5,-119 182.5,-119 182.5,-119 176.5,-119 170.5,-113 170.5,-107 170.5,-107 170.5,-95 170.5,-95 170.5,-89 176.5,-83 182.5,-83 182.5,-83 294.5,-83 294.5,-83 300.5,-83 306.5,-89 306.5,-95 306.5,-95 306.5,-107 306.5,-107 306.5,-113 300.5,-119 294.5,-119"/>
<text xml:space="preserve" text-anchor="middle" x="238.5" y="-95.58" font-family="Comic Mono" font-size="14.00">Candidate Node A</text>
</g>
<!-- trigger&#45;&gt;nodeA -->
<g id="edge1" class="edge">
<title>trigger&#45;&gt;nodeA</title>
<path fill="none" stroke="#758297" d="M41.25,-77.06C41.25,-88.44 41.25,-101 41.25,-101 41.25,-101 158.55,-101 158.55,-101"/>
<polygon fill="#758297" stroke="#758297" points="158.55,-104.5 168.55,-101 158.55,-97.5 158.55,-104.5"/>
<text xml:space="preserve" text-anchor="middle" x="127" y="-98.5" font-family="Comic Mono" font-size="10.00">call</text>
</g>
<!-- nodeB -->
<g id="node3" class="node">
<title>nodeB</title>
<path fill="#f8fafc" stroke="#94a3b8" d="M294.5,-36C294.5,-36 182.5,-36 182.5,-36 176.5,-36 170.5,-30 170.5,-24 170.5,-24 170.5,-12 170.5,-12 170.5,-6 176.5,0 182.5,0 182.5,0 294.5,0 294.5,0 300.5,0 306.5,-6 306.5,-12 306.5,-12 306.5,-24 306.5,-24 306.5,-30 300.5,-36 294.5,-36"/>
<text xml:space="preserve" text-anchor="middle" x="238.5" y="-12.57" font-family="Comic Mono" font-size="14.00">Candidate Node B</text>
</g>
<!-- trigger&#45;&gt;nodeB -->
<g id="edge2" class="edge">
<title>trigger&#45;&gt;nodeB</title>
<path fill="none" stroke="#758297" d="M41.25,-40.9C41.25,-29.91 41.25,-18 41.25,-18 41.25,-18 158.55,-18 158.55,-18"/>
<polygon fill="#758297" stroke="#758297" points="158.55,-21.5 168.55,-18 158.55,-14.5 158.55,-21.5"/>
<text xml:space="preserve" text-anchor="middle" x="127" y="-29.5" font-family="Comic Mono" font-size="10.00">call</text>
</g>
<!-- coordinator -->
<g id="node4" class="node">
<title>coordinator</title>
<path fill="#f8fafc" stroke="#94a3b8" d="M495,-77C495,-77 405.5,-77 405.5,-77 399.5,-77 393.5,-71 393.5,-65 393.5,-65 393.5,-53 393.5,-53 393.5,-47 399.5,-41 405.5,-41 405.5,-41 495,-41 495,-41 501,-41 507,-47 507,-53 507,-53 507,-65 507,-65 507,-71 501,-77 495,-77"/>
<text xml:space="preserve" text-anchor="middle" x="450.25" y="-53.58" font-family="Comic Mono" font-size="14.00">WebhookPoller</text>
</g>
<!-- nodeA&#45;&gt;coordinator -->
<g id="edge3" class="edge">
<title>nodeA&#45;&gt;coordinator</title>
<path fill="none" stroke="#758297" d="M307,-87.5C362.4,-87.5 431.25,-87.5 431.25,-87.5 431.25,-87.5 431.25,-86.47 431.25,-86.47"/>
<polygon fill="#758297" stroke="#758297" points="434.75,-88.72 431.25,-78.72 427.75,-88.72 434.75,-88.72"/>
<text xml:space="preserve" text-anchor="middle" x="350" y="-98.5" font-family="Comic Mono" font-size="10.00">call</text>
</g>
<!-- nodeB&#45;&gt;coordinator -->
<g id="edge4" class="edge">
<title>nodeB&#45;&gt;coordinator</title>
<path fill="none" stroke="#758297" d="M307,-27C362.4,-27 431.25,-27 431.25,-27 431.25,-27 431.25,-29.24 431.25,-29.24"/>
<polygon fill="#758297" stroke="#758297" points="427.75,-29.24 431.25,-39.24 434.75,-29.24 427.75,-29.24"/>
<text xml:space="preserve" text-anchor="middle" x="350" y="-29.5" font-family="Comic Mono" font-size="10.00">call</text>
</g>
<!-- elector -->
<g id="node6" class="node">
<title>elector</title>
<path fill="#f8fafc" stroke="#94a3b8" d="M779.5,-128C779.5,-128 637.5,-128 637.5,-128 631.5,-128 625.5,-122 625.5,-116 625.5,-116 625.5,-104 625.5,-104 625.5,-98 631.5,-92 637.5,-92 637.5,-92 779.5,-92 779.5,-92 785.5,-92 791.5,-98 791.5,-104 791.5,-104 791.5,-116 791.5,-116 791.5,-122 785.5,-128 779.5,-128"/>
<text xml:space="preserve" text-anchor="middle" x="708.5" y="-104.58" font-family="Comic Mono" font-size="14.00">Mongo leader elector</text>
</g>
<!-- coordinator&#45;&gt;elector -->
<g id="edge5" class="edge">
<title>coordinator&#45;&gt;elector</title>
<path fill="none" stroke="#758297" d="M469.25,-77.38C469.25,-90.38 469.25,-105.5 469.25,-105.5 469.25,-105.5 613.64,-105.5 613.64,-105.5"/>
<polygon fill="#758297" stroke="#758297" points="613.64,-109 623.64,-105.5 613.64,-102 613.64,-109"/>
<text xml:space="preserve" text-anchor="middle" x="566.25" y="-102.5" font-family="Comic Mono" font-size="10.00">dependency</text>
</g>
<!-- work -->
<g id="node8" class="node">
<title>work</title>
<path fill="#f8fafc" stroke="#94a3b8" d="M775.75,-45C775.75,-45 641.25,-45 641.25,-45 635.25,-45 629.25,-39 629.25,-33 629.25,-33 629.25,-21 629.25,-21 629.25,-15 635.25,-9 641.25,-9 641.25,-9 775.75,-9 775.75,-9 781.75,-9 787.75,-15 787.75,-21 787.75,-21 787.75,-33 787.75,-33 787.75,-39 781.75,-45 775.75,-45"/>
<text xml:space="preserve" text-anchor="middle" x="708.5" y="-21.57" font-family="Comic Mono" font-size="14.00">Claim Webhook Event</text>
</g>
<!-- coordinator&#45;&gt;work -->
<g id="edge7" class="edge">
<title>coordinator&#45;&gt;work</title>
<path fill="none" stroke="#758297" d="M469.25,-40.9C469.25,-29.91 469.25,-18 469.25,-18 469.25,-18 617.32,-18 617.32,-18"/>
<polygon fill="#758297" stroke="#758297" points="617.32,-21.5 627.32,-18 617.32,-14.5 617.32,-21.5"/>
<text xml:space="preserve" text-anchor="middle" x="566.25" y="-29.5" font-family="Comic Mono" font-size="10.00">success</text>
</g>
<!-- backend -->
<g id="node5" class="node">
<title>backend</title>
<path fill="#f8fafc" stroke="#94a3b8" d="M1056.5,-128C1056.5,-128 922,-128 922,-128 916,-128 910,-122 910,-116 910,-116 910,-104 910,-104 910,-98 916,-92 922,-92 922,-92 1056.5,-92 1056.5,-92 1062.5,-92 1068.5,-98 1068.5,-104 1068.5,-104 1068.5,-116 1068.5,-116 1068.5,-122 1062.5,-128 1056.5,-128"/>
<text xml:space="preserve" text-anchor="middle" x="989.25" y="-104.58" font-family="Comic Mono" font-size="14.00">Mongo lock document</text>
</g>
<!-- recovery -->
<g id="node7" class="node">
<title>recovery</title>
<path fill="#f8fafc" stroke="#94a3b8" d="M1340.25,-128C1340.25,-128 1183.25,-128 1183.25,-128 1177.25,-128 1171.25,-122 1171.25,-116 1171.25,-116 1171.25,-104 1171.25,-104 1171.25,-98 1177.25,-92 1183.25,-92 1183.25,-92 1340.25,-92 1340.25,-92 1346.25,-92 1352.25,-98 1352.25,-104 1352.25,-104 1352.25,-116 1352.25,-116 1352.25,-122 1346.25,-128 1340.25,-128"/>
<text xml:space="preserve" text-anchor="middle" x="1261.75" y="-104.58" font-family="Comic Mono" font-size="14.00">Claim Timeout Recovery</text>
</g>
<!-- backend&#45;&gt;recovery -->
<g id="edge8" class="edge">
<title>backend&#45;&gt;recovery</title>
<path fill="none" stroke="#758297" d="M1068.8,-110C1068.8,-110 1159.56,-110 1159.56,-110"/>
<polygon fill="#758297" stroke="#758297" points="1159.56,-113.5 1169.56,-110 1159.56,-106.5 1159.56,-113.5"/>
<text xml:space="preserve" text-anchor="middle" x="1119.88" y="-112.5" font-family="Comic Mono" font-size="10.00">release</text>
</g>
<!-- elector&#45;&gt;backend -->
<g id="edge6" class="edge">
<title>elector&#45;&gt;backend</title>
<path fill="none" stroke="#758297" d="M791.97,-110C791.97,-110 898.44,-110 898.44,-110"/>
<polygon fill="#758297" stroke="#758297" points="898.44,-113.5 908.44,-110 898.44,-106.5 898.44,-113.5"/>
<text xml:space="preserve" text-anchor="middle" x="850.75" y="-112.5" font-family="Comic Mono" font-size="10.00">contention</text>
</g>
</g>
</svg>
