<?xml version="1.0" encoding="UTF-8" standalone="no"?>
<!DOCTYPE svg PUBLIC "-//W3C//DTD SVG 1.1//EN"
 "http://www.w3.org/Graphics/SVG/1.1/DTD/svg11.dtd">
<!-- Generated by graphviz version 15.0.0 (20260523.1842)
 -->
<!-- Title: examples&#45;tenant&#45;aggregator&#45;architecture&#45;01 Pages: 1 -->
<svg width="1398pt" height="136pt"
 viewBox="0.00 0.00 1398.00 136.00" xmlns="http://www.w3.org/2000/svg" xmlns:xlink="http://www.w3.org/1999/xlink">
<g id="graph0" class="graph" transform="scale(1 1) rotate(0) translate(4 132)">
<title>examples&#45;tenant&#45;aggregator&#45;architecture&#45;01</title>
<!-- trigger -->
<g id="node1" class="node">
<title>trigger</title>
<path fill="#f8fafc" stroke="#94a3b8" d="M94,-77C94,-77 12,-77 12,-77 6,-77 0,-71 0,-65 0,-65 0,-53 0,-53 0,-47 6,-41 12,-41 12,-41 94,-41 94,-41 100,-41 106,-47 106,-53 106,-53 106,-65 106,-65 106,-71 100,-77 94,-77"/>
<text xml:space="preserve" text-anchor="middle" x="53" y="-53.58" font-family="Comic Mono" font-size="14.00">Tenant Cycle</text>
</g>
<!-- nodeA -->
<g id="node2" class="node">
<title>nodeA</title>
<path fill="#f8fafc" stroke="#94a3b8" d="M317,-119C317,-119 205,-119 205,-119 199,-119 193,-113 193,-107 193,-107 193,-95 193,-95 193,-89 199,-83 205,-83 205,-83 317,-83 317,-83 323,-83 329,-89 329,-95 329,-95 329,-107 329,-107 329,-113 323,-119 317,-119"/>
<text xml:space="preserve" text-anchor="middle" x="261" y="-95.58" font-family="Comic Mono" font-size="14.00">Candidate Node A</text>
</g>
<!-- trigger&#45;&gt;nodeA -->
<g id="edge1" class="edge">
<title>trigger&#45;&gt;nodeA</title>
<path fill="none" stroke="#758297" d="M52.75,-77.06C52.75,-88.44 52.75,-101 52.75,-101 52.75,-101 181.01,-101 181.01,-101"/>
<polygon fill="#758297" stroke="#758297" points="181.01,-104.5 191.01,-101 181.01,-97.5 181.01,-104.5"/>
<text xml:space="preserve" text-anchor="middle" x="149.5" y="-98.5" font-family="Comic Mono" font-size="10.00">call</text>
</g>
<!-- nodeB -->
<g id="node3" class="node">
<title>nodeB</title>
<path fill="#f8fafc" stroke="#94a3b8" d="M317,-36C317,-36 205,-36 205,-36 199,-36 193,-30 193,-24 193,-24 193,-12 193,-12 193,-6 199,0 205,0 205,0 317,0 317,0 323,0 329,-6 329,-12 329,-12 329,-24 329,-24 329,-30 323,-36 317,-36"/>
<text xml:space="preserve" text-anchor="middle" x="261" y="-12.57" font-family="Comic Mono" font-size="14.00">Candidate Node B</text>
</g>
<!-- trigger&#45;&gt;nodeB -->
<g id="edge2" class="edge">
<title>trigger&#45;&gt;nodeB</title>
<path fill="none" stroke="#758297" d="M52.75,-40.9C52.75,-29.91 52.75,-18 52.75,-18 52.75,-18 181.01,-18 181.01,-18"/>
<polygon fill="#758297" stroke="#758297" points="181.01,-21.5 191.01,-18 181.01,-14.5 181.01,-21.5"/>
<text xml:space="preserve" text-anchor="middle" x="149.5" y="-29.5" font-family="Comic Mono" font-size="10.00">call</text>
</g>
<!-- coordinator -->
<g id="node4" class="node">
<title>coordinator</title>
<path fill="#f8fafc" stroke="#94a3b8" d="M540,-77C540,-77 428,-77 428,-77 422,-77 416,-71 416,-65 416,-65 416,-53 416,-53 416,-47 422,-41 428,-41 428,-41 540,-41 540,-41 546,-41 552,-47 552,-53 552,-53 552,-65 552,-65 552,-71 546,-77 540,-77"/>
<text xml:space="preserve" text-anchor="middle" x="484" y="-53.58" font-family="Comic Mono" font-size="14.00">TenantAggregator</text>
</g>
<!-- nodeA&#45;&gt;coordinator -->
<g id="edge3" class="edge">
<title>nodeA&#45;&gt;coordinator</title>
<path fill="none" stroke="#758297" d="M329.24,-87.5C387.44,-87.5 461.75,-87.5 461.75,-87.5 461.75,-87.5 461.75,-86.47 461.75,-86.47"/>
<polygon fill="#758297" stroke="#758297" points="465.25,-88.72 461.75,-78.72 458.25,-88.72 465.25,-88.72"/>
<text xml:space="preserve" text-anchor="middle" x="372.5" y="-98.5" font-family="Comic Mono" font-size="10.00">call</text>
</g>
<!-- nodeB&#45;&gt;coordinator -->
<g id="edge4" class="edge">
<title>nodeB&#45;&gt;coordinator</title>
<path fill="none" stroke="#758297" d="M329.35,-22.5C394.82,-22.5 483.75,-22.5 483.75,-22.5 483.75,-22.5 483.75,-29.24 483.75,-29.24"/>
<polygon fill="#758297" stroke="#758297" points="480.25,-29.24 483.75,-39.24 487.25,-29.24 480.25,-29.24"/>
<text xml:space="preserve" text-anchor="middle" x="372.5" y="-29.5" font-family="Comic Mono" font-size="10.00">call</text>
</g>
<!-- elector -->
<g id="node6" class="node">
<title>elector</title>
<path fill="#f8fafc" stroke="#94a3b8" d="M843.25,-128C843.25,-128 693.75,-128 693.75,-128 687.75,-128 681.75,-122 681.75,-116 681.75,-116 681.75,-104 681.75,-104 681.75,-98 687.75,-92 693.75,-92 693.75,-92 843.25,-92 843.25,-92 849.25,-92 855.25,-98 855.25,-104 855.25,-104 855.25,-116 855.25,-116 855.25,-122 849.25,-128 843.25,-128"/>
<text xml:space="preserve" text-anchor="middle" x="768.5" y="-104.58" font-family="Comic Mono" font-size="14.00">R2DBC leader electors</text>
</g>
<!-- coordinator&#45;&gt;elector -->
<g id="edge5" class="edge">
<title>coordinator&#45;&gt;elector</title>
<path fill="none" stroke="#758297" d="M506.75,-77.38C506.75,-90.38 506.75,-105.5 506.75,-105.5 506.75,-105.5 669.83,-105.5 669.83,-105.5"/>
<polygon fill="#758297" stroke="#758297" points="669.83,-109 679.83,-105.5 669.83,-102 669.83,-109"/>
<text xml:space="preserve" text-anchor="middle" x="611.25" y="-102.5" font-family="Comic Mono" font-size="10.00">dependency</text>
</g>
<!-- work -->
<g id="node8" class="node">
<title>work</title>
<path fill="#f8fafc" stroke="#94a3b8" d="M854.5,-45C854.5,-45 682.5,-45 682.5,-45 676.5,-45 670.5,-39 670.5,-33 670.5,-33 670.5,-21 670.5,-21 670.5,-15 676.5,-9 682.5,-9 682.5,-9 854.5,-9 854.5,-9 860.5,-9 866.5,-15 866.5,-21 866.5,-21 866.5,-33 866.5,-33 866.5,-39 860.5,-45 854.5,-45"/>
<text xml:space="preserve" text-anchor="middle" x="768.5" y="-21.57" font-family="Comic Mono" font-size="14.00">Aggregate Tenant Metrics</text>
</g>
<!-- coordinator&#45;&gt;work -->
<g id="edge7" class="edge">
<title>coordinator&#45;&gt;work</title>
<path fill="none" stroke="#758297" d="M552.41,-61C607.48,-61 675.75,-61 675.75,-61 675.75,-61 675.75,-56.71 675.75,-56.71"/>
<polygon fill="#758297" stroke="#758297" points="679.25,-56.71 675.75,-46.71 672.25,-56.71 679.25,-56.71"/>
<text xml:space="preserve" text-anchor="middle" x="611.25" y="-29.5" font-family="Comic Mono" font-size="10.00">success</text>
</g>
<!-- backend -->
<g id="node5" class="node">
<title>backend</title>
<path fill="#f8fafc" stroke="#94a3b8" d="M1109,-128C1109,-128 997,-128 997,-128 991,-128 985,-122 985,-116 985,-116 985,-104 985,-104 985,-98 991,-92 997,-92 997,-92 1109,-92 1109,-92 1115,-92 1121,-98 1121,-104 1121,-104 1121,-116 1121,-116 1121,-122 1115,-128 1109,-128"/>
<text xml:space="preserve" text-anchor="middle" x="1053" y="-104.58" font-family="Comic Mono" font-size="14.00">tenant lock rows</text>
</g>
<!-- recovery -->
<g id="node7" class="node">
<title>recovery</title>
<path fill="#f8fafc" stroke="#94a3b8" d="M1377.75,-128C1377.75,-128 1235.75,-128 1235.75,-128 1229.75,-128 1223.75,-122 1223.75,-116 1223.75,-116 1223.75,-104 1223.75,-104 1223.75,-98 1229.75,-92 1235.75,-92 1235.75,-92 1377.75,-92 1377.75,-92 1383.75,-92 1389.75,-98 1389.75,-104 1389.75,-104 1389.75,-116 1389.75,-116 1389.75,-122 1383.75,-128 1377.75,-128"/>
<text xml:space="preserve" text-anchor="middle" x="1306.75" y="-104.58" font-family="Comic Mono" font-size="14.00">Per&#45;Tenant Isolation</text>
</g>
<!-- backend&#45;&gt;recovery -->
<g id="edge8" class="edge">
<title>backend&#45;&gt;recovery</title>
<path fill="none" stroke="#758297" d="M1121.33,-110C1121.33,-110 1211.84,-110 1211.84,-110"/>
<polygon fill="#758297" stroke="#758297" points="1211.84,-113.5 1221.84,-110 1211.84,-106.5 1211.84,-113.5"/>
<text xml:space="preserve" text-anchor="middle" x="1172.38" y="-112.5" font-family="Comic Mono" font-size="10.00">release</text>
</g>
<!-- elector&#45;&gt;backend -->
<g id="edge6" class="edge">
<title>elector&#45;&gt;backend</title>
<path fill="none" stroke="#758297" d="M855.41,-110C855.41,-110 973.15,-110 973.15,-110"/>
<polygon fill="#758297" stroke="#758297" points="973.15,-113.5 983.15,-110 973.15,-106.5 973.15,-113.5"/>
<text xml:space="preserve" text-anchor="middle" x="925.75" y="-112.5" font-family="Comic Mono" font-size="10.00">contention</text>
</g>
</g>
</svg>
