<?xml version="1.0" encoding="UTF-8" standalone="no"?>
<!DOCTYPE svg PUBLIC "-//W3C//DTD SVG 1.1//EN"
 "http://www.w3.org/Graphics/SVG/1.1/DTD/svg11.dtd">
<!-- Generated by graphviz version 15.0.0 (20260523.1842)
 -->
<!-- Title: examples&#45;batch&#45;scheduler&#45;architecture&#45;01 Pages: 1 -->
<svg width="1098pt" height="365pt"
 viewBox="0.00 0.00 1098.00 365.00" xmlns="http://www.w3.org/2000/svg" xmlns:xlink="http://www.w3.org/1999/xlink">
<g id="graph0" class="graph" transform="scale(1 1) rotate(0) translate(4 360.66)">
<title>examples&#45;batch&#45;scheduler&#45;architecture&#45;01</title>
<text xml:space="preserve" text-anchor="middle" x="544.84" y="-339.36" font-family="Times,serif" font-size="14.00">Batch Scheduler Architecture</text>
<!-- n0&#45;&gt;r1p1 -->
<g id="edge1" class="edge">
<title>n0&#45;&gt;r1p1</title>
<path fill="none" stroke="#758297" stroke-width="1.8" d="M229.92,-246.08C238.92,-246.08 245.63,-246.08 248.42,-246.08"/>
</g>
<!-- n0&#45;&gt;r2p1 -->
<g id="edge4" class="edge">
<title>n0&#45;&gt;r2p1</title>
<path fill="none" stroke="#758297" stroke-width="1.8" d="M229.92,-246.08C238.92,-246.08 245.63,-246.08 248.42,-246.08"/>
</g>
<!-- n0&#45;&gt;r3p1 -->
<g id="edge7" class="edge">
<title>n0&#45;&gt;r3p1</title>
<path fill="none" stroke="#758297" stroke-width="1.8" d="M229.92,-246.08C238.92,-246.08 245.63,-246.08 248.42,-246.08"/>
</g>
<!-- n1&#45;&gt;r4p1 -->
<g id="edge10" class="edge">
<title>n1&#45;&gt;r4p1</title>
<path fill="none" stroke="#758297" stroke-width="1.8" d="M500.05,-286.08C516.42,-286.08 529.15,-286.08 533.36,-286.08"/>
</g>
<!-- n2&#45;&gt;r5p1 -->
<g id="edge13" class="edge">
<title>n2&#45;&gt;r5p1</title>
<path fill="none" stroke="#758297" stroke-width="1.8" d="M500.05,-166.08C516.42,-166.08 529.15,-166.08 533.36,-166.08"/>
</g>
<!-- n3&#45;&gt;r6p1 -->
<g id="edge16" class="edge">
<title>n3&#45;&gt;r6p1</title>
<path fill="none" stroke="#758297" stroke-width="1.8" d="M500.05,-46.08C516.42,-46.08 529.15,-46.08 533.36,-46.08"/>
</g>
<!-- n4&#45;&gt;r7p1 -->
<g id="edge19" class="edge">
<title>n4&#45;&gt;r7p1</title>
<path fill="none" stroke="#758297" stroke-width="1.8" d="M800.15,-166.08C814.3,-166.08 825.05,-166.08 828.59,-166.08"/>
</g>
<!-- r1p1&#45;&gt;r1p2 -->
<g id="edge2" class="edge">
<title>r1p1&#45;&gt;r1p2</title>
<path fill="none" stroke="#758297" stroke-width="1.8" d="M249.84,-247.41C249.84,-253.48 249.84,-278.54 249.84,-284.7"/>
</g>
<!-- r1p2&#45;&gt;n1 -->
<g id="edge3" class="edge">
<title>r1p2&#45;&gt;n1</title>
<path fill="none" stroke="#758297" stroke-width="1.8" d="M251.36,-286.08C252.91,-286.08 255.6,-286.08 259.17,-286.08"/>
<polygon fill="#758297" stroke="#758297" stroke-width="1.8" points="259,-288.88 267,-286.08 259,-283.28 259,-288.88"/>
</g>
<!-- r2p1&#45;&gt;r2p2 -->
<g id="edge5" class="edge">
<title>r2p1&#45;&gt;r2p2</title>
<path fill="none" stroke="#758297" stroke-width="1.8" d="M249.84,-244.69C249.84,-234.98 249.84,-177.34 249.84,-167.51"/>
</g>
<!-- r2p2&#45;&gt;n2 -->
<g id="edge6" class="edge">
<title>r2p2&#45;&gt;n2</title>
<path fill="none" stroke="#758297" stroke-width="1.8" d="M251.36,-166.08C252.91,-166.08 255.6,-166.08 259.17,-166.08"/>
<polygon fill="#758297" stroke="#758297" stroke-width="1.8" points="259,-168.88 267,-166.08 259,-163.28 259,-168.88"/>
</g>
<!-- r3p1&#45;&gt;r3p2 -->
<g id="edge8" class="edge">
<title>r3p1&#45;&gt;r3p2</title>
<path fill="none" stroke="#758297" stroke-width="1.8" d="M249.84,-244.8C249.84,-228.7 249.84,-65.46 249.84,-47.65"/>
</g>
<!-- r3p2&#45;&gt;n3 -->
<g id="edge9" class="edge">
<title>r3p2&#45;&gt;n3</title>
<path fill="none" stroke="#758297" stroke-width="1.8" d="M251.36,-46.08C252.91,-46.08 255.6,-46.08 259.17,-46.08"/>
<polygon fill="#758297" stroke="#758297" stroke-width="1.8" points="259,-48.88 267,-46.08 259,-43.28 259,-48.88"/>
</g>
<!-- r4p1&#45;&gt;r4p2 -->
<g id="edge11" class="edge">
<title>r4p1&#45;&gt;r4p2</title>
<path fill="none" stroke="#758297" stroke-width="1.8" d="M534.84,-284.73C534.84,-272.48 534.84,-180.46 534.84,-167.58"/>
</g>
<!-- r4p2&#45;&gt;n4 -->
<g id="edge12" class="edge">
<title>r4p2&#45;&gt;n4</title>
<path fill="none" stroke="#758297" stroke-width="1.8" d="M536.14,-166.08C539.24,-166.08 547.68,-166.08 559.06,-166.08"/>
<polygon fill="#758297" stroke="#758297" stroke-width="1.8" points="559.04,-168.88 567.04,-166.08 559.04,-163.28 559.04,-168.88"/>
</g>
<!-- r5p1&#45;&gt;r5p2 -->
<g id="edge14" class="edge">
<title>r5p1&#45;&gt;r5p2</title>
<path fill="none" stroke="#758297" stroke-width="1.8" d="M534.84,-166.08C534.84,-166.08 534.84,-166.08 534.84,-166.08"/>
</g>
<!-- r5p2&#45;&gt;n4 -->
<g id="edge15" class="edge">
<title>r5p2&#45;&gt;n4</title>
<path fill="none" stroke="#758297" stroke-width="1.8" d="M536.14,-166.08C539.24,-166.08 547.68,-166.08 559.06,-166.08"/>
<polygon fill="#758297" stroke="#758297" stroke-width="1.8" points="559.04,-168.88 567.04,-166.08 559.04,-163.28 559.04,-168.88"/>
</g>
<!-- r6p1&#45;&gt;r6p2 -->
<g id="edge17" class="edge">
<title>r6p1&#45;&gt;r6p2</title>
<path fill="none" stroke="#758297" stroke-width="1.8" d="M534.84,-47.43C534.84,-59.68 534.84,-151.7 534.84,-164.58"/>
</g>
<!-- r6p2&#45;&gt;n4 -->
<g id="edge18" class="edge">
<title>r6p2&#45;&gt;n4</title>
<path fill="none" stroke="#758297" stroke-width="1.8" d="M536.14,-166.08C539.24,-166.08 547.68,-166.08 559.06,-166.08"/>
<polygon fill="#758297" stroke="#758297" stroke-width="1.8" points="559.04,-168.88 567.04,-166.08 559.04,-163.28 559.04,-168.88"/>
</g>
<!-- r7p1&#45;&gt;r7p2 -->
<g id="edge20" class="edge">
<title>r7p1&#45;&gt;r7p2</title>
<path fill="none" stroke="#758297" stroke-width="1.8" d="M829.84,-166.08C829.84,-166.08 829.84,-166.08 829.84,-166.08"/>
</g>
<!-- r7p2&#45;&gt;n5 -->
<g id="edge21" class="edge">
<title>r7p2&#45;&gt;n5</title>
<path fill="none" stroke="#758297" stroke-width="1.8" d="M831.09,-166.08C833.7,-166.08 840.19,-166.08 849.05,-166.08"/>
<polygon fill="#758297" stroke="#758297" stroke-width="1.8" points="848.81,-168.88 856.81,-166.08 848.81,-163.28 848.81,-168.88"/>
</g>
<!-- n0 -->
<g id="node1" class="node">
<title>n0</title>
<path fill="#ffffff" stroke="#5b8def" d="M217.68,-292.16C217.68,-292.16 12,-292.16 12,-292.16 6,-292.16 0,-286.16 0,-280.16 0,-280.16 0,-212 0,-212 0,-206 6,-200 12,-200 12,-200 217.68,-200 217.68,-200 223.68,-200 229.68,-206 229.68,-212 229.68,-212 229.68,-280.16 229.68,-280.16 229.68,-286.16 223.68,-292.16 217.68,-292.16"/>
<text xml:space="preserve" text-anchor="middle" x="114.84" y="-241.73" font-family="Architects Daughter" font-size="18.00">Cron trigger</text>
</g>
<!-- n1 -->
<g id="node2" class="node">
<title>n1</title>
<path fill="#ffffff" stroke="#58a978" d="M487.68,-332.16C487.68,-332.16 282,-332.16 282,-332.16 276,-332.16 270,-326.16 270,-320.16 270,-320.16 270,-252 270,-252 270,-246 276,-240 282,-240 282,-240 487.68,-240 487.68,-240 493.68,-240 499.68,-246 499.68,-252 499.68,-252 499.68,-320.16 499.68,-320.16 499.68,-326.16 493.68,-332.16 487.68,-332.16"/>
<text xml:space="preserve" text-anchor="middle" x="384.84" y="-281.73" font-family="Architects Daughter" font-size="18.00">BatchScheduler node&#45;1</text>
</g>
<!-- n2 -->
<g id="node3" class="node">
<title>n2</title>
<path fill="#ffffff" stroke="#d6a441" d="M487.68,-212.16C487.68,-212.16 282,-212.16 282,-212.16 276,-212.16 270,-206.16 270,-200.16 270,-200.16 270,-132 270,-132 270,-126 276,-120 282,-120 282,-120 487.68,-120 487.68,-120 493.68,-120 499.68,-126 499.68,-132 499.68,-132 499.68,-200.16 499.68,-200.16 499.68,-206.16 493.68,-212.16 487.68,-212.16"/>
<text xml:space="preserve" text-anchor="middle" x="384.84" y="-161.73" font-family="Architects Daughter" font-size="18.00">BatchScheduler node&#45;2</text>
</g>
<!-- n3 -->
<g id="node4" class="node">
<title>n3</title>
<path fill="#ffffff" stroke="#dc6b82" d="M487.68,-92.16C487.68,-92.16 282,-92.16 282,-92.16 276,-92.16 270,-86.16 270,-80.16 270,-80.16 270,-12 270,-12 270,-6 276,0 282,0 282,0 487.68,0 487.68,0 493.68,0 499.68,-6 499.68,-12 499.68,-12 499.68,-80.16 499.68,-80.16 499.68,-86.16 493.68,-92.16 487.68,-92.16"/>
<text xml:space="preserve" text-anchor="middle" x="384.84" y="-41.73" font-family="Architects Daughter" font-size="18.00">BatchScheduler node&#45;3</text>
</g>
<!-- n4 -->
<g id="node5" class="node">
<title>n4</title>
<path fill="#ffffff" stroke="#45a7a1" d="M787.68,-212.16C787.68,-212.16 582,-212.16 582,-212.16 576,-212.16 570,-206.16 570,-200.16 570,-200.16 570,-132 570,-132 570,-126 576,-120 582,-120 582,-120 787.68,-120 787.68,-120 793.68,-120 799.68,-126 799.68,-132 799.68,-132 799.68,-200.16 799.68,-200.16 799.68,-206.16 793.68,-212.16 787.68,-212.16"/>
<text xml:space="preserve" text-anchor="middle" x="684.84" y="-161.73" font-family="Architects Daughter" font-size="18.00">LettuceLeaderElector</text>
</g>
<!-- n5 -->
<g id="node6" class="node">
<title>n5</title>
<path fill="#ffffff" stroke="#8a72d6" d="M1077.68,-212.16C1077.68,-212.16 872,-212.16 872,-212.16 866,-212.16 860,-206.16 860,-200.16 860,-200.16 860,-132 860,-132 860,-126 866,-120 872,-120 872,-120 1077.68,-120 1077.68,-120 1083.68,-120 1089.68,-126 1089.68,-132 1089.68,-132 1089.68,-200.16 1089.68,-200.16 1089.68,-206.16 1083.68,-212.16 1077.68,-212.16"/>
<text xml:space="preserve" text-anchor="middle" x="974.84" y="-161.73" font-family="Architects Daughter" font-size="18.00">Redis lock</text>
</g>
<!-- r1p1 -->
<!-- r1p2 -->
<!-- r2p1 -->
<!-- r2p2 -->
<!-- r3p1 -->
<!-- r3p2 -->
<!-- r4p1 -->
<!-- r4p2 -->
<!-- r5p1 -->
<!-- r5p2 -->
<!-- r6p1 -->
<!-- r6p2 -->
<!-- r7p1 -->
<!-- r7p2 -->
</g>
</svg>
