<svg xmlns="http://www.w3.org/2000/svg" width="1280" height="760" viewBox="0 0 1280 760" role="img" aria-labelledby="title desc" data-source-read="examples/cache-warmer/README.md; examples/cache-warmer/src/main/kotlin/io/bluetape4k/leader/examples/warmer/CachePartitionWarmer.kt; examples/cache-warmer/src/main/kotlin/io/bluetape4k/leader/examples/warmer/CachePartitionWarmerOptions.kt; examples/cache-warmer/src/main/kotlin/io/bluetape4k/leader/examples/warmer/WarmResult.kt">
<title id="title">Cache Warmer Architecture</title>
<desc id="desc">Static architecture for the cache warmer example: options drive per-partition lock names, an elector factory supplies backend electors, and warm results classify outcomes.</desc>
<defs>
  <marker id="arrow-blue" viewBox="0 0 12 12" markerWidth="7" markerHeight="7" refX="10" refY="6" orient="auto" markerUnits="userSpaceOnUse"><path d="M 1 2 L 10 6 L 1 10" fill="none" stroke="#3F73D8" stroke-width="2" stroke-linecap="round" stroke-linejoin="round"/></marker>
  <marker id="arrow-green" viewBox="0 0 12 12" markerWidth="7" markerHeight="7" refX="10" refY="6" orient="auto" markerUnits="userSpaceOnUse"><path d="M 1 2 L 10 6 L 1 10" fill="none" stroke="#2D8F64" stroke-width="2" stroke-linecap="round" stroke-linejoin="round"/></marker>
  <marker id="arrow-purple" viewBox="0 0 12 12" markerWidth="7" markerHeight="7" refX="10" refY="6" orient="auto" markerUnits="userSpaceOnUse"><path d="M 1 2 L 10 6 L 1 10" fill="none" stroke="#755BC6" stroke-width="2" stroke-linecap="round" stroke-linejoin="round"/></marker>
  <filter id="shadow" x="-8%" y="-8%" width="116%" height="116%"><feDropShadow dx="0" dy="8" stdDeviation="8" flood-color="#B9C7D6" flood-opacity="0.24"/></filter>
  <style>
    .canvas{fill:#F7FAFC}.frame{fill:#FFFFFF;stroke:#D6E2EC;stroke-width:2.2;filter:url(#shadow)}
    .band{fill:#F1F6FB;stroke:#D6E2EC;stroke-width:1.6}.module{fill:#F8F3EA;stroke:#E7C98E;stroke-width:1.5}.infra{fill:#EFF8F4;stroke:#9FCEB1;stroke-width:1.5}
    .title{font-family:"Architects Daughter";font-size:40px;fill:#21334A}.subtitle,.label,.footer{font-family:"Comic Mono";fill:#4B6075}.subtitle{font-size:15px}.label{font-size:14px}.footer{font-size:13px}
    .card{fill:#FFFFFF;stroke:#D6E2EC;stroke-width:1.8;filter:url(#shadow)}.core{fill:#EAF2FF;stroke:#8EB2F0}.config{fill:#FFF7E8;stroke:#E1B866}.backend{fill:#EEF7F2;stroke:#8BC6A3}.cache{fill:#EEF8F8;stroke:#86C9C5}.result{fill:#FFF1EA;stroke:#E8A47D}
    .cardTitle{font-family:"Architects Daughter";font-size:22px;fill:#21334A}.cardText{font-family:"Comic Mono";font-size:13px;fill:#4B6075}.route{fill:none;stroke-width:2.4;stroke-linecap:round;stroke-linejoin:round}.dash{stroke-dasharray:7 6}
  </style>
</defs>
<rect class="canvas" width="1280" height="760"/>
<rect class="frame" x="34" y="28" width="1212" height="704" rx="30"/>
<text class="title" x="72" y="84">Cache Warmer Architecture</text>
<text class="subtitle" x="76" y="116">The example separates partition policy, backend election, cache work, and per-node result classification.</text>

<rect class="band" x="84" y="154" width="1112" height="126" rx="20"/>
<text class="label" x="112" y="184">Caller configuration</text>
<rect class="card config" x="136" y="194" width="328" height="72" rx="14"/>
<text class="cardTitle" x="168" y="226">Warmer options</text>
<text class="cardText" x="168" y="248">nodeId, prefix, partitions</text>
<rect class="card config" x="520" y="202" width="280" height="56" rx="14"/>
<text class="cardTitle" x="552" y="236">electorFactory</text>
<rect class="card cache" x="872" y="202" width="250" height="56" rx="14"/>
<text class="cardTitle" x="904" y="236">warmFunction</text>

<rect class="module" x="84" y="326" width="1112" height="190" rx="20"/>
<text class="label" x="112" y="356">Example module boundary</text>
<rect class="card core" x="136" y="390" width="274" height="86" rx="16"/>
<text class="cardTitle" x="168" y="424">CachePartitionWarmer</text>
<text class="cardText" x="168" y="450">warmAll(): WarmResult</text>
<rect class="card core" x="488" y="384" width="304" height="98" rx="16"/>
<text class="cardTitle" x="520" y="418">Per-partition loop</text>
<text class="cardText" x="520" y="444">lock = prefix + partitionId</text>
<text class="cardText" x="520" y="464">runIfLeader(lock)</text>
<rect class="card result" x="870" y="390" width="252" height="86" rx="16"/>
<text class="cardTitle" x="904" y="424">WarmResult</text>
<text class="cardText" x="904" y="450">warmed / skipped / failed</text>

<rect class="infra" x="84" y="560" width="1112" height="96" rx="20"/>
<text class="label" x="112" y="590">Backend and cache work</text>
<rect class="card backend" x="458" y="596" width="282" height="48" rx="14"/>
<text class="cardTitle" x="492" y="626">HazelcastLeaderElector</text>
<rect class="card cache" x="860" y="596" width="262" height="48" rx="14"/>
<text class="cardTitle" x="894" y="626">partition cache preload</text>

<path class="route" d="M 292 258 L 292 390" stroke="#3F73D8" marker-end="url(#arrow-blue)"/>
<path class="route dash" d="M 660 258 L 640 384" stroke="#755BC6" marker-end="url(#arrow-purple)"/>
<path class="route dash" d="M 997 258 C 997 314 996 350 996 390" stroke="#755BC6" marker-end="url(#arrow-purple)"/>
<path class="route" d="M 410 433 L 488 433" stroke="#3F73D8" marker-end="url(#arrow-blue)"/>
<path class="route" d="M 792 433 L 870 433" stroke="#3F73D8" marker-end="url(#arrow-blue)"/>
<path class="route" d="M 640 482 L 608 596" stroke="#2D8F64" marker-end="url(#arrow-green)"/>
<path class="route" d="M 792 456 C 844 510 910 552 980 596" stroke="#2D8F64" marker-end="url(#arrow-green)"/>
<path class="route dash" d="M 740 620 L 860 620" stroke="#755BC6" marker-end="url(#arrow-purple)"/>

<text class="label" x="416" y="416">owns</text>
<text class="label" x="804" y="416">classifies</text>
<text class="footer" x="640" y="710" text-anchor="middle">bluetape4k-leader/examples/cache-warmer</text>
</svg>
