<?xml version="1.0" encoding="UTF-8" standalone="no"?>
<!DOCTYPE svg PUBLIC "-//W3C//DTD SVG 1.1//EN"
 "http://www.w3.org/Graphics/SVG/1.1/DTD/svg11.dtd">
<!-- Generated by graphviz version 15.0.0 (20260523.1842)
 -->
<!-- Title: examples&#45;zookeeper&#45;scheduler&#45;scenario&#45;01 Pages: 1 -->
<svg width="845pt" height="210pt"
 viewBox="0.00 0.00 845.00 210.00" xmlns="http://www.w3.org/2000/svg" xmlns:xlink="http://www.w3.org/1999/xlink">
<g id="graph0" class="graph" transform="scale(1 1) rotate(0) translate(4 206)">
<title>examples&#45;zookeeper&#45;scheduler&#45;scenario&#45;01</title>
<!-- tick -->
<g id="node1" class="node">
<title>tick</title>
<path fill="#f8fafc" stroke="#94a3b8" d="M109,-119C109,-119 12,-119 12,-119 6,-119 0,-113 0,-107 0,-107 0,-95 0,-95 0,-89 6,-83 12,-83 12,-83 109,-83 109,-83 115,-83 121,-89 121,-95 121,-95 121,-107 121,-107 121,-113 115,-119 109,-119"/>
<text xml:space="preserve" text-anchor="middle" x="60.5" y="-95.58" font-family="Comic Mono" font-size="14.00">Scheduler Tick</text>
</g>
<!-- nodeA -->
<g id="node2" class="node">
<title>nodeA</title>
<path fill="#f8fafc" stroke="#94a3b8" d="M294.5,-202C294.5,-202 220,-202 220,-202 214,-202 208,-196 208,-190 208,-190 208,-178 208,-178 208,-172 214,-166 220,-166 220,-166 294.5,-166 294.5,-166 300.5,-166 306.5,-172 306.5,-178 306.5,-178 306.5,-190 306.5,-190 306.5,-196 300.5,-202 294.5,-202"/>
<text xml:space="preserve" text-anchor="middle" x="257.25" y="-178.57" font-family="Comic Mono" font-size="14.00">Candidate A</text>
</g>
<!-- tick&#45;&gt;nodeA -->
<g id="edge1" class="edge">
<title>tick&#45;&gt;nodeA</title>
<path fill="none" stroke="#758297" d="M60.25,-119.42C60.25,-143.87 60.25,-184 60.25,-184 60.25,-184 196.03,-184 196.03,-184"/>
<polygon fill="#758297" stroke="#758297" points="196.03,-187.5 206.03,-184 196.03,-180.5 196.03,-187.5"/>
<text xml:space="preserve" text-anchor="middle" x="164.5" y="-176.5" font-family="Comic Mono" font-size="10.00">call</text>
</g>
<!-- nodeB -->
<g id="node3" class="node">
<title>nodeB</title>
<path fill="#f8fafc" stroke="#94a3b8" d="M294.5,-119C294.5,-119 220,-119 220,-119 214,-119 208,-113 208,-107 208,-107 208,-95 208,-95 208,-89 214,-83 220,-83 220,-83 294.5,-83 294.5,-83 300.5,-83 306.5,-89 306.5,-95 306.5,-95 306.5,-107 306.5,-107 306.5,-113 300.5,-119 294.5,-119"/>
<text xml:space="preserve" text-anchor="middle" x="257.25" y="-95.58" font-family="Comic Mono" font-size="14.00">Candidate B</text>
</g>
<!-- tick&#45;&gt;nodeB -->
<g id="edge2" class="edge">
<title>tick&#45;&gt;nodeB</title>
<path fill="none" stroke="#758297" d="M121.41,-101C121.41,-101 196,-101 196,-101"/>
<polygon fill="#758297" stroke="#758297" points="196,-104.5 206,-101 196,-97.5 196,-104.5"/>
<text xml:space="preserve" text-anchor="middle" x="164.5" y="-103.5" font-family="Comic Mono" font-size="10.00">call</text>
</g>
<!-- nodeC -->
<g id="node4" class="node">
<title>nodeC</title>
<path fill="#f8fafc" stroke="#94a3b8" d="M294.5,-36C294.5,-36 220,-36 220,-36 214,-36 208,-30 208,-24 208,-24 208,-12 208,-12 208,-6 214,0 220,0 220,0 294.5,0 294.5,0 300.5,0 306.5,-6 306.5,-12 306.5,-12 306.5,-24 306.5,-24 306.5,-30 300.5,-36 294.5,-36"/>
<text xml:space="preserve" text-anchor="middle" x="257.25" y="-12.57" font-family="Comic Mono" font-size="14.00">Candidate C</text>
</g>
<!-- tick&#45;&gt;nodeC -->
<g id="edge3" class="edge">
<title>tick&#45;&gt;nodeC</title>
<path fill="none" stroke="#758297" d="M60.25,-82.58C60.25,-58.13 60.25,-18 60.25,-18 60.25,-18 196.03,-18 196.03,-18"/>
<polygon fill="#758297" stroke="#758297" points="196.03,-21.5 206.03,-18 196.03,-14.5 196.03,-21.5"/>
<text xml:space="preserve" text-anchor="middle" x="164.5" y="-30.5" font-family="Comic Mono" font-size="10.00">call</text>
</g>
<!-- backend -->
<g id="node5" class="node">
<title>backend</title>
<path fill="#f8fafc" stroke="#94a3b8" d="M556.5,-119C556.5,-119 437,-119 437,-119 431,-119 425,-113 425,-107 425,-107 425,-95 425,-95 425,-89 431,-83 437,-83 437,-83 556.5,-83 556.5,-83 562.5,-83 568.5,-89 568.5,-95 568.5,-95 568.5,-107 568.5,-107 568.5,-113 562.5,-119 556.5,-119"/>
<text xml:space="preserve" text-anchor="middle" x="496.75" y="-95.58" font-family="Comic Mono" font-size="14.00">Curator lock path</text>
</g>
<!-- nodeA&#45;&gt;backend -->
<g id="edge4" class="edge">
<title>nodeA&#45;&gt;backend</title>
<path fill="none" stroke="#758297" d="M306.77,-184C376.78,-184 496.25,-184 496.25,-184 496.25,-184 496.25,-130.93 496.25,-130.93"/>
<polygon fill="#758297" stroke="#758297" points="499.75,-130.93 496.25,-120.93 492.75,-130.93 499.75,-130.93"/>
<text xml:space="preserve" text-anchor="middle" x="365.75" y="-176.5" font-family="Comic Mono" font-size="10.00">contention</text>
</g>
<!-- nodeB&#45;&gt;backend -->
<g id="edge5" class="edge">
<title>nodeB&#45;&gt;backend</title>
<path fill="none" stroke="#758297" d="M306.87,-101C306.87,-101 413.41,-101 413.41,-101"/>
<polygon fill="#758297" stroke="#758297" points="413.41,-104.5 423.41,-101 413.41,-97.5 413.41,-104.5"/>
<text xml:space="preserve" text-anchor="middle" x="365.75" y="-103.5" font-family="Comic Mono" font-size="10.00">contention</text>
</g>
<!-- nodeC&#45;&gt;backend -->
<g id="edge6" class="edge">
<title>nodeC&#45;&gt;backend</title>
<path fill="none" stroke="#758297" d="M306.77,-18C376.78,-18 496.25,-18 496.25,-18 496.25,-18 496.25,-71.07 496.25,-71.07"/>
<polygon fill="#758297" stroke="#758297" points="492.75,-71.07 496.25,-81.07 499.75,-71.07 492.75,-71.07"/>
<text xml:space="preserve" text-anchor="middle" x="365.75" y="-30.5" font-family="Comic Mono" font-size="10.00">contention</text>
</g>
<!-- recovery -->
<g id="node6" class="node">
<title>recovery</title>
<path fill="#f8fafc" stroke="#94a3b8" d="M825.25,-202C825.25,-202 683.25,-202 683.25,-202 677.25,-202 671.25,-196 671.25,-190 671.25,-190 671.25,-178 671.25,-178 671.25,-172 677.25,-166 683.25,-166 683.25,-166 825.25,-166 825.25,-166 831.25,-166 837.25,-172 837.25,-178 837.25,-178 837.25,-190 837.25,-190 837.25,-196 831.25,-202 825.25,-202"/>
<text xml:space="preserve" text-anchor="middle" x="754.25" y="-178.57" font-family="Comic Mono" font-size="14.00">Session Lock Release</text>
</g>
<!-- backend&#45;&gt;recovery -->
<g id="edge9" class="edge">
<title>backend&#45;&gt;recovery</title>
<path fill="none" stroke="#758297" d="M568.75,-110C620.16,-110 680.25,-110 680.25,-110 680.25,-110 680.25,-154.19 680.25,-154.19"/>
<polygon fill="#758297" stroke="#758297" points="676.75,-154.19 680.25,-164.19 683.75,-154.19 676.75,-154.19"/>
<text xml:space="preserve" text-anchor="middle" x="619.88" y="-186.5" font-family="Comic Mono" font-size="10.00">release</text>
</g>
<!-- skipped -->
<g id="node7" class="node">
<title>skipped</title>
<path fill="#f8fafc" stroke="#94a3b8" d="M787.75,-119C787.75,-119 720.75,-119 720.75,-119 714.75,-119 708.75,-113 708.75,-107 708.75,-107 708.75,-95 708.75,-95 708.75,-89 714.75,-83 720.75,-83 720.75,-83 787.75,-83 787.75,-83 793.75,-83 799.75,-89 799.75,-95 799.75,-95 799.75,-107 799.75,-107 799.75,-113 793.75,-119 787.75,-119"/>
<text xml:space="preserve" text-anchor="middle" x="754.25" y="-95.58" font-family="Comic Mono" font-size="14.00">Peers Skip</text>
</g>
<!-- backend&#45;&gt;skipped -->
<g id="edge8" class="edge">
<title>backend&#45;&gt;skipped</title>
<path fill="none" stroke="#758297" d="M568.82,-101C568.82,-101 697.03,-101 697.03,-101"/>
<polygon fill="#758297" stroke="#758297" points="697.03,-104.5 707.03,-101 697.03,-97.5 697.03,-104.5"/>
<text xml:space="preserve" text-anchor="middle" x="619.88" y="-103.5" font-family="Comic Mono" font-size="10.00">skip</text>
</g>
<!-- leader -->
<g id="node8" class="node">
<title>leader</title>
<path fill="#f8fafc" stroke="#94a3b8" d="M806.5,-36C806.5,-36 702,-36 702,-36 696,-36 690,-30 690,-24 690,-24 690,-12 690,-12 690,-6 696,0 702,0 702,0 806.5,0 806.5,0 812.5,0 818.5,-6 818.5,-12 818.5,-12 818.5,-24 818.5,-24 818.5,-30 812.5,-36 806.5,-36"/>
<text xml:space="preserve" text-anchor="middle" x="754.25" y="-12.57" font-family="Comic Mono" font-size="14.00">One Leader Runs</text>
</g>
<!-- backend&#45;&gt;leader -->
<g id="edge7" class="edge">
<title>backend&#45;&gt;leader</title>
<path fill="none" stroke="#758297" d="M569,-92C627.15,-92 699.25,-92 699.25,-92 699.25,-92 699.25,-47.81 699.25,-47.81"/>
<polygon fill="#758297" stroke="#758297" points="702.75,-47.81 699.25,-37.81 695.75,-47.81 702.75,-47.81"/>
<text xml:space="preserve" text-anchor="middle" x="619.88" y="-20.5" font-family="Comic Mono" font-size="10.00">success</text>
</g>
</g>
</svg>
