<?xml version="1.0" encoding="UTF-8" standalone="no"?>
<!DOCTYPE svg PUBLIC "-//W3C//DTD SVG 1.1//EN"
 "http://www.w3.org/Graphics/SVG/1.1/DTD/svg11.dtd">
<!-- Generated by graphviz version 15.0.0 (20260523.1842)
 -->
<!-- Title: examples&#45;ktor&#45;app&#45;flow&#45;01 Pages: 1 -->
<svg width="1697pt" height="127pt"
 viewBox="0.00 0.00 1697.00 127.00" xmlns="http://www.w3.org/2000/svg" xmlns:xlink="http://www.w3.org/1999/xlink">
<g id="graph0" class="graph" transform="scale(1 1) rotate(0) translate(4 123)">
<title>examples&#45;ktor&#45;app&#45;flow&#45;01</title>
<!-- start -->
<g id="node1" class="node">
<title>start</title>
<path fill="#f8fafc" stroke="#94a3b8" d="M146.5,-68C146.5,-68 12,-68 12,-68 6,-68 0,-62 0,-56 0,-56 0,-44 0,-44 0,-38 6,-32 12,-32 12,-32 146.5,-32 146.5,-32 152.5,-32 158.5,-38 158.5,-44 158.5,-44 158.5,-56 158.5,-56 158.5,-62 152.5,-68 146.5,-68"/>
<text xml:space="preserve" text-anchor="middle" x="79.25" y="-44.58" font-family="Comic Mono" font-size="14.00">Background Schedule</text>
</g>
<!-- validate -->
<g id="node2" class="node">
<title>validate</title>
<path fill="#f8fafc" stroke="#94a3b8" d="M422,-68C422,-68 257.5,-68 257.5,-68 251.5,-68 245.5,-62 245.5,-56 245.5,-56 245.5,-44 245.5,-44 245.5,-38 251.5,-32 257.5,-32 257.5,-32 422,-32 422,-32 428,-32 434,-38 434,-44 434,-44 434,-56 434,-56 434,-62 428,-68 422,-68"/>
<text xml:space="preserve" text-anchor="middle" x="339.75" y="-44.58" font-family="Comic Mono" font-size="14.00">Validate Example Inputs</text>
</g>
<!-- start&#45;&gt;validate -->
<g id="edge1" class="edge">
<title>start&#45;&gt;validate</title>
<path fill="none" stroke="#758297" d="M158.82,-50C158.82,-50 233.58,-50 233.58,-50"/>
<polygon fill="#758297" stroke="#758297" points="233.58,-53.5 243.58,-50 233.58,-46.5 233.58,-53.5"/>
<text xml:space="preserve" text-anchor="middle" x="202" y="-52.5" font-family="Comic Mono" font-size="10.00">call</text>
</g>
<!-- attempt -->
<g id="node3" class="node">
<title>attempt</title>
<path fill="#f8fafc" stroke="#94a3b8" d="M706.5,-68C706.5,-68 564.5,-68 564.5,-68 558.5,-68 552.5,-62 552.5,-56 552.5,-56 552.5,-44 552.5,-44 552.5,-38 558.5,-32 564.5,-32 564.5,-32 706.5,-32 706.5,-32 712.5,-32 718.5,-38 718.5,-44 718.5,-44 718.5,-56 718.5,-56 718.5,-62 712.5,-68 706.5,-68"/>
<text xml:space="preserve" text-anchor="middle" x="635.5" y="-44.58" font-family="Comic Mono" font-size="14.00">SuspendLeaderElector</text>
</g>
<!-- validate&#45;&gt;attempt -->
<g id="edge2" class="edge">
<title>validate&#45;&gt;attempt</title>
<path fill="none" stroke="#758297" d="M434.14,-50C434.14,-50 540.96,-50 540.96,-50"/>
<polygon fill="#758297" stroke="#758297" points="540.96,-53.5 550.96,-50 540.96,-46.5 540.96,-53.5"/>
<text xml:space="preserve" text-anchor="middle" x="493.25" y="-52.5" font-family="Comic Mono" font-size="10.00">dependency</text>
</g>
<!-- decision -->
<g id="node4" class="node">
<title>decision</title>
<path fill="#f8fafc" stroke="#94a3b8" d="M968.5,-68C968.5,-68 849,-68 849,-68 843,-68 837,-62 837,-56 837,-56 837,-44 837,-44 837,-38 843,-32 849,-32 849,-32 968.5,-32 968.5,-32 974.5,-32 980.5,-38 980.5,-44 980.5,-44 980.5,-56 980.5,-56 980.5,-62 974.5,-68 968.5,-68"/>
<text xml:space="preserve" text-anchor="middle" x="908.75" y="-44.58" font-family="Comic Mono" font-size="14.00">Leadership Result</text>
</g>
<!-- attempt&#45;&gt;decision -->
<g id="edge3" class="edge">
<title>attempt&#45;&gt;decision</title>
<path fill="none" stroke="#758297" d="M718.97,-50C718.97,-50 825.35,-50 825.35,-50"/>
<polygon fill="#758297" stroke="#758297" points="825.35,-53.5 835.35,-50 825.35,-46.5 825.35,-53.5"/>
<text xml:space="preserve" text-anchor="middle" x="777.75" y="-52.5" font-family="Comic Mono" font-size="10.00">contention</text>
</g>
<!-- execute -->
<g id="node6" class="node">
<title>execute</title>
<path fill="#f8fafc" stroke="#94a3b8" d="M1199.75,-119C1199.75,-119 1095.25,-119 1095.25,-119 1089.25,-119 1083.25,-113 1083.25,-107 1083.25,-107 1083.25,-95 1083.25,-95 1083.25,-89 1089.25,-83 1095.25,-83 1095.25,-83 1199.75,-83 1199.75,-83 1205.75,-83 1211.75,-89 1211.75,-95 1211.75,-95 1211.75,-107 1211.75,-107 1211.75,-113 1205.75,-119 1199.75,-119"/>
<text xml:space="preserve" text-anchor="middle" x="1147.5" y="-95.58" font-family="Comic Mono" font-size="14.00">Aggregate Stats</text>
</g>
<!-- decision&#45;&gt;execute -->
<g id="edge4" class="edge">
<title>decision&#45;&gt;execute</title>
<path fill="none" stroke="#758297" d="M980.9,-57.33C1044.54,-57.33 1127.25,-57.33 1127.25,-57.33 1127.25,-57.33 1127.25,-71.22 1127.25,-71.22"/>
<polygon fill="#758297" stroke="#758297" points="1123.75,-71.22 1127.25,-81.22 1130.75,-71.22 1123.75,-71.22"/>
<text xml:space="preserve" text-anchor="middle" x="1031.88" y="-93.5" font-family="Comic Mono" font-size="10.00">success</text>
</g>
<!-- skipped -->
<g id="node8" class="node">
<title>skipped</title>
<path fill="#f8fafc" stroke="#94a3b8" d="M1196,-36C1196,-36 1099,-36 1099,-36 1093,-36 1087,-30 1087,-24 1087,-24 1087,-12 1087,-12 1087,-6 1093,0 1099,0 1099,0 1196,0 1196,0 1202,0 1208,-6 1208,-12 1208,-12 1208,-24 1208,-24 1208,-30 1202,-36 1196,-36"/>
<text xml:space="preserve" text-anchor="middle" x="1147.5" y="-12.57" font-family="Comic Mono" font-size="14.00">Return Skipped</text>
</g>
<!-- decision&#45;&gt;skipped -->
<g id="edge7" class="edge">
<title>decision&#45;&gt;skipped</title>
<path fill="none" stroke="#758297" d="M980.76,-46.67C1057.24,-46.67 1167.25,-46.67 1167.25,-46.67 1167.25,-46.67 1167.25,-45.63 1167.25,-45.63"/>
<polygon fill="#758297" stroke="#758297" points="1170.75,-47.83 1167.25,-37.83 1163.75,-47.83 1170.75,-47.83"/>
<text xml:space="preserve" text-anchor="middle" x="1031.88" y="-20.5" font-family="Comic Mono" font-size="10.00">skip</text>
</g>
<!-- release -->
<g id="node5" class="node">
<title>release</title>
<path fill="#f8fafc" stroke="#94a3b8" d="M1446,-119C1446,-119 1326.5,-119 1326.5,-119 1320.5,-119 1314.5,-113 1314.5,-107 1314.5,-107 1314.5,-95 1314.5,-95 1314.5,-89 1320.5,-83 1326.5,-83 1326.5,-83 1446,-83 1446,-83 1452,-83 1458,-89 1458,-95 1458,-95 1458,-107 1458,-107 1458,-113 1452,-119 1446,-119"/>
<text xml:space="preserve" text-anchor="middle" x="1386.25" y="-95.58" font-family="Comic Mono" font-size="14.00">Release Or Extend</text>
</g>
<!-- executed -->
<g id="node7" class="node">
<title>executed</title>
<path fill="#f8fafc" stroke="#94a3b8" d="M1677.25,-119C1677.25,-119 1572.75,-119 1572.75,-119 1566.75,-119 1560.75,-113 1560.75,-107 1560.75,-107 1560.75,-95 1560.75,-95 1560.75,-89 1566.75,-83 1572.75,-83 1572.75,-83 1677.25,-83 1677.25,-83 1683.25,-83 1689.25,-89 1689.25,-95 1689.25,-95 1689.25,-107 1689.25,-107 1689.25,-113 1683.25,-119 1677.25,-119"/>
<text xml:space="preserve" text-anchor="middle" x="1625" y="-95.58" font-family="Comic Mono" font-size="14.00">Return Executed</text>
</g>
<!-- release&#45;&gt;executed -->
<g id="edge6" class="edge">
<title>release&#45;&gt;executed</title>
<path fill="none" stroke="#758297" d="M1458.21,-101C1458.21,-101 1548.98,-101 1548.98,-101"/>
<polygon fill="#758297" stroke="#758297" points="1548.98,-104.5 1558.98,-101 1548.98,-97.5 1548.98,-104.5"/>
<text xml:space="preserve" text-anchor="middle" x="1509.38" y="-103.5" font-family="Comic Mono" font-size="10.00">success</text>
</g>
<!-- execute&#45;&gt;release -->
<g id="edge5" class="edge">
<title>execute&#45;&gt;release</title>
<path fill="none" stroke="#758297" d="M1212.11,-101C1212.11,-101 1302.5,-101 1302.5,-101"/>
<polygon fill="#758297" stroke="#758297" points="1302.5,-104.5 1312.5,-101 1302.5,-97.5 1302.5,-104.5"/>
<text xml:space="preserve" text-anchor="middle" x="1263.12" y="-103.5" font-family="Comic Mono" font-size="10.00">release</text>
</g>
</g>
</svg>
