<?xml version="1.0" encoding="UTF-8" standalone="no"?>
<!DOCTYPE svg PUBLIC "-//W3C//DTD SVG 1.1//EN"
 "http://www.w3.org/Graphics/SVG/1.1/DTD/svg11.dtd">
<!-- Generated by graphviz version 15.0.0 (20260523.1842)
 -->
<!-- Title: examples&#45;virtual&#45;thread&#45;runner&#45;sequence&#45;01 Pages: 1 -->
<svg width="1467pt" height="503pt"
 viewBox="0.00 0.00 1467.00 503.00" xmlns="http://www.w3.org/2000/svg" xmlns:xlink="http://www.w3.org/1999/xlink">
<g id="graph0" class="graph" transform="scale(1 1) rotate(0) translate(4 499)">
<title>examples&#45;virtual&#45;thread&#45;runner&#45;sequence&#45;01</title>
<!-- trigger -->
<g id="node1" class="node">
<title>trigger</title>
<path fill="#f8fafc" stroke="#94a3b8" d="M161.5,-58C161.5,-58 12,-58 12,-58 6,-58 0,-52 0,-46 0,-46 0,-34 0,-34 0,-28 6,-22 12,-22 12,-22 161.5,-22 161.5,-22 167.5,-22 173.5,-28 173.5,-34 173.5,-34 173.5,-46 173.5,-46 173.5,-52 167.5,-58 161.5,-58"/>
<text xml:space="preserve" text-anchor="middle" x="86.75" y="-34.58" font-family="Comic Mono" font-size="14.00">Blocking Task Trigger</text>
</g>
<!-- coord -->
<g id="node2" class="node">
<title>coord</title>
<path fill="#f8fafc" stroke="#94a3b8" d="M527.75,-150C527.75,-150 393.25,-150 393.25,-150 387.25,-150 381.25,-144 381.25,-138 381.25,-138 381.25,-126 381.25,-126 381.25,-120 387.25,-114 393.25,-114 393.25,-114 527.75,-114 527.75,-114 533.75,-114 539.75,-120 539.75,-126 539.75,-126 539.75,-138 539.75,-138 539.75,-144 533.75,-150 527.75,-150"/>
<text xml:space="preserve" text-anchor="middle" x="460.5" y="-126.58" font-family="Comic Mono" font-size="14.00">VirtualThreadRunner</text>
</g>
<!-- trigger&#45;&gt;coord -->
<g id="edge1" class="edge">
<title>trigger&#45;&gt;coord</title>
<path fill="none" stroke="#4f83bf" d="M173.79,-49.25C284.08,-49.25 460,-49.25 460,-49.25 460,-49.25 460,-105.12 460,-105.12"/>
<polygon fill="#4f83bf" stroke="#4f83bf" points="457.55,-105.12 460,-112.12 462.45,-105.12 457.55,-105.12"/>
<text xml:space="preserve" text-anchor="middle" x="277.38" y="-89.5" font-family="Comic Mono" font-size="10.00">start blocking task trigger</text>
</g>
<!-- elector -->
<g id="node3" class="node">
<title>elector</title>
<path fill="#f8fafc" stroke="#94a3b8" d="M1004.25,-266C1004.25,-266 817.25,-266 817.25,-266 811.25,-266 805.25,-260 805.25,-254 805.25,-254 805.25,-242 805.25,-242 805.25,-236 811.25,-230 817.25,-230 817.25,-230 1004.25,-230 1004.25,-230 1010.25,-230 1016.25,-236 1016.25,-242 1016.25,-242 1016.25,-254 1016.25,-254 1016.25,-260 1010.25,-266 1004.25,-266"/>
<text xml:space="preserve" text-anchor="middle" x="910.75" y="-242.57" font-family="Comic Mono" font-size="14.00">VirtualThreadLeaderElector</text>
</g>
<!-- coord&#45;&gt;elector -->
<g id="edge2" class="edge">
<title>coord&#45;&gt;elector</title>
<path fill="none" stroke="#4f83bf" d="M460,-150.38C460,-183.09 460,-248 460,-248 460,-248 796.27,-248 796.27,-248"/>
<polygon fill="#4f83bf" stroke="#4f83bf" points="796.27,-250.45 803.27,-248 796.27,-245.55 796.27,-250.45"/>
<text xml:space="preserve" text-anchor="middle" x="672.5" y="-211.5" font-family="Comic Mono" font-size="10.00">runIfLeader with source options</text>
</g>
<!-- backend -->
<g id="node4" class="node">
<title>backend</title>
<path fill="#f8fafc" stroke="#94a3b8" d="M1439.5,-400C1439.5,-400 1327.5,-400 1327.5,-400 1321.5,-400 1315.5,-394 1315.5,-388 1315.5,-388 1315.5,-376 1315.5,-376 1315.5,-370 1321.5,-364 1327.5,-364 1327.5,-364 1439.5,-364 1439.5,-364 1445.5,-364 1451.5,-370 1451.5,-376 1451.5,-376 1451.5,-388 1451.5,-388 1451.5,-394 1445.5,-400 1439.5,-400"/>
<text xml:space="preserve" text-anchor="middle" x="1383.5" y="-376.57" font-family="Comic Mono" font-size="14.00">local lock state</text>
</g>
<!-- elector&#45;&gt;backend -->
<g id="edge3" class="edge">
<title>elector&#45;&gt;backend</title>
<path fill="none" stroke="#b9851b" d="M1016.49,-260.86C1144.46,-260.86 1343,-260.86 1343,-260.86 1343,-260.86 1343,-355.09 1343,-355.09"/>
<polygon fill="#b9851b" stroke="#b9851b" points="1340.55,-355.09 1343,-362.09 1345.45,-355.09 1340.55,-355.09"/>
<text xml:space="preserve" text-anchor="middle" x="1162.12" y="-485.5" font-family="Comic Mono" font-size="10.00">attempt backend ownership</text>
</g>
<!-- elector&#45;&gt;backend -->
<g id="edge7" class="edge">
<title>elector&#45;&gt;backend</title>
<path fill="none" stroke="#755bc6" d="M1016.69,-255.71C1152.32,-255.71 1370,-255.71 1370,-255.71 1370,-255.71 1370,-355.12 1370,-355.12"/>
<polygon fill="#755bc6" stroke="#755bc6" points="1367.55,-355.12 1370,-362.12 1372.45,-355.12 1367.55,-355.12"/>
<text xml:space="preserve" text-anchor="middle" x="1162.12" y="-418.5" font-family="Comic Mono" font-size="10.00">release or renew for virtual thread release</text>
</g>
<!-- work -->
<g id="node5" class="node">
<title>work</title>
<path fill="#f8fafc" stroke="#94a3b8" d="M1447,-200C1447,-200 1320,-200 1320,-200 1314,-200 1308,-194 1308,-188 1308,-188 1308,-176 1308,-176 1308,-170 1314,-164 1320,-164 1320,-164 1447,-164 1447,-164 1453,-164 1459,-170 1459,-176 1459,-176 1459,-188 1459,-188 1459,-194 1453,-200 1447,-200"/>
<text xml:space="preserve" text-anchor="middle" x="1383.5" y="-176.57" font-family="Comic Mono" font-size="14.00">Blocking Task Body</text>
</g>
<!-- elector&#45;&gt;work -->
<g id="edge5" class="edge">
<title>elector&#45;&gt;work</title>
<path fill="none" stroke="#3e9868" d="M1016.69,-235.14C1134.97,-235.14 1310,-235.14 1310,-235.14 1310,-235.14 1310,-208.8 1310,-208.8"/>
<polygon fill="#3e9868" stroke="#3e9868" points="1312.45,-208.8 1310,-201.8 1307.55,-208.8 1312.45,-208.8"/>
<text xml:space="preserve" text-anchor="middle" x="1162.12" y="-217.5" font-family="Comic Mono" font-size="10.00">execute blocking task body</text>
</g>
<!-- peer -->
<g id="node6" class="node">
<title>peer</title>
<path fill="#f8fafc" stroke="#94a3b8" d="M1424.5,-59C1424.5,-59 1342.5,-59 1342.5,-59 1336.5,-59 1330.5,-53 1330.5,-47 1330.5,-47 1330.5,-35 1330.5,-35 1330.5,-29 1336.5,-23 1342.5,-23 1342.5,-23 1424.5,-23 1424.5,-23 1430.5,-23 1436.5,-29 1436.5,-35 1436.5,-35 1436.5,-47 1436.5,-47 1436.5,-53 1430.5,-59 1424.5,-59"/>
<text xml:space="preserve" text-anchor="middle" x="1383.5" y="-35.58" font-family="Comic Mono" font-size="14.00">Skipped Peer</text>
</g>
<!-- elector&#45;&gt;peer -->
<g id="edge9" class="edge">
<title>elector&#45;&gt;peer</title>
<path fill="none" stroke="#c94d68" d="M911,-229.59C911,-178.8 911,-40.5 911,-40.5 911,-40.5 1321.7,-40.5 1321.7,-40.5"/>
<polygon fill="#c94d68" stroke="#c94d68" points="1321.7,-42.95 1328.7,-40.5 1321.7,-38.05 1321.7,-42.95"/>
<text xml:space="preserve" text-anchor="middle" x="1162.12" y="-83.5" font-family="Comic Mono" font-size="10.00">return skipped result</text>
</g>
<!-- backend&#45;&gt;elector -->
<g id="edge4" class="edge">
<title>backend&#45;&gt;elector</title>
<path fill="none" stroke="#3e9868" d="M1397,-363.73C1397,-327.61 1397,-250.57 1397,-250.57 1397,-250.57 1025.07,-250.57 1025.07,-250.57"/>
<polygon fill="#3e9868" stroke="#3e9868" points="1025.07,-248.12 1018.07,-250.57 1025.07,-253.02 1025.07,-248.12"/>
<text xml:space="preserve" text-anchor="middle" x="1162.12" y="-351.5" font-family="Comic Mono" font-size="10.00">owner token accepted</text>
</g>
<!-- backend&#45;&gt;elector -->
<g id="edge8" class="edge">
<title>backend&#45;&gt;elector</title>
<path fill="none" stroke="#c94d68" d="M1424,-363.58C1424,-326.3 1424,-245.43 1424,-245.43 1424,-245.43 1024.99,-245.43 1024.99,-245.43"/>
<polygon fill="#c94d68" stroke="#c94d68" points="1024.99,-242.98 1017.99,-245.43 1024.99,-247.88 1024.99,-242.98"/>
<text xml:space="preserve" text-anchor="middle" x="1162.12" y="-284.5" font-family="Comic Mono" font-size="10.00">lock already owned</text>
</g>
<!-- work&#45;&gt;elector -->
<g id="edge6" class="edge">
<title>work&#45;&gt;elector</title>
<path fill="none" stroke="#3e9868" d="M1313,-200.44C1313,-217.52 1313,-240.29 1313,-240.29 1313,-240.29 1025.21,-240.29 1025.21,-240.29"/>
<polygon fill="#3e9868" stroke="#3e9868" points="1025.21,-237.84 1018.21,-240.29 1025.21,-242.74 1025.21,-237.84"/>
<text xml:space="preserve" text-anchor="middle" x="1162.12" y="-150.5" font-family="Comic Mono" font-size="10.00">return leader result</text>
</g>
<!-- peer&#45;&gt;trigger -->
<g id="edge10" class="edge">
<title>peer&#45;&gt;trigger</title>
<path fill="none" stroke="#c94d68" d="M1330.25,-31.75C1330.25,-31.75 182.34,-31.75 182.34,-31.75"/>
<polygon fill="#c94d68" stroke="#c94d68" points="182.34,-29.3 175.34,-31.75 182.34,-34.2 182.34,-29.3"/>
<text xml:space="preserve" text-anchor="middle" x="672.5" y="-2.5" font-family="Comic Mono" font-size="10.00">cycle completes without duplicate work</text>
</g>
</g>
</svg>
