<?xml version="1.0" encoding="UTF-8" standalone="no"?>
<!DOCTYPE svg PUBLIC "-//W3C//DTD SVG 1.1//EN"
 "http://www.w3.org/Graphics/SVG/1.1/DTD/svg11.dtd">
<!-- Generated by graphviz version 15.0.0 (20260523.1842)
 -->
<!-- Title: examples&#45;redisson&#45;watchdog&#45;architecture&#45;01 Pages: 1 -->
<svg width="1298pt" height="425pt"
 viewBox="0.00 0.00 1298.00 425.00" xmlns="http://www.w3.org/2000/svg" xmlns:xlink="http://www.w3.org/1999/xlink">
<g id="graph0" class="graph" transform="scale(1 1) rotate(0) translate(4 420.66)">
<title>examples&#45;redisson&#45;watchdog&#45;architecture&#45;01</title>
<text xml:space="preserve" text-anchor="middle" x="644.92" y="-399.36" font-family="Times,serif" font-size="14.00">Redisson Watchdog Architecture</text>
<!-- n0&#45;&gt;r1p1 -->
<g id="edge1" class="edge">
<title>n0&#45;&gt;r1p1</title>
<path fill="none" stroke="#758297" stroke-width="1.8" d="M229.85,-346.08C251.31,-346.08 268.59,-346.08 273.46,-346.08"/>
</g>
<!-- n1&#45;&gt;r2p1 -->
<g id="edge4" class="edge">
<title>n1&#45;&gt;r2p1</title>
<path fill="none" stroke="#758297" stroke-width="1.8" d="M229.85,-176.08C251.31,-176.08 268.59,-176.08 273.46,-176.08"/>
</g>
<!-- n2&#45;&gt;r3p1 -->
<g id="edge7" class="edge">
<title>n2&#45;&gt;r3p1</title>
<path fill="none" stroke="#758297" stroke-width="1.8" d="M620.14,-261.08C631.8,-261.08 640.32,-261.08 643.49,-261.08"/>
</g>
<!-- n2&#45;&gt;r6p1 -->
<g id="edge16" class="edge">
<title>n2&#45;&gt;r6p1</title>
<path fill="none" stroke="#758297" stroke-width="1.8" d="M620.14,-261.08C631.8,-261.08 640.32,-261.08 643.49,-261.08"/>
</g>
<!-- n3&#45;&gt;r4p1 -->
<g id="edge10" class="edge">
<title>n3&#45;&gt;r4p1</title>
<path fill="none" stroke="#758297" stroke-width="1.8" d="M970.14,-261.08C981.8,-261.08 990.32,-261.08 993.49,-261.08"/>
</g>
<!-- n3&#45;&gt;r5p1 -->
<g id="edge13" class="edge">
<title>n3&#45;&gt;r5p1</title>
<path fill="none" stroke="#758297" stroke-width="1.8" d="M970.14,-261.08C981.8,-261.08 990.32,-261.08 993.49,-261.08"/>
</g>
<!-- n5&#45;&gt;r7p1 -->
<g id="edge19" class="edge">
<title>n5&#45;&gt;r7p1</title>
<path fill="none" stroke="#758297" stroke-width="1.8" d="M1154.84,-222.56C1154.84,-238.99 1154.84,-254.63 1154.84,-259.51"/>
</g>
<!-- r1p1&#45;&gt;r1p2 -->
<g id="edge2" class="edge">
<title>r1p1&#45;&gt;r1p2</title>
<path fill="none" stroke="#758297" stroke-width="1.8" d="M274.84,-344.6C274.84,-334.29 274.84,-273.05 274.84,-262.6"/>
</g>
<!-- r1p2&#45;&gt;n2 -->
<g id="edge3" class="edge">
<title>r1p2&#45;&gt;n2</title>
<path fill="none" stroke="#758297" stroke-width="1.8" d="M276.09,-261.08C279.91,-261.08 292.24,-261.08 308.96,-261.08"/>
<polygon fill="#758297" stroke="#758297" stroke-width="1.8" points="308.55,-263.88 316.55,-261.08 308.55,-258.28 308.55,-263.88"/>
</g>
<!-- r2p1&#45;&gt;r2p2 -->
<g id="edge5" class="edge">
<title>r2p1&#45;&gt;r2p2</title>
<path fill="none" stroke="#758297" stroke-width="1.8" d="M274.84,-177.56C274.84,-187.87 274.84,-249.11 274.84,-259.56"/>
</g>
<!-- r2p2&#45;&gt;n2 -->
<g id="edge6" class="edge">
<title>r2p2&#45;&gt;n2</title>
<path fill="none" stroke="#758297" stroke-width="1.8" d="M276.09,-261.08C279.91,-261.08 292.24,-261.08 308.96,-261.08"/>
<polygon fill="#758297" stroke="#758297" stroke-width="1.8" points="308.55,-263.88 316.55,-261.08 308.55,-258.28 308.55,-263.88"/>
</g>
<!-- r3p1&#45;&gt;r3p2 -->
<g id="edge8" class="edge">
<title>r3p1&#45;&gt;r3p2</title>
<path fill="none" stroke="#758297" stroke-width="1.8" d="M644.84,-261.08C644.84,-261.08 644.84,-261.08 644.84,-261.08"/>
</g>
<!-- r3p2&#45;&gt;n3 -->
<g id="edge9" class="edge">
<title>r3p2&#45;&gt;n3</title>
<path fill="none" stroke="#758297" stroke-width="1.8" d="M646.35,-261.08C648.5,-261.08 652.85,-261.08 658.8,-261.08"/>
<polygon fill="#758297" stroke="#758297" stroke-width="1.8" points="658.68,-263.88 666.68,-261.08 658.68,-258.28 658.68,-263.88"/>
</g>
<!-- r4p1&#45;&gt;r4p2 -->
<g id="edge11" class="edge">
<title>r4p1&#45;&gt;r4p2</title>
<path fill="none" stroke="#758297" stroke-width="1.8" d="M994.84,-262.56C994.84,-272.87 994.84,-334.11 994.84,-344.56"/>
</g>
<!-- r4p2&#45;&gt;n4 -->
<g id="edge12" class="edge">
<title>r4p2&#45;&gt;n4</title>
<path fill="none" stroke="#758297" stroke-width="1.8" d="M996.22,-346.08C998.38,-346.08 1002.95,-346.08 1009.23,-346.08"/>
<polygon fill="#758297" stroke="#758297" stroke-width="1.8" points="1008.86,-348.88 1016.86,-346.08 1008.86,-343.28 1008.86,-348.88"/>
</g>
<!-- r5p1&#45;&gt;r5p2 -->
<g id="edge14" class="edge">
<title>r5p1&#45;&gt;r5p2</title>
<path fill="none" stroke="#758297" stroke-width="1.8" d="M994.84,-259.6C994.84,-249.29 994.84,-188.05 994.84,-177.6"/>
</g>
<!-- r5p2&#45;&gt;n5 -->
<g id="edge15" class="edge">
<title>r5p2&#45;&gt;n5</title>
<path fill="none" stroke="#758297" stroke-width="1.8" d="M996.22,-176.08C998.38,-176.08 1002.95,-176.08 1009.23,-176.08"/>
<polygon fill="#758297" stroke="#758297" stroke-width="1.8" points="1008.86,-178.88 1016.86,-176.08 1008.86,-173.28 1008.86,-178.88"/>
</g>
<!-- r6p1&#45;&gt;r6p2 -->
<g id="edge17" class="edge">
<title>r6p1&#45;&gt;r6p2</title>
<path fill="none" stroke="#758297" stroke-width="1.8" d="M644.84,-259.71C644.84,-242.25 644.84,-64 644.84,-47.33"/>
</g>
<!-- r6p2&#45;&gt;n6 -->
<g id="edge18" class="edge">
<title>r6p2&#45;&gt;n6</title>
<path fill="none" stroke="#758297" stroke-width="1.8" d="M646.35,-46.08C648.5,-46.08 652.85,-46.08 658.8,-46.08"/>
<polygon fill="#758297" stroke="#758297" stroke-width="1.8" points="658.68,-48.88 666.68,-46.08 658.68,-43.28 658.68,-48.88"/>
</g>
<!-- r7p1&#45;&gt;r7p2 -->
<g id="edge20" class="edge">
<title>r7p1&#45;&gt;r7p2</title>
<path fill="none" stroke="#758297" stroke-width="1.8" d="M1154.84,-261.08C1154.84,-261.08 1154.84,-261.08 1154.84,-261.08"/>
</g>
<!-- r7p2&#45;&gt;n4 -->
<g id="edge21" class="edge">
<title>r7p2&#45;&gt;n4</title>
<path fill="none" stroke="#758297" stroke-width="1.8" d="M1154.84,-262.56C1154.84,-266.31 1154.84,-276.81 1154.84,-289.15"/>
<polygon fill="#758297" stroke="#758297" stroke-width="1.8" points="1152.04,-289.12 1154.84,-297.12 1157.64,-289.12 1152.04,-289.12"/>
</g>
<!-- n0 -->
<g id="node1" class="node">
<title>n0</title>
<path fill="#ffffff" stroke="#5b8def" d="M217.68,-392.16C217.68,-392.16 12,-392.16 12,-392.16 6,-392.16 0,-386.16 0,-380.16 0,-380.16 0,-312 0,-312 0,-306 6,-300 12,-300 12,-300 217.68,-300 217.68,-300 223.68,-300 229.68,-306 229.68,-312 229.68,-312 229.68,-380.16 229.68,-380.16 229.68,-386.16 223.68,-392.16 217.68,-392.16"/>
<text xml:space="preserve" text-anchor="middle" x="114.84" y="-341.73" font-family="Architects Daughter" font-size="18.00">Worker node A</text>
</g>
<!-- n1 -->
<g id="node2" class="node">
<title>n1</title>
<path fill="#ffffff" stroke="#58a978" d="M217.68,-222.16C217.68,-222.16 12,-222.16 12,-222.16 6,-222.16 0,-216.16 0,-210.16 0,-210.16 0,-142 0,-142 0,-136 6,-130 12,-130 12,-130 217.68,-130 217.68,-130 223.68,-130 229.68,-136 229.68,-142 229.68,-142 229.68,-210.16 229.68,-210.16 229.68,-216.16 223.68,-222.16 217.68,-222.16"/>
<text xml:space="preserve" text-anchor="middle" x="114.84" y="-171.73" font-family="Architects Daughter" font-size="18.00">Worker node B</text>
</g>
<!-- n2 -->
<g id="node3" class="node">
<title>n2</title>
<path fill="#ffffff" stroke="#d6a441" d="M607.96,-307.16C607.96,-307.16 331.72,-307.16 331.72,-307.16 325.72,-307.16 319.72,-301.16 319.72,-295.16 319.72,-295.16 319.72,-227 319.72,-227 319.72,-221 325.72,-215 331.72,-215 331.72,-215 607.96,-215 607.96,-215 613.96,-215 619.96,-221 619.96,-227 619.96,-227 619.96,-295.16 619.96,-295.16 619.96,-301.16 613.96,-307.16 607.96,-307.16"/>
<text xml:space="preserve" text-anchor="middle" x="469.84" y="-256.73" font-family="Architects Daughter" font-size="18.00">Watchdog job runner</text>
</g>
<!-- n3 -->
<g id="node4" class="node">
<title>n3</title>
<path fill="#ffffff" stroke="#dc6b82" d="M957.96,-307.16C957.96,-307.16 681.72,-307.16 681.72,-307.16 675.72,-307.16 669.72,-301.16 669.72,-295.16 669.72,-295.16 669.72,-227 669.72,-227 669.72,-221 675.72,-215 681.72,-215 681.72,-215 957.96,-215 957.96,-215 963.96,-215 969.96,-221 969.96,-227 969.96,-227 969.96,-295.16 969.96,-295.16 969.96,-301.16 963.96,-307.16 957.96,-307.16"/>
<text xml:space="preserve" text-anchor="middle" x="819.84" y="-256.73" font-family="Architects Daughter" font-size="18.00">RedissonLeaderElector</text>
</g>
<!-- n4 -->
<g id="node5" class="node">
<title>n4</title>
<path fill="#ffffff" stroke="#45a7a1" d="M1277.84,-392.16C1277.84,-392.16 1031.84,-392.16 1031.84,-392.16 1025.84,-392.16 1019.84,-386.16 1019.84,-380.16 1019.84,-380.16 1019.84,-312 1019.84,-312 1019.84,-306 1025.84,-300 1031.84,-300 1031.84,-300 1277.84,-300 1277.84,-300 1283.84,-300 1289.84,-306 1289.84,-312 1289.84,-312 1289.84,-380.16 1289.84,-380.16 1289.84,-386.16 1283.84,-392.16 1277.84,-392.16"/>
<text xml:space="preserve" text-anchor="middle" x="1154.84" y="-341.73" font-family="Architects Daughter" font-size="18.00">Redis lock storage</text>
</g>
<!-- n5 -->
<g id="node6" class="node">
<title>n5</title>
<path fill="#ffffff" stroke="#8a72d6" d="M1277.84,-222.16C1277.84,-222.16 1031.84,-222.16 1031.84,-222.16 1025.84,-222.16 1019.84,-216.16 1019.84,-210.16 1019.84,-210.16 1019.84,-142 1019.84,-142 1019.84,-136 1025.84,-130 1031.84,-130 1031.84,-130 1277.84,-130 1277.84,-130 1283.84,-130 1289.84,-136 1289.84,-142 1289.84,-142 1289.84,-210.16 1289.84,-210.16 1289.84,-216.16 1283.84,-222.16 1277.84,-222.16"/>
<text xml:space="preserve" text-anchor="middle" x="1154.84" y="-171.73" font-family="Architects Daughter" font-size="18.00">Lease extender</text>
</g>
<!-- n6 -->
<g id="node7" class="node">
<title>n6</title>
<path fill="#ffffff" stroke="#b88a44" d="M957.96,-92.16C957.96,-92.16 681.72,-92.16 681.72,-92.16 675.72,-92.16 669.72,-86.16 669.72,-80.16 669.72,-80.16 669.72,-12 669.72,-12 669.72,-6 675.72,0 681.72,0 681.72,0 957.96,0 957.96,0 963.96,0 969.96,-6 969.96,-12 969.96,-12 969.96,-80.16 969.96,-80.16 969.96,-86.16 963.96,-92.16 957.96,-92.16"/>
<text xml:space="preserve" text-anchor="middle" x="819.84" y="-41.73" font-family="Architects Daughter" font-size="18.00">Long&#45;running work</text>
</g>
<!-- r1p1 -->
<!-- r1p2 -->
<!-- r2p1 -->
<!-- r2p2 -->
<!-- r3p1 -->
<!-- r3p2 -->
<!-- r4p1 -->
<!-- r4p2 -->
<!-- r5p1 -->
<!-- r5p2 -->
<!-- r6p1 -->
<!-- r6p2 -->
<!-- r7p1 -->
<!-- r7p2 -->
</g>
</svg>
