<svg xmlns="http://www.w3.org/2000/svg" width="1580" height="900" viewBox="0 0 1580 900" role="img" aria-label="ZooKeeper Scheduler Architecture">
  <metadata id="graphviz-evidence">Generated with Graphviz evidence: examples-zookeeper-scheduler-architecture-01.dot, examples-zookeeper-scheduler-architecture-01.plain, examples-zookeeper-scheduler-architecture-01-graphviz.svg, and examples-zookeeper-scheduler-architecture-01-graphviz.png.</metadata>
<defs>
  <filter id="shadow" x="-8%" y="-8%" width="116%" height="116%">
    <feDropShadow dx="0" dy="7" stdDeviation="8" flood-color="#1f2937" flood-opacity="0.10"/>
  </filter>
  <marker id="arrow-neutral" markerWidth="8" markerHeight="8" refX="7" refY="4" orient="auto" markerUnits="strokeWidth">
    <path d="M 1 1 L 7 4 L 1 7 Z" fill="#758297"/>
  </marker>
  <marker id="arrow-leader" markerWidth="8" markerHeight="8" refX="7" refY="4" orient="auto" markerUnits="strokeWidth">
    <path d="M 1 1 L 7 4 L 1 7 Z" fill="#43A76B"/>
  </marker>
  <marker id="arrow-skipped" markerWidth="8" markerHeight="8" refX="7" refY="4" orient="auto" markerUnits="strokeWidth">
    <path d="M 1 1 L 7 4 L 1 7 Z" fill="#EF5B7A"/>
  </marker>
  <marker id="arrow-contention" markerWidth="8" markerHeight="8" refX="7" refY="4" orient="auto" markerUnits="strokeWidth">
    <path d="M 1 1 L 7 4 L 1 7 Z" fill="#D99A2B"/>
  </marker>
  <marker id="arrow-reacquire" markerWidth="8" markerHeight="8" refX="7" refY="4" orient="auto" markerUnits="strokeWidth">
    <path d="M 1 1 L 7 4 L 1 7 Z" fill="#8B6EEB"/>
  </marker>
  <style>
    .canvas{fill:#f7f9fc}
    .frame{fill:#fff;stroke:#d8e0ea;stroke-width:1.5}
    .layer{stroke:#dbe4ef;stroke-width:1.2}
    .title{font-family:"Architects Daughter","Comic Mono","Comic Sans MS",cursive;font-size:42px;font-weight:400;fill:#102033}
    .subtitle{font-family:"Comic Mono","Comic Sans MS",monospace;font-size:15px;font-weight:400;fill:#536273}
    .label{font-family:"Architects Daughter","Comic Mono","Comic Sans MS",cursive;font-size:21px;font-weight:400;fill:#102033}
    .detail{font-family:"Comic Mono","Comic Sans MS",monospace;font-size:12px;font-weight:400;fill:#334155}
    .strong{font-family:"Comic Mono","Comic Sans MS",monospace;font-size:13px;font-weight:400;fill:#102033}
    .card{stroke-width:2;filter:url(#shadow)}
    .line{stroke-width:2.2;fill:none;stroke-linecap:round;stroke-linejoin:round}
    .dashed{stroke-width:2.2;stroke-dasharray:7 6;fill:none;stroke-linecap:round;stroke-linejoin:round}
    .lifeline{stroke:#b7c2d1;stroke-width:2;stroke-dasharray:10 10}
    .pill{fill:#ffffff;stroke:#dbe4ef;stroke-width:1.1;opacity:.98}
  </style>
</defs>
<rect class="canvas" width="1580" height="900"/>
<rect class="frame" x="32" y="28" width="1516" height="844" rx="28"/>
<text class="title" x="66" y="82">ZooKeeper Scheduler Architecture</text>
<text class="subtitle" x="70" y="118">Caller-owned Curator clients feed bluetape4k leader election before a legacy job runs</text>
<g>
  <rect class="layer" x="54" y="165" width="1472" height="120" rx="18" fill="#F8FAFC"/>
  <text class="label" x="78" y="199">Runtime callers</text>
</g>
<g>
  <rect class="layer" x="54" y="320" width="1472" height="120" rx="18" fill="#FFFFFF"/>
  <text class="label" x="78" y="354">Example adapter</text>
</g>
<g>
  <rect class="layer" x="54" y="475" width="1472" height="120" rx="18" fill="#F8FAFC"/>
  <text class="label" x="78" y="509">bluetape4k leader election</text>
</g>
<g>
  <rect class="layer" x="54" y="630" width="1472" height="135" rx="18" fill="#FFFFFF"/>
  <text class="label" x="78" y="664">Curator and ZooKeeper infrastructure</text>
</g>
<path class="line" d="M580 226 L520 226 L520 380 L460 380" data-route-tone="neutral" style="stroke:#758297;marker-end:url(#arrow-neutral)"/>
<path class="line" d="M790 272 L790 302 L640 302 L640 332" data-route-tone="neutral" style="stroke:#758297;marker-end:url(#arrow-neutral)"/>
<path class="line" d="M880 380 L850 380 L850 380 L820 380" data-route-tone="neutral" style="stroke:#758297;marker-end:url(#arrow-neutral)"/>
<path class="line" d="M640 428 L640 458 L645 458 L645 487" data-route-tone="neutral" style="stroke:#758297;marker-end:url(#arrow-neutral)"/>
<path class="line" d="M880 535 L855 535 L855 535 L830 535" data-route-tone="neutral" style="stroke:#758297;marker-end:url(#arrow-neutral)"/>
<path class="line" d="M645 583 L645 609 L645 609 L645 635" data-route-tone="neutral" style="stroke:#758297;marker-end:url(#arrow-neutral)"/>
<path class="line" d="M640 332 L640 305 L1375 305 L1375 332" data-route-tone="neutral" style="stroke:#758297;marker-end:url(#arrow-neutral)"/>
<path class="line" d="M640 428 L640 455 L1380 455 L1380 695 L1280 695" data-route-tone="leader" style="stroke:#43A76B;marker-end:url(#arrow-leader)"/>
<g id="nodeA">
  <rect class="card" x="300" y="180" width="280" height="92" rx="14" fill="#E8F3FF" stroke="#5B8DEF"/>
<text class="label" x="440" y="211" text-anchor="middle" dominant-baseline="middle">node-a service</text>
<text class="detail" x="440" y="230" text-anchor="middle" dominant-baseline="middle">scheduled trigger</text>
<text class="detail" x="440" y="249" text-anchor="middle" dominant-baseline="middle">candidate</text>
</g>
<g id="nodeB">
  <rect class="card" x="650" y="180" width="280" height="92" rx="14" fill="#FFF3D9" stroke="#D6A441"/>
<text class="label" x="790" y="211" text-anchor="middle" dominant-baseline="middle">node-b service</text>
<text class="detail" x="790" y="230" text-anchor="middle" dominant-baseline="middle">same trigger</text>
<text class="detail" x="790" y="249" text-anchor="middle" dominant-baseline="middle">candidate</text>
</g>
<g id="adapter">
  <rect class="card" x="460" y="332" width="360" height="96" rx="14" fill="#EAF7EF" stroke="#58A978"/>
<text class="label" x="640" y="365" text-anchor="middle" dominant-baseline="middle">ZooKeeperLegacyScheduler</text>
<text class="detail" x="640" y="384" text-anchor="middle" dominant-baseline="middle">runOnce(scheduleId)</text>
<text class="detail" x="640" y="403" text-anchor="middle" dominant-baseline="middle">EXECUTED or SKIPPED</text>
</g>
<g id="config">
  <rect class="card" x="880" y="332" width="360" height="96" rx="14" fill="#E9F7F6" stroke="#45A7A1"/>
<text class="label" x="1060" y="365" text-anchor="middle" dominant-baseline="middle">ZooKeeperSchedulerConfig</text>
<text class="detail" x="1060" y="384" text-anchor="middle" dominant-baseline="middle">nodeId + lockName</text>
<text class="detail" x="1060" y="403" text-anchor="middle" dominant-baseline="middle">waitTime + leaseTime</text>
</g>
<g id="report">
  <rect class="card" x="1260" y="332" width="280" height="96" rx="14" fill="#FDECEF" stroke="#DC6B82"/>
<text class="label" x="1400" y="365" text-anchor="middle" dominant-baseline="middle">SchedulerRunReport</text>
<text class="detail" x="1400" y="384" text-anchor="middle" dominant-baseline="middle">nodeId + scheduleId</text>
<text class="detail" x="1400" y="403" text-anchor="middle" dominant-baseline="middle">status + steps</text>
</g>
<g id="elector">
  <rect class="card" x="460" y="487" width="370" height="96" rx="14" fill="#F1ECFF" stroke="#8A72D6"/>
<text class="label" x="645" y="520" text-anchor="middle" dominant-baseline="middle">ZooKeeperLeaderElector</text>
<text class="detail" x="645" y="539" text-anchor="middle" dominant-baseline="middle">LeaderElectionOptions</text>
<text class="detail" x="645" y="558" text-anchor="middle" dominant-baseline="middle">autoExtend=false</text>
</g>
<g id="options">
  <rect class="card" x="880" y="487" width="340" height="96" rx="14" fill="#E9F7F6" stroke="#45A7A1"/>
<text class="label" x="1050" y="520" text-anchor="middle" dominant-baseline="middle">LeaderElectionOptions</text>
<text class="detail" x="1050" y="539" text-anchor="middle" dominant-baseline="middle">waitTime + leaseTime</text>
<text class="detail" x="1050" y="558" text-anchor="middle" dominant-baseline="middle">node identity</text>
</g>
<g id="zk">
  <path class="card" d="M460 659 C460 643 830 643 830 659 L830 731 C830 747 460 747 460 731 Z" fill="#F7F1E7" stroke="#B88A44"/>
  <ellipse cx="645" cy="659" rx="185" ry="16" fill="#F7F1E7" stroke="#B88A44" stroke-width="2"/>
<text class="label" x="645" y="680" text-anchor="middle" dominant-baseline="middle">ZooKeeper / Curator</text>
<text class="detail" x="645" y="699" text-anchor="middle" dominant-baseline="middle">session lock</text>
<text class="detail" x="645" y="718" text-anchor="middle" dominant-baseline="middle">basePath/lockName</text>
</g>
<g id="job">
  <rect class="card" x="940" y="647" width="340" height="96" rx="14" fill="#EAF7EF" stroke="#58A978"/>
<text class="label" x="1110" y="680" text-anchor="middle" dominant-baseline="middle">Legacy scheduled job</text>
<text class="detail" x="1110" y="699" text-anchor="middle" dominant-baseline="middle">caller body</text>
<text class="detail" x="1110" y="718" text-anchor="middle" dominant-baseline="middle">validated step names</text>
</g>
</svg>
