<?xml version="1.0" encoding="UTF-8" standalone="no"?>
<!DOCTYPE svg PUBLIC "-//W3C//DTD SVG 1.1//EN"
 "http://www.w3.org/Graphics/SVG/1.1/DTD/svg11.dtd">
<!-- Generated by graphviz version 15.0.0 (20260523.1842)
 -->
<!-- Title: examples&#45;consul&#45;maintenance&#45;flow&#45;01 Pages: 1 -->
<svg width="1682pt" height="127pt"
 viewBox="0.00 0.00 1682.00 127.00" xmlns="http://www.w3.org/2000/svg" xmlns:xlink="http://www.w3.org/1999/xlink">
<g id="graph0" class="graph" transform="scale(1 1) rotate(0) translate(4 123)">
<title>examples&#45;consul&#45;maintenance&#45;flow&#45;01</title>
<!-- start -->
<g id="node1" class="node">
<title>start</title>
<path fill="#f8fafc" stroke="#94a3b8" d="M124,-68C124,-68 12,-68 12,-68 6,-68 0,-62 0,-56 0,-56 0,-44 0,-44 0,-38 6,-32 12,-32 12,-32 124,-32 124,-32 130,-32 136,-38 136,-44 136,-44 136,-56 136,-56 136,-62 130,-68 124,-68"/>
<text xml:space="preserve" text-anchor="middle" x="68" y="-44.58" font-family="Comic Mono" font-size="14.00">Maintenance Tick</text>
</g>
<!-- validate -->
<g id="node2" class="node">
<title>validate</title>
<path fill="#f8fafc" stroke="#94a3b8" d="M399.5,-68C399.5,-68 235,-68 235,-68 229,-68 223,-62 223,-56 223,-56 223,-44 223,-44 223,-38 229,-32 235,-32 235,-32 399.5,-32 399.5,-32 405.5,-32 411.5,-38 411.5,-44 411.5,-44 411.5,-56 411.5,-56 411.5,-62 405.5,-68 399.5,-68"/>
<text xml:space="preserve" text-anchor="middle" x="317.25" y="-44.58" font-family="Comic Mono" font-size="14.00">Validate Example Inputs</text>
</g>
<!-- start&#45;&gt;validate -->
<g id="edge1" class="edge">
<title>start&#45;&gt;validate</title>
<path fill="none" stroke="#758297" d="M136.44,-50C136.44,-50 211.31,-50 211.31,-50"/>
<polygon fill="#758297" stroke="#758297" points="211.31,-53.5 221.31,-50 211.31,-46.5 211.31,-53.5"/>
<text xml:space="preserve" text-anchor="middle" x="179.5" y="-52.5" font-family="Comic Mono" font-size="10.00">call</text>
</g>
<!-- attempt -->
<g id="node3" class="node">
<title>attempt</title>
<path fill="#f8fafc" stroke="#94a3b8" d="M676.5,-68C676.5,-68 542,-68 542,-68 536,-68 530,-62 530,-56 530,-56 530,-44 530,-44 530,-38 536,-32 542,-32 542,-32 676.5,-32 676.5,-32 682.5,-32 688.5,-38 688.5,-44 688.5,-44 688.5,-56 688.5,-56 688.5,-62 682.5,-68 676.5,-68"/>
<text xml:space="preserve" text-anchor="middle" x="609.25" y="-44.58" font-family="Comic Mono" font-size="14.00">ConsulLeaderElector</text>
</g>
<!-- validate&#45;&gt;attempt -->
<g id="edge2" class="edge">
<title>validate&#45;&gt;attempt</title>
<path fill="none" stroke="#758297" d="M411.65,-50C411.65,-50 518.34,-50 518.34,-50"/>
<polygon fill="#758297" stroke="#758297" points="518.34,-53.5 528.34,-50 518.34,-46.5 518.34,-53.5"/>
<text xml:space="preserve" text-anchor="middle" x="470.75" y="-52.5" font-family="Comic Mono" font-size="10.00">dependency</text>
</g>
<!-- decision -->
<g id="node4" class="node">
<title>decision</title>
<path fill="#f8fafc" stroke="#94a3b8" d="M938.5,-68C938.5,-68 819,-68 819,-68 813,-68 807,-62 807,-56 807,-56 807,-44 807,-44 807,-38 813,-32 819,-32 819,-32 938.5,-32 938.5,-32 944.5,-32 950.5,-38 950.5,-44 950.5,-44 950.5,-56 950.5,-56 950.5,-62 944.5,-68 938.5,-68"/>
<text xml:space="preserve" text-anchor="middle" x="878.75" y="-44.58" font-family="Comic Mono" font-size="14.00">Leadership Result</text>
</g>
<!-- attempt&#45;&gt;decision -->
<g id="edge3" class="edge">
<title>attempt&#45;&gt;decision</title>
<path fill="none" stroke="#758297" d="M688.65,-50C688.65,-50 795.29,-50 795.29,-50"/>
<polygon fill="#758297" stroke="#758297" points="795.29,-53.5 805.29,-50 795.29,-46.5 795.29,-53.5"/>
<text xml:space="preserve" text-anchor="middle" x="747.75" y="-52.5" font-family="Comic Mono" font-size="10.00">contention</text>
</g>
<!-- execute -->
<g id="node6" class="node">
<title>execute</title>
<path fill="#f8fafc" stroke="#94a3b8" d="M1184.75,-119C1184.75,-119 1065.25,-119 1065.25,-119 1059.25,-119 1053.25,-113 1053.25,-107 1053.25,-107 1053.25,-95 1053.25,-95 1053.25,-89 1059.25,-83 1065.25,-83 1065.25,-83 1184.75,-83 1184.75,-83 1190.75,-83 1196.75,-89 1196.75,-95 1196.75,-95 1196.75,-107 1196.75,-107 1196.75,-113 1190.75,-119 1184.75,-119"/>
<text xml:space="preserve" text-anchor="middle" x="1125" y="-95.58" font-family="Comic Mono" font-size="14.00">Drain Maintenance</text>
</g>
<!-- decision&#45;&gt;execute -->
<g id="edge4" class="edge">
<title>decision&#45;&gt;execute</title>
<path fill="none" stroke="#758297" d="M950.87,-57.33C1001.14,-57.33 1059.25,-57.33 1059.25,-57.33 1059.25,-57.33 1059.25,-71.22 1059.25,-71.22"/>
<polygon fill="#758297" stroke="#758297" points="1055.75,-71.22 1059.25,-81.22 1062.75,-71.22 1055.75,-71.22"/>
<text xml:space="preserve" text-anchor="middle" x="1001.88" y="-93.5" font-family="Comic Mono" font-size="10.00">success</text>
</g>
<!-- skipped -->
<g id="node8" class="node">
<title>skipped</title>
<path fill="#f8fafc" stroke="#94a3b8" d="M1173.5,-36C1173.5,-36 1076.5,-36 1076.5,-36 1070.5,-36 1064.5,-30 1064.5,-24 1064.5,-24 1064.5,-12 1064.5,-12 1064.5,-6 1070.5,0 1076.5,0 1076.5,0 1173.5,0 1173.5,0 1179.5,0 1185.5,-6 1185.5,-12 1185.5,-12 1185.5,-24 1185.5,-24 1185.5,-30 1179.5,-36 1173.5,-36"/>
<text xml:space="preserve" text-anchor="middle" x="1125" y="-12.57" font-family="Comic Mono" font-size="14.00">Return Skipped</text>
</g>
<!-- decision&#45;&gt;skipped -->
<g id="edge7" class="edge">
<title>decision&#45;&gt;skipped</title>
<path fill="none" stroke="#758297" d="M950.71,-46.67C1023.47,-46.67 1125.25,-46.67 1125.25,-46.67 1125.25,-46.67 1125.25,-45.63 1125.25,-45.63"/>
<polygon fill="#758297" stroke="#758297" points="1128.75,-47.83 1125.25,-37.83 1121.75,-47.83 1128.75,-47.83"/>
<text xml:space="preserve" text-anchor="middle" x="1001.88" y="-20.5" font-family="Comic Mono" font-size="10.00">skip</text>
</g>
<!-- release -->
<g id="node5" class="node">
<title>release</title>
<path fill="#f8fafc" stroke="#94a3b8" d="M1431,-119C1431,-119 1311.5,-119 1311.5,-119 1305.5,-119 1299.5,-113 1299.5,-107 1299.5,-107 1299.5,-95 1299.5,-95 1299.5,-89 1305.5,-83 1311.5,-83 1311.5,-83 1431,-83 1431,-83 1437,-83 1443,-89 1443,-95 1443,-95 1443,-107 1443,-107 1443,-113 1437,-119 1431,-119"/>
<text xml:space="preserve" text-anchor="middle" x="1371.25" y="-95.58" font-family="Comic Mono" font-size="14.00">Release Or Extend</text>
</g>
<!-- executed -->
<g id="node7" class="node">
<title>executed</title>
<path fill="#f8fafc" stroke="#94a3b8" d="M1662.25,-119C1662.25,-119 1557.75,-119 1557.75,-119 1551.75,-119 1545.75,-113 1545.75,-107 1545.75,-107 1545.75,-95 1545.75,-95 1545.75,-89 1551.75,-83 1557.75,-83 1557.75,-83 1662.25,-83 1662.25,-83 1668.25,-83 1674.25,-89 1674.25,-95 1674.25,-95 1674.25,-107 1674.25,-107 1674.25,-113 1668.25,-119 1662.25,-119"/>
<text xml:space="preserve" text-anchor="middle" x="1610" y="-95.58" font-family="Comic Mono" font-size="14.00">Return Executed</text>
</g>
<!-- release&#45;&gt;executed -->
<g id="edge6" class="edge">
<title>release&#45;&gt;executed</title>
<path fill="none" stroke="#758297" d="M1443.21,-101C1443.21,-101 1533.98,-101 1533.98,-101"/>
<polygon fill="#758297" stroke="#758297" points="1533.98,-104.5 1543.98,-101 1533.98,-97.5 1533.98,-104.5"/>
<text xml:space="preserve" text-anchor="middle" x="1494.38" y="-103.5" font-family="Comic Mono" font-size="10.00">success</text>
</g>
<!-- execute&#45;&gt;release -->
<g id="edge5" class="edge">
<title>execute&#45;&gt;release</title>
<path fill="none" stroke="#758297" d="M1197.22,-101C1197.22,-101 1287.52,-101 1287.52,-101"/>
<polygon fill="#758297" stroke="#758297" points="1287.52,-104.5 1297.52,-101 1287.52,-97.5 1287.52,-104.5"/>
<text xml:space="preserve" text-anchor="middle" x="1248.12" y="-103.5" font-family="Comic Mono" font-size="10.00">release</text>
</g>
</g>
</svg>
