<?xml version="1.0" encoding="UTF-8" standalone="no"?>
<!DOCTYPE svg PUBLIC "-//W3C//DTD SVG 1.1//EN"
 "http://www.w3.org/Graphics/SVG/1.1/DTD/svg11.dtd">
<!-- Generated by graphviz version 15.0.0 (20260523.1842)
 -->
<!-- Title: examples&#45;batch&#45;scheduler&#45;architecture&#45;01 Pages: 1 -->
<svg width="1345pt" height="136pt"
 viewBox="0.00 0.00 1345.00 136.00" xmlns="http://www.w3.org/2000/svg" xmlns:xlink="http://www.w3.org/1999/xlink">
<g id="graph0" class="graph" transform="scale(1 1) rotate(0) translate(4 132)">
<title>examples&#45;batch&#45;scheduler&#45;architecture&#45;01</title>
<!-- trigger -->
<g id="node1" class="node">
<title>trigger</title>
<path fill="#f8fafc" stroke="#94a3b8" d="M154,-77C154,-77 12,-77 12,-77 6,-77 0,-71 0,-65 0,-65 0,-53 0,-53 0,-47 6,-41 12,-41 12,-41 154,-41 154,-41 160,-41 166,-47 166,-53 166,-53 166,-65 166,-65 166,-71 160,-77 154,-77"/>
<text xml:space="preserve" text-anchor="middle" x="83" y="-53.58" font-family="Comic Mono" font-size="14.00">Scheduled Batch Tick</text>
</g>
<!-- nodeA -->
<g id="node2" class="node">
<title>nodeA</title>
<path fill="#f8fafc" stroke="#94a3b8" d="M377,-119C377,-119 265,-119 265,-119 259,-119 253,-113 253,-107 253,-107 253,-95 253,-95 253,-89 259,-83 265,-83 265,-83 377,-83 377,-83 383,-83 389,-89 389,-95 389,-95 389,-107 389,-107 389,-113 383,-119 377,-119"/>
<text xml:space="preserve" text-anchor="middle" x="321" y="-95.58" font-family="Comic Mono" font-size="14.00">Candidate Node A</text>
</g>
<!-- trigger&#45;&gt;nodeA -->
<g id="edge1" class="edge">
<title>trigger&#45;&gt;nodeA</title>
<path fill="none" stroke="#758297" d="M166.22,-65C226.79,-65 298.25,-65 298.25,-65 298.25,-65 298.25,-71.06 298.25,-71.06"/>
<polygon fill="#758297" stroke="#758297" points="294.75,-71.06 298.25,-81.06 301.75,-71.06 294.75,-71.06"/>
<text xml:space="preserve" text-anchor="middle" x="209.5" y="-98.5" font-family="Comic Mono" font-size="10.00">call</text>
</g>
<!-- nodeB -->
<g id="node3" class="node">
<title>nodeB</title>
<path fill="#f8fafc" stroke="#94a3b8" d="M377,-36C377,-36 265,-36 265,-36 259,-36 253,-30 253,-24 253,-24 253,-12 253,-12 253,-6 259,0 265,0 265,0 377,0 377,0 383,0 389,-6 389,-12 389,-12 389,-24 389,-24 389,-30 383,-36 377,-36"/>
<text xml:space="preserve" text-anchor="middle" x="321" y="-12.57" font-family="Comic Mono" font-size="14.00">Candidate Node B</text>
</g>
<!-- trigger&#45;&gt;nodeB -->
<g id="edge2" class="edge">
<title>trigger&#45;&gt;nodeB</title>
<path fill="none" stroke="#758297" d="M166.42,-53C242.54,-53 343.25,-53 343.25,-53 343.25,-53 343.25,-47.83 343.25,-47.83"/>
<polygon fill="#758297" stroke="#758297" points="346.75,-47.83 343.25,-37.83 339.75,-47.83 346.75,-47.83"/>
<text xml:space="preserve" text-anchor="middle" x="209.5" y="-29.5" font-family="Comic Mono" font-size="10.00">call</text>
</g>
<!-- coordinator -->
<g id="node4" class="node">
<title>coordinator</title>
<path fill="#f8fafc" stroke="#94a3b8" d="M585,-77C585,-77 488,-77 488,-77 482,-77 476,-71 476,-65 476,-65 476,-53 476,-53 476,-47 482,-41 488,-41 488,-41 585,-41 585,-41 591,-41 597,-47 597,-53 597,-53 597,-65 597,-65 597,-71 591,-77 585,-77"/>
<text xml:space="preserve" text-anchor="middle" x="536.5" y="-53.58" font-family="Comic Mono" font-size="14.00">BatchScheduler</text>
</g>
<!-- nodeA&#45;&gt;coordinator -->
<g id="edge3" class="edge">
<title>nodeA&#45;&gt;coordinator</title>
<path fill="none" stroke="#758297" d="M389.29,-87.5C445.59,-87.5 516.25,-87.5 516.25,-87.5 516.25,-87.5 516.25,-86.47 516.25,-86.47"/>
<polygon fill="#758297" stroke="#758297" points="519.75,-88.72 516.25,-78.72 512.75,-88.72 519.75,-88.72"/>
<text xml:space="preserve" text-anchor="middle" x="432.5" y="-98.5" font-family="Comic Mono" font-size="10.00">call</text>
</g>
<!-- nodeB&#45;&gt;coordinator -->
<g id="edge4" class="edge">
<title>nodeB&#45;&gt;coordinator</title>
<path fill="none" stroke="#758297" d="M389.4,-22.5C452.43,-22.5 536.25,-22.5 536.25,-22.5 536.25,-22.5 536.25,-29.24 536.25,-29.24"/>
<polygon fill="#758297" stroke="#758297" points="532.75,-29.24 536.25,-39.24 539.75,-29.24 532.75,-29.24"/>
<text xml:space="preserve" text-anchor="middle" x="432.5" y="-29.5" font-family="Comic Mono" font-size="10.00">call</text>
</g>
<!-- elector -->
<g id="node6" class="node">
<title>elector</title>
<path fill="#f8fafc" stroke="#94a3b8" d="M832,-128C832,-128 727.5,-128 727.5,-128 721.5,-128 715.5,-122 715.5,-116 715.5,-116 715.5,-104 715.5,-104 715.5,-98 721.5,-92 727.5,-92 727.5,-92 832,-92 832,-92 838,-92 844,-98 844,-104 844,-104 844,-116 844,-116 844,-122 838,-128 832,-128"/>
<text xml:space="preserve" text-anchor="middle" x="779.75" y="-104.58" font-family="Comic Mono" font-size="14.00">Lettuce Elector</text>
</g>
<!-- coordinator&#45;&gt;elector -->
<g id="edge5" class="edge">
<title>coordinator&#45;&gt;elector</title>
<path fill="none" stroke="#758297" d="M556.25,-77.38C556.25,-90.38 556.25,-105.5 556.25,-105.5 556.25,-105.5 703.59,-105.5 703.59,-105.5"/>
<polygon fill="#758297" stroke="#758297" points="703.59,-109 713.59,-105.5 703.59,-102 703.59,-109"/>
<text xml:space="preserve" text-anchor="middle" x="656.25" y="-102.5" font-family="Comic Mono" font-size="10.00">dependency</text>
</g>
<!-- work -->
<g id="node8" class="node">
<title>work</title>
<path fill="#f8fafc" stroke="#94a3b8" d="M828.25,-45C828.25,-45 731.25,-45 731.25,-45 725.25,-45 719.25,-39 719.25,-33 719.25,-33 719.25,-21 719.25,-21 719.25,-15 725.25,-9 731.25,-9 731.25,-9 828.25,-9 828.25,-9 834.25,-9 840.25,-15 840.25,-21 840.25,-21 840.25,-33 840.25,-33 840.25,-39 834.25,-45 828.25,-45"/>
<text xml:space="preserve" text-anchor="middle" x="779.75" y="-21.57" font-family="Comic Mono" font-size="14.00">Settlement Job</text>
</g>
<!-- coordinator&#45;&gt;work -->
<g id="edge7" class="edge">
<title>coordinator&#45;&gt;work</title>
<path fill="none" stroke="#758297" d="M597.44,-61C669.35,-61 779.25,-61 779.25,-61 779.25,-61 779.25,-56.71 779.25,-56.71"/>
<polygon fill="#758297" stroke="#758297" points="782.75,-56.71 779.25,-46.71 775.75,-56.71 782.75,-56.71"/>
<text xml:space="preserve" text-anchor="middle" x="656.25" y="-29.5" font-family="Comic Mono" font-size="10.00">success</text>
</g>
<!-- backend -->
<g id="node5" class="node">
<title>backend</title>
<path fill="#f8fafc" stroke="#94a3b8" d="M1071.5,-128C1071.5,-128 974.5,-128 974.5,-128 968.5,-128 962.5,-122 962.5,-116 962.5,-116 962.5,-104 962.5,-104 962.5,-98 968.5,-92 974.5,-92 974.5,-92 1071.5,-92 1071.5,-92 1077.5,-92 1083.5,-98 1083.5,-104 1083.5,-104 1083.5,-116 1083.5,-116 1083.5,-122 1077.5,-128 1071.5,-128"/>
<text xml:space="preserve" text-anchor="middle" x="1023" y="-104.58" font-family="Comic Mono" font-size="14.00">Redis lock key</text>
</g>
<!-- recovery -->
<g id="node7" class="node">
<title>recovery</title>
<path fill="#f8fafc" stroke="#94a3b8" d="M1325.25,-128C1325.25,-128 1198.25,-128 1198.25,-128 1192.25,-128 1186.25,-122 1186.25,-116 1186.25,-116 1186.25,-104 1186.25,-104 1186.25,-98 1192.25,-92 1198.25,-92 1198.25,-92 1325.25,-92 1325.25,-92 1331.25,-92 1337.25,-98 1337.25,-104 1337.25,-104 1337.25,-116 1337.25,-116 1337.25,-122 1331.25,-128 1325.25,-128"/>
<text xml:space="preserve" text-anchor="middle" x="1261.75" y="-104.58" font-family="Comic Mono" font-size="14.00">Lease TTL Recovery</text>
</g>
<!-- backend&#45;&gt;recovery -->
<g id="edge8" class="edge">
<title>backend&#45;&gt;recovery</title>
<path fill="none" stroke="#758297" d="M1083.86,-110C1083.86,-110 1174.52,-110 1174.52,-110"/>
<polygon fill="#758297" stroke="#758297" points="1174.52,-113.5 1184.52,-110 1174.52,-106.5 1174.52,-113.5"/>
<text xml:space="preserve" text-anchor="middle" x="1134.88" y="-112.5" font-family="Comic Mono" font-size="10.00">release</text>
</g>
<!-- elector&#45;&gt;backend -->
<g id="edge6" class="edge">
<title>elector&#45;&gt;backend</title>
<path fill="none" stroke="#758297" d="M844.3,-110C844.3,-110 950.82,-110 950.82,-110"/>
<polygon fill="#758297" stroke="#758297" points="950.82,-113.5 960.82,-110 950.82,-106.5 950.82,-113.5"/>
<text xml:space="preserve" text-anchor="middle" x="903.25" y="-112.5" font-family="Comic Mono" font-size="10.00">contention</text>
</g>
</g>
</svg>
