<?xml version="1.0" encoding="UTF-8" standalone="no"?>
<!DOCTYPE svg PUBLIC "-//W3C//DTD SVG 1.1//EN"
 "http://www.w3.org/Graphics/SVG/1.1/DTD/svg11.dtd">
<!-- Generated by graphviz version 15.0.0 (20260523.1842)
 -->
<!-- Title: examples&#45;prometheus&#45;dashboard&#45;sequence&#45;01 Pages: 1 -->
<svg width="1421pt" height="503pt"
 viewBox="0.00 0.00 1421.00 503.00" xmlns="http://www.w3.org/2000/svg" xmlns:xlink="http://www.w3.org/1999/xlink">
<g id="graph0" class="graph" transform="scale(1 1) rotate(0) translate(4 499)">
<title>examples&#45;prometheus&#45;dashboard&#45;sequence&#45;01</title>
<!-- trigger -->
<g id="node1" class="node">
<title>trigger</title>
<path fill="#f8fafc" stroke="#94a3b8" d="M154,-58C154,-58 12,-58 12,-58 6,-58 0,-52 0,-46 0,-46 0,-34 0,-34 0,-28 6,-22 12,-22 12,-22 154,-22 154,-22 160,-22 166,-28 166,-34 166,-34 166,-46 166,-46 166,-52 160,-58 154,-58"/>
<text xml:space="preserve" text-anchor="middle" x="83" y="-34.58" font-family="Comic Mono" font-size="14.00">Scheduled Metric Job</text>
</g>
<!-- coord -->
<g id="node2" class="node">
<title>coord</title>
<path fill="#f8fafc" stroke="#94a3b8" d="M485,-150C485,-150 380.5,-150 380.5,-150 374.5,-150 368.5,-144 368.5,-138 368.5,-138 368.5,-126 368.5,-126 368.5,-120 374.5,-114 380.5,-114 380.5,-114 485,-114 485,-114 491,-114 497,-120 497,-126 497,-126 497,-138 497,-138 497,-144 491,-150 485,-150"/>
<text xml:space="preserve" text-anchor="middle" x="432.75" y="-126.58" font-family="Comic Mono" font-size="14.00">Leader job bean</text>
</g>
<!-- trigger&#45;&gt;coord -->
<g id="edge1" class="edge">
<title>trigger&#45;&gt;coord</title>
<path fill="none" stroke="#4f83bf" d="M166.27,-49.25C269.64,-49.25 432.5,-49.25 432.5,-49.25 432.5,-49.25 432.5,-105.12 432.5,-105.12"/>
<polygon fill="#4f83bf" stroke="#4f83bf" points="430.05,-105.12 432.5,-112.12 434.95,-105.12 430.05,-105.12"/>
<text xml:space="preserve" text-anchor="middle" x="267.25" y="-89.5" font-family="Comic Mono" font-size="10.00">start scheduled metric job</text>
</g>
<!-- elector -->
<g id="node3" class="node">
<title>elector</title>
<path fill="#f8fafc" stroke="#94a3b8" d="M939,-266C939,-266 774.5,-266 774.5,-266 768.5,-266 762.5,-260 762.5,-254 762.5,-254 762.5,-242 762.5,-242 762.5,-236 768.5,-230 774.5,-230 774.5,-230 939,-230 939,-230 945,-230 951,-236 951,-242 951,-242 951,-254 951,-254 951,-260 945,-266 939,-266"/>
<text xml:space="preserve" text-anchor="middle" x="856.75" y="-242.57" font-family="Comic Mono" font-size="14.00">Spring AOP leader proxy</text>
</g>
<!-- coord&#45;&gt;elector -->
<g id="edge2" class="edge">
<title>coord&#45;&gt;elector</title>
<path fill="none" stroke="#4f83bf" d="M432.5,-150.38C432.5,-183.09 432.5,-248 432.5,-248 432.5,-248 753.55,-248 753.55,-248"/>
<polygon fill="#4f83bf" stroke="#4f83bf" points="753.55,-250.45 760.55,-248 753.55,-245.55 753.55,-250.45"/>
<text xml:space="preserve" text-anchor="middle" x="629.75" y="-211.5" font-family="Comic Mono" font-size="10.00">runIfLeader with source options</text>
</g>
<!-- backend -->
<g id="node4" class="node">
<title>backend</title>
<path fill="#f8fafc" stroke="#94a3b8" d="M1363,-400C1363,-400 1266,-400 1266,-400 1260,-400 1254,-394 1254,-388 1254,-388 1254,-376 1254,-376 1254,-370 1260,-364 1266,-364 1266,-364 1363,-364 1363,-364 1369,-364 1375,-370 1375,-376 1375,-376 1375,-388 1375,-388 1375,-394 1369,-400 1363,-400"/>
<text xml:space="preserve" text-anchor="middle" x="1314.5" y="-376.57" font-family="Comic Mono" font-size="14.00">Redis lock key</text>
</g>
<!-- elector&#45;&gt;backend -->
<g id="edge3" class="edge">
<title>elector&#45;&gt;backend</title>
<path fill="none" stroke="#b9851b" d="M951.4,-260.86C1075.74,-260.86 1278.5,-260.86 1278.5,-260.86 1278.5,-260.86 1278.5,-355.09 1278.5,-355.09"/>
<polygon fill="#b9851b" stroke="#b9851b" points="1276.05,-355.09 1278.5,-362.09 1280.95,-355.09 1276.05,-355.09"/>
<text xml:space="preserve" text-anchor="middle" x="1083.75" y="-485.5" font-family="Comic Mono" font-size="10.00">attempt backend ownership</text>
</g>
<!-- elector&#45;&gt;backend -->
<g id="edge7" class="edge">
<title>elector&#45;&gt;backend</title>
<path fill="none" stroke="#755bc6" d="M951.28,-255.71C1082.13,-255.71 1302.5,-255.71 1302.5,-255.71 1302.5,-255.71 1302.5,-355.12 1302.5,-355.12"/>
<polygon fill="#755bc6" stroke="#755bc6" points="1300.05,-355.12 1302.5,-362.12 1304.95,-355.12 1300.05,-355.12"/>
<text xml:space="preserve" text-anchor="middle" x="1083.75" y="-418.5" font-family="Comic Mono" font-size="10.00">release or renew for Prometheus scrape</text>
</g>
<!-- work -->
<g id="node5" class="node">
<title>work</title>
<path fill="#f8fafc" stroke="#94a3b8" d="M1400.5,-200C1400.5,-200 1228.5,-200 1228.5,-200 1222.5,-200 1216.5,-194 1216.5,-188 1216.5,-188 1216.5,-176 1216.5,-176 1216.5,-170 1222.5,-164 1228.5,-164 1228.5,-164 1400.5,-164 1400.5,-164 1406.5,-164 1412.5,-170 1412.5,-176 1412.5,-176 1412.5,-188 1412.5,-188 1412.5,-194 1406.5,-200 1400.5,-200"/>
<text xml:space="preserve" text-anchor="middle" x="1314.5" y="-176.57" font-family="Comic Mono" font-size="14.00">Record Micrometer Meters</text>
</g>
<!-- elector&#45;&gt;work -->
<g id="edge5" class="edge">
<title>elector&#45;&gt;work</title>
<path fill="none" stroke="#3e9868" d="M951.04,-235.14C1061.17,-235.14 1228.5,-235.14 1228.5,-235.14 1228.5,-235.14 1228.5,-208.8 1228.5,-208.8"/>
<polygon fill="#3e9868" stroke="#3e9868" points="1230.95,-208.8 1228.5,-201.8 1226.05,-208.8 1230.95,-208.8"/>
<text xml:space="preserve" text-anchor="middle" x="1083.75" y="-217.5" font-family="Comic Mono" font-size="10.00">execute record Micrometer meters</text>
</g>
<!-- peer -->
<g id="node6" class="node">
<title>peer</title>
<path fill="#f8fafc" stroke="#94a3b8" d="M1355.5,-59C1355.5,-59 1273.5,-59 1273.5,-59 1267.5,-59 1261.5,-53 1261.5,-47 1261.5,-47 1261.5,-35 1261.5,-35 1261.5,-29 1267.5,-23 1273.5,-23 1273.5,-23 1355.5,-23 1355.5,-23 1361.5,-23 1367.5,-29 1367.5,-35 1367.5,-35 1367.5,-47 1367.5,-47 1367.5,-53 1361.5,-59 1355.5,-59"/>
<text xml:space="preserve" text-anchor="middle" x="1314.5" y="-35.58" font-family="Comic Mono" font-size="14.00">Skipped Peer</text>
</g>
<!-- elector&#45;&gt;peer -->
<g id="edge9" class="edge">
<title>elector&#45;&gt;peer</title>
<path fill="none" stroke="#c94d68" d="M856.5,-229.59C856.5,-178.8 856.5,-40.5 856.5,-40.5 856.5,-40.5 1252.55,-40.5 1252.55,-40.5"/>
<polygon fill="#c94d68" stroke="#c94d68" points="1252.55,-42.95 1259.55,-40.5 1252.55,-38.05 1252.55,-42.95"/>
<text xml:space="preserve" text-anchor="middle" x="1083.75" y="-83.5" font-family="Comic Mono" font-size="10.00">return skipped result</text>
</g>
<!-- backend&#45;&gt;elector -->
<g id="edge4" class="edge">
<title>backend&#45;&gt;elector</title>
<path fill="none" stroke="#3e9868" d="M1326.5,-363.73C1326.5,-327.61 1326.5,-250.57 1326.5,-250.57 1326.5,-250.57 959.76,-250.57 959.76,-250.57"/>
<polygon fill="#3e9868" stroke="#3e9868" points="959.76,-248.12 952.76,-250.57 959.76,-253.02 959.76,-248.12"/>
<text xml:space="preserve" text-anchor="middle" x="1083.75" y="-351.5" font-family="Comic Mono" font-size="10.00">owner token accepted</text>
</g>
<!-- backend&#45;&gt;elector -->
<g id="edge8" class="edge">
<title>backend&#45;&gt;elector</title>
<path fill="none" stroke="#c94d68" d="M1350.5,-363.58C1350.5,-326.3 1350.5,-245.43 1350.5,-245.43 1350.5,-245.43 959.88,-245.43 959.88,-245.43"/>
<polygon fill="#c94d68" stroke="#c94d68" points="959.88,-242.98 952.88,-245.43 959.88,-247.88 959.88,-242.98"/>
<text xml:space="preserve" text-anchor="middle" x="1083.75" y="-284.5" font-family="Comic Mono" font-size="10.00">lock already owned</text>
</g>
<!-- work&#45;&gt;elector -->
<g id="edge6" class="edge">
<title>work&#45;&gt;elector</title>
<path fill="none" stroke="#3e9868" d="M1241.5,-200.44C1241.5,-217.52 1241.5,-240.29 1241.5,-240.29 1241.5,-240.29 959.88,-240.29 959.88,-240.29"/>
<polygon fill="#3e9868" stroke="#3e9868" points="959.88,-237.84 952.88,-240.29 959.88,-242.74 959.88,-237.84"/>
<text xml:space="preserve" text-anchor="middle" x="1083.75" y="-150.5" font-family="Comic Mono" font-size="10.00">return leader result</text>
</g>
<!-- peer&#45;&gt;trigger -->
<g id="edge10" class="edge">
<title>peer&#45;&gt;trigger</title>
<path fill="none" stroke="#c94d68" d="M1261.19,-31.75C1261.19,-31.75 174.86,-31.75 174.86,-31.75"/>
<polygon fill="#c94d68" stroke="#c94d68" points="174.86,-29.3 167.86,-31.75 174.86,-34.2 174.86,-29.3"/>
<text xml:space="preserve" text-anchor="middle" x="629.75" y="-2.5" font-family="Comic Mono" font-size="10.00">cycle completes without duplicate work</text>
</g>
</g>
</svg>
