<?xml version="1.0" encoding="UTF-8" standalone="no"?>
<!DOCTYPE svg PUBLIC "-//W3C//DTD SVG 1.1//EN"
 "http://www.w3.org/Graphics/SVG/1.1/DTD/svg11.dtd">
<!-- Generated by graphviz version 15.0.0 (20260523.1842)
 -->
<!-- Title: examples&#45;consul&#45;maintenance&#45;sequence&#45;01 Pages: 1 -->
<svg width="1328pt" height="153pt"
 viewBox="0.00 0.00 1328.00 153.00" xmlns="http://www.w3.org/2000/svg" xmlns:xlink="http://www.w3.org/1999/xlink">
<g id="graph0" class="graph" transform="scale(1 1) rotate(0) translate(4 130.5)">
<title>examples&#45;consul&#45;maintenance&#45;sequence&#45;01</title>
<text xml:space="preserve" text-anchor="middle" x="660.12" y="-109.2" font-family="Times,serif" font-size="14.00">Consul Maintenance Sequence Flow</text>
<!-- n0&#45;&gt;n1 -->
<g id="edge1" class="edge">
<title>n0&#45;&gt;n1</title>
<path fill="none" stroke="#758297" stroke-width="1.8" d="M210.43,-24C210.43,-24 266.66,-24 266.66,-24"/>
<polygon fill="#758297" stroke="#758297" stroke-width="1.8" points="266.66,-26.8 274.66,-24 266.66,-21.2 266.66,-26.8"/>
</g>
<!-- n1&#45;&gt;n0 -->
<g id="edge7" class="edge">
<title>n1&#45;&gt;n0</title>
<path fill="none" stroke="#758297" stroke-width="1.8" stroke-dasharray="5,2" d="M277.31,-48C277.31,-48 221.08,-48 221.08,-48"/>
<polygon fill="#758297" stroke="#758297" stroke-width="1.8" points="221.08,-45.2 213.08,-48 221.08,-50.8 221.08,-45.2"/>
</g>
<!-- n1&#45;&gt;n2 -->
<g id="edge2" class="edge">
<title>n1&#45;&gt;n2</title>
<path fill="none" stroke="#758297" stroke-width="1.8" d="M487.93,-36C487.93,-36 544.16,-36 544.16,-36"/>
<polygon fill="#758297" stroke="#758297" stroke-width="1.8" points="544.16,-38.8 552.16,-36 544.16,-33.2 544.16,-38.8"/>
</g>
<!-- n1&#45;&gt;n3 -->
<g id="edge3" class="edge">
<title>n1&#45;&gt;n3</title>
<path fill="none" stroke="#758297" stroke-width="1.8" d="M452.7,-72.16C452.7,-75.69 452.7,-78 452.7,-78 452.7,-78 902.58,-78 902.58,-78 902.58,-78 902.58,-77.42 902.58,-77.42"/>
<polygon fill="#758297" stroke="#758297" stroke-width="1.8" points="905.38,-82.88 902.58,-74.88 899.78,-82.88 905.38,-82.88"/>
</g>
<!-- n1&#45;&gt;n3 -->
<g id="edge8" class="edge">
<title>n1&#45;&gt;n3</title>
<path fill="none" stroke="#758297" stroke-width="1.8" d="M417.66,-72.38C417.66,-79.08 417.66,-84 417.66,-84 417.66,-84 972.66,-84 972.66,-84 972.66,-84 972.66,-82.84 972.66,-82.84"/>
<polygon fill="#758297" stroke="#758297" stroke-width="1.8" points="975.46,-83.1 972.66,-75.1 969.86,-83.1 975.46,-83.1"/>
</g>
<!-- n1&#45;&gt;n4 -->
<g id="edge6" class="edge">
<title>n1&#45;&gt;n4</title>
<path fill="none" stroke="#758297" stroke-width="1.8" stroke-dasharray="5,2" d="M312.54,-72.32C312.54,-82.09 312.54,-90 312.54,-90 312.54,-90 1162.56,-90 1162.56,-90 1162.56,-90 1162.56,-83.04 1162.56,-83.04"/>
<polygon fill="#758297" stroke="#758297" stroke-width="1.8" points="1165.36,-83.04 1162.56,-75.04 1159.76,-83.04 1165.36,-83.04"/>
</g>
<!-- n3&#45;&gt;n1 -->
<g id="edge4" class="edge">
<title>n3&#45;&gt;n1</title>
<path fill="none" stroke="#758297" stroke-width="1.8" stroke-dasharray="5,2" d="M937.62,0.32C937.62,10.09 937.62,18 937.62,18 937.62,18 382.62,18 382.62,18 382.62,18 382.62,11.04 382.62,11.04"/>
<polygon fill="#758297" stroke="#758297" stroke-width="1.8" points="379.82,11.04 382.62,3.04 385.42,11.04 379.82,11.04"/>
</g>
<!-- n4&#45;&gt;n1 -->
<g id="edge5" class="edge">
<title>n4&#45;&gt;n1</title>
<path fill="none" stroke="#758297" stroke-width="1.8" d="M1215.12,-72.29C1215.12,-84.92 1215.12,-96 1215.12,-96 1215.12,-96 382.62,-96 382.62,-96 382.62,-96 382.62,-83.01 382.62,-83.01"/>
<polygon fill="#758297" stroke="#758297" stroke-width="1.8" points="385.42,-83.01 382.62,-75.01 379.82,-83.01 385.42,-83.01"/>
</g>
<!-- n4&#45;&gt;n1 -->
<g id="edge9" class="edge">
<title>n4&#45;&gt;n1</title>
<path fill="none" stroke="#758297" stroke-width="1.8" d="M1267.68,-72.47C1267.68,-87.74 1267.68,-102 1267.68,-102 1267.68,-102 347.58,-102 347.58,-102 347.58,-102 347.58,-83.2 347.58,-83.2"/>
<polygon fill="#758297" stroke="#758297" stroke-width="1.8" points="350.38,-83.2 347.58,-75.2 344.78,-83.2 350.38,-83.2"/>
</g>
<!-- n0 -->
<g id="node1" class="node">
<title>n0</title>
<path fill="#ffffff" stroke="#5b8def" d="M198.24,-72C198.24,-72 12,-72 12,-72 6,-72 0,-66 0,-60 0,-60 0,-12 0,-12 0,-6 6,0 12,0 12,0 198.24,0 198.24,0 204.24,0 210.24,-6 210.24,-12 210.24,-12 210.24,-60 210.24,-60 210.24,-66 204.24,-72 198.24,-72"/>
<text xml:space="preserve" text-anchor="middle" x="105.12" y="-31.65" font-family="Architects Daughter" font-size="18.00">Node A</text>
</g>
<!-- n1 -->
<g id="node2" class="node">
<title>n1</title>
<path fill="#ffffff" stroke="#58a978" d="M475.74,-72C475.74,-72 289.5,-72 289.5,-72 283.5,-72 277.5,-66 277.5,-60 277.5,-60 277.5,-12 277.5,-12 277.5,-6 283.5,0 289.5,0 289.5,0 475.74,0 475.74,0 481.74,0 487.74,-6 487.74,-12 487.74,-12 487.74,-60 487.74,-60 487.74,-66 481.74,-72 475.74,-72"/>
<text xml:space="preserve" text-anchor="middle" x="382.62" y="-31.65" font-family="Architects Daughter" font-size="18.00">Coordinator</text>
</g>
<!-- n2 -->
<g id="node3" class="node">
<title>n2</title>
<path fill="#ffffff" stroke="#d6a441" d="M753.24,-72C753.24,-72 567,-72 567,-72 561,-72 555,-66 555,-60 555,-60 555,-12 555,-12 555,-6 561,0 567,0 567,0 753.24,0 753.24,0 759.24,0 765.24,-6 765.24,-12 765.24,-12 765.24,-60 765.24,-60 765.24,-66 759.24,-72 753.24,-72"/>
<text xml:space="preserve" text-anchor="middle" x="660.12" y="-31.65" font-family="Architects Daughter" font-size="18.00">Consul</text>
</g>
<!-- n3 -->
<g id="node4" class="node">
<title>n3</title>
<path fill="#ffffff" stroke="#dc6b82" d="M1030.74,-72C1030.74,-72 844.5,-72 844.5,-72 838.5,-72 832.5,-66 832.5,-60 832.5,-60 832.5,-12 832.5,-12 832.5,-6 838.5,0 844.5,0 844.5,0 1030.74,0 1030.74,0 1036.74,0 1042.74,-6 1042.74,-12 1042.74,-12 1042.74,-60 1042.74,-60 1042.74,-66 1036.74,-72 1030.74,-72"/>
<text xml:space="preserve" text-anchor="middle" x="937.62" y="-31.65" font-family="Architects Daughter" font-size="18.00">KV lock</text>
</g>
<!-- n4 -->
<g id="node5" class="node">
<title>n4</title>
<path fill="#ffffff" stroke="#45a7a1" d="M1308.24,-72C1308.24,-72 1122,-72 1122,-72 1116,-72 1110,-66 1110,-60 1110,-60 1110,-12 1110,-12 1110,-6 1116,0 1122,0 1122,0 1308.24,0 1308.24,0 1314.24,0 1320.24,-6 1320.24,-12 1320.24,-12 1320.24,-60 1320.24,-60 1320.24,-66 1314.24,-72 1308.24,-72"/>
<text xml:space="preserve" text-anchor="middle" x="1215.12" y="-31.65" font-family="Architects Daughter" font-size="18.00">Node B</text>
</g>
</g>
</svg>
