<?xml version="1.0" encoding="UTF-8" standalone="no"?>
<!DOCTYPE svg PUBLIC "-//W3C//DTD SVG 1.1//EN"
 "http://www.w3.org/Graphics/SVG/1.1/DTD/svg11.dtd">
<!-- Generated by graphviz version 15.0.0 (20260523.1842)
 -->
<!-- Title: examples&#45;redisson&#45;watchdog&#45;sequence&#45;01 Pages: 1 -->
<svg width="1328pt" height="129pt"
 viewBox="0.00 0.00 1328.00 129.00" xmlns="http://www.w3.org/2000/svg" xmlns:xlink="http://www.w3.org/1999/xlink">
<g id="graph0" class="graph" transform="scale(1 1) rotate(0) translate(4 124.5)">
<title>examples&#45;redisson&#45;watchdog&#45;sequence&#45;01</title>
<text xml:space="preserve" text-anchor="middle" x="660.12" y="-103.2" font-family="Times,serif" font-size="14.00">Redisson Watchdog Sequence Flow</text>
<!-- n0&#45;&gt;n1 -->
<g id="edge1" class="edge">
<title>n0&#45;&gt;n1</title>
<path fill="none" stroke="#758297" stroke-width="1.8" d="M210.43,-24C210.43,-24 266.66,-24 266.66,-24"/>
<polygon fill="#758297" stroke="#758297" stroke-width="1.8" points="266.66,-26.8 274.66,-24 266.66,-21.2 266.66,-26.8"/>
</g>
<!-- n1&#45;&gt;n0 -->
<g id="edge8" class="edge">
<title>n1&#45;&gt;n0</title>
<path fill="none" stroke="#758297" stroke-width="1.8" stroke-dasharray="5,2" d="M277.31,-48C277.31,-48 221.08,-48 221.08,-48"/>
<polygon fill="#758297" stroke="#758297" stroke-width="1.8" points="221.08,-45.2 213.08,-48 221.08,-50.8 221.08,-45.2"/>
</g>
<!-- n1&#45;&gt;n2 -->
<g id="edge2" class="edge">
<title>n1&#45;&gt;n2</title>
<path fill="none" stroke="#758297" stroke-width="1.8" d="M487.93,-58C487.93,-58 544.16,-58 544.16,-58"/>
<polygon fill="#758297" stroke="#758297" stroke-width="1.8" points="544.16,-60.8 552.16,-58 544.16,-55.2 544.16,-60.8"/>
</g>
<!-- n1&#45;&gt;n2 -->
<g id="edge7" class="edge">
<title>n1&#45;&gt;n2</title>
<path fill="none" stroke="#758297" stroke-width="1.8" d="M487.93,-43C487.93,-43 544.16,-43 544.16,-43"/>
<polygon fill="#758297" stroke="#758297" stroke-width="1.8" points="544.16,-45.8 552.16,-43 544.16,-40.2 544.16,-45.8"/>
</g>
<!-- n1&#45;&gt;n2 -->
<g id="edge9" class="edge">
<title>n1&#45;&gt;n2</title>
<path fill="none" stroke="#758297" stroke-width="1.8" d="M487.93,-29C487.93,-29 544.16,-29 544.16,-29"/>
<polygon fill="#758297" stroke="#758297" stroke-width="1.8" points="544.16,-31.8 552.16,-29 544.16,-26.2 544.16,-31.8"/>
</g>
<!-- n1&#45;&gt;n4 -->
<g id="edge6" class="edge">
<title>n1&#45;&gt;n4</title>
<path fill="none" stroke="#758297" stroke-width="1.8" stroke-dasharray="5,2" d="M417.66,-72.29C417.66,-84.92 417.66,-96 417.66,-96 417.66,-96 1250.16,-96 1250.16,-96 1250.16,-96 1250.16,-83.01 1250.16,-83.01"/>
<polygon fill="#758297" stroke="#758297" stroke-width="1.8" points="1252.96,-83.01 1250.16,-75.01 1247.36,-83.01 1252.96,-83.01"/>
</g>
<!-- n2&#45;&gt;n1 -->
<g id="edge4" class="edge">
<title>n2&#45;&gt;n1</title>
<path fill="none" stroke="#758297" stroke-width="1.8" stroke-dasharray="5,2" d="M554.81,-14C554.81,-14 498.58,-14 498.58,-14"/>
<polygon fill="#758297" stroke="#758297" stroke-width="1.8" points="498.58,-11.2 490.58,-14 498.58,-16.8 498.58,-11.2"/>
</g>
<!-- n2&#45;&gt;n3 -->
<g id="edge3" class="edge">
<title>n2&#45;&gt;n3</title>
<path fill="none" stroke="#758297" stroke-width="1.8" d="M765.43,-36C765.43,-36 821.66,-36 821.66,-36"/>
<polygon fill="#758297" stroke="#758297" stroke-width="1.8" points="821.66,-38.8 829.66,-36 821.66,-33.2 821.66,-38.8"/>
</g>
<!-- n4&#45;&gt;n1 -->
<g id="edge5" class="edge">
<title>n4&#45;&gt;n1</title>
<path fill="none" stroke="#758297" stroke-width="1.8" d="M1180.08,-72.38C1180.08,-79.08 1180.08,-84 1180.08,-84 1180.08,-84 347.58,-84 347.58,-84 347.58,-84 347.58,-82.84 347.58,-82.84"/>
<polygon fill="#758297" stroke="#758297" stroke-width="1.8" points="350.38,-83.1 347.58,-75.1 344.78,-83.1 350.38,-83.1"/>
</g>
<!-- n0 -->
<g id="node1" class="node">
<title>n0</title>
<path fill="#ffffff" stroke="#5b8def" d="M198.24,-72C198.24,-72 12,-72 12,-72 6,-72 0,-66 0,-60 0,-60 0,-12 0,-12 0,-6 6,0 12,0 12,0 198.24,0 198.24,0 204.24,0 210.24,-6 210.24,-12 210.24,-12 210.24,-60 210.24,-60 210.24,-66 204.24,-72 198.24,-72"/>
<text xml:space="preserve" text-anchor="middle" x="105.12" y="-31.65" font-family="Architects Daughter" font-size="18.00">Node A</text>
</g>
<!-- n1 -->
<g id="node2" class="node">
<title>n1</title>
<path fill="#ffffff" stroke="#58a978" d="M475.74,-72C475.74,-72 289.5,-72 289.5,-72 283.5,-72 277.5,-66 277.5,-60 277.5,-60 277.5,-12 277.5,-12 277.5,-6 283.5,0 289.5,0 289.5,0 475.74,0 475.74,0 481.74,0 487.74,-6 487.74,-12 487.74,-12 487.74,-60 487.74,-60 487.74,-66 481.74,-72 475.74,-72"/>
<text xml:space="preserve" text-anchor="middle" x="382.62" y="-31.65" font-family="Architects Daughter" font-size="18.00">Runner</text>
</g>
<!-- n2 -->
<g id="node3" class="node">
<title>n2</title>
<path fill="#ffffff" stroke="#d6a441" d="M753.24,-72C753.24,-72 567,-72 567,-72 561,-72 555,-66 555,-60 555,-60 555,-12 555,-12 555,-6 561,0 567,0 567,0 753.24,0 753.24,0 759.24,0 765.24,-6 765.24,-12 765.24,-12 765.24,-60 765.24,-60 765.24,-66 759.24,-72 753.24,-72"/>
<text xml:space="preserve" text-anchor="middle" x="660.12" y="-31.65" font-family="Architects Daughter" font-size="18.00">Redisson</text>
</g>
<!-- n3 -->
<g id="node4" class="node">
<title>n3</title>
<path fill="#ffffff" stroke="#dc6b82" d="M1030.74,-72C1030.74,-72 844.5,-72 844.5,-72 838.5,-72 832.5,-66 832.5,-60 832.5,-60 832.5,-12 832.5,-12 832.5,-6 838.5,0 844.5,0 844.5,0 1030.74,0 1030.74,0 1036.74,0 1042.74,-6 1042.74,-12 1042.74,-12 1042.74,-60 1042.74,-60 1042.74,-66 1036.74,-72 1030.74,-72"/>
<text xml:space="preserve" text-anchor="middle" x="937.62" y="-31.65" font-family="Architects Daughter" font-size="18.00">Redis lock</text>
</g>
<!-- n4 -->
<g id="node5" class="node">
<title>n4</title>
<path fill="#ffffff" stroke="#45a7a1" d="M1308.24,-72C1308.24,-72 1122,-72 1122,-72 1116,-72 1110,-66 1110,-60 1110,-60 1110,-12 1110,-12 1110,-6 1116,0 1122,0 1122,0 1308.24,0 1308.24,0 1314.24,0 1320.24,-6 1320.24,-12 1320.24,-12 1320.24,-60 1320.24,-60 1320.24,-66 1314.24,-72 1308.24,-72"/>
<text xml:space="preserve" text-anchor="middle" x="1215.12" y="-31.65" font-family="Architects Daughter" font-size="18.00">Node B</text>
</g>
</g>
</svg>
