<svg xmlns="http://www.w3.org/2000/svg" width="1400" height="630" viewBox="0 0 1400 630" role="img" aria-label="Redisson Watchdog Architecture">
  <metadata id="graphviz-evidence">Regenerated with Graphviz evidence: examples-redisson-watchdog-architecture-01.dot, examples-redisson-watchdog-architecture-01.plain, examples-redisson-watchdog-architecture-01-graphviz.svg via scripts/regenerate-readme-diagram-graphviz-evidence.mjs.</metadata>
<defs>
  <filter id="shadow" x="-8%" y="-8%" width="116%" height="116%"><feDropShadow dx="0" dy="8" stdDeviation="9" flood-color="#1f2937" flood-opacity="0.10"/></filter>
  <marker id="openArrow" markerWidth="12" markerHeight="10" refX="10" refY="5" orient="auto" markerUnits="strokeWidth"><path d="M 1 1 L 10 5 L 1 9" fill="none" stroke="#758297" stroke-width="1.8" stroke-linecap="round" stroke-linejoin="round"/></marker>
  <style>
    .canvas{fill:#f7f9fc}.frame{fill:#fff;stroke:#d8e0ea;stroke-width:1.5}
    .title{font-family:"Architects Daughter","Comic Mono","Comic Sans MS","Comic Sans",cursive;font-size:43px;font-weight:400;fill:#102033}
    .subtitle{font-family:"Comic Mono","Comic Sans MS","Comic Sans","Comic Neue",Arial,sans-serif;font-size:15px;font-weight:400;fill:#536273}
    .smallLabel{font-family:"Architects Daughter","Comic Mono","Comic Sans MS","Comic Sans",cursive;font-size:21px;font-weight:400;fill:#102033}
    .mono{font-family:"Comic Mono","Comic Sans MS","Comic Sans","Comic Neue",Arial,sans-serif;font-size:12px;font-weight:400;fill:#102033}
    .strong{font-family:"Comic Mono","Comic Sans MS","Comic Sans","Comic Neue",Arial,sans-serif;font-size:13px;font-weight:400;fill:#102033}
    .card{stroke-width:2.1;filter:url(#shadow)}
    .line{stroke:#758297;stroke-width:2.1;fill:none;marker-end:url(#openArrow)}
    .dashed{stroke:#758297;stroke-width:2.1;stroke-dasharray:7 6;fill:none;marker-end:url(#openArrow)}
    .lifeline{stroke:#b7c2d1;stroke-width:2;stroke-dasharray:10 10}
  </style>
</defs>
<rect class="canvas" width="1400" height="630"/>
<rect class="frame" x="32" y="28" width="1336" height="574" rx="28"/>
<text class="title" x="66" y="82">Redisson Watchdog Architecture</text>
<text class="subtitle" x="70" y="118">Redisson lock ownership and bluetape4k auto-extension protect a long-running leader job</text>
<path class="line" d="M300 186 L345 186 L345 271 L390 271"/>
<path class="line" d="M300 356 L345 356 L345 271 L390 271"/>
<path class="line" d="M690 271 L715 271 L715 271 L740 271"/>
<path class="line" d="M1040 271 L1065 271 L1065 186 L1090 186"/>
<path class="line" d="M1040 271 L1065 271 L1065 356 L1090 356"/>
<path class="line" d="M690 271 L715 271 L715 486 L740 486"/>
<path class="line" d="M1225 310 L1225 271 L1225 271 L1225 232"/>
<g id="nodeA" transform="translate(70,140)">
  <rect class="card" x="0" y="0" width="230" height="92" rx="14" fill="#E8F3FF" stroke="#5B8DEF"/>
  <text class="smallLabel" x="115" y="28" text-anchor="middle">Worker node A</text>
  <text class="mono" x="115" y="53" text-anchor="middle">long job</text>
  <text class="mono" x="115" y="70" text-anchor="middle">candidate</text>
</g>
<g id="nodeB" transform="translate(70,310)">
  <rect class="card" x="0" y="0" width="230" height="92" rx="14" fill="#EAF7EF" stroke="#58A978"/>
  <text class="smallLabel" x="115" y="28" text-anchor="middle">Worker node B</text>
  <text class="mono" x="115" y="53" text-anchor="middle">long job</text>
  <text class="mono" x="115" y="70" text-anchor="middle">skip while locked</text>
</g>
<g id="runner" transform="translate(390,225)">
  <rect class="card" x="0" y="0" width="300" height="92" rx="14" fill="#FFF3D9" stroke="#D6A441"/>
  <text class="smallLabel" x="150" y="28" text-anchor="middle">Watchdog job runner</text>
  <text class="mono" x="150" y="53" text-anchor="middle">runIfLeader</text>
  <text class="mono" x="150" y="70" text-anchor="middle">autoExtend=true</text>
</g>
<g id="elector" transform="translate(740,225)">
  <rect class="card" x="0" y="0" width="300" height="92" rx="14" fill="#FDECEF" stroke="#DC6B82"/>
  <text class="smallLabel" x="150" y="28" text-anchor="middle">RedissonLeaderElector</text>
  <text class="mono" x="150" y="53" text-anchor="middle">RLock</text>
  <text class="mono" x="150" y="70" text-anchor="middle">lease watchdog</text>
</g>
<g id="redis" transform="translate(1090,140)">
  <rect class="card" x="0" y="0" width="270" height="92" rx="14" fill="#E9F7F6" stroke="#45A7A1"/>
  <text class="smallLabel" x="135" y="28" text-anchor="middle">Redis lock storage</text>
  <text class="mono" x="135" y="53" text-anchor="middle">Redisson lock key</text>
  <text class="mono" x="135" y="70" text-anchor="middle">owned by node A</text>
</g>
<g id="extender" transform="translate(1090,310)">
  <rect class="card" x="0" y="0" width="270" height="92" rx="14" fill="#F1ECFF" stroke="#8A72D6"/>
  <text class="smallLabel" x="135" y="28" text-anchor="middle">Lease extender</text>
  <text class="mono" x="135" y="53" text-anchor="middle">refresh before expiry</text>
  <text class="mono" x="135" y="70" text-anchor="middle">stop on release</text>
</g>
<g id="job" transform="translate(740,440)">
  <rect class="card" x="0" y="0" width="300" height="92" rx="14" fill="#F7F1E7" stroke="#B88A44"/>
  <text class="smallLabel" x="150" y="28" text-anchor="middle">Long-running work</text>
  <text class="mono" x="150" y="53" text-anchor="middle">body executes once</text>
  <text class="mono" x="150" y="70" text-anchor="middle">release on exit</text>
</g>
</svg>
