<?xml version="1.0" encoding="UTF-8" standalone="no"?>
<!DOCTYPE svg PUBLIC "-//W3C//DTD SVG 1.1//EN"
 "http://www.w3.org/Graphics/SVG/1.1/DTD/svg11.dtd">
<!-- Generated by graphviz version 15.0.0 (20260523.1842)
 -->
<!-- Title: examples&#45;dynamodb&#45;export&#45;sequence&#45;01 Pages: 1 -->
<svg width="1360pt" height="503pt"
 viewBox="0.00 0.00 1360.00 503.00" xmlns="http://www.w3.org/2000/svg" xmlns:xlink="http://www.w3.org/1999/xlink">
<g id="graph0" class="graph" transform="scale(1 1) rotate(0) translate(4 499)">
<title>examples&#45;dynamodb&#45;export&#45;sequence&#45;01</title>
<!-- trigger -->
<g id="node1" class="node">
<title>trigger</title>
<path fill="#f8fafc" stroke="#94a3b8" d="M109,-58C109,-58 12,-58 12,-58 6,-58 0,-52 0,-46 0,-46 0,-34 0,-34 0,-28 6,-22 12,-22 12,-22 109,-22 109,-22 115,-22 121,-28 121,-34 121,-34 121,-46 121,-46 121,-52 115,-58 109,-58"/>
<text xml:space="preserve" text-anchor="middle" x="60.5" y="-34.58" font-family="Comic Mono" font-size="14.00">Export Request</text>
</g>
<!-- coord -->
<g id="node2" class="node">
<title>coord</title>
<path fill="#f8fafc" stroke="#94a3b8" d="M483.5,-150C483.5,-150 304,-150 304,-150 298,-150 292,-144 292,-138 292,-138 292,-126 292,-126 292,-120 298,-114 304,-114 304,-114 483.5,-114 483.5,-114 489.5,-114 495.5,-120 495.5,-126 495.5,-126 495.5,-138 495.5,-138 495.5,-144 489.5,-150 483.5,-150"/>
<text xml:space="preserve" text-anchor="middle" x="393.75" y="-126.58" font-family="Comic Mono" font-size="14.00">DynamoDbExportCoordinator</text>
</g>
<!-- trigger&#45;&gt;coord -->
<g id="edge1" class="edge">
<title>trigger&#45;&gt;coord</title>
<path fill="none" stroke="#4f83bf" d="M60.75,-58.18C60.75,-84.99 60.75,-132 60.75,-132 60.75,-132 283.06,-132 283.06,-132"/>
<polygon fill="#4f83bf" stroke="#4f83bf" points="283.06,-134.45 290.06,-132 283.06,-129.55 283.06,-134.45"/>
<text xml:space="preserve" text-anchor="middle" x="206.5" y="-89.5" font-family="Comic Mono" font-size="10.00">start export request</text>
</g>
<!-- elector -->
<g id="node3" class="node">
<title>elector</title>
<path fill="#f8fafc" stroke="#94a3b8" d="M937.5,-266C937.5,-266 773,-266 773,-266 767,-266 761,-260 761,-254 761,-254 761,-242 761,-242 761,-236 767,-230 773,-230 773,-230 937.5,-230 937.5,-230 943.5,-230 949.5,-236 949.5,-242 949.5,-242 949.5,-254 949.5,-254 949.5,-260 943.5,-266 937.5,-266"/>
<text xml:space="preserve" text-anchor="middle" x="855.25" y="-242.57" font-family="Comic Mono" font-size="14.00">DynamoDB leader elector</text>
</g>
<!-- coord&#45;&gt;elector -->
<g id="edge2" class="edge">
<title>coord&#45;&gt;elector</title>
<path fill="none" stroke="#4f83bf" d="M495.93,-132C623.1,-132 823.75,-132 823.75,-132 823.75,-132 823.75,-221.11 823.75,-221.11"/>
<polygon fill="#4f83bf" stroke="#4f83bf" points="821.3,-221.11 823.75,-228.11 826.2,-221.11 821.3,-221.11"/>
<text xml:space="preserve" text-anchor="middle" x="628.25" y="-211.5" font-family="Comic Mono" font-size="10.00">runIfLeader with source options</text>
</g>
<!-- backend -->
<g id="node4" class="node">
<title>backend</title>
<path fill="#f8fafc" stroke="#94a3b8" d="M1339.75,-400C1339.75,-400 1242.75,-400 1242.75,-400 1236.75,-400 1230.75,-394 1230.75,-388 1230.75,-388 1230.75,-376 1230.75,-376 1230.75,-370 1236.75,-364 1242.75,-364 1242.75,-364 1339.75,-364 1339.75,-364 1345.75,-364 1351.75,-370 1351.75,-376 1351.75,-376 1351.75,-388 1351.75,-388 1351.75,-394 1345.75,-400 1339.75,-400"/>
<text xml:space="preserve" text-anchor="middle" x="1291.25" y="-376.57" font-family="Comic Mono" font-size="14.00">lock table row</text>
</g>
<!-- elector&#45;&gt;backend -->
<g id="edge3" class="edge">
<title>elector&#45;&gt;backend</title>
<path fill="none" stroke="#b9851b" d="M949.95,-250.57C1073.41,-250.57 1273.75,-250.57 1273.75,-250.57 1273.75,-250.57 1273.75,-355.21 1273.75,-355.21"/>
<polygon fill="#b9851b" stroke="#b9851b" points="1271.3,-355.21 1273.75,-362.21 1276.2,-355.21 1271.3,-355.21"/>
<text xml:space="preserve" text-anchor="middle" x="1090.12" y="-485.5" font-family="Comic Mono" font-size="10.00">attempt backend ownership</text>
</g>
<!-- elector&#45;&gt;backend -->
<g id="edge7" class="edge">
<title>elector&#45;&gt;backend</title>
<path fill="none" stroke="#755bc6" d="M949.75,-245.43C1077.83,-245.43 1290.75,-245.43 1290.75,-245.43 1290.75,-245.43 1290.75,-355.07 1290.75,-355.07"/>
<polygon fill="#755bc6" stroke="#755bc6" points="1288.3,-355.07 1290.75,-362.07 1293.2,-355.07 1288.3,-355.07"/>
<text xml:space="preserve" text-anchor="middle" x="1090.12" y="-418.5" font-family="Comic Mono" font-size="10.00">release or renew for logical lease expiry</text>
</g>
<!-- work -->
<g id="node5" class="node">
<title>work</title>
<path fill="#f8fafc" stroke="#94a3b8" d="M1332.25,-200C1332.25,-200 1250.25,-200 1250.25,-200 1244.25,-200 1238.25,-194 1238.25,-188 1238.25,-188 1238.25,-176 1238.25,-176 1238.25,-170 1244.25,-164 1250.25,-164 1250.25,-164 1332.25,-164 1332.25,-164 1338.25,-164 1344.25,-170 1344.25,-176 1344.25,-176 1344.25,-188 1344.25,-188 1344.25,-194 1338.25,-200 1332.25,-200"/>
<text xml:space="preserve" text-anchor="middle" x="1291.25" y="-176.57" font-family="Comic Mono" font-size="14.00">Export Batch</text>
</g>
<!-- elector&#45;&gt;work -->
<g id="edge5" class="edge">
<title>elector&#45;&gt;work</title>
<path fill="none" stroke="#3e9868" d="M949.81,-240.29C1087.46,-240.29 1326.75,-240.29 1326.75,-240.29 1326.75,-240.29 1326.75,-208.96 1326.75,-208.96"/>
<polygon fill="#3e9868" stroke="#3e9868" points="1329.2,-208.96 1326.75,-201.96 1324.3,-208.96 1329.2,-208.96"/>
<text xml:space="preserve" text-anchor="middle" x="1090.12" y="-217.5" font-family="Comic Mono" font-size="10.00">execute export batch</text>
</g>
<!-- peer -->
<g id="node6" class="node">
<title>peer</title>
<path fill="#f8fafc" stroke="#94a3b8" d="M1332.25,-59C1332.25,-59 1250.25,-59 1250.25,-59 1244.25,-59 1238.25,-53 1238.25,-47 1238.25,-47 1238.25,-35 1238.25,-35 1238.25,-29 1244.25,-23 1250.25,-23 1250.25,-23 1332.25,-23 1332.25,-23 1338.25,-23 1344.25,-29 1344.25,-35 1344.25,-35 1344.25,-47 1344.25,-47 1344.25,-53 1338.25,-59 1332.25,-59"/>
<text xml:space="preserve" text-anchor="middle" x="1291.25" y="-35.58" font-family="Comic Mono" font-size="14.00">Skipped Peer</text>
</g>
<!-- elector&#45;&gt;peer -->
<g id="edge9" class="edge">
<title>elector&#45;&gt;peer</title>
<path fill="none" stroke="#c94d68" d="M886.75,-229.75C886.75,-180.11 886.75,-46.33 886.75,-46.33 886.75,-46.33 1229.44,-46.33 1229.44,-46.33"/>
<polygon fill="#c94d68" stroke="#c94d68" points="1229.44,-48.78 1236.44,-46.33 1229.44,-43.88 1229.44,-48.78"/>
<text xml:space="preserve" text-anchor="middle" x="1090.12" y="-83.5" font-family="Comic Mono" font-size="10.00">return skipped result</text>
</g>
<!-- backend&#45;&gt;elector -->
<g id="edge4" class="edge">
<title>backend&#45;&gt;elector</title>
<path fill="none" stroke="#3e9868" d="M1234.75,-363.6C1234.75,-329.71 1234.75,-260.86 1234.75,-260.86 1234.75,-260.86 958.06,-260.86 958.06,-260.86"/>
<polygon fill="#3e9868" stroke="#3e9868" points="958.06,-258.41 951.06,-260.86 958.06,-263.31 958.06,-258.41"/>
<text xml:space="preserve" text-anchor="middle" x="1090.12" y="-351.5" font-family="Comic Mono" font-size="10.00">owner token accepted</text>
</g>
<!-- backend&#45;&gt;elector -->
<g id="edge8" class="edge">
<title>backend&#45;&gt;elector</title>
<path fill="none" stroke="#c94d68" d="M1255.75,-363.64C1255.75,-328.61 1255.75,-255.71 1255.75,-255.71 1255.75,-255.71 958.42,-255.71 958.42,-255.71"/>
<polygon fill="#c94d68" stroke="#c94d68" points="958.42,-253.26 951.42,-255.71 958.42,-258.16 958.42,-253.26"/>
<text xml:space="preserve" text-anchor="middle" x="1090.12" y="-284.5" font-family="Comic Mono" font-size="10.00">lock already owned</text>
</g>
<!-- work&#45;&gt;elector -->
<g id="edge6" class="edge">
<title>work&#45;&gt;elector</title>
<path fill="none" stroke="#3e9868" d="M1308.75,-200.29C1308.75,-215.66 1308.75,-235.14 1308.75,-235.14 1308.75,-235.14 958.28,-235.14 958.28,-235.14"/>
<polygon fill="#3e9868" stroke="#3e9868" points="958.28,-232.69 951.28,-235.14 958.28,-237.59 958.28,-232.69"/>
<text xml:space="preserve" text-anchor="middle" x="1090.12" y="-150.5" font-family="Comic Mono" font-size="10.00">return leader result</text>
</g>
<!-- peer&#45;&gt;trigger -->
<g id="edge10" class="edge">
<title>peer&#45;&gt;trigger</title>
<path fill="none" stroke="#c94d68" d="M1237.97,-34.67C1237.97,-34.67 129.82,-34.67 129.82,-34.67"/>
<polygon fill="#c94d68" stroke="#c94d68" points="129.82,-32.22 122.82,-34.67 129.82,-37.12 129.82,-32.22"/>
<text xml:space="preserve" text-anchor="middle" x="628.25" y="-2.5" font-family="Comic Mono" font-size="10.00">cycle completes without duplicate work</text>
</g>
</g>
</svg>
