<?xml version="1.0" encoding="UTF-8" standalone="no"?>
<!DOCTYPE svg PUBLIC "-//W3C//DTD SVG 1.1//EN"
 "http://www.w3.org/Graphics/SVG/1.1/DTD/svg11.dtd">
<!-- Generated by graphviz version 15.0.0 (20260523.1842)
 -->
<!-- Title: examples&#45;cache&#45;warmer&#45;flow&#45;01 Pages: 1 -->
<svg width="1727pt" height="127pt"
 viewBox="0.00 0.00 1727.00 127.00" xmlns="http://www.w3.org/2000/svg" xmlns:xlink="http://www.w3.org/1999/xlink">
<g id="graph0" class="graph" transform="scale(1 1) rotate(0) translate(4 123)">
<title>examples&#45;cache&#45;warmer&#45;flow&#45;01</title>
<!-- start -->
<g id="node1" class="node">
<title>start</title>
<path fill="#f8fafc" stroke="#94a3b8" d="M124,-68C124,-68 12,-68 12,-68 6,-68 0,-62 0,-56 0,-56 0,-44 0,-44 0,-38 6,-32 12,-32 12,-32 124,-32 124,-32 130,-32 136,-38 136,-44 136,-44 136,-56 136,-56 136,-62 130,-68 124,-68"/>
<text xml:space="preserve" text-anchor="middle" x="68" y="-44.58" font-family="Comic Mono" font-size="14.00">Cache Warm Cycle</text>
</g>
<!-- validate -->
<g id="node2" class="node">
<title>validate</title>
<path fill="#f8fafc" stroke="#94a3b8" d="M399.5,-68C399.5,-68 235,-68 235,-68 229,-68 223,-62 223,-56 223,-56 223,-44 223,-44 223,-38 229,-32 235,-32 235,-32 399.5,-32 399.5,-32 405.5,-32 411.5,-38 411.5,-44 411.5,-44 411.5,-56 411.5,-56 411.5,-62 405.5,-68 399.5,-68"/>
<text xml:space="preserve" text-anchor="middle" x="317.25" y="-44.58" font-family="Comic Mono" font-size="14.00">Validate Example Inputs</text>
</g>
<!-- start&#45;&gt;validate -->
<g id="edge1" class="edge">
<title>start&#45;&gt;validate</title>
<path fill="none" stroke="#758297" d="M136.44,-50C136.44,-50 211.31,-50 211.31,-50"/>
<polygon fill="#758297" stroke="#758297" points="211.31,-53.5 221.31,-50 211.31,-46.5 211.31,-53.5"/>
<text xml:space="preserve" text-anchor="middle" x="179.5" y="-52.5" font-family="Comic Mono" font-size="10.00">call</text>
</g>
<!-- attempt -->
<g id="node3" class="node">
<title>attempt</title>
<path fill="#f8fafc" stroke="#94a3b8" d="M699,-68C699,-68 542,-68 542,-68 536,-68 530,-62 530,-56 530,-56 530,-44 530,-44 530,-38 536,-32 542,-32 542,-32 699,-32 699,-32 705,-32 711,-38 711,-44 711,-44 711,-56 711,-56 711,-62 705,-68 699,-68"/>
<text xml:space="preserve" text-anchor="middle" x="620.5" y="-44.58" font-family="Comic Mono" font-size="14.00">Leader elector factory</text>
</g>
<!-- validate&#45;&gt;attempt -->
<g id="edge2" class="edge">
<title>validate&#45;&gt;attempt</title>
<path fill="none" stroke="#758297" d="M411.95,-50C411.95,-50 518.11,-50 518.11,-50"/>
<polygon fill="#758297" stroke="#758297" points="518.11,-53.5 528.11,-50 518.11,-46.5 518.11,-53.5"/>
<text xml:space="preserve" text-anchor="middle" x="470.75" y="-52.5" font-family="Comic Mono" font-size="10.00">dependency</text>
</g>
<!-- decision -->
<g id="node4" class="node">
<title>decision</title>
<path fill="#f8fafc" stroke="#94a3b8" d="M961,-68C961,-68 841.5,-68 841.5,-68 835.5,-68 829.5,-62 829.5,-56 829.5,-56 829.5,-44 829.5,-44 829.5,-38 835.5,-32 841.5,-32 841.5,-32 961,-32 961,-32 967,-32 973,-38 973,-44 973,-44 973,-56 973,-56 973,-62 967,-68 961,-68"/>
<text xml:space="preserve" text-anchor="middle" x="901.25" y="-44.58" font-family="Comic Mono" font-size="14.00">Leadership Result</text>
</g>
<!-- attempt&#45;&gt;decision -->
<g id="edge3" class="edge">
<title>attempt&#45;&gt;decision</title>
<path fill="none" stroke="#758297" d="M711.26,-50C711.26,-50 817.5,-50 817.5,-50"/>
<polygon fill="#758297" stroke="#758297" points="817.5,-53.5 827.5,-50 817.5,-46.5 817.5,-53.5"/>
<text xml:space="preserve" text-anchor="middle" x="770.25" y="-52.5" font-family="Comic Mono" font-size="10.00">contention</text>
</g>
<!-- execute -->
<g id="node6" class="node">
<title>execute</title>
<path fill="#f8fafc" stroke="#94a3b8" d="M1229.75,-119C1229.75,-119 1087.75,-119 1087.75,-119 1081.75,-119 1075.75,-113 1075.75,-107 1075.75,-107 1075.75,-95 1075.75,-95 1075.75,-89 1081.75,-83 1087.75,-83 1087.75,-83 1229.75,-83 1229.75,-83 1235.75,-83 1241.75,-89 1241.75,-95 1241.75,-95 1241.75,-107 1241.75,-107 1241.75,-113 1235.75,-119 1229.75,-119"/>
<text xml:space="preserve" text-anchor="middle" x="1158.75" y="-95.58" font-family="Comic Mono" font-size="14.00">Warm Cache Partition</text>
</g>
<!-- decision&#45;&gt;execute -->
<g id="edge4" class="edge">
<title>decision&#45;&gt;execute</title>
<path fill="none" stroke="#758297" d="M973.43,-57.33C1025.71,-57.33 1087.25,-57.33 1087.25,-57.33 1087.25,-57.33 1087.25,-71.22 1087.25,-71.22"/>
<polygon fill="#758297" stroke="#758297" points="1083.75,-71.22 1087.25,-81.22 1090.75,-71.22 1083.75,-71.22"/>
<text xml:space="preserve" text-anchor="middle" x="1024.38" y="-93.5" font-family="Comic Mono" font-size="10.00">success</text>
</g>
<!-- skipped -->
<g id="node8" class="node">
<title>skipped</title>
<path fill="#f8fafc" stroke="#94a3b8" d="M1207.25,-36C1207.25,-36 1110.25,-36 1110.25,-36 1104.25,-36 1098.25,-30 1098.25,-24 1098.25,-24 1098.25,-12 1098.25,-12 1098.25,-6 1104.25,0 1110.25,0 1110.25,0 1207.25,0 1207.25,0 1213.25,0 1219.25,-6 1219.25,-12 1219.25,-12 1219.25,-24 1219.25,-24 1219.25,-30 1213.25,-36 1207.25,-36"/>
<text xml:space="preserve" text-anchor="middle" x="1158.75" y="-12.57" font-family="Comic Mono" font-size="14.00">Return Skipped</text>
</g>
<!-- decision&#45;&gt;skipped -->
<g id="edge7" class="edge">
<title>decision&#45;&gt;skipped</title>
<path fill="none" stroke="#758297" d="M973.18,-46.67C1049.21,-46.67 1158.25,-46.67 1158.25,-46.67 1158.25,-46.67 1158.25,-45.63 1158.25,-45.63"/>
<polygon fill="#758297" stroke="#758297" points="1161.75,-47.83 1158.25,-37.83 1154.75,-47.83 1161.75,-47.83"/>
<text xml:space="preserve" text-anchor="middle" x="1024.38" y="-20.5" font-family="Comic Mono" font-size="10.00">skip</text>
</g>
<!-- release -->
<g id="node5" class="node">
<title>release</title>
<path fill="#f8fafc" stroke="#94a3b8" d="M1476,-119C1476,-119 1356.5,-119 1356.5,-119 1350.5,-119 1344.5,-113 1344.5,-107 1344.5,-107 1344.5,-95 1344.5,-95 1344.5,-89 1350.5,-83 1356.5,-83 1356.5,-83 1476,-83 1476,-83 1482,-83 1488,-89 1488,-95 1488,-95 1488,-107 1488,-107 1488,-113 1482,-119 1476,-119"/>
<text xml:space="preserve" text-anchor="middle" x="1416.25" y="-95.58" font-family="Comic Mono" font-size="14.00">Release Or Extend</text>
</g>
<!-- executed -->
<g id="node7" class="node">
<title>executed</title>
<path fill="#f8fafc" stroke="#94a3b8" d="M1707.25,-119C1707.25,-119 1602.75,-119 1602.75,-119 1596.75,-119 1590.75,-113 1590.75,-107 1590.75,-107 1590.75,-95 1590.75,-95 1590.75,-89 1596.75,-83 1602.75,-83 1602.75,-83 1707.25,-83 1707.25,-83 1713.25,-83 1719.25,-89 1719.25,-95 1719.25,-95 1719.25,-107 1719.25,-107 1719.25,-113 1713.25,-119 1707.25,-119"/>
<text xml:space="preserve" text-anchor="middle" x="1655" y="-95.58" font-family="Comic Mono" font-size="14.00">Return Executed</text>
</g>
<!-- release&#45;&gt;executed -->
<g id="edge6" class="edge">
<title>release&#45;&gt;executed</title>
<path fill="none" stroke="#758297" d="M1488.21,-101C1488.21,-101 1578.98,-101 1578.98,-101"/>
<polygon fill="#758297" stroke="#758297" points="1578.98,-104.5 1588.98,-101 1578.98,-97.5 1578.98,-104.5"/>
<text xml:space="preserve" text-anchor="middle" x="1539.38" y="-103.5" font-family="Comic Mono" font-size="10.00">success</text>
</g>
<!-- execute&#45;&gt;release -->
<g id="edge5" class="edge">
<title>execute&#45;&gt;release</title>
<path fill="none" stroke="#758297" d="M1242,-101C1242,-101 1332.6,-101 1332.6,-101"/>
<polygon fill="#758297" stroke="#758297" points="1332.6,-104.5 1342.6,-101 1332.6,-97.5 1332.6,-104.5"/>
<text xml:space="preserve" text-anchor="middle" x="1293.12" y="-103.5" font-family="Comic Mono" font-size="10.00">release</text>
</g>
</g>
</svg>
