<?xml version="1.0" encoding="UTF-8" standalone="no"?>
<!DOCTYPE svg PUBLIC "-//W3C//DTD SVG 1.1//EN"
 "http://www.w3.org/Graphics/SVG/1.1/DTD/svg11.dtd">
<!-- Generated by graphviz version 15.0.0 (20260523.1842)
 -->
<!-- Title: examples&#45;ktor&#45;app&#45;sequence&#45;01 Pages: 1 -->
<svg width="2324pt" height="160pt"
 viewBox="0.00 0.00 2324.00 160.00" xmlns="http://www.w3.org/2000/svg" xmlns:xlink="http://www.w3.org/1999/xlink">
<g id="graph0" class="graph" transform="scale(1 1) rotate(0) translate(4 124.5)">
<title>examples&#45;ktor&#45;app&#45;sequence&#45;01</title>
<text xml:space="preserve" text-anchor="middle" x="1158.12" y="-103.2" font-family="Times,serif" font-size="14.00">ktor app Sequence Flow</text>
<!-- n0&#45;&gt;n1 -->
<g id="edge8" class="edge">
<title>n0&#45;&gt;n1</title>
<path fill="none" stroke="#758297" stroke-width="1.8" d="M300.54,-24C300.54,-24 392.2,-24 392.2,-24"/>
<polygon fill="#758297" stroke="#758297" stroke-width="1.8" points="392.2,-26.8 400.2,-24 392.2,-21.2 392.2,-26.8"/>
</g>
<!-- n0&#45;&gt;n2 -->
<g id="edge10" class="edge">
<title>n0&#45;&gt;n2</title>
<path fill="none" stroke="#758297" stroke-width="1.8" d="M150.12,0.24C150.12,5.95 150.12,10 150.12,10 150.12,10 906.48,10 906.48,10 906.48,10 906.48,9.02 906.48,9.02"/>
<polygon fill="#758297" stroke="#758297" stroke-width="1.8" points="903.68,10.97 906.48,2.97 909.28,10.97 903.68,10.97"/>
</g>
<!-- n1&#45;&gt;n0 -->
<g id="edge9" class="edge">
<title>n1&#45;&gt;n0</title>
<path fill="none" stroke="#758297" stroke-width="1.8" stroke-dasharray="5,2" d="M402.9,-48C402.9,-48 311.24,-48 311.24,-48"/>
<polygon fill="#758297" stroke="#758297" stroke-width="1.8" points="311.24,-45.2 303.24,-48 311.24,-50.8 311.24,-45.2"/>
</g>
<!-- n1&#45;&gt;n3 -->
<g id="edge1" class="edge">
<title>n1&#45;&gt;n3</title>
<path fill="none" stroke="#758297" stroke-width="1.8" d="M643.39,0.25C643.39,8.56 643.39,15 643.39,15 643.39,15 1359.72,15 1359.72,15 1359.72,15 1359.72,10.97 1359.72,10.97"/>
<polygon fill="#758297" stroke="#758297" stroke-width="1.8" points="1356.92,10.97 1359.72,2.97 1362.52,10.97 1356.92,10.97"/>
</g>
<!-- n1&#45;&gt;n4 -->
<g id="edge7" class="edge">
<title>n1&#45;&gt;n4</title>
<path fill="none" stroke="#758297" stroke-width="1.8" d="M583.34,0.42C583.34,11.59 583.34,21 583.34,21 583.34,21 1762.92,21 1762.92,21 1762.92,21 1762.92,11.15 1762.92,11.15"/>
<polygon fill="#758297" stroke="#758297" stroke-width="1.8" points="1760.12,11.15 1762.92,3.15 1765.72,11.15 1760.12,11.15"/>
</g>
<!-- n1&#45;&gt;n5 -->
<g id="edge3" class="edge">
<title>n1&#45;&gt;n5</title>
<path fill="none" stroke="#758297" stroke-width="1.8" d="M463.25,0.25C463.25,16.03 463.25,31 463.25,31 463.25,31 2091.06,31 2091.06,31 2091.06,31 2091.06,10.97 2091.06,10.97"/>
<polygon fill="#758297" stroke="#758297" stroke-width="1.8" points="2088.26,10.97 2091.06,2.97 2093.86,10.97 2088.26,10.97"/>
</g>
<!-- n2&#45;&gt;n0 -->
<g id="edge11" class="edge">
<title>n2&#45;&gt;n0</title>
<path fill="none" stroke="#758297" stroke-width="1.8" stroke-dasharray="5,2" d="M906.48,-72.38C906.48,-79.08 906.48,-84 906.48,-84 906.48,-84 150.12,-84 150.12,-84 150.12,-84 150.12,-82.84 150.12,-82.84"/>
<polygon fill="#758297" stroke="#758297" stroke-width="1.8" points="152.92,-83.1 150.12,-75.1 147.32,-83.1 152.92,-83.1"/>
</g>
<!-- n2&#45;&gt;n3 -->
<g id="edge2" class="edge">
<title>n2&#45;&gt;n3</title>
<path fill="none" stroke="#758297" stroke-width="1.8" d="M1106.94,-36C1106.94,-36 1198.6,-36 1198.6,-36"/>
<polygon fill="#758297" stroke="#758297" stroke-width="1.8" points="1198.6,-38.8 1206.6,-36 1198.6,-33.2 1198.6,-38.8"/>
</g>
<!-- n2&#45;&gt;n5 -->
<g id="edge4" class="edge">
<title>n2&#45;&gt;n5</title>
<path fill="none" stroke="#758297" stroke-width="1.8" d="M1006.56,-72.29C1006.56,-84.92 1006.56,-96 1006.56,-96 1006.56,-96 2166.12,-96 2166.12,-96 2166.12,-96 2166.12,-83.01 2166.12,-83.01"/>
<polygon fill="#758297" stroke="#758297" stroke-width="1.8" points="2168.92,-83.01 2166.12,-75.01 2163.32,-83.01 2168.92,-83.01"/>
</g>
<!-- n5&#45;&gt;n1 -->
<g id="edge5" class="edge">
<title>n5&#45;&gt;n1</title>
<path fill="none" stroke="#758297" stroke-width="1.8" stroke-dasharray="5,2" d="M2241.18,0.42C2241.18,13.92 2241.18,26 2241.18,26 2241.18,26 523.3,26 523.3,26 523.3,26 523.3,11.15 523.3,11.15"/>
<polygon fill="#758297" stroke="#758297" stroke-width="1.8" points="520.5,11.15 523.3,3.15 526.1,11.15 520.5,11.15"/>
</g>
<!-- n5&#45;&gt;n2 -->
<g id="edge6" class="edge">
<title>n5&#45;&gt;n2</title>
<path fill="none" stroke="#758297" stroke-width="1.8" stroke-dasharray="5,2" d="M2166.12,0.3C2166.12,3.18 2166.12,5 2166.12,5 2166.12,5 1006.56,5 1006.56,5 1006.56,5 1006.56,4.53 1006.56,4.53"/>
<polygon fill="#758297" stroke="#758297" stroke-width="1.8" points="1003.76,11.02 1006.56,3.02 1009.36,11.02 1003.76,11.02"/>
</g>
<!-- n0 -->
<g id="node1" class="node">
<title>n0</title>
<path fill="#ffffff" stroke="#5b8def" d="M288.24,-72C288.24,-72 12,-72 12,-72 6,-72 0,-66 0,-60 0,-60 0,-12 0,-12 0,-6 6,0 12,0 12,0 288.24,0 288.24,0 294.24,0 300.24,-6 300.24,-12 300.24,-12 300.24,-60 300.24,-60 300.24,-66 294.24,-72 288.24,-72"/>
<text xml:space="preserve" text-anchor="middle" x="150.12" y="-31.65" font-family="Architects Daughter" font-size="18.00">Client</text>
</g>
<!-- n1 -->
<g id="node2" class="node">
<title>n1</title>
<path fill="#ffffff" stroke="#58a978" d="M691.44,-72C691.44,-72 415.2,-72 415.2,-72 409.2,-72 403.2,-66 403.2,-60 403.2,-60 403.2,-12 403.2,-12 403.2,-6 409.2,0 415.2,0 415.2,0 691.44,0 691.44,0 697.44,0 703.44,-6 703.44,-12 703.44,-12 703.44,-60 703.44,-60 703.44,-66 697.44,-72 691.44,-72"/>
<text xml:space="preserve" text-anchor="middle" x="553.32" y="-31.65" font-family="Architects Daughter" font-size="18.00">Ktor Node&#45;1</text>
</g>
<!-- n2 -->
<g id="node3" class="node">
<title>n2</title>
<path fill="#ffffff" stroke="#d6a441" d="M1094.64,-72C1094.64,-72 818.4,-72 818.4,-72 812.4,-72 806.4,-66 806.4,-60 806.4,-60 806.4,-12 806.4,-12 806.4,-6 812.4,0 818.4,0 818.4,0 1094.64,0 1094.64,0 1100.64,0 1106.64,-6 1106.64,-12 1106.64,-12 1106.64,-60 1106.64,-60 1106.64,-66 1100.64,-72 1094.64,-72"/>
<text xml:space="preserve" text-anchor="middle" x="956.52" y="-31.65" font-family="Architects Daughter" font-size="18.00">Ktor Node&#45;2</text>
</g>
<!-- n3 -->
<g id="node4" class="node">
<title>n3</title>
<path fill="#ffffff" stroke="#dc6b82" d="M1497.84,-72C1497.84,-72 1221.6,-72 1221.6,-72 1215.6,-72 1209.6,-66 1209.6,-60 1209.6,-60 1209.6,-12 1209.6,-12 1209.6,-6 1215.6,0 1221.6,0 1221.6,0 1497.84,0 1497.84,0 1503.84,0 1509.84,-6 1509.84,-12 1509.84,-12 1509.84,-60 1509.84,-60 1509.84,-66 1503.84,-72 1497.84,-72"/>
<text xml:space="preserve" text-anchor="middle" x="1359.72" y="-31.65" font-family="Architects Daughter" font-size="18.00">Leader Election</text>
</g>
<!-- n4 -->
<g id="node5" class="node">
<title>n4</title>
<path fill="#ffffff" stroke="#45a7a1" d="M1901.04,-72C1901.04,-72 1624.8,-72 1624.8,-72 1618.8,-72 1612.8,-66 1612.8,-60 1612.8,-60 1612.8,-12 1612.8,-12 1612.8,-6 1618.8,0 1624.8,0 1624.8,0 1901.04,0 1901.04,0 1907.04,0 1913.04,-6 1913.04,-12 1913.04,-12 1913.04,-60 1913.04,-60 1913.04,-66 1907.04,-72 1901.04,-72"/>
<text xml:space="preserve" text-anchor="middle" x="1762.92" y="-31.65" font-family="Architects Daughter" font-size="18.00">StatsAggregator</text>
</g>
<!-- n5 -->
<g id="node6" class="node">
<title>n5</title>
<path fill="#ffffff" stroke="#8a72d6" d="M2304.24,-72C2304.24,-72 2028,-72 2028,-72 2022,-72 2016,-66 2016,-60 2016,-60 2016,-12 2016,-12 2016,-6 2022,0 2028,0 2028,0 2304.24,0 2304.24,0 2310.24,0 2316.24,-6 2316.24,-12 2316.24,-12 2316.24,-60 2316.24,-60 2316.24,-66 2310.24,-72 2304.24,-72"/>
<text xml:space="preserve" text-anchor="middle" x="2166.12" y="-31.65" font-family="Architects Daughter" font-size="18.00">Redis</text>
</g>
</g>
</svg>
