<?xml version="1.0" encoding="UTF-8" standalone="no"?>
<!DOCTYPE svg PUBLIC "-//W3C//DTD SVG 1.1//EN"
 "http://www.w3.org/Graphics/SVG/1.1/DTD/svg11.dtd">
<!-- Generated by graphviz version 15.0.0 (20260523.1842)
 -->
<!-- Title: examples&#45;zookeeper&#45;scheduler&#45;scenario&#45;01 Pages: 1 -->
<svg width="1004pt" height="271pt"
 viewBox="7.00 7.00 997.00 264.00" xmlns="http://www.w3.org/2000/svg" xmlns:xlink="http://www.w3.org/1999/xlink">
<g id="graph0" class="graph" transform="scale(1 1) rotate(0) translate(11.2 260.2)">
<title>examples&#45;zookeeper&#45;scheduler&#45;scenario&#45;01</title>
<!-- Same schedule -->
<g id="node1" class="node">
<title>Same schedule</title>
<path fill="#f8fafc" stroke="#94a3b8" d="M101.5,-197C101.5,-197 12,-197 12,-197 6,-197 0,-191 0,-185 0,-185 0,-173 0,-173 0,-167 6,-161 12,-161 12,-161 101.5,-161 101.5,-161 107.5,-161 113.5,-167 113.5,-173 113.5,-173 113.5,-185 113.5,-185 113.5,-191 107.5,-197 101.5,-197"/>
<text xml:space="preserve" text-anchor="middle" x="56.75" y="-173.57" font-family="Comic Mono" font-size="14.00">Same schedule</text>
</g>
<!-- node&#45;a -->
<g id="node2" class="node">
<title>node&#45;a</title>
<path fill="#f8fafc" stroke="#94a3b8" d="M368.12,-249C368.12,-249 331.12,-249 331.12,-249 325.12,-249 319.12,-243 319.12,-237 319.12,-237 319.12,-225 319.12,-225 319.12,-219 325.12,-213 331.12,-213 331.12,-213 368.12,-213 368.12,-213 374.12,-213 380.12,-219 380.12,-225 380.12,-225 380.12,-237 380.12,-237 380.12,-243 374.12,-249 368.12,-249"/>
<text xml:space="preserve" text-anchor="middle" x="349.62" y="-225.57" font-family="Comic Mono" font-size="14.00">node&#45;a</text>
</g>
<!-- Same schedule&#45;&gt;node&#45;a -->
<g id="edge1" class="edge">
<title>Same schedule&#45;&gt;node&#45;a</title>
<path fill="none" stroke="#758297" d="M113.83,-189.03C170.66,-199.18 257.19,-214.65 307.8,-223.7"/>
<polygon fill="#758297" stroke="#758297" points="307,-227.11 317.46,-225.43 308.23,-220.22 307,-227.11"/>
<text xml:space="preserve" text-anchor="middle" x="167.5" y="-204.17" font-family="Comic Mono" font-size="10.00">trigger</text>
</g>
<!-- node&#45;b -->
<g id="node3" class="node">
<title>node&#45;b</title>
<path fill="#f8fafc" stroke="#94a3b8" d="M270.5,-148C270.5,-148 233.5,-148 233.5,-148 227.5,-148 221.5,-142 221.5,-136 221.5,-136 221.5,-124 221.5,-124 221.5,-118 227.5,-112 233.5,-112 233.5,-112 270.5,-112 270.5,-112 276.5,-112 282.5,-118 282.5,-124 282.5,-124 282.5,-136 282.5,-136 282.5,-142 276.5,-148 270.5,-148"/>
<text xml:space="preserve" text-anchor="middle" x="252" y="-124.58" font-family="Comic Mono" font-size="14.00">node&#45;b</text>
</g>
<!-- Same schedule&#45;&gt;node&#45;b -->
<g id="edge2" class="edge">
<title>Same schedule&#45;&gt;node&#45;b</title>
<path fill="none" stroke="#758297" d="M113.93,-161.91C124.7,-158.81 135.92,-155.71 146.5,-153 167.31,-147.67 190.65,-142.46 209.98,-138.35"/>
<polygon fill="#758297" stroke="#758297" points="210.6,-141.8 219.66,-136.32 209.16,-134.95 210.6,-141.8"/>
<text xml:space="preserve" text-anchor="middle" x="167.5" y="-155.5" font-family="Comic Mono" font-size="10.00">same run</text>
</g>
<!-- ZooKeeper lock -->
<g id="node4" class="node">
<title>ZooKeeper lock</title>
<path fill="#f8fafc" stroke="#94a3b8" d="M752.5,-148C752.5,-148 655.5,-148 655.5,-148 649.5,-148 643.5,-142 643.5,-136 643.5,-136 643.5,-124 643.5,-124 643.5,-118 649.5,-112 655.5,-112 655.5,-112 752.5,-112 752.5,-112 758.5,-112 764.5,-118 764.5,-124 764.5,-124 764.5,-136 764.5,-136 764.5,-142 758.5,-148 752.5,-148"/>
<text xml:space="preserve" text-anchor="middle" x="704" y="-124.58" font-family="Comic Mono" font-size="14.00">ZooKeeper lock</text>
</g>
<!-- node&#45;a&#45;&gt;ZooKeeper lock -->
<g id="edge3" class="edge">
<title>node&#45;a&#45;&gt;ZooKeeper lock</title>
<path fill="none" stroke="#758297" d="M380.55,-224.56C429.22,-213.82 528.36,-190.88 610.5,-165 622.29,-161.29 634.76,-156.89 646.59,-152.5"/>
<polygon fill="#758297" stroke="#758297" points="647.71,-155.82 655.83,-149.02 645.24,-149.27 647.71,-155.82"/>
<text xml:space="preserve" text-anchor="middle" x="473.5" y="-218.8" font-family="Comic Mono" font-size="10.00">lock</text>
</g>
<!-- node&#45;b&#45;&gt;ZooKeeper lock -->
<g id="edge4" class="edge">
<title>node&#45;b&#45;&gt;ZooKeeper lock</title>
<path fill="none" stroke="#758297" d="M282.87,-130C353.38,-130 531.7,-130 631.88,-130"/>
<polygon fill="#758297" stroke="#758297" points="631.59,-133.5 641.59,-130 631.59,-126.5 631.59,-133.5"/>
<text xml:space="preserve" text-anchor="middle" x="473.5" y="-132.5" font-family="Comic Mono" font-size="10.00">miss</text>
</g>
<!-- Next schedule -->
<g id="node7" class="node">
<title>Next schedule</title>
<path fill="#f8fafc" stroke="#94a3b8" d="M518.25,-36C518.25,-36 428.75,-36 428.75,-36 422.75,-36 416.75,-30 416.75,-24 416.75,-24 416.75,-12 416.75,-12 416.75,-6 422.75,0 428.75,0 428.75,0 518.25,0 518.25,0 524.25,0 530.25,-6 530.25,-12 530.25,-12 530.25,-24 530.25,-24 530.25,-30 524.25,-36 518.25,-36"/>
<text xml:space="preserve" text-anchor="middle" x="473.5" y="-12.57" font-family="Comic Mono" font-size="14.00">Next schedule</text>
</g>
<!-- node&#45;b&#45;&gt;Next schedule -->
<g id="edge7" class="edge">
<title>node&#45;b&#45;&gt;Next schedule</title>
<path fill="none" stroke="#758297" d="M274.62,-111.6C286.25,-102.27 301.12,-91.21 315.5,-83 344.71,-66.33 379.04,-51.62 408.13,-40.42"/>
<polygon fill="#758297" stroke="#758297" points="409.07,-43.81 417.18,-37 406.59,-37.26 409.07,-43.81"/>
<text xml:space="preserve" text-anchor="middle" x="349.62" y="-85.5" font-family="Comic Mono" font-size="10.00">after release</text>
</g>
<!-- Legacy job -->
<g id="node5" class="node">
<title>Legacy job</title>
<path fill="#f8fafc" stroke="#94a3b8" d="M965.75,-190C965.75,-190 898.75,-190 898.75,-190 892.75,-190 886.75,-184 886.75,-178 886.75,-178 886.75,-166 886.75,-166 886.75,-160 892.75,-154 898.75,-154 898.75,-154 965.75,-154 965.75,-154 971.75,-154 977.75,-160 977.75,-166 977.75,-166 977.75,-178 977.75,-178 977.75,-184 971.75,-190 965.75,-190"/>
<text xml:space="preserve" text-anchor="middle" x="932.25" y="-166.57" font-family="Comic Mono" font-size="14.00">Legacy job</text>
</g>
<!-- ZooKeeper lock&#45;&gt;Legacy job -->
<g id="edge5" class="edge">
<title>ZooKeeper lock&#45;&gt;Legacy job</title>
<path fill="none" stroke="#758297" d="M764.74,-141.09C798.97,-147.44 841.66,-155.37 875.24,-161.6"/>
<polygon fill="#758297" stroke="#758297" points="874.3,-164.99 884.77,-163.37 875.58,-158.11 874.3,-164.99"/>
<text xml:space="preserve" text-anchor="middle" x="823.75" y="-158.5" font-family="Comic Mono" font-size="10.00">leader</text>
</g>
<!-- Skip report -->
<g id="node6" class="node">
<title>Skip report</title>
<path fill="#f8fafc" stroke="#94a3b8" d="M969.5,-107C969.5,-107 895,-107 895,-107 889,-107 883,-101 883,-95 883,-95 883,-83 883,-83 883,-77 889,-71 895,-71 895,-71 969.5,-71 969.5,-71 975.5,-71 981.5,-77 981.5,-83 981.5,-83 981.5,-95 981.5,-95 981.5,-101 975.5,-107 969.5,-107"/>
<text xml:space="preserve" text-anchor="middle" x="932.25" y="-83.58" font-family="Comic Mono" font-size="14.00">Skip report</text>
</g>
<!-- ZooKeeper lock&#45;&gt;Skip report -->
<g id="edge6" class="edge">
<title>ZooKeeper lock&#45;&gt;Skip report</title>
<path fill="none" stroke="#758297" d="M759.33,-111.61C771.76,-107.95 784.99,-104.48 797.5,-102 821.39,-97.27 848.03,-94.24 871.2,-92.3"/>
<polygon fill="#758297" stroke="#758297" points="871.42,-95.8 881.12,-91.53 870.88,-88.82 871.42,-95.8"/>
<text xml:space="preserve" text-anchor="middle" x="823.75" y="-104.5" font-family="Comic Mono" font-size="10.00">not leader</text>
</g>
<!-- Next schedule&#45;&gt;ZooKeeper lock -->
<g id="edge8" class="edge">
<title>Next schedule&#45;&gt;ZooKeeper lock</title>
<path fill="none" stroke="#758297" d="M513.61,-36.38C540.85,-49.26 577.99,-66.98 610.5,-83 625.86,-90.57 642.57,-99 657.5,-106.61"/>
<polygon fill="#758297" stroke="#758297" points="655.68,-109.6 666.17,-111.03 658.86,-103.37 655.68,-109.6"/>
<text xml:space="preserve" text-anchor="middle" x="586.88" y="-85.5" font-family="Comic Mono" font-size="10.00">reacquire</text>
</g>
</g>
</svg>
