<?xml version="1.0" encoding="UTF-8" standalone="no"?>
<!DOCTYPE svg PUBLIC "-//W3C//DTD SVG 1.1//EN"
 "http://www.w3.org/Graphics/SVG/1.1/DTD/svg11.dtd">
<!-- Generated by graphviz version 15.0.0 (20260523.1842)
 -->
<!-- Title: examples&#45;zookeeper&#45;scheduler&#45;flow&#45;01 Pages: 1 -->
<svg width="1712pt" height="127pt"
 viewBox="0.00 0.00 1712.00 127.00" xmlns="http://www.w3.org/2000/svg" xmlns:xlink="http://www.w3.org/1999/xlink">
<g id="graph0" class="graph" transform="scale(1 1) rotate(0) translate(4 123)">
<title>examples&#45;zookeeper&#45;scheduler&#45;flow&#45;01</title>
<!-- start -->
<g id="node1" class="node">
<title>start</title>
<path fill="#f8fafc" stroke="#94a3b8" d="M109,-68C109,-68 12,-68 12,-68 6,-68 0,-62 0,-56 0,-56 0,-44 0,-44 0,-38 6,-32 12,-32 12,-32 109,-32 109,-32 115,-32 121,-38 121,-44 121,-44 121,-56 121,-56 121,-62 115,-68 109,-68"/>
<text xml:space="preserve" text-anchor="middle" x="60.5" y="-44.58" font-family="Comic Mono" font-size="14.00">Scheduler Tick</text>
</g>
<!-- validate -->
<g id="node2" class="node">
<title>validate</title>
<path fill="#f8fafc" stroke="#94a3b8" d="M384.5,-68C384.5,-68 220,-68 220,-68 214,-68 208,-62 208,-56 208,-56 208,-44 208,-44 208,-38 214,-32 220,-32 220,-32 384.5,-32 384.5,-32 390.5,-32 396.5,-38 396.5,-44 396.5,-44 396.5,-56 396.5,-56 396.5,-62 390.5,-68 384.5,-68"/>
<text xml:space="preserve" text-anchor="middle" x="302.25" y="-44.58" font-family="Comic Mono" font-size="14.00">Validate Example Inputs</text>
</g>
<!-- start&#45;&gt;validate -->
<g id="edge1" class="edge">
<title>start&#45;&gt;validate</title>
<path fill="none" stroke="#758297" d="M121.19,-50C121.19,-50 196.11,-50 196.11,-50"/>
<polygon fill="#758297" stroke="#758297" points="196.11,-53.5 206.11,-50 196.11,-46.5 196.11,-53.5"/>
<text xml:space="preserve" text-anchor="middle" x="164.5" y="-52.5" font-family="Comic Mono" font-size="10.00">call</text>
</g>
<!-- attempt -->
<g id="node3" class="node">
<title>attempt</title>
<path fill="#f8fafc" stroke="#94a3b8" d="M684,-68C684,-68 527,-68 527,-68 521,-68 515,-62 515,-56 515,-56 515,-44 515,-44 515,-38 521,-32 527,-32 527,-32 684,-32 684,-32 690,-32 696,-38 696,-44 696,-44 696,-56 696,-56 696,-62 690,-68 684,-68"/>
<text xml:space="preserve" text-anchor="middle" x="605.5" y="-44.58" font-family="Comic Mono" font-size="14.00">ZooKeeperLeaderElector</text>
</g>
<!-- validate&#45;&gt;attempt -->
<g id="edge2" class="edge">
<title>validate&#45;&gt;attempt</title>
<path fill="none" stroke="#758297" d="M396.95,-50C396.95,-50 503.11,-50 503.11,-50"/>
<polygon fill="#758297" stroke="#758297" points="503.11,-53.5 513.11,-50 503.11,-46.5 503.11,-53.5"/>
<text xml:space="preserve" text-anchor="middle" x="455.75" y="-52.5" font-family="Comic Mono" font-size="10.00">dependency</text>
</g>
<!-- decision -->
<g id="node4" class="node">
<title>decision</title>
<path fill="#f8fafc" stroke="#94a3b8" d="M946,-68C946,-68 826.5,-68 826.5,-68 820.5,-68 814.5,-62 814.5,-56 814.5,-56 814.5,-44 814.5,-44 814.5,-38 820.5,-32 826.5,-32 826.5,-32 946,-32 946,-32 952,-32 958,-38 958,-44 958,-44 958,-56 958,-56 958,-62 952,-68 946,-68"/>
<text xml:space="preserve" text-anchor="middle" x="886.25" y="-44.58" font-family="Comic Mono" font-size="14.00">Leadership Result</text>
</g>
<!-- attempt&#45;&gt;decision -->
<g id="edge3" class="edge">
<title>attempt&#45;&gt;decision</title>
<path fill="none" stroke="#758297" d="M696.26,-50C696.26,-50 802.5,-50 802.5,-50"/>
<polygon fill="#758297" stroke="#758297" points="802.5,-53.5 812.5,-50 802.5,-46.5 802.5,-53.5"/>
<text xml:space="preserve" text-anchor="middle" x="755.25" y="-52.5" font-family="Comic Mono" font-size="10.00">contention</text>
</g>
<!-- execute -->
<g id="node6" class="node">
<title>execute</title>
<path fill="#f8fafc" stroke="#94a3b8" d="M1214.75,-119C1214.75,-119 1072.75,-119 1072.75,-119 1066.75,-119 1060.75,-113 1060.75,-107 1060.75,-107 1060.75,-95 1060.75,-95 1060.75,-89 1066.75,-83 1072.75,-83 1072.75,-83 1214.75,-83 1214.75,-83 1220.75,-83 1226.75,-89 1226.75,-95 1226.75,-95 1226.75,-107 1226.75,-107 1226.75,-113 1220.75,-119 1214.75,-119"/>
<text xml:space="preserve" text-anchor="middle" x="1143.75" y="-95.58" font-family="Comic Mono" font-size="14.00">Legacy Scheduled Job</text>
</g>
<!-- decision&#45;&gt;execute -->
<g id="edge4" class="edge">
<title>decision&#45;&gt;execute</title>
<path fill="none" stroke="#758297" d="M958.43,-57.33C1010.71,-57.33 1072.25,-57.33 1072.25,-57.33 1072.25,-57.33 1072.25,-71.22 1072.25,-71.22"/>
<polygon fill="#758297" stroke="#758297" points="1068.75,-71.22 1072.25,-81.22 1075.75,-71.22 1068.75,-71.22"/>
<text xml:space="preserve" text-anchor="middle" x="1009.38" y="-93.5" font-family="Comic Mono" font-size="10.00">success</text>
</g>
<!-- skipped -->
<g id="node8" class="node">
<title>skipped</title>
<path fill="#f8fafc" stroke="#94a3b8" d="M1192.25,-36C1192.25,-36 1095.25,-36 1095.25,-36 1089.25,-36 1083.25,-30 1083.25,-24 1083.25,-24 1083.25,-12 1083.25,-12 1083.25,-6 1089.25,0 1095.25,0 1095.25,0 1192.25,0 1192.25,0 1198.25,0 1204.25,-6 1204.25,-12 1204.25,-12 1204.25,-24 1204.25,-24 1204.25,-30 1198.25,-36 1192.25,-36"/>
<text xml:space="preserve" text-anchor="middle" x="1143.75" y="-12.57" font-family="Comic Mono" font-size="14.00">Return Skipped</text>
</g>
<!-- decision&#45;&gt;skipped -->
<g id="edge7" class="edge">
<title>decision&#45;&gt;skipped</title>
<path fill="none" stroke="#758297" d="M958.18,-46.67C1034.21,-46.67 1143.25,-46.67 1143.25,-46.67 1143.25,-46.67 1143.25,-45.63 1143.25,-45.63"/>
<polygon fill="#758297" stroke="#758297" points="1146.75,-47.83 1143.25,-37.83 1139.75,-47.83 1146.75,-47.83"/>
<text xml:space="preserve" text-anchor="middle" x="1009.38" y="-20.5" font-family="Comic Mono" font-size="10.00">skip</text>
</g>
<!-- release -->
<g id="node5" class="node">
<title>release</title>
<path fill="#f8fafc" stroke="#94a3b8" d="M1461,-119C1461,-119 1341.5,-119 1341.5,-119 1335.5,-119 1329.5,-113 1329.5,-107 1329.5,-107 1329.5,-95 1329.5,-95 1329.5,-89 1335.5,-83 1341.5,-83 1341.5,-83 1461,-83 1461,-83 1467,-83 1473,-89 1473,-95 1473,-95 1473,-107 1473,-107 1473,-113 1467,-119 1461,-119"/>
<text xml:space="preserve" text-anchor="middle" x="1401.25" y="-95.58" font-family="Comic Mono" font-size="14.00">Release Or Extend</text>
</g>
<!-- executed -->
<g id="node7" class="node">
<title>executed</title>
<path fill="#f8fafc" stroke="#94a3b8" d="M1692.25,-119C1692.25,-119 1587.75,-119 1587.75,-119 1581.75,-119 1575.75,-113 1575.75,-107 1575.75,-107 1575.75,-95 1575.75,-95 1575.75,-89 1581.75,-83 1587.75,-83 1587.75,-83 1692.25,-83 1692.25,-83 1698.25,-83 1704.25,-89 1704.25,-95 1704.25,-95 1704.25,-107 1704.25,-107 1704.25,-113 1698.25,-119 1692.25,-119"/>
<text xml:space="preserve" text-anchor="middle" x="1640" y="-95.58" font-family="Comic Mono" font-size="14.00">Return Executed</text>
</g>
<!-- release&#45;&gt;executed -->
<g id="edge6" class="edge">
<title>release&#45;&gt;executed</title>
<path fill="none" stroke="#758297" d="M1473.21,-101C1473.21,-101 1563.98,-101 1563.98,-101"/>
<polygon fill="#758297" stroke="#758297" points="1563.98,-104.5 1573.98,-101 1563.98,-97.5 1563.98,-104.5"/>
<text xml:space="preserve" text-anchor="middle" x="1524.38" y="-103.5" font-family="Comic Mono" font-size="10.00">success</text>
</g>
<!-- execute&#45;&gt;release -->
<g id="edge5" class="edge">
<title>execute&#45;&gt;release</title>
<path fill="none" stroke="#758297" d="M1227,-101C1227,-101 1317.6,-101 1317.6,-101"/>
<polygon fill="#758297" stroke="#758297" points="1317.6,-104.5 1327.6,-101 1317.6,-97.5 1317.6,-104.5"/>
<text xml:space="preserve" text-anchor="middle" x="1278.12" y="-103.5" font-family="Comic Mono" font-size="10.00">release</text>
</g>
</g>
</svg>
