<?xml version="1.0" encoding="UTF-8" standalone="no"?>
<!DOCTYPE svg PUBLIC "-//W3C//DTD SVG 1.1//EN"
 "http://www.w3.org/Graphics/SVG/1.1/DTD/svg11.dtd">
<!-- Generated by graphviz version 15.0.0 (20260523.1842)
 -->
<!-- Title: examples&#45;rate&#45;limiter&#45;architecture&#45;01 Pages: 1 -->
<svg width="1413pt" height="136pt"
 viewBox="0.00 0.00 1413.00 136.00" xmlns="http://www.w3.org/2000/svg" xmlns:xlink="http://www.w3.org/1999/xlink">
<g id="graph0" class="graph" transform="scale(1 1) rotate(0) translate(4 132)">
<title>examples&#45;rate&#45;limiter&#45;architecture&#45;01</title>
<!-- trigger -->
<g id="node1" class="node">
<title>trigger</title>
<path fill="#f8fafc" stroke="#94a3b8" d="M116.5,-77C116.5,-77 12,-77 12,-77 6,-77 0,-71 0,-65 0,-65 0,-53 0,-53 0,-47 6,-41 12,-41 12,-41 116.5,-41 116.5,-41 122.5,-41 128.5,-47 128.5,-53 128.5,-53 128.5,-65 128.5,-65 128.5,-71 122.5,-77 116.5,-77"/>
<text xml:space="preserve" text-anchor="middle" x="64.25" y="-53.58" font-family="Comic Mono" font-size="14.00">Dispatch Window</text>
</g>
<!-- nodeA -->
<g id="node2" class="node">
<title>nodeA</title>
<path fill="#f8fafc" stroke="#94a3b8" d="M339.5,-119C339.5,-119 227.5,-119 227.5,-119 221.5,-119 215.5,-113 215.5,-107 215.5,-107 215.5,-95 215.5,-95 215.5,-89 221.5,-83 227.5,-83 227.5,-83 339.5,-83 339.5,-83 345.5,-83 351.5,-89 351.5,-95 351.5,-95 351.5,-107 351.5,-107 351.5,-113 345.5,-119 339.5,-119"/>
<text xml:space="preserve" text-anchor="middle" x="283.5" y="-95.58" font-family="Comic Mono" font-size="14.00">Candidate Node A</text>
</g>
<!-- trigger&#45;&gt;nodeA -->
<g id="edge1" class="edge">
<title>trigger&#45;&gt;nodeA</title>
<path fill="none" stroke="#758297" d="M63.75,-77.06C63.75,-88.44 63.75,-101 63.75,-101 63.75,-101 203.66,-101 203.66,-101"/>
<polygon fill="#758297" stroke="#758297" points="203.66,-104.5 213.66,-101 203.66,-97.5 203.66,-104.5"/>
<text xml:space="preserve" text-anchor="middle" x="172" y="-98.5" font-family="Comic Mono" font-size="10.00">call</text>
</g>
<!-- nodeB -->
<g id="node3" class="node">
<title>nodeB</title>
<path fill="#f8fafc" stroke="#94a3b8" d="M339.5,-36C339.5,-36 227.5,-36 227.5,-36 221.5,-36 215.5,-30 215.5,-24 215.5,-24 215.5,-12 215.5,-12 215.5,-6 221.5,0 227.5,0 227.5,0 339.5,0 339.5,0 345.5,0 351.5,-6 351.5,-12 351.5,-12 351.5,-24 351.5,-24 351.5,-30 345.5,-36 339.5,-36"/>
<text xml:space="preserve" text-anchor="middle" x="283.5" y="-12.57" font-family="Comic Mono" font-size="14.00">Candidate Node B</text>
</g>
<!-- trigger&#45;&gt;nodeB -->
<g id="edge2" class="edge">
<title>trigger&#45;&gt;nodeB</title>
<path fill="none" stroke="#758297" d="M63.75,-40.9C63.75,-29.91 63.75,-18 63.75,-18 63.75,-18 203.66,-18 203.66,-18"/>
<polygon fill="#758297" stroke="#758297" points="203.66,-21.5 213.66,-18 203.66,-14.5 203.66,-21.5"/>
<text xml:space="preserve" text-anchor="middle" x="172" y="-29.5" font-family="Comic Mono" font-size="10.00">call</text>
</g>
<!-- coordinator -->
<g id="node4" class="node">
<title>coordinator</title>
<path fill="#f8fafc" stroke="#94a3b8" d="M615,-77C615,-77 450.5,-77 450.5,-77 444.5,-77 438.5,-71 438.5,-65 438.5,-65 438.5,-53 438.5,-53 438.5,-47 444.5,-41 450.5,-41 450.5,-41 615,-41 615,-41 621,-41 627,-47 627,-53 627,-53 627,-65 627,-65 627,-71 621,-77 615,-77"/>
<text xml:space="preserve" text-anchor="middle" x="532.75" y="-53.58" font-family="Comic Mono" font-size="14.00">LeaderDispatchScheduler</text>
</g>
<!-- nodeA&#45;&gt;coordinator -->
<g id="edge3" class="edge">
<title>nodeA&#45;&gt;coordinator</title>
<path fill="none" stroke="#758297" d="M260.75,-82.58C260.75,-73.72 260.75,-65 260.75,-65 260.75,-65 426.87,-65 426.87,-65"/>
<polygon fill="#758297" stroke="#758297" points="426.87,-68.5 436.87,-65 426.87,-61.5 426.87,-68.5"/>
<text xml:space="preserve" text-anchor="middle" x="395" y="-98.5" font-family="Comic Mono" font-size="10.00">call</text>
</g>
<!-- nodeB&#45;&gt;coordinator -->
<g id="edge4" class="edge">
<title>nodeB&#45;&gt;coordinator</title>
<path fill="none" stroke="#758297" d="M305.75,-36.32C305.75,-44.79 305.75,-53 305.75,-53 305.75,-53 426.61,-53 426.61,-53"/>
<polygon fill="#758297" stroke="#758297" points="426.61,-56.5 436.61,-53 426.61,-49.5 426.61,-56.5"/>
<text xml:space="preserve" text-anchor="middle" x="395" y="-29.5" font-family="Comic Mono" font-size="10.00">call</text>
</g>
<!-- elector -->
<g id="node6" class="node">
<title>elector</title>
<path fill="#f8fafc" stroke="#94a3b8" d="M899.5,-128C899.5,-128 757.5,-128 757.5,-128 751.5,-128 745.5,-122 745.5,-116 745.5,-116 745.5,-104 745.5,-104 745.5,-98 751.5,-92 757.5,-92 757.5,-92 899.5,-92 899.5,-92 905.5,-92 911.5,-98 911.5,-104 911.5,-104 911.5,-116 911.5,-116 911.5,-122 905.5,-128 899.5,-128"/>
<text xml:space="preserve" text-anchor="middle" x="828.5" y="-104.58" font-family="Comic Mono" font-size="14.00">Redis Leader Elector</text>
</g>
<!-- coordinator&#45;&gt;elector -->
<g id="edge5" class="edge">
<title>coordinator&#45;&gt;elector</title>
<path fill="none" stroke="#758297" d="M627.42,-66.33C686.25,-66.33 750.75,-66.33 750.75,-66.33 750.75,-66.33 750.75,-80.22 750.75,-80.22"/>
<polygon fill="#758297" stroke="#758297" points="747.25,-80.22 750.75,-90.22 754.25,-80.22 747.25,-80.22"/>
<text xml:space="preserve" text-anchor="middle" x="686.25" y="-102.5" font-family="Comic Mono" font-size="10.00">dependency</text>
</g>
<!-- work -->
<g id="node8" class="node">
<title>work</title>
<path fill="#f8fafc" stroke="#94a3b8" d="M888.25,-45C888.25,-45 768.75,-45 768.75,-45 762.75,-45 756.75,-39 756.75,-33 756.75,-33 756.75,-21 756.75,-21 756.75,-15 762.75,-9 768.75,-9 768.75,-9 888.25,-9 888.25,-9 894.25,-9 900.25,-15 900.25,-21 900.25,-21 900.25,-33 900.25,-33 900.25,-39 894.25,-45 888.25,-45"/>
<text xml:space="preserve" text-anchor="middle" x="828.5" y="-21.57" font-family="Comic Mono" font-size="14.00">Call External API</text>
</g>
<!-- coordinator&#45;&gt;work -->
<g id="edge7" class="edge">
<title>coordinator&#45;&gt;work</title>
<path fill="none" stroke="#758297" d="M627.22,-55.67C713.85,-55.67 828.75,-55.67 828.75,-55.67 828.75,-55.67 828.75,-54.63 828.75,-54.63"/>
<polygon fill="#758297" stroke="#758297" points="832.25,-56.83 828.75,-46.83 825.25,-56.83 832.25,-56.83"/>
<text xml:space="preserve" text-anchor="middle" x="686.25" y="-29.5" font-family="Comic Mono" font-size="10.00">success</text>
</g>
<!-- backend -->
<g id="node5" class="node">
<title>backend</title>
<path fill="#f8fafc" stroke="#94a3b8" d="M1139,-128C1139,-128 1042,-128 1042,-128 1036,-128 1030,-122 1030,-116 1030,-116 1030,-104 1030,-104 1030,-98 1036,-92 1042,-92 1042,-92 1139,-92 1139,-92 1145,-92 1151,-98 1151,-104 1151,-104 1151,-116 1151,-116 1151,-122 1145,-128 1139,-128"/>
<text xml:space="preserve" text-anchor="middle" x="1090.5" y="-104.58" font-family="Comic Mono" font-size="14.00">Bucket4j quota</text>
</g>
<!-- recovery -->
<g id="node7" class="node">
<title>recovery</title>
<path fill="#f8fafc" stroke="#94a3b8" d="M1392.75,-128C1392.75,-128 1265.75,-128 1265.75,-128 1259.75,-128 1253.75,-122 1253.75,-116 1253.75,-116 1253.75,-104 1253.75,-104 1253.75,-98 1259.75,-92 1265.75,-92 1265.75,-92 1392.75,-92 1392.75,-92 1398.75,-92 1404.75,-98 1404.75,-104 1404.75,-104 1404.75,-116 1404.75,-116 1404.75,-122 1398.75,-128 1392.75,-128"/>
<text xml:space="preserve" text-anchor="middle" x="1329.25" y="-104.58" font-family="Comic Mono" font-size="14.00">Quota Window Reset</text>
</g>
<!-- backend&#45;&gt;recovery -->
<g id="edge8" class="edge">
<title>backend&#45;&gt;recovery</title>
<path fill="none" stroke="#758297" d="M1151.36,-110C1151.36,-110 1242.02,-110 1242.02,-110"/>
<polygon fill="#758297" stroke="#758297" points="1242.02,-113.5 1252.02,-110 1242.02,-106.5 1242.02,-113.5"/>
<text xml:space="preserve" text-anchor="middle" x="1202.38" y="-112.5" font-family="Comic Mono" font-size="10.00">release</text>
</g>
<!-- elector&#45;&gt;backend -->
<g id="edge6" class="edge">
<title>elector&#45;&gt;backend</title>
<path fill="none" stroke="#758297" d="M911.76,-110C911.76,-110 1018.38,-110 1018.38,-110"/>
<polygon fill="#758297" stroke="#758297" points="1018.38,-113.5 1028.38,-110 1018.38,-106.5 1018.38,-113.5"/>
<text xml:space="preserve" text-anchor="middle" x="970.75" y="-112.5" font-family="Comic Mono" font-size="10.00">contention</text>
</g>
</g>
</svg>
