<svg xmlns="http://www.w3.org/2000/svg" width="1320" height="610" viewBox="0 0 1320 610" role="img" aria-label="Tenant Aggregator Architecture">
  <metadata id="graphviz-evidence">Regenerated with Graphviz evidence: examples-tenant-aggregator-architecture-01.dot, examples-tenant-aggregator-architecture-01.plain, examples-tenant-aggregator-architecture-01-graphviz.svg via scripts/regenerate-readme-diagram-graphviz-evidence.mjs.</metadata>
<defs>
  <filter id="shadow" x="-8%" y="-8%" width="116%" height="116%"><feDropShadow dx="0" dy="8" stdDeviation="9" flood-color="#1f2937" flood-opacity="0.10"/></filter>
  <marker id="openArrow" markerWidth="12" markerHeight="10" refX="10" refY="5" orient="auto" markerUnits="strokeWidth"><path d="M 1 1 L 10 5 L 1 9" fill="none" stroke="#758297" stroke-width="1.8" stroke-linecap="round" stroke-linejoin="round"/></marker>
  <style>
    .canvas{fill:#f7f9fc}.frame{fill:#fff;stroke:#d8e0ea;stroke-width:1.5}
    .title{font-family:"Architects Daughter","Comic Mono","Comic Sans MS","Comic Sans",cursive;font-size:43px;font-weight:400;fill:#102033}
    .subtitle{font-family:"Comic Mono","Comic Sans MS","Comic Sans","Comic Neue",Arial,sans-serif;font-size:15px;font-weight:400;fill:#536273}
    .smallLabel{font-family:"Architects Daughter","Comic Mono","Comic Sans MS","Comic Sans",cursive;font-size:21px;font-weight:400;fill:#102033}
    .mono{font-family:"Comic Mono","Comic Sans MS","Comic Sans","Comic Neue",Arial,sans-serif;font-size:12px;font-weight:400;fill:#102033}
    .strong{font-family:"Comic Mono","Comic Sans MS","Comic Sans","Comic Neue",Arial,sans-serif;font-size:13px;font-weight:400;fill:#102033}
    .card{stroke-width:2.1;filter:url(#shadow)}
    .line{stroke:#758297;stroke-width:2.1;fill:none;marker-end:url(#openArrow)}
    .dashed{stroke:#758297;stroke-width:2.1;stroke-dasharray:7 6;fill:none;marker-end:url(#openArrow)}
    .lifeline{stroke:#b7c2d1;stroke-width:2;stroke-dasharray:10 10}
  </style>
</defs>
<rect class="canvas" width="1320" height="610"/>
<rect class="frame" x="32" y="28" width="1256" height="554" rx="28"/>
<text class="title" x="66" y="82">Tenant Aggregator Architecture</text>
<text class="subtitle" x="70" y="118">Each tenant has a long-running coroutine and an independent leader lock</text>
<path class="line" d="M300 216 L340 216 L340 306 L380 306"/>
<path class="line" d="M300 396 L340 396 L340 306 L380 306"/>
<path class="line" d="M610 306 L655 306 L655 306 L700 306"/>
<path class="line" d="M930 306 L965 306 L965 216 L1000 216"/>
<path class="line" d="M930 306 L965 306 L965 396 L1000 396"/>
<g id="appA" transform="translate(70,170)">
  <rect class="card" x="0" y="0" width="230" height="92" rx="14" fill="#E8F3FF" stroke="#5B8DEF"/>
  <text class="smallLabel" x="115" y="28" text-anchor="middle">App instance A</text>
  <text class="mono" x="115" y="53" text-anchor="middle">start(scope)</text>
  <text class="mono" x="115" y="70" text-anchor="middle">tenant loops</text>
</g>
<g id="appB" transform="translate(70,350)">
  <rect class="card" x="0" y="0" width="230" height="92" rx="14" fill="#EAF7EF" stroke="#58A978"/>
  <text class="smallLabel" x="115" y="28" text-anchor="middle">App instance B</text>
  <text class="mono" x="115" y="53" text-anchor="middle">start(scope)</text>
  <text class="mono" x="115" y="70" text-anchor="middle">standby loops</text>
</g>
<g id="aggregator" transform="translate(380,260)">
  <rect class="card" x="0" y="0" width="230" height="92" rx="14" fill="#FFF3D9" stroke="#D6A441"/>
  <text class="smallLabel" x="115" y="28" text-anchor="middle">TenantAggregator</text>
  <text class="mono" x="115" y="53" text-anchor="middle">supervisorScope</text>
  <text class="mono" x="115" y="70" text-anchor="middle">stopGracefully</text>
</g>
<g id="locks" transform="translate(700,260)">
  <rect class="card" x="0" y="0" width="230" height="92" rx="14" fill="#FDECEF" stroke="#DC6B82"/>
  <text class="smallLabel" x="115" y="28" text-anchor="middle">Tenant locks</text>
  <text class="mono" x="115" y="53" text-anchor="middle">prefix-tenant-A</text>
  <text class="mono" x="115" y="70" text-anchor="middle">prefix-tenant-B</text>
</g>
<g id="r2dbc" transform="translate(1000,170)">
  <rect class="card" x="0" y="0" width="230" height="92" rx="14" fill="#E9F7F6" stroke="#45A7A1"/>
  <text class="smallLabel" x="115" y="28" text-anchor="middle">Exposed R2DBC elector</text>
  <text class="mono" x="115" y="53" text-anchor="middle">created once per tenant</text>
  <text class="mono" x="115" y="70" text-anchor="middle">reused per cycle</text>
</g>
<g id="metrics" transform="translate(1000,350)">
  <rect class="card" x="0" y="0" width="230" height="92" rx="14" fill="#F1ECFF" stroke="#8A72D6"/>
  <text class="smallLabel" x="115" y="28" text-anchor="middle">Tenant metrics service</text>
  <text class="mono" x="115" y="53" text-anchor="middle">aggregateFunction</text>
  <text class="mono" x="115" y="70" text-anchor="middle">exception isolation</text>
</g>
</svg>
