<?xml version="1.0" encoding="UTF-8" standalone="no"?>
<!DOCTYPE svg PUBLIC "-//W3C//DTD SVG 1.1//EN"
 "http://www.w3.org/Graphics/SVG/1.1/DTD/svg11.dtd">
<!-- Generated by graphviz version 15.0.0 (20260523.1842)
 -->
<!-- Title: examples&#45;k8s&#45;lease&#45;flow&#45;01 Pages: 1 -->
<svg width="1720pt" height="127pt"
 viewBox="0.00 0.00 1720.00 127.00" xmlns="http://www.w3.org/2000/svg" xmlns:xlink="http://www.w3.org/1999/xlink">
<g id="graph0" class="graph" transform="scale(1 1) rotate(0) translate(4 123)">
<title>examples&#45;k8s&#45;lease&#45;flow&#45;01</title>
<!-- start -->
<g id="node1" class="node">
<title>start</title>
<path fill="#f8fafc" stroke="#94a3b8" d="M101.5,-68C101.5,-68 12,-68 12,-68 6,-68 0,-62 0,-56 0,-56 0,-44 0,-44 0,-38 6,-32 12,-32 12,-32 101.5,-32 101.5,-32 107.5,-32 113.5,-38 113.5,-44 113.5,-44 113.5,-56 113.5,-56 113.5,-62 107.5,-68 101.5,-68"/>
<text xml:space="preserve" text-anchor="middle" x="56.75" y="-44.58" font-family="Comic Mono" font-size="14.00">Lease Attempt</text>
</g>
<!-- validate -->
<g id="node2" class="node">
<title>validate</title>
<path fill="#f8fafc" stroke="#94a3b8" d="M377,-68C377,-68 212.5,-68 212.5,-68 206.5,-68 200.5,-62 200.5,-56 200.5,-56 200.5,-44 200.5,-44 200.5,-38 206.5,-32 212.5,-32 212.5,-32 377,-32 377,-32 383,-32 389,-38 389,-44 389,-44 389,-56 389,-56 389,-62 383,-68 377,-68"/>
<text xml:space="preserve" text-anchor="middle" x="294.75" y="-44.58" font-family="Comic Mono" font-size="14.00">Validate Example Inputs</text>
</g>
<!-- start&#45;&gt;validate -->
<g id="edge1" class="edge">
<title>start&#45;&gt;validate</title>
<path fill="none" stroke="#758297" d="M113.76,-50C113.76,-50 188.59,-50 188.59,-50"/>
<polygon fill="#758297" stroke="#758297" points="188.59,-53.5 198.59,-50 188.59,-46.5 188.59,-53.5"/>
<text xml:space="preserve" text-anchor="middle" x="157" y="-52.5" font-family="Comic Mono" font-size="10.00">call</text>
</g>
<!-- attempt -->
<g id="node3" class="node">
<title>attempt</title>
<path fill="#f8fafc" stroke="#94a3b8" d="M721.5,-68C721.5,-68 519.5,-68 519.5,-68 513.5,-68 507.5,-62 507.5,-56 507.5,-56 507.5,-44 507.5,-44 507.5,-38 513.5,-32 519.5,-32 519.5,-32 721.5,-32 721.5,-32 727.5,-32 733.5,-38 733.5,-44 733.5,-44 733.5,-56 733.5,-56 733.5,-62 727.5,-68 721.5,-68"/>
<text xml:space="preserve" text-anchor="middle" x="620.5" y="-44.58" font-family="Comic Mono" font-size="14.00">KubernetesLeaseLeaderElector</text>
</g>
<!-- validate&#45;&gt;attempt -->
<g id="edge2" class="edge">
<title>validate&#45;&gt;attempt</title>
<path fill="none" stroke="#758297" d="M389.41,-50C389.41,-50 495.64,-50 495.64,-50"/>
<polygon fill="#758297" stroke="#758297" points="495.64,-53.5 505.64,-50 495.64,-46.5 495.64,-53.5"/>
<text xml:space="preserve" text-anchor="middle" x="448.25" y="-52.5" font-family="Comic Mono" font-size="10.00">dependency</text>
</g>
<!-- decision -->
<g id="node4" class="node">
<title>decision</title>
<path fill="#f8fafc" stroke="#94a3b8" d="M983.5,-68C983.5,-68 864,-68 864,-68 858,-68 852,-62 852,-56 852,-56 852,-44 852,-44 852,-38 858,-32 864,-32 864,-32 983.5,-32 983.5,-32 989.5,-32 995.5,-38 995.5,-44 995.5,-44 995.5,-56 995.5,-56 995.5,-62 989.5,-68 983.5,-68"/>
<text xml:space="preserve" text-anchor="middle" x="923.75" y="-44.58" font-family="Comic Mono" font-size="14.00">Leadership Result</text>
</g>
<!-- attempt&#45;&gt;decision -->
<g id="edge3" class="edge">
<title>attempt&#45;&gt;decision</title>
<path fill="none" stroke="#758297" d="M733.85,-50C733.85,-50 840.34,-50 840.34,-50"/>
<polygon fill="#758297" stroke="#758297" points="840.34,-53.5 850.34,-50 840.34,-46.5 840.34,-53.5"/>
<text xml:space="preserve" text-anchor="middle" x="792.75" y="-52.5" font-family="Comic Mono" font-size="10.00">contention</text>
</g>
<!-- execute -->
<g id="node6" class="node">
<title>execute</title>
<path fill="#f8fafc" stroke="#94a3b8" d="M1222.25,-119C1222.25,-119 1110.25,-119 1110.25,-119 1104.25,-119 1098.25,-113 1098.25,-107 1098.25,-107 1098.25,-95 1098.25,-95 1098.25,-89 1104.25,-83 1110.25,-83 1110.25,-83 1222.25,-83 1222.25,-83 1228.25,-83 1234.25,-89 1234.25,-95 1234.25,-95 1234.25,-107 1234.25,-107 1234.25,-113 1228.25,-119 1222.25,-119"/>
<text xml:space="preserve" text-anchor="middle" x="1166.25" y="-95.58" font-family="Comic Mono" font-size="14.00">Holder Operation</text>
</g>
<!-- decision&#45;&gt;execute -->
<g id="edge4" class="edge">
<title>decision&#45;&gt;execute</title>
<path fill="none" stroke="#758297" d="M995.89,-57.33C1045.23,-57.33 1101.75,-57.33 1101.75,-57.33 1101.75,-57.33 1101.75,-71.22 1101.75,-71.22"/>
<polygon fill="#758297" stroke="#758297" points="1098.25,-71.22 1101.75,-81.22 1105.25,-71.22 1098.25,-71.22"/>
<text xml:space="preserve" text-anchor="middle" x="1046.88" y="-93.5" font-family="Comic Mono" font-size="10.00">success</text>
</g>
<!-- skipped -->
<g id="node8" class="node">
<title>skipped</title>
<path fill="#f8fafc" stroke="#94a3b8" d="M1214.75,-36C1214.75,-36 1117.75,-36 1117.75,-36 1111.75,-36 1105.75,-30 1105.75,-24 1105.75,-24 1105.75,-12 1105.75,-12 1105.75,-6 1111.75,0 1117.75,0 1117.75,0 1214.75,0 1214.75,0 1220.75,0 1226.75,-6 1226.75,-12 1226.75,-12 1226.75,-24 1226.75,-24 1226.75,-30 1220.75,-36 1214.75,-36"/>
<text xml:space="preserve" text-anchor="middle" x="1166.25" y="-12.57" font-family="Comic Mono" font-size="14.00">Return Skipped</text>
</g>
<!-- decision&#45;&gt;skipped -->
<g id="edge7" class="edge">
<title>decision&#45;&gt;skipped</title>
<path fill="none" stroke="#758297" d="M995.7,-46.67C1067.04,-46.67 1165.75,-46.67 1165.75,-46.67 1165.75,-46.67 1165.75,-45.63 1165.75,-45.63"/>
<polygon fill="#758297" stroke="#758297" points="1169.25,-47.83 1165.75,-37.83 1162.25,-47.83 1169.25,-47.83"/>
<text xml:space="preserve" text-anchor="middle" x="1046.88" y="-20.5" font-family="Comic Mono" font-size="10.00">skip</text>
</g>
<!-- release -->
<g id="node5" class="node">
<title>release</title>
<path fill="#f8fafc" stroke="#94a3b8" d="M1468.5,-119C1468.5,-119 1349,-119 1349,-119 1343,-119 1337,-113 1337,-107 1337,-107 1337,-95 1337,-95 1337,-89 1343,-83 1349,-83 1349,-83 1468.5,-83 1468.5,-83 1474.5,-83 1480.5,-89 1480.5,-95 1480.5,-95 1480.5,-107 1480.5,-107 1480.5,-113 1474.5,-119 1468.5,-119"/>
<text xml:space="preserve" text-anchor="middle" x="1408.75" y="-95.58" font-family="Comic Mono" font-size="14.00">Release Or Extend</text>
</g>
<!-- executed -->
<g id="node7" class="node">
<title>executed</title>
<path fill="#f8fafc" stroke="#94a3b8" d="M1699.75,-119C1699.75,-119 1595.25,-119 1595.25,-119 1589.25,-119 1583.25,-113 1583.25,-107 1583.25,-107 1583.25,-95 1583.25,-95 1583.25,-89 1589.25,-83 1595.25,-83 1595.25,-83 1699.75,-83 1699.75,-83 1705.75,-83 1711.75,-89 1711.75,-95 1711.75,-95 1711.75,-107 1711.75,-107 1711.75,-113 1705.75,-119 1699.75,-119"/>
<text xml:space="preserve" text-anchor="middle" x="1647.5" y="-95.58" font-family="Comic Mono" font-size="14.00">Return Executed</text>
</g>
<!-- release&#45;&gt;executed -->
<g id="edge6" class="edge">
<title>release&#45;&gt;executed</title>
<path fill="none" stroke="#758297" d="M1480.71,-101C1480.71,-101 1571.48,-101 1571.48,-101"/>
<polygon fill="#758297" stroke="#758297" points="1571.48,-104.5 1581.48,-101 1571.48,-97.5 1571.48,-104.5"/>
<text xml:space="preserve" text-anchor="middle" x="1531.88" y="-103.5" font-family="Comic Mono" font-size="10.00">success</text>
</g>
<!-- execute&#45;&gt;release -->
<g id="edge5" class="edge">
<title>execute&#45;&gt;release</title>
<path fill="none" stroke="#758297" d="M1234.45,-101C1234.45,-101 1325.32,-101 1325.32,-101"/>
<polygon fill="#758297" stroke="#758297" points="1325.32,-104.5 1335.32,-101 1325.32,-97.5 1325.32,-104.5"/>
<text xml:space="preserve" text-anchor="middle" x="1285.62" y="-103.5" font-family="Comic Mono" font-size="10.00">release</text>
</g>
</g>
</svg>
