<?xml version="1.0" encoding="UTF-8" standalone="no"?>
<!DOCTYPE svg PUBLIC "-//W3C//DTD SVG 1.1//EN"
 "http://www.w3.org/Graphics/SVG/1.1/DTD/svg11.dtd">
<!-- Generated by graphviz version 15.0.0 (20260523.1842)
 -->
<!-- Title: examples&#45;cache&#45;warmer&#45;sequence&#45;01 Pages: 1 -->
<svg width="1652pt" height="1630pt"
 viewBox="0.00 0.00 1652.00 1630.00" xmlns="http://www.w3.org/2000/svg" xmlns:xlink="http://www.w3.org/1999/xlink">
<g id="graph0" class="graph" transform="scale(1 1) rotate(0) translate(4 1625.5)">
<title>examples&#45;cache&#45;warmer&#45;sequence&#45;01</title>
<text xml:space="preserve" text-anchor="middle" x="822.12" y="-1604.2" font-family="Times,serif" font-size="14.00">cache warmer Sequence Flow</text>
<!-- n0&#45;&gt;n1 -->
<g id="edge1" class="edge">
<title>n0&#45;&gt;n1</title>
<path fill="none" stroke="#758297" stroke-width="1.8" d="M300.54,-1531C300.54,-1531 436.99,-1531 436.99,-1531"/>
<polygon fill="#758297" stroke="#758297" stroke-width="1.8" points="436.99,-1533.8 444.99,-1531 436.99,-1528.2 436.99,-1533.8"/>
</g>
<!-- n0&#45;&gt;n2 -->
<g id="edge2" class="edge">
<title>n0&#45;&gt;n2</title>
<path fill="none" stroke="#758297" stroke-width="1.8" d="M150.12,-1567.51C150.12,-1582.76 150.12,-1597 150.12,-1597 150.12,-1597 1046.12,-1597 1046.12,-1597 1046.12,-1597 1046.12,-1578.23 1046.12,-1578.23"/>
<polygon fill="#758297" stroke="#758297" stroke-width="1.8" points="1048.92,-1578.23 1046.12,-1570.23 1043.32,-1578.23 1048.92,-1578.23"/>
</g>
<!-- n1&#45;&gt;n3 -->
<g id="edge3" class="edge">
<title>n1&#45;&gt;n3</title>
<path fill="none" stroke="#758297" stroke-width="1.8" d="M508.05,-1567.34C508.05,-1577.1 508.05,-1585 508.05,-1585 508.05,-1585 1524.14,-1585 1524.14,-1585 1524.14,-1585 1524.14,-1578.07 1524.14,-1578.07"/>
<polygon fill="#758297" stroke="#758297" stroke-width="1.8" points="1526.94,-1578.07 1524.14,-1570.07 1521.34,-1578.07 1526.94,-1578.07"/>
</g>
<!-- n1&#45;&gt;n3 -->
<g id="edge10" class="edge">
<title>n1&#45;&gt;n3</title>
<path fill="none" stroke="#758297" stroke-width="1.8" d="M568.1,-1567.4C568.1,-1574.08 568.1,-1579 568.1,-1579 568.1,-1579 1464.1,-1579 1464.1,-1579 1464.1,-1579 1464.1,-1577.84 1464.1,-1577.84"/>
<polygon fill="#758297" stroke="#758297" stroke-width="1.8" points="1466.9,-1578.12 1464.1,-1570.12 1461.3,-1578.12 1466.9,-1578.12"/>
</g>
<!-- n1&#45;&gt;r7p1 -->
<g id="edge7" class="edge">
<title>n1&#45;&gt;r7p1</title>
<path fill="none" stroke="#758297" stroke-width="1.8" d="M662.12,-1494.76C662.12,-1335.92 662.12,-708.71 662.12,-674.53"/>
</g>
<!-- n2&#45;&gt;n3 -->
<g id="edge4" class="edge">
<title>n2&#45;&gt;n3</title>
<path fill="none" stroke="#758297" stroke-width="1.8" d="M1196.54,-1509C1196.54,-1509 1332.99,-1509 1332.99,-1509"/>
<polygon fill="#758297" stroke="#758297" stroke-width="1.8" points="1332.99,-1511.8 1340.99,-1509 1332.99,-1506.2 1332.99,-1511.8"/>
</g>
<!-- n2&#45;&gt;n3 -->
<g id="edge11" class="edge">
<title>n2&#45;&gt;n3</title>
<path fill="none" stroke="#758297" stroke-width="1.8" d="M1196.54,-1553C1196.54,-1553 1332.99,-1553 1332.99,-1553"/>
<polygon fill="#758297" stroke="#758297" stroke-width="1.8" points="1332.99,-1555.8 1340.99,-1553 1332.99,-1550.2 1332.99,-1555.8"/>
</g>
<!-- n2&#45;&gt;r12p1 -->
<g id="edge14" class="edge">
<title>n2&#45;&gt;r12p1</title>
<path fill="none" stroke="#758297" stroke-width="1.8" d="M1110.12,-1494.84C1110.12,-1270.84 1110.12,-82.8 1110.12,-36.47"/>
</g>
<!-- n3&#45;&gt;n1 -->
<g id="edge5" class="edge">
<title>n3&#45;&gt;n1</title>
<path fill="none" stroke="#758297" stroke-width="1.8" stroke-dasharray="5,2" d="M1584.19,-1567.32C1584.19,-1579.94 1584.19,-1591 1584.19,-1591 1584.19,-1591 628.14,-1591 628.14,-1591 628.14,-1591 628.14,-1578.04 628.14,-1578.04"/>
<polygon fill="#758297" stroke="#758297" stroke-width="1.8" points="630.94,-1578.04 628.14,-1570.04 625.34,-1578.04 630.94,-1578.04"/>
</g>
<!-- n3&#45;&gt;n1 -->
<g id="edge13" class="edge">
<title>n3&#45;&gt;n1</title>
<path fill="none" stroke="#758297" stroke-width="1.8" stroke-dasharray="5,2" d="M1404.05,-1567.52C1404.05,-1570.85 1404.05,-1573 1404.05,-1573 1404.05,-1573 688.19,-1573 688.19,-1573 688.19,-1573 688.19,-1572.45 688.19,-1572.45"/>
<polygon fill="#758297" stroke="#758297" stroke-width="1.8" points="690.99,-1578.24 688.19,-1570.24 685.39,-1578.24 690.99,-1578.24"/>
</g>
<!-- n3&#45;&gt;n2 -->
<g id="edge6" class="edge">
<title>n3&#45;&gt;n2</title>
<path fill="none" stroke="#758297" stroke-width="1.8" stroke-dasharray="5,2" d="M1343.7,-1538C1343.7,-1538 1207.25,-1538 1207.25,-1538"/>
<polygon fill="#758297" stroke="#758297" stroke-width="1.8" points="1207.25,-1535.2 1199.25,-1538 1207.25,-1540.8 1207.25,-1535.2"/>
</g>
<!-- n3&#45;&gt;n2 -->
<g id="edge12" class="edge">
<title>n3&#45;&gt;n2</title>
<path fill="none" stroke="#758297" stroke-width="1.8" stroke-dasharray="5,2" d="M1343.7,-1524C1343.7,-1524 1207.25,-1524 1207.25,-1524"/>
<polygon fill="#758297" stroke="#758297" stroke-width="1.8" points="1207.25,-1521.2 1199.25,-1524 1207.25,-1526.8 1207.25,-1521.2"/>
</g>
<!-- r7p1&#45;&gt;r7p2 -->
<g id="edge8" class="edge">
<title>r7p1&#45;&gt;r7p2</title>
<path fill="none" stroke="#758297" stroke-width="1.8" d="M662.12,-671.62C662.12,-666.03 662.12,-646.02 662.12,-640.5"/>
</g>
<!-- r7p2&#45;&gt;n1 -->
<g id="edge9" class="edge">
<title>r7p2&#45;&gt;n1</title>
<path fill="none" stroke="#758297" stroke-width="1.8" d="M663.57,-639C671.14,-639 705.72,-639 705.72,-639 705.72,-639 705.72,-1484 705.72,-1484"/>
<polygon fill="#758297" stroke="#758297" stroke-width="1.8" points="702.92,-1484 705.72,-1492 708.52,-1484 702.92,-1484"/>
</g>
<!-- r12p1&#45;&gt;r12p2 -->
<g id="edge15" class="edge">
<title>r12p1&#45;&gt;r12p2</title>
<path fill="none" stroke="#758297" stroke-width="1.8" d="M1110.12,-33.62C1110.12,-28.03 1110.12,-8.02 1110.12,-2.5"/>
</g>
<!-- r12p2&#45;&gt;n2 -->
<g id="edge16" class="edge">
<title>r12p2&#45;&gt;n2</title>
<path fill="none" stroke="#758297" stroke-width="1.8" d="M1111.57,-1C1119.14,-1 1153.72,-1 1153.72,-1 1153.72,-1 1153.72,-1484.04 1153.72,-1484.04"/>
<polygon fill="#758297" stroke="#758297" stroke-width="1.8" points="1150.92,-1484.04 1153.72,-1492.04 1156.52,-1484.04 1150.92,-1484.04"/>
</g>
<!-- n0 -->
<g id="node1" class="node">
<title>n0</title>
<path fill="#ffffff" stroke="#5b8def" d="M288.24,-1567.08C288.24,-1567.08 12,-1567.08 12,-1567.08 6,-1567.08 0,-1561.08 0,-1555.08 0,-1555.08 0,-1507.08 0,-1507.08 0,-1501.08 6,-1495.08 12,-1495.08 12,-1495.08 288.24,-1495.08 288.24,-1495.08 294.24,-1495.08 300.24,-1501.08 300.24,-1507.08 300.24,-1507.08 300.24,-1555.08 300.24,-1555.08 300.24,-1561.08 294.24,-1567.08 288.24,-1567.08"/>
<text xml:space="preserve" text-anchor="middle" x="150.12" y="-1526.73" font-family="Architects Daughter" font-size="18.00">Cron</text>
</g>
<!-- n1 -->
<g id="node2" class="node">
<title>n1</title>
<path fill="#ffffff" stroke="#58a978" d="M736.24,-1567.08C736.24,-1567.08 460,-1567.08 460,-1567.08 454,-1567.08 448,-1561.08 448,-1555.08 448,-1555.08 448,-1507.08 448,-1507.08 448,-1501.08 454,-1495.08 460,-1495.08 460,-1495.08 736.24,-1495.08 736.24,-1495.08 742.24,-1495.08 748.24,-1501.08 748.24,-1507.08 748.24,-1507.08 748.24,-1555.08 748.24,-1555.08 748.24,-1561.08 742.24,-1567.08 736.24,-1567.08"/>
<text xml:space="preserve" text-anchor="middle" x="598.12" y="-1526.73" font-family="Architects Daughter" font-size="18.00">Node&#45;1</text>
</g>
<!-- n2 -->
<g id="node3" class="node">
<title>n2</title>
<path fill="#ffffff" stroke="#d6a441" d="M1184.24,-1567.08C1184.24,-1567.08 908,-1567.08 908,-1567.08 902,-1567.08 896,-1561.08 896,-1555.08 896,-1555.08 896,-1507.08 896,-1507.08 896,-1501.08 902,-1495.08 908,-1495.08 908,-1495.08 1184.24,-1495.08 1184.24,-1495.08 1190.24,-1495.08 1196.24,-1501.08 1196.24,-1507.08 1196.24,-1507.08 1196.24,-1555.08 1196.24,-1555.08 1196.24,-1561.08 1190.24,-1567.08 1184.24,-1567.08"/>
<text xml:space="preserve" text-anchor="middle" x="1046.12" y="-1526.73" font-family="Architects Daughter" font-size="18.00">Node&#45;2</text>
</g>
<!-- n3 -->
<g id="node4" class="node">
<title>n3</title>
<path fill="#ffffff" stroke="#dc6b82" d="M1632.24,-1567.08C1632.24,-1567.08 1356,-1567.08 1356,-1567.08 1350,-1567.08 1344,-1561.08 1344,-1555.08 1344,-1555.08 1344,-1507.08 1344,-1507.08 1344,-1501.08 1350,-1495.08 1356,-1495.08 1356,-1495.08 1632.24,-1495.08 1632.24,-1495.08 1638.24,-1495.08 1644.24,-1501.08 1644.24,-1507.08 1644.24,-1507.08 1644.24,-1555.08 1644.24,-1555.08 1644.24,-1561.08 1638.24,-1567.08 1632.24,-1567.08"/>
<text xml:space="preserve" text-anchor="middle" x="1494.12" y="-1526.73" font-family="Architects Daughter" font-size="18.00">Hazelcast (IMap</text>
</g>
<!-- r7p1 -->
<!-- r7p2 -->
<!-- r12p1 -->
<!-- r12p2 -->
</g>
</svg>
