<?xml version="1.0" encoding="UTF-8" standalone="no"?>
<!DOCTYPE svg PUBLIC "-//W3C//DTD SVG 1.1//EN"
 "http://www.w3.org/Graphics/SVG/1.1/DTD/svg11.dtd">
<!-- Generated by graphviz version 15.0.0 (20260523.1842)
 -->
<!-- Title: examples&#45;webhook&#45;poller&#45;sequence&#45;01 Pages: 1 -->
<svg width="1988pt" height="1236pt"
 viewBox="0.00 0.00 1988.00 1236.00" xmlns="http://www.w3.org/2000/svg" xmlns:xlink="http://www.w3.org/1999/xlink">
<g id="graph0" class="graph" transform="scale(1 1) rotate(0) translate(4 1231.5)">
<title>examples&#45;webhook&#45;poller&#45;sequence&#45;01</title>
<text xml:space="preserve" text-anchor="middle" x="990.12" y="-1210.2" font-family="Times,serif" font-size="14.00">webhook poller Sequence Flow</text>
<!-- n0&#45;&gt;n3 -->
<g id="edge1" class="edge">
<title>n0&#45;&gt;n3</title>
<path fill="none" stroke="#758297" stroke-width="1.8" d="M225.18,-1171.12C225.18,-1177.42 225.18,-1182 225.18,-1182 225.18,-1182 1500.19,-1182 1500.19,-1182 1500.19,-1182 1500.19,-1180.91 1500.19,-1180.91"/>
<polygon fill="#758297" stroke="#758297" stroke-width="1.8" points="1502.99,-1181.84 1500.19,-1173.84 1497.39,-1181.84 1502.99,-1181.84"/>
</g>
<!-- n0&#45;&gt;n4 -->
<g id="edge7" class="edge">
<title>n0&#45;&gt;n4</title>
<path fill="none" stroke="#758297" stroke-width="1.8" d="M187.65,-1171.34C187.65,-1181.1 187.65,-1189 187.65,-1189 187.65,-1189 1730.04,-1189 1730.04,-1189 1730.04,-1189 1730.04,-1182.07 1730.04,-1182.07"/>
<polygon fill="#758297" stroke="#758297" stroke-width="1.8" points="1732.84,-1182.07 1730.04,-1174.07 1727.24,-1182.07 1732.84,-1182.07"/>
</g>
<!-- n0&#45;&gt;n4 -->
<g id="edge12" class="edge">
<title>n0&#45;&gt;n4</title>
<path fill="none" stroke="#758297" stroke-width="1.8" d="M150.12,-1171.57C150.12,-1184.55 150.12,-1196 150.12,-1196 150.12,-1196 1830.12,-1196 1830.12,-1196 1830.12,-1196 1830.12,-1182.3 1830.12,-1182.3"/>
<polygon fill="#758297" stroke="#758297" stroke-width="1.8" points="1832.92,-1182.3 1830.12,-1174.3 1827.32,-1182.3 1832.92,-1182.3"/>
</g>
<!-- n0&#45;&gt;n4 -->
<g id="edge13" class="edge">
<title>n0&#45;&gt;n4</title>
<path fill="none" stroke="#758297" stroke-width="1.8" d="M112.59,-1171.34C112.59,-1186.21 112.59,-1200 112.59,-1200 112.59,-1200 1880.16,-1200 1880.16,-1200 1880.16,-1200 1880.16,-1182.06 1880.16,-1182.06"/>
<polygon fill="#758297" stroke="#758297" stroke-width="1.8" points="1882.96,-1182.06 1880.16,-1174.06 1877.36,-1182.06 1882.96,-1182.06"/>
</g>
<!-- n0&#45;&gt;n4 -->
<g id="edge14" class="edge">
<title>n0&#45;&gt;n4</title>
<path fill="none" stroke="#758297" stroke-width="1.8" d="M75.06,-1171.43C75.06,-1187.57 75.06,-1203 75.06,-1203 75.06,-1203 1930.2,-1203 1930.2,-1203 1930.2,-1203 1930.2,-1182.15 1930.2,-1182.15"/>
<polygon fill="#758297" stroke="#758297" stroke-width="1.8" points="1933,-1182.15 1930.2,-1174.15 1927.4,-1182.15 1933,-1182.15"/>
</g>
<!-- n0&#45;&gt;r9p1 -->
<g id="edge9" class="edge">
<title>n0&#45;&gt;r9p1</title>
<path fill="none" stroke="#758297" stroke-width="1.8" d="M214.12,-1098.79C214.12,-913.03 214.12,-75.65 214.12,-36.5"/>
</g>
<!-- n1&#45;&gt;n3 -->
<g id="edge2" class="edge">
<title>n1&#45;&gt;n3</title>
<path fill="none" stroke="#758297" stroke-width="1.8" d="M620.16,-1171.29C620.16,-1175.32 620.16,-1178 620.16,-1178 620.16,-1178 1440.14,-1178 1440.14,-1178 1440.14,-1178 1440.14,-1177.33 1440.14,-1177.33"/>
<polygon fill="#758297" stroke="#758297" stroke-width="1.8" points="1442.94,-1182.02 1440.14,-1174.02 1437.34,-1182.02 1442.94,-1182.02"/>
</g>
<!-- n2&#45;&gt;n3 -->
<g id="edge3" class="edge">
<title>n2&#45;&gt;n3</title>
<path fill="none" stroke="#758297" stroke-width="1.8" d="M1140.56,-1123C1140.56,-1123 1248.94,-1123 1248.94,-1123"/>
<polygon fill="#758297" stroke="#758297" stroke-width="1.8" points="1248.94,-1125.8 1256.94,-1123 1248.94,-1120.2 1248.94,-1125.8"/>
</g>
<!-- n3&#45;&gt;n0 -->
<g id="edge4" class="edge">
<title>n3&#45;&gt;n0</title>
<path fill="none" stroke="#758297" stroke-width="1.8" stroke-dasharray="5,2" d="M1380.1,-1171.36C1380.1,-1179.1 1380.1,-1185 1380.1,-1185 1380.1,-1185 262.71,-1185 262.71,-1185 262.71,-1185 262.71,-1182.08 262.71,-1182.08"/>
<polygon fill="#758297" stroke="#758297" stroke-width="1.8" points="265.51,-1182.08 262.71,-1174.08 259.91,-1182.08 265.51,-1182.08"/>
</g>
<!-- n3&#45;&gt;n1 -->
<g id="edge5" class="edge">
<title>n3&#45;&gt;n1</title>
<path fill="none" stroke="#758297" stroke-width="1.8" stroke-dasharray="5,2" d="M1320.05,-1171.32C1320.05,-1173.6 1320.05,-1175 1320.05,-1175 1320.05,-1175 520.08,-1175 520.08,-1175 520.08,-1175 520.08,-1174.63 520.08,-1174.63"/>
<polygon fill="#758297" stroke="#758297" stroke-width="1.8" points="522.88,-1182.04 520.08,-1174.04 517.28,-1182.04 522.88,-1182.04"/>
</g>
<!-- n3&#45;&gt;n2 -->
<g id="edge6" class="edge">
<title>n3&#45;&gt;n2</title>
<path fill="none" stroke="#758297" stroke-width="1.8" stroke-dasharray="5,2" d="M1259.68,-1147C1259.68,-1147 1151.3,-1147 1151.3,-1147"/>
<polygon fill="#758297" stroke="#758297" stroke-width="1.8" points="1151.3,-1144.2 1143.3,-1147 1151.3,-1149.8 1151.3,-1144.2"/>
</g>
<!-- n4&#45;&gt;n0 -->
<g id="edge8" class="edge">
<title>n4&#45;&gt;n0</title>
<path fill="none" stroke="#758297" stroke-width="1.8" stroke-dasharray="5,2" d="M1780.08,-1171.43C1780.08,-1183.07 1780.08,-1193 1780.08,-1193 1780.08,-1193 37.53,-1193 37.53,-1193 37.53,-1193 37.53,-1182.16 37.53,-1182.16"/>
<polygon fill="#758297" stroke="#758297" stroke-width="1.8" points="40.33,-1182.16 37.53,-1174.16 34.73,-1182.16 40.33,-1182.16"/>
</g>
<!-- r9p1&#45;&gt;r9p2 -->
<g id="edge10" class="edge">
<title>r9p1&#45;&gt;r9p2</title>
<path fill="none" stroke="#758297" stroke-width="1.8" d="M214.12,-33.62C214.12,-28.03 214.12,-8.02 214.12,-2.5"/>
</g>
<!-- r9p2&#45;&gt;n0 -->
<g id="edge11" class="edge">
<title>r9p2&#45;&gt;n0</title>
<path fill="none" stroke="#758297" stroke-width="1.8" d="M215.57,-1C223.14,-1 257.72,-1 257.72,-1 257.72,-1 257.72,-1087.91 257.72,-1087.91"/>
<polygon fill="#758297" stroke="#758297" stroke-width="1.8" points="254.92,-1087.91 257.72,-1095.91 260.52,-1087.91 254.92,-1087.91"/>
</g>
<!-- n0 -->
<g id="node1" class="node">
<title>n0</title>
<path fill="#ffffff" stroke="#5b8def" d="M288.24,-1171.08C288.24,-1171.08 12,-1171.08 12,-1171.08 6,-1171.08 0,-1165.08 0,-1159.08 0,-1159.08 0,-1111.08 0,-1111.08 0,-1105.08 6,-1099.08 12,-1099.08 12,-1099.08 288.24,-1099.08 288.24,-1099.08 294.24,-1099.08 300.24,-1105.08 300.24,-1111.08 300.24,-1111.08 300.24,-1159.08 300.24,-1159.08 300.24,-1165.08 294.24,-1171.08 288.24,-1171.08"/>
<text xml:space="preserve" text-anchor="middle" x="150.12" y="-1130.73" font-family="Architects Daughter" font-size="18.00">poller&#45;1 (leader)</text>
</g>
<!-- n1 -->
<g id="node2" class="node">
<title>n1</title>
<path fill="#ffffff" stroke="#58a978" d="M708.24,-1171.08C708.24,-1171.08 432,-1171.08 432,-1171.08 426,-1171.08 420,-1165.08 420,-1159.08 420,-1159.08 420,-1111.08 420,-1111.08 420,-1105.08 426,-1099.08 432,-1099.08 432,-1099.08 708.24,-1099.08 708.24,-1099.08 714.24,-1099.08 720.24,-1105.08 720.24,-1111.08 720.24,-1111.08 720.24,-1159.08 720.24,-1159.08 720.24,-1165.08 714.24,-1171.08 708.24,-1171.08"/>
<text xml:space="preserve" text-anchor="middle" x="570.12" y="-1130.73" font-family="Architects Daughter" font-size="18.00">poller&#45;2</text>
</g>
<!-- n2 -->
<g id="node3" class="node">
<title>n2</title>
<path fill="#ffffff" stroke="#d6a441" d="M1128.24,-1171.08C1128.24,-1171.08 852,-1171.08 852,-1171.08 846,-1171.08 840,-1165.08 840,-1159.08 840,-1159.08 840,-1111.08 840,-1111.08 840,-1105.08 846,-1099.08 852,-1099.08 852,-1099.08 1128.24,-1099.08 1128.24,-1099.08 1134.24,-1099.08 1140.24,-1105.08 1140.24,-1111.08 1140.24,-1111.08 1140.24,-1159.08 1140.24,-1159.08 1140.24,-1165.08 1134.24,-1171.08 1128.24,-1171.08"/>
<text xml:space="preserve" text-anchor="middle" x="990.12" y="-1130.73" font-family="Architects Daughter" font-size="18.00">poller&#45;3</text>
</g>
<!-- n3 -->
<g id="node4" class="node">
<title>n3</title>
<path fill="#ffffff" stroke="#dc6b82" d="M1548.24,-1171.08C1548.24,-1171.08 1272,-1171.08 1272,-1171.08 1266,-1171.08 1260,-1165.08 1260,-1159.08 1260,-1159.08 1260,-1111.08 1260,-1111.08 1260,-1105.08 1266,-1099.08 1272,-1099.08 1272,-1099.08 1548.24,-1099.08 1548.24,-1099.08 1554.24,-1099.08 1560.24,-1105.08 1560.24,-1111.08 1560.24,-1111.08 1560.24,-1159.08 1560.24,-1159.08 1560.24,-1165.08 1554.24,-1171.08 1548.24,-1171.08"/>
<text xml:space="preserve" text-anchor="middle" x="1410.12" y="-1130.73" font-family="Architects Daughter" font-size="18.00">Mongo</text>
</g>
<!-- n4 -->
<g id="node5" class="node">
<title>n4</title>
<path fill="#ffffff" stroke="#45a7a1" d="M1968.24,-1171.08C1968.24,-1171.08 1692,-1171.08 1692,-1171.08 1686,-1171.08 1680,-1165.08 1680,-1159.08 1680,-1159.08 1680,-1111.08 1680,-1111.08 1680,-1105.08 1686,-1099.08 1692,-1099.08 1692,-1099.08 1968.24,-1099.08 1968.24,-1099.08 1974.24,-1099.08 1980.24,-1105.08 1980.24,-1111.08 1980.24,-1111.08 1980.24,-1159.08 1980.24,-1159.08 1980.24,-1165.08 1974.24,-1171.08 1968.24,-1171.08"/>
<text xml:space="preserve" text-anchor="middle" x="1830.12" y="-1130.73" font-family="Architects Daughter" font-size="18.00">Mongo</text>
</g>
<!-- r9p1 -->
<!-- r9p2 -->
</g>
</svg>
