<?xml version="1.0" encoding="UTF-8" standalone="no"?>
<!DOCTYPE svg PUBLIC "-//W3C//DTD SVG 1.1//EN"
 "http://www.w3.org/Graphics/SVG/1.1/DTD/svg11.dtd">
<!-- Generated by graphviz version 15.0.0 (20260523.1842)
 -->
<!-- Title: examples&#45;etcd&#45;reconciler&#45;architecture&#45;01 Pages: 1 -->
<svg width="1238pt" height="315pt"
 viewBox="0.00 0.00 1238.00 315.00" xmlns="http://www.w3.org/2000/svg" xmlns:xlink="http://www.w3.org/1999/xlink">
<g id="graph0" class="graph" transform="scale(1 1) rotate(0) translate(4 310.66)">
<title>examples&#45;etcd&#45;reconciler&#45;architecture&#45;01</title>
<text xml:space="preserve" text-anchor="middle" x="614.9" y="-289.36" font-family="Times,serif" font-size="14.00">Etcd Reconciler Architecture</text>
<!-- n0&#45;&gt;r1p1 -->
<g id="edge1" class="edge">
<title>n0&#45;&gt;r1p1</title>
<path fill="none" stroke="#758297" stroke-width="1.8" d="M229.92,-236.08C248.83,-236.08 263.8,-236.08 268.38,-236.08"/>
</g>
<!-- n1&#45;&gt;r2p1 -->
<g id="edge4" class="edge">
<title>n1&#45;&gt;r2p1</title>
<path fill="none" stroke="#758297" stroke-width="1.8" d="M229.92,-46.08C248.83,-46.08 263.8,-46.08 268.38,-46.08"/>
</g>
<!-- n2&#45;&gt;r3p1 -->
<g id="edge7" class="edge">
<title>n2&#45;&gt;r3p1</title>
<path fill="none" stroke="#758297" stroke-width="1.8" d="M610.34,-136.08C619.29,-136.08 625.78,-136.08 628.47,-136.08"/>
</g>
<!-- n2&#45;&gt;r5p1 -->
<g id="edge13" class="edge">
<title>n2&#45;&gt;r5p1</title>
<path fill="none" stroke="#758297" stroke-width="1.8" d="M610.35,-136.08C691.27,-136.08 776.87,-136.08 788.5,-136.08"/>
</g>
<!-- n3&#45;&gt;r4p1 -->
<g id="edge10" class="edge">
<title>n3&#45;&gt;r4p1</title>
<path fill="none" stroke="#758297" stroke-width="1.8" d="M920.19,-136.08C931.76,-136.08 940.3,-136.08 943.48,-136.08"/>
</g>
<!-- r1p1&#45;&gt;r1p2 -->
<g id="edge2" class="edge">
<title>r1p1&#45;&gt;r1p2</title>
<path fill="none" stroke="#758297" stroke-width="1.8" d="M269.84,-234.67C269.84,-223.46 269.84,-149.13 269.84,-137.59"/>
</g>
<!-- r1p2&#45;&gt;n2 -->
<g id="edge3" class="edge">
<title>r1p2&#45;&gt;n2</title>
<path fill="none" stroke="#758297" stroke-width="1.8" d="M271.05,-136.08C274.47,-136.08 284.85,-136.08 299.11,-136.08"/>
<polygon fill="#758297" stroke="#758297" stroke-width="1.8" points="298.84,-138.88 306.84,-136.08 298.84,-133.28 298.84,-138.88"/>
</g>
<!-- r2p1&#45;&gt;r2p2 -->
<g id="edge5" class="edge">
<title>r2p1&#45;&gt;r2p2</title>
<path fill="none" stroke="#758297" stroke-width="1.8" d="M269.84,-47.64C269.84,-58.66 269.84,-124.52 269.84,-134.75"/>
</g>
<!-- r2p2&#45;&gt;n2 -->
<g id="edge6" class="edge">
<title>r2p2&#45;&gt;n2</title>
<path fill="none" stroke="#758297" stroke-width="1.8" d="M271.05,-136.08C274.47,-136.08 284.85,-136.08 299.11,-136.08"/>
<polygon fill="#758297" stroke="#758297" stroke-width="1.8" points="298.84,-138.88 306.84,-136.08 298.84,-133.28 298.84,-138.88"/>
</g>
<!-- r3p1&#45;&gt;r3p2 -->
<g id="edge8" class="edge">
<title>r3p1&#45;&gt;r3p2</title>
<path fill="none" stroke="#758297" stroke-width="1.8" d="M629.84,-136.08C629.84,-136.08 629.84,-136.08 629.84,-136.08"/>
</g>
<!-- r3p2&#45;&gt;n3 -->
<g id="edge9" class="edge">
<title>r3p2&#45;&gt;n3</title>
<path fill="none" stroke="#758297" stroke-width="1.8" d="M631.18,-136.08C632.65,-136.08 635.29,-136.08 638.85,-136.08"/>
<polygon fill="#758297" stroke="#758297" stroke-width="1.8" points="638.75,-138.88 646.75,-136.08 638.75,-133.28 638.75,-138.88"/>
</g>
<!-- r4p1&#45;&gt;r4p2 -->
<g id="edge11" class="edge">
<title>r4p1&#45;&gt;r4p2</title>
<path fill="none" stroke="#758297" stroke-width="1.8" d="M944.84,-137.49C944.84,-148.7 944.84,-223.03 944.84,-234.57"/>
</g>
<!-- r4p2&#45;&gt;n4 -->
<g id="edge12" class="edge">
<title>r4p2&#45;&gt;n4</title>
<path fill="none" stroke="#758297" stroke-width="1.8" d="M946.18,-236.08C948.31,-236.08 952.87,-236.08 959.13,-236.08"/>
<polygon fill="#758297" stroke="#758297" stroke-width="1.8" points="958.73,-238.88 966.73,-236.08 958.73,-233.28 958.73,-238.88"/>
</g>
<!-- r5p1&#45;&gt;r5p2 -->
<g id="edge14" class="edge">
<title>r5p1&#45;&gt;r5p2</title>
<path fill="none" stroke="#758297" stroke-width="1.8" d="M789.84,-134.52C789.84,-123.5 789.84,-57.64 789.84,-47.41"/>
</g>
<!-- r5p2&#45;&gt;n5 -->
<g id="edge15" class="edge">
<title>r5p2&#45;&gt;n5</title>
<path fill="none" stroke="#758297" stroke-width="1.8" d="M791.22,-46.08C802.65,-46.08 883.02,-46.08 958.87,-46.08"/>
<polygon fill="#758297" stroke="#758297" stroke-width="1.8" points="958.81,-48.88 966.81,-46.08 958.81,-43.28 958.81,-48.88"/>
</g>
<!-- n0 -->
<g id="node1" class="node">
<title>n0</title>
<path fill="#ffffff" stroke="#5b8def" d="M217.68,-282.16C217.68,-282.16 12,-282.16 12,-282.16 6,-282.16 0,-276.16 0,-270.16 0,-270.16 0,-202 0,-202 0,-196 6,-190 12,-190 12,-190 217.68,-190 217.68,-190 223.68,-190 229.68,-196 229.68,-202 229.68,-202 229.68,-270.16 229.68,-270.16 229.68,-276.16 223.68,-282.16 217.68,-282.16"/>
<text xml:space="preserve" text-anchor="middle" x="114.84" y="-231.73" font-family="Architects Daughter" font-size="18.00">Control&#45;plane A</text>
</g>
<!-- n1 -->
<g id="node2" class="node">
<title>n1</title>
<path fill="#ffffff" stroke="#58a978" d="M217.68,-92.16C217.68,-92.16 12,-92.16 12,-92.16 6,-92.16 0,-86.16 0,-80.16 0,-80.16 0,-12 0,-12 0,-6 6,0 12,0 12,0 217.68,0 217.68,0 223.68,0 229.68,-6 229.68,-12 229.68,-12 229.68,-80.16 229.68,-80.16 229.68,-86.16 223.68,-92.16 217.68,-92.16"/>
<text xml:space="preserve" text-anchor="middle" x="114.84" y="-41.73" font-family="Architects Daughter" font-size="18.00">Control&#45;plane B</text>
</g>
<!-- n2 -->
<g id="node3" class="node">
<title>n2</title>
<path fill="#ffffff" stroke="#d6a441" d="M597.96,-182.16C597.96,-182.16 321.72,-182.16 321.72,-182.16 315.72,-182.16 309.72,-176.16 309.72,-170.16 309.72,-170.16 309.72,-102 309.72,-102 309.72,-96 315.72,-90 321.72,-90 321.72,-90 597.96,-90 597.96,-90 603.96,-90 609.96,-96 609.96,-102 609.96,-102 609.96,-170.16 609.96,-170.16 609.96,-176.16 603.96,-182.16 597.96,-182.16"/>
<text xml:space="preserve" text-anchor="middle" x="459.84" y="-131.73" font-family="Architects Daughter" font-size="18.00">ClusterReconciler</text>
</g>
<!-- n3 -->
<g id="node4" class="node">
<title>n3</title>
<path fill="#ffffff" stroke="#dc6b82" d="M907.84,-182.16C907.84,-182.16 661.84,-182.16 661.84,-182.16 655.84,-182.16 649.84,-176.16 649.84,-170.16 649.84,-170.16 649.84,-102 649.84,-102 649.84,-96 655.84,-90 661.84,-90 661.84,-90 907.84,-90 907.84,-90 913.84,-90 919.84,-96 919.84,-102 919.84,-102 919.84,-170.16 919.84,-170.16 919.84,-176.16 913.84,-182.16 907.84,-182.16"/>
<text xml:space="preserve" text-anchor="middle" x="784.84" y="-131.73" font-family="Architects Daughter" font-size="18.00">EtcdLeaderElector</text>
</g>
<!-- n4 -->
<g id="node5" class="node">
<title>n4</title>
<path fill="#ffffff" stroke="#45a7a1" d="M1217.8,-282.16C1217.8,-282.16 981.88,-282.16 981.88,-282.16 975.88,-282.16 969.88,-276.16 969.88,-270.16 969.88,-270.16 969.88,-202 969.88,-202 969.88,-196 975.88,-190 981.88,-190 981.88,-190 1217.8,-190 1217.8,-190 1223.8,-190 1229.8,-196 1229.8,-202 1229.8,-202 1229.8,-270.16 1229.8,-270.16 1229.8,-276.16 1223.8,-282.16 1217.8,-282.16"/>
<text xml:space="preserve" text-anchor="middle" x="1099.84" y="-231.73" font-family="Architects Daughter" font-size="18.00">etcd cluster</text>
</g>
<!-- n5 -->
<g id="node6" class="node">
<title>n5</title>
<path fill="#ffffff" stroke="#8a72d6" d="M1217.8,-92.16C1217.8,-92.16 981.88,-92.16 981.88,-92.16 975.88,-92.16 969.88,-86.16 969.88,-80.16 969.88,-80.16 969.88,-12 969.88,-12 969.88,-6 975.88,0 981.88,0 981.88,0 1217.8,0 1217.8,0 1223.8,0 1229.8,-6 1229.8,-12 1229.8,-12 1229.8,-80.16 1229.8,-80.16 1229.8,-86.16 1223.8,-92.16 1217.8,-92.16"/>
<text xml:space="preserve" text-anchor="middle" x="1099.84" y="-41.73" font-family="Architects Daughter" font-size="18.00">Cluster resources</text>
</g>
<!-- r1p1 -->
<!-- r1p2 -->
<!-- r2p1 -->
<!-- r2p2 -->
<!-- r3p1 -->
<!-- r3p2 -->
<!-- r4p1 -->
<!-- r4p2 -->
<!-- r5p1 -->
<!-- r5p2 -->
</g>
</svg>
