<?xml version="1.0" encoding="UTF-8" standalone="no"?>
<!DOCTYPE svg PUBLIC "-//W3C//DTD SVG 1.1//EN"
 "http://www.w3.org/Graphics/SVG/1.1/DTD/svg11.dtd">
<!-- Generated by graphviz version 15.0.0 (20260523.1842)
 -->
<!-- Title: examples&#45;strategic&#45;election&#45;architecture&#45;01 Pages: 1 -->
<svg width="1405pt" height="136pt"
 viewBox="0.00 0.00 1405.00 136.00" xmlns="http://www.w3.org/2000/svg" xmlns:xlink="http://www.w3.org/1999/xlink">
<g id="graph0" class="graph" transform="scale(1 1) rotate(0) translate(4 132)">
<title>examples&#45;strategic&#45;election&#45;architecture&#45;01</title>
<!-- trigger -->
<g id="node1" class="node">
<title>trigger</title>
<path fill="#f8fafc" stroke="#94a3b8" d="M109,-77C109,-77 12,-77 12,-77 6,-77 0,-71 0,-65 0,-65 0,-53 0,-53 0,-47 6,-41 12,-41 12,-41 109,-41 109,-41 115,-41 121,-47 121,-53 121,-53 121,-65 121,-65 121,-71 115,-77 109,-77"/>
<text xml:space="preserve" text-anchor="middle" x="60.5" y="-53.58" font-family="Comic Mono" font-size="14.00">Candidate Scan</text>
</g>
<!-- nodeA -->
<g id="node2" class="node">
<title>nodeA</title>
<path fill="#f8fafc" stroke="#94a3b8" d="M332,-119C332,-119 220,-119 220,-119 214,-119 208,-113 208,-107 208,-107 208,-95 208,-95 208,-89 214,-83 220,-83 220,-83 332,-83 332,-83 338,-83 344,-89 344,-95 344,-95 344,-107 344,-107 344,-113 338,-119 332,-119"/>
<text xml:space="preserve" text-anchor="middle" x="276" y="-95.58" font-family="Comic Mono" font-size="14.00">Candidate Node A</text>
</g>
<!-- trigger&#45;&gt;nodeA -->
<g id="edge1" class="edge">
<title>trigger&#45;&gt;nodeA</title>
<path fill="none" stroke="#758297" d="M60.25,-77.06C60.25,-88.44 60.25,-101 60.25,-101 60.25,-101 196.22,-101 196.22,-101"/>
<polygon fill="#758297" stroke="#758297" points="196.22,-104.5 206.22,-101 196.22,-97.5 196.22,-104.5"/>
<text xml:space="preserve" text-anchor="middle" x="164.5" y="-98.5" font-family="Comic Mono" font-size="10.00">call</text>
</g>
<!-- nodeB -->
<g id="node3" class="node">
<title>nodeB</title>
<path fill="#f8fafc" stroke="#94a3b8" d="M332,-36C332,-36 220,-36 220,-36 214,-36 208,-30 208,-24 208,-24 208,-12 208,-12 208,-6 214,0 220,0 220,0 332,0 332,0 338,0 344,-6 344,-12 344,-12 344,-24 344,-24 344,-30 338,-36 332,-36"/>
<text xml:space="preserve" text-anchor="middle" x="276" y="-12.57" font-family="Comic Mono" font-size="14.00">Candidate Node B</text>
</g>
<!-- trigger&#45;&gt;nodeB -->
<g id="edge2" class="edge">
<title>trigger&#45;&gt;nodeB</title>
<path fill="none" stroke="#758297" d="M60.25,-40.9C60.25,-29.91 60.25,-18 60.25,-18 60.25,-18 196.22,-18 196.22,-18"/>
<polygon fill="#758297" stroke="#758297" points="196.22,-21.5 206.22,-18 196.22,-14.5 196.22,-21.5"/>
<text xml:space="preserve" text-anchor="middle" x="164.5" y="-29.5" font-family="Comic Mono" font-size="10.00">call</text>
</g>
<!-- coordinator -->
<g id="node4" class="node">
<title>coordinator</title>
<path fill="#f8fafc" stroke="#94a3b8" d="M592.5,-77C592.5,-77 443,-77 443,-77 437,-77 431,-71 431,-65 431,-65 431,-53 431,-53 431,-47 437,-41 443,-41 443,-41 592.5,-41 592.5,-41 598.5,-41 604.5,-47 604.5,-53 604.5,-53 604.5,-65 604.5,-65 604.5,-71 598.5,-77 592.5,-77"/>
<text xml:space="preserve" text-anchor="middle" x="517.75" y="-53.58" font-family="Comic Mono" font-size="14.00">StrategicLeaderRunner</text>
</g>
<!-- nodeA&#45;&gt;coordinator -->
<g id="edge3" class="edge">
<title>nodeA&#45;&gt;coordinator</title>
<path fill="none" stroke="#758297" d="M253.25,-82.58C253.25,-73.72 253.25,-65 253.25,-65 253.25,-65 419.26,-65 419.26,-65"/>
<polygon fill="#758297" stroke="#758297" points="419.26,-68.5 429.26,-65 419.26,-61.5 419.26,-68.5"/>
<text xml:space="preserve" text-anchor="middle" x="387.5" y="-98.5" font-family="Comic Mono" font-size="10.00">call</text>
</g>
<!-- nodeB&#45;&gt;coordinator -->
<g id="edge4" class="edge">
<title>nodeB&#45;&gt;coordinator</title>
<path fill="none" stroke="#758297" d="M298.25,-36.32C298.25,-44.79 298.25,-53 298.25,-53 298.25,-53 419.17,-53 419.17,-53"/>
<polygon fill="#758297" stroke="#758297" points="419.17,-56.5 429.17,-53 419.17,-49.5 419.17,-56.5"/>
<text xml:space="preserve" text-anchor="middle" x="387.5" y="-29.5" font-family="Comic Mono" font-size="10.00">call</text>
</g>
<!-- elector -->
<g id="node6" class="node">
<title>elector</title>
<path fill="#f8fafc" stroke="#94a3b8" d="M907,-128C907,-128 735,-128 735,-128 729,-128 723,-122 723,-116 723,-116 723,-104 723,-104 723,-98 729,-92 735,-92 735,-92 907,-92 907,-92 913,-92 919,-98 919,-104 919,-104 919,-116 919,-116 919,-122 913,-128 907,-128"/>
<text xml:space="preserve" text-anchor="middle" x="821" y="-104.58" font-family="Comic Mono" font-size="14.00">Scored election strategy</text>
</g>
<!-- coordinator&#45;&gt;elector -->
<g id="edge5" class="edge">
<title>coordinator&#45;&gt;elector</title>
<path fill="none" stroke="#758297" d="M604.9,-66.33C666.53,-66.33 738.25,-66.33 738.25,-66.33 738.25,-66.33 738.25,-80.22 738.25,-80.22"/>
<polygon fill="#758297" stroke="#758297" points="734.75,-80.22 738.25,-90.22 741.75,-80.22 734.75,-80.22"/>
<text xml:space="preserve" text-anchor="middle" x="663.75" y="-102.5" font-family="Comic Mono" font-size="10.00">dependency</text>
</g>
<!-- work -->
<g id="node8" class="node">
<title>work</title>
<path fill="#f8fafc" stroke="#94a3b8" d="M877,-45C877,-45 765,-45 765,-45 759,-45 753,-39 753,-33 753,-33 753,-21 753,-21 753,-15 759,-9 765,-9 765,-9 877,-9 877,-9 883,-9 889,-15 889,-21 889,-21 889,-33 889,-33 889,-39 883,-45 877,-45"/>
<text xml:space="preserve" text-anchor="middle" x="821" y="-21.57" font-family="Comic Mono" font-size="14.00">Winner&#45;Only Work</text>
</g>
<!-- coordinator&#45;&gt;work -->
<g id="edge7" class="edge">
<title>coordinator&#45;&gt;work</title>
<path fill="none" stroke="#758297" d="M604.72,-55.67C694.4,-55.67 821.25,-55.67 821.25,-55.67 821.25,-55.67 821.25,-54.63 821.25,-54.63"/>
<polygon fill="#758297" stroke="#758297" points="824.75,-56.83 821.25,-46.83 817.75,-56.83 824.75,-56.83"/>
<text xml:space="preserve" text-anchor="middle" x="663.75" y="-29.5" font-family="Comic Mono" font-size="10.00">success</text>
</g>
<!-- backend -->
<g id="node5" class="node">
<title>backend</title>
<path fill="#f8fafc" stroke="#94a3b8" d="M1169,-128C1169,-128 1049.5,-128 1049.5,-128 1043.5,-128 1037.5,-122 1037.5,-116 1037.5,-116 1037.5,-104 1037.5,-104 1037.5,-98 1043.5,-92 1049.5,-92 1049.5,-92 1169,-92 1169,-92 1175,-92 1181,-98 1181,-104 1181,-104 1181,-116 1181,-116 1181,-122 1175,-128 1169,-128"/>
<text xml:space="preserve" text-anchor="middle" x="1109.25" y="-104.58" font-family="Comic Mono" font-size="14.00">local leader slot</text>
</g>
<!-- recovery -->
<g id="node7" class="node">
<title>recovery</title>
<path fill="#f8fafc" stroke="#94a3b8" d="M1385.25,-128C1385.25,-128 1295.75,-128 1295.75,-128 1289.75,-128 1283.75,-122 1283.75,-116 1283.75,-116 1283.75,-104 1283.75,-104 1283.75,-98 1289.75,-92 1295.75,-92 1295.75,-92 1385.25,-92 1385.25,-92 1391.25,-92 1397.25,-98 1397.25,-104 1397.25,-104 1397.25,-116 1397.25,-116 1397.25,-122 1391.25,-128 1385.25,-128"/>
<text xml:space="preserve" text-anchor="middle" x="1340.5" y="-104.58" font-family="Comic Mono" font-size="14.00">Score Refresh</text>
</g>
<!-- backend&#45;&gt;recovery -->
<g id="edge8" class="edge">
<title>backend&#45;&gt;recovery</title>
<path fill="none" stroke="#758297" d="M1181.47,-110C1181.47,-110 1271.96,-110 1271.96,-110"/>
<polygon fill="#758297" stroke="#758297" points="1271.96,-113.5 1281.96,-110 1271.96,-106.5 1271.96,-113.5"/>
<text xml:space="preserve" text-anchor="middle" x="1232.38" y="-112.5" font-family="Comic Mono" font-size="10.00">release</text>
</g>
<!-- elector&#45;&gt;backend -->
<g id="edge6" class="edge">
<title>elector&#45;&gt;backend</title>
<path fill="none" stroke="#758297" d="M919.39,-110C919.39,-110 1025.71,-110 1025.71,-110"/>
<polygon fill="#758297" stroke="#758297" points="1025.71,-113.5 1035.71,-110 1025.71,-106.5 1025.71,-113.5"/>
<text xml:space="preserve" text-anchor="middle" x="978.25" y="-112.5" font-family="Comic Mono" font-size="10.00">contention</text>
</g>
</g>
</svg>
