<?xml version="1.0" encoding="UTF-8" standalone="no"?>
<!DOCTYPE svg PUBLIC "-//W3C//DTD SVG 1.1//EN"
 "http://www.w3.org/Graphics/SVG/1.1/DTD/svg11.dtd">
<!-- Generated by graphviz version 15.0.0 (20260523.1842)
 -->
<!-- Title: examples&#45;k8s&#45;lease&#45;scenario&#45;01 Pages: 1 -->
<svg width="800pt" height="210pt"
 viewBox="0.00 0.00 800.00 210.00" xmlns="http://www.w3.org/2000/svg" xmlns:xlink="http://www.w3.org/1999/xlink">
<g id="graph0" class="graph" transform="scale(1 1) rotate(0) translate(4 206)">
<title>examples&#45;k8s&#45;lease&#45;scenario&#45;01</title>
<!-- tick -->
<g id="node1" class="node">
<title>tick</title>
<path fill="#f8fafc" stroke="#94a3b8" d="M101.5,-119C101.5,-119 12,-119 12,-119 6,-119 0,-113 0,-107 0,-107 0,-95 0,-95 0,-89 6,-83 12,-83 12,-83 101.5,-83 101.5,-83 107.5,-83 113.5,-89 113.5,-95 113.5,-95 113.5,-107 113.5,-107 113.5,-113 107.5,-119 101.5,-119"/>
<text xml:space="preserve" text-anchor="middle" x="56.75" y="-95.58" font-family="Comic Mono" font-size="14.00">Lease Attempt</text>
</g>
<!-- nodeA -->
<g id="node2" class="node">
<title>nodeA</title>
<path fill="#f8fafc" stroke="#94a3b8" d="M287,-202C287,-202 212.5,-202 212.5,-202 206.5,-202 200.5,-196 200.5,-190 200.5,-190 200.5,-178 200.5,-178 200.5,-172 206.5,-166 212.5,-166 212.5,-166 287,-166 287,-166 293,-166 299,-172 299,-178 299,-178 299,-190 299,-190 299,-196 293,-202 287,-202"/>
<text xml:space="preserve" text-anchor="middle" x="249.75" y="-178.57" font-family="Comic Mono" font-size="14.00">Candidate A</text>
</g>
<!-- tick&#45;&gt;nodeA -->
<g id="edge1" class="edge">
<title>tick&#45;&gt;nodeA</title>
<path fill="none" stroke="#758297" d="M56.25,-119.42C56.25,-143.87 56.25,-184 56.25,-184 56.25,-184 188.66,-184 188.66,-184"/>
<polygon fill="#758297" stroke="#758297" points="188.66,-187.5 198.66,-184 188.66,-180.5 188.66,-187.5"/>
<text xml:space="preserve" text-anchor="middle" x="157" y="-176.5" font-family="Comic Mono" font-size="10.00">call</text>
</g>
<!-- nodeB -->
<g id="node3" class="node">
<title>nodeB</title>
<path fill="#f8fafc" stroke="#94a3b8" d="M287,-119C287,-119 212.5,-119 212.5,-119 206.5,-119 200.5,-113 200.5,-107 200.5,-107 200.5,-95 200.5,-95 200.5,-89 206.5,-83 212.5,-83 212.5,-83 287,-83 287,-83 293,-83 299,-89 299,-95 299,-95 299,-107 299,-107 299,-113 293,-119 287,-119"/>
<text xml:space="preserve" text-anchor="middle" x="249.75" y="-95.58" font-family="Comic Mono" font-size="14.00">Candidate B</text>
</g>
<!-- tick&#45;&gt;nodeB -->
<g id="edge2" class="edge">
<title>tick&#45;&gt;nodeB</title>
<path fill="none" stroke="#758297" d="M113.87,-101C113.87,-101 188.78,-101 188.78,-101"/>
<polygon fill="#758297" stroke="#758297" points="188.78,-104.5 198.78,-101 188.78,-97.5 188.78,-104.5"/>
<text xml:space="preserve" text-anchor="middle" x="157" y="-103.5" font-family="Comic Mono" font-size="10.00">call</text>
</g>
<!-- nodeC -->
<g id="node4" class="node">
<title>nodeC</title>
<path fill="#f8fafc" stroke="#94a3b8" d="M287,-36C287,-36 212.5,-36 212.5,-36 206.5,-36 200.5,-30 200.5,-24 200.5,-24 200.5,-12 200.5,-12 200.5,-6 206.5,0 212.5,0 212.5,0 287,0 287,0 293,0 299,-6 299,-12 299,-12 299,-24 299,-24 299,-30 293,-36 287,-36"/>
<text xml:space="preserve" text-anchor="middle" x="249.75" y="-12.57" font-family="Comic Mono" font-size="14.00">Candidate C</text>
</g>
<!-- tick&#45;&gt;nodeC -->
<g id="edge3" class="edge">
<title>tick&#45;&gt;nodeC</title>
<path fill="none" stroke="#758297" d="M56.25,-82.58C56.25,-58.13 56.25,-18 56.25,-18 56.25,-18 188.66,-18 188.66,-18"/>
<polygon fill="#758297" stroke="#758297" points="188.66,-21.5 198.66,-18 188.66,-14.5 188.66,-21.5"/>
<text xml:space="preserve" text-anchor="middle" x="157" y="-30.5" font-family="Comic Mono" font-size="10.00">call</text>
</g>
<!-- backend -->
<g id="node5" class="node">
<title>backend</title>
<path fill="#f8fafc" stroke="#94a3b8" d="M526.5,-119C526.5,-119 429.5,-119 429.5,-119 423.5,-119 417.5,-113 417.5,-107 417.5,-107 417.5,-95 417.5,-95 417.5,-89 423.5,-83 429.5,-83 429.5,-83 526.5,-83 526.5,-83 532.5,-83 538.5,-89 538.5,-95 538.5,-95 538.5,-107 538.5,-107 538.5,-113 532.5,-119 526.5,-119"/>
<text xml:space="preserve" text-anchor="middle" x="478" y="-95.58" font-family="Comic Mono" font-size="14.00">Lease resource</text>
</g>
<!-- nodeA&#45;&gt;backend -->
<g id="edge4" class="edge">
<title>nodeA&#45;&gt;backend</title>
<path fill="none" stroke="#758297" d="M299.33,-184C366.53,-184 478.25,-184 478.25,-184 478.25,-184 478.25,-130.93 478.25,-130.93"/>
<polygon fill="#758297" stroke="#758297" points="481.75,-130.93 478.25,-120.93 474.75,-130.93 481.75,-130.93"/>
<text xml:space="preserve" text-anchor="middle" x="358.25" y="-176.5" font-family="Comic Mono" font-size="10.00">contention</text>
</g>
<!-- nodeB&#45;&gt;backend -->
<g id="edge5" class="edge">
<title>nodeB&#45;&gt;backend</title>
<path fill="none" stroke="#758297" d="M299.28,-101C299.28,-101 405.68,-101 405.68,-101"/>
<polygon fill="#758297" stroke="#758297" points="405.68,-104.5 415.68,-101 405.68,-97.5 405.68,-104.5"/>
<text xml:space="preserve" text-anchor="middle" x="358.25" y="-103.5" font-family="Comic Mono" font-size="10.00">contention</text>
</g>
<!-- nodeC&#45;&gt;backend -->
<g id="edge6" class="edge">
<title>nodeC&#45;&gt;backend</title>
<path fill="none" stroke="#758297" d="M299.33,-18C366.53,-18 478.25,-18 478.25,-18 478.25,-18 478.25,-71.07 478.25,-71.07"/>
<polygon fill="#758297" stroke="#758297" points="474.75,-71.07 478.25,-81.07 481.75,-71.07 474.75,-71.07"/>
<text xml:space="preserve" text-anchor="middle" x="358.25" y="-30.5" font-family="Comic Mono" font-size="10.00">contention</text>
</g>
<!-- recovery -->
<g id="node6" class="node">
<title>recovery</title>
<path fill="#f8fafc" stroke="#94a3b8" d="M780.25,-202C780.25,-202 653.25,-202 653.25,-202 647.25,-202 641.25,-196 641.25,-190 641.25,-190 641.25,-178 641.25,-178 641.25,-172 647.25,-166 653.25,-166 653.25,-166 780.25,-166 780.25,-166 786.25,-166 792.25,-172 792.25,-178 792.25,-178 792.25,-190 792.25,-190 792.25,-196 786.25,-202 780.25,-202"/>
<text xml:space="preserve" text-anchor="middle" x="716.75" y="-178.57" font-family="Comic Mono" font-size="14.00">RenewTime Takeover</text>
</g>
<!-- backend&#45;&gt;recovery -->
<g id="edge9" class="edge">
<title>backend&#45;&gt;recovery</title>
<path fill="none" stroke="#758297" d="M538.63,-110C587.19,-110 647.25,-110 647.25,-110 647.25,-110 647.25,-154.19 647.25,-154.19"/>
<polygon fill="#758297" stroke="#758297" points="643.75,-154.19 647.25,-164.19 650.75,-154.19 643.75,-154.19"/>
<text xml:space="preserve" text-anchor="middle" x="589.88" y="-186.5" font-family="Comic Mono" font-size="10.00">release</text>
</g>
<!-- skipped -->
<g id="node7" class="node">
<title>skipped</title>
<path fill="#f8fafc" stroke="#94a3b8" d="M750.25,-119C750.25,-119 683.25,-119 683.25,-119 677.25,-119 671.25,-113 671.25,-107 671.25,-107 671.25,-95 671.25,-95 671.25,-89 677.25,-83 683.25,-83 683.25,-83 750.25,-83 750.25,-83 756.25,-83 762.25,-89 762.25,-95 762.25,-95 762.25,-107 762.25,-107 762.25,-113 756.25,-119 750.25,-119"/>
<text xml:space="preserve" text-anchor="middle" x="716.75" y="-95.58" font-family="Comic Mono" font-size="14.00">Peers Skip</text>
</g>
<!-- backend&#45;&gt;skipped -->
<g id="edge8" class="edge">
<title>backend&#45;&gt;skipped</title>
<path fill="none" stroke="#758297" d="M538.86,-101C538.86,-101 659.56,-101 659.56,-101"/>
<polygon fill="#758297" stroke="#758297" points="659.56,-104.5 669.56,-101 659.56,-97.5 659.56,-104.5"/>
<text xml:space="preserve" text-anchor="middle" x="589.88" y="-103.5" font-family="Comic Mono" font-size="10.00">skip</text>
</g>
<!-- leader -->
<g id="node8" class="node">
<title>leader</title>
<path fill="#f8fafc" stroke="#94a3b8" d="M769,-36C769,-36 664.5,-36 664.5,-36 658.5,-36 652.5,-30 652.5,-24 652.5,-24 652.5,-12 652.5,-12 652.5,-6 658.5,0 664.5,0 664.5,0 769,0 769,0 775,0 781,-6 781,-12 781,-12 781,-24 781,-24 781,-30 775,-36 769,-36"/>
<text xml:space="preserve" text-anchor="middle" x="716.75" y="-12.57" font-family="Comic Mono" font-size="14.00">One Leader Runs</text>
</g>
<!-- backend&#45;&gt;leader -->
<g id="edge7" class="edge">
<title>backend&#45;&gt;leader</title>
<path fill="none" stroke="#758297" d="M538.84,-92C592.51,-92 662.25,-92 662.25,-92 662.25,-92 662.25,-47.81 662.25,-47.81"/>
<polygon fill="#758297" stroke="#758297" points="665.75,-47.81 662.25,-37.81 658.75,-47.81 665.75,-47.81"/>
<text xml:space="preserve" text-anchor="middle" x="589.88" y="-20.5" font-family="Comic Mono" font-size="10.00">success</text>
</g>
</g>
</svg>
