<svg xmlns="http://www.w3.org/2000/svg" width="1580" height="930" viewBox="0 0 1580 930" role="img" aria-label="Virtual Thread Runner Scenario">
  <metadata id="graphviz-evidence">Regenerated with Graphviz evidence: examples-virtual-thread-runner-scenario-01.dot, examples-virtual-thread-runner-scenario-01.plain, examples-virtual-thread-runner-scenario-01-graphviz.svg via scripts/regenerate-readme-diagram-graphviz-evidence.mjs.</metadata>
<defs>
  <filter id="shadow" x="-8%" y="-8%" width="116%" height="116%">
    <feDropShadow dx="0" dy="7" stdDeviation="8" flood-color="#1f2937" flood-opacity="0.10"/>
  </filter>
  <marker id="arrow-neutral" markerWidth="8" markerHeight="8" refX="7" refY="4" orient="auto" markerUnits="strokeWidth">
    <path d="M 1 1 L 7 4 L 1 7 Z" fill="#758297"/>
  </marker>
  <marker id="arrow-leader" markerWidth="8" markerHeight="8" refX="7" refY="4" orient="auto" markerUnits="strokeWidth">
    <path d="M 1 1 L 7 4 L 1 7 Z" fill="#43A76B"/>
  </marker>
  <marker id="arrow-skipped" markerWidth="8" markerHeight="8" refX="7" refY="4" orient="auto" markerUnits="strokeWidth">
    <path d="M 1 1 L 7 4 L 1 7 Z" fill="#EF5B7A"/>
  </marker>
  <marker id="arrow-contention" markerWidth="8" markerHeight="8" refX="7" refY="4" orient="auto" markerUnits="strokeWidth">
    <path d="M 1 1 L 7 4 L 1 7 Z" fill="#D99A2B"/>
  </marker>
  <marker id="arrow-reacquire" markerWidth="8" markerHeight="8" refX="7" refY="4" orient="auto" markerUnits="strokeWidth">
    <path d="M 1 1 L 7 4 L 1 7 Z" fill="#8B6EEB"/>
  </marker>
  <style>
    .canvas{fill:#f7f9fc}
    .frame{fill:#fff;stroke:#d8e0ea;stroke-width:1.5}
    .layer{stroke:#dbe4ef;stroke-width:1.2}
    .title{font-family:"Architects Daughter","Comic Mono",cursive;font-size:42px;font-weight:400;fill:#102033}
    .subtitle{font-family:"Comic Mono",monospace;font-size:15px;font-weight:400;fill:#536273}
    .label{font-family:"Architects Daughter","Comic Mono",cursive;font-size:21px;font-weight:400;fill:#102033}
    .detail{font-family:"Comic Mono",monospace;font-size:12px;font-weight:400;fill:#334155}
    .legendText{font-family:"Comic Mono",monospace;font-size:11px;font-weight:400;fill:#475569}
    .strong{font-family:"Comic Mono",monospace;font-size:13px;font-weight:400;fill:#102033}
    .card{stroke-width:2;filter:url(#shadow)}
    .line{stroke-width:2.2;fill:none;stroke-linecap:round;stroke-linejoin:round}
    .dashed{stroke-width:2.2;stroke-dasharray:7 6;fill:none;stroke-linecap:round;stroke-linejoin:round}
    .lifeline{stroke:#b7c2d1;stroke-width:2;stroke-dasharray:10 10}
  </style>
</defs>
<rect class="canvas" width="1580" height="930"/>
<rect class="frame" x="32" y="28" width="1516" height="874" rx="28"/>
<text class="title" x="66" y="82">Virtual Thread Runner Scenario</text>
<text class="subtitle" x="70" y="118">One node runs blocking work on a virtual thread while contenders skip</text>
<g aria-label="semantic route legend">
  <line x1="960" y1="116" x2="988" y2="116" stroke="#43A76B" stroke-width="3" stroke-linecap="round"/>
  <text class="legendText" x="996" y="120">leader/success</text>
  <line x1="1098" y1="116" x2="1126" y2="116" stroke="#EF5B7A" stroke-width="3" stroke-linecap="round"/>
  <text class="legendText" x="1134" y="120">skip/failure</text>
  <line x1="1236" y1="116" x2="1264" y2="116" stroke="#D99A2B" stroke-width="3" stroke-linecap="round"/>
  <text class="legendText" x="1272" y="120">contention/release</text>
  <line x1="1374" y1="116" x2="1402" y2="116" stroke="#8B6EEB" stroke-width="3" stroke-linecap="round"/>
  <text class="legendText" x="1410" y="120">retry/next</text>
</g>
<g>
  <rect class="layer" x="54" y="160" width="1472" height="150" rx="18" fill="#F8FAFC"/>
  <text class="label" x="78" y="194">Trigger and contenders</text>
</g>
<g>
  <rect class="layer" x="54" y="340" width="1472" height="130" rx="18" fill="#FFFFFF"/>
  <text class="label" x="78" y="374">Election boundary</text>
</g>
<g>
  <rect class="layer" x="54" y="500" width="1472" height="150" rx="18" fill="#F8FAFC"/>
  <text class="label" x="78" y="534">Outcome paths</text>
</g>
<g>
  <rect class="layer" x="54" y="700" width="1472" height="150" rx="18" fill="#FFFFFF"/>
  <text class="label" x="78" y="734">Result and next run</text>
</g>
<path class="line" d="M540 241 L590 241 L590 241 L640 241" data-route-tone="neutral" style="stroke:#758297;marker-end:url(#arrow-neutral)"/>
<path class="line" d="M790 287 L790 323 L790 323 L790 359" data-route-tone="leader" style="stroke:#43A76B;marker-end:url(#arrow-leader)"/>
<path class="line" d="M1190 287 L1190 323 L860 323 L860 359" data-route-tone="contention" style="stroke:#D99A2B;marker-end:url(#arrow-contention)"/>
<path class="line" d="M790 451 L790 492 L555 492 L555 535" data-route-tone="leader" style="stroke:#43A76B;marker-end:url(#arrow-leader)"/>
<path class="line" d="M790 451 L790 492 L1055 492 L1055 535" data-route-tone="skipped" style="stroke:#EF5B7A;marker-end:url(#arrow-skipped)"/>
<path class="line" d="M555 627 L555 681 L555 681 L555 735" data-route-tone="leader" style="stroke:#43A76B;marker-end:url(#arrow-leader)"/>
<path class="line" d="M1055 627 L1055 681 L1055 681 L1055 735" data-route-tone="skipped" style="stroke:#EF5B7A;marker-end:url(#arrow-skipped)"/>
<path class="line" d="M720 781 L805 781 L805 825 L890 825" data-route-tone="reacquire" style="stroke:#8B6EEB;marker-end:url(#arrow-reacquire)"/>
<g id="trigger">
  <rect class="card" x="240" y="195" width="300" height="92" rx="14" fill="#E8F3FF" stroke="#5B8DEF"/>
<text class="label" x="390" y="226" text-anchor="middle" dominant-baseline="middle">runRound()</text>
<text class="detail" x="390" y="245" text-anchor="middle" dominant-baseline="middle">node list</text>
<text class="detail" x="390" y="264" text-anchor="middle" dominant-baseline="middle">local lock</text>
</g>
<g id="nodeA">
  <rect class="card" x="640" y="195" width="300" height="92" rx="14" fill="#EAF7EF" stroke="#58A978"/>
<text class="label" x="790" y="226" text-anchor="middle" dominant-baseline="middle">Node A elected</text>
<text class="detail" x="790" y="245" text-anchor="middle" dominant-baseline="middle">First holder?</text>
<text class="detail" x="790" y="264" text-anchor="middle" dominant-baseline="middle">Virtual thread body</text>
</g>
<g id="nodeB">
  <rect class="card" x="1040" y="195" width="300" height="92" rx="14" fill="#FDECEF" stroke="#DC6B82"/>
<text class="label" x="1190" y="226" text-anchor="middle" dominant-baseline="middle">Node B contender</text>
<text class="detail" x="1190" y="245" text-anchor="middle" dominant-baseline="middle">First holder?</text>
<text class="detail" x="1190" y="264" text-anchor="middle" dominant-baseline="middle">Contenders</text>
</g>
<g id="elector">
  <rect class="card" x="640" y="359" width="300" height="92" rx="14" fill="#F1ECFF" stroke="#8A72D6"/>
<text class="label" x="790" y="390" text-anchor="middle" dominant-baseline="middle">runAsyncIfLeader</text>
<text class="detail" x="790" y="409" text-anchor="middle" dominant-baseline="middle">virtual elector</text>
<text class="detail" x="790" y="428" text-anchor="middle" dominant-baseline="middle">leader latch</text>
</g>
<g id="leader">
  <rect class="card" x="390" y="535" width="330" height="92" rx="14" fill="#EAF7EF" stroke="#58A978"/>
<text class="label" x="555" y="566" text-anchor="middle" dominant-baseline="middle">Virtual thread body</text>
<text class="detail" x="555" y="585" text-anchor="middle" dominant-baseline="middle">blocking work</text>
<text class="detail" x="555" y="604" text-anchor="middle" dominant-baseline="middle">bounded wait</text>
</g>
<g id="skip">
  <rect class="card" x="890" y="535" width="330" height="92" rx="14" fill="#FDECEF" stroke="#DC6B82"/>
<text class="label" x="1055" y="566" text-anchor="middle" dominant-baseline="middle">Contenders</text>
<text class="detail" x="1055" y="585" text-anchor="middle" dominant-baseline="middle">skipped reports</text>
<text class="detail" x="1055" y="604" text-anchor="middle" dominant-baseline="middle">no blocking</text>
</g>
<g id="result">
  <rect class="card" x="390" y="735" width="330" height="92" rx="14" fill="#E9F7F6" stroke="#45A7A1"/>
<text class="label" x="555" y="766" text-anchor="middle" dominant-baseline="middle">Release latch</text>
<text class="detail" x="555" y="785" text-anchor="middle" dominant-baseline="middle">leader completes</text>
<text class="detail" x="555" y="804" text-anchor="middle" dominant-baseline="middle">report thread name</text>
</g>
<g id="next">
  <rect class="card" x="890" y="735" width="330" height="92" rx="14" fill="#F7F1E7" stroke="#B88A44"/>
<text class="label" x="1055" y="766" text-anchor="middle" dominant-baseline="middle">Round report</text>
<text class="detail" x="1055" y="785" text-anchor="middle" dominant-baseline="middle">electedCount=1</text>
<text class="detail" x="1055" y="804" text-anchor="middle" dominant-baseline="middle">skippedCount=N-1</text>
</g>
</svg>
