<svg xmlns="http://www.w3.org/2000/svg" width="1660" height="1836" viewBox="0 0 1660 1836" role="img" aria-label="tenant aggregator Sequence Flow">
<defs>
  <filter id="shadow" x="-8%" y="-8%" width="116%" height="116%"><feDropShadow dx="0" dy="8" stdDeviation="9" flood-color="#1f2937" flood-opacity="0.10"/></filter>
  <marker id="openArrow" markerWidth="12" markerHeight="10" refX="10" refY="5" orient="auto" markerUnits="strokeWidth"><path d="M 1 1 L 10 5 L 1 9" fill="none" stroke="#758297" stroke-width="1.8" stroke-linecap="round" stroke-linejoin="round"/></marker>
  <marker id="inherit" markerWidth="14" markerHeight="12" refX="12" refY="6" orient="auto" markerUnits="strokeWidth"><path d="M 0 1 L 12 6 L 0 11 Z" fill="#ffffff" stroke="#758297" stroke-width="1.8"/></marker>
  <style>
    .canvas{fill:#f7f9fc}.frame{fill:#fff;stroke:#d8e0ea;stroke-width:1.5}
    .title{font-family:"Architects Daughter","Comic Sans MS","Comic Sans",cursive;font-size:43px;font-weight:400;fill:#102033}
    .subtitle{font-family:"Comic Sans MS","Comic Sans","Comic Neue",Arial,sans-serif;font-size:15px;font-weight:400;fill:#536273}
    .label{font-family:"Architects Daughter","Comic Sans MS","Comic Sans",cursive;font-size:25px;font-weight:400;fill:#102033}
    .smallLabel{font-family:"Architects Daughter","Comic Sans MS","Comic Sans",cursive;font-size:21px;font-weight:400;fill:#102033}
    .mono{font-family:"Comic Sans MS","Comic Sans","Comic Neue",Arial,sans-serif;font-size:12px;font-weight:400;fill:#102033}
    .small{font-family:"Comic Sans MS","Comic Sans","Comic Neue",Arial,sans-serif;font-size:12px;font-weight:400;fill:#536273}
    .strong{font-family:"Comic Sans MS","Comic Sans","Comic Neue",Arial,sans-serif;font-size:13px;font-weight:400;fill:#102033}
    .card{stroke-width:2.1;filter:url(#shadow)}.compartment{stroke-width:1.5;fill:none}
    .line{stroke:#758297;stroke-width:2.1;fill:none;marker-end:url(#openArrow)}
    .plainLine{stroke:#758297;stroke-width:2.1;fill:none}
    .dashed{stroke:#758297;stroke-width:2.1;stroke-dasharray:7 6;fill:none;marker-end:url(#openArrow)}
    .inheritLine{stroke:#758297;stroke-width:2.2;fill:none;marker-end:url(#inherit)}
    .implLine{stroke:#758297;stroke-width:2.2;stroke-dasharray:8 7;fill:none;marker-end:url(#inherit)}
  </style>
</defs>
<rect class="canvas" width="1660" height="1836"/>
<rect class="frame" x="32" y="28" width="1596" height="1780" rx="28"/>
<text class="title" x="66" y="82">tenant aggregator Sequence Flow</text>
<text class="subtitle" x="70" y="118">Sequence messages from the original Mermaid source</text>
<rect class="card" x="35" y="166" width="210" height="72" rx="20" fill="#E8F3FF" stroke="#5B8DEF"/>
<text class="smallLabel" x="140" y="197" text-anchor="middle">node-1</text>
<line x1="140" y1="252" x2="140" y2="1776" stroke="#b7c2d1" stroke-width="2" stroke-dasharray="10 10"/>
<rect class="card" x="311" y="166" width="210" height="72" rx="20" fill="#EAF7EF" stroke="#58A978"/>
<text class="smallLabel" x="416" y="197" text-anchor="middle">node-2</text>
<line x1="416" y1="252" x2="416" y2="1776" stroke="#b7c2d1" stroke-width="2" stroke-dasharray="10 10"/>
<rect class="card" x="587" y="166" width="210" height="72" rx="20" fill="#FFF3D9" stroke="#D6A441"/>
<text class="smallLabel" x="692" y="197" text-anchor="middle">node-3</text>
<line x1="692" y1="252" x2="692" y2="1776" stroke="#b7c2d1" stroke-width="2" stroke-dasharray="10 10"/>
<rect class="card" x="863" y="166" width="210" height="72" rx="20" fill="#FDECEF" stroke="#DC6B82"/>
<text class="smallLabel" x="968" y="197" text-anchor="middle">lock(tenant-A)</text>
<line x1="968" y1="252" x2="968" y2="1776" stroke="#b7c2d1" stroke-width="2" stroke-dasharray="10 10"/>
<rect class="card" x="1139" y="166" width="210" height="72" rx="20" fill="#E9F7F6" stroke="#45A7A1"/>
<text class="smallLabel" x="1244" y="197" text-anchor="middle">lock(tenant-B)</text>
<line x1="1244" y1="252" x2="1244" y2="1776" stroke="#b7c2d1" stroke-width="2" stroke-dasharray="10 10"/>
<rect class="card" x="1415" y="166" width="210" height="72" rx="20" fill="#F1ECFF" stroke="#8A72D6"/>
<text class="smallLabel" x="1520" y="197" text-anchor="middle">lock(tenant-C)</text>
<line x1="1520" y1="252" x2="1520" y2="1776" stroke="#b7c2d1" stroke-width="2" stroke-dasharray="10 10"/>
<rect x="158" y="270" width="792" height="39" rx="12" fill="#ffffff" opacity="0.97"/>
<text class="strong" x="174" y="297" text-anchor="start">1. runIfLeader</text>
<path class="line" d="M140 310 L968 310"/>
<rect x="434" y="352" width="516" height="39" rx="12" fill="#ffffff" opacity="0.97"/>
<text class="strong" x="450" y="379" text-anchor="start">2. runIfLeader</text>
<path class="line" d="M416 392 L968 392"/>
<rect x="710" y="434" width="240" height="39" rx="12" fill="#ffffff" opacity="0.97"/>
<text class="strong" x="726" y="461" text-anchor="start">3. runIfLeader</text>
<path class="line" d="M692 474 L968 474"/>
<rect x="158" y="516" width="792" height="39" rx="12" fill="#ffffff" opacity="0.97"/>
<text class="strong" x="174" y="543" text-anchor="start">4. granted -&gt; aggregate(tenant-A)</text>
<path class="dashed" d="M968 556 L140 556"/>
<rect x="434" y="598" width="516" height="39" rx="12" fill="#ffffff" opacity="0.97"/>
<text class="strong" x="450" y="625" text-anchor="start">5. null</text>
<path class="dashed" d="M968 638 L416 638"/>
<rect x="710" y="680" width="240" height="39" rx="12" fill="#ffffff" opacity="0.97"/>
<text class="strong" x="726" y="707" text-anchor="start">6. null</text>
<path class="dashed" d="M968 720 L692 720"/>
<rect x="158" y="762" width="1068" height="39" rx="12" fill="#ffffff" opacity="0.97"/>
<text class="strong" x="174" y="789" text-anchor="start">7. runIfLeader</text>
<path class="line" d="M140 802 L1244 802"/>
<rect x="434" y="844" width="792" height="39" rx="12" fill="#ffffff" opacity="0.97"/>
<text class="strong" x="450" y="871" text-anchor="start">8. runIfLeader</text>
<path class="line" d="M416 884 L1244 884"/>
<rect x="710" y="926" width="516" height="39" rx="12" fill="#ffffff" opacity="0.97"/>
<text class="strong" x="726" y="953" text-anchor="start">9. runIfLeader</text>
<path class="line" d="M692 966 L1244 966"/>
<rect x="434" y="1008" width="792" height="39" rx="12" fill="#ffffff" opacity="0.97"/>
<text class="strong" x="450" y="1035" text-anchor="start">10. granted -&gt; aggregate(tenant-B)</text>
<path class="dashed" d="M1244 1048 L416 1048"/>
<rect x="158" y="1090" width="1068" height="39" rx="12" fill="#ffffff" opacity="0.97"/>
<text class="strong" x="174" y="1117" text-anchor="start">11. null</text>
<path class="dashed" d="M1244 1130 L140 1130"/>
<rect x="710" y="1172" width="516" height="39" rx="12" fill="#ffffff" opacity="0.97"/>
<text class="strong" x="726" y="1199" text-anchor="start">12. null</text>
<path class="dashed" d="M1244 1212 L692 1212"/>
<rect x="158" y="1254" width="1344" height="39" rx="12" fill="#ffffff" opacity="0.97"/>
<text class="strong" x="174" y="1281" text-anchor="start">13. runIfLeader</text>
<path class="line" d="M140 1294 L1520 1294"/>
<rect x="434" y="1336" width="1068" height="39" rx="12" fill="#ffffff" opacity="0.97"/>
<text class="strong" x="450" y="1363" text-anchor="start">14. runIfLeader</text>
<path class="line" d="M416 1376 L1520 1376"/>
<rect x="710" y="1418" width="792" height="39" rx="12" fill="#ffffff" opacity="0.97"/>
<text class="strong" x="726" y="1445" text-anchor="start">15. runIfLeader</text>
<path class="line" d="M692 1458 L1520 1458"/>
<rect x="710" y="1500" width="792" height="39" rx="12" fill="#ffffff" opacity="0.97"/>
<text class="strong" x="726" y="1527" text-anchor="start">16. granted -&gt; aggregate(tenant-C)</text>
<path class="dashed" d="M1520 1540 L692 1540"/>
<rect x="158" y="1582" width="1344" height="39" rx="12" fill="#ffffff" opacity="0.97"/>
<text class="strong" x="174" y="1609" text-anchor="start">17. null</text>
<path class="dashed" d="M1520 1622 L140 1622"/>
<rect x="434" y="1664" width="1068" height="39" rx="12" fill="#ffffff" opacity="0.97"/>
<text class="strong" x="450" y="1691" text-anchor="start">18. null</text>
<path class="dashed" d="M1520 1704 L416 1704"/>
</svg>
