<?xml version="1.0" encoding="UTF-8" standalone="no"?>
<!DOCTYPE svg PUBLIC "-//W3C//DTD SVG 1.1//EN"
 "http://www.w3.org/Graphics/SVG/1.1/DTD/svg11.dtd">
<!-- Generated by graphviz version 15.0.0 (20260523.1842)
 -->
<!-- Title: examples&#45;dynamodb&#45;export&#45;architecture&#45;01 Pages: 1 -->
<svg width="1458pt" height="136pt"
 viewBox="0.00 0.00 1458.00 136.00" xmlns="http://www.w3.org/2000/svg" xmlns:xlink="http://www.w3.org/1999/xlink">
<g id="graph0" class="graph" transform="scale(1 1) rotate(0) translate(4 132)">
<title>examples&#45;dynamodb&#45;export&#45;architecture&#45;01</title>
<!-- trigger -->
<g id="node1" class="node">
<title>trigger</title>
<path fill="#f8fafc" stroke="#94a3b8" d="M109,-77C109,-77 12,-77 12,-77 6,-77 0,-71 0,-65 0,-65 0,-53 0,-53 0,-47 6,-41 12,-41 12,-41 109,-41 109,-41 115,-41 121,-47 121,-53 121,-53 121,-65 121,-65 121,-71 115,-77 109,-77"/>
<text xml:space="preserve" text-anchor="middle" x="60.5" y="-53.58" font-family="Comic Mono" font-size="14.00">Export Request</text>
</g>
<!-- nodeA -->
<g id="node2" class="node">
<title>nodeA</title>
<path fill="#f8fafc" stroke="#94a3b8" d="M332,-119C332,-119 220,-119 220,-119 214,-119 208,-113 208,-107 208,-107 208,-95 208,-95 208,-89 214,-83 220,-83 220,-83 332,-83 332,-83 338,-83 344,-89 344,-95 344,-95 344,-107 344,-107 344,-113 338,-119 332,-119"/>
<text xml:space="preserve" text-anchor="middle" x="276" y="-95.58" font-family="Comic Mono" font-size="14.00">Candidate Node A</text>
</g>
<!-- trigger&#45;&gt;nodeA -->
<g id="edge1" class="edge">
<title>trigger&#45;&gt;nodeA</title>
<path fill="none" stroke="#758297" d="M60.75,-77.06C60.75,-88.44 60.75,-101 60.75,-101 60.75,-101 196.08,-101 196.08,-101"/>
<polygon fill="#758297" stroke="#758297" points="196.08,-104.5 206.08,-101 196.08,-97.5 196.08,-104.5"/>
<text xml:space="preserve" text-anchor="middle" x="164.5" y="-98.5" font-family="Comic Mono" font-size="10.00">call</text>
</g>
<!-- nodeB -->
<g id="node3" class="node">
<title>nodeB</title>
<path fill="#f8fafc" stroke="#94a3b8" d="M332,-36C332,-36 220,-36 220,-36 214,-36 208,-30 208,-24 208,-24 208,-12 208,-12 208,-6 214,0 220,0 220,0 332,0 332,0 338,0 344,-6 344,-12 344,-12 344,-24 344,-24 344,-30 338,-36 332,-36"/>
<text xml:space="preserve" text-anchor="middle" x="276" y="-12.57" font-family="Comic Mono" font-size="14.00">Candidate Node B</text>
</g>
<!-- trigger&#45;&gt;nodeB -->
<g id="edge2" class="edge">
<title>trigger&#45;&gt;nodeB</title>
<path fill="none" stroke="#758297" d="M60.75,-40.9C60.75,-29.91 60.75,-18 60.75,-18 60.75,-18 196.08,-18 196.08,-18"/>
<polygon fill="#758297" stroke="#758297" points="196.08,-21.5 206.08,-18 196.08,-14.5 196.08,-21.5"/>
<text xml:space="preserve" text-anchor="middle" x="164.5" y="-29.5" font-family="Comic Mono" font-size="10.00">call</text>
</g>
<!-- coordinator -->
<g id="node4" class="node">
<title>coordinator</title>
<path fill="#f8fafc" stroke="#94a3b8" d="M622.5,-77C622.5,-77 443,-77 443,-77 437,-77 431,-71 431,-65 431,-65 431,-53 431,-53 431,-47 437,-41 443,-41 443,-41 622.5,-41 622.5,-41 628.5,-41 634.5,-47 634.5,-53 634.5,-53 634.5,-65 634.5,-65 634.5,-71 628.5,-77 622.5,-77"/>
<text xml:space="preserve" text-anchor="middle" x="532.75" y="-53.58" font-family="Comic Mono" font-size="14.00">DynamoDbExportCoordinator</text>
</g>
<!-- nodeA&#45;&gt;coordinator -->
<g id="edge3" class="edge">
<title>nodeA&#45;&gt;coordinator</title>
<path fill="none" stroke="#758297" d="M253.75,-82.58C253.75,-73.72 253.75,-65 253.75,-65 253.75,-65 419.33,-65 419.33,-65"/>
<polygon fill="#758297" stroke="#758297" points="419.33,-68.5 429.33,-65 419.33,-61.5 419.33,-68.5"/>
<text xml:space="preserve" text-anchor="middle" x="387.5" y="-98.5" font-family="Comic Mono" font-size="10.00">call</text>
</g>
<!-- nodeB&#45;&gt;coordinator -->
<g id="edge4" class="edge">
<title>nodeB&#45;&gt;coordinator</title>
<path fill="none" stroke="#758297" d="M298.75,-36.32C298.75,-44.79 298.75,-53 298.75,-53 298.75,-53 419.28,-53 419.28,-53"/>
<polygon fill="#758297" stroke="#758297" points="419.28,-56.5 429.28,-53 419.28,-49.5 419.28,-56.5"/>
<text xml:space="preserve" text-anchor="middle" x="387.5" y="-29.5" font-family="Comic Mono" font-size="10.00">call</text>
</g>
<!-- elector -->
<g id="node6" class="node">
<title>elector</title>
<path fill="#f8fafc" stroke="#94a3b8" d="M929.5,-128C929.5,-128 765,-128 765,-128 759,-128 753,-122 753,-116 753,-116 753,-104 753,-104 753,-98 759,-92 765,-92 765,-92 929.5,-92 929.5,-92 935.5,-92 941.5,-98 941.5,-104 941.5,-104 941.5,-116 941.5,-116 941.5,-122 935.5,-128 929.5,-128"/>
<text xml:space="preserve" text-anchor="middle" x="847.25" y="-104.58" font-family="Comic Mono" font-size="14.00">DynamoDB leader elector</text>
</g>
<!-- coordinator&#45;&gt;elector -->
<g id="edge5" class="edge">
<title>coordinator&#45;&gt;elector</title>
<path fill="none" stroke="#758297" d="M634.96,-66.33C700.64,-66.33 773.75,-66.33 773.75,-66.33 773.75,-66.33 773.75,-80.22 773.75,-80.22"/>
<polygon fill="#758297" stroke="#758297" points="770.25,-80.22 773.75,-90.22 777.25,-80.22 770.25,-80.22"/>
<text xml:space="preserve" text-anchor="middle" x="693.75" y="-102.5" font-family="Comic Mono" font-size="10.00">dependency</text>
</g>
<!-- work -->
<g id="node8" class="node">
<title>work</title>
<path fill="#f8fafc" stroke="#94a3b8" d="M888.25,-45C888.25,-45 806.25,-45 806.25,-45 800.25,-45 794.25,-39 794.25,-33 794.25,-33 794.25,-21 794.25,-21 794.25,-15 800.25,-9 806.25,-9 806.25,-9 888.25,-9 888.25,-9 894.25,-9 900.25,-15 900.25,-21 900.25,-21 900.25,-33 900.25,-33 900.25,-39 894.25,-45 888.25,-45"/>
<text xml:space="preserve" text-anchor="middle" x="847.25" y="-21.57" font-family="Comic Mono" font-size="14.00">Export Batch</text>
</g>
<!-- coordinator&#45;&gt;work -->
<g id="edge7" class="edge">
<title>coordinator&#45;&gt;work</title>
<path fill="none" stroke="#758297" d="M634.7,-55.67C726.38,-55.67 846.75,-55.67 846.75,-55.67 846.75,-55.67 846.75,-54.63 846.75,-54.63"/>
<polygon fill="#758297" stroke="#758297" points="850.25,-56.83 846.75,-46.83 843.25,-56.83 850.25,-56.83"/>
<text xml:space="preserve" text-anchor="middle" x="693.75" y="-29.5" font-family="Comic Mono" font-size="10.00">success</text>
</g>
<!-- backend -->
<g id="node5" class="node">
<title>backend</title>
<path fill="#f8fafc" stroke="#94a3b8" d="M1169,-128C1169,-128 1072,-128 1072,-128 1066,-128 1060,-122 1060,-116 1060,-116 1060,-104 1060,-104 1060,-98 1066,-92 1072,-92 1072,-92 1169,-92 1169,-92 1175,-92 1181,-98 1181,-104 1181,-104 1181,-116 1181,-116 1181,-122 1175,-128 1169,-128"/>
<text xml:space="preserve" text-anchor="middle" x="1120.5" y="-104.58" font-family="Comic Mono" font-size="14.00">lock table row</text>
</g>
<!-- recovery -->
<g id="node7" class="node">
<title>recovery</title>
<path fill="#f8fafc" stroke="#94a3b8" d="M1437.75,-128C1437.75,-128 1295.75,-128 1295.75,-128 1289.75,-128 1283.75,-122 1283.75,-116 1283.75,-116 1283.75,-104 1283.75,-104 1283.75,-98 1289.75,-92 1295.75,-92 1295.75,-92 1437.75,-92 1437.75,-92 1443.75,-92 1449.75,-98 1449.75,-104 1449.75,-104 1449.75,-116 1449.75,-116 1449.75,-122 1443.75,-128 1437.75,-128"/>
<text xml:space="preserve" text-anchor="middle" x="1366.75" y="-104.58" font-family="Comic Mono" font-size="14.00">Logical Lease Expiry</text>
</g>
<!-- backend&#45;&gt;recovery -->
<g id="edge8" class="edge">
<title>backend&#45;&gt;recovery</title>
<path fill="none" stroke="#758297" d="M1181.37,-110C1181.37,-110 1271.85,-110 1271.85,-110"/>
<polygon fill="#758297" stroke="#758297" points="1271.85,-113.5 1281.85,-110 1271.85,-106.5 1271.85,-113.5"/>
<text xml:space="preserve" text-anchor="middle" x="1232.38" y="-112.5" font-family="Comic Mono" font-size="10.00">release</text>
</g>
<!-- elector&#45;&gt;backend -->
<g id="edge6" class="edge">
<title>elector&#45;&gt;backend</title>
<path fill="none" stroke="#758297" d="M941.67,-110C941.67,-110 1048.37,-110 1048.37,-110"/>
<polygon fill="#758297" stroke="#758297" points="1048.37,-113.5 1058.37,-110 1048.37,-106.5 1048.37,-113.5"/>
<text xml:space="preserve" text-anchor="middle" x="1000.75" y="-112.5" font-family="Comic Mono" font-size="10.00">contention</text>
</g>
</g>
</svg>
