<svg xmlns="http://www.w3.org/2000/svg" width="1360" height="610" viewBox="0 0 1360 610" role="img" aria-label="Etcd Reconciler Architecture">
  <metadata id="graphviz-evidence">Regenerated with Graphviz evidence: examples-etcd-reconciler-architecture-01.dot, examples-etcd-reconciler-architecture-01.plain, examples-etcd-reconciler-architecture-01-graphviz.svg via scripts/regenerate-readme-diagram-graphviz-evidence.mjs.</metadata>
<defs>
  <filter id="shadow" x="-8%" y="-8%" width="116%" height="116%"><feDropShadow dx="0" dy="8" stdDeviation="9" flood-color="#1f2937" flood-opacity="0.10"/></filter>
  <marker id="openArrow" markerWidth="12" markerHeight="10" refX="10" refY="5" orient="auto" markerUnits="strokeWidth"><path d="M 1 1 L 10 5 L 1 9" fill="none" stroke="#758297" stroke-width="1.8" stroke-linecap="round" stroke-linejoin="round"/></marker>
  <style>
    .canvas{fill:#f7f9fc}.frame{fill:#fff;stroke:#d8e0ea;stroke-width:1.5}
    .title{font-family:"Architects Daughter","Comic Mono","Comic Sans MS","Comic Sans",cursive;font-size:43px;font-weight:400;fill:#102033}
    .subtitle{font-family:"Comic Mono","Comic Sans MS","Comic Sans","Comic Neue",Arial,sans-serif;font-size:15px;font-weight:400;fill:#536273}
    .smallLabel{font-family:"Architects Daughter","Comic Mono","Comic Sans MS","Comic Sans",cursive;font-size:21px;font-weight:400;fill:#102033}
    .mono{font-family:"Comic Mono","Comic Sans MS","Comic Sans","Comic Neue",Arial,sans-serif;font-size:12px;font-weight:400;fill:#102033}
    .strong{font-family:"Comic Mono","Comic Sans MS","Comic Sans","Comic Neue",Arial,sans-serif;font-size:13px;font-weight:400;fill:#102033}
    .card{stroke-width:2.1;filter:url(#shadow)}
    .line{stroke:#758297;stroke-width:2.1;fill:none;marker-end:url(#openArrow)}
    .dashed{stroke:#758297;stroke-width:2.1;stroke-dasharray:7 6;fill:none;marker-end:url(#openArrow)}
    .lifeline{stroke:#b7c2d1;stroke-width:2;stroke-dasharray:10 10}
  </style>
</defs>
<rect class="canvas" width="1360" height="610"/>
<rect class="frame" x="32" y="28" width="1296" height="554" rx="28"/>
<text class="title" x="66" y="82">Etcd Reconciler Architecture</text>
<text class="subtitle" x="70" y="118">Only the control-plane node holding the etcd lease applies desired resources</text>
<path class="line" d="M300 196 L340 196 L340 296 L380 296"/>
<path class="line" d="M300 386 L340 386 L340 296 L380 296"/>
<path class="line" d="M680 296 L700 296 L700 296 L720 296"/>
<path class="line" d="M990 296 L1015 296 L1015 196 L1040 196"/>
<path class="line" d="M680 296 L860 296 L860 386 L1040 386"/>
<g id="nodeA" transform="translate(70,150)">
  <rect class="card" x="0" y="0" width="230" height="92" rx="14" fill="#E8F3FF" stroke="#5B8DEF"/>
  <text class="smallLabel" x="115" y="28" text-anchor="middle">Control-plane A</text>
  <text class="mono" x="115" y="53" text-anchor="middle">reconcile tick</text>
  <text class="mono" x="115" y="70" text-anchor="middle">candidate</text>
</g>
<g id="nodeB" transform="translate(70,340)">
  <rect class="card" x="0" y="0" width="230" height="92" rx="14" fill="#EAF7EF" stroke="#58A978"/>
  <text class="smallLabel" x="115" y="28" text-anchor="middle">Control-plane B</text>
  <text class="mono" x="115" y="53" text-anchor="middle">reconcile tick</text>
  <text class="mono" x="115" y="70" text-anchor="middle">standby</text>
</g>
<g id="reconciler" transform="translate(380,250)">
  <rect class="card" x="0" y="0" width="300" height="92" rx="14" fill="#FFF3D9" stroke="#D6A441"/>
  <text class="smallLabel" x="150" y="28" text-anchor="middle">ClusterReconciler</text>
  <text class="mono" x="150" y="53" text-anchor="middle">runIfLeader</text>
  <text class="mono" x="150" y="70" text-anchor="middle">desired state loop</text>
</g>
<g id="elector" transform="translate(720,250)">
  <rect class="card" x="0" y="0" width="270" height="92" rx="14" fill="#FDECEF" stroke="#DC6B82"/>
  <text class="smallLabel" x="135" y="28" text-anchor="middle">EtcdLeaderElector</text>
  <text class="mono" x="135" y="53" text-anchor="middle">lease grant</text>
  <text class="mono" x="135" y="70" text-anchor="middle">key compare</text>
</g>
<g id="etcd" transform="translate(1040,150)">
  <rect class="card" x="0" y="0" width="260" height="92" rx="14" fill="#E9F7F6" stroke="#45A7A1"/>
  <text class="smallLabel" x="130" y="28" text-anchor="middle">etcd cluster</text>
  <text class="mono" x="130" y="53" text-anchor="middle">lease + key</text>
  <text class="mono" x="130" y="70" text-anchor="middle">single owner</text>
</g>
<g id="resources" transform="translate(1040,340)">
  <rect class="card" x="0" y="0" width="260" height="92" rx="14" fill="#F1ECFF" stroke="#8A72D6"/>
  <text class="smallLabel" x="130" y="28" text-anchor="middle">Cluster resources</text>
  <text class="mono" x="130" y="53" text-anchor="middle">apply changes</text>
  <text class="mono" x="130" y="70" text-anchor="middle">idempotent</text>
</g>
</svg>
