<?xml version="1.0" encoding="UTF-8" standalone="no"?>
<!DOCTYPE svg PUBLIC "-//W3C//DTD SVG 1.1//EN"
 "http://www.w3.org/Graphics/SVG/1.1/DTD/svg11.dtd">
<!-- Generated by graphviz version 15.0.0 (20260523.1842)
 -->
<!-- Title: examples&#45;k8s&#45;operator&#45;sequence&#45;01 Pages: 1 -->
<svg width="1328pt" height="158pt"
 viewBox="0.00 0.00 1328.00 158.00" xmlns="http://www.w3.org/2000/svg" xmlns:xlink="http://www.w3.org/1999/xlink">
<g id="graph0" class="graph" transform="scale(1 1) rotate(0) translate(4 129.5)">
<title>examples&#45;k8s&#45;operator&#45;sequence&#45;01</title>
<text xml:space="preserve" text-anchor="middle" x="660.12" y="-108.2" font-family="Times,serif" font-size="14.00">K8s Operator Sequence Flow</text>
<!-- n0&#45;&gt;n1 -->
<g id="edge1" class="edge">
<title>n0&#45;&gt;n1</title>
<path fill="none" stroke="#758297" stroke-width="1.8" d="M210.43,-36C210.43,-36 266.66,-36 266.66,-36"/>
<polygon fill="#758297" stroke="#758297" stroke-width="1.8" points="266.66,-38.8 274.66,-36 266.66,-33.2 266.66,-38.8"/>
</g>
<!-- n0&#45;&gt;n2 -->
<g id="edge2" class="edge">
<title>n0&#45;&gt;n2</title>
<path fill="none" stroke="#758297" stroke-width="1.8" d="M105.12,0.38C105.12,7.08 105.12,12 105.12,12 105.12,12 660.12,12 660.12,12 660.12,12 660.12,10.84 660.12,10.84"/>
<polygon fill="#758297" stroke="#758297" stroke-width="1.8" points="657.32,11.1 660.12,3.1 662.92,11.1 657.32,11.1"/>
</g>
<!-- n1&#45;&gt;n3 -->
<g id="edge3" class="edge">
<title>n1&#45;&gt;n3</title>
<path fill="none" stroke="#758297" stroke-width="1.8" d="M403.64,-72.34C403.64,-80.09 403.64,-86 403.64,-86 403.64,-86 972.66,-86 972.66,-86 972.66,-86 972.66,-83.06 972.66,-83.06"/>
<polygon fill="#758297" stroke="#758297" stroke-width="1.8" points="975.46,-83.06 972.66,-75.06 969.86,-83.06 975.46,-83.06"/>
</g>
<!-- n1&#45;&gt;n3 -->
<g id="edge9" class="edge">
<title>n1&#45;&gt;n3</title>
<path fill="none" stroke="#758297" stroke-width="1.8" d="M445.69,-72.28C445.69,-76.31 445.69,-79 445.69,-79 445.69,-79 902.58,-79 902.58,-79 902.58,-79 902.58,-78.33 902.58,-78.33"/>
<polygon fill="#758297" stroke="#758297" stroke-width="1.8" points="905.38,-83.01 902.58,-75.01 899.78,-83.01 905.38,-83.01"/>
</g>
<!-- n1&#45;&gt;n4 -->
<g id="edge7" class="edge">
<title>n1&#45;&gt;n4</title>
<path fill="none" stroke="#758297" stroke-width="1.8" d="M319.55,-72.4C319.55,-84.06 319.55,-94 319.55,-94 319.55,-94 1180.08,-94 1180.08,-94 1180.08,-94 1180.08,-83.13 1180.08,-83.13"/>
<polygon fill="#758297" stroke="#758297" stroke-width="1.8" points="1182.88,-83.13 1180.08,-75.13 1177.28,-83.13 1182.88,-83.13"/>
</g>
<!-- n2&#45;&gt;n3 -->
<g id="edge4" class="edge">
<title>n2&#45;&gt;n3</title>
<path fill="none" stroke="#758297" stroke-width="1.8" d="M765.43,-24C765.43,-24 821.66,-24 821.66,-24"/>
<polygon fill="#758297" stroke="#758297" stroke-width="1.8" points="821.66,-26.8 829.66,-24 821.66,-21.2 821.66,-26.8"/>
</g>
<!-- n3&#45;&gt;n1 -->
<g id="edge5" class="edge">
<title>n3&#45;&gt;n1</title>
<path fill="none" stroke="#758297" stroke-width="1.8" stroke-dasharray="5,2" d="M937.62,0.29C937.62,12.92 937.62,24 937.62,24 937.62,24 382.62,24 382.62,24 382.62,24 382.62,11.01 382.62,11.01"/>
<polygon fill="#758297" stroke="#758297" stroke-width="1.8" points="379.82,11.01 382.62,3.01 385.42,11.01 379.82,11.01"/>
</g>
<!-- n3&#45;&gt;n2 -->
<g id="edge6" class="edge">
<title>n3&#45;&gt;n2</title>
<path fill="none" stroke="#758297" stroke-width="1.8" stroke-dasharray="5,2" d="M832.31,-48C832.31,-48 776.08,-48 776.08,-48"/>
<polygon fill="#758297" stroke="#758297" stroke-width="1.8" points="776.08,-45.2 768.08,-48 776.08,-50.8 776.08,-45.2"/>
</g>
<!-- n4&#45;&gt;n1 -->
<g id="edge8" class="edge">
<title>n4&#45;&gt;n1</title>
<path fill="none" stroke="#758297" stroke-width="1.8" stroke-dasharray="5,2" d="M1250.16,-72.3C1250.16,-87.19 1250.16,-101 1250.16,-101 1250.16,-101 361.6,-101 361.6,-101 361.6,-101 361.6,-83.03 361.6,-83.03"/>
<polygon fill="#758297" stroke="#758297" stroke-width="1.8" points="364.4,-83.03 361.6,-75.03 358.8,-83.03 364.4,-83.03"/>
</g>
<!-- n0 -->
<g id="node1" class="node">
<title>n0</title>
<path fill="#ffffff" stroke="#5b8def" d="M198.24,-72C198.24,-72 12,-72 12,-72 6,-72 0,-66 0,-60 0,-60 0,-12 0,-12 0,-6 6,0 12,0 12,0 198.24,0 198.24,0 204.24,0 210.24,-6 210.24,-12 210.24,-12 210.24,-60 210.24,-60 210.24,-66 204.24,-72 198.24,-72"/>
<text xml:space="preserve" text-anchor="middle" x="105.12" y="-31.65" font-family="Architects Daughter" font-size="18.00">Scheduler</text>
</g>
<!-- n1 -->
<g id="node2" class="node">
<title>n1</title>
<path fill="#ffffff" stroke="#58a978" d="M475.74,-72C475.74,-72 289.5,-72 289.5,-72 283.5,-72 277.5,-66 277.5,-60 277.5,-60 277.5,-12 277.5,-12 277.5,-6 283.5,0 289.5,0 289.5,0 475.74,0 475.74,0 481.74,0 487.74,-6 487.74,-12 487.74,-12 487.74,-60 487.74,-60 487.74,-66 481.74,-72 475.74,-72"/>
<text xml:space="preserve" text-anchor="middle" x="382.62" y="-31.65" font-family="Architects Daughter" font-size="18.00">Pod A</text>
</g>
<!-- n2 -->
<g id="node3" class="node">
<title>n2</title>
<path fill="#ffffff" stroke="#d6a441" d="M753.24,-72C753.24,-72 567,-72 567,-72 561,-72 555,-66 555,-60 555,-60 555,-12 555,-12 555,-6 561,0 567,0 567,0 753.24,0 753.24,0 759.24,0 765.24,-6 765.24,-12 765.24,-12 765.24,-60 765.24,-60 765.24,-66 759.24,-72 753.24,-72"/>
<text xml:space="preserve" text-anchor="middle" x="660.12" y="-31.65" font-family="Architects Daughter" font-size="18.00">Pod B</text>
</g>
<!-- n3 -->
<g id="node4" class="node">
<title>n3</title>
<path fill="#ffffff" stroke="#dc6b82" d="M1030.74,-72C1030.74,-72 844.5,-72 844.5,-72 838.5,-72 832.5,-66 832.5,-60 832.5,-60 832.5,-12 832.5,-12 832.5,-6 838.5,0 844.5,0 844.5,0 1030.74,0 1030.74,0 1036.74,0 1042.74,-6 1042.74,-12 1042.74,-12 1042.74,-60 1042.74,-60 1042.74,-66 1036.74,-72 1030.74,-72"/>
<text xml:space="preserve" text-anchor="middle" x="937.62" y="-31.65" font-family="Architects Daughter" font-size="18.00">Lease</text>
</g>
<!-- n4 -->
<g id="node5" class="node">
<title>n4</title>
<path fill="#ffffff" stroke="#45a7a1" d="M1308.24,-72C1308.24,-72 1122,-72 1122,-72 1116,-72 1110,-66 1110,-60 1110,-60 1110,-12 1110,-12 1110,-6 1116,0 1122,0 1122,0 1308.24,0 1308.24,0 1314.24,0 1320.24,-6 1320.24,-12 1320.24,-12 1320.24,-60 1320.24,-60 1320.24,-66 1314.24,-72 1308.24,-72"/>
<text xml:space="preserve" text-anchor="middle" x="1215.12" y="-31.65" font-family="Architects Daughter" font-size="18.00">Workload</text>
</g>
</g>
</svg>
