<?xml version="1.0" encoding="UTF-8" standalone="no"?>
<!DOCTYPE svg PUBLIC "-//W3C//DTD SVG 1.1//EN"
 "http://www.w3.org/Graphics/SVG/1.1/DTD/svg11.dtd">
<!-- Generated by graphviz version 15.0.0 (20260523.1842)
 -->
<!-- Title: examples&#45;prometheus&#45;dashboard&#45;flow&#45;01 Pages: 1 -->
<svg width="1795pt" height="127pt"
 viewBox="0.00 0.00 1795.00 127.00" xmlns="http://www.w3.org/2000/svg" xmlns:xlink="http://www.w3.org/1999/xlink">
<g id="graph0" class="graph" transform="scale(1 1) rotate(0) translate(4 123)">
<title>examples&#45;prometheus&#45;dashboard&#45;flow&#45;01</title>
<!-- start -->
<g id="node1" class="node">
<title>start</title>
<path fill="#f8fafc" stroke="#94a3b8" d="M154,-68C154,-68 12,-68 12,-68 6,-68 0,-62 0,-56 0,-56 0,-44 0,-44 0,-38 6,-32 12,-32 12,-32 154,-32 154,-32 160,-32 166,-38 166,-44 166,-44 166,-56 166,-56 166,-62 160,-68 154,-68"/>
<text xml:space="preserve" text-anchor="middle" x="83" y="-44.58" font-family="Comic Mono" font-size="14.00">Scheduled Metric Job</text>
</g>
<!-- validate -->
<g id="node2" class="node">
<title>validate</title>
<path fill="#f8fafc" stroke="#94a3b8" d="M429.5,-68C429.5,-68 265,-68 265,-68 259,-68 253,-62 253,-56 253,-56 253,-44 253,-44 253,-38 259,-32 265,-32 265,-32 429.5,-32 429.5,-32 435.5,-32 441.5,-38 441.5,-44 441.5,-44 441.5,-56 441.5,-56 441.5,-62 435.5,-68 429.5,-68"/>
<text xml:space="preserve" text-anchor="middle" x="347.25" y="-44.58" font-family="Comic Mono" font-size="14.00">Validate Example Inputs</text>
</g>
<!-- start&#45;&gt;validate -->
<g id="edge1" class="edge">
<title>start&#45;&gt;validate</title>
<path fill="none" stroke="#758297" d="M166.25,-50C166.25,-50 241.4,-50 241.4,-50"/>
<polygon fill="#758297" stroke="#758297" points="241.4,-53.5 251.4,-50 241.4,-46.5 241.4,-53.5"/>
<text xml:space="preserve" text-anchor="middle" x="209.5" y="-52.5" font-family="Comic Mono" font-size="10.00">call</text>
</g>
<!-- attempt -->
<g id="node3" class="node">
<title>attempt</title>
<path fill="#f8fafc" stroke="#94a3b8" d="M736.5,-68C736.5,-68 572,-68 572,-68 566,-68 560,-62 560,-56 560,-56 560,-44 560,-44 560,-38 566,-32 572,-32 572,-32 736.5,-32 736.5,-32 742.5,-32 748.5,-38 748.5,-44 748.5,-44 748.5,-56 748.5,-56 748.5,-62 742.5,-68 736.5,-68"/>
<text xml:space="preserve" text-anchor="middle" x="654.25" y="-44.58" font-family="Comic Mono" font-size="14.00">Spring AOP leader proxy</text>
</g>
<!-- validate&#45;&gt;attempt -->
<g id="edge2" class="edge">
<title>validate&#45;&gt;attempt</title>
<path fill="none" stroke="#758297" d="M441.87,-50C441.87,-50 548.17,-50 548.17,-50"/>
<polygon fill="#758297" stroke="#758297" points="548.17,-53.5 558.17,-50 548.17,-46.5 548.17,-53.5"/>
<text xml:space="preserve" text-anchor="middle" x="500.75" y="-52.5" font-family="Comic Mono" font-size="10.00">dependency</text>
</g>
<!-- decision -->
<g id="node4" class="node">
<title>decision</title>
<path fill="#f8fafc" stroke="#94a3b8" d="M998.5,-68C998.5,-68 879,-68 879,-68 873,-68 867,-62 867,-56 867,-56 867,-44 867,-44 867,-38 873,-32 879,-32 879,-32 998.5,-32 998.5,-32 1004.5,-32 1010.5,-38 1010.5,-44 1010.5,-44 1010.5,-56 1010.5,-56 1010.5,-62 1004.5,-68 998.5,-68"/>
<text xml:space="preserve" text-anchor="middle" x="938.75" y="-44.58" font-family="Comic Mono" font-size="14.00">Leadership Result</text>
</g>
<!-- attempt&#45;&gt;decision -->
<g id="edge3" class="edge">
<title>attempt&#45;&gt;decision</title>
<path fill="none" stroke="#758297" d="M748.98,-50C748.98,-50 855.42,-50 855.42,-50"/>
<polygon fill="#758297" stroke="#758297" points="855.42,-53.5 865.42,-50 855.42,-46.5 855.42,-53.5"/>
<text xml:space="preserve" text-anchor="middle" x="807.75" y="-52.5" font-family="Comic Mono" font-size="10.00">contention</text>
</g>
<!-- execute -->
<g id="node6" class="node">
<title>execute</title>
<path fill="#f8fafc" stroke="#94a3b8" d="M1297.25,-119C1297.25,-119 1125.25,-119 1125.25,-119 1119.25,-119 1113.25,-113 1113.25,-107 1113.25,-107 1113.25,-95 1113.25,-95 1113.25,-89 1119.25,-83 1125.25,-83 1125.25,-83 1297.25,-83 1297.25,-83 1303.25,-83 1309.25,-89 1309.25,-95 1309.25,-95 1309.25,-107 1309.25,-107 1309.25,-113 1303.25,-119 1297.25,-119"/>
<text xml:space="preserve" text-anchor="middle" x="1211.25" y="-95.58" font-family="Comic Mono" font-size="14.00">Record Micrometer Meters</text>
</g>
<!-- decision&#45;&gt;execute -->
<g id="edge4" class="edge">
<title>decision&#45;&gt;execute</title>
<path fill="none" stroke="#758297" d="M1010.89,-57.33C1065.71,-57.33 1131.75,-57.33 1131.75,-57.33 1131.75,-57.33 1131.75,-71.22 1131.75,-71.22"/>
<polygon fill="#758297" stroke="#758297" points="1128.25,-71.22 1131.75,-81.22 1135.25,-71.22 1128.25,-71.22"/>
<text xml:space="preserve" text-anchor="middle" x="1061.88" y="-93.5" font-family="Comic Mono" font-size="10.00">success</text>
</g>
<!-- skipped -->
<g id="node8" class="node">
<title>skipped</title>
<path fill="#f8fafc" stroke="#94a3b8" d="M1259.75,-36C1259.75,-36 1162.75,-36 1162.75,-36 1156.75,-36 1150.75,-30 1150.75,-24 1150.75,-24 1150.75,-12 1150.75,-12 1150.75,-6 1156.75,0 1162.75,0 1162.75,0 1259.75,0 1259.75,0 1265.75,0 1271.75,-6 1271.75,-12 1271.75,-12 1271.75,-24 1271.75,-24 1271.75,-30 1265.75,-36 1259.75,-36"/>
<text xml:space="preserve" text-anchor="middle" x="1211.25" y="-12.57" font-family="Comic Mono" font-size="14.00">Return Skipped</text>
</g>
<!-- decision&#45;&gt;skipped -->
<g id="edge7" class="edge">
<title>decision&#45;&gt;skipped</title>
<path fill="none" stroke="#758297" d="M1010.93,-46.67C1091.51,-46.67 1210.75,-46.67 1210.75,-46.67 1210.75,-46.67 1210.75,-45.63 1210.75,-45.63"/>
<polygon fill="#758297" stroke="#758297" points="1214.25,-47.83 1210.75,-37.83 1207.25,-47.83 1214.25,-47.83"/>
<text xml:space="preserve" text-anchor="middle" x="1061.88" y="-20.5" font-family="Comic Mono" font-size="10.00">skip</text>
</g>
<!-- release -->
<g id="node5" class="node">
<title>release</title>
<path fill="#f8fafc" stroke="#94a3b8" d="M1543.5,-119C1543.5,-119 1424,-119 1424,-119 1418,-119 1412,-113 1412,-107 1412,-107 1412,-95 1412,-95 1412,-89 1418,-83 1424,-83 1424,-83 1543.5,-83 1543.5,-83 1549.5,-83 1555.5,-89 1555.5,-95 1555.5,-95 1555.5,-107 1555.5,-107 1555.5,-113 1549.5,-119 1543.5,-119"/>
<text xml:space="preserve" text-anchor="middle" x="1483.75" y="-95.58" font-family="Comic Mono" font-size="14.00">Release Or Extend</text>
</g>
<!-- executed -->
<g id="node7" class="node">
<title>executed</title>
<path fill="#f8fafc" stroke="#94a3b8" d="M1774.75,-119C1774.75,-119 1670.25,-119 1670.25,-119 1664.25,-119 1658.25,-113 1658.25,-107 1658.25,-107 1658.25,-95 1658.25,-95 1658.25,-89 1664.25,-83 1670.25,-83 1670.25,-83 1774.75,-83 1774.75,-83 1780.75,-83 1786.75,-89 1786.75,-95 1786.75,-95 1786.75,-107 1786.75,-107 1786.75,-113 1780.75,-119 1774.75,-119"/>
<text xml:space="preserve" text-anchor="middle" x="1722.5" y="-95.58" font-family="Comic Mono" font-size="14.00">Return Executed</text>
</g>
<!-- release&#45;&gt;executed -->
<g id="edge6" class="edge">
<title>release&#45;&gt;executed</title>
<path fill="none" stroke="#758297" d="M1555.71,-101C1555.71,-101 1646.48,-101 1646.48,-101"/>
<polygon fill="#758297" stroke="#758297" points="1646.48,-104.5 1656.48,-101 1646.48,-97.5 1646.48,-104.5"/>
<text xml:space="preserve" text-anchor="middle" x="1606.88" y="-103.5" font-family="Comic Mono" font-size="10.00">success</text>
</g>
<!-- execute&#45;&gt;release -->
<g id="edge5" class="edge">
<title>execute&#45;&gt;release</title>
<path fill="none" stroke="#758297" d="M1309.63,-101C1309.63,-101 1400.08,-101 1400.08,-101"/>
<polygon fill="#758297" stroke="#758297" points="1400.08,-104.5 1410.08,-101 1400.08,-97.5 1400.08,-104.5"/>
<text xml:space="preserve" text-anchor="middle" x="1360.62" y="-103.5" font-family="Comic Mono" font-size="10.00">release</text>
</g>
</g>
</svg>
