<?xml version="1.0" encoding="UTF-8" standalone="no"?>
<!DOCTYPE svg PUBLIC "-//W3C//DTD SVG 1.1//EN"
 "http://www.w3.org/Graphics/SVG/1.1/DTD/svg11.dtd">
<!-- Generated by graphviz version 15.0.0 (20260523.1842)
 -->
<!-- Title: examples&#45;strategic&#45;election&#45;sequence&#45;01 Pages: 1 -->
<svg width="1323pt" height="503pt"
 viewBox="0.00 0.00 1323.00 503.00" xmlns="http://www.w3.org/2000/svg" xmlns:xlink="http://www.w3.org/1999/xlink">
<g id="graph0" class="graph" transform="scale(1 1) rotate(0) translate(4 499)">
<title>examples&#45;strategic&#45;election&#45;sequence&#45;01</title>
<!-- trigger -->
<g id="node1" class="node">
<title>trigger</title>
<path fill="#f8fafc" stroke="#94a3b8" d="M109,-58C109,-58 12,-58 12,-58 6,-58 0,-52 0,-46 0,-46 0,-34 0,-34 0,-28 6,-22 12,-22 12,-22 109,-22 109,-22 115,-22 121,-28 121,-34 121,-34 121,-46 121,-46 121,-52 115,-58 109,-58"/>
<text xml:space="preserve" text-anchor="middle" x="60.5" y="-34.58" font-family="Comic Mono" font-size="14.00">Candidate Scan</text>
</g>
<!-- coord -->
<g id="node2" class="node">
<title>coord</title>
<path fill="#f8fafc" stroke="#94a3b8" d="M453.5,-150C453.5,-150 304,-150 304,-150 298,-150 292,-144 292,-138 292,-138 292,-126 292,-126 292,-120 298,-114 304,-114 304,-114 453.5,-114 453.5,-114 459.5,-114 465.5,-120 465.5,-126 465.5,-126 465.5,-138 465.5,-138 465.5,-144 459.5,-150 453.5,-150"/>
<text xml:space="preserve" text-anchor="middle" x="378.75" y="-126.58" font-family="Comic Mono" font-size="14.00">StrategicLeaderRunner</text>
</g>
<!-- trigger&#45;&gt;coord -->
<g id="edge1" class="edge">
<title>trigger&#45;&gt;coord</title>
<path fill="none" stroke="#4f83bf" d="M60,-58.18C60,-84.99 60,-132 60,-132 60,-132 283.14,-132 283.14,-132"/>
<polygon fill="#4f83bf" stroke="#4f83bf" points="283.14,-134.45 290.14,-132 283.14,-129.55 283.14,-134.45"/>
<text xml:space="preserve" text-anchor="middle" x="206.5" y="-89.5" font-family="Comic Mono" font-size="10.00">start candidate scan</text>
</g>
<!-- elector -->
<g id="node3" class="node">
<title>elector</title>
<path fill="#f8fafc" stroke="#94a3b8" d="M915,-266C915,-266 743,-266 743,-266 737,-266 731,-260 731,-254 731,-254 731,-242 731,-242 731,-236 737,-230 743,-230 743,-230 915,-230 915,-230 921,-230 927,-236 927,-242 927,-242 927,-254 927,-254 927,-260 921,-266 915,-266"/>
<text xml:space="preserve" text-anchor="middle" x="829" y="-242.57" font-family="Comic Mono" font-size="14.00">Scored election strategy</text>
</g>
<!-- coord&#45;&gt;elector -->
<g id="edge2" class="edge">
<title>coord&#45;&gt;elector</title>
<path fill="none" stroke="#4f83bf" d="M379,-150.38C379,-183.09 379,-248 379,-248 379,-248 722.01,-248 722.01,-248"/>
<polygon fill="#4f83bf" stroke="#4f83bf" points="722.01,-250.45 729.01,-248 722.01,-245.55 722.01,-250.45"/>
<text xml:space="preserve" text-anchor="middle" x="598.25" y="-211.5" font-family="Comic Mono" font-size="10.00">runIfLeader with source options</text>
</g>
<!-- backend -->
<g id="node4" class="node">
<title>backend</title>
<path fill="#f8fafc" stroke="#94a3b8" d="M1303,-400C1303,-400 1183.5,-400 1183.5,-400 1177.5,-400 1171.5,-394 1171.5,-388 1171.5,-388 1171.5,-376 1171.5,-376 1171.5,-370 1177.5,-364 1183.5,-364 1183.5,-364 1303,-364 1303,-364 1309,-364 1315,-370 1315,-376 1315,-376 1315,-388 1315,-388 1315,-394 1309,-400 1303,-400"/>
<text xml:space="preserve" text-anchor="middle" x="1243.25" y="-376.57" font-family="Comic Mono" font-size="14.00">local leader slot</text>
</g>
<!-- elector&#45;&gt;backend -->
<g id="edge3" class="edge">
<title>elector&#45;&gt;backend</title>
<path fill="none" stroke="#b9851b" d="M927.15,-255.71C1041.21,-255.71 1214,-255.71 1214,-255.71 1214,-255.71 1214,-355.12 1214,-355.12"/>
<polygon fill="#b9851b" stroke="#b9851b" points="1211.55,-355.12 1214,-362.12 1216.45,-355.12 1211.55,-355.12"/>
<text xml:space="preserve" text-anchor="middle" x="1049.25" y="-485.5" font-family="Comic Mono" font-size="10.00">attempt backend ownership</text>
</g>
<!-- elector&#45;&gt;backend -->
<g id="edge7" class="edge">
<title>elector&#45;&gt;backend</title>
<path fill="none" stroke="#755bc6" d="M927.3,-250.57C1047.17,-250.57 1234,-250.57 1234,-250.57 1234,-250.57 1234,-355.21 1234,-355.21"/>
<polygon fill="#755bc6" stroke="#755bc6" points="1231.55,-355.21 1234,-362.21 1236.45,-355.21 1231.55,-355.21"/>
<text xml:space="preserve" text-anchor="middle" x="1049.25" y="-418.5" font-family="Comic Mono" font-size="10.00">release or renew for score refresh</text>
</g>
<!-- work -->
<g id="node5" class="node">
<title>work</title>
<path fill="#f8fafc" stroke="#94a3b8" d="M1299.25,-200C1299.25,-200 1187.25,-200 1187.25,-200 1181.25,-200 1175.25,-194 1175.25,-188 1175.25,-188 1175.25,-176 1175.25,-176 1175.25,-170 1181.25,-164 1187.25,-164 1187.25,-164 1299.25,-164 1299.25,-164 1305.25,-164 1311.25,-170 1311.25,-176 1311.25,-176 1311.25,-188 1311.25,-188 1311.25,-194 1305.25,-200 1299.25,-200"/>
<text xml:space="preserve" text-anchor="middle" x="1243.25" y="-176.57" font-family="Comic Mono" font-size="14.00">Winner&#45;Only Work</text>
</g>
<!-- elector&#45;&gt;work -->
<g id="edge5" class="edge">
<title>elector&#45;&gt;work</title>
<path fill="none" stroke="#3e9868" d="M927.47,-240.29C1063.42,-240.29 1292,-240.29 1292,-240.29 1292,-240.29 1292,-208.96 1292,-208.96"/>
<polygon fill="#3e9868" stroke="#3e9868" points="1294.45,-208.96 1292,-201.96 1289.55,-208.96 1294.45,-208.96"/>
<text xml:space="preserve" text-anchor="middle" x="1049.25" y="-217.5" font-family="Comic Mono" font-size="10.00">execute winner&#45;only work</text>
</g>
<!-- peer -->
<g id="node6" class="node">
<title>peer</title>
<path fill="#f8fafc" stroke="#94a3b8" d="M1284.25,-59C1284.25,-59 1202.25,-59 1202.25,-59 1196.25,-59 1190.25,-53 1190.25,-47 1190.25,-47 1190.25,-35 1190.25,-35 1190.25,-29 1196.25,-23 1202.25,-23 1202.25,-23 1284.25,-23 1284.25,-23 1290.25,-23 1296.25,-29 1296.25,-35 1296.25,-35 1296.25,-47 1296.25,-47 1296.25,-53 1290.25,-59 1284.25,-59"/>
<text xml:space="preserve" text-anchor="middle" x="1243.25" y="-35.58" font-family="Comic Mono" font-size="14.00">Skipped Peer</text>
</g>
<!-- elector&#45;&gt;peer -->
<g id="edge9" class="edge">
<title>elector&#45;&gt;peer</title>
<path fill="none" stroke="#c94d68" d="M829,-229.75C829,-180.11 829,-46.33 829,-46.33 829,-46.33 1181.43,-46.33 1181.43,-46.33"/>
<polygon fill="#c94d68" stroke="#c94d68" points="1181.43,-48.78 1188.43,-46.33 1181.43,-43.88 1181.43,-48.78"/>
<text xml:space="preserve" text-anchor="middle" x="1049.25" y="-83.5" font-family="Comic Mono" font-size="10.00">return skipped result</text>
</g>
<!-- backend&#45;&gt;elector -->
<g id="edge4" class="edge">
<title>backend&#45;&gt;elector</title>
<path fill="none" stroke="#3e9868" d="M1253,-363.58C1253,-326.3 1253,-245.43 1253,-245.43 1253,-245.43 935.85,-245.43 935.85,-245.43"/>
<polygon fill="#3e9868" stroke="#3e9868" points="935.85,-242.98 928.85,-245.43 935.85,-247.88 935.85,-242.98"/>
<text xml:space="preserve" text-anchor="middle" x="1049.25" y="-351.5" font-family="Comic Mono" font-size="10.00">owner token accepted</text>
</g>
<!-- backend&#45;&gt;elector -->
<g id="edge8" class="edge">
<title>backend&#45;&gt;elector</title>
<path fill="none" stroke="#c94d68" d="M1195,-363.6C1195,-329.71 1195,-260.86 1195,-260.86 1195,-260.86 935.59,-260.86 935.59,-260.86"/>
<polygon fill="#c94d68" stroke="#c94d68" points="935.59,-258.41 928.59,-260.86 935.59,-263.31 935.59,-258.41"/>
<text xml:space="preserve" text-anchor="middle" x="1049.25" y="-284.5" font-family="Comic Mono" font-size="10.00">lock already owned</text>
</g>
<!-- work&#45;&gt;elector -->
<g id="edge6" class="edge">
<title>work&#45;&gt;elector</title>
<path fill="none" stroke="#3e9868" d="M1272,-200.29C1272,-215.66 1272,-235.14 1272,-235.14 1272,-235.14 935.83,-235.14 935.83,-235.14"/>
<polygon fill="#3e9868" stroke="#3e9868" points="935.83,-232.69 928.83,-235.14 935.83,-237.59 935.83,-232.69"/>
<text xml:space="preserve" text-anchor="middle" x="1049.25" y="-150.5" font-family="Comic Mono" font-size="10.00">return leader result</text>
</g>
<!-- peer&#45;&gt;trigger -->
<g id="edge10" class="edge">
<title>peer&#45;&gt;trigger</title>
<path fill="none" stroke="#c94d68" d="M1190.13,-34.67C1190.13,-34.67 129.98,-34.67 129.98,-34.67"/>
<polygon fill="#c94d68" stroke="#c94d68" points="129.98,-32.22 122.98,-34.67 129.98,-37.12 129.98,-32.22"/>
<text xml:space="preserve" text-anchor="middle" x="598.25" y="-2.5" font-family="Comic Mono" font-size="10.00">cycle completes without duplicate work</text>
</g>
</g>
</svg>
