<?xml version="1.0" encoding="UTF-8" standalone="no"?>
<!DOCTYPE svg PUBLIC "-//W3C//DTD SVG 1.1//EN"
 "http://www.w3.org/Graphics/SVG/1.1/DTD/svg11.dtd">
<!-- Generated by graphviz version 15.0.0 (20260523.1842)
 -->
<!-- Title: examples&#45;redisson&#45;watchdog&#45;architecture&#45;01 Pages: 1 -->
<svg width="1383pt" height="136pt"
 viewBox="0.00 0.00 1383.00 136.00" xmlns="http://www.w3.org/2000/svg" xmlns:xlink="http://www.w3.org/1999/xlink">
<g id="graph0" class="graph" transform="scale(1 1) rotate(0) translate(4 132)">
<title>examples&#45;redisson&#45;watchdog&#45;architecture&#45;01</title>
<!-- trigger -->
<g id="node1" class="node">
<title>trigger</title>
<path fill="#f8fafc" stroke="#94a3b8" d="M124,-77C124,-77 12,-77 12,-77 6,-77 0,-71 0,-65 0,-65 0,-53 0,-53 0,-47 6,-41 12,-41 12,-41 124,-41 124,-41 130,-41 136,-47 136,-53 136,-53 136,-65 136,-65 136,-71 130,-77 124,-77"/>
<text xml:space="preserve" text-anchor="middle" x="68" y="-53.58" font-family="Comic Mono" font-size="14.00">Long Job Trigger</text>
</g>
<!-- nodeA -->
<g id="node2" class="node">
<title>nodeA</title>
<path fill="#f8fafc" stroke="#94a3b8" d="M347,-119C347,-119 235,-119 235,-119 229,-119 223,-113 223,-107 223,-107 223,-95 223,-95 223,-89 229,-83 235,-83 235,-83 347,-83 347,-83 353,-83 359,-89 359,-95 359,-95 359,-107 359,-107 359,-113 353,-119 347,-119"/>
<text xml:space="preserve" text-anchor="middle" x="291" y="-95.58" font-family="Comic Mono" font-size="14.00">Candidate Node A</text>
</g>
<!-- trigger&#45;&gt;nodeA -->
<g id="edge1" class="edge">
<title>trigger&#45;&gt;nodeA</title>
<path fill="none" stroke="#758297" d="M67.75,-77.06C67.75,-88.44 67.75,-101 67.75,-101 67.75,-101 210.99,-101 210.99,-101"/>
<polygon fill="#758297" stroke="#758297" points="210.99,-104.5 220.99,-101 210.99,-97.5 210.99,-104.5"/>
<text xml:space="preserve" text-anchor="middle" x="179.5" y="-98.5" font-family="Comic Mono" font-size="10.00">call</text>
</g>
<!-- nodeB -->
<g id="node3" class="node">
<title>nodeB</title>
<path fill="#f8fafc" stroke="#94a3b8" d="M347,-36C347,-36 235,-36 235,-36 229,-36 223,-30 223,-24 223,-24 223,-12 223,-12 223,-6 229,0 235,0 235,0 347,0 347,0 353,0 359,-6 359,-12 359,-12 359,-24 359,-24 359,-30 353,-36 347,-36"/>
<text xml:space="preserve" text-anchor="middle" x="291" y="-12.57" font-family="Comic Mono" font-size="14.00">Candidate Node B</text>
</g>
<!-- trigger&#45;&gt;nodeB -->
<g id="edge2" class="edge">
<title>trigger&#45;&gt;nodeB</title>
<path fill="none" stroke="#758297" d="M67.75,-40.9C67.75,-29.91 67.75,-18 67.75,-18 67.75,-18 210.99,-18 210.99,-18"/>
<polygon fill="#758297" stroke="#758297" points="210.99,-21.5 220.99,-18 210.99,-14.5 210.99,-21.5"/>
<text xml:space="preserve" text-anchor="middle" x="179.5" y="-29.5" font-family="Comic Mono" font-size="10.00">call</text>
</g>
<!-- coordinator -->
<g id="node4" class="node">
<title>coordinator</title>
<path fill="#f8fafc" stroke="#94a3b8" d="M577.5,-77C577.5,-77 458,-77 458,-77 452,-77 446,-71 446,-65 446,-65 446,-53 446,-53 446,-47 452,-41 458,-41 458,-41 577.5,-41 577.5,-41 583.5,-41 589.5,-47 589.5,-53 589.5,-53 589.5,-65 589.5,-65 589.5,-71 583.5,-77 577.5,-77"/>
<text xml:space="preserve" text-anchor="middle" x="517.75" y="-53.58" font-family="Comic Mono" font-size="14.00">WatchdogJobRunner</text>
</g>
<!-- nodeA&#45;&gt;coordinator -->
<g id="edge3" class="edge">
<title>nodeA&#45;&gt;coordinator</title>
<path fill="none" stroke="#758297" d="M359.34,-87.5C426.1,-87.5 517.75,-87.5 517.75,-87.5 517.75,-87.5 517.75,-86.47 517.75,-86.47"/>
<polygon fill="#758297" stroke="#758297" points="521.25,-88.72 517.75,-78.72 514.25,-88.72 521.25,-88.72"/>
<text xml:space="preserve" text-anchor="middle" x="402.5" y="-98.5" font-family="Comic Mono" font-size="10.00">call</text>
</g>
<!-- nodeB&#45;&gt;coordinator -->
<g id="edge4" class="edge">
<title>nodeB&#45;&gt;coordinator</title>
<path fill="none" stroke="#758297" d="M359.34,-22.5C426.1,-22.5 517.75,-22.5 517.75,-22.5 517.75,-22.5 517.75,-29.24 517.75,-29.24"/>
<polygon fill="#758297" stroke="#758297" points="514.25,-29.24 517.75,-39.24 521.25,-29.24 514.25,-29.24"/>
<text xml:space="preserve" text-anchor="middle" x="402.5" y="-29.5" font-family="Comic Mono" font-size="10.00">call</text>
</g>
<!-- elector -->
<g id="node6" class="node">
<title>elector</title>
<path fill="#f8fafc" stroke="#94a3b8" d="M869.5,-128C869.5,-128 720,-128 720,-128 714,-128 708,-122 708,-116 708,-116 708,-104 708,-104 708,-98 714,-92 720,-92 720,-92 869.5,-92 869.5,-92 875.5,-92 881.5,-98 881.5,-104 881.5,-104 881.5,-116 881.5,-116 881.5,-122 875.5,-128 869.5,-128"/>
<text xml:space="preserve" text-anchor="middle" x="794.75" y="-104.58" font-family="Comic Mono" font-size="14.00">RedissonLeaderElector</text>
</g>
<!-- coordinator&#45;&gt;elector -->
<g id="edge5" class="edge">
<title>coordinator&#45;&gt;elector</title>
<path fill="none" stroke="#758297" d="M589.79,-66.33C646.41,-66.33 715.75,-66.33 715.75,-66.33 715.75,-66.33 715.75,-80.22 715.75,-80.22"/>
<polygon fill="#758297" stroke="#758297" points="712.25,-80.22 715.75,-90.22 719.25,-80.22 712.25,-80.22"/>
<text xml:space="preserve" text-anchor="middle" x="648.75" y="-102.5" font-family="Comic Mono" font-size="10.00">dependency</text>
</g>
<!-- work -->
<g id="node8" class="node">
<title>work</title>
<path fill="#f8fafc" stroke="#94a3b8" d="M854.5,-45C854.5,-45 735,-45 735,-45 729,-45 723,-39 723,-33 723,-33 723,-21 723,-21 723,-15 729,-9 735,-9 735,-9 854.5,-9 854.5,-9 860.5,-9 866.5,-15 866.5,-21 866.5,-21 866.5,-33 866.5,-33 866.5,-39 860.5,-45 854.5,-45"/>
<text xml:space="preserve" text-anchor="middle" x="794.75" y="-21.57" font-family="Comic Mono" font-size="14.00">Long&#45;Running Body</text>
</g>
<!-- coordinator&#45;&gt;work -->
<g id="edge7" class="edge">
<title>coordinator&#45;&gt;work</title>
<path fill="none" stroke="#758297" d="M589.81,-55.67C671.88,-55.67 794.75,-55.67 794.75,-55.67 794.75,-55.67 794.75,-54.63 794.75,-54.63"/>
<polygon fill="#758297" stroke="#758297" points="798.25,-56.83 794.75,-46.83 791.25,-56.83 798.25,-56.83"/>
<text xml:space="preserve" text-anchor="middle" x="648.75" y="-29.5" font-family="Comic Mono" font-size="10.00">success</text>
</g>
<!-- backend -->
<g id="node5" class="node">
<title>backend</title>
<path fill="#f8fafc" stroke="#94a3b8" d="M1101.5,-128C1101.5,-128 1012,-128 1012,-128 1006,-128 1000,-122 1000,-116 1000,-116 1000,-104 1000,-104 1000,-98 1006,-92 1012,-92 1012,-92 1101.5,-92 1101.5,-92 1107.5,-92 1113.5,-98 1113.5,-104 1113.5,-104 1113.5,-116 1113.5,-116 1113.5,-122 1107.5,-128 1101.5,-128"/>
<text xml:space="preserve" text-anchor="middle" x="1056.75" y="-104.58" font-family="Comic Mono" font-size="14.00">RLock storage</text>
</g>
<!-- recovery -->
<g id="node7" class="node">
<title>recovery</title>
<path fill="#f8fafc" stroke="#94a3b8" d="M1362.75,-128C1362.75,-128 1228.25,-128 1228.25,-128 1222.25,-128 1216.25,-122 1216.25,-116 1216.25,-116 1216.25,-104 1216.25,-104 1216.25,-98 1222.25,-92 1228.25,-92 1228.25,-92 1362.75,-92 1362.75,-92 1368.75,-92 1374.75,-98 1374.75,-104 1374.75,-104 1374.75,-116 1374.75,-116 1374.75,-122 1368.75,-128 1362.75,-128"/>
<text xml:space="preserve" text-anchor="middle" x="1295.5" y="-104.58" font-family="Comic Mono" font-size="14.00">Auto&#45;Extension Stop</text>
</g>
<!-- backend&#45;&gt;recovery -->
<g id="edge8" class="edge">
<title>backend&#45;&gt;recovery</title>
<path fill="none" stroke="#758297" d="M1113.94,-110C1113.94,-110 1204.25,-110 1204.25,-110"/>
<polygon fill="#758297" stroke="#758297" points="1204.25,-113.5 1214.25,-110 1204.25,-106.5 1204.25,-113.5"/>
<text xml:space="preserve" text-anchor="middle" x="1164.88" y="-112.5" font-family="Comic Mono" font-size="10.00">release</text>
</g>
<!-- elector&#45;&gt;backend -->
<g id="edge6" class="edge">
<title>elector&#45;&gt;backend</title>
<path fill="none" stroke="#758297" d="M881.99,-110C881.99,-110 988.03,-110 988.03,-110"/>
<polygon fill="#758297" stroke="#758297" points="988.03,-113.5 998.03,-110 988.03,-106.5 988.03,-113.5"/>
<text xml:space="preserve" text-anchor="middle" x="940.75" y="-112.5" font-family="Comic Mono" font-size="10.00">contention</text>
</g>
</g>
</svg>
