<svg xmlns="http://www.w3.org/2000/svg" width="1430" height="600" viewBox="0 0 1430 600" role="img" aria-label="K8s Operator Architecture">
  <metadata id="graphviz-evidence">Regenerated with Graphviz evidence: examples-k8s-operator-architecture-01.dot, examples-k8s-operator-architecture-01.plain, examples-k8s-operator-architecture-01-graphviz.svg via scripts/regenerate-readme-diagram-graphviz-evidence.mjs.</metadata>
<defs>
  <filter id="shadow" x="-8%" y="-8%" width="116%" height="116%"><feDropShadow dx="0" dy="8" stdDeviation="9" flood-color="#1f2937" flood-opacity="0.10"/></filter>
  <marker id="openArrow" markerWidth="12" markerHeight="10" refX="10" refY="5" orient="auto" markerUnits="strokeWidth"><path d="M 1 1 L 10 5 L 1 9" fill="none" stroke="#758297" stroke-width="1.8" stroke-linecap="round" stroke-linejoin="round"/></marker>
  <style>
    .canvas{fill:#f7f9fc}.frame{fill:#fff;stroke:#d8e0ea;stroke-width:1.5}
    .title{font-family:"Architects Daughter","Comic Mono","Comic Sans MS","Comic Sans",cursive;font-size:43px;font-weight:400;fill:#102033}
    .subtitle{font-family:"Comic Mono","Comic Sans MS","Comic Sans","Comic Neue",Arial,sans-serif;font-size:15px;font-weight:400;fill:#536273}
    .smallLabel{font-family:"Architects Daughter","Comic Mono","Comic Sans MS","Comic Sans",cursive;font-size:21px;font-weight:400;fill:#102033}
    .mono{font-family:"Comic Mono","Comic Sans MS","Comic Sans","Comic Neue",Arial,sans-serif;font-size:12px;font-weight:400;fill:#102033}
    .strong{font-family:"Comic Mono","Comic Sans MS","Comic Sans","Comic Neue",Arial,sans-serif;font-size:13px;font-weight:400;fill:#102033}
    .card{stroke-width:2.1;filter:url(#shadow)}
    .line{stroke:#758297;stroke-width:2.1;fill:none;marker-end:url(#openArrow)}
    .dashed{stroke:#758297;stroke-width:2.1;stroke-dasharray:7 6;fill:none;marker-end:url(#openArrow)}
    .lifeline{stroke:#b7c2d1;stroke-width:2;stroke-dasharray:10 10}
  </style>
</defs>
<rect class="canvas" width="1430" height="600"/>
<rect class="frame" x="32" y="28" width="1366" height="544" rx="28"/>
<text class="title" x="66" y="82">K8s Operator Architecture</text>
<text class="subtitle" x="70" y="118">Three Spring Boot operator pods share one Kubernetes Lease before reconciling workload</text>
<path class="line" d="M300 176 L330 176 L330 326 L360 326"/>
<path class="line" d="M300 326 L330 326 L330 326 L360 326"/>
<path class="line" d="M300 476 L330 476 L330 326 L360 326"/>
<path class="line" d="M620 326 L660 326 L660 326 L700 326"/>
<path class="line" d="M1070 326 L1100 326 L1100 226 L1130 226"/>
<path class="line" d="M490 372 L490 426 L1130 426"/>
<g id="pod1" transform="translate(70,130)">
  <rect class="card" x="0" y="0" width="230" height="92" rx="14" fill="#E8F3FF" stroke="#5B8DEF"/>
  <text class="smallLabel" x="115" y="28" text-anchor="middle">Operator pod-1</text>
  <text class="mono" x="115" y="53" text-anchor="middle">@Scheduled tick</text>
  <text class="mono" x="115" y="70" text-anchor="middle">candidate</text>
</g>
<g id="pod2" transform="translate(70,280)">
  <rect class="card" x="0" y="0" width="230" height="92" rx="14" fill="#EAF7EF" stroke="#58A978"/>
  <text class="smallLabel" x="115" y="28" text-anchor="middle">Operator pod-2</text>
  <text class="mono" x="115" y="53" text-anchor="middle">@Scheduled tick</text>
  <text class="mono" x="115" y="70" text-anchor="middle">standby</text>
</g>
<g id="pod3" transform="translate(70,430)">
  <rect class="card" x="0" y="0" width="230" height="92" rx="14" fill="#FFF3D9" stroke="#D6A441"/>
  <text class="smallLabel" x="115" y="28" text-anchor="middle">Operator pod-3</text>
  <text class="mono" x="115" y="53" text-anchor="middle">@Scheduled tick</text>
  <text class="mono" x="115" y="70" text-anchor="middle">standby</text>
</g>
<g id="controller" transform="translate(360,280)">
  <rect class="card" x="0" y="0" width="260" height="92" rx="14" fill="#FDECEF" stroke="#DC6B82"/>
  <text class="smallLabel" x="130" y="28" text-anchor="middle">OperatorController</text>
  <text class="mono" x="130" y="53" text-anchor="middle">runIfLeader</text>
  <text class="mono" x="130" y="70" text-anchor="middle">cronjob-reconciler</text>
</g>
<g id="elector" transform="translate(700,280)">
  <rect class="card" x="0" y="0" width="370" height="92" rx="14" fill="#E9F7F6" stroke="#45A7A1"/>
  <text class="smallLabel" x="185" y="28" text-anchor="middle">KubernetesLeaseLeaderElector</text>
  <text class="mono" x="185" y="53" text-anchor="middle">autoExtend</text>
  <text class="mono" x="185" y="70" text-anchor="middle">retryDelay</text>
</g>
<g id="lease" transform="translate(1130,180)">
  <rect class="card" x="0" y="0" width="230" height="92" rx="14" fill="#F1ECFF" stroke="#8A72D6"/>
  <text class="smallLabel" x="115" y="28" text-anchor="middle">Kubernetes Lease</text>
  <text class="mono" x="115" y="53" text-anchor="middle">coordination.k8s.io</text>
  <text class="mono" x="115" y="70" text-anchor="middle">RBAC protected</text>
</g>
<g id="workload" transform="translate(1130,380)">
  <rect class="card" x="0" y="0" width="230" height="92" rx="14" fill="#F7F1E7" stroke="#B88A44"/>
  <text class="smallLabel" x="115" y="28" text-anchor="middle">Demo workload</text>
  <text class="mono" x="115" y="53" text-anchor="middle">reconcile</text>
  <text class="mono" x="115" y="70" text-anchor="middle">revision counter</text>
</g>
</svg>
