<?xml version="1.0" encoding="UTF-8" standalone="no"?>
<!DOCTYPE svg PUBLIC "-//W3C//DTD SVG 1.1//EN"
 "http://www.w3.org/Graphics/SVG/1.1/DTD/svg11.dtd">
<!-- Generated by graphviz version 15.0.0 (20260523.1842)
 -->
<!-- Title: examples&#45;prometheus&#45;dashboard&#45;architecture&#45;01 Pages: 1 -->
<svg width="1290pt" height="299pt"
 viewBox="0.00 0.00 1290.00 299.00" xmlns="http://www.w3.org/2000/svg" xmlns:xlink="http://www.w3.org/1999/xlink">
<g id="graph0" class="graph" transform="scale(1 1) rotate(0) translate(4 294.58)">
<title>examples&#45;prometheus&#45;dashboard&#45;architecture&#45;01</title>
<text xml:space="preserve" text-anchor="middle" x="641.04" y="-273.28" font-family="Times,serif" font-size="14.00">prometheus dashboard Architecture</text>
<!-- n0&#45;&gt;r6p1 -->
<g id="edge16" class="edge">
<title>n0&#45;&gt;r6p1</title>
<path fill="none" stroke="#758297" stroke-width="1.8" d="M280.2,-216C284.06,-216 286.94,-216 288.56,-216"/>
</g>
<!-- n1&#45;&gt;r5p1 -->
<g id="edge13" class="edge">
<title>n1&#45;&gt;r5p1</title>
<path fill="none" stroke="#758297" stroke-width="1.8" d="M614.2,-216C618.06,-216 620.94,-216 622.56,-216"/>
</g>
<!-- n2&#45;&gt;r3p1 -->
<g id="edge7" class="edge">
<title>n2&#45;&gt;r3p1</title>
<path fill="none" stroke="#758297" stroke-width="1.8" d="M667.88,-190C661.7,-190 658.04,-190 658.04,-190 658.04,-190 658.04,-143.22 658.04,-134.45"/>
</g>
<!-- n2&#45;&gt;r4p1 -->
<g id="edge10" class="edge">
<title>n2&#45;&gt;r4p1</title>
<path fill="none" stroke="#758297" stroke-width="1.8" d="M948.2,-216C952.06,-216 954.94,-216 956.56,-216"/>
</g>
<!-- n5&#45;&gt;r2p1 -->
<g id="edge4" class="edge">
<title>n5&#45;&gt;r2p1</title>
<path fill="none" stroke="#758297" stroke-width="1.8" d="M500.88,-50C497.02,-50 494.14,-50 492.52,-50"/>
</g>
<!-- n6&#45;&gt;r1p1 -->
<g id="edge1" class="edge">
<title>n6&#45;&gt;r1p1</title>
<path fill="none" stroke="#758297" stroke-width="1.8" d="M834.88,-50C831.02,-50 828.14,-50 826.52,-50"/>
</g>
<!-- r1p1&#45;&gt;r1p2 -->
<g id="edge2" class="edge">
<title>r1p1&#45;&gt;r1p2</title>
<path fill="none" stroke="#758297" stroke-width="1.8" d="M823.58,-50C817.99,-50 797.98,-50 792.46,-50"/>
</g>
<!-- r1p2&#45;&gt;n5 -->
<g id="edge3" class="edge">
<title>r1p2&#45;&gt;n5</title>
<path fill="none" stroke="#758297" stroke-width="1.8" d="M789.74,-50C789.74,-50 788.91,-50 788.91,-50"/>
<polygon fill="#758297" stroke="#758297" stroke-width="1.8" points="792.14,-47.2 784.14,-50 792.14,-52.8 792.14,-47.2"/>
</g>
<!-- r2p1&#45;&gt;r2p2 -->
<g id="edge5" class="edge">
<title>r2p1&#45;&gt;r2p2</title>
<path fill="none" stroke="#758297" stroke-width="1.8" d="M489.58,-50C483.99,-50 463.98,-50 458.46,-50"/>
</g>
<!-- r2p2&#45;&gt;n4 -->
<g id="edge6" class="edge">
<title>r2p2&#45;&gt;n4</title>
<path fill="none" stroke="#758297" stroke-width="1.8" d="M455.74,-50C455.74,-50 454.91,-50 454.91,-50"/>
<polygon fill="#758297" stroke="#758297" stroke-width="1.8" points="458.14,-47.2 450.14,-50 458.14,-52.8 458.14,-47.2"/>
</g>
<!-- r3p1&#45;&gt;r3p2 -->
<g id="edge8" class="edge">
<title>r3p1&#45;&gt;r3p2</title>
<path fill="none" stroke="#758297" stroke-width="1.8" d="M656.76,-133C640.44,-133 473.79,-133 458.21,-133"/>
</g>
<!-- r3p2&#45;&gt;n4 -->
<g id="edge9" class="edge">
<title>r3p2&#45;&gt;n4</title>
<path fill="none" stroke="#758297" stroke-width="1.8" d="M457.04,-131.63C457.04,-122.85 457.04,-76 457.04,-76 457.04,-76 456.06,-76 456.06,-76"/>
<polygon fill="#758297" stroke="#758297" stroke-width="1.8" points="457.92,-73.2 449.92,-76 457.92,-78.8 457.92,-73.2"/>
</g>
<!-- r4p1&#45;&gt;r4p2 -->
<g id="edge11" class="edge">
<title>r4p1&#45;&gt;r4p2</title>
<path fill="none" stroke="#758297" stroke-width="1.8" d="M959.5,-216C965.09,-216 985.1,-216 990.62,-216"/>
</g>
<!-- r4p2&#45;&gt;n3 -->
<g id="edge12" class="edge">
<title>r4p2&#45;&gt;n3</title>
<path fill="none" stroke="#758297" stroke-width="1.8" d="M993.34,-216C993.34,-216 994.17,-216 994.17,-216"/>
<polygon fill="#758297" stroke="#758297" stroke-width="1.8" points="990.94,-218.8 998.94,-216 990.94,-213.2 990.94,-218.8"/>
</g>
<!-- r5p1&#45;&gt;r5p2 -->
<g id="edge14" class="edge">
<title>r5p1&#45;&gt;r5p2</title>
<path fill="none" stroke="#758297" stroke-width="1.8" d="M625.5,-216C631.09,-216 651.1,-216 656.62,-216"/>
</g>
<!-- r5p2&#45;&gt;n2 -->
<g id="edge15" class="edge">
<title>r5p2&#45;&gt;n2</title>
<path fill="none" stroke="#758297" stroke-width="1.8" d="M659.34,-216C659.34,-216 660.17,-216 660.17,-216"/>
<polygon fill="#758297" stroke="#758297" stroke-width="1.8" points="656.94,-218.8 664.94,-216 656.94,-213.2 656.94,-218.8"/>
</g>
<!-- r6p1&#45;&gt;r6p2 -->
<g id="edge17" class="edge">
<title>r6p1&#45;&gt;r6p2</title>
<path fill="none" stroke="#758297" stroke-width="1.8" d="M291.5,-216C297.09,-216 317.1,-216 322.62,-216"/>
</g>
<!-- r6p2&#45;&gt;n1 -->
<g id="edge18" class="edge">
<title>r6p2&#45;&gt;n1</title>
<path fill="none" stroke="#758297" stroke-width="1.8" d="M325.34,-216C325.34,-216 326.17,-216 326.17,-216"/>
<polygon fill="#758297" stroke="#758297" stroke-width="1.8" points="322.94,-218.8 330.94,-216 322.94,-213.2 322.94,-218.8"/>
</g>
<!-- n0 -->
<g id="node1" class="node">
<title>n0</title>
<path fill="#ffffff" stroke="#5b8def" d="M268.08,-266.08C268.08,-266.08 12,-266.08 12,-266.08 6,-266.08 0,-260.08 0,-254.08 0,-254.08 0,-178 0,-178 0,-172 6,-166 12,-166 12,-166 268.08,-166 268.08,-166 274.08,-166 280.08,-172 280.08,-178 280.08,-178 280.08,-254.08 280.08,-254.08 280.08,-260.08 274.08,-266.08 268.08,-266.08"/>
<text xml:space="preserve" text-anchor="middle" x="140.04" y="-211.69" font-family="Architects Daughter" font-size="18.00">@Scheduled trigger</text>
</g>
<!-- n1 -->
<g id="node2" class="node">
<title>n1</title>
<path fill="#ffffff" stroke="#58a978" d="M602.08,-266.08C602.08,-266.08 346,-266.08 346,-266.08 340,-266.08 334,-260.08 334,-254.08 334,-254.08 334,-178 334,-178 334,-172 340,-166 346,-166 346,-166 602.08,-166 602.08,-166 608.08,-166 614.08,-172 614.08,-178 614.08,-178 614.08,-254.08 614.08,-254.08 614.08,-260.08 608.08,-266.08 602.08,-266.08"/>
<text xml:space="preserve" text-anchor="middle" x="474.04" y="-211.69" font-family="Architects Daughter" font-size="18.00">@LeaderElection job</text>
</g>
<!-- n2 -->
<g id="node3" class="node">
<title>n2</title>
<path fill="#ffffff" stroke="#d6a441" d="M936.08,-266.08C936.08,-266.08 680,-266.08 680,-266.08 674,-266.08 668,-260.08 668,-254.08 668,-254.08 668,-178 668,-178 668,-172 674,-166 680,-166 680,-166 936.08,-166 936.08,-166 942.08,-166 948.08,-172 948.08,-178 948.08,-178 948.08,-254.08 948.08,-254.08 948.08,-260.08 942.08,-266.08 936.08,-266.08"/>
<text xml:space="preserve" text-anchor="middle" x="808.04" y="-211.69" font-family="Architects Daughter" font-size="18.00">Spring Boot app</text>
</g>
<!-- n3 -->
<g id="node4" class="node">
<title>n3</title>
<path fill="#ffffff" stroke="#dc6b82" d="M1270.08,-266.08C1270.08,-266.08 1014,-266.08 1014,-266.08 1008,-266.08 1002,-260.08 1002,-254.08 1002,-254.08 1002,-178 1002,-178 1002,-172 1008,-166 1014,-166 1014,-166 1270.08,-166 1270.08,-166 1276.08,-166 1282.08,-172 1282.08,-178 1282.08,-178 1282.08,-254.08 1282.08,-254.08 1282.08,-260.08 1276.08,-266.08 1270.08,-266.08"/>
<text xml:space="preserve" text-anchor="middle" x="1142.04" y="-211.69" font-family="Architects Daughter" font-size="18.00">Redis leader lock</text>
</g>
<!-- n4 -->
<g id="node5" class="node">
<title>n4</title>
<path fill="#ffffff" stroke="#45a7a1" d="M435.08,-100.08C435.08,-100.08 179,-100.08 179,-100.08 173,-100.08 167,-94.08 167,-88.08 167,-88.08 167,-12 167,-12 167,-6 173,0 179,0 179,0 435.08,0 435.08,0 441.08,0 447.08,-6 447.08,-12 447.08,-12 447.08,-88.08 447.08,-88.08 447.08,-94.08 441.08,-100.08 435.08,-100.08"/>
<text xml:space="preserve" text-anchor="middle" x="307.04" y="-45.69" font-family="Architects Daughter" font-size="18.00">/actuator/prometheus</text>
</g>
<!-- n5 -->
<g id="node6" class="node">
<title>n5</title>
<path fill="#ffffff" stroke="#8a72d6" d="M769.08,-100.08C769.08,-100.08 513,-100.08 513,-100.08 507,-100.08 501,-94.08 501,-88.08 501,-88.08 501,-12 501,-12 501,-6 507,0 513,0 513,0 769.08,0 769.08,0 775.08,0 781.08,-6 781.08,-12 781.08,-12 781.08,-88.08 781.08,-88.08 781.08,-94.08 775.08,-100.08 769.08,-100.08"/>
<text xml:space="preserve" text-anchor="middle" x="641.04" y="-45.69" font-family="Architects Daughter" font-size="18.00">Prometheus</text>
</g>
<!-- n6 -->
<g id="node7" class="node">
<title>n6</title>
<path fill="#ffffff" stroke="#b88a44" d="M1103.08,-100.08C1103.08,-100.08 847,-100.08 847,-100.08 841,-100.08 835,-94.08 835,-88.08 835,-88.08 835,-12 835,-12 835,-6 841,0 847,0 847,0 1103.08,0 1103.08,0 1109.08,0 1115.08,-6 1115.08,-12 1115.08,-12 1115.08,-88.08 1115.08,-88.08 1115.08,-94.08 1109.08,-100.08 1103.08,-100.08"/>
<text xml:space="preserve" text-anchor="middle" x="975.04" y="-45.69" font-family="Architects Daughter" font-size="18.00">Grafana dashboard</text>
</g>
<!-- r1p1 -->
<!-- r1p2 -->
<!-- r2p1 -->
<!-- r2p2 -->
<!-- r3p1 -->
<!-- r3p2 -->
<!-- r4p1 -->
<!-- r4p2 -->
<!-- r5p1 -->
<!-- r5p2 -->
<!-- r6p1 -->
<!-- r6p2 -->
</g>
</svg>
