<?xml version="1.0" encoding="UTF-8" standalone="no"?>
<!DOCTYPE svg PUBLIC "-//W3C//DTD SVG 1.1//EN"
 "http://www.w3.org/Graphics/SVG/1.1/DTD/svg11.dtd">
<!-- Generated by graphviz version 15.0.0 (20260523.1842)
 -->
<!-- Title: examples&#45;virtual&#45;thread&#45;runner&#45;architecture&#45;01 Pages: 1 -->
<svg width="1518pt" height="136pt"
 viewBox="0.00 0.00 1518.00 136.00" xmlns="http://www.w3.org/2000/svg" xmlns:xlink="http://www.w3.org/1999/xlink">
<g id="graph0" class="graph" transform="scale(1 1) rotate(0) translate(4 132)">
<title>examples&#45;virtual&#45;thread&#45;runner&#45;architecture&#45;01</title>
<!-- trigger -->
<g id="node1" class="node">
<title>trigger</title>
<path fill="#f8fafc" stroke="#94a3b8" d="M161.5,-77C161.5,-77 12,-77 12,-77 6,-77 0,-71 0,-65 0,-65 0,-53 0,-53 0,-47 6,-41 12,-41 12,-41 161.5,-41 161.5,-41 167.5,-41 173.5,-47 173.5,-53 173.5,-53 173.5,-65 173.5,-65 173.5,-71 167.5,-77 161.5,-77"/>
<text xml:space="preserve" text-anchor="middle" x="86.75" y="-53.58" font-family="Comic Mono" font-size="14.00">Blocking Task Trigger</text>
</g>
<!-- nodeA -->
<g id="node2" class="node">
<title>nodeA</title>
<path fill="#f8fafc" stroke="#94a3b8" d="M384.5,-119C384.5,-119 272.5,-119 272.5,-119 266.5,-119 260.5,-113 260.5,-107 260.5,-107 260.5,-95 260.5,-95 260.5,-89 266.5,-83 272.5,-83 272.5,-83 384.5,-83 384.5,-83 390.5,-83 396.5,-89 396.5,-95 396.5,-95 396.5,-107 396.5,-107 396.5,-113 390.5,-119 384.5,-119"/>
<text xml:space="preserve" text-anchor="middle" x="328.5" y="-95.58" font-family="Comic Mono" font-size="14.00">Candidate Node A</text>
</g>
<!-- trigger&#45;&gt;nodeA -->
<g id="edge1" class="edge">
<title>trigger&#45;&gt;nodeA</title>
<path fill="none" stroke="#758297" d="M173.76,-68C230.75,-68 294.75,-68 294.75,-68 294.75,-68 294.75,-71.06 294.75,-71.06"/>
<polygon fill="#758297" stroke="#758297" points="291.25,-71.06 294.75,-81.06 298.25,-71.06 291.25,-71.06"/>
<text xml:space="preserve" text-anchor="middle" x="217" y="-98.5" font-family="Comic Mono" font-size="10.00">call</text>
</g>
<!-- nodeB -->
<g id="node3" class="node">
<title>nodeB</title>
<path fill="#f8fafc" stroke="#94a3b8" d="M384.5,-36C384.5,-36 272.5,-36 272.5,-36 266.5,-36 260.5,-30 260.5,-24 260.5,-24 260.5,-12 260.5,-12 260.5,-6 266.5,0 272.5,0 272.5,0 384.5,0 384.5,0 390.5,0 396.5,-6 396.5,-12 396.5,-12 396.5,-24 396.5,-24 396.5,-30 390.5,-36 384.5,-36"/>
<text xml:space="preserve" text-anchor="middle" x="328.5" y="-12.57" font-family="Comic Mono" font-size="14.00">Candidate Node B</text>
</g>
<!-- trigger&#45;&gt;nodeB -->
<g id="edge2" class="edge">
<title>trigger&#45;&gt;nodeB</title>
<path fill="none" stroke="#758297" d="M173.78,-50C243.15,-50 328.75,-50 328.75,-50 328.75,-50 328.75,-47.76 328.75,-47.76"/>
<polygon fill="#758297" stroke="#758297" points="332.25,-47.76 328.75,-37.76 325.25,-47.76 332.25,-47.76"/>
<text xml:space="preserve" text-anchor="middle" x="217" y="-29.5" font-family="Comic Mono" font-size="10.00">call</text>
</g>
<!-- coordinator -->
<g id="node4" class="node">
<title>coordinator</title>
<path fill="#f8fafc" stroke="#94a3b8" d="M630,-77C630,-77 495.5,-77 495.5,-77 489.5,-77 483.5,-71 483.5,-65 483.5,-65 483.5,-53 483.5,-53 483.5,-47 489.5,-41 495.5,-41 495.5,-41 630,-41 630,-41 636,-41 642,-47 642,-53 642,-53 642,-65 642,-65 642,-71 636,-77 630,-77"/>
<text xml:space="preserve" text-anchor="middle" x="562.75" y="-53.58" font-family="Comic Mono" font-size="14.00">VirtualThreadRunner</text>
</g>
<!-- nodeA&#45;&gt;coordinator -->
<g id="edge3" class="edge">
<title>nodeA&#45;&gt;coordinator</title>
<path fill="none" stroke="#758297" d="M396.88,-87.5C466.03,-87.5 562.75,-87.5 562.75,-87.5 562.75,-87.5 562.75,-86.47 562.75,-86.47"/>
<polygon fill="#758297" stroke="#758297" points="566.25,-88.72 562.75,-78.72 559.25,-88.72 566.25,-88.72"/>
<text xml:space="preserve" text-anchor="middle" x="440" y="-98.5" font-family="Comic Mono" font-size="10.00">call</text>
</g>
<!-- nodeB&#45;&gt;coordinator -->
<g id="edge4" class="edge">
<title>nodeB&#45;&gt;coordinator</title>
<path fill="none" stroke="#758297" d="M362.75,-36.1C362.75,-47.09 362.75,-59 362.75,-59 362.75,-59 471.62,-59 471.62,-59"/>
<polygon fill="#758297" stroke="#758297" points="471.62,-62.5 481.62,-59 471.62,-55.5 471.62,-62.5"/>
<text xml:space="preserve" text-anchor="middle" x="440" y="-29.5" font-family="Comic Mono" font-size="10.00">call</text>
</g>
<!-- elector -->
<g id="node6" class="node">
<title>elector</title>
<path fill="#f8fafc" stroke="#94a3b8" d="M959.5,-128C959.5,-128 772.5,-128 772.5,-128 766.5,-128 760.5,-122 760.5,-116 760.5,-116 760.5,-104 760.5,-104 760.5,-98 766.5,-92 772.5,-92 772.5,-92 959.5,-92 959.5,-92 965.5,-92 971.5,-98 971.5,-104 971.5,-104 971.5,-116 971.5,-116 971.5,-122 965.5,-128 959.5,-128"/>
<text xml:space="preserve" text-anchor="middle" x="866" y="-104.58" font-family="Comic Mono" font-size="14.00">VirtualThreadLeaderElector</text>
</g>
<!-- coordinator&#45;&gt;elector -->
<g id="edge5" class="edge">
<title>coordinator&#45;&gt;elector</title>
<path fill="none" stroke="#758297" d="M642.37,-66.33C702.87,-66.33 775.75,-66.33 775.75,-66.33 775.75,-66.33 775.75,-80.22 775.75,-80.22"/>
<polygon fill="#758297" stroke="#758297" points="772.25,-80.22 775.75,-90.22 779.25,-80.22 772.25,-80.22"/>
<text xml:space="preserve" text-anchor="middle" x="701.25" y="-102.5" font-family="Comic Mono" font-size="10.00">dependency</text>
</g>
<!-- work -->
<g id="node8" class="node">
<title>work</title>
<path fill="#f8fafc" stroke="#94a3b8" d="M929.5,-45C929.5,-45 802.5,-45 802.5,-45 796.5,-45 790.5,-39 790.5,-33 790.5,-33 790.5,-21 790.5,-21 790.5,-15 796.5,-9 802.5,-9 802.5,-9 929.5,-9 929.5,-9 935.5,-9 941.5,-15 941.5,-21 941.5,-21 941.5,-33 941.5,-33 941.5,-39 935.5,-45 929.5,-45"/>
<text xml:space="preserve" text-anchor="middle" x="866" y="-21.57" font-family="Comic Mono" font-size="14.00">Blocking Task Body</text>
</g>
<!-- coordinator&#45;&gt;work -->
<g id="edge7" class="edge">
<title>coordinator&#45;&gt;work</title>
<path fill="none" stroke="#758297" d="M642.36,-55.67C732.13,-55.67 865.75,-55.67 865.75,-55.67 865.75,-55.67 865.75,-54.63 865.75,-54.63"/>
<polygon fill="#758297" stroke="#758297" points="869.25,-56.83 865.75,-46.83 862.25,-56.83 869.25,-56.83"/>
<text xml:space="preserve" text-anchor="middle" x="701.25" y="-29.5" font-family="Comic Mono" font-size="10.00">success</text>
</g>
<!-- backend -->
<g id="node5" class="node">
<title>backend</title>
<path fill="#f8fafc" stroke="#94a3b8" d="M1214,-128C1214,-128 1102,-128 1102,-128 1096,-128 1090,-122 1090,-116 1090,-116 1090,-104 1090,-104 1090,-98 1096,-92 1102,-92 1102,-92 1214,-92 1214,-92 1220,-92 1226,-98 1226,-104 1226,-104 1226,-116 1226,-116 1226,-122 1220,-128 1214,-128"/>
<text xml:space="preserve" text-anchor="middle" x="1158" y="-104.58" font-family="Comic Mono" font-size="14.00">local lock state</text>
</g>
<!-- recovery -->
<g id="node7" class="node">
<title>recovery</title>
<path fill="#f8fafc" stroke="#94a3b8" d="M1497.75,-128C1497.75,-128 1340.75,-128 1340.75,-128 1334.75,-128 1328.75,-122 1328.75,-116 1328.75,-116 1328.75,-104 1328.75,-104 1328.75,-98 1334.75,-92 1340.75,-92 1340.75,-92 1497.75,-92 1497.75,-92 1503.75,-92 1509.75,-98 1509.75,-104 1509.75,-104 1509.75,-116 1509.75,-116 1509.75,-122 1503.75,-128 1497.75,-128"/>
<text xml:space="preserve" text-anchor="middle" x="1419.25" y="-104.58" font-family="Comic Mono" font-size="14.00">Virtual Thread Release</text>
</g>
<!-- backend&#45;&gt;recovery -->
<g id="edge8" class="edge">
<title>backend&#45;&gt;recovery</title>
<path fill="none" stroke="#758297" d="M1226.3,-110C1226.3,-110 1317.22,-110 1317.22,-110"/>
<polygon fill="#758297" stroke="#758297" points="1317.22,-113.5 1327.22,-110 1317.22,-106.5 1317.22,-113.5"/>
<text xml:space="preserve" text-anchor="middle" x="1277.38" y="-112.5" font-family="Comic Mono" font-size="10.00">release</text>
</g>
<!-- elector&#45;&gt;backend -->
<g id="edge6" class="edge">
<title>elector&#45;&gt;backend</title>
<path fill="none" stroke="#758297" d="M971.83,-110C971.83,-110 1078.29,-110 1078.29,-110"/>
<polygon fill="#758297" stroke="#758297" points="1078.29,-113.5 1088.29,-110 1078.29,-106.5 1078.29,-113.5"/>
<text xml:space="preserve" text-anchor="middle" x="1030.75" y="-112.5" font-family="Comic Mono" font-size="10.00">contention</text>
</g>
</g>
</svg>
