<?xml version="1.0" encoding="UTF-8" standalone="no"?>
<!DOCTYPE svg PUBLIC "-//W3C//DTD SVG 1.1//EN"
 "http://www.w3.org/Graphics/SVG/1.1/DTD/svg11.dtd">
<!-- Generated by graphviz version 15.0.0 (20260523.1842)
 -->
<!-- Title: examples&#45;migration&#45;gate&#45;sequence&#45;01 Pages: 1 -->
<svg width="1602pt" height="162pt"
 viewBox="0.00 0.00 1602.00 162.00" xmlns="http://www.w3.org/2000/svg" xmlns:xlink="http://www.w3.org/1999/xlink">
<g id="graph0" class="graph" transform="scale(1 1) rotate(0) translate(4 133.5)">
<title>examples&#45;migration&#45;gate&#45;sequence&#45;01</title>
<text xml:space="preserve" text-anchor="middle" x="797.08" y="-112.2" font-family="Times,serif" font-size="14.00">migration gate Sequence Flow</text>
<!-- n0&#45;&gt;n3 -->
<g id="edge1" class="edge">
<title>n0&#45;&gt;n3</title>
<path fill="none" stroke="#758297" stroke-width="1.8" d="M181.35,-72.28C181.35,-86.29 181.35,-99 181.35,-99 181.35,-99 1521.62,-99 1521.62,-99 1521.62,-99 1521.62,-83.01 1521.62,-83.01"/>
<polygon fill="#758297" stroke="#758297" stroke-width="1.8" points="1524.42,-83.01 1521.62,-75.01 1518.82,-83.01 1524.42,-83.01"/>
</g>
<!-- n0&#45;&gt;n3 -->
<g id="edge4" class="edge">
<title>n0&#45;&gt;n3</title>
<path fill="none" stroke="#758297" stroke-width="1.8" d="M217.62,-72.32C217.62,-82.09 217.62,-90 217.62,-90 217.62,-90 1497.44,-90 1497.44,-90 1497.44,-90 1497.44,-83.04 1497.44,-83.04"/>
<polygon fill="#758297" stroke="#758297" stroke-width="1.8" points="1500.24,-83.04 1497.44,-75.04 1494.64,-83.04 1500.24,-83.04"/>
</g>
<!-- n0&#45;&gt;n3 -->
<g id="edge8" class="edge">
<title>n0&#45;&gt;n3</title>
<path fill="none" stroke="#758297" stroke-width="1.8" d="M253.89,-72.25C253.89,-80.56 253.89,-87 253.89,-87 253.89,-87 1473.26,-87 1473.26,-87 1473.26,-87 1473.26,-82.97 1473.26,-82.97"/>
<polygon fill="#758297" stroke="#758297" stroke-width="1.8" points="1476.06,-82.97 1473.26,-74.97 1470.46,-82.97 1476.06,-82.97"/>
</g>
<!-- n0&#45;&gt;n3 -->
<g id="edge10" class="edge">
<title>n0&#45;&gt;n3</title>
<path fill="none" stroke="#758297" stroke-width="1.8" d="M108.81,-72.12C108.81,-88.81 108.81,-105 108.81,-105 108.81,-105 1569.98,-105 1569.98,-105 1569.98,-105 1569.98,-82.84 1569.98,-82.84"/>
<polygon fill="#758297" stroke="#758297" stroke-width="1.8" points="1572.78,-82.84 1569.98,-74.84 1567.18,-82.84 1572.78,-82.84"/>
</g>
<!-- n0&#45;&gt;n3 -->
<g id="edge11" class="edge">
<title>n0&#45;&gt;n3</title>
<path fill="none" stroke="#758297" stroke-width="1.8" d="M145.08,-72.47C145.08,-87.74 145.08,-102 145.08,-102 145.08,-102 1545.8,-102 1545.8,-102 1545.8,-102 1545.8,-83.2 1545.8,-83.2"/>
<polygon fill="#758297" stroke="#758297" stroke-width="1.8" points="1548.6,-83.2 1545.8,-75.2 1543,-83.2 1548.6,-83.2"/>
</g>
<!-- n1&#45;&gt;n3 -->
<g id="edge2" class="edge">
<title>n1&#45;&gt;n3</title>
<path fill="none" stroke="#758297" stroke-width="1.8" d="M666.83,-72.44C666.83,-74.05 666.83,-75 666.83,-75 666.83,-75 1376.54,-75 1376.54,-75 1376.54,-75 1376.54,-74.74 1376.54,-74.74"/>
<polygon fill="#758297" stroke="#758297" stroke-width="1.8" points="1379.34,-83.17 1376.54,-75.17 1373.74,-83.17 1379.34,-83.17"/>
</g>
<!-- n1&#45;&gt;n3 -->
<g id="edge5" class="edge">
<title>n1&#45;&gt;n3</title>
<path fill="none" stroke="#758297" stroke-width="1.8" d="M608.8,-72.16C608.8,-75.69 608.8,-78 608.8,-78 608.8,-78 1400.72,-78 1400.72,-78 1400.72,-78 1400.72,-77.42 1400.72,-77.42"/>
<polygon fill="#758297" stroke="#758297" stroke-width="1.8" points="1403.52,-82.88 1400.72,-74.88 1397.92,-82.88 1403.52,-82.88"/>
</g>
<!-- n1&#45;&gt;n3 -->
<g id="edge13" class="edge">
<title>n1&#45;&gt;n3</title>
<path fill="none" stroke="#758297" stroke-width="1.8" d="M492.73,-72.38C492.73,-79.08 492.73,-84 492.73,-84 492.73,-84 1449.08,-84 1449.08,-84 1449.08,-84 1449.08,-82.84 1449.08,-82.84"/>
<polygon fill="#758297" stroke="#758297" stroke-width="1.8" points="1451.88,-83.1 1449.08,-75.1 1446.28,-83.1 1451.88,-83.1"/>
</g>
<!-- n1&#45;&gt;n3 -->
<g id="edge15" class="edge">
<title>n1&#45;&gt;n3</title>
<path fill="none" stroke="#758297" stroke-width="1.8" d="M550.76,-72.32C550.76,-77.44 550.76,-81 550.76,-81 550.76,-81 1424.9,-81 1424.9,-81 1424.9,-81 1424.9,-80.13 1424.9,-80.13"/>
<polygon fill="#758297" stroke="#758297" stroke-width="1.8" points="1427.7,-83.05 1424.9,-75.05 1422.1,-83.05 1427.7,-83.05"/>
</g>
<!-- n2&#45;&gt;n3 -->
<g id="edge3" class="edge">
<title>n2&#45;&gt;n3</title>
<path fill="none" stroke="#758297" stroke-width="1.8" d="M1159.73,-48C1159.73,-48 1293.14,-48 1293.14,-48"/>
<polygon fill="#758297" stroke="#758297" stroke-width="1.8" points="1293.14,-50.8 1301.14,-48 1293.14,-45.2 1293.14,-50.8"/>
</g>
<!-- n2&#45;&gt;n3 -->
<g id="edge6" class="edge">
<title>n2&#45;&gt;n3</title>
<path fill="none" stroke="#758297" stroke-width="1.8" d="M1159.73,-36C1159.73,-36 1293.14,-36 1293.14,-36"/>
<polygon fill="#758297" stroke="#758297" stroke-width="1.8" points="1293.14,-38.8 1301.14,-36 1293.14,-33.2 1293.14,-38.8"/>
</g>
<!-- n2&#45;&gt;n3 -->
<g id="edge17" class="edge">
<title>n2&#45;&gt;n3</title>
<path fill="none" stroke="#758297" stroke-width="1.8" d="M1159.73,-24C1159.73,-24 1293.14,-24 1293.14,-24"/>
<polygon fill="#758297" stroke="#758297" stroke-width="1.8" points="1293.14,-26.8 1301.14,-24 1293.14,-21.2 1293.14,-26.8"/>
</g>
<!-- n3&#45;&gt;n0 -->
<g id="edge7" class="edge">
<title>n3&#45;&gt;n0</title>
<path fill="none" stroke="#758297" stroke-width="1.8" stroke-dasharray="5,2" d="M1352.36,-72.29C1352.36,-84.92 1352.36,-96 1352.36,-96 1352.36,-96 36.27,-96 36.27,-96 36.27,-96 36.27,-83.01 36.27,-83.01"/>
<polygon fill="#758297" stroke="#758297" stroke-width="1.8" points="39.07,-83.01 36.27,-75.01 33.47,-83.01 39.07,-83.01"/>
</g>
<!-- n3&#45;&gt;n0 -->
<g id="edge9" class="edge">
<title>n3&#45;&gt;n0</title>
<path fill="none" stroke="#758297" stroke-width="1.8" stroke-dasharray="5,2" d="M1328.18,-72.42C1328.18,-83.59 1328.18,-93 1328.18,-93 1328.18,-93 72.54,-93 72.54,-93 72.54,-93 72.54,-83.15 72.54,-83.15"/>
<polygon fill="#758297" stroke="#758297" stroke-width="1.8" points="75.34,-83.15 72.54,-75.15 69.74,-83.15 75.34,-83.15"/>
</g>
<!-- n3&#45;&gt;n1 -->
<g id="edge12" class="edge">
<title>n3&#45;&gt;n1</title>
<path fill="none" stroke="#758297" stroke-width="1.8" stroke-dasharray="5,2" d="M1400.72,0.38C1400.72,7.08 1400.72,12 1400.72,12 1400.72,12 628.14,12 628.14,12 628.14,12 628.14,10.84 628.14,10.84"/>
<polygon fill="#758297" stroke="#758297" stroke-width="1.8" points="625.34,11.1 628.14,3.1 630.94,11.1 625.34,11.1"/>
</g>
<!-- n3&#45;&gt;n1 -->
<g id="edge14" class="edge">
<title>n3&#45;&gt;n1</title>
<path fill="none" stroke="#758297" stroke-width="1.8" stroke-dasharray="5,2" d="M1497.44,0.29C1497.44,12.92 1497.44,24 1497.44,24 1497.44,24 531.42,24 531.42,24 531.42,24 531.42,11.01 531.42,11.01"/>
<polygon fill="#758297" stroke="#758297" stroke-width="1.8" points="528.62,11.01 531.42,3.01 534.22,11.01 528.62,11.01"/>
</g>
<!-- n3&#45;&gt;n2 -->
<g id="edge16" class="edge">
<title>n3&#45;&gt;n2</title>
<path fill="none" stroke="#758297" stroke-width="1.8" stroke-dasharray="5,2" d="M1303.73,-12C1303.73,-12 1170.32,-12 1170.32,-12"/>
<polygon fill="#758297" stroke="#758297" stroke-width="1.8" points="1170.32,-9.2 1162.32,-12 1170.32,-14.8 1170.32,-9.2"/>
</g>
<!-- n3&#45;&gt;n2 -->
<g id="edge18" class="edge">
<title>n3&#45;&gt;n2</title>
<path fill="none" stroke="#758297" stroke-width="1.8" stroke-dasharray="5,2" d="M1303.73,-60C1303.73,-60 1170.32,-60 1170.32,-60"/>
<polygon fill="#758297" stroke="#758297" stroke-width="1.8" points="1170.32,-57.2 1162.32,-60 1170.32,-62.8 1170.32,-57.2"/>
</g>
<!-- n0 -->
<g id="node1" class="node">
<title>n0</title>
<path fill="#ffffff" stroke="#5b8def" d="M278.16,-72C278.16,-72 12,-72 12,-72 6,-72 0,-66 0,-60 0,-60 0,-12 0,-12 0,-6 6,0 12,0 12,0 278.16,0 278.16,0 284.16,0 290.16,-6 290.16,-12 290.16,-12 290.16,-60 290.16,-60 290.16,-66 284.16,-72 278.16,-72"/>
<text xml:space="preserve" text-anchor="middle" x="145.08" y="-31.65" font-family="Architects Daughter" font-size="18.00">pod&#45;1 (new version)</text>
</g>
<!-- n1 -->
<g id="node2" class="node">
<title>n1</title>
<path fill="#ffffff" stroke="#58a978" d="M712.86,-72C712.86,-72 446.7,-72 446.7,-72 440.7,-72 434.7,-66 434.7,-60 434.7,-60 434.7,-12 434.7,-12 434.7,-6 440.7,0 446.7,0 446.7,0 712.86,0 712.86,0 718.86,0 724.86,-6 724.86,-12 724.86,-12 724.86,-60 724.86,-60 724.86,-66 718.86,-72 712.86,-72"/>
<text xml:space="preserve" text-anchor="middle" x="579.78" y="-31.65" font-family="Architects Daughter" font-size="18.00">pod&#45;2 (new version)</text>
</g>
<!-- n2 -->
<g id="node3" class="node">
<title>n2</title>
<path fill="#ffffff" stroke="#d6a441" d="M1147.46,-72C1147.46,-72 881.3,-72 881.3,-72 875.3,-72 869.3,-66 869.3,-60 869.3,-60 869.3,-12 869.3,-12 869.3,-6 875.3,0 881.3,0 881.3,0 1147.46,0 1147.46,0 1153.46,0 1159.46,-6 1159.46,-12 1159.46,-12 1159.46,-60 1159.46,-60 1159.46,-66 1153.46,-72 1147.46,-72"/>
<text xml:space="preserve" text-anchor="middle" x="1014.38" y="-31.65" font-family="Architects Daughter" font-size="18.00">pod&#45;3 (new version)</text>
</g>
<!-- n3 -->
<g id="node4" class="node">
<title>n3</title>
<path fill="#ffffff" stroke="#dc6b82" d="M1582.16,-72C1582.16,-72 1316,-72 1316,-72 1310,-72 1304,-66 1304,-60 1304,-60 1304,-12 1304,-12 1304,-6 1310,0 1316,0 1316,0 1582.16,0 1582.16,0 1588.16,0 1594.16,-6 1594.16,-12 1594.16,-12 1594.16,-60 1594.16,-60 1594.16,-66 1588.16,-72 1582.16,-72"/>
<text xml:space="preserve" text-anchor="middle" x="1449.08" y="-31.65" font-family="Architects Daughter" font-size="18.00">DB</text>
</g>
</g>
</svg>
