<?xml version="1.0" encoding="UTF-8" standalone="no"?>
<!DOCTYPE svg PUBLIC "-//W3C//DTD SVG 1.1//EN"
 "http://www.w3.org/Graphics/SVG/1.1/DTD/svg11.dtd">
<!-- Generated by graphviz version 15.0.0 (20260523.1842)
 -->
<!-- Title: examples&#45;virtual&#45;thread&#45;runner&#45;scenario&#45;01 Pages: 1 -->
<svg width="905pt" height="210pt"
 viewBox="0.00 0.00 905.00 210.00" xmlns="http://www.w3.org/2000/svg" xmlns:xlink="http://www.w3.org/1999/xlink">
<g id="graph0" class="graph" transform="scale(1 1) rotate(0) translate(4 206)">
<title>examples&#45;virtual&#45;thread&#45;runner&#45;scenario&#45;01</title>
<!-- tick -->
<g id="node1" class="node">
<title>tick</title>
<path fill="#f8fafc" stroke="#94a3b8" d="M161.5,-119C161.5,-119 12,-119 12,-119 6,-119 0,-113 0,-107 0,-107 0,-95 0,-95 0,-89 6,-83 12,-83 12,-83 161.5,-83 161.5,-83 167.5,-83 173.5,-89 173.5,-95 173.5,-95 173.5,-107 173.5,-107 173.5,-113 167.5,-119 161.5,-119"/>
<text xml:space="preserve" text-anchor="middle" x="86.75" y="-95.58" font-family="Comic Mono" font-size="14.00">Blocking Task Trigger</text>
</g>
<!-- nodeA -->
<g id="node2" class="node">
<title>nodeA</title>
<path fill="#f8fafc" stroke="#94a3b8" d="M347,-202C347,-202 272.5,-202 272.5,-202 266.5,-202 260.5,-196 260.5,-190 260.5,-190 260.5,-178 260.5,-178 260.5,-172 266.5,-166 272.5,-166 272.5,-166 347,-166 347,-166 353,-166 359,-172 359,-178 359,-178 359,-190 359,-190 359,-196 353,-202 347,-202"/>
<text xml:space="preserve" text-anchor="middle" x="309.75" y="-178.57" font-family="Comic Mono" font-size="14.00">Candidate A</text>
</g>
<!-- tick&#45;&gt;nodeA -->
<g id="edge1" class="edge">
<title>tick&#45;&gt;nodeA</title>
<path fill="none" stroke="#758297" d="M86.25,-119.42C86.25,-143.87 86.25,-184 86.25,-184 86.25,-184 248.63,-184 248.63,-184"/>
<polygon fill="#758297" stroke="#758297" points="248.63,-187.5 258.63,-184 248.63,-180.5 248.63,-187.5"/>
<text xml:space="preserve" text-anchor="middle" x="217" y="-176.5" font-family="Comic Mono" font-size="10.00">call</text>
</g>
<!-- nodeB -->
<g id="node3" class="node">
<title>nodeB</title>
<path fill="#f8fafc" stroke="#94a3b8" d="M347,-119C347,-119 272.5,-119 272.5,-119 266.5,-119 260.5,-113 260.5,-107 260.5,-107 260.5,-95 260.5,-95 260.5,-89 266.5,-83 272.5,-83 272.5,-83 347,-83 347,-83 353,-83 359,-89 359,-95 359,-95 359,-107 359,-107 359,-113 353,-119 347,-119"/>
<text xml:space="preserve" text-anchor="middle" x="309.75" y="-95.58" font-family="Comic Mono" font-size="14.00">Candidate B</text>
</g>
<!-- tick&#45;&gt;nodeB -->
<g id="edge2" class="edge">
<title>tick&#45;&gt;nodeB</title>
<path fill="none" stroke="#758297" d="M173.93,-101C173.93,-101 248.79,-101 248.79,-101"/>
<polygon fill="#758297" stroke="#758297" points="248.79,-104.5 258.79,-101 248.79,-97.5 248.79,-104.5"/>
<text xml:space="preserve" text-anchor="middle" x="217" y="-103.5" font-family="Comic Mono" font-size="10.00">call</text>
</g>
<!-- nodeC -->
<g id="node4" class="node">
<title>nodeC</title>
<path fill="#f8fafc" stroke="#94a3b8" d="M347,-36C347,-36 272.5,-36 272.5,-36 266.5,-36 260.5,-30 260.5,-24 260.5,-24 260.5,-12 260.5,-12 260.5,-6 266.5,0 272.5,0 272.5,0 347,0 347,0 353,0 359,-6 359,-12 359,-12 359,-24 359,-24 359,-30 353,-36 347,-36"/>
<text xml:space="preserve" text-anchor="middle" x="309.75" y="-12.57" font-family="Comic Mono" font-size="14.00">Candidate C</text>
</g>
<!-- tick&#45;&gt;nodeC -->
<g id="edge3" class="edge">
<title>tick&#45;&gt;nodeC</title>
<path fill="none" stroke="#758297" d="M86.25,-82.58C86.25,-58.13 86.25,-18 86.25,-18 86.25,-18 248.63,-18 248.63,-18"/>
<polygon fill="#758297" stroke="#758297" points="248.63,-21.5 258.63,-18 248.63,-14.5 248.63,-21.5"/>
<text xml:space="preserve" text-anchor="middle" x="217" y="-30.5" font-family="Comic Mono" font-size="10.00">call</text>
</g>
<!-- backend -->
<g id="node5" class="node">
<title>backend</title>
<path fill="#f8fafc" stroke="#94a3b8" d="M601.5,-119C601.5,-119 489.5,-119 489.5,-119 483.5,-119 477.5,-113 477.5,-107 477.5,-107 477.5,-95 477.5,-95 477.5,-89 483.5,-83 489.5,-83 489.5,-83 601.5,-83 601.5,-83 607.5,-83 613.5,-89 613.5,-95 613.5,-95 613.5,-107 613.5,-107 613.5,-113 607.5,-119 601.5,-119"/>
<text xml:space="preserve" text-anchor="middle" x="545.5" y="-95.58" font-family="Comic Mono" font-size="14.00">local lock state</text>
</g>
<!-- nodeA&#45;&gt;backend -->
<g id="edge4" class="edge">
<title>nodeA&#45;&gt;backend</title>
<path fill="none" stroke="#758297" d="M359.41,-184C428.5,-184 545.25,-184 545.25,-184 545.25,-184 545.25,-130.93 545.25,-130.93"/>
<polygon fill="#758297" stroke="#758297" points="548.75,-130.93 545.25,-120.93 541.75,-130.93 548.75,-130.93"/>
<text xml:space="preserve" text-anchor="middle" x="418.25" y="-176.5" font-family="Comic Mono" font-size="10.00">contention</text>
</g>
<!-- nodeB&#45;&gt;backend -->
<g id="edge5" class="edge">
<title>nodeB&#45;&gt;backend</title>
<path fill="none" stroke="#758297" d="M359.46,-101C359.46,-101 465.57,-101 465.57,-101"/>
<polygon fill="#758297" stroke="#758297" points="465.57,-104.5 475.57,-101 465.57,-97.5 465.57,-104.5"/>
<text xml:space="preserve" text-anchor="middle" x="418.25" y="-103.5" font-family="Comic Mono" font-size="10.00">contention</text>
</g>
<!-- nodeC&#45;&gt;backend -->
<g id="edge6" class="edge">
<title>nodeC&#45;&gt;backend</title>
<path fill="none" stroke="#758297" d="M359.41,-18C428.5,-18 545.25,-18 545.25,-18 545.25,-18 545.25,-71.07 545.25,-71.07"/>
<polygon fill="#758297" stroke="#758297" points="541.75,-71.07 545.25,-81.07 548.75,-71.07 541.75,-71.07"/>
<text xml:space="preserve" text-anchor="middle" x="418.25" y="-30.5" font-family="Comic Mono" font-size="10.00">contention</text>
</g>
<!-- recovery -->
<g id="node6" class="node">
<title>recovery</title>
<path fill="#f8fafc" stroke="#94a3b8" d="M885.25,-202C885.25,-202 728.25,-202 728.25,-202 722.25,-202 716.25,-196 716.25,-190 716.25,-190 716.25,-178 716.25,-178 716.25,-172 722.25,-166 728.25,-166 728.25,-166 885.25,-166 885.25,-166 891.25,-166 897.25,-172 897.25,-178 897.25,-178 897.25,-190 897.25,-190 897.25,-196 891.25,-202 885.25,-202"/>
<text xml:space="preserve" text-anchor="middle" x="806.75" y="-178.57" font-family="Comic Mono" font-size="14.00">Virtual Thread Release</text>
</g>
<!-- backend&#45;&gt;recovery -->
<g id="edge9" class="edge">
<title>backend&#45;&gt;recovery</title>
<path fill="none" stroke="#758297" d="M613.92,-110C666.16,-110 729.25,-110 729.25,-110 729.25,-110 729.25,-154.19 729.25,-154.19"/>
<polygon fill="#758297" stroke="#758297" points="725.75,-154.19 729.25,-164.19 732.75,-154.19 725.75,-154.19"/>
<text xml:space="preserve" text-anchor="middle" x="664.88" y="-186.5" font-family="Comic Mono" font-size="10.00">release</text>
</g>
<!-- skipped -->
<g id="node7" class="node">
<title>skipped</title>
<path fill="#f8fafc" stroke="#94a3b8" d="M840.25,-119C840.25,-119 773.25,-119 773.25,-119 767.25,-119 761.25,-113 761.25,-107 761.25,-107 761.25,-95 761.25,-95 761.25,-89 767.25,-83 773.25,-83 773.25,-83 840.25,-83 840.25,-83 846.25,-83 852.25,-89 852.25,-95 852.25,-95 852.25,-107 852.25,-107 852.25,-113 846.25,-119 840.25,-119"/>
<text xml:space="preserve" text-anchor="middle" x="806.75" y="-95.58" font-family="Comic Mono" font-size="14.00">Peers Skip</text>
</g>
<!-- backend&#45;&gt;skipped -->
<g id="edge8" class="edge">
<title>backend&#45;&gt;skipped</title>
<path fill="none" stroke="#758297" d="M613.8,-101C613.8,-101 749.53,-101 749.53,-101"/>
<polygon fill="#758297" stroke="#758297" points="749.53,-104.5 759.53,-101 749.53,-97.5 749.53,-104.5"/>
<text xml:space="preserve" text-anchor="middle" x="664.88" y="-103.5" font-family="Comic Mono" font-size="10.00">skip</text>
</g>
<!-- leader -->
<g id="node8" class="node">
<title>leader</title>
<path fill="#f8fafc" stroke="#94a3b8" d="M859,-36C859,-36 754.5,-36 754.5,-36 748.5,-36 742.5,-30 742.5,-24 742.5,-24 742.5,-12 742.5,-12 742.5,-6 748.5,0 754.5,0 754.5,0 859,0 859,0 865,0 871,-6 871,-12 871,-12 871,-24 871,-24 871,-30 865,-36 859,-36"/>
<text xml:space="preserve" text-anchor="middle" x="806.75" y="-12.57" font-family="Comic Mono" font-size="14.00">One Leader Runs</text>
</g>
<!-- backend&#45;&gt;leader -->
<g id="edge7" class="edge">
<title>backend&#45;&gt;leader</title>
<path fill="none" stroke="#758297" d="M613.77,-92C673.99,-92 752.25,-92 752.25,-92 752.25,-92 752.25,-47.81 752.25,-47.81"/>
<polygon fill="#758297" stroke="#758297" points="755.75,-47.81 752.25,-37.81 748.75,-47.81 755.75,-47.81"/>
<text xml:space="preserve" text-anchor="middle" x="664.88" y="-20.5" font-family="Comic Mono" font-size="10.00">success</text>
</g>
</g>
</svg>
