<?xml version="1.0" encoding="UTF-8" standalone="no"?>
<!DOCTYPE svg PUBLIC "-//W3C//DTD SVG 1.1//EN"
 "http://www.w3.org/Graphics/SVG/1.1/DTD/svg11.dtd">
<!-- Generated by graphviz version 15.0.0 (20260523.1842)
 -->
<!-- Title: examples&#45;ktor&#45;app&#45;architecture&#45;01 Pages: 1 -->
<svg width="1108pt" height="305pt"
 viewBox="0.00 0.00 1108.00 305.00" xmlns="http://www.w3.org/2000/svg" xmlns:xlink="http://www.w3.org/1999/xlink">
<g id="graph0" class="graph" transform="scale(1 1) rotate(0) translate(4 300.66)">
<title>examples&#45;ktor&#45;app&#45;architecture&#45;01</title>
<text xml:space="preserve" text-anchor="middle" x="549.84" y="-279.36" font-family="Times,serif" font-size="14.00">Ktor App Architecture</text>
<!-- n0&#45;&gt;r1p1 -->
<g id="edge1" class="edge">
<title>n0&#45;&gt;r1p1</title>
<path fill="none" stroke="#758297" stroke-width="1.8" d="M229.92,-136.08C238.92,-136.08 245.63,-136.08 248.42,-136.08"/>
</g>
<!-- n1&#45;&gt;r2p1 -->
<g id="edge4" class="edge">
<title>n1&#45;&gt;r2p1</title>
<path fill="none" stroke="#758297" stroke-width="1.8" d="M500.05,-136.08C516.42,-136.08 529.15,-136.08 533.36,-136.08"/>
</g>
<!-- n1&#45;&gt;r4p1 -->
<g id="edge10" class="edge">
<title>n1&#45;&gt;r4p1</title>
<path fill="none" stroke="#758297" stroke-width="1.8" d="M500.05,-136.08C516.42,-136.08 529.15,-136.08 533.36,-136.08"/>
</g>
<!-- n2&#45;&gt;r3p1 -->
<g id="edge7" class="edge">
<title>n2&#45;&gt;r3p1</title>
<path fill="none" stroke="#758297" stroke-width="1.8" d="M800.05,-226.08C816.42,-226.08 829.15,-226.08 833.36,-226.08"/>
</g>
<!-- n3&#45;&gt;r5p1 -->
<g id="edge13" class="edge">
<title>n3&#45;&gt;r5p1</title>
<path fill="none" stroke="#758297" stroke-width="1.8" d="M800.05,-46.08C816.42,-46.08 829.15,-46.08 833.36,-46.08"/>
</g>
<!-- n3&#45;&gt;r6p1 -->
<g id="edge16" class="edge">
<title>n3&#45;&gt;r6p1</title>
<path fill="none" stroke="#758297" stroke-width="1.8" d="M800.05,-46.08C816.42,-46.08 829.15,-46.08 833.36,-46.08"/>
</g>
<!-- r1p1&#45;&gt;r1p2 -->
<g id="edge2" class="edge">
<title>r1p1&#45;&gt;r1p2</title>
<path fill="none" stroke="#758297" stroke-width="1.8" d="M249.84,-136.08C249.84,-136.08 249.84,-136.08 249.84,-136.08"/>
</g>
<!-- r1p2&#45;&gt;n1 -->
<g id="edge3" class="edge">
<title>r1p2&#45;&gt;n1</title>
<path fill="none" stroke="#758297" stroke-width="1.8" d="M251.36,-136.08C252.91,-136.08 255.6,-136.08 259.17,-136.08"/>
<polygon fill="#758297" stroke="#758297" stroke-width="1.8" points="259,-138.88 267,-136.08 259,-133.28 259,-138.88"/>
</g>
<!-- r2p1&#45;&gt;r2p2 -->
<g id="edge5" class="edge">
<title>r2p1&#45;&gt;r2p2</title>
<path fill="none" stroke="#758297" stroke-width="1.8" d="M534.84,-137.64C534.84,-148.66 534.84,-214.52 534.84,-224.75"/>
</g>
<!-- r2p2&#45;&gt;n2 -->
<g id="edge6" class="edge">
<title>r2p2&#45;&gt;n2</title>
<path fill="none" stroke="#758297" stroke-width="1.8" d="M536.14,-226.08C539.24,-226.08 547.68,-226.08 559.06,-226.08"/>
<polygon fill="#758297" stroke="#758297" stroke-width="1.8" points="559.04,-228.88 567.04,-226.08 559.04,-223.28 559.04,-228.88"/>
</g>
<!-- r3p1&#45;&gt;r3p2 -->
<g id="edge8" class="edge">
<title>r3p1&#45;&gt;r3p2</title>
<path fill="none" stroke="#758297" stroke-width="1.8" d="M834.84,-226.08C834.84,-226.08 834.84,-226.08 834.84,-226.08"/>
</g>
<!-- r3p2&#45;&gt;n4 -->
<g id="edge9" class="edge">
<title>r3p2&#45;&gt;n4</title>
<path fill="none" stroke="#758297" stroke-width="1.8" d="M836.14,-226.08C839.24,-226.08 847.68,-226.08 859.06,-226.08"/>
<polygon fill="#758297" stroke="#758297" stroke-width="1.8" points="859.04,-228.88 867.04,-226.08 859.04,-223.28 859.04,-228.88"/>
</g>
<!-- r4p1&#45;&gt;r4p2 -->
<g id="edge11" class="edge">
<title>r4p1&#45;&gt;r4p2</title>
<path fill="none" stroke="#758297" stroke-width="1.8" d="M534.84,-134.52C534.84,-123.5 534.84,-57.64 534.84,-47.41"/>
</g>
<!-- r4p2&#45;&gt;n3 -->
<g id="edge12" class="edge">
<title>r4p2&#45;&gt;n3</title>
<path fill="none" stroke="#758297" stroke-width="1.8" d="M536.14,-46.08C539.24,-46.08 547.68,-46.08 559.06,-46.08"/>
<polygon fill="#758297" stroke="#758297" stroke-width="1.8" points="559.04,-48.88 567.04,-46.08 559.04,-43.28 559.04,-48.88"/>
</g>
<!-- r5p1&#45;&gt;r5p2 -->
<g id="edge14" class="edge">
<title>r5p1&#45;&gt;r5p2</title>
<path fill="none" stroke="#758297" stroke-width="1.8" d="M834.84,-47.64C834.84,-64.27 834.84,-208.92 834.84,-224.69"/>
</g>
<!-- r5p2&#45;&gt;n4 -->
<g id="edge15" class="edge">
<title>r5p2&#45;&gt;n4</title>
<path fill="none" stroke="#758297" stroke-width="1.8" d="M836.14,-226.08C839.24,-226.08 847.68,-226.08 859.06,-226.08"/>
<polygon fill="#758297" stroke="#758297" stroke-width="1.8" points="859.04,-228.88 867.04,-226.08 859.04,-223.28 859.04,-228.88"/>
</g>
<!-- r6p1&#45;&gt;r6p2 -->
<g id="edge17" class="edge">
<title>r6p1&#45;&gt;r6p2</title>
<path fill="none" stroke="#758297" stroke-width="1.8" d="M834.84,-46.08C834.84,-46.08 834.84,-46.08 834.84,-46.08"/>
</g>
<!-- r6p2&#45;&gt;n5 -->
<g id="edge18" class="edge">
<title>r6p2&#45;&gt;n5</title>
<path fill="none" stroke="#758297" stroke-width="1.8" d="M836.14,-46.08C839.24,-46.08 847.68,-46.08 859.06,-46.08"/>
<polygon fill="#758297" stroke="#758297" stroke-width="1.8" points="859.04,-48.88 867.04,-46.08 859.04,-43.28 859.04,-48.88"/>
</g>
<!-- n0 -->
<g id="node1" class="node">
<title>n0</title>
<path fill="#ffffff" stroke="#5b8def" d="M217.68,-182.16C217.68,-182.16 12,-182.16 12,-182.16 6,-182.16 0,-176.16 0,-170.16 0,-170.16 0,-102 0,-102 0,-96 6,-90 12,-90 12,-90 217.68,-90 217.68,-90 223.68,-90 229.68,-96 229.68,-102 229.68,-102 229.68,-170.16 229.68,-170.16 229.68,-176.16 223.68,-182.16 217.68,-182.16"/>
<text xml:space="preserve" text-anchor="middle" x="114.84" y="-131.73" font-family="Architects Daughter" font-size="18.00">HTTP client</text>
</g>
<!-- n1 -->
<g id="node2" class="node">
<title>n1</title>
<path fill="#ffffff" stroke="#58a978" d="M487.68,-182.16C487.68,-182.16 282,-182.16 282,-182.16 276,-182.16 270,-176.16 270,-170.16 270,-170.16 270,-102 270,-102 270,-96 276,-90 282,-90 282,-90 487.68,-90 487.68,-90 493.68,-90 499.68,-96 499.68,-102 499.68,-102 499.68,-170.16 499.68,-170.16 499.68,-176.16 493.68,-182.16 487.68,-182.16"/>
<text xml:space="preserve" text-anchor="middle" x="384.84" y="-131.73" font-family="Architects Daughter" font-size="18.00">Ktor CIO app</text>
</g>
<!-- n2 -->
<g id="node3" class="node">
<title>n2</title>
<path fill="#ffffff" stroke="#d6a441" d="M787.68,-272.16C787.68,-272.16 582,-272.16 582,-272.16 576,-272.16 570,-266.16 570,-260.16 570,-260.16 570,-192 570,-192 570,-186 576,-180 582,-180 582,-180 787.68,-180 787.68,-180 793.68,-180 799.68,-186 799.68,-192 799.68,-192 799.68,-260.16 799.68,-260.16 799.68,-266.16 793.68,-272.16 787.68,-272.16"/>
<text xml:space="preserve" text-anchor="middle" x="684.84" y="-221.73" font-family="Architects Daughter" font-size="18.00">Stats routes</text>
</g>
<!-- n3 -->
<g id="node4" class="node">
<title>n3</title>
<path fill="#ffffff" stroke="#dc6b82" d="M787.68,-92.16C787.68,-92.16 582,-92.16 582,-92.16 576,-92.16 570,-86.16 570,-80.16 570,-80.16 570,-12 570,-12 570,-6 576,0 582,0 582,0 787.68,0 787.68,0 793.68,0 799.68,-6 799.68,-12 799.68,-12 799.68,-80.16 799.68,-80.16 799.68,-86.16 793.68,-92.16 787.68,-92.16"/>
<text xml:space="preserve" text-anchor="middle" x="684.84" y="-41.73" font-family="Architects Daughter" font-size="18.00">LeaderElectionPlugin</text>
</g>
<!-- n4 -->
<g id="node5" class="node">
<title>n4</title>
<path fill="#ffffff" stroke="#45a7a1" d="M1087.68,-272.16C1087.68,-272.16 882,-272.16 882,-272.16 876,-272.16 870,-266.16 870,-260.16 870,-260.16 870,-192 870,-192 870,-186 876,-180 882,-180 882,-180 1087.68,-180 1087.68,-180 1093.68,-180 1099.68,-186 1099.68,-192 1099.68,-192 1099.68,-260.16 1099.68,-260.16 1099.68,-266.16 1093.68,-272.16 1087.68,-272.16"/>
<text xml:space="preserve" text-anchor="middle" x="984.84" y="-221.73" font-family="Architects Daughter" font-size="18.00">StatsAggregator</text>
</g>
<!-- n5 -->
<g id="node6" class="node">
<title>n5</title>
<path fill="#ffffff" stroke="#8a72d6" d="M1087.68,-92.16C1087.68,-92.16 882,-92.16 882,-92.16 876,-92.16 870,-86.16 870,-80.16 870,-80.16 870,-12 870,-12 870,-6 876,0 882,0 882,0 1087.68,0 1087.68,0 1093.68,0 1099.68,-6 1099.68,-12 1099.68,-12 1099.68,-80.16 1099.68,-80.16 1099.68,-86.16 1093.68,-92.16 1087.68,-92.16"/>
<text xml:space="preserve" text-anchor="middle" x="984.84" y="-41.73" font-family="Architects Daughter" font-size="18.00">Redis lock</text>
</g>
<!-- r1p1 -->
<!-- r1p2 -->
<!-- r2p1 -->
<!-- r2p2 -->
<!-- r3p1 -->
<!-- r3p2 -->
<!-- r4p1 -->
<!-- r4p2 -->
<!-- r5p1 -->
<!-- r5p2 -->
<!-- r6p1 -->
<!-- r6p2 -->
</g>
</svg>
