<?xml version="1.0" encoding="UTF-8" standalone="no"?>
<!DOCTYPE svg PUBLIC "-//W3C//DTD SVG 1.1//EN"
 "http://www.w3.org/Graphics/SVG/1.1/DTD/svg11.dtd">
<!-- Generated by graphviz version 15.0.0 (20260523.1842)
 -->
<!-- Title: examples&#45;etcd&#45;reconciler&#45;flow&#45;01 Pages: 1 -->
<svg width="1667pt" height="127pt"
 viewBox="0.00 0.00 1667.00 127.00" xmlns="http://www.w3.org/2000/svg" xmlns:xlink="http://www.w3.org/1999/xlink">
<g id="graph0" class="graph" transform="scale(1 1) rotate(0) translate(4 123)">
<title>examples&#45;etcd&#45;reconciler&#45;flow&#45;01</title>
<!-- start -->
<g id="node1" class="node">
<title>start</title>
<path fill="#f8fafc" stroke="#94a3b8" d="M109,-68C109,-68 12,-68 12,-68 6,-68 0,-62 0,-56 0,-56 0,-44 0,-44 0,-38 6,-32 12,-32 12,-32 109,-32 109,-32 115,-32 121,-38 121,-44 121,-44 121,-56 121,-56 121,-62 115,-68 109,-68"/>
<text xml:space="preserve" text-anchor="middle" x="60.5" y="-44.58" font-family="Comic Mono" font-size="14.00">Reconcile Tick</text>
</g>
<!-- validate -->
<g id="node2" class="node">
<title>validate</title>
<path fill="#f8fafc" stroke="#94a3b8" d="M384.5,-68C384.5,-68 220,-68 220,-68 214,-68 208,-62 208,-56 208,-56 208,-44 208,-44 208,-38 214,-32 220,-32 220,-32 384.5,-32 384.5,-32 390.5,-32 396.5,-38 396.5,-44 396.5,-44 396.5,-56 396.5,-56 396.5,-62 390.5,-68 384.5,-68"/>
<text xml:space="preserve" text-anchor="middle" x="302.25" y="-44.58" font-family="Comic Mono" font-size="14.00">Validate Example Inputs</text>
</g>
<!-- start&#45;&gt;validate -->
<g id="edge1" class="edge">
<title>start&#45;&gt;validate</title>
<path fill="none" stroke="#758297" d="M121.19,-50C121.19,-50 196.11,-50 196.11,-50"/>
<polygon fill="#758297" stroke="#758297" points="196.11,-53.5 206.11,-50 196.11,-46.5 196.11,-53.5"/>
<text xml:space="preserve" text-anchor="middle" x="164.5" y="-52.5" font-family="Comic Mono" font-size="10.00">call</text>
</g>
<!-- attempt -->
<g id="node3" class="node">
<title>attempt</title>
<path fill="#f8fafc" stroke="#94a3b8" d="M646.5,-68C646.5,-68 527,-68 527,-68 521,-68 515,-62 515,-56 515,-56 515,-44 515,-44 515,-38 521,-32 527,-32 527,-32 646.5,-32 646.5,-32 652.5,-32 658.5,-38 658.5,-44 658.5,-44 658.5,-56 658.5,-56 658.5,-62 652.5,-68 646.5,-68"/>
<text xml:space="preserve" text-anchor="middle" x="586.75" y="-44.58" font-family="Comic Mono" font-size="14.00">EtcdLeaderElector</text>
</g>
<!-- validate&#45;&gt;attempt -->
<g id="edge2" class="edge">
<title>validate&#45;&gt;attempt</title>
<path fill="none" stroke="#758297" d="M396.98,-50C396.98,-50 503.42,-50 503.42,-50"/>
<polygon fill="#758297" stroke="#758297" points="503.42,-53.5 513.42,-50 503.42,-46.5 503.42,-53.5"/>
<text xml:space="preserve" text-anchor="middle" x="455.75" y="-52.5" font-family="Comic Mono" font-size="10.00">dependency</text>
</g>
<!-- decision -->
<g id="node4" class="node">
<title>decision</title>
<path fill="#f8fafc" stroke="#94a3b8" d="M908.5,-68C908.5,-68 789,-68 789,-68 783,-68 777,-62 777,-56 777,-56 777,-44 777,-44 777,-38 783,-32 789,-32 789,-32 908.5,-32 908.5,-32 914.5,-32 920.5,-38 920.5,-44 920.5,-44 920.5,-56 920.5,-56 920.5,-62 914.5,-68 908.5,-68"/>
<text xml:space="preserve" text-anchor="middle" x="848.75" y="-44.58" font-family="Comic Mono" font-size="14.00">Leadership Result</text>
</g>
<!-- attempt&#45;&gt;decision -->
<g id="edge3" class="edge">
<title>attempt&#45;&gt;decision</title>
<path fill="none" stroke="#758297" d="M658.69,-50C658.69,-50 765,-50 765,-50"/>
<polygon fill="#758297" stroke="#758297" points="765,-53.5 775,-50 765,-46.5 765,-53.5"/>
<text xml:space="preserve" text-anchor="middle" x="717.75" y="-52.5" font-family="Comic Mono" font-size="10.00">contention</text>
</g>
<!-- execute -->
<g id="node6" class="node">
<title>execute</title>
<path fill="#f8fafc" stroke="#94a3b8" d="M1169.75,-119C1169.75,-119 1035.25,-119 1035.25,-119 1029.25,-119 1023.25,-113 1023.25,-107 1023.25,-107 1023.25,-95 1023.25,-95 1023.25,-89 1029.25,-83 1035.25,-83 1035.25,-83 1169.75,-83 1169.75,-83 1175.75,-83 1181.75,-89 1181.75,-95 1181.75,-95 1181.75,-107 1181.75,-107 1181.75,-113 1175.75,-119 1169.75,-119"/>
<text xml:space="preserve" text-anchor="middle" x="1102.5" y="-95.58" font-family="Comic Mono" font-size="14.00">Apply Desired State</text>
</g>
<!-- decision&#45;&gt;execute -->
<g id="edge4" class="edge">
<title>decision&#45;&gt;execute</title>
<path fill="none" stroke="#758297" d="M920.75,-57.33C972.16,-57.33 1032.25,-57.33 1032.25,-57.33 1032.25,-57.33 1032.25,-71.22 1032.25,-71.22"/>
<polygon fill="#758297" stroke="#758297" points="1028.75,-71.22 1032.25,-81.22 1035.75,-71.22 1028.75,-71.22"/>
<text xml:space="preserve" text-anchor="middle" x="971.88" y="-93.5" font-family="Comic Mono" font-size="10.00">success</text>
</g>
<!-- skipped -->
<g id="node8" class="node">
<title>skipped</title>
<path fill="#f8fafc" stroke="#94a3b8" d="M1151,-36C1151,-36 1054,-36 1054,-36 1048,-36 1042,-30 1042,-24 1042,-24 1042,-12 1042,-12 1042,-6 1048,0 1054,0 1054,0 1151,0 1151,0 1157,0 1163,-6 1163,-12 1163,-12 1163,-24 1163,-24 1163,-30 1157,-36 1151,-36"/>
<text xml:space="preserve" text-anchor="middle" x="1102.5" y="-12.57" font-family="Comic Mono" font-size="14.00">Return Skipped</text>
</g>
<!-- decision&#45;&gt;skipped -->
<g id="edge7" class="edge">
<title>decision&#45;&gt;skipped</title>
<path fill="none" stroke="#758297" d="M920.71,-46.67C995.66,-46.67 1102.25,-46.67 1102.25,-46.67 1102.25,-46.67 1102.25,-45.63 1102.25,-45.63"/>
<polygon fill="#758297" stroke="#758297" points="1105.75,-47.83 1102.25,-37.83 1098.75,-47.83 1105.75,-47.83"/>
<text xml:space="preserve" text-anchor="middle" x="971.88" y="-20.5" font-family="Comic Mono" font-size="10.00">skip</text>
</g>
<!-- release -->
<g id="node5" class="node">
<title>release</title>
<path fill="#f8fafc" stroke="#94a3b8" d="M1416,-119C1416,-119 1296.5,-119 1296.5,-119 1290.5,-119 1284.5,-113 1284.5,-107 1284.5,-107 1284.5,-95 1284.5,-95 1284.5,-89 1290.5,-83 1296.5,-83 1296.5,-83 1416,-83 1416,-83 1422,-83 1428,-89 1428,-95 1428,-95 1428,-107 1428,-107 1428,-113 1422,-119 1416,-119"/>
<text xml:space="preserve" text-anchor="middle" x="1356.25" y="-95.58" font-family="Comic Mono" font-size="14.00">Release Or Extend</text>
</g>
<!-- executed -->
<g id="node7" class="node">
<title>executed</title>
<path fill="#f8fafc" stroke="#94a3b8" d="M1647.25,-119C1647.25,-119 1542.75,-119 1542.75,-119 1536.75,-119 1530.75,-113 1530.75,-107 1530.75,-107 1530.75,-95 1530.75,-95 1530.75,-89 1536.75,-83 1542.75,-83 1542.75,-83 1647.25,-83 1647.25,-83 1653.25,-83 1659.25,-89 1659.25,-95 1659.25,-95 1659.25,-107 1659.25,-107 1659.25,-113 1653.25,-119 1647.25,-119"/>
<text xml:space="preserve" text-anchor="middle" x="1595" y="-95.58" font-family="Comic Mono" font-size="14.00">Return Executed</text>
</g>
<!-- release&#45;&gt;executed -->
<g id="edge6" class="edge">
<title>release&#45;&gt;executed</title>
<path fill="none" stroke="#758297" d="M1428.21,-101C1428.21,-101 1518.98,-101 1518.98,-101"/>
<polygon fill="#758297" stroke="#758297" points="1518.98,-104.5 1528.98,-101 1518.98,-97.5 1518.98,-104.5"/>
<text xml:space="preserve" text-anchor="middle" x="1479.38" y="-103.5" font-family="Comic Mono" font-size="10.00">success</text>
</g>
<!-- execute&#45;&gt;release -->
<g id="edge5" class="edge">
<title>execute&#45;&gt;release</title>
<path fill="none" stroke="#758297" d="M1182.09,-101C1182.09,-101 1272.74,-101 1272.74,-101"/>
<polygon fill="#758297" stroke="#758297" points="1272.74,-104.5 1282.74,-101 1272.74,-97.5 1272.74,-104.5"/>
<text xml:space="preserve" text-anchor="middle" x="1233.12" y="-103.5" font-family="Comic Mono" font-size="10.00">release</text>
</g>
</g>
</svg>
