<?xml version="1.0" encoding="UTF-8" standalone="no"?>
<!DOCTYPE svg PUBLIC "-//W3C//DTD SVG 1.1//EN"
 "http://www.w3.org/Graphics/SVG/1.1/DTD/svg11.dtd">
<!-- Generated by graphviz version 15.0.0 (20260523.1842)
 -->
<!-- Title: examples&#45;dynamodb&#45;export&#45;sequence&#45;01 Pages: 1 -->
<svg width="1680pt" height="150pt"
 viewBox="0.00 0.00 1680.00 150.00" xmlns="http://www.w3.org/2000/svg" xmlns:xlink="http://www.w3.org/1999/xlink">
<g id="graph0" class="graph" transform="scale(1 1) rotate(0) translate(4 118.5)">
<title>examples&#45;dynamodb&#45;export&#45;sequence&#45;01</title>
<text xml:space="preserve" text-anchor="middle" x="836.04" y="-97.2" font-family="Times,serif" font-size="14.00">DynamoDB Export Sequence</text>
<!-- n0&#45;&gt;n1 -->
<g id="edge1" class="edge">
<title>n0&#45;&gt;n1</title>
<path fill="none" stroke="#758297" stroke-width="1.8" d="M280.33,-36C280.33,-36 336.9,-36 336.9,-36"/>
<polygon fill="#758297" stroke="#758297" stroke-width="1.8" points="336.9,-38.8 344.9,-36 336.9,-33.2 336.9,-38.8"/>
</g>
<!-- n1&#45;&gt;n2 -->
<g id="edge2" class="edge">
<title>n1&#45;&gt;n2</title>
<path fill="none" stroke="#758297" stroke-width="1.8" d="M628.33,-12C628.33,-12 684.9,-12 684.9,-12"/>
<polygon fill="#758297" stroke="#758297" stroke-width="1.8" points="684.9,-14.8 692.9,-12 684.9,-9.2 684.9,-14.8"/>
</g>
<!-- n1&#45;&gt;n2 -->
<g id="edge7" class="edge">
<title>n1&#45;&gt;n2</title>
<path fill="none" stroke="#758297" stroke-width="1.8" d="M628.33,-36C628.33,-36 684.9,-36 684.9,-36"/>
<polygon fill="#758297" stroke="#758297" stroke-width="1.8" points="684.9,-38.8 692.9,-36 684.9,-33.2 684.9,-38.8"/>
</g>
<!-- n1&#45;&gt;n2 -->
<g id="edge10" class="edge">
<title>n1&#45;&gt;n2</title>
<path fill="none" stroke="#758297" stroke-width="1.8" d="M628.33,-24C628.33,-24 684.9,-24 684.9,-24"/>
<polygon fill="#758297" stroke="#758297" stroke-width="1.8" points="684.9,-26.8 692.9,-24 684.9,-21.2 684.9,-26.8"/>
</g>
<!-- n1&#45;&gt;n3 -->
<g id="edge4" class="edge">
<title>n1&#45;&gt;n3</title>
<path fill="none" stroke="#758297" stroke-width="1.8" d="M488.04,-72.32C488.04,-82.09 488.04,-90 488.04,-90 488.04,-90 1184.04,-90 1184.04,-90 1184.04,-90 1184.04,-83.04 1184.04,-83.04"/>
<polygon fill="#758297" stroke="#758297" stroke-width="1.8" points="1186.84,-83.04 1184.04,-75.04 1181.24,-83.04 1186.84,-83.04"/>
</g>
<!-- n1&#45;&gt;n4 -->
<g id="edge9" class="edge">
<title>n1&#45;&gt;n4</title>
<path fill="none" stroke="#758297" stroke-width="1.8" stroke-dasharray="5,2" d="M418.02,0.28C418.02,14.29 418.02,27 418.02,27 418.02,27 1485.36,27 1485.36,27 1485.36,27 1485.36,11.01 1485.36,11.01"/>
<polygon fill="#758297" stroke="#758297" stroke-width="1.8" points="1482.56,11.01 1485.36,3.01 1488.16,11.01 1482.56,11.01"/>
</g>
<!-- n2&#45;&gt;n1 -->
<g id="edge3" class="edge">
<title>n2&#45;&gt;n1</title>
<path fill="none" stroke="#758297" stroke-width="1.8" stroke-dasharray="5,2" d="M695.75,-60C695.75,-60 639.18,-60 639.18,-60"/>
<polygon fill="#758297" stroke="#758297" stroke-width="1.8" points="639.18,-57.2 631.18,-60 639.18,-62.8 639.18,-57.2"/>
</g>
<!-- n2&#45;&gt;n1 -->
<g id="edge8" class="edge">
<title>n2&#45;&gt;n1</title>
<path fill="none" stroke="#758297" stroke-width="1.8" stroke-dasharray="5,2" d="M695.75,-48C695.75,-48 639.18,-48 639.18,-48"/>
<polygon fill="#758297" stroke="#758297" stroke-width="1.8" points="639.18,-45.2 631.18,-48 639.18,-50.8 639.18,-45.2"/>
</g>
<!-- n3&#45;&gt;n1 -->
<g id="edge5" class="edge">
<title>n3&#45;&gt;n1</title>
<path fill="none" stroke="#758297" stroke-width="1.8" stroke-dasharray="5,2" d="M1184.04,0.32C1184.04,5.44 1184.04,9 1184.04,9 1184.04,9 558.06,9 558.06,9 558.06,9 558.06,8.13 558.06,8.13"/>
<polygon fill="#758297" stroke="#758297" stroke-width="1.8" points="555.26,11.05 558.06,3.05 560.86,11.05 555.26,11.05"/>
</g>
<!-- n4&#45;&gt;n1 -->
<g id="edge6" class="edge">
<title>n4&#45;&gt;n1</title>
<path fill="none" stroke="#758297" stroke-width="1.8" d="M1578.72,0.32C1578.72,10.09 1578.72,18 1578.72,18 1578.72,18 488.04,18 488.04,18 488.04,18 488.04,11.04 488.04,11.04"/>
<polygon fill="#758297" stroke="#758297" stroke-width="1.8" points="485.24,11.04 488.04,3.04 490.84,11.04 485.24,11.04"/>
</g>
<!-- n0 -->
<g id="node1" class="node">
<title>n0</title>
<path fill="#ffffff" stroke="#5b8def" d="M268.08,-72C268.08,-72 12,-72 12,-72 6,-72 0,-66 0,-60 0,-60 0,-12 0,-12 0,-6 6,0 12,0 12,0 268.08,0 268.08,0 274.08,0 280.08,-6 280.08,-12 280.08,-12 280.08,-60 280.08,-60 280.08,-66 274.08,-72 268.08,-72"/>
<text xml:space="preserve" text-anchor="middle" x="140.04" y="-31.65" font-family="Architects Daughter" font-size="18.00">Node A</text>
</g>
<!-- n1 -->
<g id="node2" class="node">
<title>n1</title>
<path fill="#ffffff" stroke="#58a978" d="M616.08,-72C616.08,-72 360,-72 360,-72 354,-72 348,-66 348,-60 348,-60 348,-12 348,-12 348,-6 354,0 360,0 360,0 616.08,0 616.08,0 622.08,0 628.08,-6 628.08,-12 628.08,-12 628.08,-60 628.08,-60 628.08,-66 622.08,-72 616.08,-72"/>
<text xml:space="preserve" text-anchor="middle" x="488.04" y="-31.65" font-family="Architects Daughter" font-size="18.00">Runner</text>
</g>
<!-- n2 -->
<g id="node3" class="node">
<title>n2</title>
<path fill="#ffffff" stroke="#8a72d6" d="M964.08,-72C964.08,-72 708,-72 708,-72 702,-72 696,-66 696,-60 696,-60 696,-12 696,-12 696,-6 702,0 708,0 708,0 964.08,0 964.08,0 970.08,0 976.08,-6 976.08,-12 976.08,-12 976.08,-60 976.08,-60 976.08,-66 970.08,-72 964.08,-72"/>
<text xml:space="preserve" text-anchor="middle" x="836.04" y="-31.65" font-family="Architects Daughter" font-size="18.00">DynamoDB lock</text>
</g>
<!-- n3 -->
<g id="node4" class="node">
<title>n3</title>
<path fill="#ffffff" stroke="#45a7a1" d="M1312.08,-72C1312.08,-72 1056,-72 1056,-72 1050,-72 1044,-66 1044,-60 1044,-60 1044,-12 1044,-12 1044,-6 1050,0 1056,0 1056,0 1312.08,0 1312.08,0 1318.08,0 1324.08,-6 1324.08,-12 1324.08,-12 1324.08,-60 1324.08,-60 1324.08,-66 1318.08,-72 1312.08,-72"/>
<text xml:space="preserve" text-anchor="middle" x="1184.04" y="-31.65" font-family="Architects Daughter" font-size="18.00">Export table</text>
</g>
<!-- n4 -->
<g id="node5" class="node">
<title>n4</title>
<path fill="#ffffff" stroke="#d6a441" d="M1660.08,-72C1660.08,-72 1404,-72 1404,-72 1398,-72 1392,-66 1392,-60 1392,-60 1392,-12 1392,-12 1392,-6 1398,0 1404,0 1404,0 1660.08,0 1660.08,0 1666.08,0 1672.08,-6 1672.08,-12 1672.08,-12 1672.08,-60 1672.08,-60 1672.08,-66 1666.08,-72 1660.08,-72"/>
<text xml:space="preserve" text-anchor="middle" x="1532.04" y="-31.65" font-family="Architects Daughter" font-size="18.00">Node B</text>
</g>
</g>
</svg>
