<?xml version="1.0" encoding="UTF-8" standalone="no"?>
<!DOCTYPE svg PUBLIC "-//W3C//DTD SVG 1.1//EN"
 "http://www.w3.org/Graphics/SVG/1.1/DTD/svg11.dtd">
<!-- Generated by graphviz version 15.0.0 (20260523.1842)
 -->
<!-- Title: examples&#45;batch&#45;scheduler&#45;sequence&#45;01 Pages: 1 -->
<svg width="1283pt" height="503pt"
 viewBox="0.00 0.00 1283.00 503.00" xmlns="http://www.w3.org/2000/svg" xmlns:xlink="http://www.w3.org/1999/xlink">
<g id="graph0" class="graph" transform="scale(1 1) rotate(0) translate(4 499)">
<title>examples&#45;batch&#45;scheduler&#45;sequence&#45;01</title>
<!-- trigger -->
<g id="node1" class="node">
<title>trigger</title>
<path fill="#f8fafc" stroke="#94a3b8" d="M154,-58C154,-58 12,-58 12,-58 6,-58 0,-52 0,-46 0,-46 0,-34 0,-34 0,-28 6,-22 12,-22 12,-22 154,-22 154,-22 160,-22 166,-28 166,-34 166,-34 166,-46 166,-46 166,-52 160,-58 154,-58"/>
<text xml:space="preserve" text-anchor="middle" x="83" y="-34.58" font-family="Comic Mono" font-size="14.00">Scheduled Batch Tick</text>
</g>
<!-- coord -->
<g id="node2" class="node">
<title>coord</title>
<path fill="#f8fafc" stroke="#94a3b8" d="M477.5,-150C477.5,-150 380.5,-150 380.5,-150 374.5,-150 368.5,-144 368.5,-138 368.5,-138 368.5,-126 368.5,-126 368.5,-120 374.5,-114 380.5,-114 380.5,-114 477.5,-114 477.5,-114 483.5,-114 489.5,-120 489.5,-126 489.5,-126 489.5,-138 489.5,-138 489.5,-144 483.5,-150 477.5,-150"/>
<text xml:space="preserve" text-anchor="middle" x="429" y="-126.58" font-family="Comic Mono" font-size="14.00">BatchScheduler</text>
</g>
<!-- trigger&#45;&gt;coord -->
<g id="edge1" class="edge">
<title>trigger&#45;&gt;coord</title>
<path fill="none" stroke="#4f83bf" d="M166.38,-49.25C268.83,-49.25 429.25,-49.25 429.25,-49.25 429.25,-49.25 429.25,-105.12 429.25,-105.12"/>
<polygon fill="#4f83bf" stroke="#4f83bf" points="426.8,-105.12 429.25,-112.12 431.7,-105.12 426.8,-105.12"/>
<text xml:space="preserve" text-anchor="middle" x="267.25" y="-89.5" font-family="Comic Mono" font-size="10.00">start scheduled batch tick</text>
</g>
<!-- elector -->
<g id="node3" class="node">
<title>elector</title>
<path fill="#f8fafc" stroke="#94a3b8" d="M871.5,-266C871.5,-266 767,-266 767,-266 761,-266 755,-260 755,-254 755,-254 755,-242 755,-242 755,-236 761,-230 767,-230 767,-230 871.5,-230 871.5,-230 877.5,-230 883.5,-236 883.5,-242 883.5,-242 883.5,-254 883.5,-254 883.5,-260 877.5,-266 871.5,-266"/>
<text xml:space="preserve" text-anchor="middle" x="819.25" y="-242.57" font-family="Comic Mono" font-size="14.00">Lettuce Elector</text>
</g>
<!-- coord&#45;&gt;elector -->
<g id="edge2" class="edge">
<title>coord&#45;&gt;elector</title>
<path fill="none" stroke="#4f83bf" d="M429.25,-150.38C429.25,-183.09 429.25,-248 429.25,-248 429.25,-248 746.34,-248 746.34,-248"/>
<polygon fill="#4f83bf" stroke="#4f83bf" points="746.34,-250.45 753.34,-248 746.34,-245.55 746.34,-250.45"/>
<text xml:space="preserve" text-anchor="middle" x="622.25" y="-211.5" font-family="Comic Mono" font-size="10.00">runIfLeader with source options</text>
</g>
<!-- backend -->
<g id="node4" class="node">
<title>backend</title>
<path fill="#f8fafc" stroke="#94a3b8" d="M1263.25,-400C1263.25,-400 1166.25,-400 1166.25,-400 1160.25,-400 1154.25,-394 1154.25,-388 1154.25,-388 1154.25,-376 1154.25,-376 1154.25,-370 1160.25,-364 1166.25,-364 1166.25,-364 1263.25,-364 1263.25,-364 1269.25,-364 1275.25,-370 1275.25,-376 1275.25,-376 1275.25,-388 1275.25,-388 1275.25,-394 1269.25,-400 1263.25,-400"/>
<text xml:space="preserve" text-anchor="middle" x="1214.75" y="-376.57" font-family="Comic Mono" font-size="14.00">Redis lock key</text>
</g>
<!-- elector&#45;&gt;backend -->
<g id="edge3" class="edge">
<title>elector&#45;&gt;backend</title>
<path fill="none" stroke="#b9851b" d="M883.81,-260.86C985.43,-260.86 1171.25,-260.86 1171.25,-260.86 1171.25,-260.86 1171.25,-355.09 1171.25,-355.09"/>
<polygon fill="#b9851b" stroke="#b9851b" points="1168.8,-355.09 1171.25,-362.09 1173.7,-355.09 1168.8,-355.09"/>
<text xml:space="preserve" text-anchor="middle" x="1018.88" y="-485.5" font-family="Comic Mono" font-size="10.00">attempt backend ownership</text>
</g>
<!-- elector&#45;&gt;backend -->
<g id="edge7" class="edge">
<title>elector&#45;&gt;backend</title>
<path fill="none" stroke="#755bc6" d="M883.7,-255.71C989.71,-255.71 1189.25,-255.71 1189.25,-255.71 1189.25,-255.71 1189.25,-355.12 1189.25,-355.12"/>
<polygon fill="#755bc6" stroke="#755bc6" points="1186.8,-355.12 1189.25,-362.12 1191.7,-355.12 1186.8,-355.12"/>
<text xml:space="preserve" text-anchor="middle" x="1018.88" y="-418.5" font-family="Comic Mono" font-size="10.00">release or renew for lease TTL recovery</text>
</g>
<!-- work -->
<g id="node5" class="node">
<title>work</title>
<path fill="#f8fafc" stroke="#94a3b8" d="M1263.25,-200C1263.25,-200 1166.25,-200 1166.25,-200 1160.25,-200 1154.25,-194 1154.25,-188 1154.25,-188 1154.25,-176 1154.25,-176 1154.25,-170 1160.25,-164 1166.25,-164 1166.25,-164 1263.25,-164 1263.25,-164 1269.25,-164 1275.25,-170 1275.25,-176 1275.25,-176 1275.25,-188 1275.25,-188 1275.25,-194 1269.25,-200 1263.25,-200"/>
<text xml:space="preserve" text-anchor="middle" x="1214.75" y="-176.57" font-family="Comic Mono" font-size="14.00">Settlement Job</text>
</g>
<!-- elector&#45;&gt;work -->
<g id="edge5" class="edge">
<title>elector&#45;&gt;work</title>
<path fill="none" stroke="#3e9868" d="M883.65,-235.14C1001.58,-235.14 1240.25,-235.14 1240.25,-235.14 1240.25,-235.14 1240.25,-208.8 1240.25,-208.8"/>
<polygon fill="#3e9868" stroke="#3e9868" points="1242.7,-208.8 1240.25,-201.8 1237.8,-208.8 1242.7,-208.8"/>
<text xml:space="preserve" text-anchor="middle" x="1018.88" y="-217.5" font-family="Comic Mono" font-size="10.00">execute settlement job</text>
</g>
<!-- peer -->
<g id="node6" class="node">
<title>peer</title>
<path fill="#f8fafc" stroke="#94a3b8" d="M1255.75,-59C1255.75,-59 1173.75,-59 1173.75,-59 1167.75,-59 1161.75,-53 1161.75,-47 1161.75,-47 1161.75,-35 1161.75,-35 1161.75,-29 1167.75,-23 1173.75,-23 1173.75,-23 1255.75,-23 1255.75,-23 1261.75,-23 1267.75,-29 1267.75,-35 1267.75,-35 1267.75,-47 1267.75,-47 1267.75,-53 1261.75,-59 1255.75,-59"/>
<text xml:space="preserve" text-anchor="middle" x="1214.75" y="-35.58" font-family="Comic Mono" font-size="14.00">Skipped Peer</text>
</g>
<!-- elector&#45;&gt;peer -->
<g id="edge9" class="edge">
<title>elector&#45;&gt;peer</title>
<path fill="none" stroke="#c94d68" d="M819.25,-229.59C819.25,-178.8 819.25,-40.5 819.25,-40.5 819.25,-40.5 1152.9,-40.5 1152.9,-40.5"/>
<polygon fill="#c94d68" stroke="#c94d68" points="1152.9,-42.95 1159.9,-40.5 1152.9,-38.05 1152.9,-42.95"/>
<text xml:space="preserve" text-anchor="middle" x="1018.88" y="-83.5" font-family="Comic Mono" font-size="10.00">return skipped result</text>
</g>
<!-- backend&#45;&gt;elector -->
<g id="edge4" class="edge">
<title>backend&#45;&gt;elector</title>
<path fill="none" stroke="#3e9868" d="M1206.25,-363.73C1206.25,-327.61 1206.25,-250.57 1206.25,-250.57 1206.25,-250.57 892.1,-250.57 892.1,-250.57"/>
<polygon fill="#3e9868" stroke="#3e9868" points="892.1,-248.12 885.1,-250.57 892.1,-253.02 892.1,-248.12"/>
<text xml:space="preserve" text-anchor="middle" x="1018.88" y="-351.5" font-family="Comic Mono" font-size="10.00">owner token accepted</text>
</g>
<!-- backend&#45;&gt;elector -->
<g id="edge8" class="edge">
<title>backend&#45;&gt;elector</title>
<path fill="none" stroke="#c94d68" d="M1223.25,-363.58C1223.25,-326.3 1223.25,-245.43 1223.25,-245.43 1223.25,-245.43 892.23,-245.43 892.23,-245.43"/>
<polygon fill="#c94d68" stroke="#c94d68" points="892.23,-242.98 885.23,-245.43 892.23,-247.88 892.23,-242.98"/>
<text xml:space="preserve" text-anchor="middle" x="1018.88" y="-284.5" font-family="Comic Mono" font-size="10.00">lock already owned</text>
</g>
<!-- work&#45;&gt;elector -->
<g id="edge6" class="edge">
<title>work&#45;&gt;elector</title>
<path fill="none" stroke="#3e9868" d="M1258.25,-200.44C1258.25,-217.52 1258.25,-240.29 1258.25,-240.29 1258.25,-240.29 892.07,-240.29 892.07,-240.29"/>
<polygon fill="#3e9868" stroke="#3e9868" points="892.07,-237.84 885.07,-240.29 892.07,-242.74 892.07,-237.84"/>
<text xml:space="preserve" text-anchor="middle" x="1018.88" y="-150.5" font-family="Comic Mono" font-size="10.00">return leader result</text>
</g>
<!-- peer&#45;&gt;trigger -->
<g id="edge10" class="edge">
<title>peer&#45;&gt;trigger</title>
<path fill="none" stroke="#c94d68" d="M1161.3,-31.75C1161.3,-31.75 174.97,-31.75 174.97,-31.75"/>
<polygon fill="#c94d68" stroke="#c94d68" points="174.97,-29.3 167.97,-31.75 174.97,-34.2 174.97,-29.3"/>
<text xml:space="preserve" text-anchor="middle" x="622.25" y="-2.5" font-family="Comic Mono" font-size="10.00">cycle completes without duplicate work</text>
</g>
</g>
</svg>
