<?xml version="1.0" encoding="UTF-8" standalone="no"?>
<!DOCTYPE svg PUBLIC "-//W3C//DTD SVG 1.1//EN"
 "http://www.w3.org/Graphics/SVG/1.1/DTD/svg11.dtd">
<!-- Generated by graphviz version 15.0.0 (20260523.1842)
 -->
<!-- Title: examples&#45;consul&#45;maintenance&#45;architecture&#45;01 Pages: 1 -->
<svg width="1518pt" height="136pt"
 viewBox="0.00 0.00 1518.00 136.00" xmlns="http://www.w3.org/2000/svg" xmlns:xlink="http://www.w3.org/1999/xlink">
<g id="graph0" class="graph" transform="scale(1 1) rotate(0) translate(4 132)">
<title>examples&#45;consul&#45;maintenance&#45;architecture&#45;01</title>
<!-- trigger -->
<g id="node1" class="node">
<title>trigger</title>
<path fill="#f8fafc" stroke="#94a3b8" d="M124,-77C124,-77 12,-77 12,-77 6,-77 0,-71 0,-65 0,-65 0,-53 0,-53 0,-47 6,-41 12,-41 12,-41 124,-41 124,-41 130,-41 136,-47 136,-53 136,-53 136,-65 136,-65 136,-71 130,-77 124,-77"/>
<text xml:space="preserve" text-anchor="middle" x="68" y="-53.58" font-family="Comic Mono" font-size="14.00">Maintenance Tick</text>
</g>
<!-- nodeA -->
<g id="node2" class="node">
<title>nodeA</title>
<path fill="#f8fafc" stroke="#94a3b8" d="M347,-119C347,-119 235,-119 235,-119 229,-119 223,-113 223,-107 223,-107 223,-95 223,-95 223,-89 229,-83 235,-83 235,-83 347,-83 347,-83 353,-83 359,-89 359,-95 359,-95 359,-107 359,-107 359,-113 353,-119 347,-119"/>
<text xml:space="preserve" text-anchor="middle" x="291" y="-95.58" font-family="Comic Mono" font-size="14.00">Candidate Node A</text>
</g>
<!-- trigger&#45;&gt;nodeA -->
<g id="edge1" class="edge">
<title>trigger&#45;&gt;nodeA</title>
<path fill="none" stroke="#758297" d="M67.75,-77.06C67.75,-88.44 67.75,-101 67.75,-101 67.75,-101 210.99,-101 210.99,-101"/>
<polygon fill="#758297" stroke="#758297" points="210.99,-104.5 220.99,-101 210.99,-97.5 210.99,-104.5"/>
<text xml:space="preserve" text-anchor="middle" x="179.5" y="-98.5" font-family="Comic Mono" font-size="10.00">call</text>
</g>
<!-- nodeB -->
<g id="node3" class="node">
<title>nodeB</title>
<path fill="#f8fafc" stroke="#94a3b8" d="M347,-36C347,-36 235,-36 235,-36 229,-36 223,-30 223,-24 223,-24 223,-12 223,-12 223,-6 229,0 235,0 235,0 347,0 347,0 353,0 359,-6 359,-12 359,-12 359,-24 359,-24 359,-30 353,-36 347,-36"/>
<text xml:space="preserve" text-anchor="middle" x="291" y="-12.57" font-family="Comic Mono" font-size="14.00">Candidate Node B</text>
</g>
<!-- trigger&#45;&gt;nodeB -->
<g id="edge2" class="edge">
<title>trigger&#45;&gt;nodeB</title>
<path fill="none" stroke="#758297" d="M67.75,-40.9C67.75,-29.91 67.75,-18 67.75,-18 67.75,-18 210.99,-18 210.99,-18"/>
<polygon fill="#758297" stroke="#758297" points="210.99,-21.5 220.99,-18 210.99,-14.5 210.99,-21.5"/>
<text xml:space="preserve" text-anchor="middle" x="179.5" y="-29.5" font-family="Comic Mono" font-size="10.00">call</text>
</g>
<!-- coordinator -->
<g id="node4" class="node">
<title>coordinator</title>
<path fill="#f8fafc" stroke="#94a3b8" d="M667.5,-77C667.5,-77 458,-77 458,-77 452,-77 446,-71 446,-65 446,-65 446,-53 446,-53 446,-47 452,-41 458,-41 458,-41 667.5,-41 667.5,-41 673.5,-41 679.5,-47 679.5,-53 679.5,-53 679.5,-65 679.5,-65 679.5,-71 673.5,-77 667.5,-77"/>
<text xml:space="preserve" text-anchor="middle" x="562.75" y="-53.58" font-family="Comic Mono" font-size="14.00">ServiceMaintenanceCoordinator</text>
</g>
<!-- nodeA&#45;&gt;coordinator -->
<g id="edge3" class="edge">
<title>nodeA&#45;&gt;coordinator</title>
<path fill="none" stroke="#758297" d="M268.75,-82.58C268.75,-73.72 268.75,-65 268.75,-65 268.75,-65 434.2,-65 434.2,-65"/>
<polygon fill="#758297" stroke="#758297" points="434.2,-68.5 444.2,-65 434.2,-61.5 434.2,-68.5"/>
<text xml:space="preserve" text-anchor="middle" x="402.5" y="-98.5" font-family="Comic Mono" font-size="10.00">call</text>
</g>
<!-- nodeB&#45;&gt;coordinator -->
<g id="edge4" class="edge">
<title>nodeB&#45;&gt;coordinator</title>
<path fill="none" stroke="#758297" d="M313.75,-36.32C313.75,-44.79 313.75,-53 313.75,-53 313.75,-53 434.03,-53 434.03,-53"/>
<polygon fill="#758297" stroke="#758297" points="434.03,-56.5 444.03,-53 434.03,-49.5 434.03,-56.5"/>
<text xml:space="preserve" text-anchor="middle" x="402.5" y="-29.5" font-family="Comic Mono" font-size="10.00">call</text>
</g>
<!-- elector -->
<g id="node6" class="node">
<title>elector</title>
<path fill="#f8fafc" stroke="#94a3b8" d="M944.5,-128C944.5,-128 810,-128 810,-128 804,-128 798,-122 798,-116 798,-116 798,-104 798,-104 798,-98 804,-92 810,-92 810,-92 944.5,-92 944.5,-92 950.5,-92 956.5,-98 956.5,-104 956.5,-104 956.5,-116 956.5,-116 956.5,-122 950.5,-128 944.5,-128"/>
<text xml:space="preserve" text-anchor="middle" x="877.25" y="-104.58" font-family="Comic Mono" font-size="14.00">ConsulLeaderElector</text>
</g>
<!-- coordinator&#45;&gt;elector -->
<g id="edge5" class="edge">
<title>coordinator&#45;&gt;elector</title>
<path fill="none" stroke="#758297" d="M679.8,-66.33C740.36,-66.33 801.75,-66.33 801.75,-66.33 801.75,-66.33 801.75,-80.22 801.75,-80.22"/>
<polygon fill="#758297" stroke="#758297" points="798.25,-80.22 801.75,-90.22 805.25,-80.22 798.25,-80.22"/>
<text xml:space="preserve" text-anchor="middle" x="738.75" y="-102.5" font-family="Comic Mono" font-size="10.00">dependency</text>
</g>
<!-- work -->
<g id="node8" class="node">
<title>work</title>
<path fill="#f8fafc" stroke="#94a3b8" d="M937,-45C937,-45 817.5,-45 817.5,-45 811.5,-45 805.5,-39 805.5,-33 805.5,-33 805.5,-21 805.5,-21 805.5,-15 811.5,-9 817.5,-9 817.5,-9 937,-9 937,-9 943,-9 949,-15 949,-21 949,-21 949,-33 949,-33 949,-39 943,-45 937,-45"/>
<text xml:space="preserve" text-anchor="middle" x="877.25" y="-21.57" font-family="Comic Mono" font-size="14.00">Drain Maintenance</text>
</g>
<!-- coordinator&#45;&gt;work -->
<g id="edge7" class="edge">
<title>coordinator&#45;&gt;work</title>
<path fill="none" stroke="#758297" d="M679.67,-55.67C768.95,-55.67 876.75,-55.67 876.75,-55.67 876.75,-55.67 876.75,-54.63 876.75,-54.63"/>
<polygon fill="#758297" stroke="#758297" points="880.25,-56.83 876.75,-46.83 873.25,-56.83 880.25,-56.83"/>
<text xml:space="preserve" text-anchor="middle" x="738.75" y="-29.5" font-family="Comic Mono" font-size="10.00">success</text>
</g>
<!-- backend -->
<g id="node5" class="node">
<title>backend</title>
<path fill="#f8fafc" stroke="#94a3b8" d="M1236.5,-128C1236.5,-128 1087,-128 1087,-128 1081,-128 1075,-122 1075,-116 1075,-116 1075,-104 1075,-104 1075,-98 1081,-92 1087,-92 1087,-92 1236.5,-92 1236.5,-92 1242.5,-92 1248.5,-98 1248.5,-104 1248.5,-104 1248.5,-116 1248.5,-116 1248.5,-122 1242.5,-128 1236.5,-128"/>
<text xml:space="preserve" text-anchor="middle" x="1161.75" y="-104.58" font-family="Comic Mono" font-size="14.00">Consul Session and KV</text>
</g>
<!-- recovery -->
<g id="node7" class="node">
<title>recovery</title>
<path fill="#f8fafc" stroke="#94a3b8" d="M1497.75,-128C1497.75,-128 1363.25,-128 1363.25,-128 1357.25,-128 1351.25,-122 1351.25,-116 1351.25,-116 1351.25,-104 1351.25,-104 1351.25,-98 1357.25,-92 1363.25,-92 1363.25,-92 1497.75,-92 1497.75,-92 1503.75,-92 1509.75,-98 1509.75,-104 1509.75,-104 1509.75,-116 1509.75,-116 1509.75,-122 1503.75,-128 1497.75,-128"/>
<text xml:space="preserve" text-anchor="middle" x="1430.5" y="-104.58" font-family="Comic Mono" font-size="14.00">Session TTL Release</text>
</g>
<!-- backend&#45;&gt;recovery -->
<g id="edge8" class="edge">
<title>backend&#45;&gt;recovery</title>
<path fill="none" stroke="#758297" d="M1248.63,-110C1248.63,-110 1339.68,-110 1339.68,-110"/>
<polygon fill="#758297" stroke="#758297" points="1339.68,-113.5 1349.68,-110 1339.68,-106.5 1339.68,-113.5"/>
<text xml:space="preserve" text-anchor="middle" x="1299.88" y="-112.5" font-family="Comic Mono" font-size="10.00">release</text>
</g>
<!-- elector&#45;&gt;backend -->
<g id="edge6" class="edge">
<title>elector&#45;&gt;backend</title>
<path fill="none" stroke="#758297" d="M956.88,-110C956.88,-110 1063.14,-110 1063.14,-110"/>
<polygon fill="#758297" stroke="#758297" points="1063.14,-113.5 1073.14,-110 1063.14,-106.5 1063.14,-113.5"/>
<text xml:space="preserve" text-anchor="middle" x="1015.75" y="-112.5" font-family="Comic Mono" font-size="10.00">contention</text>
</g>
</g>
</svg>
