<?xml version="1.0" encoding="UTF-8" standalone="no"?>
<!DOCTYPE svg PUBLIC "-//W3C//DTD SVG 1.1//EN"
 "http://www.w3.org/Graphics/SVG/1.1/DTD/svg11.dtd">
<!-- Generated by graphviz version 15.0.0 (20260523.1842)
 -->
<!-- Title: examples&#45;k8s&#45;lease&#45;architecture&#45;01 Pages: 1 -->
<svg width="1398pt" height="136pt"
 viewBox="0.00 0.00 1398.00 136.00" xmlns="http://www.w3.org/2000/svg" xmlns:xlink="http://www.w3.org/1999/xlink">
<g id="graph0" class="graph" transform="scale(1 1) rotate(0) translate(4 132)">
<title>examples&#45;k8s&#45;lease&#45;architecture&#45;01</title>
<!-- trigger -->
<g id="node1" class="node">
<title>trigger</title>
<path fill="#f8fafc" stroke="#94a3b8" d="M101.5,-77C101.5,-77 12,-77 12,-77 6,-77 0,-71 0,-65 0,-65 0,-53 0,-53 0,-47 6,-41 12,-41 12,-41 101.5,-41 101.5,-41 107.5,-41 113.5,-47 113.5,-53 113.5,-53 113.5,-65 113.5,-65 113.5,-71 107.5,-77 101.5,-77"/>
<text xml:space="preserve" text-anchor="middle" x="56.75" y="-53.58" font-family="Comic Mono" font-size="14.00">Lease Attempt</text>
</g>
<!-- nodeA -->
<g id="node2" class="node">
<title>nodeA</title>
<path fill="#f8fafc" stroke="#94a3b8" d="M324.5,-119C324.5,-119 212.5,-119 212.5,-119 206.5,-119 200.5,-113 200.5,-107 200.5,-107 200.5,-95 200.5,-95 200.5,-89 206.5,-83 212.5,-83 212.5,-83 324.5,-83 324.5,-83 330.5,-83 336.5,-89 336.5,-95 336.5,-95 336.5,-107 336.5,-107 336.5,-113 330.5,-119 324.5,-119"/>
<text xml:space="preserve" text-anchor="middle" x="268.5" y="-95.58" font-family="Comic Mono" font-size="14.00">Candidate Node A</text>
</g>
<!-- trigger&#45;&gt;nodeA -->
<g id="edge1" class="edge">
<title>trigger&#45;&gt;nodeA</title>
<path fill="none" stroke="#758297" d="M56.75,-77.06C56.75,-88.44 56.75,-101 56.75,-101 56.75,-101 188.53,-101 188.53,-101"/>
<polygon fill="#758297" stroke="#758297" points="188.53,-104.5 198.53,-101 188.53,-97.5 188.53,-104.5"/>
<text xml:space="preserve" text-anchor="middle" x="157" y="-98.5" font-family="Comic Mono" font-size="10.00">call</text>
</g>
<!-- nodeB -->
<g id="node3" class="node">
<title>nodeB</title>
<path fill="#f8fafc" stroke="#94a3b8" d="M324.5,-36C324.5,-36 212.5,-36 212.5,-36 206.5,-36 200.5,-30 200.5,-24 200.5,-24 200.5,-12 200.5,-12 200.5,-6 206.5,0 212.5,0 212.5,0 324.5,0 324.5,0 330.5,0 336.5,-6 336.5,-12 336.5,-12 336.5,-24 336.5,-24 336.5,-30 330.5,-36 324.5,-36"/>
<text xml:space="preserve" text-anchor="middle" x="268.5" y="-12.57" font-family="Comic Mono" font-size="14.00">Candidate Node B</text>
</g>
<!-- trigger&#45;&gt;nodeB -->
<g id="edge2" class="edge">
<title>trigger&#45;&gt;nodeB</title>
<path fill="none" stroke="#758297" d="M56.75,-40.9C56.75,-29.91 56.75,-18 56.75,-18 56.75,-18 188.53,-18 188.53,-18"/>
<polygon fill="#758297" stroke="#758297" points="188.53,-21.5 198.53,-18 188.53,-14.5 188.53,-21.5"/>
<text xml:space="preserve" text-anchor="middle" x="157" y="-29.5" font-family="Comic Mono" font-size="10.00">call</text>
</g>
<!-- coordinator -->
<g id="node4" class="node">
<title>coordinator</title>
<path fill="#f8fafc" stroke="#94a3b8" d="M540,-77C540,-77 435.5,-77 435.5,-77 429.5,-77 423.5,-71 423.5,-65 423.5,-65 423.5,-53 423.5,-53 423.5,-47 429.5,-41 435.5,-41 435.5,-41 540,-41 540,-41 546,-41 552,-47 552,-53 552,-53 552,-65 552,-65 552,-71 546,-77 540,-77"/>
<text xml:space="preserve" text-anchor="middle" x="487.75" y="-53.58" font-family="Comic Mono" font-size="14.00">K8sLeaseExample</text>
</g>
<!-- nodeA&#45;&gt;coordinator -->
<g id="edge3" class="edge">
<title>nodeA&#45;&gt;coordinator</title>
<path fill="none" stroke="#758297" d="M336.97,-87.5C401.3,-87.5 487.75,-87.5 487.75,-87.5 487.75,-87.5 487.75,-86.47 487.75,-86.47"/>
<polygon fill="#758297" stroke="#758297" points="491.25,-88.72 487.75,-78.72 484.25,-88.72 491.25,-88.72"/>
<text xml:space="preserve" text-anchor="middle" x="380" y="-98.5" font-family="Comic Mono" font-size="10.00">call</text>
</g>
<!-- nodeB&#45;&gt;coordinator -->
<g id="edge4" class="edge">
<title>nodeB&#45;&gt;coordinator</title>
<path fill="none" stroke="#758297" d="M336.73,-27C394.07,-27 466.75,-27 466.75,-27 466.75,-27 466.75,-29.24 466.75,-29.24"/>
<polygon fill="#758297" stroke="#758297" points="463.25,-29.24 466.75,-39.24 470.25,-29.24 463.25,-29.24"/>
<text xml:space="preserve" text-anchor="middle" x="380" y="-29.5" font-family="Comic Mono" font-size="10.00">call</text>
</g>
<!-- elector -->
<g id="node6" class="node">
<title>elector</title>
<path fill="#f8fafc" stroke="#94a3b8" d="M884.5,-128C884.5,-128 682.5,-128 682.5,-128 676.5,-128 670.5,-122 670.5,-116 670.5,-116 670.5,-104 670.5,-104 670.5,-98 676.5,-92 682.5,-92 682.5,-92 884.5,-92 884.5,-92 890.5,-92 896.5,-98 896.5,-104 896.5,-104 896.5,-116 896.5,-116 896.5,-122 890.5,-128 884.5,-128"/>
<text xml:space="preserve" text-anchor="middle" x="783.5" y="-104.58" font-family="Comic Mono" font-size="14.00">KubernetesLeaseLeaderElector</text>
</g>
<!-- coordinator&#45;&gt;elector -->
<g id="edge5" class="edge">
<title>coordinator&#45;&gt;elector</title>
<path fill="none" stroke="#758297" d="M552.33,-61C612.42,-61 692.75,-61 692.75,-61 692.75,-61 692.75,-80.24 692.75,-80.24"/>
<polygon fill="#758297" stroke="#758297" points="689.25,-80.24 692.75,-90.24 696.25,-80.24 689.25,-80.24"/>
<text xml:space="preserve" text-anchor="middle" x="611.25" y="-102.5" font-family="Comic Mono" font-size="10.00">dependency</text>
</g>
<!-- work -->
<g id="node8" class="node">
<title>work</title>
<path fill="#f8fafc" stroke="#94a3b8" d="M839.5,-45C839.5,-45 727.5,-45 727.5,-45 721.5,-45 715.5,-39 715.5,-33 715.5,-33 715.5,-21 715.5,-21 715.5,-15 721.5,-9 727.5,-9 727.5,-9 839.5,-9 839.5,-9 845.5,-9 851.5,-15 851.5,-21 851.5,-21 851.5,-33 851.5,-33 851.5,-39 845.5,-45 839.5,-45"/>
<text xml:space="preserve" text-anchor="middle" x="783.5" y="-21.57" font-family="Comic Mono" font-size="14.00">Holder Operation</text>
</g>
<!-- coordinator&#45;&gt;work -->
<g id="edge7" class="edge">
<title>coordinator&#45;&gt;work</title>
<path fill="none" stroke="#758297" d="M508.75,-40.9C508.75,-29.91 508.75,-18 508.75,-18 508.75,-18 703.72,-18 703.72,-18"/>
<polygon fill="#758297" stroke="#758297" points="703.72,-21.5 713.72,-18 703.72,-14.5 703.72,-21.5"/>
<text xml:space="preserve" text-anchor="middle" x="611.25" y="-29.5" font-family="Comic Mono" font-size="10.00">success</text>
</g>
<!-- backend -->
<g id="node5" class="node">
<title>backend</title>
<path fill="#f8fafc" stroke="#94a3b8" d="M1124,-128C1124,-128 1027,-128 1027,-128 1021,-128 1015,-122 1015,-116 1015,-116 1015,-104 1015,-104 1015,-98 1021,-92 1027,-92 1027,-92 1124,-92 1124,-92 1130,-92 1136,-98 1136,-104 1136,-104 1136,-116 1136,-116 1136,-122 1130,-128 1124,-128"/>
<text xml:space="preserve" text-anchor="middle" x="1075.5" y="-104.58" font-family="Comic Mono" font-size="14.00">Lease resource</text>
</g>
<!-- recovery -->
<g id="node7" class="node">
<title>recovery</title>
<path fill="#f8fafc" stroke="#94a3b8" d="M1377.75,-128C1377.75,-128 1250.75,-128 1250.75,-128 1244.75,-128 1238.75,-122 1238.75,-116 1238.75,-116 1238.75,-104 1238.75,-104 1238.75,-98 1244.75,-92 1250.75,-92 1250.75,-92 1377.75,-92 1377.75,-92 1383.75,-92 1389.75,-98 1389.75,-104 1389.75,-104 1389.75,-116 1389.75,-116 1389.75,-122 1383.75,-128 1377.75,-128"/>
<text xml:space="preserve" text-anchor="middle" x="1314.25" y="-104.58" font-family="Comic Mono" font-size="14.00">RenewTime Takeover</text>
</g>
<!-- backend&#45;&gt;recovery -->
<g id="edge8" class="edge">
<title>backend&#45;&gt;recovery</title>
<path fill="none" stroke="#758297" d="M1136.36,-110C1136.36,-110 1227.02,-110 1227.02,-110"/>
<polygon fill="#758297" stroke="#758297" points="1227.02,-113.5 1237.02,-110 1227.02,-106.5 1227.02,-113.5"/>
<text xml:space="preserve" text-anchor="middle" x="1187.38" y="-112.5" font-family="Comic Mono" font-size="10.00">release</text>
</g>
<!-- elector&#45;&gt;backend -->
<g id="edge6" class="edge">
<title>elector&#45;&gt;backend</title>
<path fill="none" stroke="#758297" d="M896.81,-110C896.81,-110 1003.39,-110 1003.39,-110"/>
<polygon fill="#758297" stroke="#758297" points="1003.39,-113.5 1013.39,-110 1003.39,-106.5 1003.39,-113.5"/>
<text xml:space="preserve" text-anchor="middle" x="955.75" y="-112.5" font-family="Comic Mono" font-size="10.00">contention</text>
</g>
</g>
</svg>
