<?xml version="1.0" encoding="UTF-8" standalone="no"?>
<!DOCTYPE svg PUBLIC "-//W3C//DTD SVG 1.1//EN"
 "http://www.w3.org/Graphics/SVG/1.1/DTD/svg11.dtd">
<!-- Generated by graphviz version 15.0.0 (20260523.1842)
 -->
<!-- Title: examples&#45;migration&#45;gate&#45;sequence&#45;01 Pages: 1 -->
<svg width="1275pt" height="503pt"
 viewBox="0.00 0.00 1275.00 503.00" xmlns="http://www.w3.org/2000/svg" xmlns:xlink="http://www.w3.org/1999/xlink">
<g id="graph0" class="graph" transform="scale(1 1) rotate(0) translate(4 499)">
<title>examples&#45;migration&#45;gate&#45;sequence&#45;01</title>
<!-- trigger -->
<g id="node1" class="node">
<title>trigger</title>
<path fill="#f8fafc" stroke="#94a3b8" d="M109,-58C109,-58 12,-58 12,-58 6,-58 0,-52 0,-46 0,-46 0,-34 0,-34 0,-28 6,-22 12,-22 12,-22 109,-22 109,-22 115,-22 121,-28 121,-34 121,-34 121,-46 121,-46 121,-52 115,-58 109,-58"/>
<text xml:space="preserve" text-anchor="middle" x="60.5" y="-34.58" font-family="Comic Mono" font-size="14.00">Deploy Startup</text>
</g>
<!-- coord -->
<g id="node2" class="node">
<title>coord</title>
<path fill="#f8fafc" stroke="#94a3b8" d="M393.5,-150C393.5,-150 304,-150 304,-150 298,-150 292,-144 292,-138 292,-138 292,-126 292,-126 292,-120 298,-114 304,-114 304,-114 393.5,-114 393.5,-114 399.5,-114 405.5,-120 405.5,-126 405.5,-126 405.5,-138 405.5,-138 405.5,-144 399.5,-150 393.5,-150"/>
<text xml:space="preserve" text-anchor="middle" x="348.75" y="-126.58" font-family="Comic Mono" font-size="14.00">MigrationGate</text>
</g>
<!-- trigger&#45;&gt;coord -->
<g id="edge1" class="edge">
<title>trigger&#45;&gt;coord</title>
<path fill="none" stroke="#4f83bf" d="M121.33,-49.25C205.97,-49.25 349,-49.25 349,-49.25 349,-49.25 349,-105.12 349,-105.12"/>
<polygon fill="#4f83bf" stroke="#4f83bf" points="346.55,-105.12 349,-112.12 351.45,-105.12 346.55,-105.12"/>
<text xml:space="preserve" text-anchor="middle" x="206.5" y="-89.5" font-family="Comic Mono" font-size="10.00">start deploy startup</text>
</g>
<!-- elector -->
<g id="node3" class="node">
<title>elector</title>
<path fill="#f8fafc" stroke="#94a3b8" d="M825,-266C825,-266 683,-266 683,-266 677,-266 671,-260 671,-254 671,-254 671,-242 671,-242 671,-236 677,-230 683,-230 683,-230 825,-230 825,-230 831,-230 837,-236 837,-242 837,-242 837,-254 837,-254 837,-260 831,-266 825,-266"/>
<text xml:space="preserve" text-anchor="middle" x="754" y="-242.57" font-family="Comic Mono" font-size="14.00">Exposed JDBC Elector</text>
</g>
<!-- coord&#45;&gt;elector -->
<g id="edge2" class="edge">
<title>coord&#45;&gt;elector</title>
<path fill="none" stroke="#4f83bf" d="M349,-150.38C349,-183.09 349,-248 349,-248 349,-248 662.06,-248 662.06,-248"/>
<polygon fill="#4f83bf" stroke="#4f83bf" points="662.06,-250.45 669.06,-248 662.06,-245.55 662.06,-250.45"/>
<text xml:space="preserve" text-anchor="middle" x="538.25" y="-211.5" font-family="Comic Mono" font-size="10.00">runIfLeader with source options</text>
</g>
<!-- backend -->
<g id="node4" class="node">
<title>backend</title>
<path fill="#f8fafc" stroke="#94a3b8" d="M1255,-400C1255,-400 1135.5,-400 1135.5,-400 1129.5,-400 1123.5,-394 1123.5,-388 1123.5,-388 1123.5,-376 1123.5,-376 1123.5,-370 1129.5,-364 1135.5,-364 1135.5,-364 1255,-364 1255,-364 1261,-364 1267,-370 1267,-376 1267,-376 1267,-388 1267,-388 1267,-394 1261,-400 1255,-400"/>
<text xml:space="preserve" text-anchor="middle" x="1195.25" y="-376.57" font-family="Comic Mono" font-size="14.00">leader lock table</text>
</g>
<!-- elector&#45;&gt;backend -->
<g id="edge3" class="edge">
<title>elector&#45;&gt;backend</title>
<path fill="none" stroke="#b9851b" d="M837.48,-260.86C947.16,-260.86 1126,-260.86 1126,-260.86 1126,-260.86 1126,-355.09 1126,-355.09"/>
<polygon fill="#b9851b" stroke="#b9851b" points="1123.55,-355.09 1126,-362.09 1128.45,-355.09 1123.55,-355.09"/>
<text xml:space="preserve" text-anchor="middle" x="980.25" y="-485.5" font-family="Comic Mono" font-size="10.00">attempt backend ownership</text>
</g>
<!-- elector&#45;&gt;backend -->
<g id="edge7" class="edge">
<title>elector&#45;&gt;backend</title>
<path fill="none" stroke="#755bc6" d="M837.22,-255.71C947.7,-255.71 1129,-255.71 1129,-255.71 1129,-255.71 1129,-355.12 1129,-355.12"/>
<polygon fill="#755bc6" stroke="#755bc6" points="1126.55,-355.12 1129,-362.12 1131.45,-355.12 1126.55,-355.12"/>
<text xml:space="preserve" text-anchor="middle" x="980.25" y="-418.5" font-family="Comic Mono" font-size="10.00">release or renew for schema marker recheck</text>
</g>
<!-- work -->
<g id="node5" class="node">
<title>work</title>
<path fill="#f8fafc" stroke="#94a3b8" d="M1240,-200C1240,-200 1150.5,-200 1150.5,-200 1144.5,-200 1138.5,-194 1138.5,-188 1138.5,-188 1138.5,-176 1138.5,-176 1138.5,-170 1144.5,-164 1150.5,-164 1150.5,-164 1240,-164 1240,-164 1246,-164 1252,-170 1252,-176 1252,-176 1252,-188 1252,-188 1252,-194 1246,-200 1240,-200"/>
<text xml:space="preserve" text-anchor="middle" x="1195.25" y="-176.57" font-family="Comic Mono" font-size="14.00">Run Migration</text>
</g>
<!-- elector&#45;&gt;work -->
<g id="edge5" class="edge">
<title>elector&#45;&gt;work</title>
<path fill="none" stroke="#3e9868" d="M837.37,-235.14C960.36,-235.14 1176,-235.14 1176,-235.14 1176,-235.14 1176,-208.8 1176,-208.8"/>
<polygon fill="#3e9868" stroke="#3e9868" points="1178.45,-208.8 1176,-201.8 1173.55,-208.8 1178.45,-208.8"/>
<text xml:space="preserve" text-anchor="middle" x="980.25" y="-217.5" font-family="Comic Mono" font-size="10.00">execute run migration</text>
</g>
<!-- peer -->
<g id="node6" class="node">
<title>peer</title>
<path fill="#f8fafc" stroke="#94a3b8" d="M1236.25,-59C1236.25,-59 1154.25,-59 1154.25,-59 1148.25,-59 1142.25,-53 1142.25,-47 1142.25,-47 1142.25,-35 1142.25,-35 1142.25,-29 1148.25,-23 1154.25,-23 1154.25,-23 1236.25,-23 1236.25,-23 1242.25,-23 1248.25,-29 1248.25,-35 1248.25,-35 1248.25,-47 1248.25,-47 1248.25,-53 1242.25,-59 1236.25,-59"/>
<text xml:space="preserve" text-anchor="middle" x="1195.25" y="-35.58" font-family="Comic Mono" font-size="14.00">Skipped Peer</text>
</g>
<!-- elector&#45;&gt;peer -->
<g id="edge9" class="edge">
<title>elector&#45;&gt;peer</title>
<path fill="none" stroke="#c94d68" d="M754,-229.59C754,-178.8 754,-40.5 754,-40.5 754,-40.5 1133.51,-40.5 1133.51,-40.5"/>
<polygon fill="#c94d68" stroke="#c94d68" points="1133.51,-42.95 1140.51,-40.5 1133.51,-38.05 1133.51,-42.95"/>
<text xml:space="preserve" text-anchor="middle" x="980.25" y="-83.5" font-family="Comic Mono" font-size="10.00">return skipped result</text>
</g>
<!-- backend&#45;&gt;elector -->
<g id="edge4" class="edge">
<title>backend&#45;&gt;elector</title>
<path fill="none" stroke="#3e9868" d="M1132,-363.73C1132,-327.61 1132,-250.57 1132,-250.57 1132,-250.57 845.94,-250.57 845.94,-250.57"/>
<polygon fill="#3e9868" stroke="#3e9868" points="845.94,-248.12 838.94,-250.57 845.94,-253.02 845.94,-248.12"/>
<text xml:space="preserve" text-anchor="middle" x="980.25" y="-351.5" font-family="Comic Mono" font-size="10.00">owner token accepted</text>
</g>
<!-- backend&#45;&gt;elector -->
<g id="edge8" class="edge">
<title>backend&#45;&gt;elector</title>
<path fill="none" stroke="#c94d68" d="M1135,-363.58C1135,-326.3 1135,-245.43 1135,-245.43 1135,-245.43 845.65,-245.43 845.65,-245.43"/>
<polygon fill="#c94d68" stroke="#c94d68" points="845.65,-242.98 838.65,-245.43 845.65,-247.88 845.65,-242.98"/>
<text xml:space="preserve" text-anchor="middle" x="980.25" y="-284.5" font-family="Comic Mono" font-size="10.00">lock already owned</text>
</g>
<!-- work&#45;&gt;elector -->
<g id="edge6" class="edge">
<title>work&#45;&gt;elector</title>
<path fill="none" stroke="#3e9868" d="M1214,-200.44C1214,-217.52 1214,-240.29 1214,-240.29 1214,-240.29 845.82,-240.29 845.82,-240.29"/>
<polygon fill="#3e9868" stroke="#3e9868" points="845.82,-237.84 838.82,-240.29 845.82,-242.74 845.82,-237.84"/>
<text xml:space="preserve" text-anchor="middle" x="980.25" y="-150.5" font-family="Comic Mono" font-size="10.00">return leader result</text>
</g>
<!-- peer&#45;&gt;trigger -->
<g id="edge10" class="edge">
<title>peer&#45;&gt;trigger</title>
<path fill="none" stroke="#c94d68" d="M1142.04,-31.75C1142.04,-31.75 129.9,-31.75 129.9,-31.75"/>
<polygon fill="#c94d68" stroke="#c94d68" points="129.9,-29.3 122.9,-31.75 129.9,-34.2 129.9,-29.3"/>
<text xml:space="preserve" text-anchor="middle" x="538.25" y="-2.5" font-family="Comic Mono" font-size="10.00">cycle completes without duplicate work</text>
</g>
</g>
</svg>
