<?xml version="1.0" encoding="UTF-8" standalone="no"?>
<!DOCTYPE svg PUBLIC "-//W3C//DTD SVG 1.1//EN"
 "http://www.w3.org/Graphics/SVG/1.1/DTD/svg11.dtd">
<!-- Generated by graphviz version 15.0.0 (20260523.1842)
 -->
<!-- Title: examples&#45;rate&#45;limiter&#45;sequence&#45;01 Pages: 1 -->
<svg width="1328pt" height="152pt"
 viewBox="0.00 0.00 1328.00 152.00" xmlns="http://www.w3.org/2000/svg" xmlns:xlink="http://www.w3.org/1999/xlink">
<g id="graph0" class="graph" transform="scale(1 1) rotate(0) translate(4 118.5)">
<title>examples&#45;rate&#45;limiter&#45;sequence&#45;01</title>
<text xml:space="preserve" text-anchor="middle" x="660.12" y="-97.2" font-family="Times,serif" font-size="14.00">Rate Limiter Sequence Flow</text>
<!-- n0&#45;&gt;n1 -->
<g id="edge1" class="edge">
<title>n0&#45;&gt;n1</title>
<path fill="none" stroke="#758297" stroke-width="1.8" d="M210.43,-48C210.43,-48 266.66,-48 266.66,-48"/>
<polygon fill="#758297" stroke="#758297" stroke-width="1.8" points="266.66,-50.8 274.66,-48 266.66,-45.2 266.66,-50.8"/>
</g>
<!-- n0&#45;&gt;n3 -->
<g id="edge5" class="edge">
<title>n0&#45;&gt;n3</title>
<path fill="none" stroke="#758297" stroke-width="1.8" d="M168.19,0.28C168.19,4.31 168.19,7 168.19,7 168.19,7 902.58,7 902.58,7 902.58,7 902.58,6.33 902.58,6.33"/>
<polygon fill="#758297" stroke="#758297" stroke-width="1.8" points="899.78,11.01 902.58,3.01 905.38,11.01 899.78,11.01"/>
</g>
<!-- n0&#45;&gt;n3 -->
<g id="edge9" class="edge">
<title>n0&#45;&gt;n3</title>
<path fill="none" stroke="#758297" stroke-width="1.8" d="M126.14,0.34C126.14,8.09 126.14,14 126.14,14 126.14,14 972.66,14 972.66,14 972.66,14 972.66,11.06 972.66,11.06"/>
<polygon fill="#758297" stroke="#758297" stroke-width="1.8" points="969.86,11.06 972.66,3.06 975.46,11.06 969.86,11.06"/>
</g>
<!-- n0&#45;&gt;n4 -->
<g id="edge7" class="edge">
<title>n0&#45;&gt;n4</title>
<path fill="none" stroke="#758297" stroke-width="1.8" d="M42.05,0.3C42.05,15.19 42.05,29 42.05,29 42.05,29 1180.08,29 1180.08,29 1180.08,29 1180.08,11.03 1180.08,11.03"/>
<polygon fill="#758297" stroke="#758297" stroke-width="1.8" points="1177.28,11.03 1180.08,3.03 1182.88,11.03 1177.28,11.03"/>
</g>
<!-- n1&#45;&gt;n0 -->
<g id="edge4" class="edge">
<title>n1&#45;&gt;n0</title>
<path fill="none" stroke="#758297" stroke-width="1.8" stroke-dasharray="5,2" d="M277.31,-24C277.31,-24 221.08,-24 221.08,-24"/>
<polygon fill="#758297" stroke="#758297" stroke-width="1.8" points="221.08,-21.2 213.08,-24 221.08,-26.8 221.08,-21.2"/>
</g>
<!-- n1&#45;&gt;n2 -->
<g id="edge2" class="edge">
<title>n1&#45;&gt;n2</title>
<path fill="none" stroke="#758297" stroke-width="1.8" d="M487.93,-48C487.93,-48 544.16,-48 544.16,-48"/>
<polygon fill="#758297" stroke="#758297" stroke-width="1.8" points="544.16,-50.8 552.16,-48 544.16,-45.2 544.16,-50.8"/>
</g>
<!-- n2&#45;&gt;n1 -->
<g id="edge3" class="edge">
<title>n2&#45;&gt;n1</title>
<path fill="none" stroke="#758297" stroke-width="1.8" stroke-dasharray="5,2" d="M554.81,-24C554.81,-24 498.58,-24 498.58,-24"/>
<polygon fill="#758297" stroke="#758297" stroke-width="1.8" points="498.58,-21.2 490.58,-24 498.58,-26.8 498.58,-21.2"/>
</g>
<!-- n3&#45;&gt;n0 -->
<g id="edge6" class="edge">
<title>n3&#45;&gt;n0</title>
<path fill="none" stroke="#758297" stroke-width="1.8" stroke-dasharray="5,2" d="M937.62,-72.32C937.62,-82.09 937.62,-90 937.62,-90 937.62,-90 105.12,-90 105.12,-90 105.12,-90 105.12,-83.04 105.12,-83.04"/>
<polygon fill="#758297" stroke="#758297" stroke-width="1.8" points="107.92,-83.04 105.12,-75.04 102.32,-83.04 107.92,-83.04"/>
</g>
<!-- n4&#45;&gt;n0 -->
<g id="edge8" class="edge">
<title>n4&#45;&gt;n0</title>
<path fill="none" stroke="#758297" stroke-width="1.8" stroke-dasharray="5,2" d="M1250.16,0.4C1250.16,12.06 1250.16,22 1250.16,22 1250.16,22 84.1,22 84.1,22 84.1,22 84.1,11.13 84.1,11.13"/>
<polygon fill="#758297" stroke="#758297" stroke-width="1.8" points="81.3,11.13 84.1,3.13 86.9,11.13 81.3,11.13"/>
</g>
<!-- n0 -->
<g id="node1" class="node">
<title>n0</title>
<path fill="#ffffff" stroke="#5b8def" d="M198.24,-72C198.24,-72 12,-72 12,-72 6,-72 0,-66 0,-60 0,-60 0,-12 0,-12 0,-6 6,0 12,0 12,0 198.24,0 198.24,0 204.24,0 210.24,-6 210.24,-12 210.24,-12 210.24,-60 210.24,-60 210.24,-66 204.24,-72 198.24,-72"/>
<text xml:space="preserve" text-anchor="middle" x="105.12" y="-31.65" font-family="Architects Daughter" font-size="18.00">Nodes</text>
</g>
<!-- n1 -->
<g id="node2" class="node">
<title>n1</title>
<path fill="#ffffff" stroke="#58a978" d="M475.74,-72C475.74,-72 289.5,-72 289.5,-72 283.5,-72 277.5,-66 277.5,-60 277.5,-60 277.5,-12 277.5,-12 277.5,-6 283.5,0 289.5,0 289.5,0 475.74,0 475.74,0 481.74,0 487.74,-6 487.74,-12 487.74,-12 487.74,-60 487.74,-60 487.74,-66 481.74,-72 475.74,-72"/>
<text xml:space="preserve" text-anchor="middle" x="382.62" y="-31.65" font-family="Architects Daughter" font-size="18.00">Leader scheduler</text>
</g>
<!-- n2 -->
<g id="node3" class="node">
<title>n2</title>
<path fill="#ffffff" stroke="#d6a441" d="M753.24,-72C753.24,-72 567,-72 567,-72 561,-72 555,-66 555,-60 555,-60 555,-12 555,-12 555,-6 561,0 567,0 567,0 753.24,0 753.24,0 759.24,0 765.24,-6 765.24,-12 765.24,-12 765.24,-60 765.24,-60 765.24,-66 759.24,-72 753.24,-72"/>
<text xml:space="preserve" text-anchor="middle" x="660.12" y="-31.65" font-family="Architects Daughter" font-size="18.00">Redis lock</text>
</g>
<!-- n3 -->
<g id="node4" class="node">
<title>n3</title>
<path fill="#ffffff" stroke="#dc6b82" d="M1030.74,-72C1030.74,-72 844.5,-72 844.5,-72 838.5,-72 832.5,-66 832.5,-60 832.5,-60 832.5,-12 832.5,-12 832.5,-6 838.5,0 844.5,0 844.5,0 1030.74,0 1030.74,0 1036.74,0 1042.74,-6 1042.74,-12 1042.74,-12 1042.74,-60 1042.74,-60 1042.74,-66 1036.74,-72 1030.74,-72"/>
<text xml:space="preserve" text-anchor="middle" x="937.62" y="-31.65" font-family="Architects Daughter" font-size="18.00">Bucket4j quota</text>
</g>
<!-- n4 -->
<g id="node5" class="node">
<title>n4</title>
<path fill="#ffffff" stroke="#45a7a1" d="M1308.24,-72C1308.24,-72 1122,-72 1122,-72 1116,-72 1110,-66 1110,-60 1110,-60 1110,-12 1110,-12 1110,-6 1116,0 1122,0 1122,0 1308.24,0 1308.24,0 1314.24,0 1320.24,-6 1320.24,-12 1320.24,-12 1320.24,-60 1320.24,-60 1320.24,-66 1314.24,-72 1308.24,-72"/>
<text xml:space="preserve" text-anchor="middle" x="1215.12" y="-31.65" font-family="Architects Daughter" font-size="18.00">External API</text>
</g>
</g>
</svg>
