<svg xmlns="http://www.w3.org/2000/svg" width="1390" height="620" viewBox="0 0 1390 620" role="img" aria-label="Rate Limiter Architecture">
  <metadata id="graphviz-evidence">Regenerated with Graphviz evidence: examples-rate-limiter-architecture-01.dot, examples-rate-limiter-architecture-01.plain, examples-rate-limiter-architecture-01-graphviz.svg via scripts/regenerate-readme-diagram-graphviz-evidence.mjs.</metadata>
<defs>
  <filter id="shadow" x="-8%" y="-8%" width="116%" height="116%"><feDropShadow dx="0" dy="8" stdDeviation="9" flood-color="#1f2937" flood-opacity="0.10"/></filter>
  <marker id="openArrow" markerWidth="12" markerHeight="10" refX="10" refY="5" orient="auto" markerUnits="strokeWidth"><path d="M 1 1 L 10 5 L 1 9" fill="none" stroke="#758297" stroke-width="1.8" stroke-linecap="round" stroke-linejoin="round"/></marker>
  <style>
    .canvas{fill:#f7f9fc}.frame{fill:#fff;stroke:#d8e0ea;stroke-width:1.5}
    .title{font-family:"Architects Daughter","Comic Mono","Comic Sans MS","Comic Sans",cursive;font-size:43px;font-weight:400;fill:#102033}
    .subtitle{font-family:"Comic Mono","Comic Sans MS","Comic Sans","Comic Neue",Arial,sans-serif;font-size:15px;font-weight:400;fill:#536273}
    .smallLabel{font-family:"Architects Daughter","Comic Mono","Comic Sans MS","Comic Sans",cursive;font-size:21px;font-weight:400;fill:#102033}
    .mono{font-family:"Comic Mono","Comic Sans MS","Comic Sans","Comic Neue",Arial,sans-serif;font-size:12px;font-weight:400;fill:#102033}
    .strong{font-family:"Comic Mono","Comic Sans MS","Comic Sans","Comic Neue",Arial,sans-serif;font-size:13px;font-weight:400;fill:#102033}
    .card{stroke-width:2.1;filter:url(#shadow)}
    .line{stroke:#758297;stroke-width:2.1;fill:none;marker-end:url(#openArrow)}
    .dashed{stroke:#758297;stroke-width:2.1;stroke-dasharray:7 6;fill:none;marker-end:url(#openArrow)}
    .lifeline{stroke:#b7c2d1;stroke-width:2;stroke-dasharray:10 10}
  </style>
</defs>
<rect class="canvas" width="1390" height="620"/>
<rect class="frame" x="32" y="28" width="1326" height="564" rx="28"/>
<text class="title" x="66" y="82">Rate Limiter Architecture</text>
<text class="subtitle" x="70" y="118">Leader election schedules work once; all workers share one Redis-backed Bucket4j quota</text>
<path class="line" d="M300 186 L330 186 L330 266 L360 266"/>
<path class="line" d="M300 346 L330 346 L330 266 L360 266"/>
<path class="line" d="M300 506 L330 506 L330 266 L360 266"/>
<path class="line" d="M660 266 L695 266 L695 266 L730 266"/>
<path class="line" d="M660 266 L680 266 L680 446 L700 446"/>
<path class="line" d="M1040 446 L1065 446 L1065 356 L1090 356"/>
<g id="node1" transform="translate(70,140)">
  <rect class="card" x="0" y="0" width="230" height="92" rx="14" fill="#E8F3FF" stroke="#5B8DEF"/>
  <text class="smallLabel" x="115" y="28" text-anchor="middle">Node-1</text>
  <text class="mono" x="115" y="53" text-anchor="middle">dispatch + worker</text>
  <text class="mono" x="115" y="70" text-anchor="middle">candidate</text>
</g>
<g id="node2" transform="translate(70,300)">
  <rect class="card" x="0" y="0" width="230" height="92" rx="14" fill="#EAF7EF" stroke="#58A978"/>
  <text class="smallLabel" x="115" y="28" text-anchor="middle">Node-2</text>
  <text class="mono" x="115" y="53" text-anchor="middle">dispatch + worker</text>
  <text class="mono" x="115" y="70" text-anchor="middle">candidate</text>
</g>
<g id="node3" transform="translate(70,460)">
  <rect class="card" x="0" y="0" width="230" height="92" rx="14" fill="#FFF3D9" stroke="#D6A441"/>
  <text class="smallLabel" x="115" y="28" text-anchor="middle">Node-3</text>
  <text class="mono" x="115" y="53" text-anchor="middle">dispatch + worker</text>
  <text class="mono" x="115" y="70" text-anchor="middle">candidate</text>
</g>
<g id="scheduler" transform="translate(360,220)">
  <rect class="card" x="0" y="0" width="300" height="92" rx="14" fill="#FDECEF" stroke="#DC6B82"/>
  <text class="smallLabel" x="150" y="28" text-anchor="middle">LeaderDispatchScheduler</text>
  <text class="mono" x="150" y="53" text-anchor="middle">schedule work once</text>
  <text class="mono" x="150" y="70" text-anchor="middle">REJECTED losers</text>
</g>
<g id="lock" transform="translate(730,220)">
  <rect class="card" x="0" y="0" width="230" height="92" rx="14" fill="#E9F7F6" stroke="#45A7A1"/>
  <text class="smallLabel" x="115" y="28" text-anchor="middle">Redis leader lock</text>
  <text class="mono" x="115" y="53" text-anchor="middle">rate-limiter:*</text>
  <text class="mono" x="115" y="70" text-anchor="middle">single scheduler</text>
</g>
<g id="limiter" transform="translate(700,400)">
  <rect class="card" x="0" y="0" width="340" height="92" rx="14" fill="#F1ECFF" stroke="#8A72D6"/>
  <text class="smallLabel" x="170" y="28" text-anchor="middle">DistributedSuspendRateLimiter</text>
  <text class="mono" x="170" y="53" text-anchor="middle">Bucket4j quota</text>
  <text class="mono" x="170" y="70" text-anchor="middle">10 calls/sec</text>
</g>
<g id="api" transform="translate(1090,310)">
  <rect class="card" x="0" y="0" width="230" height="92" rx="14" fill="#F7F1E7" stroke="#B88A44"/>
  <text class="smallLabel" x="115" y="28" text-anchor="middle">ExternalApiProbe</text>
  <text class="mono" x="115" y="53" text-anchor="middle">called only after token</text>
  <text class="mono" x="115" y="70" text-anchor="middle">global ceiling</text>
</g>
</svg>
