<?xml version="1.0" encoding="UTF-8" standalone="no"?>
<!DOCTYPE svg PUBLIC "-//W3C//DTD SVG 1.1//EN"
 "http://www.w3.org/Graphics/SVG/1.1/DTD/svg11.dtd">
<!-- Generated by graphviz version 15.0.0 (20260523.1842)
 -->
<!-- Title: examples&#45;tenant&#45;aggregator&#45;sequence&#45;01 Pages: 1 -->
<svg width="1327pt" height="503pt"
 viewBox="0.00 0.00 1327.00 503.00" xmlns="http://www.w3.org/2000/svg" xmlns:xlink="http://www.w3.org/1999/xlink">
<g id="graph0" class="graph" transform="scale(1 1) rotate(0) translate(4 499)">
<title>examples&#45;tenant&#45;aggregator&#45;sequence&#45;01</title>
<!-- trigger -->
<g id="node1" class="node">
<title>trigger</title>
<path fill="#f8fafc" stroke="#94a3b8" d="M94,-58C94,-58 12,-58 12,-58 6,-58 0,-52 0,-46 0,-46 0,-34 0,-34 0,-28 6,-22 12,-22 12,-22 94,-22 94,-22 100,-22 106,-28 106,-34 106,-34 106,-46 106,-46 106,-52 100,-58 94,-58"/>
<text xml:space="preserve" text-anchor="middle" x="53" y="-34.58" font-family="Comic Mono" font-size="14.00">Tenant Cycle</text>
</g>
<!-- coord -->
<g id="node2" class="node">
<title>coord</title>
<path fill="#f8fafc" stroke="#94a3b8" d="M390.5,-150C390.5,-150 278.5,-150 278.5,-150 272.5,-150 266.5,-144 266.5,-138 266.5,-138 266.5,-126 266.5,-126 266.5,-120 272.5,-114 278.5,-114 278.5,-114 390.5,-114 390.5,-114 396.5,-114 402.5,-120 402.5,-126 402.5,-126 402.5,-138 402.5,-138 402.5,-144 396.5,-150 390.5,-150"/>
<text xml:space="preserve" text-anchor="middle" x="334.5" y="-126.58" font-family="Comic Mono" font-size="14.00">TenantAggregator</text>
</g>
<!-- trigger&#45;&gt;coord -->
<g id="edge1" class="edge">
<title>trigger&#45;&gt;coord</title>
<path fill="none" stroke="#4f83bf" d="M52.75,-58.18C52.75,-84.99 52.75,-132 52.75,-132 52.75,-132 257.78,-132 257.78,-132"/>
<polygon fill="#4f83bf" stroke="#4f83bf" points="257.78,-134.45 264.78,-132 257.78,-129.55 257.78,-134.45"/>
<text xml:space="preserve" text-anchor="middle" x="186.25" y="-89.5" font-family="Comic Mono" font-size="10.00">start tenant cycle</text>
</g>
<!-- elector -->
<g id="node3" class="node">
<title>elector</title>
<path fill="#f8fafc" stroke="#94a3b8" d="M829.5,-266C829.5,-266 680,-266 680,-266 674,-266 668,-260 668,-254 668,-254 668,-242 668,-242 668,-236 674,-230 680,-230 680,-230 829.5,-230 829.5,-230 835.5,-230 841.5,-236 841.5,-242 841.5,-242 841.5,-254 841.5,-254 841.5,-260 835.5,-266 829.5,-266"/>
<text xml:space="preserve" text-anchor="middle" x="754.75" y="-242.57" font-family="Comic Mono" font-size="14.00">R2DBC leader electors</text>
</g>
<!-- coord&#45;&gt;elector -->
<g id="edge2" class="edge">
<title>coord&#45;&gt;elector</title>
<path fill="none" stroke="#4f83bf" d="M334.75,-150.38C334.75,-183.09 334.75,-248 334.75,-248 334.75,-248 659.21,-248 659.21,-248"/>
<polygon fill="#4f83bf" stroke="#4f83bf" points="659.21,-250.45 666.21,-248 659.21,-245.55 659.21,-250.45"/>
<text xml:space="preserve" text-anchor="middle" x="535.25" y="-211.5" font-family="Comic Mono" font-size="10.00">runIfLeader with source options</text>
</g>
<!-- backend -->
<g id="node4" class="node">
<title>backend</title>
<path fill="#f8fafc" stroke="#94a3b8" d="M1276.75,-400C1276.75,-400 1164.75,-400 1164.75,-400 1158.75,-400 1152.75,-394 1152.75,-388 1152.75,-388 1152.75,-376 1152.75,-376 1152.75,-370 1158.75,-364 1164.75,-364 1164.75,-364 1276.75,-364 1276.75,-364 1282.75,-364 1288.75,-370 1288.75,-376 1288.75,-376 1288.75,-388 1288.75,-388 1288.75,-394 1282.75,-400 1276.75,-400"/>
<text xml:space="preserve" text-anchor="middle" x="1220.75" y="-376.57" font-family="Comic Mono" font-size="14.00">tenant lock rows</text>
</g>
<!-- elector&#45;&gt;backend -->
<g id="edge3" class="edge">
<title>elector&#45;&gt;backend</title>
<path fill="none" stroke="#b9851b" d="M841.78,-260.86C966.12,-260.86 1179.75,-260.86 1179.75,-260.86 1179.75,-260.86 1179.75,-355.09 1179.75,-355.09"/>
<polygon fill="#b9851b" stroke="#b9851b" points="1177.3,-355.09 1179.75,-362.09 1182.2,-355.09 1177.3,-355.09"/>
<text xml:space="preserve" text-anchor="middle" x="982.12" y="-485.5" font-family="Comic Mono" font-size="10.00">attempt backend ownership</text>
</g>
<!-- elector&#45;&gt;backend -->
<g id="edge7" class="edge">
<title>elector&#45;&gt;backend</title>
<path fill="none" stroke="#755bc6" d="M841.9,-255.71C973.25,-255.71 1206.75,-255.71 1206.75,-255.71 1206.75,-255.71 1206.75,-355.12 1206.75,-355.12"/>
<polygon fill="#755bc6" stroke="#755bc6" points="1204.3,-355.12 1206.75,-362.12 1209.2,-355.12 1204.3,-355.12"/>
<text xml:space="preserve" text-anchor="middle" x="982.12" y="-418.5" font-family="Comic Mono" font-size="10.00">release or renew for per&#45;tenant isolation</text>
</g>
<!-- work -->
<g id="node5" class="node">
<title>work</title>
<path fill="#f8fafc" stroke="#94a3b8" d="M1306.75,-200C1306.75,-200 1134.75,-200 1134.75,-200 1128.75,-200 1122.75,-194 1122.75,-188 1122.75,-188 1122.75,-176 1122.75,-176 1122.75,-170 1128.75,-164 1134.75,-164 1134.75,-164 1306.75,-164 1306.75,-164 1312.75,-164 1318.75,-170 1318.75,-176 1318.75,-176 1318.75,-188 1318.75,-188 1318.75,-194 1312.75,-200 1306.75,-200"/>
<text xml:space="preserve" text-anchor="middle" x="1220.75" y="-176.57" font-family="Comic Mono" font-size="14.00">Aggregate Tenant Metrics</text>
</g>
<!-- elector&#45;&gt;work -->
<g id="edge5" class="edge">
<title>elector&#45;&gt;work</title>
<path fill="none" stroke="#3e9868" d="M841.95,-235.14C953.58,-235.14 1132.75,-235.14 1132.75,-235.14 1132.75,-235.14 1132.75,-208.8 1132.75,-208.8"/>
<polygon fill="#3e9868" stroke="#3e9868" points="1135.2,-208.8 1132.75,-201.8 1130.3,-208.8 1135.2,-208.8"/>
<text xml:space="preserve" text-anchor="middle" x="982.12" y="-217.5" font-family="Comic Mono" font-size="10.00">execute aggregate tenant metrics</text>
</g>
<!-- peer -->
<g id="node6" class="node">
<title>peer</title>
<path fill="#f8fafc" stroke="#94a3b8" d="M1261.75,-59C1261.75,-59 1179.75,-59 1179.75,-59 1173.75,-59 1167.75,-53 1167.75,-47 1167.75,-47 1167.75,-35 1167.75,-35 1167.75,-29 1173.75,-23 1179.75,-23 1179.75,-23 1261.75,-23 1261.75,-23 1267.75,-23 1273.75,-29 1273.75,-35 1273.75,-35 1273.75,-47 1273.75,-47 1273.75,-53 1267.75,-59 1261.75,-59"/>
<text xml:space="preserve" text-anchor="middle" x="1220.75" y="-35.58" font-family="Comic Mono" font-size="14.00">Skipped Peer</text>
</g>
<!-- elector&#45;&gt;peer -->
<g id="edge9" class="edge">
<title>elector&#45;&gt;peer</title>
<path fill="none" stroke="#c94d68" d="M754.75,-229.75C754.75,-180.11 754.75,-46.33 754.75,-46.33 754.75,-46.33 1158.78,-46.33 1158.78,-46.33"/>
<polygon fill="#c94d68" stroke="#c94d68" points="1158.78,-48.78 1165.78,-46.33 1158.78,-43.88 1158.78,-48.78"/>
<text xml:space="preserve" text-anchor="middle" x="982.12" y="-83.5" font-family="Comic Mono" font-size="10.00">return skipped result</text>
</g>
<!-- backend&#45;&gt;elector -->
<g id="edge4" class="edge">
<title>backend&#45;&gt;elector</title>
<path fill="none" stroke="#3e9868" d="M1234.75,-363.73C1234.75,-327.61 1234.75,-250.57 1234.75,-250.57 1234.75,-250.57 850.47,-250.57 850.47,-250.57"/>
<polygon fill="#3e9868" stroke="#3e9868" points="850.47,-248.12 843.47,-250.57 850.47,-253.02 850.47,-248.12"/>
<text xml:space="preserve" text-anchor="middle" x="982.12" y="-351.5" font-family="Comic Mono" font-size="10.00">owner token accepted</text>
</g>
<!-- backend&#45;&gt;elector -->
<g id="edge8" class="edge">
<title>backend&#45;&gt;elector</title>
<path fill="none" stroke="#c94d68" d="M1261.75,-363.58C1261.75,-326.3 1261.75,-245.43 1261.75,-245.43 1261.75,-245.43 850.42,-245.43 850.42,-245.43"/>
<polygon fill="#c94d68" stroke="#c94d68" points="850.42,-242.98 843.42,-245.43 850.42,-247.88 850.42,-242.98"/>
<text xml:space="preserve" text-anchor="middle" x="982.12" y="-284.5" font-family="Comic Mono" font-size="10.00">lock already owned</text>
</g>
<!-- work&#45;&gt;elector -->
<g id="edge6" class="edge">
<title>work&#45;&gt;elector</title>
<path fill="none" stroke="#3e9868" d="M1142.75,-200.44C1142.75,-217.52 1142.75,-240.29 1142.75,-240.29 1142.75,-240.29 850.34,-240.29 850.34,-240.29"/>
<polygon fill="#3e9868" stroke="#3e9868" points="850.34,-237.84 843.34,-240.29 850.34,-242.74 850.34,-237.84"/>
<text xml:space="preserve" text-anchor="middle" x="982.12" y="-150.5" font-family="Comic Mono" font-size="10.00">return leader result</text>
</g>
<!-- peer&#45;&gt;trigger -->
<g id="edge10" class="edge">
<title>peer&#45;&gt;trigger</title>
<path fill="none" stroke="#c94d68" d="M1167.54,-34.67C1167.54,-34.67 114.7,-34.67 114.7,-34.67"/>
<polygon fill="#c94d68" stroke="#c94d68" points="114.7,-32.22 107.7,-34.67 114.7,-37.12 114.7,-32.22"/>
<text xml:space="preserve" text-anchor="middle" x="535.25" y="-2.5" font-family="Comic Mono" font-size="10.00">cycle completes without duplicate work</text>
</g>
</g>
</svg>
