<?xml version="1.0" encoding="UTF-8" standalone="no"?>
<!DOCTYPE svg PUBLIC "-//W3C//DTD SVG 1.1//EN"
 "http://www.w3.org/Graphics/SVG/1.1/DTD/svg11.dtd">
<!-- Generated by graphviz version 15.0.0 (20260523.1842)
 -->
<!-- Title: examples&#45;k8s&#45;operator&#45;sequence&#45;01 Pages: 1 -->
<svg width="1378pt" height="503pt"
 viewBox="0.00 0.00 1378.00 503.00" xmlns="http://www.w3.org/2000/svg" xmlns:xlink="http://www.w3.org/1999/xlink">
<g id="graph0" class="graph" transform="scale(1 1) rotate(0) translate(4 499)">
<title>examples&#45;k8s&#45;operator&#45;sequence&#45;01</title>
<!-- trigger -->
<g id="node1" class="node">
<title>trigger</title>
<path fill="#f8fafc" stroke="#94a3b8" d="M131.5,-58C131.5,-58 12,-58 12,-58 6,-58 0,-52 0,-46 0,-46 0,-34 0,-34 0,-28 6,-22 12,-22 12,-22 131.5,-22 131.5,-22 137.5,-22 143.5,-28 143.5,-34 143.5,-34 143.5,-46 143.5,-46 143.5,-52 137.5,-58 131.5,-58"/>
<text xml:space="preserve" text-anchor="middle" x="71.75" y="-34.58" font-family="Comic Mono" font-size="14.00">Operator Schedule</text>
</g>
<!-- coord -->
<g id="node2" class="node">
<title>coord</title>
<path fill="#f8fafc" stroke="#94a3b8" d="M469.25,-150C469.25,-150 342.25,-150 342.25,-150 336.25,-150 330.25,-144 330.25,-138 330.25,-138 330.25,-126 330.25,-126 330.25,-120 336.25,-114 342.25,-114 342.25,-114 469.25,-114 469.25,-114 475.25,-114 481.25,-120 481.25,-126 481.25,-126 481.25,-138 481.25,-138 481.25,-144 475.25,-150 469.25,-150"/>
<text xml:space="preserve" text-anchor="middle" x="405.75" y="-126.58" font-family="Comic Mono" font-size="14.00">OperatorController</text>
</g>
<!-- trigger&#45;&gt;coord -->
<g id="edge1" class="edge">
<title>trigger&#45;&gt;coord</title>
<path fill="none" stroke="#4f83bf" d="M71.75,-58.18C71.75,-84.99 71.75,-132 71.75,-132 71.75,-132 321.45,-132 321.45,-132"/>
<polygon fill="#4f83bf" stroke="#4f83bf" points="321.45,-134.45 328.45,-132 321.45,-129.55 321.45,-134.45"/>
<text xml:space="preserve" text-anchor="middle" x="236.88" y="-89.5" font-family="Comic Mono" font-size="10.00">start operator schedule</text>
</g>
<!-- elector -->
<g id="node3" class="node">
<title>elector</title>
<path fill="#f8fafc" stroke="#94a3b8" d="M930.75,-266C930.75,-266 758.75,-266 758.75,-266 752.75,-266 746.75,-260 746.75,-254 746.75,-254 746.75,-242 746.75,-242 746.75,-236 752.75,-230 758.75,-230 758.75,-230 930.75,-230 930.75,-230 936.75,-230 942.75,-236 942.75,-242 942.75,-242 942.75,-254 942.75,-254 942.75,-260 936.75,-266 930.75,-266"/>
<text xml:space="preserve" text-anchor="middle" x="844.75" y="-242.57" font-family="Comic Mono" font-size="14.00">Kubernetes Lease Elector</text>
</g>
<!-- coord&#45;&gt;elector -->
<g id="edge2" class="edge">
<title>coord&#45;&gt;elector</title>
<path fill="none" stroke="#4f83bf" d="M405.75,-150.38C405.75,-183.09 405.75,-248 405.75,-248 405.75,-248 737.99,-248 737.99,-248"/>
<polygon fill="#4f83bf" stroke="#4f83bf" points="737.99,-250.45 744.99,-248 737.99,-245.55 737.99,-250.45"/>
<text xml:space="preserve" text-anchor="middle" x="614" y="-211.5" font-family="Comic Mono" font-size="10.00">runIfLeader with source options</text>
</g>
<!-- backend -->
<g id="node4" class="node">
<title>backend</title>
<path fill="#f8fafc" stroke="#94a3b8" d="M1357.75,-400C1357.75,-400 1230.75,-400 1230.75,-400 1224.75,-400 1218.75,-394 1218.75,-388 1218.75,-388 1218.75,-376 1218.75,-376 1218.75,-370 1224.75,-364 1230.75,-364 1230.75,-364 1357.75,-364 1357.75,-364 1363.75,-364 1369.75,-370 1369.75,-376 1369.75,-376 1369.75,-388 1369.75,-388 1369.75,-394 1363.75,-400 1357.75,-400"/>
<text xml:space="preserve" text-anchor="middle" x="1294.25" y="-376.57" font-family="Comic Mono" font-size="14.00">coordination Lease</text>
</g>
<!-- elector&#45;&gt;backend -->
<g id="edge3" class="edge">
<title>elector&#45;&gt;backend</title>
<path fill="none" stroke="#b9851b" d="M943.15,-260.86C1060.43,-260.86 1240.75,-260.86 1240.75,-260.86 1240.75,-260.86 1240.75,-355.09 1240.75,-355.09"/>
<polygon fill="#b9851b" stroke="#b9851b" points="1238.3,-355.09 1240.75,-362.09 1243.2,-355.09 1238.3,-355.09"/>
<text xml:space="preserve" text-anchor="middle" x="1080.75" y="-485.5" font-family="Comic Mono" font-size="10.00">attempt backend ownership</text>
</g>
<!-- elector&#45;&gt;backend -->
<g id="edge7" class="edge">
<title>elector&#45;&gt;backend</title>
<path fill="none" stroke="#755bc6" d="M943.05,-255.71C1066.33,-255.71 1261.75,-255.71 1261.75,-255.71 1261.75,-255.71 1261.75,-355.12 1261.75,-355.12"/>
<polygon fill="#755bc6" stroke="#755bc6" points="1259.3,-355.12 1261.75,-362.12 1264.2,-355.12 1259.3,-355.12"/>
<text xml:space="preserve" text-anchor="middle" x="1080.75" y="-418.5" font-family="Comic Mono" font-size="10.00">release or renew for RBAC scoped handoff</text>
</g>
<!-- work -->
<g id="node5" class="node">
<title>work</title>
<path fill="#f8fafc" stroke="#94a3b8" d="M1357.75,-200C1357.75,-200 1230.75,-200 1230.75,-200 1224.75,-200 1218.75,-194 1218.75,-188 1218.75,-188 1218.75,-176 1218.75,-176 1218.75,-170 1224.75,-164 1230.75,-164 1230.75,-164 1357.75,-164 1357.75,-164 1363.75,-164 1369.75,-170 1369.75,-176 1369.75,-176 1369.75,-188 1369.75,-188 1369.75,-194 1363.75,-200 1357.75,-200"/>
<text xml:space="preserve" text-anchor="middle" x="1294.25" y="-176.57" font-family="Comic Mono" font-size="14.00">Reconcile Workload</text>
</g>
<!-- elector&#45;&gt;work -->
<g id="edge5" class="edge">
<title>elector&#45;&gt;work</title>
<path fill="none" stroke="#3e9868" d="M943.16,-235.14C1084.13,-235.14 1326.75,-235.14 1326.75,-235.14 1326.75,-235.14 1326.75,-208.8 1326.75,-208.8"/>
<polygon fill="#3e9868" stroke="#3e9868" points="1329.2,-208.8 1326.75,-201.8 1324.3,-208.8 1329.2,-208.8"/>
<text xml:space="preserve" text-anchor="middle" x="1080.75" y="-217.5" font-family="Comic Mono" font-size="10.00">execute reconcile workload</text>
</g>
<!-- peer -->
<g id="node6" class="node">
<title>peer</title>
<path fill="#f8fafc" stroke="#94a3b8" d="M1335.25,-59C1335.25,-59 1253.25,-59 1253.25,-59 1247.25,-59 1241.25,-53 1241.25,-47 1241.25,-47 1241.25,-35 1241.25,-35 1241.25,-29 1247.25,-23 1253.25,-23 1253.25,-23 1335.25,-23 1335.25,-23 1341.25,-23 1347.25,-29 1347.25,-35 1347.25,-35 1347.25,-47 1347.25,-47 1347.25,-53 1341.25,-59 1335.25,-59"/>
<text xml:space="preserve" text-anchor="middle" x="1294.25" y="-35.58" font-family="Comic Mono" font-size="14.00">Skipped Peer</text>
</g>
<!-- elector&#45;&gt;peer -->
<g id="edge9" class="edge">
<title>elector&#45;&gt;peer</title>
<path fill="none" stroke="#c94d68" d="M844.75,-229.75C844.75,-180.11 844.75,-46.33 844.75,-46.33 844.75,-46.33 1232.41,-46.33 1232.41,-46.33"/>
<polygon fill="#c94d68" stroke="#c94d68" points="1232.41,-48.78 1239.41,-46.33 1232.41,-43.88 1232.41,-48.78"/>
<text xml:space="preserve" text-anchor="middle" x="1080.75" y="-83.5" font-family="Comic Mono" font-size="10.00">return skipped result</text>
</g>
<!-- backend&#45;&gt;elector -->
<g id="edge4" class="edge">
<title>backend&#45;&gt;elector</title>
<path fill="none" stroke="#3e9868" d="M1283.75,-363.73C1283.75,-327.61 1283.75,-250.57 1283.75,-250.57 1283.75,-250.57 951.51,-250.57 951.51,-250.57"/>
<polygon fill="#3e9868" stroke="#3e9868" points="951.51,-248.12 944.51,-250.57 951.51,-253.02 951.51,-248.12"/>
<text xml:space="preserve" text-anchor="middle" x="1080.75" y="-351.5" font-family="Comic Mono" font-size="10.00">owner token accepted</text>
</g>
<!-- backend&#45;&gt;elector -->
<g id="edge8" class="edge">
<title>backend&#45;&gt;elector</title>
<path fill="none" stroke="#c94d68" d="M1304.75,-363.58C1304.75,-326.3 1304.75,-245.43 1304.75,-245.43 1304.75,-245.43 951.66,-245.43 951.66,-245.43"/>
<polygon fill="#c94d68" stroke="#c94d68" points="951.66,-242.98 944.66,-245.43 951.66,-247.88 951.66,-242.98"/>
<text xml:space="preserve" text-anchor="middle" x="1080.75" y="-284.5" font-family="Comic Mono" font-size="10.00">lock already owned</text>
</g>
<!-- work&#45;&gt;elector -->
<g id="edge6" class="edge">
<title>work&#45;&gt;elector</title>
<path fill="none" stroke="#3e9868" d="M1347.75,-200.44C1347.75,-217.52 1347.75,-240.29 1347.75,-240.29 1347.75,-240.29 951.74,-240.29 951.74,-240.29"/>
<polygon fill="#3e9868" stroke="#3e9868" points="951.74,-237.84 944.74,-240.29 951.74,-242.74 951.74,-237.84"/>
<text xml:space="preserve" text-anchor="middle" x="1080.75" y="-150.5" font-family="Comic Mono" font-size="10.00">return leader result</text>
</g>
<!-- peer&#45;&gt;trigger -->
<g id="edge10" class="edge">
<title>peer&#45;&gt;trigger</title>
<path fill="none" stroke="#c94d68" d="M1240.93,-34.67C1240.93,-34.67 152.36,-34.67 152.36,-34.67"/>
<polygon fill="#c94d68" stroke="#c94d68" points="152.36,-32.22 145.36,-34.67 152.36,-37.12 152.36,-32.22"/>
<text xml:space="preserve" text-anchor="middle" x="614" y="-2.5" font-family="Comic Mono" font-size="10.00">cycle completes without duplicate work</text>
</g>
</g>
</svg>
