<?xml version="1.0" encoding="UTF-8" standalone="no"?>
<!DOCTYPE svg PUBLIC "-//W3C//DTD SVG 1.1//EN"
 "http://www.w3.org/Graphics/SVG/1.1/DTD/svg11.dtd">
<!-- Generated by graphviz version 15.0.0 (20260523.1842)
 -->
<!-- Title: examples&#45;zookeeper&#45;scheduler&#45;scenario&#45;01 Pages: 1 -->
<svg width="1218pt" height="195pt"
 viewBox="7.00 7.00 1211.00 188.00" xmlns="http://www.w3.org/2000/svg" xmlns:xlink="http://www.w3.org/1999/xlink">
<g id="graph0" class="graph" transform="scale(1 1) rotate(0) translate(11.2 184.25)">
<title>examples&#45;zookeeper&#45;scheduler&#45;scenario&#45;01</title>
<!-- Same schedule -->
<g id="node1" class="node">
<title>Same schedule</title>
<path fill="#f8fafc" stroke="#94a3b8" d="M101.5,-68C101.5,-68 12,-68 12,-68 6,-68 0,-62 0,-56 0,-56 0,-44 0,-44 0,-38 6,-32 12,-32 12,-32 101.5,-32 101.5,-32 107.5,-32 113.5,-38 113.5,-44 113.5,-44 113.5,-56 113.5,-56 113.5,-62 107.5,-68 101.5,-68"/>
<text xml:space="preserve" text-anchor="middle" x="56.75" y="-44.58" font-family="Comic Mono" font-size="14.00">Same schedule</text>
</g>
<!-- node&#45;a -->
<g id="node2" class="node">
<title>node&#45;a</title>
<path fill="#f8fafc" stroke="#94a3b8" d="M270.5,-125C270.5,-125 233.5,-125 233.5,-125 227.5,-125 221.5,-119 221.5,-113 221.5,-113 221.5,-101 221.5,-101 221.5,-95 227.5,-89 233.5,-89 233.5,-89 270.5,-89 270.5,-89 276.5,-89 282.5,-95 282.5,-101 282.5,-101 282.5,-113 282.5,-113 282.5,-119 276.5,-125 270.5,-125"/>
<text xml:space="preserve" text-anchor="middle" x="252" y="-101.58" font-family="Comic Mono" font-size="14.00">node&#45;a</text>
</g>
<!-- Same schedule&#45;&gt;node&#45;a -->
<g id="edge1" class="edge">
<title>Same schedule&#45;&gt;node&#45;a</title>
<path fill="none" stroke="#758297" d="M113.91,-66.56C144.66,-75.63 182.09,-86.68 210.07,-94.93"/>
<polygon fill="#758297" stroke="#758297" points="209.02,-98.27 219.6,-97.74 211,-91.55 209.02,-98.27"/>
<text xml:space="preserve" text-anchor="middle" x="167.5" y="-91.06" font-family="Comic Mono" font-size="10.00">trigger</text>
</g>
<!-- node&#45;b -->
<g id="node5" class="node">
<title>node&#45;b</title>
<path fill="#f8fafc" stroke="#94a3b8" d="M364.5,-36C364.5,-36 327.5,-36 327.5,-36 321.5,-36 315.5,-30 315.5,-24 315.5,-24 315.5,-12 315.5,-12 315.5,-6 321.5,0 327.5,0 327.5,0 364.5,0 364.5,0 370.5,0 376.5,-6 376.5,-12 376.5,-12 376.5,-24 376.5,-24 376.5,-30 370.5,-36 364.5,-36"/>
<text xml:space="preserve" text-anchor="middle" x="346" y="-12.57" font-family="Comic Mono" font-size="14.00">node&#45;b</text>
</g>
<!-- Same schedule&#45;&gt;node&#45;b -->
<g id="edge6" class="edge">
<title>Same schedule&#45;&gt;node&#45;b</title>
<path fill="none" stroke="#758297" d="M113.82,-43.75C169.59,-37.54 253.86,-28.15 303.76,-22.59"/>
<polygon fill="#758297" stroke="#758297" points="304.02,-26.09 313.57,-21.5 303.24,-19.13 304.02,-26.09"/>
<text xml:space="preserve" text-anchor="middle" x="167.5" y="-42.54" font-family="Comic Mono" font-size="10.00">same run</text>
</g>
<!-- ZooKeeper lock -->
<g id="node3" class="node">
<title>ZooKeeper lock</title>
<path fill="#f8fafc" stroke="#94a3b8" d="M966.75,-125C966.75,-125 869.75,-125 869.75,-125 863.75,-125 857.75,-119 857.75,-113 857.75,-113 857.75,-101 857.75,-101 857.75,-95 863.75,-89 869.75,-89 869.75,-89 966.75,-89 966.75,-89 972.75,-89 978.75,-95 978.75,-101 978.75,-101 978.75,-113 978.75,-113 978.75,-119 972.75,-125 966.75,-125"/>
<text xml:space="preserve" text-anchor="middle" x="918.25" y="-101.58" font-family="Comic Mono" font-size="14.00">ZooKeeper lock</text>
</g>
<!-- node&#45;a&#45;&gt;ZooKeeper lock -->
<g id="edge2" class="edge">
<title>node&#45;a&#45;&gt;ZooKeeper lock</title>
<path fill="none" stroke="#758297" d="M282.89,-119.06C293.12,-122.9 304.71,-126.94 315.5,-130 356.51,-141.62 367.09,-144.76 409.5,-149 557.65,-163.82 596.62,-166.27 744.5,-149 780.91,-144.75 789.13,-138.64 824.75,-130 831.8,-128.29 839.14,-126.49 846.48,-124.68"/>
<polygon fill="#758297" stroke="#758297" points="847.23,-128.1 856.09,-122.31 845.55,-121.31 847.23,-128.1"/>
<text xml:space="preserve" text-anchor="middle" x="577" y="-163.55" font-family="Comic Mono" font-size="10.00">lock</text>
</g>
<!-- Lock released -->
<g id="node7" class="node">
<title>Lock released</title>
<path fill="#f8fafc" stroke="#94a3b8" d="M511,-125C511,-125 421.5,-125 421.5,-125 415.5,-125 409.5,-119 409.5,-113 409.5,-113 409.5,-101 409.5,-101 409.5,-95 415.5,-89 421.5,-89 421.5,-89 511,-89 511,-89 517,-89 523,-95 523,-101 523,-101 523,-113 523,-113 523,-119 517,-125 511,-125"/>
<text xml:space="preserve" text-anchor="middle" x="466.25" y="-101.58" font-family="Comic Mono" font-size="14.00">Lock released</text>
</g>
<!-- node&#45;a&#45;&gt;Lock released -->
<g id="edge7" class="edge">
<title>node&#45;a&#45;&gt;Lock released</title>
<path fill="none" stroke="#758297" d="M282.96,-107C312.71,-107 359.32,-107 397.97,-107"/>
<polygon fill="#758297" stroke="#758297" points="397.64,-110.5 407.64,-107 397.64,-103.5 397.64,-110.5"/>
<text xml:space="preserve" text-anchor="middle" x="346" y="-109.5" font-family="Comic Mono" font-size="10.00">release</text>
</g>
<!-- Legacy job -->
<g id="node4" class="node">
<title>Legacy job</title>
<path fill="#f8fafc" stroke="#94a3b8" d="M1180,-167C1180,-167 1113,-167 1113,-167 1107,-167 1101,-161 1101,-155 1101,-155 1101,-143 1101,-143 1101,-137 1107,-131 1113,-131 1113,-131 1180,-131 1180,-131 1186,-131 1192,-137 1192,-143 1192,-143 1192,-155 1192,-155 1192,-161 1186,-167 1180,-167"/>
<text xml:space="preserve" text-anchor="middle" x="1146.5" y="-143.57" font-family="Comic Mono" font-size="14.00">Legacy job</text>
</g>
<!-- ZooKeeper lock&#45;&gt;Legacy job -->
<g id="edge4" class="edge">
<title>ZooKeeper lock&#45;&gt;Legacy job</title>
<path fill="none" stroke="#758297" d="M978.99,-118.09C1013.22,-124.44 1055.91,-132.37 1089.49,-138.6"/>
<polygon fill="#758297" stroke="#758297" points="1088.55,-141.99 1099.02,-140.37 1089.83,-135.11 1088.55,-141.99"/>
<text xml:space="preserve" text-anchor="middle" x="1038" y="-135.5" font-family="Comic Mono" font-size="10.00">leader</text>
</g>
<!-- Skip report -->
<g id="node6" class="node">
<title>Skip report</title>
<path fill="#f8fafc" stroke="#94a3b8" d="M1183.75,-84C1183.75,-84 1109.25,-84 1109.25,-84 1103.25,-84 1097.25,-78 1097.25,-72 1097.25,-72 1097.25,-60 1097.25,-60 1097.25,-54 1103.25,-48 1109.25,-48 1109.25,-48 1183.75,-48 1183.75,-48 1189.75,-48 1195.75,-54 1195.75,-60 1195.75,-60 1195.75,-72 1195.75,-72 1195.75,-78 1189.75,-84 1183.75,-84"/>
<text xml:space="preserve" text-anchor="middle" x="1146.5" y="-60.58" font-family="Comic Mono" font-size="14.00">Skip report</text>
</g>
<!-- ZooKeeper lock&#45;&gt;Skip report -->
<g id="edge5" class="edge">
<title>ZooKeeper lock&#45;&gt;Skip report</title>
<path fill="none" stroke="#758297" d="M973.58,-88.61C986.01,-84.95 999.24,-81.48 1011.75,-79 1035.64,-74.27 1062.28,-71.24 1085.45,-69.3"/>
<polygon fill="#758297" stroke="#758297" points="1085.67,-72.8 1095.37,-68.53 1085.13,-65.82 1085.67,-72.8"/>
<text xml:space="preserve" text-anchor="middle" x="1038" y="-81.5" font-family="Comic Mono" font-size="10.00">not leader</text>
</g>
<!-- node&#45;b&#45;&gt;ZooKeeper lock -->
<g id="edge3" class="edge">
<title>node&#45;b&#45;&gt;ZooKeeper lock</title>
<path fill="none" stroke="#758297" d="M376.59,-20.42C442.84,-26.1 607.98,-41.64 744.5,-66 778.43,-72.06 815.68,-80.64 846.87,-88.4"/>
<polygon fill="#758297" stroke="#758297" points="845.62,-91.69 856.17,-90.73 847.32,-84.9 845.62,-91.69"/>
<text xml:space="preserve" text-anchor="middle" x="577" y="-46.21" font-family="Comic Mono" font-size="10.00">miss</text>
</g>
<!-- Next schedule -->
<g id="node8" class="node">
<title>Next schedule</title>
<path fill="#f8fafc" stroke="#94a3b8" d="M732.5,-125C732.5,-125 643,-125 643,-125 637,-125 631,-119 631,-113 631,-113 631,-101 631,-101 631,-95 637,-89 643,-89 643,-89 732.5,-89 732.5,-89 738.5,-89 744.5,-95 744.5,-101 744.5,-101 744.5,-113 744.5,-113 744.5,-119 738.5,-125 732.5,-125"/>
<text xml:space="preserve" text-anchor="middle" x="687.75" y="-101.58" font-family="Comic Mono" font-size="14.00">Next schedule</text>
</g>
<!-- Lock released&#45;&gt;Next schedule -->
<g id="edge8" class="edge">
<title>Lock released&#45;&gt;Next schedule</title>
<path fill="none" stroke="#758297" d="M523.49,-107C552.66,-107 588.51,-107 619.18,-107"/>
<polygon fill="#758297" stroke="#758297" points="619.14,-110.5 629.14,-107 619.14,-103.5 619.14,-110.5"/>
<text xml:space="preserve" text-anchor="middle" x="577" y="-109.5" font-family="Comic Mono" font-size="10.00">next run</text>
</g>
<!-- Next schedule&#45;&gt;ZooKeeper lock -->
<g id="edge9" class="edge">
<title>Next schedule&#45;&gt;ZooKeeper lock</title>
<path fill="none" stroke="#758297" d="M744.94,-107C775.44,-107 813.45,-107 846.01,-107"/>
<polygon fill="#758297" stroke="#758297" points="845.76,-110.5 855.76,-107 845.76,-103.5 845.76,-110.5"/>
<text xml:space="preserve" text-anchor="middle" x="801.12" y="-109.5" font-family="Comic Mono" font-size="10.00">reacquire</text>
</g>
</g>
</svg>
