<?xml version="1.0" encoding="UTF-8" standalone="no"?>
<!DOCTYPE svg PUBLIC "-//W3C//DTD SVG 1.1//EN"
 "http://www.w3.org/Graphics/SVG/1.1/DTD/svg11.dtd">
<!-- Generated by graphviz version 15.0.0 (20260523.1842)
 -->
<!-- Title: examples&#45;tenant&#45;aggregator&#45;scenario&#45;01 Pages: 1 -->
<svg width="823pt" height="210pt"
 viewBox="0.00 0.00 823.00 210.00" xmlns="http://www.w3.org/2000/svg" xmlns:xlink="http://www.w3.org/1999/xlink">
<g id="graph0" class="graph" transform="scale(1 1) rotate(0) translate(4 206)">
<title>examples&#45;tenant&#45;aggregator&#45;scenario&#45;01</title>
<!-- tick -->
<g id="node1" class="node">
<title>tick</title>
<path fill="#f8fafc" stroke="#94a3b8" d="M94,-119C94,-119 12,-119 12,-119 6,-119 0,-113 0,-107 0,-107 0,-95 0,-95 0,-89 6,-83 12,-83 12,-83 94,-83 94,-83 100,-83 106,-89 106,-95 106,-95 106,-107 106,-107 106,-113 100,-119 94,-119"/>
<text xml:space="preserve" text-anchor="middle" x="53" y="-95.58" font-family="Comic Mono" font-size="14.00">Tenant Cycle</text>
</g>
<!-- nodeA -->
<g id="node2" class="node">
<title>nodeA</title>
<path fill="#f8fafc" stroke="#94a3b8" d="M279.5,-202C279.5,-202 205,-202 205,-202 199,-202 193,-196 193,-190 193,-190 193,-178 193,-178 193,-172 199,-166 205,-166 205,-166 279.5,-166 279.5,-166 285.5,-166 291.5,-172 291.5,-178 291.5,-178 291.5,-190 291.5,-190 291.5,-196 285.5,-202 279.5,-202"/>
<text xml:space="preserve" text-anchor="middle" x="242.25" y="-178.57" font-family="Comic Mono" font-size="14.00">Candidate A</text>
</g>
<!-- tick&#45;&gt;nodeA -->
<g id="edge1" class="edge">
<title>tick&#45;&gt;nodeA</title>
<path fill="none" stroke="#758297" d="M52.75,-119.42C52.75,-143.87 52.75,-184 52.75,-184 52.75,-184 181.44,-184 181.44,-184"/>
<polygon fill="#758297" stroke="#758297" points="181.44,-187.5 191.44,-184 181.44,-180.5 181.44,-187.5"/>
<text xml:space="preserve" text-anchor="middle" x="149.5" y="-176.5" font-family="Comic Mono" font-size="10.00">call</text>
</g>
<!-- nodeB -->
<g id="node3" class="node">
<title>nodeB</title>
<path fill="#f8fafc" stroke="#94a3b8" d="M279.5,-119C279.5,-119 205,-119 205,-119 199,-119 193,-113 193,-107 193,-107 193,-95 193,-95 193,-89 199,-83 205,-83 205,-83 279.5,-83 279.5,-83 285.5,-83 291.5,-89 291.5,-95 291.5,-95 291.5,-107 291.5,-107 291.5,-113 285.5,-119 279.5,-119"/>
<text xml:space="preserve" text-anchor="middle" x="242.25" y="-95.58" font-family="Comic Mono" font-size="14.00">Candidate B</text>
</g>
<!-- tick&#45;&gt;nodeB -->
<g id="edge2" class="edge">
<title>tick&#45;&gt;nodeB</title>
<path fill="none" stroke="#758297" d="M106.47,-101C106.47,-101 181.29,-101 181.29,-101"/>
<polygon fill="#758297" stroke="#758297" points="181.29,-104.5 191.29,-101 181.29,-97.5 181.29,-104.5"/>
<text xml:space="preserve" text-anchor="middle" x="149.5" y="-103.5" font-family="Comic Mono" font-size="10.00">call</text>
</g>
<!-- nodeC -->
<g id="node4" class="node">
<title>nodeC</title>
<path fill="#f8fafc" stroke="#94a3b8" d="M279.5,-36C279.5,-36 205,-36 205,-36 199,-36 193,-30 193,-24 193,-24 193,-12 193,-12 193,-6 199,0 205,0 205,0 279.5,0 279.5,0 285.5,0 291.5,-6 291.5,-12 291.5,-12 291.5,-24 291.5,-24 291.5,-30 285.5,-36 279.5,-36"/>
<text xml:space="preserve" text-anchor="middle" x="242.25" y="-12.57" font-family="Comic Mono" font-size="14.00">Candidate C</text>
</g>
<!-- tick&#45;&gt;nodeC -->
<g id="edge3" class="edge">
<title>tick&#45;&gt;nodeC</title>
<path fill="none" stroke="#758297" d="M52.75,-82.58C52.75,-58.13 52.75,-18 52.75,-18 52.75,-18 181.44,-18 181.44,-18"/>
<polygon fill="#758297" stroke="#758297" points="181.44,-21.5 191.44,-18 181.44,-14.5 181.44,-21.5"/>
<text xml:space="preserve" text-anchor="middle" x="149.5" y="-30.5" font-family="Comic Mono" font-size="10.00">call</text>
</g>
<!-- backend -->
<g id="node5" class="node">
<title>backend</title>
<path fill="#f8fafc" stroke="#94a3b8" d="M534,-119C534,-119 422,-119 422,-119 416,-119 410,-113 410,-107 410,-107 410,-95 410,-95 410,-89 416,-83 422,-83 422,-83 534,-83 534,-83 540,-83 546,-89 546,-95 546,-95 546,-107 546,-107 546,-113 540,-119 534,-119"/>
<text xml:space="preserve" text-anchor="middle" x="478" y="-95.58" font-family="Comic Mono" font-size="14.00">tenant lock rows</text>
</g>
<!-- nodeA&#45;&gt;backend -->
<g id="edge4" class="edge">
<title>nodeA&#45;&gt;backend</title>
<path fill="none" stroke="#758297" d="M291.91,-184C361,-184 477.75,-184 477.75,-184 477.75,-184 477.75,-130.93 477.75,-130.93"/>
<polygon fill="#758297" stroke="#758297" points="481.25,-130.93 477.75,-120.93 474.25,-130.93 481.25,-130.93"/>
<text xml:space="preserve" text-anchor="middle" x="350.75" y="-176.5" font-family="Comic Mono" font-size="10.00">contention</text>
</g>
<!-- nodeB&#45;&gt;backend -->
<g id="edge5" class="edge">
<title>nodeB&#45;&gt;backend</title>
<path fill="none" stroke="#758297" d="M291.96,-101C291.96,-101 398.07,-101 398.07,-101"/>
<polygon fill="#758297" stroke="#758297" points="398.07,-104.5 408.07,-101 398.07,-97.5 398.07,-104.5"/>
<text xml:space="preserve" text-anchor="middle" x="350.75" y="-103.5" font-family="Comic Mono" font-size="10.00">contention</text>
</g>
<!-- nodeC&#45;&gt;backend -->
<g id="edge6" class="edge">
<title>nodeC&#45;&gt;backend</title>
<path fill="none" stroke="#758297" d="M291.91,-18C361,-18 477.75,-18 477.75,-18 477.75,-18 477.75,-71.07 477.75,-71.07"/>
<polygon fill="#758297" stroke="#758297" points="474.25,-71.07 477.75,-81.07 481.25,-71.07 474.25,-71.07"/>
<text xml:space="preserve" text-anchor="middle" x="350.75" y="-30.5" font-family="Comic Mono" font-size="10.00">contention</text>
</g>
<!-- recovery -->
<g id="node6" class="node">
<title>recovery</title>
<path fill="#f8fafc" stroke="#94a3b8" d="M802.75,-202C802.75,-202 660.75,-202 660.75,-202 654.75,-202 648.75,-196 648.75,-190 648.75,-190 648.75,-178 648.75,-178 648.75,-172 654.75,-166 660.75,-166 660.75,-166 802.75,-166 802.75,-166 808.75,-166 814.75,-172 814.75,-178 814.75,-178 814.75,-190 814.75,-190 814.75,-196 808.75,-202 802.75,-202"/>
<text xml:space="preserve" text-anchor="middle" x="731.75" y="-178.57" font-family="Comic Mono" font-size="14.00">Per&#45;Tenant Isolation</text>
</g>
<!-- backend&#45;&gt;recovery -->
<g id="edge9" class="edge">
<title>backend&#45;&gt;recovery</title>
<path fill="none" stroke="#758297" d="M546.47,-110C597.27,-110 657.75,-110 657.75,-110 657.75,-110 657.75,-154.19 657.75,-154.19"/>
<polygon fill="#758297" stroke="#758297" points="654.25,-154.19 657.75,-164.19 661.25,-154.19 654.25,-154.19"/>
<text xml:space="preserve" text-anchor="middle" x="597.38" y="-186.5" font-family="Comic Mono" font-size="10.00">release</text>
</g>
<!-- skipped -->
<g id="node7" class="node">
<title>skipped</title>
<path fill="#f8fafc" stroke="#94a3b8" d="M765.25,-119C765.25,-119 698.25,-119 698.25,-119 692.25,-119 686.25,-113 686.25,-107 686.25,-107 686.25,-95 686.25,-95 686.25,-89 692.25,-83 698.25,-83 698.25,-83 765.25,-83 765.25,-83 771.25,-83 777.25,-89 777.25,-95 777.25,-95 777.25,-107 777.25,-107 777.25,-113 771.25,-119 765.25,-119"/>
<text xml:space="preserve" text-anchor="middle" x="731.75" y="-95.58" font-family="Comic Mono" font-size="14.00">Peers Skip</text>
</g>
<!-- backend&#45;&gt;skipped -->
<g id="edge8" class="edge">
<title>backend&#45;&gt;skipped</title>
<path fill="none" stroke="#758297" d="M546.33,-101C546.33,-101 674.62,-101 674.62,-101"/>
<polygon fill="#758297" stroke="#758297" points="674.62,-104.5 684.62,-101 674.62,-97.5 674.62,-104.5"/>
<text xml:space="preserve" text-anchor="middle" x="597.38" y="-103.5" font-family="Comic Mono" font-size="10.00">skip</text>
</g>
<!-- leader -->
<g id="node8" class="node">
<title>leader</title>
<path fill="#f8fafc" stroke="#94a3b8" d="M784,-36C784,-36 679.5,-36 679.5,-36 673.5,-36 667.5,-30 667.5,-24 667.5,-24 667.5,-12 667.5,-12 667.5,-6 673.5,0 679.5,0 679.5,0 784,0 784,0 790,0 796,-6 796,-12 796,-12 796,-24 796,-24 796,-30 790,-36 784,-36"/>
<text xml:space="preserve" text-anchor="middle" x="731.75" y="-12.57" font-family="Comic Mono" font-size="14.00">One Leader Runs</text>
</g>
<!-- backend&#45;&gt;leader -->
<g id="edge7" class="edge">
<title>backend&#45;&gt;leader</title>
<path fill="none" stroke="#758297" d="M546.4,-92C603.89,-92 676.75,-92 676.75,-92 676.75,-92 676.75,-47.81 676.75,-47.81"/>
<polygon fill="#758297" stroke="#758297" points="680.25,-47.81 676.75,-37.81 673.25,-47.81 680.25,-47.81"/>
<text xml:space="preserve" text-anchor="middle" x="597.38" y="-20.5" font-family="Comic Mono" font-size="10.00">success</text>
</g>
</g>
</svg>
