<?xml version="1.0" encoding="UTF-8" standalone="no"?>
<!DOCTYPE svg PUBLIC "-//W3C//DTD SVG 1.1//EN"
 "http://www.w3.org/Graphics/SVG/1.1/DTD/svg11.dtd">
<!-- Generated by graphviz version 15.0.0 (20260523.1842)
 -->
<!-- Title: examples&#45;consul&#45;maintenance&#45;scenario&#45;01 Pages: 1 -->
<svg width="883pt" height="210pt"
 viewBox="0.00 0.00 883.00 210.00" xmlns="http://www.w3.org/2000/svg" xmlns:xlink="http://www.w3.org/1999/xlink">
<g id="graph0" class="graph" transform="scale(1 1) rotate(0) translate(4 206)">
<title>examples&#45;consul&#45;maintenance&#45;scenario&#45;01</title>
<!-- tick -->
<g id="node1" class="node">
<title>tick</title>
<path fill="#f8fafc" stroke="#94a3b8" d="M124,-119C124,-119 12,-119 12,-119 6,-119 0,-113 0,-107 0,-107 0,-95 0,-95 0,-89 6,-83 12,-83 12,-83 124,-83 124,-83 130,-83 136,-89 136,-95 136,-95 136,-107 136,-107 136,-113 130,-119 124,-119"/>
<text xml:space="preserve" text-anchor="middle" x="68" y="-95.58" font-family="Comic Mono" font-size="14.00">Maintenance Tick</text>
</g>
<!-- nodeA -->
<g id="node2" class="node">
<title>nodeA</title>
<path fill="#f8fafc" stroke="#94a3b8" d="M309.5,-202C309.5,-202 235,-202 235,-202 229,-202 223,-196 223,-190 223,-190 223,-178 223,-178 223,-172 229,-166 235,-166 235,-166 309.5,-166 309.5,-166 315.5,-166 321.5,-172 321.5,-178 321.5,-178 321.5,-190 321.5,-190 321.5,-196 315.5,-202 309.5,-202"/>
<text xml:space="preserve" text-anchor="middle" x="272.25" y="-178.57" font-family="Comic Mono" font-size="14.00">Candidate A</text>
</g>
<!-- tick&#45;&gt;nodeA -->
<g id="edge1" class="edge">
<title>tick&#45;&gt;nodeA</title>
<path fill="none" stroke="#758297" d="M67.75,-119.42C67.75,-143.87 67.75,-184 67.75,-184 67.75,-184 211.23,-184 211.23,-184"/>
<polygon fill="#758297" stroke="#758297" points="211.23,-187.5 221.23,-184 211.23,-180.5 211.23,-187.5"/>
<text xml:space="preserve" text-anchor="middle" x="179.5" y="-176.5" font-family="Comic Mono" font-size="10.00">call</text>
</g>
<!-- nodeB -->
<g id="node3" class="node">
<title>nodeB</title>
<path fill="#f8fafc" stroke="#94a3b8" d="M309.5,-119C309.5,-119 235,-119 235,-119 229,-119 223,-113 223,-107 223,-107 223,-95 223,-95 223,-89 229,-83 235,-83 235,-83 309.5,-83 309.5,-83 315.5,-83 321.5,-89 321.5,-95 321.5,-95 321.5,-107 321.5,-107 321.5,-113 315.5,-119 309.5,-119"/>
<text xml:space="preserve" text-anchor="middle" x="272.25" y="-95.58" font-family="Comic Mono" font-size="14.00">Candidate B</text>
</g>
<!-- tick&#45;&gt;nodeB -->
<g id="edge2" class="edge">
<title>tick&#45;&gt;nodeB</title>
<path fill="none" stroke="#758297" d="M136.3,-101C136.3,-101 211.24,-101 211.24,-101"/>
<polygon fill="#758297" stroke="#758297" points="211.24,-104.5 221.24,-101 211.24,-97.5 211.24,-104.5"/>
<text xml:space="preserve" text-anchor="middle" x="179.5" y="-103.5" font-family="Comic Mono" font-size="10.00">call</text>
</g>
<!-- nodeC -->
<g id="node4" class="node">
<title>nodeC</title>
<path fill="#f8fafc" stroke="#94a3b8" d="M309.5,-36C309.5,-36 235,-36 235,-36 229,-36 223,-30 223,-24 223,-24 223,-12 223,-12 223,-6 229,0 235,0 235,0 309.5,0 309.5,0 315.5,0 321.5,-6 321.5,-12 321.5,-12 321.5,-24 321.5,-24 321.5,-30 315.5,-36 309.5,-36"/>
<text xml:space="preserve" text-anchor="middle" x="272.25" y="-12.57" font-family="Comic Mono" font-size="14.00">Candidate C</text>
</g>
<!-- tick&#45;&gt;nodeC -->
<g id="edge3" class="edge">
<title>tick&#45;&gt;nodeC</title>
<path fill="none" stroke="#758297" d="M67.75,-82.58C67.75,-58.13 67.75,-18 67.75,-18 67.75,-18 211.23,-18 211.23,-18"/>
<polygon fill="#758297" stroke="#758297" points="211.23,-21.5 221.23,-18 211.23,-14.5 211.23,-21.5"/>
<text xml:space="preserve" text-anchor="middle" x="179.5" y="-30.5" font-family="Comic Mono" font-size="10.00">call</text>
</g>
<!-- backend -->
<g id="node5" class="node">
<title>backend</title>
<path fill="#f8fafc" stroke="#94a3b8" d="M601.5,-119C601.5,-119 452,-119 452,-119 446,-119 440,-113 440,-107 440,-107 440,-95 440,-95 440,-89 446,-83 452,-83 452,-83 601.5,-83 601.5,-83 607.5,-83 613.5,-89 613.5,-95 613.5,-95 613.5,-107 613.5,-107 613.5,-113 607.5,-119 601.5,-119"/>
<text xml:space="preserve" text-anchor="middle" x="526.75" y="-95.58" font-family="Comic Mono" font-size="14.00">Consul Session and KV</text>
</g>
<!-- nodeA&#45;&gt;backend -->
<g id="edge4" class="edge">
<title>nodeA&#45;&gt;backend</title>
<path fill="none" stroke="#758297" d="M321.92,-184C395.99,-184 526.75,-184 526.75,-184 526.75,-184 526.75,-130.93 526.75,-130.93"/>
<polygon fill="#758297" stroke="#758297" points="530.25,-130.93 526.75,-120.93 523.25,-130.93 530.25,-130.93"/>
<text xml:space="preserve" text-anchor="middle" x="380.75" y="-176.5" font-family="Comic Mono" font-size="10.00">contention</text>
</g>
<!-- nodeB&#45;&gt;backend -->
<g id="edge5" class="edge">
<title>nodeB&#45;&gt;backend</title>
<path fill="none" stroke="#758297" d="M321.92,-101C321.92,-101 428.07,-101 428.07,-101"/>
<polygon fill="#758297" stroke="#758297" points="428.07,-104.5 438.07,-101 428.07,-97.5 428.07,-104.5"/>
<text xml:space="preserve" text-anchor="middle" x="380.75" y="-103.5" font-family="Comic Mono" font-size="10.00">contention</text>
</g>
<!-- nodeC&#45;&gt;backend -->
<g id="edge6" class="edge">
<title>nodeC&#45;&gt;backend</title>
<path fill="none" stroke="#758297" d="M321.92,-18C395.99,-18 526.75,-18 526.75,-18 526.75,-18 526.75,-71.07 526.75,-71.07"/>
<polygon fill="#758297" stroke="#758297" points="523.25,-71.07 526.75,-81.07 530.25,-71.07 523.25,-71.07"/>
<text xml:space="preserve" text-anchor="middle" x="380.75" y="-30.5" font-family="Comic Mono" font-size="10.00">contention</text>
</g>
<!-- recovery -->
<g id="node6" class="node">
<title>recovery</title>
<path fill="#f8fafc" stroke="#94a3b8" d="M862.75,-202C862.75,-202 728.25,-202 728.25,-202 722.25,-202 716.25,-196 716.25,-190 716.25,-190 716.25,-178 716.25,-178 716.25,-172 722.25,-166 728.25,-166 728.25,-166 862.75,-166 862.75,-166 868.75,-166 874.75,-172 874.75,-178 874.75,-178 874.75,-190 874.75,-190 874.75,-196 868.75,-202 862.75,-202"/>
<text xml:space="preserve" text-anchor="middle" x="795.5" y="-178.57" font-family="Comic Mono" font-size="14.00">Session TTL Release</text>
</g>
<!-- backend&#45;&gt;recovery -->
<g id="edge9" class="edge">
<title>backend&#45;&gt;recovery</title>
<path fill="none" stroke="#758297" d="M613.73,-110C666.5,-110 723.75,-110 723.75,-110 723.75,-110 723.75,-154.19 723.75,-154.19"/>
<polygon fill="#758297" stroke="#758297" points="720.25,-154.19 723.75,-164.19 727.25,-154.19 720.25,-154.19"/>
<text xml:space="preserve" text-anchor="middle" x="664.88" y="-186.5" font-family="Comic Mono" font-size="10.00">release</text>
</g>
<!-- skipped -->
<g id="node7" class="node">
<title>skipped</title>
<path fill="#f8fafc" stroke="#94a3b8" d="M829,-119C829,-119 762,-119 762,-119 756,-119 750,-113 750,-107 750,-107 750,-95 750,-95 750,-89 756,-83 762,-83 762,-83 829,-83 829,-83 835,-83 841,-89 841,-95 841,-95 841,-107 841,-107 841,-113 835,-119 829,-119"/>
<text xml:space="preserve" text-anchor="middle" x="795.5" y="-95.58" font-family="Comic Mono" font-size="14.00">Peers Skip</text>
</g>
<!-- backend&#45;&gt;skipped -->
<g id="edge8" class="edge">
<title>backend&#45;&gt;skipped</title>
<path fill="none" stroke="#758297" d="M613.63,-101C613.63,-101 738.05,-101 738.05,-101"/>
<polygon fill="#758297" stroke="#758297" points="738.05,-104.5 748.05,-101 738.05,-97.5 738.05,-104.5"/>
<text xml:space="preserve" text-anchor="middle" x="664.88" y="-103.5" font-family="Comic Mono" font-size="10.00">skip</text>
</g>
<!-- leader -->
<g id="node8" class="node">
<title>leader</title>
<path fill="#f8fafc" stroke="#94a3b8" d="M847.75,-36C847.75,-36 743.25,-36 743.25,-36 737.25,-36 731.25,-30 731.25,-24 731.25,-24 731.25,-12 731.25,-12 731.25,-6 737.25,0 743.25,0 743.25,0 847.75,0 847.75,0 853.75,0 859.75,-6 859.75,-12 859.75,-12 859.75,-24 859.75,-24 859.75,-30 853.75,-36 847.75,-36"/>
<text xml:space="preserve" text-anchor="middle" x="795.5" y="-12.57" font-family="Comic Mono" font-size="14.00">One Leader Runs</text>
</g>
<!-- backend&#45;&gt;leader -->
<g id="edge7" class="edge">
<title>backend&#45;&gt;leader</title>
<path fill="none" stroke="#758297" d="M613.79,-92C673.04,-92 740.75,-92 740.75,-92 740.75,-92 740.75,-47.81 740.75,-47.81"/>
<polygon fill="#758297" stroke="#758297" points="744.25,-47.81 740.75,-37.81 737.25,-47.81 744.25,-47.81"/>
<text xml:space="preserve" text-anchor="middle" x="664.88" y="-20.5" font-family="Comic Mono" font-size="10.00">success</text>
</g>
</g>
</svg>
