<?xml version="1.0" encoding="UTF-8" standalone="no"?>
<!DOCTYPE svg PUBLIC "-//W3C//DTD SVG 1.1//EN"
 "http://www.w3.org/Graphics/SVG/1.1/DTD/svg11.dtd">
<!-- Generated by graphviz version 15.0.0 (20260523.1842)
 -->
<!-- Title: examples&#45;zookeeper&#45;scheduler&#45;sequence&#45;01 Pages: 1 -->
<svg width="1390pt" height="503pt"
 viewBox="0.00 0.00 1390.00 503.00" xmlns="http://www.w3.org/2000/svg" xmlns:xlink="http://www.w3.org/1999/xlink">
<g id="graph0" class="graph" transform="scale(1 1) rotate(0) translate(4 499)">
<title>examples&#45;zookeeper&#45;scheduler&#45;sequence&#45;01</title>
<!-- trigger -->
<g id="node1" class="node">
<title>trigger</title>
<path fill="#f8fafc" stroke="#94a3b8" d="M109,-58C109,-58 12,-58 12,-58 6,-58 0,-52 0,-46 0,-46 0,-34 0,-34 0,-28 6,-22 12,-22 12,-22 109,-22 109,-22 115,-22 121,-28 121,-34 121,-34 121,-46 121,-46 121,-52 115,-58 109,-58"/>
<text xml:space="preserve" text-anchor="middle" x="60.5" y="-34.58" font-family="Comic Mono" font-size="14.00">Scheduler Tick</text>
</g>
<!-- coord -->
<g id="node2" class="node">
<title>coord</title>
<path fill="#f8fafc" stroke="#94a3b8" d="M476,-150C476,-150 304,-150 304,-150 298,-150 292,-144 292,-138 292,-138 292,-126 292,-126 292,-120 298,-114 304,-114 304,-114 476,-114 476,-114 482,-114 488,-120 488,-126 488,-126 488,-138 488,-138 488,-144 482,-150 476,-150"/>
<text xml:space="preserve" text-anchor="middle" x="390" y="-126.58" font-family="Comic Mono" font-size="14.00">ZooKeeperLegacyScheduler</text>
</g>
<!-- trigger&#45;&gt;coord -->
<g id="edge1" class="edge">
<title>trigger&#45;&gt;coord</title>
<path fill="none" stroke="#4f83bf" d="M60.75,-58.18C60.75,-84.99 60.75,-132 60.75,-132 60.75,-132 283.15,-132 283.15,-132"/>
<polygon fill="#4f83bf" stroke="#4f83bf" points="283.15,-134.45 290.15,-132 283.15,-129.55 283.15,-134.45"/>
<text xml:space="preserve" text-anchor="middle" x="206.5" y="-89.5" font-family="Comic Mono" font-size="10.00">start scheduler tick</text>
</g>
<!-- elector -->
<g id="node3" class="node">
<title>elector</title>
<path fill="#f8fafc" stroke="#94a3b8" d="M922.5,-266C922.5,-266 765.5,-266 765.5,-266 759.5,-266 753.5,-260 753.5,-254 753.5,-254 753.5,-242 753.5,-242 753.5,-236 759.5,-230 765.5,-230 765.5,-230 922.5,-230 922.5,-230 928.5,-230 934.5,-236 934.5,-242 934.5,-242 934.5,-254 934.5,-254 934.5,-260 928.5,-266 922.5,-266"/>
<text xml:space="preserve" text-anchor="middle" x="844" y="-242.57" font-family="Comic Mono" font-size="14.00">ZooKeeperLeaderElector</text>
</g>
<!-- coord&#45;&gt;elector -->
<g id="edge2" class="edge">
<title>coord&#45;&gt;elector</title>
<path fill="none" stroke="#4f83bf" d="M488.28,-132C613.46,-132 813.75,-132 813.75,-132 813.75,-132 813.75,-221.11 813.75,-221.11"/>
<polygon fill="#4f83bf" stroke="#4f83bf" points="811.3,-221.11 813.75,-228.11 816.2,-221.11 811.3,-221.11"/>
<text xml:space="preserve" text-anchor="middle" x="620.75" y="-211.5" font-family="Comic Mono" font-size="10.00">runIfLeader with source options</text>
</g>
<!-- backend -->
<g id="node4" class="node">
<title>backend</title>
<path fill="#f8fafc" stroke="#94a3b8" d="M1358.5,-400C1358.5,-400 1239,-400 1239,-400 1233,-400 1227,-394 1227,-388 1227,-388 1227,-376 1227,-376 1227,-370 1233,-364 1239,-364 1239,-364 1358.5,-364 1358.5,-364 1364.5,-364 1370.5,-370 1370.5,-376 1370.5,-376 1370.5,-388 1370.5,-388 1370.5,-394 1364.5,-400 1358.5,-400"/>
<text xml:space="preserve" text-anchor="middle" x="1298.75" y="-376.57" font-family="Comic Mono" font-size="14.00">Curator lock path</text>
</g>
<!-- elector&#45;&gt;backend -->
<g id="edge3" class="edge">
<title>elector&#45;&gt;backend</title>
<path fill="none" stroke="#b9851b" d="M934.87,-260.86C1056.13,-260.86 1255.75,-260.86 1255.75,-260.86 1255.75,-260.86 1255.75,-355.09 1255.75,-355.09"/>
<polygon fill="#b9851b" stroke="#b9851b" points="1253.3,-355.09 1255.75,-362.09 1258.2,-355.09 1253.3,-355.09"/>
<text xml:space="preserve" text-anchor="middle" x="1075.12" y="-485.5" font-family="Comic Mono" font-size="10.00">attempt backend ownership</text>
</g>
<!-- elector&#45;&gt;backend -->
<g id="edge7" class="edge">
<title>elector&#45;&gt;backend</title>
<path fill="none" stroke="#755bc6" d="M934.79,-255.71C1063.81,-255.71 1284.75,-255.71 1284.75,-255.71 1284.75,-255.71 1284.75,-355.12 1284.75,-355.12"/>
<polygon fill="#755bc6" stroke="#755bc6" points="1282.3,-355.12 1284.75,-362.12 1287.2,-355.12 1282.3,-355.12"/>
<text xml:space="preserve" text-anchor="middle" x="1075.12" y="-418.5" font-family="Comic Mono" font-size="10.00">release or renew for session lock release</text>
</g>
<!-- work -->
<g id="node5" class="node">
<title>work</title>
<path fill="#f8fafc" stroke="#94a3b8" d="M1369.75,-200C1369.75,-200 1227.75,-200 1227.75,-200 1221.75,-200 1215.75,-194 1215.75,-188 1215.75,-188 1215.75,-176 1215.75,-176 1215.75,-170 1221.75,-164 1227.75,-164 1227.75,-164 1369.75,-164 1369.75,-164 1375.75,-164 1381.75,-170 1381.75,-176 1381.75,-176 1381.75,-188 1381.75,-188 1381.75,-194 1375.75,-200 1369.75,-200"/>
<text xml:space="preserve" text-anchor="middle" x="1298.75" y="-176.57" font-family="Comic Mono" font-size="14.00">Legacy Scheduled Job</text>
</g>
<!-- elector&#45;&gt;work -->
<g id="edge5" class="edge">
<title>elector&#45;&gt;work</title>
<path fill="none" stroke="#3e9868" d="M934.96,-235.14C1046.16,-235.14 1219.75,-235.14 1219.75,-235.14 1219.75,-235.14 1219.75,-208.8 1219.75,-208.8"/>
<polygon fill="#3e9868" stroke="#3e9868" points="1222.2,-208.8 1219.75,-201.8 1217.3,-208.8 1222.2,-208.8"/>
<text xml:space="preserve" text-anchor="middle" x="1075.12" y="-217.5" font-family="Comic Mono" font-size="10.00">execute legacy scheduled job</text>
</g>
<!-- peer -->
<g id="node6" class="node">
<title>peer</title>
<path fill="#f8fafc" stroke="#94a3b8" d="M1339.75,-59C1339.75,-59 1257.75,-59 1257.75,-59 1251.75,-59 1245.75,-53 1245.75,-47 1245.75,-47 1245.75,-35 1245.75,-35 1245.75,-29 1251.75,-23 1257.75,-23 1257.75,-23 1339.75,-23 1339.75,-23 1345.75,-23 1351.75,-29 1351.75,-35 1351.75,-35 1351.75,-47 1351.75,-47 1351.75,-53 1345.75,-59 1339.75,-59"/>
<text xml:space="preserve" text-anchor="middle" x="1298.75" y="-35.58" font-family="Comic Mono" font-size="14.00">Skipped Peer</text>
</g>
<!-- elector&#45;&gt;peer -->
<g id="edge9" class="edge">
<title>elector&#45;&gt;peer</title>
<path fill="none" stroke="#c94d68" d="M873.75,-229.75C873.75,-180.11 873.75,-46.33 873.75,-46.33 873.75,-46.33 1236.84,-46.33 1236.84,-46.33"/>
<polygon fill="#c94d68" stroke="#c94d68" points="1236.84,-48.78 1243.84,-46.33 1236.84,-43.88 1236.84,-48.78"/>
<text xml:space="preserve" text-anchor="middle" x="1075.12" y="-83.5" font-family="Comic Mono" font-size="10.00">return skipped result</text>
</g>
<!-- backend&#45;&gt;elector -->
<g id="edge4" class="edge">
<title>backend&#45;&gt;elector</title>
<path fill="none" stroke="#3e9868" d="M1312.75,-363.73C1312.75,-327.61 1312.75,-250.57 1312.75,-250.57 1312.75,-250.57 943.45,-250.57 943.45,-250.57"/>
<polygon fill="#3e9868" stroke="#3e9868" points="943.45,-248.12 936.45,-250.57 943.45,-253.02 943.45,-248.12"/>
<text xml:space="preserve" text-anchor="middle" x="1075.12" y="-351.5" font-family="Comic Mono" font-size="10.00">owner token accepted</text>
</g>
<!-- backend&#45;&gt;elector -->
<g id="edge8" class="edge">
<title>backend&#45;&gt;elector</title>
<path fill="none" stroke="#c94d68" d="M1341.75,-363.58C1341.75,-326.3 1341.75,-245.43 1341.75,-245.43 1341.75,-245.43 943.23,-245.43 943.23,-245.43"/>
<polygon fill="#c94d68" stroke="#c94d68" points="943.23,-242.98 936.23,-245.43 943.23,-247.88 943.23,-242.98"/>
<text xml:space="preserve" text-anchor="middle" x="1075.12" y="-284.5" font-family="Comic Mono" font-size="10.00">lock already owned</text>
</g>
<!-- work&#45;&gt;elector -->
<g id="edge6" class="edge">
<title>work&#45;&gt;elector</title>
<path fill="none" stroke="#3e9868" d="M1222.75,-200.44C1222.75,-217.52 1222.75,-240.29 1222.75,-240.29 1222.75,-240.29 943.23,-240.29 943.23,-240.29"/>
<polygon fill="#3e9868" stroke="#3e9868" points="943.23,-237.84 936.23,-240.29 943.23,-242.74 943.23,-237.84"/>
<text xml:space="preserve" text-anchor="middle" x="1075.12" y="-150.5" font-family="Comic Mono" font-size="10.00">return leader result</text>
</g>
<!-- peer&#45;&gt;trigger -->
<g id="edge10" class="edge">
<title>peer&#45;&gt;trigger</title>
<path fill="none" stroke="#c94d68" d="M1245.54,-34.67C1245.54,-34.67 129.89,-34.67 129.89,-34.67"/>
<polygon fill="#c94d68" stroke="#c94d68" points="129.89,-32.22 122.89,-34.67 129.89,-37.12 129.89,-32.22"/>
<text xml:space="preserve" text-anchor="middle" x="620.75" y="-2.5" font-family="Comic Mono" font-size="10.00">cycle completes without duplicate work</text>
</g>
</g>
</svg>
