<?xml version="1.0" encoding="UTF-8" standalone="no"?>
<!DOCTYPE svg PUBLIC "-//W3C//DTD SVG 1.1//EN"
 "http://www.w3.org/Graphics/SVG/1.1/DTD/svg11.dtd">
<!-- Generated by graphviz version 15.0.0 (20260523.1842)
 -->
<!-- Title: examples&#45;zookeeper&#45;scheduler&#45;sequence&#45;01 Pages: 1 -->
<svg width="1054pt" height="739pt"
 viewBox="7.00 7.00 1047.00 732.00" xmlns="http://www.w3.org/2000/svg" xmlns:xlink="http://www.w3.org/1999/xlink">
<g id="graph0" class="graph" transform="scale(1 1) rotate(0) translate(11.2 728.02)">
<title>examples&#45;zookeeper&#45;scheduler&#45;sequence&#45;01</title>
<!-- Demo -->
<g id="node1" class="node">
<title>Demo</title>
<path fill="#f8fafc" stroke="#94a3b8" d="M42,-55.94C42,-55.94 12,-55.94 12,-55.94 6,-55.94 0,-49.94 0,-43.94 0,-43.94 0,-31.94 0,-31.94 0,-25.94 6,-19.94 12,-19.94 12,-19.94 42,-19.94 42,-19.94 48,-19.94 54,-25.94 54,-31.94 54,-31.94 54,-43.94 54,-43.94 54,-49.94 48,-55.94 42,-55.94"/>
<text xml:space="preserve" text-anchor="middle" x="27" y="-32.51" font-family="Comic Mono" font-size="14.00">Demo</text>
</g>
<!-- node&#45;a scheduler -->
<g id="node2" class="node">
<title>node&#45;a scheduler</title>
<path fill="#f8fafc" stroke="#94a3b8" d="M328,-413.94C328,-413.94 216,-413.94 216,-413.94 210,-413.94 204,-407.94 204,-401.94 204,-401.94 204,-389.94 204,-389.94 204,-383.94 210,-377.94 216,-377.94 216,-377.94 328,-377.94 328,-377.94 334,-377.94 340,-383.94 340,-389.94 340,-389.94 340,-401.94 340,-401.94 340,-407.94 334,-413.94 328,-413.94"/>
<text xml:space="preserve" text-anchor="middle" x="272" y="-390.51" font-family="Comic Mono" font-size="14.00">node&#45;a scheduler</text>
</g>
<!-- Demo&#45;&gt;node&#45;a scheduler -->
<g id="edge1" class="edge">
<title>Demo&#45;&gt;node&#45;a scheduler</title>
<path fill="none" stroke="#758297" d="M40.38,-56.18C80.12,-114.71 204.55,-298.04 252.19,-368.22"/>
<polygon fill="#758297" stroke="#758297" points="249.28,-370.17 257.79,-376.48 255.07,-366.24 249.28,-370.17"/>
<text xml:space="preserve" text-anchor="middle" x="129" y="-240.87" font-family="Comic Mono" font-size="10.00">submit first run</text>
</g>
<!-- node&#45;b scheduler -->
<g id="node6" class="node">
<title>node&#45;b scheduler</title>
<path fill="#f8fafc" stroke="#94a3b8" d="M1008.75,-125.94C1008.75,-125.94 896.75,-125.94 896.75,-125.94 890.75,-125.94 884.75,-119.94 884.75,-113.94 884.75,-113.94 884.75,-101.94 884.75,-101.94 884.75,-95.94 890.75,-89.94 896.75,-89.94 896.75,-89.94 1008.75,-89.94 1008.75,-89.94 1014.75,-89.94 1020.75,-95.94 1020.75,-101.94 1020.75,-101.94 1020.75,-113.94 1020.75,-113.94 1020.75,-119.94 1014.75,-125.94 1008.75,-125.94"/>
<text xml:space="preserve" text-anchor="middle" x="952.75" y="-102.51" font-family="Comic Mono" font-size="14.00">node&#45;b scheduler</text>
</g>
<!-- Demo&#45;&gt;node&#45;b scheduler -->
<g id="edge6" class="edge">
<title>Demo&#45;&gt;node&#45;b scheduler</title>
<path fill="none" stroke="#758297" d="M54.26,-33.38C157.08,-16.55 541.31,37.17 840.5,-43.94 869.03,-51.67 897.87,-68.58 919.04,-83.07"/>
<polygon fill="#758297" stroke="#758297" points="916.77,-85.75 926.96,-88.65 920.8,-80.03 916.77,-85.75"/>
<text xml:space="preserve" text-anchor="middle" x="428.12" y="-4.21" font-family="Comic Mono" font-size="10.00">same run while held</text>
</g>
<!-- ZooKeeperLeaderElector -->
<g id="node3" class="node">
<title>ZooKeeperLeaderElector</title>
<path fill="#f8fafc" stroke="#94a3b8" d="M685.25,-413.94C685.25,-413.94 528.25,-413.94 528.25,-413.94 522.25,-413.94 516.25,-407.94 516.25,-401.94 516.25,-401.94 516.25,-389.94 516.25,-389.94 516.25,-383.94 522.25,-377.94 528.25,-377.94 528.25,-377.94 685.25,-377.94 685.25,-377.94 691.25,-377.94 697.25,-383.94 697.25,-389.94 697.25,-389.94 697.25,-401.94 697.25,-401.94 697.25,-407.94 691.25,-413.94 685.25,-413.94"/>
<text xml:space="preserve" text-anchor="middle" x="606.75" y="-390.51" font-family="Comic Mono" font-size="14.00">ZooKeeperLeaderElector</text>
</g>
<!-- node&#45;a scheduler&#45;&gt;ZooKeeperLeaderElector -->
<g id="edge2" class="edge">
<title>node&#45;a scheduler&#45;&gt;ZooKeeperLeaderElector</title>
<path fill="none" stroke="#758297" d="M340.34,-395.94C387.5,-395.94 451.35,-395.94 504.61,-395.94"/>
<polygon fill="#758297" stroke="#758297" points="504.29,-399.44 514.29,-395.94 504.29,-392.44 504.29,-399.44"/>
<text xml:space="preserve" text-anchor="middle" x="428.12" y="-398.44" font-family="Comic Mono" font-size="10.00">runIfLeader(lockName)</text>
</g>
<!-- ZooKeeper / Curator -->
<g id="node4" class="node">
<title>ZooKeeper / Curator</title>
<path fill="#f8fafc" stroke="#94a3b8" d="M1020,-605.94C1020,-605.94 885.5,-605.94 885.5,-605.94 879.5,-605.94 873.5,-599.94 873.5,-593.94 873.5,-593.94 873.5,-581.94 873.5,-581.94 873.5,-575.94 879.5,-569.94 885.5,-569.94 885.5,-569.94 1020,-569.94 1020,-569.94 1026,-569.94 1032,-575.94 1032,-581.94 1032,-581.94 1032,-593.94 1032,-593.94 1032,-599.94 1026,-605.94 1020,-605.94"/>
<text xml:space="preserve" text-anchor="middle" x="952.75" y="-582.51" font-family="Comic Mono" font-size="14.00">ZooKeeper / Curator</text>
</g>
<!-- node&#45;a scheduler&#45;&gt;ZooKeeper / Curator -->
<g id="edge11" class="edge">
<title>node&#45;a scheduler&#45;&gt;ZooKeeper / Curator</title>
<path fill="none" stroke="#758297" d="M290.86,-414.05C348.21,-470.71 535.27,-644.39 730.25,-703.94 777.11,-718.25 795.43,-723.16 840.5,-703.94 882.29,-686.11 915.92,-644.04 934.87,-615.78"/>
<polygon fill="#758297" stroke="#758297" points="937.61,-617.98 940.12,-607.69 931.74,-614.17 937.61,-617.98"/>
<text xml:space="preserve" text-anchor="middle" x="606.75" y="-693.05" font-family="Comic Mono" font-size="10.00">release on exit</text>
</g>
<!-- ZooKeeperLeaderElector&#45;&gt;ZooKeeper / Curator -->
<g id="edge3" class="edge">
<title>ZooKeeperLeaderElector&#45;&gt;ZooKeeper / Curator</title>
<path fill="none" stroke="#758297" d="M609.54,-414.3C615.6,-465.02 640.27,-607.04 730.25,-664.94 771.46,-691.45 793.73,-679.54 840.5,-664.94 872.67,-654.89 903.73,-631.91 924.82,-613.66"/>
<polygon fill="#758297" stroke="#758297" points="926.95,-616.44 932.09,-607.18 922.29,-611.22 926.95,-616.44"/>
<text xml:space="preserve" text-anchor="middle" x="785.38" y="-683.16" font-family="Comic Mono" font-size="10.00">acquire session lock</text>
</g>
<!-- ZooKeeperLeaderElector&#45;&gt;ZooKeeper / Curator -->
<g id="edge8" class="edge">
<title>ZooKeeperLeaderElector&#45;&gt;ZooKeeper / Curator</title>
<path fill="none" stroke="#758297" d="M612.16,-414.25C623.42,-456.38 657.59,-559.71 730.25,-600.94 778.02,-628.04 841.28,-620.92 887.96,-609.29"/>
<polygon fill="#758297" stroke="#758297" points="888.61,-612.74 897.39,-606.81 886.83,-605.97 888.61,-612.74"/>
<text xml:space="preserve" text-anchor="middle" x="785.38" y="-622.14" font-family="Comic Mono" font-size="10.00">try same lock</text>
</g>
<!-- ZooKeeperLeaderElector&#45;&gt;ZooKeeper / Curator -->
<g id="edge13" class="edge">
<title>ZooKeeperLeaderElector&#45;&gt;ZooKeeper / Curator</title>
<path fill="none" stroke="#758297" d="M618.32,-414.34C636.86,-444.87 678.27,-505.71 730.25,-536.94 769.92,-560.76 819.73,-573.46 862.06,-580.23"/>
<polygon fill="#758297" stroke="#758297" points="861.31,-583.66 871.72,-581.68 862.35,-576.73 861.31,-583.66"/>
<text xml:space="preserve" text-anchor="middle" x="785.38" y="-578.73" font-family="Comic Mono" font-size="10.00">acquire released lock</text>
</g>
<!-- Legacy job -->
<g id="node5" class="node">
<title>Legacy job</title>
<path fill="#f8fafc" stroke="#94a3b8" d="M986.25,-317.94C986.25,-317.94 919.25,-317.94 919.25,-317.94 913.25,-317.94 907.25,-311.94 907.25,-305.94 907.25,-305.94 907.25,-293.94 907.25,-293.94 907.25,-287.94 913.25,-281.94 919.25,-281.94 919.25,-281.94 986.25,-281.94 986.25,-281.94 992.25,-281.94 998.25,-287.94 998.25,-293.94 998.25,-293.94 998.25,-305.94 998.25,-305.94 998.25,-311.94 992.25,-317.94 986.25,-317.94"/>
<text xml:space="preserve" text-anchor="middle" x="952.75" y="-294.51" font-family="Comic Mono" font-size="14.00">Legacy job</text>
</g>
<!-- ZooKeeperLeaderElector&#45;&gt;Legacy job -->
<g id="edge5" class="edge">
<title>ZooKeeperLeaderElector&#45;&gt;Legacy job</title>
<path fill="none" stroke="#758297" d="M634.69,-377.73C658.69,-362.43 695.33,-341.29 730.25,-329.94 784.74,-312.22 850.05,-304.96 895.58,-301.99"/>
<polygon fill="#758297" stroke="#758297" points="895.72,-305.49 905.49,-301.39 895.3,-298.5 895.72,-305.49"/>
<text xml:space="preserve" text-anchor="middle" x="785.38" y="-332.44" font-family="Comic Mono" font-size="10.00">execute job body</text>
</g>
<!-- ZooKeeperLeaderElector&#45;&gt;Legacy job -->
<g id="edge15" class="edge">
<title>ZooKeeperLeaderElector&#45;&gt;Legacy job</title>
<path fill="none" stroke="#758297" d="M620.65,-377.75C640.61,-351.38 681.78,-303.63 730.25,-284.94 783.74,-264.31 849.84,-272.71 895.85,-283.38"/>
<polygon fill="#758297" stroke="#758297" points="894.78,-286.72 905.33,-285.69 896.44,-279.92 894.78,-286.72"/>
<text xml:space="preserve" text-anchor="middle" x="785.38" y="-287.44" font-family="Comic Mono" font-size="10.00">execute next job</text>
</g>
<!-- ZooKeeperLeaderElector&#45;&gt;node&#45;b scheduler -->
<g id="edge10" class="edge">
<title>ZooKeeperLeaderElector&#45;&gt;node&#45;b scheduler</title>
<path fill="none" stroke="#758297" d="M610.45,-377.5C618.57,-329.17 647.58,-198.35 730.25,-137.94 770.9,-108.23 827.25,-100.93 872.94,-100.95"/>
<polygon fill="#758297" stroke="#758297" points="872.75,-104.45 882.79,-101.09 872.84,-97.45 872.75,-104.45"/>
<text xml:space="preserve" text-anchor="middle" x="785.38" y="-140.44" font-family="Comic Mono" font-size="10.00">SKIPPED report</text>
</g>
<!-- ZooKeeper / Curator&#45;&gt;ZooKeeperLeaderElector -->
<g id="edge4" class="edge">
<title>ZooKeeper / Curator&#45;&gt;ZooKeeperLeaderElector</title>
<path fill="none" stroke="#758297" d="M923,-569.61C900.84,-555.81 869.23,-536.78 840.5,-521.94 792.86,-497.33 777.57,-498.16 730.25,-472.94 700.25,-456.94 667.73,-436.34 643.74,-420.47"/>
<polygon fill="#758297" stroke="#758297" points="645.86,-417.67 635.6,-415.04 641.98,-423.5 645.86,-417.67"/>
<text xml:space="preserve" text-anchor="middle" x="785.38" y="-524.44" font-family="Comic Mono" font-size="10.00">ACQUIRED</text>
</g>
<!-- ZooKeeper / Curator&#45;&gt;ZooKeeperLeaderElector -->
<g id="edge9" class="edge">
<title>ZooKeeper / Curator&#45;&gt;ZooKeeperLeaderElector</title>
<path fill="none" stroke="#758297" d="M941.28,-569.78C923.99,-541.47 886.76,-487.05 840.5,-457.94 801.02,-433.09 751.76,-418.13 708.74,-409.15"/>
<polygon fill="#758297" stroke="#758297" points="709.63,-405.76 699.14,-407.24 708.26,-412.63 709.63,-405.76"/>
<text xml:space="preserve" text-anchor="middle" x="785.38" y="-460.44" font-family="Comic Mono" font-size="10.00">not leader</text>
</g>
<!-- ZooKeeper / Curator&#45;&gt;ZooKeeperLeaderElector -->
<g id="edge14" class="edge">
<title>ZooKeeper / Curator&#45;&gt;ZooKeeperLeaderElector</title>
<path fill="none" stroke="#758297" d="M947.75,-569.74C937.8,-529.37 907.69,-432.86 840.5,-393.94 795.42,-367.82 736.72,-368.52 689.55,-375.64"/>
<polygon fill="#758297" stroke="#758297" points="689.23,-372.15 679.93,-377.22 690.37,-379.05 689.23,-372.15"/>
<text xml:space="preserve" text-anchor="middle" x="785.38" y="-396.44" font-family="Comic Mono" font-size="10.00">ACQUIRED</text>
</g>
<!-- node&#45;b scheduler&#45;&gt;ZooKeeperLeaderElector -->
<g id="edge7" class="edge">
<title>node&#45;b scheduler&#45;&gt;ZooKeeperLeaderElector</title>
<path fill="none" stroke="#758297" d="M918.47,-89.44C872.08,-66.42 787.26,-34.63 730.25,-73.94 631.74,-141.86 612.39,-300.25 608.63,-366.25"/>
<polygon fill="#758297" stroke="#758297" points="605.15,-365.79 608.17,-375.94 612.14,-366.12 605.15,-365.79"/>
<text xml:space="preserve" text-anchor="middle" x="785.38" y="-76.44" font-family="Comic Mono" font-size="10.00">runIfLeader(lockName)</text>
</g>
<!-- node&#45;b scheduler&#45;&gt;ZooKeeperLeaderElector -->
<g id="edge12" class="edge">
<title>node&#45;b scheduler&#45;&gt;ZooKeeperLeaderElector</title>
<path fill="none" stroke="#758297" d="M915.67,-126.36C869.8,-150.77 789.46,-196.85 730.25,-248.94 688.43,-285.72 648.85,-337.37 626.51,-368.64"/>
<polygon fill="#758297" stroke="#758297" points="623.93,-366.23 621.02,-376.42 629.64,-370.27 623.93,-366.23"/>
<text xml:space="preserve" text-anchor="middle" x="785.38" y="-251.44" font-family="Comic Mono" font-size="10.00">next run</text>
</g>
</g>
</svg>
