<?xml version="1.0" encoding="UTF-8" standalone="no"?>
<!DOCTYPE svg PUBLIC "-//W3C//DTD SVG 1.1//EN"
 "http://www.w3.org/Graphics/SVG/1.1/DTD/svg11.dtd">
<!-- Generated by graphviz version 15.0.0 (20260523.1842)
 -->
<!-- Title: examples&#45;cache&#45;warmer&#45;scenario&#45;01 Pages: 1 -->
<svg width="890pt" height="210pt"
 viewBox="0.00 0.00 890.00 210.00" xmlns="http://www.w3.org/2000/svg" xmlns:xlink="http://www.w3.org/1999/xlink">
<g id="graph0" class="graph" transform="scale(1 1) rotate(0) translate(4 206)">
<title>examples&#45;cache&#45;warmer&#45;scenario&#45;01</title>
<!-- tick -->
<g id="node1" class="node">
<title>tick</title>
<path fill="#f8fafc" stroke="#94a3b8" d="M124,-119C124,-119 12,-119 12,-119 6,-119 0,-113 0,-107 0,-107 0,-95 0,-95 0,-89 6,-83 12,-83 12,-83 124,-83 124,-83 130,-83 136,-89 136,-95 136,-95 136,-107 136,-107 136,-113 130,-119 124,-119"/>
<text xml:space="preserve" text-anchor="middle" x="68" y="-95.58" font-family="Comic Mono" font-size="14.00">Cache Warm Cycle</text>
</g>
<!-- nodeA -->
<g id="node2" class="node">
<title>nodeA</title>
<path fill="#f8fafc" stroke="#94a3b8" d="M309.5,-202C309.5,-202 235,-202 235,-202 229,-202 223,-196 223,-190 223,-190 223,-178 223,-178 223,-172 229,-166 235,-166 235,-166 309.5,-166 309.5,-166 315.5,-166 321.5,-172 321.5,-178 321.5,-178 321.5,-190 321.5,-190 321.5,-196 315.5,-202 309.5,-202"/>
<text xml:space="preserve" text-anchor="middle" x="272.25" y="-178.57" font-family="Comic Mono" font-size="14.00">Candidate A</text>
</g>
<!-- tick&#45;&gt;nodeA -->
<g id="edge1" class="edge">
<title>tick&#45;&gt;nodeA</title>
<path fill="none" stroke="#758297" d="M68.25,-119.42C68.25,-143.87 68.25,-184 68.25,-184 68.25,-184 211.09,-184 211.09,-184"/>
<polygon fill="#758297" stroke="#758297" points="211.09,-187.5 221.09,-184 211.09,-180.5 211.09,-187.5"/>
<text xml:space="preserve" text-anchor="middle" x="179.5" y="-176.5" font-family="Comic Mono" font-size="10.00">call</text>
</g>
<!-- nodeB -->
<g id="node3" class="node">
<title>nodeB</title>
<path fill="#f8fafc" stroke="#94a3b8" d="M309.5,-119C309.5,-119 235,-119 235,-119 229,-119 223,-113 223,-107 223,-107 223,-95 223,-95 223,-89 229,-83 235,-83 235,-83 309.5,-83 309.5,-83 315.5,-83 321.5,-89 321.5,-95 321.5,-95 321.5,-107 321.5,-107 321.5,-113 315.5,-119 309.5,-119"/>
<text xml:space="preserve" text-anchor="middle" x="272.25" y="-95.58" font-family="Comic Mono" font-size="14.00">Candidate B</text>
</g>
<!-- tick&#45;&gt;nodeB -->
<g id="edge2" class="edge">
<title>tick&#45;&gt;nodeB</title>
<path fill="none" stroke="#758297" d="M136.3,-101C136.3,-101 211.24,-101 211.24,-101"/>
<polygon fill="#758297" stroke="#758297" points="211.24,-104.5 221.24,-101 211.24,-97.5 211.24,-104.5"/>
<text xml:space="preserve" text-anchor="middle" x="179.5" y="-103.5" font-family="Comic Mono" font-size="10.00">call</text>
</g>
<!-- nodeC -->
<g id="node4" class="node">
<title>nodeC</title>
<path fill="#f8fafc" stroke="#94a3b8" d="M309.5,-36C309.5,-36 235,-36 235,-36 229,-36 223,-30 223,-24 223,-24 223,-12 223,-12 223,-6 229,0 235,0 235,0 309.5,0 309.5,0 315.5,0 321.5,-6 321.5,-12 321.5,-12 321.5,-24 321.5,-24 321.5,-30 315.5,-36 309.5,-36"/>
<text xml:space="preserve" text-anchor="middle" x="272.25" y="-12.57" font-family="Comic Mono" font-size="14.00">Candidate C</text>
</g>
<!-- tick&#45;&gt;nodeC -->
<g id="edge3" class="edge">
<title>tick&#45;&gt;nodeC</title>
<path fill="none" stroke="#758297" d="M68.25,-82.58C68.25,-58.13 68.25,-18 68.25,-18 68.25,-18 211.09,-18 211.09,-18"/>
<polygon fill="#758297" stroke="#758297" points="211.09,-21.5 221.09,-18 211.09,-14.5 211.09,-21.5"/>
<text xml:space="preserve" text-anchor="middle" x="179.5" y="-30.5" font-family="Comic Mono" font-size="10.00">call</text>
</g>
<!-- backend -->
<g id="node5" class="node">
<title>backend</title>
<path fill="#f8fafc" stroke="#94a3b8" d="M556.5,-119C556.5,-119 452,-119 452,-119 446,-119 440,-113 440,-107 440,-107 440,-95 440,-95 440,-89 446,-83 452,-83 452,-83 556.5,-83 556.5,-83 562.5,-83 568.5,-89 568.5,-95 568.5,-95 568.5,-107 568.5,-107 568.5,-113 562.5,-119 556.5,-119"/>
<text xml:space="preserve" text-anchor="middle" x="504.25" y="-95.58" font-family="Comic Mono" font-size="14.00">partition locks</text>
</g>
<!-- nodeA&#45;&gt;backend -->
<g id="edge4" class="edge">
<title>nodeA&#45;&gt;backend</title>
<path fill="none" stroke="#758297" d="M321.74,-184C389.87,-184 504.25,-184 504.25,-184 504.25,-184 504.25,-130.93 504.25,-130.93"/>
<polygon fill="#758297" stroke="#758297" points="507.75,-130.93 504.25,-120.93 500.75,-130.93 507.75,-130.93"/>
<text xml:space="preserve" text-anchor="middle" x="380.75" y="-176.5" font-family="Comic Mono" font-size="10.00">contention</text>
</g>
<!-- nodeB&#45;&gt;backend -->
<g id="edge5" class="edge">
<title>nodeB&#45;&gt;backend</title>
<path fill="none" stroke="#758297" d="M321.74,-101C321.74,-101 428.33,-101 428.33,-101"/>
<polygon fill="#758297" stroke="#758297" points="428.33,-104.5 438.33,-101 428.33,-97.5 428.33,-104.5"/>
<text xml:space="preserve" text-anchor="middle" x="380.75" y="-103.5" font-family="Comic Mono" font-size="10.00">contention</text>
</g>
<!-- nodeC&#45;&gt;backend -->
<g id="edge6" class="edge">
<title>nodeC&#45;&gt;backend</title>
<path fill="none" stroke="#758297" d="M321.74,-18C389.87,-18 504.25,-18 504.25,-18 504.25,-18 504.25,-71.07 504.25,-71.07"/>
<polygon fill="#758297" stroke="#758297" points="500.75,-71.07 504.25,-81.07 507.75,-71.07 500.75,-71.07"/>
<text xml:space="preserve" text-anchor="middle" x="380.75" y="-30.5" font-family="Comic Mono" font-size="10.00">contention</text>
</g>
<!-- recovery -->
<g id="node6" class="node">
<title>recovery</title>
<path fill="#f8fafc" stroke="#94a3b8" d="M870.25,-202C870.25,-202 683.25,-202 683.25,-202 677.25,-202 671.25,-196 671.25,-190 671.25,-190 671.25,-178 671.25,-178 671.25,-172 677.25,-166 683.25,-166 683.25,-166 870.25,-166 870.25,-166 876.25,-166 882.25,-172 882.25,-178 882.25,-178 882.25,-190 882.25,-190 882.25,-196 876.25,-202 870.25,-202"/>
<text xml:space="preserve" text-anchor="middle" x="776.75" y="-178.57" font-family="Comic Mono" font-size="14.00">Failed Partition Isolation</text>
</g>
<!-- backend&#45;&gt;recovery -->
<g id="edge9" class="edge">
<title>backend&#45;&gt;recovery</title>
<path fill="none" stroke="#758297" d="M568.95,-110C623.33,-110 692.25,-110 692.25,-110 692.25,-110 692.25,-154.19 692.25,-154.19"/>
<polygon fill="#758297" stroke="#758297" points="688.75,-154.19 692.25,-164.19 695.75,-154.19 688.75,-154.19"/>
<text xml:space="preserve" text-anchor="middle" x="619.88" y="-186.5" font-family="Comic Mono" font-size="10.00">release</text>
</g>
<!-- skipped -->
<g id="node7" class="node">
<title>skipped</title>
<path fill="#f8fafc" stroke="#94a3b8" d="M810.25,-119C810.25,-119 743.25,-119 743.25,-119 737.25,-119 731.25,-113 731.25,-107 731.25,-107 731.25,-95 731.25,-95 731.25,-89 737.25,-83 743.25,-83 743.25,-83 810.25,-83 810.25,-83 816.25,-83 822.25,-89 822.25,-95 822.25,-95 822.25,-107 822.25,-107 822.25,-113 816.25,-119 810.25,-119"/>
<text xml:space="preserve" text-anchor="middle" x="776.75" y="-95.58" font-family="Comic Mono" font-size="14.00">Peers Skip</text>
</g>
<!-- backend&#45;&gt;skipped -->
<g id="edge8" class="edge">
<title>backend&#45;&gt;skipped</title>
<path fill="none" stroke="#758297" d="M568.83,-101C568.83,-101 719.44,-101 719.44,-101"/>
<polygon fill="#758297" stroke="#758297" points="719.44,-104.5 729.44,-101 719.44,-97.5 719.44,-104.5"/>
<text xml:space="preserve" text-anchor="middle" x="619.88" y="-103.5" font-family="Comic Mono" font-size="10.00">skip</text>
</g>
<!-- leader -->
<g id="node8" class="node">
<title>leader</title>
<path fill="#f8fafc" stroke="#94a3b8" d="M829,-36C829,-36 724.5,-36 724.5,-36 718.5,-36 712.5,-30 712.5,-24 712.5,-24 712.5,-12 712.5,-12 712.5,-6 718.5,0 724.5,0 724.5,0 829,0 829,0 835,0 841,-6 841,-12 841,-12 841,-24 841,-24 841,-30 835,-36 829,-36"/>
<text xml:space="preserve" text-anchor="middle" x="776.75" y="-12.57" font-family="Comic Mono" font-size="14.00">One Leader Runs</text>
</g>
<!-- backend&#45;&gt;leader -->
<g id="edge7" class="edge">
<title>backend&#45;&gt;leader</title>
<path fill="none" stroke="#758297" d="M568.77,-92C633.06,-92 722.25,-92 722.25,-92 722.25,-92 722.25,-47.81 722.25,-47.81"/>
<polygon fill="#758297" stroke="#758297" points="725.75,-47.81 722.25,-37.81 718.75,-47.81 725.75,-47.81"/>
<text xml:space="preserve" text-anchor="middle" x="619.88" y="-20.5" font-family="Comic Mono" font-size="10.00">success</text>
</g>
</g>
</svg>
