<?xml version="1.0" encoding="UTF-8" standalone="no"?>
<!DOCTYPE svg PUBLIC "-//W3C//DTD SVG 1.1//EN"
 "http://www.w3.org/Graphics/SVG/1.1/DTD/svg11.dtd">
<!-- Generated by graphviz version 15.0.0 (20260523.1842)
 -->
<!-- Title: examples&#45;consul&#45;maintenance&#45;architecture&#45;01 Pages: 1 -->
<svg width="1268pt" height="315pt"
 viewBox="0.00 0.00 1268.00 315.00" xmlns="http://www.w3.org/2000/svg" xmlns:xlink="http://www.w3.org/1999/xlink">
<g id="graph0" class="graph" transform="scale(1 1) rotate(0) translate(4 310.66)">
<title>examples&#45;consul&#45;maintenance&#45;architecture&#45;01</title>
<text xml:space="preserve" text-anchor="middle" x="629.9" y="-289.36" font-family="Times,serif" font-size="14.00">Consul Maintenance Architecture</text>
<!-- n0&#45;&gt;r1p1 -->
<g id="edge1" class="edge">
<title>n0&#45;&gt;r1p1</title>
<path fill="none" stroke="#758297" stroke-width="1.8" d="M230.15,-236.08C244.3,-236.08 255.05,-236.08 258.59,-236.08"/>
</g>
<!-- n1&#45;&gt;r2p1 -->
<g id="edge4" class="edge">
<title>n1&#45;&gt;r2p1</title>
<path fill="none" stroke="#758297" stroke-width="1.8" d="M230.15,-46.08C244.3,-46.08 255.05,-46.08 258.59,-46.08"/>
</g>
<!-- n2&#45;&gt;r3p1 -->
<g id="edge7" class="edge">
<title>n2&#45;&gt;r3p1</title>
<path fill="none" stroke="#758297" stroke-width="1.8" d="M640.07,-136.08C649.21,-136.08 655.76,-136.08 658.46,-136.08"/>
</g>
<!-- n2&#45;&gt;r5p1 -->
<g id="edge13" class="edge">
<title>n2&#45;&gt;r5p1</title>
<path fill="none" stroke="#758297" stroke-width="1.8" d="M640.26,-136.08C723.41,-136.08 807.17,-136.08 818.53,-136.08"/>
</g>
<!-- n3&#45;&gt;r4p1 -->
<g id="edge10" class="edge">
<title>n3&#45;&gt;r4p1</title>
<path fill="none" stroke="#758297" stroke-width="1.8" d="M950.19,-136.08C961.76,-136.08 970.3,-136.08 973.48,-136.08"/>
</g>
<!-- r1p1&#45;&gt;r1p2 -->
<g id="edge2" class="edge">
<title>r1p1&#45;&gt;r1p2</title>
<path fill="none" stroke="#758297" stroke-width="1.8" d="M259.84,-234.67C259.84,-223.46 259.84,-149.13 259.84,-137.59"/>
</g>
<!-- r1p2&#45;&gt;n2 -->
<g id="edge3" class="edge">
<title>r1p2&#45;&gt;n2</title>
<path fill="none" stroke="#758297" stroke-width="1.8" d="M261.15,-136.08C263.75,-136.08 270.11,-136.08 279.05,-136.08"/>
<polygon fill="#758297" stroke="#758297" stroke-width="1.8" points="278.98,-138.88 286.98,-136.08 278.98,-133.28 278.98,-138.88"/>
</g>
<!-- r2p1&#45;&gt;r2p2 -->
<g id="edge5" class="edge">
<title>r2p1&#45;&gt;r2p2</title>
<path fill="none" stroke="#758297" stroke-width="1.8" d="M259.84,-47.64C259.84,-58.66 259.84,-124.52 259.84,-134.75"/>
</g>
<!-- r2p2&#45;&gt;n2 -->
<g id="edge6" class="edge">
<title>r2p2&#45;&gt;n2</title>
<path fill="none" stroke="#758297" stroke-width="1.8" d="M261.15,-136.08C263.75,-136.08 270.11,-136.08 279.05,-136.08"/>
<polygon fill="#758297" stroke="#758297" stroke-width="1.8" points="278.98,-138.88 286.98,-136.08 278.98,-133.28 278.98,-138.88"/>
</g>
<!-- r3p1&#45;&gt;r3p2 -->
<g id="edge8" class="edge">
<title>r3p1&#45;&gt;r3p2</title>
<path fill="none" stroke="#758297" stroke-width="1.8" d="M659.84,-136.08C659.84,-136.08 659.84,-136.08 659.84,-136.08"/>
</g>
<!-- r3p2&#45;&gt;n3 -->
<g id="edge9" class="edge">
<title>r3p2&#45;&gt;n3</title>
<path fill="none" stroke="#758297" stroke-width="1.8" d="M661.18,-136.08C662.65,-136.08 665.29,-136.08 668.85,-136.08"/>
<polygon fill="#758297" stroke="#758297" stroke-width="1.8" points="668.75,-138.88 676.75,-136.08 668.75,-133.28 668.75,-138.88"/>
</g>
<!-- r4p1&#45;&gt;r4p2 -->
<g id="edge11" class="edge">
<title>r4p1&#45;&gt;r4p2</title>
<path fill="none" stroke="#758297" stroke-width="1.8" d="M974.84,-137.49C974.84,-148.7 974.84,-223.03 974.84,-234.57"/>
</g>
<!-- r4p2&#45;&gt;n4 -->
<g id="edge12" class="edge">
<title>r4p2&#45;&gt;n4</title>
<path fill="none" stroke="#758297" stroke-width="1.8" d="M976.18,-236.08C978.31,-236.08 982.87,-236.08 989.13,-236.08"/>
<polygon fill="#758297" stroke="#758297" stroke-width="1.8" points="988.73,-238.88 996.73,-236.08 988.73,-233.28 988.73,-238.88"/>
</g>
<!-- r5p1&#45;&gt;r5p2 -->
<g id="edge14" class="edge">
<title>r5p1&#45;&gt;r5p2</title>
<path fill="none" stroke="#758297" stroke-width="1.8" d="M819.84,-134.52C819.84,-123.5 819.84,-57.64 819.84,-47.41"/>
</g>
<!-- r5p2&#45;&gt;n5 -->
<g id="edge15" class="edge">
<title>r5p2&#45;&gt;n5</title>
<path fill="none" stroke="#758297" stroke-width="1.8" d="M821.22,-46.08C832.65,-46.08 913.02,-46.08 988.87,-46.08"/>
<polygon fill="#758297" stroke="#758297" stroke-width="1.8" points="988.81,-48.88 996.81,-46.08 988.81,-43.28 988.81,-48.88"/>
</g>
<!-- n0 -->
<g id="node1" class="node">
<title>n0</title>
<path fill="#ffffff" stroke="#5b8def" d="M217.68,-282.16C217.68,-282.16 12,-282.16 12,-282.16 6,-282.16 0,-276.16 0,-270.16 0,-270.16 0,-202 0,-202 0,-196 6,-190 12,-190 12,-190 217.68,-190 217.68,-190 223.68,-190 229.68,-196 229.68,-202 229.68,-202 229.68,-270.16 229.68,-270.16 229.68,-276.16 223.68,-282.16 217.68,-282.16"/>
<text xml:space="preserve" text-anchor="middle" x="114.84" y="-231.73" font-family="Architects Daughter" font-size="18.00">Service instance A</text>
</g>
<!-- n1 -->
<g id="node2" class="node">
<title>n1</title>
<path fill="#ffffff" stroke="#58a978" d="M217.68,-92.16C217.68,-92.16 12,-92.16 12,-92.16 6,-92.16 0,-86.16 0,-80.16 0,-80.16 0,-12 0,-12 0,-6 6,0 12,0 12,0 217.68,0 217.68,0 223.68,0 229.68,-6 229.68,-12 229.68,-12 229.68,-80.16 229.68,-80.16 229.68,-86.16 223.68,-92.16 217.68,-92.16"/>
<text xml:space="preserve" text-anchor="middle" x="114.84" y="-41.73" font-family="Architects Daughter" font-size="18.00">Service instance B</text>
</g>
<!-- n2 -->
<g id="node3" class="node">
<title>n2</title>
<path fill="#ffffff" stroke="#d6a441" d="M627.8,-182.16C627.8,-182.16 301.88,-182.16 301.88,-182.16 295.88,-182.16 289.88,-176.16 289.88,-170.16 289.88,-170.16 289.88,-102 289.88,-102 289.88,-96 295.88,-90 301.88,-90 301.88,-90 627.8,-90 627.8,-90 633.8,-90 639.8,-96 639.8,-102 639.8,-102 639.8,-170.16 639.8,-170.16 639.8,-176.16 633.8,-182.16 627.8,-182.16"/>
<text xml:space="preserve" text-anchor="middle" x="464.84" y="-131.73" font-family="Architects Daughter" font-size="18.00">ServiceMaintenanceCoordinator</text>
</g>
<!-- n3 -->
<g id="node4" class="node">
<title>n3</title>
<path fill="#ffffff" stroke="#dc6b82" d="M937.84,-182.16C937.84,-182.16 691.84,-182.16 691.84,-182.16 685.84,-182.16 679.84,-176.16 679.84,-170.16 679.84,-170.16 679.84,-102 679.84,-102 679.84,-96 685.84,-90 691.84,-90 691.84,-90 937.84,-90 937.84,-90 943.84,-90 949.84,-96 949.84,-102 949.84,-102 949.84,-170.16 949.84,-170.16 949.84,-176.16 943.84,-182.16 937.84,-182.16"/>
<text xml:space="preserve" text-anchor="middle" x="814.84" y="-131.73" font-family="Architects Daughter" font-size="18.00">ConsulLeaderElector</text>
</g>
<!-- n4 -->
<g id="node5" class="node">
<title>n4</title>
<path fill="#ffffff" stroke="#45a7a1" d="M1247.8,-282.16C1247.8,-282.16 1011.88,-282.16 1011.88,-282.16 1005.88,-282.16 999.88,-276.16 999.88,-270.16 999.88,-270.16 999.88,-202 999.88,-202 999.88,-196 1005.88,-190 1011.88,-190 1011.88,-190 1247.8,-190 1247.8,-190 1253.8,-190 1259.8,-196 1259.8,-202 1259.8,-202 1259.8,-270.16 1259.8,-270.16 1259.8,-276.16 1253.8,-282.16 1247.8,-282.16"/>
<text xml:space="preserve" text-anchor="middle" x="1129.84" y="-231.73" font-family="Architects Daughter" font-size="18.00">Consul agent</text>
</g>
<!-- n5 -->
<g id="node6" class="node">
<title>n5</title>
<path fill="#ffffff" stroke="#8a72d6" d="M1247.8,-92.16C1247.8,-92.16 1011.88,-92.16 1011.88,-92.16 1005.88,-92.16 999.88,-86.16 999.88,-80.16 999.88,-80.16 999.88,-12 999.88,-12 999.88,-6 1005.88,0 1011.88,0 1011.88,0 1247.8,0 1247.8,0 1253.8,0 1259.8,-6 1259.8,-12 1259.8,-12 1259.8,-80.16 1259.8,-80.16 1259.8,-86.16 1253.8,-92.16 1247.8,-92.16"/>
<text xml:space="preserve" text-anchor="middle" x="1129.84" y="-41.73" font-family="Architects Daughter" font-size="18.00">Maintenance steps</text>
</g>
<!-- r1p1 -->
<!-- r1p2 -->
<!-- r2p1 -->
<!-- r2p2 -->
<!-- r3p1 -->
<!-- r3p2 -->
<!-- r4p1 -->
<!-- r4p2 -->
<!-- r5p1 -->
<!-- r5p2 -->
</g>
</svg>
