<svg xmlns="http://www.w3.org/2000/svg" width="1640" height="810" viewBox="0 0 1640 810" role="img" aria-label="ZooKeeper Scheduler Scenario">
  <metadata id="graphviz-evidence">Generated with Graphviz evidence: examples-zookeeper-scheduler-scenario-01.dot, examples-zookeeper-scheduler-scenario-01.plain, examples-zookeeper-scheduler-scenario-01-graphviz.svg, and examples-zookeeper-scheduler-scenario-01-graphviz.png.</metadata>
<defs>
  <filter id="shadow" x="-8%" y="-8%" width="116%" height="116%">
    <feDropShadow dx="0" dy="7" stdDeviation="8" flood-color="#1f2937" flood-opacity="0.10"/>
  </filter>
  <marker id="arrow-neutral" markerWidth="8" markerHeight="8" refX="7" refY="4" orient="auto" markerUnits="strokeWidth">
    <path d="M 1 1 L 7 4 L 1 7 Z" fill="#758297"/>
  </marker>
  <marker id="arrow-leader" markerWidth="8" markerHeight="8" refX="7" refY="4" orient="auto" markerUnits="strokeWidth">
    <path d="M 1 1 L 7 4 L 1 7 Z" fill="#43A76B"/>
  </marker>
  <marker id="arrow-skipped" markerWidth="8" markerHeight="8" refX="7" refY="4" orient="auto" markerUnits="strokeWidth">
    <path d="M 1 1 L 7 4 L 1 7 Z" fill="#EF5B7A"/>
  </marker>
  <marker id="arrow-contention" markerWidth="8" markerHeight="8" refX="7" refY="4" orient="auto" markerUnits="strokeWidth">
    <path d="M 1 1 L 7 4 L 1 7 Z" fill="#D99A2B"/>
  </marker>
  <marker id="arrow-reacquire" markerWidth="8" markerHeight="8" refX="7" refY="4" orient="auto" markerUnits="strokeWidth">
    <path d="M 1 1 L 7 4 L 1 7 Z" fill="#8B6EEB"/>
  </marker>
  <style>
    .canvas{fill:#f7f9fc}
    .frame{fill:#fff;stroke:#d8e0ea;stroke-width:1.5}
    .layer{stroke:#dbe4ef;stroke-width:1.2}
    .title{font-family:"Architects Daughter","Comic Mono","Comic Sans MS",cursive;font-size:42px;font-weight:400;fill:#102033}
    .subtitle{font-family:"Comic Mono","Comic Sans MS",monospace;font-size:15px;font-weight:400;fill:#536273}
    .label{font-family:"Architects Daughter","Comic Mono","Comic Sans MS",cursive;font-size:21px;font-weight:400;fill:#102033}
    .detail{font-family:"Comic Mono","Comic Sans MS",monospace;font-size:12px;font-weight:400;fill:#334155}
    .strong{font-family:"Comic Mono","Comic Sans MS",monospace;font-size:13px;font-weight:400;fill:#102033}
    .card{stroke-width:2;filter:url(#shadow)}
    .line{stroke-width:2.2;fill:none;stroke-linecap:round;stroke-linejoin:round}
    .dashed{stroke-width:2.2;stroke-dasharray:7 6;fill:none;stroke-linecap:round;stroke-linejoin:round}
    .lifeline{stroke:#b7c2d1;stroke-width:2;stroke-dasharray:10 10}
    .pill{fill:#ffffff;stroke:#dbe4ef;stroke-width:1.1;opacity:.98}
  </style>
</defs>
<rect class="canvas" width="1640" height="810"/>
<rect class="frame" x="32" y="28" width="1576" height="754" rx="28"/>
<text class="title" x="66" y="82">ZooKeeper Scheduler Scenario</text>
<text class="subtitle" x="70" y="118">The demo proves execute, skip, and reacquire behavior with two scheduler nodes</text>
<g>
  <rect class="layer" x="54" y="160" width="1532" height="155" rx="18" fill="#F8FAFC"/>
  <text class="label" x="78" y="194">Phase 1 - first schedule</text>
</g>
<g>
  <rect class="layer" x="54" y="355" width="1532" height="140" rx="18" fill="#FFFFFF"/>
  <text class="label" x="78" y="389">Phase 2 - contention result</text>
</g>
<g>
  <rect class="layer" x="54" y="550" width="1532" height="140" rx="18" fill="#F8FAFC"/>
  <text class="label" x="78" y="584">Phase 3 - release and next run</text>
</g>
<path class="line" d="M540 241 L575 241 L575 241 L610 241" style="stroke:#43A76B;marker-end:url(#arrow-leader)"/>
<path class="line" d="M890 241 L910 241 L910 239 L930 239" style="stroke:#43A76B;marker-end:url(#arrow-leader)"/>
<path class="line" d="M750 390 L750 335 L1075 335 L1075 303" style="stroke:#D99A2B;marker-end:url(#arrow-contention)"/>
<path class="line" d="M1220 239 L1250 239 L1250 241 L1280 241" style="stroke:#43A76B;marker-end:url(#arrow-leader)"/>
<path class="line" d="M1220 239 L1250 239 L1250 436 L1280 436" style="stroke:#EF5B7A;marker-end:url(#arrow-skipped)"/>
<path class="line" d="M540 241 L575 241 L575 436 L610 436" style="stroke:#D99A2B;marker-end:url(#arrow-contention)"/>
<path class="line" d="M750 287 L750 315 L900 315 L900 631 L930 631" style="stroke:#D99A2B;marker-end:url(#arrow-contention)"/>
<path class="line" d="M1220 631 L1250 631 L1250 631 L1280 631" style="stroke:#8B6EEB;marker-end:url(#arrow-reacquire)"/>
<path class="line" d="M1280 631 L1235 631 L1235 239 L1220 239" style="stroke:#8B6EEB;marker-end:url(#arrow-reacquire)"/>
<g id="tick">
  <rect class="card" x="300" y="195" width="240" height="92" rx="14" fill="#E8F3FF" stroke="#5B8DEF"/>
<text class="label" x="420" y="226" text-anchor="middle" dominant-baseline="middle">Same schedule</text>
<text class="detail" x="420" y="245" text-anchor="middle" dominant-baseline="middle">daily-ledger</text>
<text class="detail" x="420" y="264" text-anchor="middle" dominant-baseline="middle">first run</text>
</g>
<g id="nodeA">
  <rect class="card" x="610" y="195" width="280" height="92" rx="14" fill="#EAF7EF" stroke="#58A978"/>
<text class="label" x="750" y="226" text-anchor="middle" dominant-baseline="middle">node-a</text>
<text class="detail" x="750" y="245" text-anchor="middle" dominant-baseline="middle">acquires leadership</text>
<text class="detail" x="750" y="264" text-anchor="middle" dominant-baseline="middle">runs legacy job</text>
</g>
<g id="zk">
  <path class="card" d="M930 199 C930 183 1220 183 1220 199 L1220 279 C1220 295 930 295 930 279 Z" fill="#F1ECFF" stroke="#8A72D6"/>
  <ellipse cx="1075" cy="199" rx="145" ry="16" fill="#F1ECFF" stroke="#8A72D6" stroke-width="2"/>
<text class="label" x="1075" y="224" text-anchor="middle" dominant-baseline="middle">ZooKeeper lock</text>
<text class="detail" x="1075" y="243" text-anchor="middle" dominant-baseline="middle">Curator session</text>
<text class="detail" x="1075" y="262" text-anchor="middle" dominant-baseline="middle">base path + lock name</text>
</g>
<g id="job">
  <rect class="card" x="1280" y="195" width="260" height="92" rx="14" fill="#E9F7F6" stroke="#45A7A1"/>
<text class="label" x="1410" y="226" text-anchor="middle" dominant-baseline="middle">Legacy job</text>
<text class="detail" x="1410" y="245" text-anchor="middle" dominant-baseline="middle">read-ledger</text>
<text class="detail" x="1410" y="264" text-anchor="middle" dominant-baseline="middle">write-summary</text>
</g>
<g id="nodeB">
  <rect class="card" x="610" y="390" width="280" height="92" rx="14" fill="#FFF3D9" stroke="#D6A441"/>
<text class="label" x="750" y="421" text-anchor="middle" dominant-baseline="middle">node-b</text>
<text class="detail" x="750" y="440" text-anchor="middle" dominant-baseline="middle">competes while held</text>
<text class="detail" x="750" y="459" text-anchor="middle" dominant-baseline="middle">body is not called</text>
</g>
<g id="skip">
  <rect class="card" x="1280" y="390" width="260" height="92" rx="14" fill="#FDECEF" stroke="#DC6B82"/>
<text class="label" x="1410" y="421" text-anchor="middle" dominant-baseline="middle">Skip report</text>
<text class="detail" x="1410" y="440" text-anchor="middle" dominant-baseline="middle">status=SKIPPED</text>
<text class="detail" x="1410" y="459" text-anchor="middle" dominant-baseline="middle">empty steps</text>
</g>
<g id="release">
  <rect class="card" x="930" y="585" width="290" height="92" rx="14" fill="#F7F1E7" stroke="#B88A44"/>
<text class="label" x="1075" y="616" text-anchor="middle" dominant-baseline="middle">Lock released</text>
<text class="detail" x="1075" y="635" text-anchor="middle" dominant-baseline="middle">node-a exits body</text>
<text class="detail" x="1075" y="654" text-anchor="middle" dominant-baseline="middle">session lock returns</text>
</g>
<g id="next">
  <rect class="card" x="1280" y="585" width="260" height="92" rx="14" fill="#EAF7EF" stroke="#58A978"/>
<text class="label" x="1410" y="616" text-anchor="middle" dominant-baseline="middle">Next schedule</text>
<text class="detail" x="1410" y="635" text-anchor="middle" dominant-baseline="middle">node-b reacquires</text>
<text class="detail" x="1410" y="654" text-anchor="middle" dominant-baseline="middle">status=EXECUTED</text>
</g>
</svg>
