<?xml version="1.0" encoding="UTF-8" standalone="no"?>
<!DOCTYPE svg PUBLIC "-//W3C//DTD SVG 1.1//EN"
 "http://www.w3.org/Graphics/SVG/1.1/DTD/svg11.dtd">
<!-- Generated by graphviz version 15.0.0 (20260523.1842)
 -->
<!-- Title: examples&#45;batch&#45;scheduler&#45;sequence&#45;01 Pages: 1 -->
<svg width="1568pt" height="1460pt"
 viewBox="0.00 0.00 1568.00 1460.00" xmlns="http://www.w3.org/2000/svg" xmlns:xlink="http://www.w3.org/1999/xlink">
<g id="graph0" class="graph" transform="scale(1 1) rotate(0) translate(4 1455.5)">
<title>examples&#45;batch&#45;scheduler&#45;sequence&#45;01</title>
<text xml:space="preserve" text-anchor="middle" x="779.84" y="-1434.2" font-family="Times,serif" font-size="14.00">batch scheduler Sequence Flow</text>
<!-- n0&#45;&gt;n1 -->
<g id="edge1" class="edge">
<title>n0&#45;&gt;n1</title>
<path fill="none" stroke="#758297" stroke-width="1.8" d="M229.73,-1359C229.73,-1359 321.44,-1359 321.44,-1359"/>
<polygon fill="#758297" stroke="#758297" stroke-width="1.8" points="321.44,-1361.8 329.44,-1359 321.44,-1356.2 321.44,-1361.8"/>
</g>
<!-- n0&#45;&gt;n2 -->
<g id="edge2" class="edge">
<title>n0&#45;&gt;n2</title>
<path fill="none" stroke="#758297" stroke-width="1.8" d="M153.12,-1395.31C153.12,-1398.18 153.12,-1400 153.12,-1400 153.12,-1400 722.42,-1400 722.42,-1400 722.42,-1400 722.42,-1399.53 722.42,-1399.53"/>
<polygon fill="#758297" stroke="#758297" stroke-width="1.8" points="725.22,-1406.03 722.42,-1398.03 719.62,-1406.03 725.22,-1406.03"/>
</g>
<!-- n0&#45;&gt;n3 -->
<g id="edge3" class="edge">
<title>n0&#45;&gt;n3</title>
<path fill="none" stroke="#758297" stroke-width="1.8" d="M76.56,-1395.34C76.56,-1405.1 76.56,-1413 76.56,-1413 76.56,-1413 1112.34,-1413 1112.34,-1413 1112.34,-1413 1112.34,-1406.07 1112.34,-1406.07"/>
<polygon fill="#758297" stroke="#758297" stroke-width="1.8" points="1115.14,-1406.07 1112.34,-1398.07 1109.54,-1406.07 1115.14,-1406.07"/>
</g>
<!-- n1&#45;&gt;n4 -->
<g id="edge4" class="edge">
<title>n1&#45;&gt;n4</title>
<path fill="none" stroke="#758297" stroke-width="1.8" d="M504.76,-1395.39C504.76,-1407.51 504.76,-1418 504.76,-1418 504.76,-1418 1483.12,-1418 1483.12,-1418 1483.12,-1418 1483.12,-1406.11 1483.12,-1406.11"/>
<polygon fill="#758297" stroke="#758297" stroke-width="1.8" points="1485.92,-1406.11 1483.12,-1398.11 1480.32,-1406.11 1485.92,-1406.11"/>
</g>
<!-- n1&#45;&gt;n4 -->
<g id="edge13" class="edge">
<title>n1&#45;&gt;n4</title>
<path fill="none" stroke="#758297" stroke-width="1.8" d="M447.34,-1395.43C447.34,-1411.57 447.34,-1427 447.34,-1427 447.34,-1427 1521.4,-1427 1521.4,-1427 1521.4,-1427 1521.4,-1406.15 1521.4,-1406.15"/>
<polygon fill="#758297" stroke="#758297" stroke-width="1.8" points="1524.2,-1406.15 1521.4,-1398.15 1518.6,-1406.15 1524.2,-1406.15"/>
</g>
<!-- n1&#45;&gt;r10p1 -->
<g id="edge10" class="edge">
<title>n1&#45;&gt;r10p1</title>
<path fill="none" stroke="#758297" stroke-width="1.8" d="M511.34,-1322.63C511.34,-1114.19 511.34,-80.85 511.34,-36.55"/>
</g>
<!-- n2&#45;&gt;n4 -->
<g id="edge5" class="edge">
<title>n2&#45;&gt;n4</title>
<path fill="none" stroke="#758297" stroke-width="1.8" d="M837.26,-1395.36C837.26,-1403.1 837.26,-1409 837.26,-1409 837.26,-1409 1444.84,-1409 1444.84,-1409 1444.84,-1409 1444.84,-1406.08 1444.84,-1406.08"/>
<polygon fill="#758297" stroke="#758297" stroke-width="1.8" points="1447.64,-1406.08 1444.84,-1398.08 1442.04,-1406.08 1447.64,-1406.08"/>
</g>
<!-- n3&#45;&gt;n4 -->
<g id="edge6" class="edge">
<title>n3&#45;&gt;n4</title>
<path fill="none" stroke="#758297" stroke-width="1.8" d="M1227.23,-1347C1227.23,-1347 1318.94,-1347 1318.94,-1347"/>
<polygon fill="#758297" stroke="#758297" stroke-width="1.8" points="1318.94,-1349.8 1326.94,-1347 1318.94,-1344.2 1318.94,-1349.8"/>
</g>
<!-- n4&#45;&gt;n1 -->
<g id="edge7" class="edge">
<title>n4&#45;&gt;n1</title>
<path fill="none" stroke="#758297" stroke-width="1.8" stroke-dasharray="5,2" d="M1406.56,-1395.32C1406.56,-1409.3 1406.56,-1422 1406.56,-1422 1406.56,-1422 389.92,-1422 389.92,-1422 389.92,-1422 389.92,-1406.04 389.92,-1406.04"/>
<polygon fill="#758297" stroke="#758297" stroke-width="1.8" points="392.72,-1406.04 389.92,-1398.04 387.12,-1406.04 392.72,-1406.04"/>
</g>
<!-- n4&#45;&gt;n2 -->
<g id="edge8" class="edge">
<title>n4&#45;&gt;n2</title>
<path fill="none" stroke="#758297" stroke-width="1.8" stroke-dasharray="5,2" d="M1368.28,-1395.34C1368.28,-1400.45 1368.28,-1404 1368.28,-1404 1368.28,-1404 779.84,-1404 779.84,-1404 779.84,-1404 779.84,-1403.13 779.84,-1403.13"/>
<polygon fill="#758297" stroke="#758297" stroke-width="1.8" points="782.64,-1406.06 779.84,-1398.06 777.04,-1406.06 782.64,-1406.06"/>
</g>
<!-- n4&#45;&gt;n3 -->
<g id="edge9" class="edge">
<title>n4&#45;&gt;n3</title>
<path fill="none" stroke="#758297" stroke-width="1.8" stroke-dasharray="5,2" d="M1329.95,-1371C1329.95,-1371 1238.24,-1371 1238.24,-1371"/>
<polygon fill="#758297" stroke="#758297" stroke-width="1.8" points="1238.24,-1368.2 1230.24,-1371 1238.24,-1373.8 1238.24,-1368.2"/>
</g>
<!-- r10p1&#45;&gt;r10p2 -->
<g id="edge11" class="edge">
<title>r10p1&#45;&gt;r10p2</title>
<path fill="none" stroke="#758297" stroke-width="1.8" d="M511.34,-33.62C511.34,-28.03 511.34,-8.02 511.34,-2.5"/>
</g>
<!-- r10p2&#45;&gt;n1 -->
<g id="edge12" class="edge">
<title>r10p2&#45;&gt;n1</title>
<path fill="none" stroke="#758297" stroke-width="1.8" d="M512.74,-1C518.13,-1 537.3,-1 537.3,-1 537.3,-1 537.3,-1312.03 537.3,-1312.03"/>
<polygon fill="#758297" stroke="#758297" stroke-width="1.8" points="534.5,-1312.03 537.3,-1320.03 540.1,-1312.03 534.5,-1312.03"/>
</g>
<!-- n0 -->
<g id="node1" class="node">
<title>n0</title>
<path fill="#ffffff" stroke="#5b8def" d="M217.68,-1395.08C217.68,-1395.08 12,-1395.08 12,-1395.08 6,-1395.08 0,-1389.08 0,-1383.08 0,-1383.08 0,-1335.08 0,-1335.08 0,-1329.08 6,-1323.08 12,-1323.08 12,-1323.08 217.68,-1323.08 217.68,-1323.08 223.68,-1323.08 229.68,-1329.08 229.68,-1335.08 229.68,-1335.08 229.68,-1383.08 229.68,-1383.08 229.68,-1389.08 223.68,-1395.08 217.68,-1395.08"/>
<text xml:space="preserve" text-anchor="middle" x="114.84" y="-1354.73" font-family="Architects Daughter" font-size="18.00">Cron</text>
</g>
<!-- n1 -->
<g id="node2" class="node">
<title>n1</title>
<path fill="#ffffff" stroke="#58a978" d="M550.18,-1395.08C550.18,-1395.08 344.5,-1395.08 344.5,-1395.08 338.5,-1395.08 332.5,-1389.08 332.5,-1383.08 332.5,-1383.08 332.5,-1335.08 332.5,-1335.08 332.5,-1329.08 338.5,-1323.08 344.5,-1323.08 344.5,-1323.08 550.18,-1323.08 550.18,-1323.08 556.18,-1323.08 562.18,-1329.08 562.18,-1335.08 562.18,-1335.08 562.18,-1383.08 562.18,-1383.08 562.18,-1389.08 556.18,-1395.08 550.18,-1395.08"/>
<text xml:space="preserve" text-anchor="middle" x="447.34" y="-1354.73" font-family="Architects Daughter" font-size="18.00">Node&#45;1</text>
</g>
<!-- n2 -->
<g id="node3" class="node">
<title>n2</title>
<path fill="#ffffff" stroke="#d6a441" d="M882.68,-1395.08C882.68,-1395.08 677,-1395.08 677,-1395.08 671,-1395.08 665,-1389.08 665,-1383.08 665,-1383.08 665,-1335.08 665,-1335.08 665,-1329.08 671,-1323.08 677,-1323.08 677,-1323.08 882.68,-1323.08 882.68,-1323.08 888.68,-1323.08 894.68,-1329.08 894.68,-1335.08 894.68,-1335.08 894.68,-1383.08 894.68,-1383.08 894.68,-1389.08 888.68,-1395.08 882.68,-1395.08"/>
<text xml:space="preserve" text-anchor="middle" x="779.84" y="-1354.73" font-family="Architects Daughter" font-size="18.00">Node&#45;2</text>
</g>
<!-- n3 -->
<g id="node4" class="node">
<title>n3</title>
<path fill="#ffffff" stroke="#dc6b82" d="M1215.18,-1395.08C1215.18,-1395.08 1009.5,-1395.08 1009.5,-1395.08 1003.5,-1395.08 997.5,-1389.08 997.5,-1383.08 997.5,-1383.08 997.5,-1335.08 997.5,-1335.08 997.5,-1329.08 1003.5,-1323.08 1009.5,-1323.08 1009.5,-1323.08 1215.18,-1323.08 1215.18,-1323.08 1221.18,-1323.08 1227.18,-1329.08 1227.18,-1335.08 1227.18,-1335.08 1227.18,-1383.08 1227.18,-1383.08 1227.18,-1389.08 1221.18,-1395.08 1215.18,-1395.08"/>
<text xml:space="preserve" text-anchor="middle" x="1112.34" y="-1354.73" font-family="Architects Daughter" font-size="18.00">Node&#45;3</text>
</g>
<!-- n4 -->
<g id="node5" class="node">
<title>n4</title>
<path fill="#ffffff" stroke="#45a7a1" d="M1547.68,-1395.08C1547.68,-1395.08 1342,-1395.08 1342,-1395.08 1336,-1395.08 1330,-1389.08 1330,-1383.08 1330,-1383.08 1330,-1335.08 1330,-1335.08 1330,-1329.08 1336,-1323.08 1342,-1323.08 1342,-1323.08 1547.68,-1323.08 1547.68,-1323.08 1553.68,-1323.08 1559.68,-1329.08 1559.68,-1335.08 1559.68,-1335.08 1559.68,-1383.08 1559.68,-1383.08 1559.68,-1389.08 1553.68,-1395.08 1547.68,-1395.08"/>
<text xml:space="preserve" text-anchor="middle" x="1444.84" y="-1354.73" font-family="Architects Daughter" font-size="18.00">Redis</text>
</g>
<!-- r10p1 -->
<!-- r10p2 -->
</g>
</svg>
