<?xml version="1.0" encoding="UTF-8" standalone="no"?>
<!DOCTYPE svg PUBLIC "-//W3C//DTD SVG 1.1//EN"
 "http://www.w3.org/Graphics/SVG/1.1/DTD/svg11.dtd">
<!-- Generated by graphviz version 15.0.0 (20260523.1842)
 -->
<!-- Title: examples&#45;zookeeper&#45;scheduler&#45;architecture&#45;01 Pages: 1 -->
<svg width="1125pt" height="269pt"
 viewBox="7.00 7.00 1118.00 262.00" xmlns="http://www.w3.org/2000/svg" xmlns:xlink="http://www.w3.org/1999/xlink">
<g id="graph0" class="graph" transform="scale(1 1) rotate(0) translate(11.2 258.2)">
<title>examples&#45;zookeeper&#45;scheduler&#45;architecture&#45;01</title>
<!-- node&#45;a service -->
<g id="node1" class="node">
<title>node&#45;a service</title>
<path fill="#f8fafc" stroke="#94a3b8" d="M146.5,-247C146.5,-247 49.5,-247 49.5,-247 43.5,-247 37.5,-241 37.5,-235 37.5,-235 37.5,-223 37.5,-223 37.5,-217 43.5,-211 49.5,-211 49.5,-211 146.5,-211 146.5,-211 152.5,-211 158.5,-217 158.5,-223 158.5,-223 158.5,-235 158.5,-235 158.5,-241 152.5,-247 146.5,-247"/>
<text xml:space="preserve" text-anchor="middle" x="98" y="-223.57" font-family="Comic Mono" font-size="14.00">node&#45;a service</text>
</g>
<!-- ZooKeeperLegacyScheduler -->
<g id="node3" class="node">
<title>ZooKeeperLegacyScheduler</title>
<path fill="#f8fafc" stroke="#94a3b8" d="M498.5,-164C498.5,-164 326.5,-164 326.5,-164 320.5,-164 314.5,-158 314.5,-152 314.5,-152 314.5,-140 314.5,-140 314.5,-134 320.5,-128 326.5,-128 326.5,-128 498.5,-128 498.5,-128 504.5,-128 510.5,-134 510.5,-140 510.5,-140 510.5,-152 510.5,-152 510.5,-158 504.5,-164 498.5,-164"/>
<text xml:space="preserve" text-anchor="middle" x="412.5" y="-140.57" font-family="Comic Mono" font-size="14.00">ZooKeeperLegacyScheduler</text>
</g>
<!-- node&#45;a service&#45;&gt;ZooKeeperLegacyScheduler -->
<g id="edge1" class="edge">
<title>node&#45;a service&#45;&gt;ZooKeeperLegacyScheduler</title>
<path fill="none" stroke="#758297" d="M158.88,-213.09C207.8,-200.1 277.38,-181.62 331.13,-167.35"/>
<polygon fill="#758297" stroke="#758297" points="331.78,-170.8 340.54,-164.85 329.98,-164.03 331.78,-170.8"/>
<text xml:space="preserve" text-anchor="middle" x="255.25" y="-194.97" font-family="Comic Mono" font-size="10.00">calls</text>
</g>
<!-- node&#45;b service -->
<g id="node2" class="node">
<title>node&#45;b service</title>
<path fill="#f8fafc" stroke="#94a3b8" d="M146.5,-164C146.5,-164 49.5,-164 49.5,-164 43.5,-164 37.5,-158 37.5,-152 37.5,-152 37.5,-140 37.5,-140 37.5,-134 43.5,-128 49.5,-128 49.5,-128 146.5,-128 146.5,-128 152.5,-128 158.5,-134 158.5,-140 158.5,-140 158.5,-152 158.5,-152 158.5,-158 152.5,-164 146.5,-164"/>
<text xml:space="preserve" text-anchor="middle" x="98" y="-140.57" font-family="Comic Mono" font-size="14.00">node&#45;b service</text>
</g>
<!-- node&#45;b service&#45;&gt;ZooKeeperLegacyScheduler -->
<g id="edge2" class="edge">
<title>node&#45;b service&#45;&gt;ZooKeeperLegacyScheduler</title>
<path fill="none" stroke="#758297" d="M158.88,-146C199.49,-146 254.35,-146 302.56,-146"/>
<polygon fill="#758297" stroke="#758297" points="302.51,-149.5 312.51,-146 302.51,-142.5 302.51,-149.5"/>
<text xml:space="preserve" text-anchor="middle" x="255.25" y="-148.5" font-family="Comic Mono" font-size="10.00">calls</text>
</g>
<!-- SchedulerRunReport -->
<g id="node5" class="node">
<title>SchedulerRunReport</title>
<path fill="#f8fafc" stroke="#94a3b8" d="M788.25,-164C788.25,-164 661.25,-164 661.25,-164 655.25,-164 649.25,-158 649.25,-152 649.25,-152 649.25,-140 649.25,-140 649.25,-134 655.25,-128 661.25,-128 661.25,-128 788.25,-128 788.25,-128 794.25,-128 800.25,-134 800.25,-140 800.25,-140 800.25,-152 800.25,-152 800.25,-158 794.25,-164 788.25,-164"/>
<text xml:space="preserve" text-anchor="middle" x="724.75" y="-140.57" font-family="Comic Mono" font-size="14.00">SchedulerRunReport</text>
</g>
<!-- ZooKeeperLegacyScheduler&#45;&gt;SchedulerRunReport -->
<g id="edge7" class="edge">
<title>ZooKeeperLegacyScheduler&#45;&gt;SchedulerRunReport</title>
<path fill="none" stroke="#758297" d="M510.81,-146C551.41,-146 598.17,-146 637.52,-146"/>
<polygon fill="#758297" stroke="#758297" points="637.42,-149.5 647.42,-146 637.42,-142.5 637.42,-149.5"/>
<text xml:space="preserve" text-anchor="middle" x="572.38" y="-148.5" font-family="Comic Mono" font-size="10.00">returns</text>
</g>
<!-- ZooKeeperLeaderElector -->
<g id="node6" class="node">
<title>ZooKeeperLeaderElector</title>
<path fill="#f8fafc" stroke="#94a3b8" d="M803.25,-58C803.25,-58 646.25,-58 646.25,-58 640.25,-58 634.25,-52 634.25,-46 634.25,-46 634.25,-34 634.25,-34 634.25,-28 640.25,-22 646.25,-22 646.25,-22 803.25,-22 803.25,-22 809.25,-22 815.25,-28 815.25,-34 815.25,-34 815.25,-46 815.25,-46 815.25,-52 809.25,-58 803.25,-58"/>
<text xml:space="preserve" text-anchor="middle" x="724.75" y="-34.58" font-family="Comic Mono" font-size="14.00">ZooKeeperLeaderElector</text>
</g>
<!-- ZooKeeperLegacyScheduler&#45;&gt;ZooKeeperLeaderElector -->
<g id="edge4" class="edge">
<title>ZooKeeperLegacyScheduler&#45;&gt;ZooKeeperLeaderElector</title>
<path fill="none" stroke="#758297" d="M467.54,-127.54C520.87,-109.31 602.44,-81.45 659.17,-62.07"/>
<polygon fill="#758297" stroke="#758297" points="660.04,-65.46 668.38,-58.92 657.78,-58.84 660.04,-65.46"/>
<text xml:space="preserve" text-anchor="middle" x="572.38" y="-101.85" font-family="Comic Mono" font-size="10.00">delegates</text>
</g>
<!-- Legacy scheduled job -->
<g id="node9" class="node">
<title>Legacy scheduled job</title>
<path fill="#f8fafc" stroke="#94a3b8" d="M795.75,-247C795.75,-247 653.75,-247 653.75,-247 647.75,-247 641.75,-241 641.75,-235 641.75,-235 641.75,-223 641.75,-223 641.75,-217 647.75,-211 653.75,-211 653.75,-211 795.75,-211 795.75,-211 801.75,-211 807.75,-217 807.75,-223 807.75,-223 807.75,-235 807.75,-235 807.75,-241 801.75,-247 795.75,-247"/>
<text xml:space="preserve" text-anchor="middle" x="724.75" y="-223.57" font-family="Comic Mono" font-size="14.00">Legacy scheduled job</text>
</g>
<!-- ZooKeeperLegacyScheduler&#45;&gt;Legacy scheduled job -->
<g id="edge8" class="edge">
<title>ZooKeeperLegacyScheduler&#45;&gt;Legacy scheduled job</title>
<path fill="none" stroke="#758297" d="M482.35,-164.42C530.07,-177.19 593.75,-194.22 643.73,-207.59"/>
<polygon fill="#758297" stroke="#758297" points="642.79,-210.96 653.36,-210.17 644.6,-204.2 642.79,-210.96"/>
<text xml:space="preserve" text-anchor="middle" x="572.38" y="-197.43" font-family="Comic Mono" font-size="10.00">leader only</text>
</g>
<!-- ZooKeeperSchedulerConfig -->
<g id="node4" class="node">
<title>ZooKeeperSchedulerConfig</title>
<path fill="#f8fafc" stroke="#94a3b8" d="M184,-81C184,-81 12,-81 12,-81 6,-81 0,-75 0,-69 0,-69 0,-57 0,-57 0,-51 6,-45 12,-45 12,-45 184,-45 184,-45 190,-45 196,-51 196,-57 196,-57 196,-69 196,-69 196,-75 190,-81 184,-81"/>
<text xml:space="preserve" text-anchor="middle" x="98" y="-57.58" font-family="Comic Mono" font-size="14.00">ZooKeeperSchedulerConfig</text>
</g>
<!-- ZooKeeperSchedulerConfig&#45;&gt;ZooKeeperLegacyScheduler -->
<g id="edge3" class="edge">
<title>ZooKeeperSchedulerConfig&#45;&gt;ZooKeeperLegacyScheduler</title>
<path fill="none" stroke="#758297" d="M168.35,-81.42C216.52,-94.21 280.83,-111.29 331.22,-124.68"/>
<polygon fill="#758297" stroke="#758297" points="330.04,-127.99 340.61,-127.17 331.84,-121.22 330.04,-127.99"/>
<text xml:space="preserve" text-anchor="middle" x="255.25" y="-111.97" font-family="Comic Mono" font-size="10.00">configures</text>
</g>
<!-- ZooKeeper / Curator -->
<g id="node8" class="node">
<title>ZooKeeper / Curator</title>
<path fill="#f8fafc" stroke="#94a3b8" d="M1090.75,-58C1090.75,-58 956.25,-58 956.25,-58 950.25,-58 944.25,-52 944.25,-46 944.25,-46 944.25,-34 944.25,-34 944.25,-28 950.25,-22 956.25,-22 956.25,-22 1090.75,-22 1090.75,-22 1096.75,-22 1102.75,-28 1102.75,-34 1102.75,-34 1102.75,-46 1102.75,-46 1102.75,-52 1096.75,-58 1090.75,-58"/>
<text xml:space="preserve" text-anchor="middle" x="1023.5" y="-34.58" font-family="Comic Mono" font-size="14.00">ZooKeeper / Curator</text>
</g>
<!-- ZooKeeperLeaderElector&#45;&gt;ZooKeeper / Curator -->
<g id="edge6" class="edge">
<title>ZooKeeperLeaderElector&#45;&gt;ZooKeeper / Curator</title>
<path fill="none" stroke="#758297" d="M815.59,-40C852.69,-40 895.61,-40 932.71,-40"/>
<polygon fill="#758297" stroke="#758297" points="932.51,-43.5 942.51,-40 932.51,-36.5 932.51,-43.5"/>
<text xml:space="preserve" text-anchor="middle" x="879.75" y="-42.5" font-family="Comic Mono" font-size="10.00">Curator lock</text>
</g>
<!-- LeaderElectionOptions -->
<g id="node7" class="node">
<title>LeaderElectionOptions</title>
<path fill="#f8fafc" stroke="#94a3b8" d="M487.25,-36C487.25,-36 337.75,-36 337.75,-36 331.75,-36 325.75,-30 325.75,-24 325.75,-24 325.75,-12 325.75,-12 325.75,-6 331.75,0 337.75,0 337.75,0 487.25,0 487.25,0 493.25,0 499.25,-6 499.25,-12 499.25,-12 499.25,-24 499.25,-24 499.25,-30 493.25,-36 487.25,-36"/>
<text xml:space="preserve" text-anchor="middle" x="412.5" y="-12.57" font-family="Comic Mono" font-size="14.00">LeaderElectionOptions</text>
</g>
<!-- LeaderElectionOptions&#45;&gt;ZooKeeperLeaderElector -->
<g id="edge5" class="edge">
<title>LeaderElectionOptions&#45;&gt;ZooKeeperLeaderElector</title>
<path fill="none" stroke="#758297" d="M499.66,-13.21C531.63,-12.45 568.16,-12.79 601.25,-16 610.55,-16.9 620.2,-18.18 629.8,-19.69"/>
<polygon fill="#758297" stroke="#758297" points="629.11,-23.12 639.55,-21.3 630.25,-16.21 629.11,-23.12"/>
<text xml:space="preserve" text-anchor="middle" x="572.38" y="-18.5" font-family="Comic Mono" font-size="10.00">options</text>
</g>
</g>
</svg>
