<svg xmlns="http://www.w3.org/2000/svg" width="1280" height="590" viewBox="0 0 1280 590" role="img" aria-label="Cache Warmer Architecture">
  <metadata id="graphviz-evidence">Regenerated with Graphviz evidence: examples-cache-warmer-architecture-01.dot, examples-cache-warmer-architecture-01.plain, examples-cache-warmer-architecture-01-graphviz.svg via scripts/regenerate-readme-diagram-graphviz-evidence.mjs.</metadata>
<defs>
  <filter id="shadow" x="-8%" y="-8%" width="116%" height="116%"><feDropShadow dx="0" dy="8" stdDeviation="9" flood-color="#1f2937" flood-opacity="0.10"/></filter>
  <marker id="openArrow" markerWidth="12" markerHeight="10" refX="10" refY="5" orient="auto" markerUnits="strokeWidth"><path d="M 1 1 L 10 5 L 1 9" fill="none" stroke="#758297" stroke-width="1.8" stroke-linecap="round" stroke-linejoin="round"/></marker>
  <style>
    .canvas{fill:#f7f9fc}.frame{fill:#fff;stroke:#d8e0ea;stroke-width:1.5}
    .title{font-family:"Architects Daughter","Comic Mono","Comic Sans MS","Comic Sans",cursive;font-size:43px;font-weight:400;fill:#102033}
    .subtitle{font-family:"Comic Mono","Comic Sans MS","Comic Sans","Comic Neue",Arial,sans-serif;font-size:15px;font-weight:400;fill:#536273}
    .smallLabel{font-family:"Architects Daughter","Comic Mono","Comic Sans MS","Comic Sans",cursive;font-size:21px;font-weight:400;fill:#102033}
    .mono{font-family:"Comic Mono","Comic Sans MS","Comic Sans","Comic Neue",Arial,sans-serif;font-size:12px;font-weight:400;fill:#102033}
    .strong{font-family:"Comic Mono","Comic Sans MS","Comic Sans","Comic Neue",Arial,sans-serif;font-size:13px;font-weight:400;fill:#102033}
    .card{stroke-width:2.1;filter:url(#shadow)}
    .line{stroke:#758297;stroke-width:2.1;fill:none;marker-end:url(#openArrow)}
    .dashed{stroke:#758297;stroke-width:2.1;stroke-dasharray:7 6;fill:none;marker-end:url(#openArrow)}
    .lifeline{stroke:#b7c2d1;stroke-width:2;stroke-dasharray:10 10}
  </style>
</defs>
<rect class="canvas" width="1280" height="590"/>
<rect class="frame" x="32" y="28" width="1216" height="534" rx="28"/>
<text class="title" x="66" y="82">Cache Warmer Architecture</text>
<text class="subtitle" x="70" y="118">Every cache partition gets its own leader lock so warming can be distributed safely</text>
<path class="line" d="M300 196 L330 196 L330 271 L360 271"/>
<path class="line" d="M300 346 L330 346 L330 271 L360 271"/>
<path class="line" d="M590 271 L620 271 L620 271 L650 271"/>
<path class="line" d="M880 271 L910 271 L910 271 L940 271"/>
<g id="warmerA" transform="translate(70,150)">
  <rect class="card" x="0" y="0" width="230" height="92" rx="14" fill="#E8F3FF" stroke="#5B8DEF"/>
  <text class="smallLabel" x="115" y="28" text-anchor="middle">Warmer node-A</text>
  <text class="mono" x="115" y="53" text-anchor="middle">warmAll</text>
  <text class="mono" x="115" y="70" text-anchor="middle">sequential partitions</text>
</g>
<g id="warmerB" transform="translate(70,300)">
  <rect class="card" x="0" y="0" width="230" height="92" rx="14" fill="#EAF7EF" stroke="#58A978"/>
  <text class="smallLabel" x="115" y="28" text-anchor="middle">Warmer node-B</text>
  <text class="mono" x="115" y="53" text-anchor="middle">warmAll</text>
  <text class="mono" x="115" y="70" text-anchor="middle">skip non-leader</text>
</g>
<g id="factory" transform="translate(360,225)">
  <rect class="card" x="0" y="0" width="230" height="92" rx="14" fill="#FFF3D9" stroke="#D6A441"/>
  <text class="smallLabel" x="115" y="28" text-anchor="middle">Elector factory</text>
  <text class="mono" x="115" y="53" text-anchor="middle">Hazelcast/Redis/Mongo</text>
  <text class="mono" x="115" y="70" text-anchor="middle">backend swap</text>
</g>
<g id="locks" transform="translate(650,225)">
  <rect class="card" x="0" y="0" width="230" height="92" rx="14" fill="#FDECEF" stroke="#DC6B82"/>
  <text class="smallLabel" x="115" y="28" text-anchor="middle">Partition locks</text>
  <text class="mono" x="115" y="53" text-anchor="middle">prefix-region-asia</text>
  <text class="mono" x="115" y="70" text-anchor="middle">prefix-region-eu</text>
</g>
<g id="cache" transform="translate(940,225)">
  <rect class="card" x="0" y="0" width="230" height="92" rx="14" fill="#E9F7F6" stroke="#45A7A1"/>
  <text class="smallLabel" x="115" y="28" text-anchor="middle">Cache partitions</text>
  <text class="mono" x="115" y="53" text-anchor="middle">warmFunction</text>
  <text class="mono" x="115" y="70" text-anchor="middle">failure isolation</text>
</g>
</svg>
