<?xml version="1.0" encoding="UTF-8" standalone="no"?>
<!DOCTYPE svg PUBLIC "-//W3C//DTD SVG 1.1//EN"
 "http://www.w3.org/Graphics/SVG/1.1/DTD/svg11.dtd">
<!-- Generated by graphviz version 15.0.0 (20260523.1842)
 -->
<!-- Title: examples&#45;webhook&#45;poller&#45;flow&#45;01 Pages: 1 -->
<svg width="1652pt" height="127pt"
 viewBox="0.00 0.00 1652.00 127.00" xmlns="http://www.w3.org/2000/svg" xmlns:xlink="http://www.w3.org/1999/xlink">
<g id="graph0" class="graph" transform="scale(1 1) rotate(0) translate(4 123)">
<title>examples&#45;webhook&#45;poller&#45;flow&#45;01</title>
<!-- start -->
<g id="node1" class="node">
<title>start</title>
<path fill="#f8fafc" stroke="#94a3b8" d="M71.5,-68C71.5,-68 12,-68 12,-68 6,-68 0,-62 0,-56 0,-56 0,-44 0,-44 0,-38 6,-32 12,-32 12,-32 71.5,-32 71.5,-32 77.5,-32 83.5,-38 83.5,-44 83.5,-44 83.5,-56 83.5,-56 83.5,-62 77.5,-68 71.5,-68"/>
<text xml:space="preserve" text-anchor="middle" x="41.75" y="-44.58" font-family="Comic Mono" font-size="14.00">Poll Loop</text>
</g>
<!-- validate -->
<g id="node2" class="node">
<title>validate</title>
<path fill="#f8fafc" stroke="#94a3b8" d="M347,-68C347,-68 182.5,-68 182.5,-68 176.5,-68 170.5,-62 170.5,-56 170.5,-56 170.5,-44 170.5,-44 170.5,-38 176.5,-32 182.5,-32 182.5,-32 347,-32 347,-32 353,-32 359,-38 359,-44 359,-44 359,-56 359,-56 359,-62 353,-68 347,-68"/>
<text xml:space="preserve" text-anchor="middle" x="264.75" y="-44.58" font-family="Comic Mono" font-size="14.00">Validate Example Inputs</text>
</g>
<!-- start&#45;&gt;validate -->
<g id="edge1" class="edge">
<title>start&#45;&gt;validate</title>
<path fill="none" stroke="#758297" d="M83.96,-50C83.96,-50 158.52,-50 158.52,-50"/>
<polygon fill="#758297" stroke="#758297" points="158.52,-53.5 168.52,-50 158.52,-46.5 158.52,-53.5"/>
<text xml:space="preserve" text-anchor="middle" x="127" y="-52.5" font-family="Comic Mono" font-size="10.00">call</text>
</g>
<!-- attempt -->
<g id="node3" class="node">
<title>attempt</title>
<path fill="#f8fafc" stroke="#94a3b8" d="M631.5,-68C631.5,-68 489.5,-68 489.5,-68 483.5,-68 477.5,-62 477.5,-56 477.5,-56 477.5,-44 477.5,-44 477.5,-38 483.5,-32 489.5,-32 489.5,-32 631.5,-32 631.5,-32 637.5,-32 643.5,-38 643.5,-44 643.5,-44 643.5,-56 643.5,-56 643.5,-62 637.5,-68 631.5,-68"/>
<text xml:space="preserve" text-anchor="middle" x="560.5" y="-44.58" font-family="Comic Mono" font-size="14.00">Mongo leader elector</text>
</g>
<!-- validate&#45;&gt;attempt -->
<g id="edge2" class="edge">
<title>validate&#45;&gt;attempt</title>
<path fill="none" stroke="#758297" d="M359.14,-50C359.14,-50 465.96,-50 465.96,-50"/>
<polygon fill="#758297" stroke="#758297" points="465.96,-53.5 475.96,-50 465.96,-46.5 465.96,-53.5"/>
<text xml:space="preserve" text-anchor="middle" x="418.25" y="-52.5" font-family="Comic Mono" font-size="10.00">dependency</text>
</g>
<!-- decision -->
<g id="node4" class="node">
<title>decision</title>
<path fill="#f8fafc" stroke="#94a3b8" d="M893.5,-68C893.5,-68 774,-68 774,-68 768,-68 762,-62 762,-56 762,-56 762,-44 762,-44 762,-38 768,-32 774,-32 774,-32 893.5,-32 893.5,-32 899.5,-32 905.5,-38 905.5,-44 905.5,-44 905.5,-56 905.5,-56 905.5,-62 899.5,-68 893.5,-68"/>
<text xml:space="preserve" text-anchor="middle" x="833.75" y="-44.58" font-family="Comic Mono" font-size="14.00">Leadership Result</text>
</g>
<!-- attempt&#45;&gt;decision -->
<g id="edge3" class="edge">
<title>attempt&#45;&gt;decision</title>
<path fill="none" stroke="#758297" d="M643.97,-50C643.97,-50 750.35,-50 750.35,-50"/>
<polygon fill="#758297" stroke="#758297" points="750.35,-53.5 760.35,-50 750.35,-46.5 750.35,-53.5"/>
<text xml:space="preserve" text-anchor="middle" x="702.75" y="-52.5" font-family="Comic Mono" font-size="10.00">contention</text>
</g>
<!-- execute -->
<g id="node6" class="node">
<title>execute</title>
<path fill="#f8fafc" stroke="#94a3b8" d="M1154.75,-119C1154.75,-119 1020.25,-119 1020.25,-119 1014.25,-119 1008.25,-113 1008.25,-107 1008.25,-107 1008.25,-95 1008.25,-95 1008.25,-89 1014.25,-83 1020.25,-83 1020.25,-83 1154.75,-83 1154.75,-83 1160.75,-83 1166.75,-89 1166.75,-95 1166.75,-95 1166.75,-107 1166.75,-107 1166.75,-113 1160.75,-119 1154.75,-119"/>
<text xml:space="preserve" text-anchor="middle" x="1087.5" y="-95.58" font-family="Comic Mono" font-size="14.00">Claim Webhook Event</text>
</g>
<!-- decision&#45;&gt;execute -->
<g id="edge4" class="edge">
<title>decision&#45;&gt;execute</title>
<path fill="none" stroke="#758297" d="M905.75,-57.33C957.16,-57.33 1017.25,-57.33 1017.25,-57.33 1017.25,-57.33 1017.25,-71.22 1017.25,-71.22"/>
<polygon fill="#758297" stroke="#758297" points="1013.75,-71.22 1017.25,-81.22 1020.75,-71.22 1013.75,-71.22"/>
<text xml:space="preserve" text-anchor="middle" x="956.88" y="-93.5" font-family="Comic Mono" font-size="10.00">success</text>
</g>
<!-- skipped -->
<g id="node8" class="node">
<title>skipped</title>
<path fill="#f8fafc" stroke="#94a3b8" d="M1136,-36C1136,-36 1039,-36 1039,-36 1033,-36 1027,-30 1027,-24 1027,-24 1027,-12 1027,-12 1027,-6 1033,0 1039,0 1039,0 1136,0 1136,0 1142,0 1148,-6 1148,-12 1148,-12 1148,-24 1148,-24 1148,-30 1142,-36 1136,-36"/>
<text xml:space="preserve" text-anchor="middle" x="1087.5" y="-12.57" font-family="Comic Mono" font-size="14.00">Return Skipped</text>
</g>
<!-- decision&#45;&gt;skipped -->
<g id="edge7" class="edge">
<title>decision&#45;&gt;skipped</title>
<path fill="none" stroke="#758297" d="M905.71,-46.67C980.66,-46.67 1087.25,-46.67 1087.25,-46.67 1087.25,-46.67 1087.25,-45.63 1087.25,-45.63"/>
<polygon fill="#758297" stroke="#758297" points="1090.75,-47.83 1087.25,-37.83 1083.75,-47.83 1090.75,-47.83"/>
<text xml:space="preserve" text-anchor="middle" x="956.88" y="-20.5" font-family="Comic Mono" font-size="10.00">skip</text>
</g>
<!-- release -->
<g id="node5" class="node">
<title>release</title>
<path fill="#f8fafc" stroke="#94a3b8" d="M1401,-119C1401,-119 1281.5,-119 1281.5,-119 1275.5,-119 1269.5,-113 1269.5,-107 1269.5,-107 1269.5,-95 1269.5,-95 1269.5,-89 1275.5,-83 1281.5,-83 1281.5,-83 1401,-83 1401,-83 1407,-83 1413,-89 1413,-95 1413,-95 1413,-107 1413,-107 1413,-113 1407,-119 1401,-119"/>
<text xml:space="preserve" text-anchor="middle" x="1341.25" y="-95.58" font-family="Comic Mono" font-size="14.00">Release Or Extend</text>
</g>
<!-- executed -->
<g id="node7" class="node">
<title>executed</title>
<path fill="#f8fafc" stroke="#94a3b8" d="M1632.25,-119C1632.25,-119 1527.75,-119 1527.75,-119 1521.75,-119 1515.75,-113 1515.75,-107 1515.75,-107 1515.75,-95 1515.75,-95 1515.75,-89 1521.75,-83 1527.75,-83 1527.75,-83 1632.25,-83 1632.25,-83 1638.25,-83 1644.25,-89 1644.25,-95 1644.25,-95 1644.25,-107 1644.25,-107 1644.25,-113 1638.25,-119 1632.25,-119"/>
<text xml:space="preserve" text-anchor="middle" x="1580" y="-95.58" font-family="Comic Mono" font-size="14.00">Return Executed</text>
</g>
<!-- release&#45;&gt;executed -->
<g id="edge6" class="edge">
<title>release&#45;&gt;executed</title>
<path fill="none" stroke="#758297" d="M1413.21,-101C1413.21,-101 1503.98,-101 1503.98,-101"/>
<polygon fill="#758297" stroke="#758297" points="1503.98,-104.5 1513.98,-101 1503.98,-97.5 1503.98,-104.5"/>
<text xml:space="preserve" text-anchor="middle" x="1464.38" y="-103.5" font-family="Comic Mono" font-size="10.00">success</text>
</g>
<!-- execute&#45;&gt;release -->
<g id="edge5" class="edge">
<title>execute&#45;&gt;release</title>
<path fill="none" stroke="#758297" d="M1167.09,-101C1167.09,-101 1257.74,-101 1257.74,-101"/>
<polygon fill="#758297" stroke="#758297" points="1257.74,-104.5 1267.74,-101 1257.74,-97.5 1257.74,-104.5"/>
<text xml:space="preserve" text-anchor="middle" x="1218.12" y="-103.5" font-family="Comic Mono" font-size="10.00">release</text>
</g>
</g>
</svg>
