<?xml version="1.0" encoding="UTF-8" standalone="no"?>
<!DOCTYPE svg PUBLIC "-//W3C//DTD SVG 1.1//EN"
 "http://www.w3.org/Graphics/SVG/1.1/DTD/svg11.dtd">
<!-- Generated by graphviz version 15.0.0 (20260523.1842)
 -->
<!-- Title: examples&#45;virtual&#45;thread&#45;runner&#45;flow&#45;01 Pages: 1 -->
<svg width="1780pt" height="127pt"
 viewBox="0.00 0.00 1780.00 127.00" xmlns="http://www.w3.org/2000/svg" xmlns:xlink="http://www.w3.org/1999/xlink">
<g id="graph0" class="graph" transform="scale(1 1) rotate(0) translate(4 123)">
<title>examples&#45;virtual&#45;thread&#45;runner&#45;flow&#45;01</title>
<!-- start -->
<g id="node1" class="node">
<title>start</title>
<path fill="#f8fafc" stroke="#94a3b8" d="M161.5,-68C161.5,-68 12,-68 12,-68 6,-68 0,-62 0,-56 0,-56 0,-44 0,-44 0,-38 6,-32 12,-32 12,-32 161.5,-32 161.5,-32 167.5,-32 173.5,-38 173.5,-44 173.5,-44 173.5,-56 173.5,-56 173.5,-62 167.5,-68 161.5,-68"/>
<text xml:space="preserve" text-anchor="middle" x="86.75" y="-44.58" font-family="Comic Mono" font-size="14.00">Blocking Task Trigger</text>
</g>
<!-- validate -->
<g id="node2" class="node">
<title>validate</title>
<path fill="#f8fafc" stroke="#94a3b8" d="M437,-68C437,-68 272.5,-68 272.5,-68 266.5,-68 260.5,-62 260.5,-56 260.5,-56 260.5,-44 260.5,-44 260.5,-38 266.5,-32 272.5,-32 272.5,-32 437,-32 437,-32 443,-32 449,-38 449,-44 449,-44 449,-56 449,-56 449,-62 443,-68 437,-68"/>
<text xml:space="preserve" text-anchor="middle" x="354.75" y="-44.58" font-family="Comic Mono" font-size="14.00">Validate Example Inputs</text>
</g>
<!-- start&#45;&gt;validate -->
<g id="edge1" class="edge">
<title>start&#45;&gt;validate</title>
<path fill="none" stroke="#758297" d="M173.76,-50C173.76,-50 248.8,-50 248.8,-50"/>
<polygon fill="#758297" stroke="#758297" points="248.8,-53.5 258.8,-50 248.8,-46.5 248.8,-53.5"/>
<text xml:space="preserve" text-anchor="middle" x="217" y="-52.5" font-family="Comic Mono" font-size="10.00">call</text>
</g>
<!-- attempt -->
<g id="node3" class="node">
<title>attempt</title>
<path fill="#f8fafc" stroke="#94a3b8" d="M766.5,-68C766.5,-68 579.5,-68 579.5,-68 573.5,-68 567.5,-62 567.5,-56 567.5,-56 567.5,-44 567.5,-44 567.5,-38 573.5,-32 579.5,-32 579.5,-32 766.5,-32 766.5,-32 772.5,-32 778.5,-38 778.5,-44 778.5,-44 778.5,-56 778.5,-56 778.5,-62 772.5,-68 766.5,-68"/>
<text xml:space="preserve" text-anchor="middle" x="673" y="-44.58" font-family="Comic Mono" font-size="14.00">VirtualThreadLeaderElector</text>
</g>
<!-- validate&#45;&gt;attempt -->
<g id="edge2" class="edge">
<title>validate&#45;&gt;attempt</title>
<path fill="none" stroke="#758297" d="M449.37,-50C449.37,-50 555.52,-50 555.52,-50"/>
<polygon fill="#758297" stroke="#758297" points="555.52,-53.5 565.52,-50 555.52,-46.5 555.52,-53.5"/>
<text xml:space="preserve" text-anchor="middle" x="508.25" y="-52.5" font-family="Comic Mono" font-size="10.00">dependency</text>
</g>
<!-- decision -->
<g id="node4" class="node">
<title>decision</title>
<path fill="#f8fafc" stroke="#94a3b8" d="M1028.5,-68C1028.5,-68 909,-68 909,-68 903,-68 897,-62 897,-56 897,-56 897,-44 897,-44 897,-38 903,-32 909,-32 909,-32 1028.5,-32 1028.5,-32 1034.5,-32 1040.5,-38 1040.5,-44 1040.5,-44 1040.5,-56 1040.5,-56 1040.5,-62 1034.5,-68 1028.5,-68"/>
<text xml:space="preserve" text-anchor="middle" x="968.75" y="-44.58" font-family="Comic Mono" font-size="14.00">Leadership Result</text>
</g>
<!-- attempt&#45;&gt;decision -->
<g id="edge3" class="edge">
<title>attempt&#45;&gt;decision</title>
<path fill="none" stroke="#758297" d="M778.94,-50C778.94,-50 885.33,-50 885.33,-50"/>
<polygon fill="#758297" stroke="#758297" points="885.33,-53.5 895.33,-50 885.33,-46.5 885.33,-53.5"/>
<text xml:space="preserve" text-anchor="middle" x="837.75" y="-52.5" font-family="Comic Mono" font-size="10.00">contention</text>
</g>
<!-- execute -->
<g id="node6" class="node">
<title>execute</title>
<path fill="#f8fafc" stroke="#94a3b8" d="M1282.25,-119C1282.25,-119 1155.25,-119 1155.25,-119 1149.25,-119 1143.25,-113 1143.25,-107 1143.25,-107 1143.25,-95 1143.25,-95 1143.25,-89 1149.25,-83 1155.25,-83 1155.25,-83 1282.25,-83 1282.25,-83 1288.25,-83 1294.25,-89 1294.25,-95 1294.25,-95 1294.25,-107 1294.25,-107 1294.25,-113 1288.25,-119 1282.25,-119"/>
<text xml:space="preserve" text-anchor="middle" x="1218.75" y="-95.58" font-family="Comic Mono" font-size="14.00">Blocking Task Body</text>
</g>
<!-- decision&#45;&gt;execute -->
<g id="edge4" class="edge">
<title>decision&#45;&gt;execute</title>
<path fill="none" stroke="#758297" d="M1040.94,-57.33C1091.76,-57.33 1150.75,-57.33 1150.75,-57.33 1150.75,-57.33 1150.75,-71.22 1150.75,-71.22"/>
<polygon fill="#758297" stroke="#758297" points="1147.25,-71.22 1150.75,-81.22 1154.25,-71.22 1147.25,-71.22"/>
<text xml:space="preserve" text-anchor="middle" x="1091.88" y="-93.5" font-family="Comic Mono" font-size="10.00">success</text>
</g>
<!-- skipped -->
<g id="node8" class="node">
<title>skipped</title>
<path fill="#f8fafc" stroke="#94a3b8" d="M1267.25,-36C1267.25,-36 1170.25,-36 1170.25,-36 1164.25,-36 1158.25,-30 1158.25,-24 1158.25,-24 1158.25,-12 1158.25,-12 1158.25,-6 1164.25,0 1170.25,0 1170.25,0 1267.25,0 1267.25,0 1273.25,0 1279.25,-6 1279.25,-12 1279.25,-12 1279.25,-24 1279.25,-24 1279.25,-30 1273.25,-36 1267.25,-36"/>
<text xml:space="preserve" text-anchor="middle" x="1218.75" y="-12.57" font-family="Comic Mono" font-size="14.00">Return Skipped</text>
</g>
<!-- decision&#45;&gt;skipped -->
<g id="edge7" class="edge">
<title>decision&#45;&gt;skipped</title>
<path fill="none" stroke="#758297" d="M1040.72,-46.67C1114.58,-46.67 1218.75,-46.67 1218.75,-46.67 1218.75,-46.67 1218.75,-45.63 1218.75,-45.63"/>
<polygon fill="#758297" stroke="#758297" points="1222.25,-47.83 1218.75,-37.83 1215.25,-47.83 1222.25,-47.83"/>
<text xml:space="preserve" text-anchor="middle" x="1091.88" y="-20.5" font-family="Comic Mono" font-size="10.00">skip</text>
</g>
<!-- release -->
<g id="node5" class="node">
<title>release</title>
<path fill="#f8fafc" stroke="#94a3b8" d="M1528.5,-119C1528.5,-119 1409,-119 1409,-119 1403,-119 1397,-113 1397,-107 1397,-107 1397,-95 1397,-95 1397,-89 1403,-83 1409,-83 1409,-83 1528.5,-83 1528.5,-83 1534.5,-83 1540.5,-89 1540.5,-95 1540.5,-95 1540.5,-107 1540.5,-107 1540.5,-113 1534.5,-119 1528.5,-119"/>
<text xml:space="preserve" text-anchor="middle" x="1468.75" y="-95.58" font-family="Comic Mono" font-size="14.00">Release Or Extend</text>
</g>
<!-- executed -->
<g id="node7" class="node">
<title>executed</title>
<path fill="#f8fafc" stroke="#94a3b8" d="M1759.75,-119C1759.75,-119 1655.25,-119 1655.25,-119 1649.25,-119 1643.25,-113 1643.25,-107 1643.25,-107 1643.25,-95 1643.25,-95 1643.25,-89 1649.25,-83 1655.25,-83 1655.25,-83 1759.75,-83 1759.75,-83 1765.75,-83 1771.75,-89 1771.75,-95 1771.75,-95 1771.75,-107 1771.75,-107 1771.75,-113 1765.75,-119 1759.75,-119"/>
<text xml:space="preserve" text-anchor="middle" x="1707.5" y="-95.58" font-family="Comic Mono" font-size="14.00">Return Executed</text>
</g>
<!-- release&#45;&gt;executed -->
<g id="edge6" class="edge">
<title>release&#45;&gt;executed</title>
<path fill="none" stroke="#758297" d="M1540.71,-101C1540.71,-101 1631.48,-101 1631.48,-101"/>
<polygon fill="#758297" stroke="#758297" points="1631.48,-104.5 1641.48,-101 1631.48,-97.5 1631.48,-104.5"/>
<text xml:space="preserve" text-anchor="middle" x="1591.88" y="-103.5" font-family="Comic Mono" font-size="10.00">success</text>
</g>
<!-- execute&#45;&gt;release -->
<g id="edge5" class="edge">
<title>execute&#45;&gt;release</title>
<path fill="none" stroke="#758297" d="M1294.44,-101C1294.44,-101 1385.23,-101 1385.23,-101"/>
<polygon fill="#758297" stroke="#758297" points="1385.23,-104.5 1395.23,-101 1385.23,-97.5 1385.23,-104.5"/>
<text xml:space="preserve" text-anchor="middle" x="1345.62" y="-103.5" font-family="Comic Mono" font-size="10.00">release</text>
</g>
</g>
</svg>
