<?xml version="1.0" encoding="UTF-8" standalone="no"?>
<!DOCTYPE svg PUBLIC "-//W3C//DTD SVG 1.1//EN"
 "http://www.w3.org/Graphics/SVG/1.1/DTD/svg11.dtd">
<!-- Generated by graphviz version 15.0.0 (20260523.1842)
 -->
<!-- Title: leader&#45;micrometer&#45;architecture&#45;01 Pages: 1 -->
<svg width="1118pt" height="601pt"
 viewBox="0.00 0.00 1118.00 601.00" xmlns="http://www.w3.org/2000/svg" xmlns:xlink="http://www.w3.org/1999/xlink">
<g id="graph0" class="graph" transform="scale(1 1) rotate(0) translate(4 596.5)">
<title>leader&#45;micrometer&#45;architecture&#45;01</title>
<text xml:space="preserve" text-anchor="middle" x="554.98" y="-575.2" font-family="Times,serif" font-size="14.00">leader micrometer Architecture</text>
<!-- n0&#45;&gt;n1 -->
<g id="edge1" class="edge">
<title>n0&#45;&gt;n1</title>
<path fill="none" stroke="#758297" stroke-width="1.8" d="M300.63,-507C300.63,-507 369.11,-507 369.11,-507"/>
<polygon fill="#758297" stroke="#758297" stroke-width="1.8" points="369.11,-509.8 377.11,-507 369.11,-504.2 369.11,-509.8"/>
</g>
<!-- n1&#45;&gt;r3p1 -->
<g id="edge5" class="edge">
<title>n1&#45;&gt;r3p1</title>
<path fill="none" stroke="#758297" stroke-width="1.8" d="M540.12,-459.76C540.12,-437.35 540.12,-415.23 540.12,-409.45"/>
</g>
<!-- n2&#45;&gt;r2p1 -->
<g id="edge2" class="edge">
<title>n2&#45;&gt;r2p1</title>
<path fill="none" stroke="#758297" stroke-width="1.8" d="M950.12,-424.56C950.12,-413.87 950.12,-404.89 950.12,-401.48"/>
</g>
<!-- n3&#45;&gt;r4p1 -->
<g id="edge9" class="edge">
<title>n3&#45;&gt;r4p1</title>
<path fill="none" stroke="#758297" stroke-width="1.8" d="M890.12,-269.52C890.12,-217.48 890.12,-145.37 890.12,-134.42"/>
</g>
<!-- n4&#45;&gt;n5 -->
<g id="edge12" class="edge">
<title>n4&#45;&gt;n5</title>
<path fill="none" stroke="#758297" stroke-width="1.8" d="M300.63,-209C300.63,-209 369.11,-209 369.11,-209"/>
<polygon fill="#758297" stroke="#758297" stroke-width="1.8" points="369.11,-211.8 377.11,-209 369.11,-206.2 369.11,-211.8"/>
</g>
<!-- n5&#45;&gt;n6 -->
<g id="edge13" class="edge">
<title>n5&#45;&gt;n6</title>
<path fill="none" stroke="#758297" stroke-width="1.8" d="M499.66,-154.79C499.66,-154.79 499.66,-119.17 499.66,-119.17"/>
<polygon fill="#758297" stroke="#758297" stroke-width="1.8" points="502.46,-119.17 499.66,-111.17 496.86,-119.17 502.46,-119.17"/>
</g>
<!-- n6&#45;&gt;r7p1 -->
<g id="edge14" class="edge">
<title>n6&#45;&gt;r7p1</title>
<path fill="none" stroke="#758297" stroke-width="1.8" d="M700.39,-54C722.38,-54 739.11,-54 743.8,-54"/>
</g>
<!-- r2p1&#45;&gt;r2p2 -->
<g id="edge3" class="edge">
<title>r2p1&#45;&gt;r2p2</title>
<path fill="none" stroke="#758297" stroke-width="1.8" d="M948.64,-400C940.26,-400 899.01,-400 891.35,-400"/>
</g>
<!-- r2p2&#45;&gt;n3 -->
<g id="edge4" class="edge">
<title>r2p2&#45;&gt;n3</title>
<path fill="none" stroke="#758297" stroke-width="1.8" d="M890.12,-398.68C890.12,-398.68 890.12,-389.12 890.12,-389.12"/>
<polygon fill="#758297" stroke="#758297" stroke-width="1.8" points="892.92,-389.12 890.12,-381.12 887.32,-389.12 892.92,-389.12"/>
</g>
<!-- r3p1&#45;&gt;r3p2 -->
<g id="edge6" class="edge">
<title>r3p1&#45;&gt;r3p2</title>
<path fill="none" stroke="#758297" stroke-width="1.8" d="M538.72,-408C520.86,-408 338.46,-408 321.4,-408"/>
</g>
<!-- r3p2&#45;&gt;r3p3 -->
<g id="edge7" class="edge">
<title>r3p2&#45;&gt;r3p3</title>
<path fill="none" stroke="#758297" stroke-width="1.8" d="M320.12,-406.42C320.12,-381.88 320.12,-79.08 320.12,-55.46"/>
</g>
<!-- r3p3&#45;&gt;n6 -->
<g id="edge8" class="edge">
<title>r3p3&#45;&gt;n6</title>
<path fill="none" stroke="#758297" stroke-width="1.8" d="M321.52,-54C321.52,-54 369.25,-54 369.25,-54"/>
<polygon fill="#758297" stroke="#758297" stroke-width="1.8" points="369.25,-56.8 377.25,-54 369.25,-51.2 369.25,-56.8"/>
</g>
<!-- r4p1&#45;&gt;r4p2 -->
<g id="edge10" class="edge">
<title>r4p1&#45;&gt;r4p2</title>
<path fill="none" stroke="#758297" stroke-width="1.8" d="M888.67,-133C868.25,-133 639.1,-133 621.22,-133"/>
</g>
<!-- r4p2&#45;&gt;n6 -->
<g id="edge11" class="edge">
<title>r4p2&#45;&gt;n6</title>
<path fill="none" stroke="#758297" stroke-width="1.8" d="M620.12,-131.63C620.12,-131.63 620.12,-118.9 620.12,-118.9"/>
<polygon fill="#758297" stroke="#758297" stroke-width="1.8" points="622.92,-118.9 620.12,-110.9 617.32,-118.9 622.92,-118.9"/>
</g>
<!-- r7p1&#45;&gt;r7p2 -->
<g id="edge15" class="edge">
<title>r7p1&#45;&gt;r7p2</title>
<path fill="none" stroke="#758297" stroke-width="1.8" d="M745.12,-55.56C745.12,-57.5 745.12,-60.76 745.12,-62.61"/>
</g>
<!-- r7p2&#45;&gt;n7 -->
<g id="edge16" class="edge">
<title>r7p2&#45;&gt;n7</title>
<path fill="none" stroke="#758297" stroke-width="1.8" d="M746.43,-64C746.43,-64 779.17,-64 779.17,-64"/>
<polygon fill="#758297" stroke="#758297" stroke-width="1.8" points="779.17,-66.8 787.17,-64 779.17,-61.2 779.17,-66.8"/>
</g>
<!-- n0 -->
<g id="node1" class="node">
<title>n0</title>
<path fill="#ffffff" stroke="#5b8def" d="M288.24,-553C288.24,-553 12,-553 12,-553 6,-553 0,-547 0,-541 0,-541 0,-457 0,-457 0,-451 6,-445 12,-445 12,-445 288.24,-445 288.24,-445 294.24,-445 300.24,-451 300.24,-457 300.24,-457 300.24,-541 300.24,-541 300.24,-547 294.24,-553 288.24,-553"/>
<text xml:space="preserve" text-anchor="middle" x="150.12" y="-494.65" font-family="Architects Daughter" font-size="18.00">@LeaderElection</text>
</g>
<!-- n1 -->
<g id="node2" class="node">
<title>n1</title>
<path fill="#ffffff" stroke="#58a978" d="M687.96,-568C687.96,-568 392.28,-568 392.28,-568 386.28,-568 380.28,-562 380.28,-556 380.28,-556 380.28,-472 380.28,-472 380.28,-466 386.28,-460 392.28,-460 392.28,-460 687.96,-460 687.96,-460 693.96,-460 699.96,-466 699.96,-472 699.96,-472 699.96,-556 699.96,-556 699.96,-562 693.96,-568 687.96,-568"/>
<text xml:space="preserve" text-anchor="middle" x="540.12" y="-509.65" font-family="Architects Daughter" font-size="18.00">Micrometer Leader</text>
</g>
<!-- n2 -->
<g id="node3" class="node">
<title>n2</title>
<path fill="#ffffff" stroke="#d6a441" d="M1088.24,-533C1088.24,-533 812,-533 812,-533 806,-533 800,-527 800,-521 800,-521 800,-437 800,-437 800,-431 806,-425 812,-425 812,-425 1088.24,-425 1088.24,-425 1094.24,-425 1100.24,-431 1100.24,-437 1100.24,-437 1100.24,-521 1100.24,-521 1100.24,-527 1094.24,-533 1088.24,-533"/>
<text xml:space="preserve" text-anchor="middle" x="950.12" y="-474.65" font-family="Architects Daughter" font-size="18.00">Direct elector calls</text>
</g>
<!-- n3 -->
<g id="node4" class="node">
<title>n3</title>
<path fill="#ffffff" stroke="#dc6b82" d="M1037.96,-378C1037.96,-378 742.28,-378 742.28,-378 736.28,-378 730.28,-372 730.28,-366 730.28,-366 730.28,-282 730.28,-282 730.28,-276 736.28,-270 742.28,-270 742.28,-270 1037.96,-270 1037.96,-270 1043.96,-270 1049.96,-276 1049.96,-282 1049.96,-282 1049.96,-366 1049.96,-366 1049.96,-372 1043.96,-378 1037.96,-378"/>
<text xml:space="preserve" text-anchor="middle" x="890.12" y="-319.65" font-family="Architects Daughter" font-size="18.00">Instrumented*Elector</text>
</g>
<!-- n4 -->
<g id="node5" class="node">
<title>n4</title>
<path fill="#ffffff" stroke="#45a7a1" d="M288.24,-263C288.24,-263 12,-263 12,-263 6,-263 0,-257 0,-251 0,-251 0,-167 0,-167 0,-161 6,-155 12,-155 12,-155 288.24,-155 288.24,-155 294.24,-155 300.24,-161 300.24,-167 300.24,-167 300.24,-251 300.24,-251 300.24,-257 294.24,-263 288.24,-263"/>
<text xml:space="preserve" text-anchor="middle" x="150.12" y="-204.65" font-family="Architects Daughter" font-size="18.00">Leader Election</text>
</g>
<!-- n5 -->
<g id="node6" class="node">
<title>n5</title>
<path fill="#ffffff" stroke="#8a72d6" d="M687.96,-263C687.96,-263 392.28,-263 392.28,-263 386.28,-263 380.28,-257 380.28,-251 380.28,-251 380.28,-167 380.28,-167 380.28,-161 386.28,-155 392.28,-155 392.28,-155 687.96,-155 687.96,-155 693.96,-155 699.96,-161 699.96,-167 699.96,-167 699.96,-251 699.96,-251 699.96,-257 693.96,-263 687.96,-263"/>
<text xml:space="preserve" text-anchor="middle" x="540.12" y="-204.65" font-family="Architects Daughter" font-size="18.00">Micrometer Leader</text>
</g>
<!-- n6 -->
<g id="node7" class="node">
<title>n6</title>
<path fill="#ffffff" stroke="#b88a44" d="M687.96,-108C687.96,-108 392.28,-108 392.28,-108 386.28,-108 380.28,-102 380.28,-96 380.28,-96 380.28,-12 380.28,-12 380.28,-6 386.28,0 392.28,0 392.28,0 687.96,0 687.96,0 693.96,0 699.96,-6 699.96,-12 699.96,-12 699.96,-96 699.96,-96 699.96,-102 693.96,-108 687.96,-108"/>
<text xml:space="preserve" text-anchor="middle" x="540.12" y="-49.65" font-family="Architects Daughter" font-size="18.00">MeterRegistry</text>
</g>
<!-- n7 -->
<g id="node8" class="node">
<title>n7</title>
<path fill="#ffffff" stroke="#8ba84d" d="M1097.96,-118C1097.96,-118 802.28,-118 802.28,-118 796.28,-118 790.28,-112 790.28,-106 790.28,-106 790.28,-22 790.28,-22 790.28,-16 796.28,-10 802.28,-10 802.28,-10 1097.96,-10 1097.96,-10 1103.96,-10 1109.96,-16 1109.96,-22 1109.96,-22 1109.96,-106 1109.96,-106 1109.96,-112 1103.96,-118 1097.96,-118"/>
<text xml:space="preserve" text-anchor="middle" x="950.12" y="-59.65" font-family="Architects Daughter" font-size="18.00">Prometheus / Datadog</text>
</g>
<!-- r2p1 -->
<!-- r2p2 -->
<!-- r3p1 -->
<!-- r3p2 -->
<!-- r3p3 -->
<!-- r4p1 -->
<!-- r4p2 -->
<!-- r7p1 -->
<!-- r7p2 -->
</g>
</svg>
