<svg xmlns="http://www.w3.org/2000/svg" width="1320" height="760" viewBox="0 0 1320 760" role="img" aria-label="leader dynamodb Architecture">
  <metadata id="graphviz-evidence">Regenerated with Graphviz evidence: leader-dynamodb-architecture-01.dot, leader-dynamodb-architecture-01.plain, leader-dynamodb-architecture-01-graphviz.svg via scripts/regenerate-readme-diagram-graphviz-evidence.mjs.</metadata>
<defs>
  <filter id="shadow" x="-8%" y="-8%" width="116%" height="116%"><feDropShadow dx="0" dy="8" stdDeviation="9" flood-color="#1f2937" flood-opacity="0.10"/></filter>
  <marker id="openArrow" markerWidth="12" markerHeight="10" refX="10" refY="5" orient="auto" markerUnits="strokeWidth"><path d="M 1 1 L 10 5 L 1 9" fill="none" stroke="#758297" stroke-width="1.8" stroke-linecap="round" stroke-linejoin="round"/></marker>
  <style>
    .canvas{fill:#f7f9fc}.frame{fill:#fff;stroke:#d8e0ea;stroke-width:1.5}
    .title{font-family:"Architects Daughter","Comic Mono","Comic Sans MS","Comic Sans",cursive;font-size:43px;font-weight:400;fill:#102033}
    .subtitle{font-family:"Comic Mono","Comic Sans MS","Comic Sans","Comic Neue",Arial,sans-serif;font-size:15px;font-weight:400;fill:#536273}
    .smallLabel{font-family:"Architects Daughter","Comic Mono","Comic Sans MS","Comic Sans",cursive;font-size:21px;font-weight:400;fill:#102033}
    .mono{font-family:"Comic Mono","Comic Sans MS","Comic Sans","Comic Neue",Arial,sans-serif;font-size:12px;font-weight:400;fill:#102033}
    .card{stroke-width:2.1;filter:url(#shadow)}
    .line{stroke:#758297;stroke-width:2.1;fill:none;marker-end:url(#openArrow)}

    .layerBand{fill-opacity:0.45;stroke-width:1.4;stroke-dasharray:9 7}
    .layerLabel{font-family:"Architects Daughter","Comic Mono","Comic Sans MS","Comic Sans",cursive;font-size:19px;font-weight:400;fill:#536273}
  </style>
</defs>
<rect class="canvas" width="1320" height="760"/>
<rect class="frame" x="32" y="28" width="1256" height="704" rx="28"/>
<text class="title" x="66" y="82">leader dynamodb Architecture</text>
<text class="subtitle" x="70" y="118">Conditional writes guard ownership while logical leaseExpiry, not TTL deletion, decides correctness</text>
<g id="layer-bands" aria-label="Layer bands">
  <g data-layer="AWS Client Ownership">
    <rect class="layerBand" x="40" y="136" width="370" height="503" rx="18" fill="#EEF6FF" stroke="#9BC4F8"/>
    <text class="layerLabel" x="58" y="163">AWS Client Ownership</text>
  </g>
  <g data-layer="Leader Electors And Adapters">
    <rect class="layerBand" x="420" y="136" width="400" height="503" rx="18" fill="#EEF8F1" stroke="#A5D6B7"/>
    <text class="layerLabel" x="438" y="163">Leader Electors And Adapters</text>
  </g>
  <g data-layer="DynamoDB Lock State">
    <rect class="layerBand" x="830" y="136" width="450" height="503" rx="18" fill="#FFF7E8" stroke="#E3BE70"/>
    <text class="layerLabel" x="848" y="163">DynamoDB Lock State</text>
  </g>
</g>

<path class="line" d="M380 224 L415 224 L415 199 L450 199"/>
<path class="line" d="M380 224 L415 224 L415 384 L450 384"/>
<path class="line" d="M380 474 L415 474 L415 569 L450 569"/>
<path class="line" d="M790 199 L820 199 L820 289 L850 289"/>
<path class="line" d="M790 384 L820 384 L820 289 L850 289"/>
<path class="line" d="M790 569 L820 569 L820 554 L850 554"/>
<path class="line" d="M1020 343 L1020 500"/>
<g id="clients" transform="translate(70,170)">
  <rect class="card" x="0" y="0" width="310" height="108" rx="14" fill="#E8F3FF" stroke="#5B8DEF"/>
  <text class="smallLabel" x="155" y="39" text-anchor="middle">DynamoDbClient</text>
  <text class="smallLabel" x="155" y="66" text-anchor="middle">DynamoDbAsyncClient</text>
</g>
<g id="spring" transform="translate(70,420)">
  <rect class="card" x="0" y="0" width="310" height="108" rx="14" fill="#EAF7EF" stroke="#58A978"/>
  <text class="smallLabel" x="155" y="39" text-anchor="middle">Spring Boot</text>
  <text class="smallLabel" x="155" y="66" text-anchor="middle">caller-owned SDK beans</text>
</g>
<g id="single" transform="translate(450,145)">
  <rect class="card" x="0" y="0" width="340" height="108" rx="14" fill="#FFF3D9" stroke="#D6A441"/>
  <text class="smallLabel" x="170" y="39" text-anchor="middle">DynamoDbLeaderElector</text>
  <text class="smallLabel" x="170" y="66" text-anchor="middle">conditional PutItem</text>
</g>
<g id="group" transform="translate(450,330)">
  <rect class="card" x="0" y="0" width="340" height="108" rx="14" fill="#FDECEF" stroke="#DC6B82"/>
  <text class="smallLabel" x="170" y="39" text-anchor="middle">DynamoDbLeaderGroupElector</text>
  <text class="smallLabel" x="170" y="66" text-anchor="middle">fixed slot rows</text>
</g>
<g id="adapters" transform="translate(450,515)">
  <rect class="card" x="0" y="0" width="340" height="108" rx="14" fill="#E9F7F6" stroke="#45A7A1"/>
  <text class="smallLabel" x="170" y="39" text-anchor="middle">Virtual / Suspend</text>
  <text class="smallLabel" x="170" y="66" text-anchor="middle">adapters</text>
</g>
<g id="table" transform="translate(850,235)">
  <rect class="card" x="0" y="0" width="340" height="108" rx="14" fill="#F1ECFF" stroke="#8A72D6"/>
  <text class="smallLabel" x="170" y="39" text-anchor="middle">DynamoDB lock table</text>
  <text class="smallLabel" x="170" y="66" text-anchor="middle">partition key lockName</text>
</g>
<g id="row" transform="translate(850,500)">
  <rect class="card" x="0" y="0" width="340" height="108" rx="14" fill="#F7F1E7" stroke="#B88A44"/>
  <text class="smallLabel" x="170" y="39" text-anchor="middle">Lock row</text>
  <text class="smallLabel" x="170" y="66" text-anchor="middle">ownerId / leaseExpiry / ttl</text>
</g>
</svg>
