<?xml version="1.0" encoding="UTF-8" standalone="no"?>
<!DOCTYPE svg PUBLIC "-//W3C//DTD SVG 1.1//EN"
 "http://www.w3.org/Graphics/SVG/1.1/DTD/svg11.dtd">
<!-- Generated by graphviz version 15.0.0 (20260523.1842)
 -->
<!-- Title: leader&#45;core&#45;class&#45;01 Pages: 1 -->
<svg width="5878pt" height="410pt"
 viewBox="0.00 0.00 5878.00 410.00" xmlns="http://www.w3.org/2000/svg" xmlns:xlink="http://www.w3.org/1999/xlink">
<g id="graph0" class="graph" transform="scale(1 1) rotate(0) translate(4 406)">
<title>leader&#45;core&#45;class&#45;01</title>
<!-- singleState -->
<g id="node1" class="node">
<title>singleState</title>
<path fill="#f8fafc" stroke="#94a3b8" d="M1257.25,-402C1257.25,-402 552.75,-402 552.75,-402 546.75,-402 540.75,-396 540.75,-390 540.75,-390 540.75,-378 540.75,-378 540.75,-372 546.75,-366 552.75,-366 552.75,-366 1257.25,-366 1257.25,-366 1263.25,-366 1269.25,-372 1269.25,-378 1269.25,-378 1269.25,-390 1269.25,-390 1269.25,-396 1263.25,-402 1257.25,-402"/>
<text xml:space="preserve" text-anchor="middle" x="905" y="-378.57" font-family="Comic Mono" font-size="14.00">&lt;&lt;state query&gt;&gt;\nLeaderElectionState\n+ state(lockName): LeaderState\nbest&#45;effort snapshot only</text>
</g>
<!-- groupState -->
<g id="node2" class="node">
<title>groupState</title>
<path fill="#f8fafc" stroke="#94a3b8" d="M5731.5,-402C5731.5,-402 4494.5,-402 4494.5,-402 4488.5,-402 4482.5,-396 4482.5,-390 4482.5,-390 4482.5,-378 4482.5,-378 4482.5,-372 4488.5,-366 4494.5,-366 4494.5,-366 5731.5,-366 5731.5,-366 5737.5,-366 5743.5,-372 5743.5,-378 5743.5,-378 5743.5,-390 5743.5,-390 5743.5,-396 5737.5,-402 5731.5,-402"/>
<text xml:space="preserve" text-anchor="middle" x="5113" y="-378.57" font-family="Comic Mono" font-size="14.00">&lt;&lt;group state query&gt;&gt;\nLeaderGroupElectionState\n+ maxLeaders: Int\n+ activeCount(lockName): Int\n+ availableSlots(lockName): Int\n+ state(lockName): LeaderGroupState</text>
</g>
<!-- asyncElector -->
<g id="node3" class="node">
<title>asyncElector</title>
<path fill="#f8fafc" stroke="#94a3b8" d="M2182.5,-288C2182.5,-288 1245.5,-288 1245.5,-288 1239.5,-288 1233.5,-282 1233.5,-276 1233.5,-276 1233.5,-264 1233.5,-264 1233.5,-258 1239.5,-252 1245.5,-252 1245.5,-252 2182.5,-252 2182.5,-252 2188.5,-252 2194.5,-258 2194.5,-264 2194.5,-264 2194.5,-276 2194.5,-276 2194.5,-282 2188.5,-288 2182.5,-288"/>
<text xml:space="preserve" text-anchor="middle" x="1714" y="-264.57" font-family="Comic Mono" font-size="14.00">&lt;&lt;async contract&gt;&gt;\nAsyncLeaderElector\n+ runAsyncIfLeader(lockName)\n+ runAsyncIfLeader(slot)\n+ runAsyncIfLeaderResult(slot)</text>
</g>
<!-- asyncElector&#45;&gt;singleState -->
<g id="edge1" class="edge">
<title>asyncElector&#45;&gt;singleState</title>
<path fill="none" stroke="#4f83bf" d="M1251.38,-288.32C1251.38,-288.32 1251.38,-356.22 1251.38,-356.22"/>
<polygon fill="#4f83bf" stroke="#4f83bf" points="1248.58,-356.22 1251.38,-364.22 1254.18,-356.22 1248.58,-356.22"/>
<text xml:space="preserve" text-anchor="middle" x="1462.38" y="-323.5" font-family="Comic Mono" font-size="10.00">inherit</text>
</g>
<!-- virtualElector -->
<g id="node4" class="node">
<title>virtualElector</title>
<path fill="#f8fafc" stroke="#94a3b8" d="M1167.25,-288C1167.25,-288 102.75,-288 102.75,-288 96.75,-288 90.75,-282 90.75,-276 90.75,-276 90.75,-264 90.75,-264 90.75,-258 96.75,-252 102.75,-252 102.75,-252 1167.25,-252 1167.25,-252 1173.25,-252 1179.25,-258 1179.25,-264 1179.25,-264 1179.25,-276 1179.25,-276 1179.25,-282 1173.25,-288 1167.25,-288"/>
<text xml:space="preserve" text-anchor="middle" x="635" y="-264.57" font-family="Comic Mono" font-size="14.00">&lt;&lt;virtual&#45;thread contract&gt;&gt;\nVirtualThreadLeaderElector\n+ runAsyncIfLeader(lockName)\n+ runAsyncIfLeader(slot)\n+ runAsyncIfLeaderResult(slot)</text>
</g>
<!-- virtualElector&#45;&gt;singleState -->
<g id="edge3" class="edge">
<title>virtualElector&#45;&gt;singleState</title>
<path fill="none" stroke="#4f83bf" d="M860,-288.32C860,-288.32 860,-356.22 860,-356.22"/>
<polygon fill="#4f83bf" stroke="#4f83bf" points="857.2,-356.22 860,-364.22 862.8,-356.22 857.2,-356.22"/>
<text xml:space="preserve" text-anchor="middle" x="653.38" y="-323.5" font-family="Comic Mono" font-size="10.00">inherit</text>
</g>
<!-- asyncGroup -->
<g id="node5" class="node">
<title>asyncGroup</title>
<path fill="#f8fafc" stroke="#94a3b8" d="M5167.75,-288C5167.75,-288 4148.25,-288 4148.25,-288 4142.25,-288 4136.25,-282 4136.25,-276 4136.25,-276 4136.25,-264 4136.25,-264 4136.25,-258 4142.25,-252 4148.25,-252 4148.25,-252 5167.75,-252 5167.75,-252 5173.75,-252 5179.75,-258 5179.75,-264 5179.75,-264 5179.75,-276 5179.75,-276 5179.75,-282 5173.75,-288 5167.75,-288"/>
<text xml:space="preserve" text-anchor="middle" x="4658" y="-264.57" font-family="Comic Mono" font-size="14.00">&lt;&lt;async group contract&gt;&gt;\nAsyncLeaderGroupElector\n+ runAsyncIfLeader(lockName)\n+ runAsyncIfLeader(slot)\n+ runAsyncIfLeaderResult(slot)</text>
</g>
<!-- asyncGroup&#45;&gt;groupState -->
<g id="edge5" class="edge">
<title>asyncGroup&#45;&gt;groupState</title>
<path fill="none" stroke="#4f83bf" d="M4831.12,-288.32C4831.12,-288.32 4831.12,-356.22 4831.12,-356.22"/>
<polygon fill="#4f83bf" stroke="#4f83bf" points="4828.33,-356.22 4831.13,-364.22 4833.93,-356.22 4828.33,-356.22"/>
<text xml:space="preserve" text-anchor="middle" x="4956.38" y="-323.5" font-family="Comic Mono" font-size="10.00">inherit</text>
</g>
<!-- leaderElector -->
<g id="node6" class="node">
<title>leaderElector</title>
<path fill="#f8fafc" stroke="#94a3b8" d="M2877.75,-150C2877.75,-150 2008.25,-150 2008.25,-150 2002.25,-150 1996.25,-144 1996.25,-138 1996.25,-138 1996.25,-126 1996.25,-126 1996.25,-120 2002.25,-114 2008.25,-114 2008.25,-114 2877.75,-114 2877.75,-114 2883.75,-114 2889.75,-120 2889.75,-126 2889.75,-126 2889.75,-138 2889.75,-138 2889.75,-144 2883.75,-150 2877.75,-150"/>
<text xml:space="preserve" text-anchor="middle" x="2443" y="-126.58" font-family="Comic Mono" font-size="14.00">&lt;&lt;blocking contract&gt;&gt;\nLeaderElector\n+ runIfLeader(lockName): T?\n+ runIfLeaderResult(lockName)\n+ runIfLeader(slot)</text>
</g>
<!-- leaderElector&#45;&gt;asyncElector -->
<g id="edge2" class="edge">
<title>leaderElector&#45;&gt;asyncElector</title>
<path fill="none" stroke="#4f83bf" d="M2095.38,-150.33C2095.38,-150.33 2095.38,-242.09 2095.38,-242.09"/>
<polygon fill="#4f83bf" stroke="#4f83bf" points="2092.58,-242.09 2095.38,-250.09 2098.18,-242.09 2092.58,-242.09"/>
<text xml:space="preserve" text-anchor="middle" x="2186.38" y="-197.5" font-family="Comic Mono" font-size="10.00">inherit</text>
</g>
<!-- result -->
<g id="node11" class="node">
<title>result</title>
<path fill="#f8fafc" stroke="#94a3b8" d="M4070.5,-288C4070.5,-288 3403.5,-288 3403.5,-288 3397.5,-288 3391.5,-282 3391.5,-276 3391.5,-276 3391.5,-264 3391.5,-264 3391.5,-258 3397.5,-252 3403.5,-252 3403.5,-252 4070.5,-252 4070.5,-252 4076.5,-252 4082.5,-258 4082.5,-264 4082.5,-264 4082.5,-276 4082.5,-276 4082.5,-282 4076.5,-288 4070.5,-288"/>
<text xml:space="preserve" text-anchor="middle" x="3737" y="-264.57" font-family="Comic Mono" font-size="14.00">&lt;&lt;sealed result&gt;&gt;\nLeaderRunResult\nElected(value, leaderId)\nSkipped\nActionFailed(cause)</text>
</g>
<!-- leaderElector&#45;&gt;result -->
<g id="edge8" class="edge">
<title>leaderElector&#45;&gt;result</title>
<path fill="none" stroke="#3e9868" d="M2890.09,-138C3172.63,-138 3484.75,-138 3484.75,-138 3484.75,-138 3484.75,-242.13 3484.75,-242.13"/>
<polygon fill="#3e9868" stroke="#3e9868" points="3481.95,-242.13 3484.75,-250.13 3487.55,-242.13 3481.95,-242.13"/>
<text xml:space="preserve" text-anchor="middle" x="2834.25" y="-197.5" font-family="Comic Mono" font-size="10.00">result API</text>
</g>
<!-- suspendElector -->
<g id="node7" class="node">
<title>suspendElector</title>
<path fill="#f8fafc" stroke="#94a3b8" d="M1810.25,-219C1810.25,-219 745.75,-219 745.75,-219 739.75,-219 733.75,-213 733.75,-207 733.75,-207 733.75,-195 733.75,-195 733.75,-189 739.75,-183 745.75,-183 745.75,-183 1810.25,-183 1810.25,-183 1816.25,-183 1822.25,-189 1822.25,-195 1822.25,-195 1822.25,-207 1822.25,-207 1822.25,-213 1816.25,-219 1810.25,-219"/>
<text xml:space="preserve" text-anchor="middle" x="1278" y="-195.57" font-family="Comic Mono" font-size="14.00">&lt;&lt;coroutine contract&gt;&gt;\nSuspendLeaderElector\n+ suspend runIfLeader(lockName)\n+ runIfLeaderResultSuspend(slot)\n+ state(lockName): LeaderState</text>
</g>
<!-- suspendElector&#45;&gt;singleState -->
<g id="edge4" class="edge">
<title>suspendElector&#45;&gt;singleState</title>
<path fill="none" stroke="#4f83bf" d="M1206.38,-219.22C1206.38,-219.22 1206.38,-356.07 1206.38,-356.07"/>
<polygon fill="#4f83bf" stroke="#4f83bf" points="1203.58,-356.07 1206.38,-364.07 1209.18,-356.07 1203.58,-356.07"/>
<text xml:space="preserve" text-anchor="middle" x="18.38" y="-266.5" font-family="Comic Mono" font-size="10.00">inherit</text>
</g>
<!-- groupElector -->
<g id="node8" class="node">
<title>groupElector</title>
<path fill="#f8fafc" stroke="#94a3b8" d="M4542,-150C4542,-150 3590,-150 3590,-150 3584,-150 3578,-144 3578,-138 3578,-138 3578,-126 3578,-126 3578,-120 3584,-114 3590,-114 3590,-114 4542,-114 4542,-114 4548,-114 4554,-120 4554,-126 4554,-126 4554,-138 4554,-138 4554,-144 4548,-150 4542,-150"/>
<text xml:space="preserve" text-anchor="middle" x="4066" y="-126.58" font-family="Comic Mono" font-size="14.00">&lt;&lt;blocking group contract&gt;&gt;\nLeaderGroupElector\n+ runIfLeader(lockName): T?\n+ runIfLeaderResult(lockName)\n+ runIfLeader(slot)</text>
</g>
<!-- groupElector&#45;&gt;asyncGroup -->
<g id="edge6" class="edge">
<title>groupElector&#45;&gt;asyncGroup</title>
<path fill="none" stroke="#4f83bf" d="M4331.25,-150.33C4331.25,-150.33 4331.25,-242.09 4331.25,-242.09"/>
<polygon fill="#4f83bf" stroke="#4f83bf" points="4328.45,-242.09 4331.25,-250.09 4334.05,-242.09 4328.45,-242.09"/>
<text xml:space="preserve" text-anchor="middle" x="4322.38" y="-197.5" font-family="Comic Mono" font-size="10.00">inherit</text>
</g>
<!-- groupElector&#45;&gt;result -->
<g id="edge9" class="edge">
<title>groupElector&#45;&gt;result</title>
<path fill="none" stroke="#3e9868" d="M3830.25,-150.33C3830.25,-150.33 3830.25,-242.09 3830.25,-242.09"/>
<polygon fill="#3e9868" stroke="#3e9868" points="3827.45,-242.09 3830.25,-250.09 3833.05,-242.09 3827.45,-242.09"/>
<text xml:space="preserve" text-anchor="middle" x="3855.88" y="-197.5" font-family="Comic Mono" font-size="10.00">slot result</text>
</g>
<!-- suspendGroup -->
<g id="node9" class="node">
<title>suspendGroup</title>
<path fill="#f8fafc" stroke="#94a3b8" d="M5857.75,-219C5857.75,-219 4538.25,-219 4538.25,-219 4532.25,-219 4526.25,-213 4526.25,-207 4526.25,-207 4526.25,-195 4526.25,-195 4526.25,-189 4532.25,-183 4538.25,-183 4538.25,-183 5857.75,-183 5857.75,-183 5863.75,-183 5869.75,-189 5869.75,-195 5869.75,-195 5869.75,-207 5869.75,-207 5869.75,-213 5863.75,-219 5857.75,-219"/>
<text xml:space="preserve" text-anchor="middle" x="5198" y="-195.57" font-family="Comic Mono" font-size="14.00">&lt;&lt;coroutine group contract&gt;&gt;\nSuspend Group Elector\nSuspendLeaderGroupElector\n+ suspend runIfLeader(lockName)\n+ runIfLeaderResultSuspend(slot)\n+ activeCount / availableSlots</text>
</g>
<!-- suspendGroup&#45;&gt;groupState -->
<g id="edge7" class="edge">
<title>suspendGroup&#45;&gt;groupState</title>
<path fill="none" stroke="#4f83bf" d="M5461.62,-219.22C5461.62,-219.22 5461.62,-356.07 5461.62,-356.07"/>
<polygon fill="#4f83bf" stroke="#4f83bf" points="5458.83,-356.07 5461.63,-364.07 5464.43,-356.07 5458.83,-356.07"/>
<text xml:space="preserve" text-anchor="middle" x="5306.38" y="-266.5" font-family="Comic Mono" font-size="10.00">inherit</text>
</g>
<!-- slot -->
<g id="node10" class="node">
<title>slot</title>
<path fill="#f8fafc" stroke="#94a3b8" d="M3336.75,-36C3336.75,-36 2527.25,-36 2527.25,-36 2521.25,-36 2515.25,-30 2515.25,-24 2515.25,-24 2515.25,-12 2515.25,-12 2515.25,-6 2521.25,0 2527.25,0 2527.25,0 3336.75,0 3336.75,0 3342.75,0 3348.75,-6 3348.75,-12 3348.75,-12 3348.75,-24 3348.75,-24 3348.75,-30 3342.75,-36 3336.75,-36"/>
<text xml:space="preserve" text-anchor="middle" x="2932" y="-12.57" font-family="Comic Mono" font-size="14.00">&lt;&lt;identity carrier&gt;&gt;\nLeaderSlot\n+ lockName: String\n+ leaderId: String\nslot overload stamps audit identity</text>
</g>
<!-- slot&#45;&gt;leaderElector -->
<g id="edge10" class="edge">
<title>slot&#45;&gt;leaderElector</title>
<path fill="none" stroke="#755bc6" d="M2702.5,-36.32C2702.5,-36.32 2702.5,-104.22 2702.5,-104.22"/>
<polygon fill="#755bc6" stroke="#755bc6" points="2699.7,-104.22 2702.5,-112.22 2705.3,-104.22 2699.7,-104.22"/>
<text xml:space="preserve" text-anchor="middle" x="2671.75" y="-71.5" font-family="Comic Mono" font-size="10.00">slot overloads</text>
</g>
<!-- slot&#45;&gt;groupElector -->
<g id="edge11" class="edge">
<title>slot&#45;&gt;groupElector</title>
<path fill="none" stroke="#755bc6" d="M3343,-36.32C3343,-67.13 3343,-126 3343,-126 3343,-126 3568.22,-126 3568.22,-126"/>
<polygon fill="#755bc6" stroke="#755bc6" points="3568.22,-128.8 3576.22,-126 3568.22,-123.2 3568.22,-128.8"/>
<text xml:space="preserve" text-anchor="middle" x="3742" y="-71.5" font-family="Comic Mono" font-size="10.00">audit id</text>
</g>
<!-- events -->
<g id="node12" class="node">
<title>events</title>
<path fill="#f8fafc" stroke="#94a3b8" d="M3325.25,-288C3325.25,-288 2260.75,-288 2260.75,-288 2254.75,-288 2248.75,-282 2248.75,-276 2248.75,-276 2248.75,-264 2248.75,-264 2248.75,-258 2254.75,-252 2260.75,-252 2260.75,-252 3325.25,-252 3325.25,-252 3331.25,-252 3337.25,-258 3337.25,-264 3337.25,-264 3337.25,-276 3337.25,-276 3337.25,-282 3331.25,-288 3325.25,-288"/>
<text xml:space="preserve" text-anchor="middle" x="2793" y="-264.57" font-family="Comic Mono" font-size="14.00">&lt;&lt;listener support&gt;&gt;\nLeaderElection Events\nLeaderElectionEventPublisher.events\nLeaderElectionListenerRegistry\nLeaderElectionListenerSupport</text>
</g>
<!-- events&#45;&gt;singleState -->
<g id="edge12" class="edge">
<title>events&#45;&gt;singleState</title>
<path fill="none" stroke="#2e8f89" d="M2248.42,-270C2231.41,-270 2221.62,-270 2221.62,-270 2221.62,-270 2221.62,-384 2221.62,-384 2221.62,-384 1279.08,-384 1279.08,-384"/>
<polygon fill="#2e8f89" stroke="#2e8f89" points="1279.08,-381.2 1271.08,-384 1279.08,-386.8 1279.08,-381.2"/>
<text xml:space="preserve" text-anchor="middle" x="2824.5" y="-323.5" font-family="Comic Mono" font-size="10.00">state events</text>
</g>
<!-- localSingle -->
<g id="node13" class="node">
<title>localSingle</title>
<path fill="#f8fafc" stroke="#94a3b8" d="M2390.25,-36C2390.25,-36 875.75,-36 875.75,-36 869.75,-36 863.75,-30 863.75,-24 863.75,-24 863.75,-12 863.75,-12 863.75,-6 869.75,0 875.75,0 875.75,0 2390.25,0 2390.25,0 2396.25,0 2402.25,-6 2402.25,-12 2402.25,-12 2402.25,-24 2402.25,-24 2402.25,-30 2396.25,-36 2390.25,-36"/>
<text xml:space="preserve" text-anchor="middle" x="1633" y="-12.57" font-family="Comic Mono" font-size="14.00">&lt;&lt;implementations&gt;&gt;\nLocal Single&#45;JVM Family\nLocalLeaderElector &#45;&gt; LeaderElector\nLocalAsync &#45;&gt; AsyncLeaderElector\nLocalVirtualThread &#45;&gt; VirtualThreadLeaderElector\nLocalSuspend &#45;&gt; SuspendLeaderElector</text>
</g>
<!-- localSingle&#45;&gt;leaderElector -->
<g id="edge13" class="edge">
<title>localSingle&#45;&gt;leaderElector</title>
<path fill="none" stroke="#b9851b" d="M2199.25,-36.32C2199.25,-36.32 2199.25,-104.22 2199.25,-104.22"/>
<polygon fill="#b9851b" stroke="#b9851b" points="2196.45,-104.22 2199.25,-112.22 2202.05,-104.22 2196.45,-104.22"/>
<text xml:space="preserve" text-anchor="middle" x="1956.25" y="-71.5" font-family="Comic Mono" font-size="10.00">implements</text>
</g>
<!-- localSingle&#45;&gt;suspendElector -->
<g id="edge14" class="edge">
<title>localSingle&#45;&gt;suspendElector</title>
<path fill="none" stroke="#b9851b" d="M1343,-36.22C1343,-36.22 1343,-173.07 1343,-173.07"/>
<polygon fill="#b9851b" stroke="#b9851b" points="1340.2,-173.07 1343,-181.07 1345.8,-173.07 1340.2,-173.07"/>
<text xml:space="preserve" text-anchor="middle" x="1541.25" y="-71.5" font-family="Comic Mono" font-size="10.00">coroutines</text>
</g>
<!-- localGroup -->
<g id="node14" class="node">
<title>localGroup</title>
<path fill="#f8fafc" stroke="#94a3b8" d="M5166.75,-36C5166.75,-36 3607.25,-36 3607.25,-36 3601.25,-36 3595.25,-30 3595.25,-24 3595.25,-24 3595.25,-12 3595.25,-12 3595.25,-6 3601.25,0 3607.25,0 3607.25,0 5166.75,0 5166.75,0 5172.75,0 5178.75,-6 5178.75,-12 5178.75,-12 5178.75,-24 5178.75,-24 5178.75,-30 5172.75,-36 5166.75,-36"/>
<text xml:space="preserve" text-anchor="middle" x="4387" y="-12.57" font-family="Comic Mono" font-size="14.00">&lt;&lt;implementations&gt;&gt;\nLocal Group Family\nLocalLeaderGroup &#45;&gt; LeaderGroupElector\nLocalAsyncGroup &#45;&gt; AsyncLeaderGroupElector\nLocalSuspendGroup &#45;&gt; SuspendLeaderGroupElector\nStrategic local variants wrap policy</text>
</g>
<!-- localGroup&#45;&gt;groupElector -->
<g id="edge15" class="edge">
<title>localGroup&#45;&gt;groupElector</title>
<path fill="none" stroke="#b9851b" d="M4074.62,-36.32C4074.62,-36.32 4074.62,-104.22 4074.62,-104.22"/>
<polygon fill="#b9851b" stroke="#b9851b" points="4071.83,-104.22 4074.63,-112.22 4077.43,-104.22 4071.83,-104.22"/>
<text xml:space="preserve" text-anchor="middle" x="4252.25" y="-71.5" font-family="Comic Mono" font-size="10.00">implements</text>
</g>
<!-- localGroup&#45;&gt;suspendGroup -->
<g id="edge16" class="edge">
<title>localGroup&#45;&gt;suspendGroup</title>
<path fill="none" stroke="#b9851b" d="M4866.38,-36.22C4866.38,-36.22 4866.38,-173.07 4866.38,-173.07"/>
<polygon fill="#b9851b" stroke="#b9851b" points="4863.58,-173.07 4866.38,-181.07 4869.18,-173.07 4863.58,-173.07"/>
<text xml:space="preserve" text-anchor="middle" x="4734.25" y="-71.5" font-family="Comic Mono" font-size="10.00">coroutines</text>
</g>
</g>
</svg>
