<?xml version="1.0" encoding="UTF-8" standalone="no"?>
<!DOCTYPE svg PUBLIC "-//W3C//DTD SVG 1.1//EN"
 "http://www.w3.org/Graphics/SVG/1.1/DTD/svg11.dtd">
<!-- Generated by graphviz version 15.0.0 (20260523.1842)
 -->
<!-- Title: leader&#45;hazelcast&#45;class&#45;01 Pages: 1 -->
<svg width="2338pt" height="456pt"
 viewBox="0.00 0.00 2338.00 456.00" xmlns="http://www.w3.org/2000/svg" xmlns:xlink="http://www.w3.org/1999/xlink">
<g id="graph0" class="graph" transform="scale(1 1) rotate(0) translate(4 451.64)">
<title>leader&#45;hazelcast&#45;class&#45;01</title>
<text xml:space="preserve" text-anchor="middle" x="1164.88" y="-430.34" font-family="Times,serif" font-size="14.00">leader hazelcast Class Structure</text>
<!-- n0&#45;&gt;r4p1 -->
<g id="edge10" class="edge">
<title>n0&#45;&gt;r4p1</title>
<path fill="none" stroke="#758297" stroke-width="1.8" d="M330.04,-118.98C346.88,-118.98 359.36,-118.98 363.44,-118.98"/>
</g>
<!-- n0&#45;&gt;r8p1 -->
<g id="edge22" class="edge">
<title>n0&#45;&gt;r8p1</title>
<path fill="none" stroke="#758297" stroke-width="1.8" stroke-dasharray="5,2" d="M164.88,-175.54C164.88,-204.15 164.88,-234.33 164.88,-241.42"/>
</g>
<!-- n1&#45;&gt;r2p1 -->
<g id="edge4" class="edge">
<title>n1&#45;&gt;r2p1</title>
<path fill="none" stroke="#758297" stroke-width="1.8" d="M1530.04,-110.98C1546.88,-110.98 1559.36,-110.98 1563.44,-110.98"/>
</g>
<!-- n1&#45;&gt;r6p1 -->
<g id="edge16" class="edge">
<title>n1&#45;&gt;r6p1</title>
<path fill="none" stroke="#758297" stroke-width="1.8" stroke-dasharray="5,2" d="M1364.88,-175.43C1364.88,-204.75 1364.88,-234.48 1364.88,-241.45"/>
</g>
<!-- n6&#45;&gt;r3p1 -->
<g id="edge7" class="edge">
<title>n6&#45;&gt;r3p1</title>
<path fill="none" stroke="#758297" stroke-width="1.8" d="M799.72,-110.98C782.88,-110.98 770.4,-110.98 766.32,-110.98"/>
</g>
<!-- n6&#45;&gt;r7p1 -->
<g id="edge19" class="edge">
<title>n6&#45;&gt;r7p1</title>
<path fill="none" stroke="#758297" stroke-width="1.8" stroke-dasharray="5,2" d="M964.88,-175.43C964.88,-204.75 964.88,-234.48 964.88,-241.45"/>
</g>
<!-- n7&#45;&gt;r1p1 -->
<g id="edge1" class="edge">
<title>n7&#45;&gt;r1p1</title>
<path fill="none" stroke="#758297" stroke-width="1.8" d="M1999.72,-110.98C1982.88,-110.98 1970.4,-110.98 1966.32,-110.98"/>
</g>
<!-- n7&#45;&gt;r5p1 -->
<g id="edge13" class="edge">
<title>n7&#45;&gt;r5p1</title>
<path fill="none" stroke="#758297" stroke-width="1.8" stroke-dasharray="5,2" d="M2164.88,-175.52C2164.88,-201.89 2164.88,-227.64 2164.88,-233.66"/>
</g>
<!-- r1p1&#45;&gt;r1p2 -->
<g id="edge2" class="edge">
<title>r1p1&#45;&gt;r1p2</title>
<path fill="none" stroke="#758297" stroke-width="1.8" d="M1964.88,-109.44C1964.88,-105.19 1964.88,-93.35 1964.88,-89.06"/>
</g>
<!-- r1p2&#45;&gt;n4 -->
<g id="edge3" class="edge">
<title>r1p2&#45;&gt;n4</title>
<path fill="none" stroke="#758297" stroke-width="1.8" d="M1963.6,-87.48C1960.54,-87.48 1952.13,-87.48 1940.41,-87.48"/>
<polygon fill="#758297" stroke="#758297" stroke-width="1.8" points="1940.55,-84.68 1932.55,-87.48 1940.55,-90.28 1940.55,-84.68"/>
</g>
<!-- r2p1&#45;&gt;r2p2 -->
<g id="edge5" class="edge">
<title>r2p1&#45;&gt;r2p2</title>
<path fill="none" stroke="#758297" stroke-width="1.8" d="M1564.88,-109.44C1564.88,-105.19 1564.88,-93.35 1564.88,-89.06"/>
</g>
<!-- r2p2&#45;&gt;n4 -->
<g id="edge6" class="edge">
<title>r2p2&#45;&gt;n4</title>
<path fill="none" stroke="#758297" stroke-width="1.8" d="M1566.16,-87.48C1569.22,-87.48 1577.63,-87.48 1589.35,-87.48"/>
<polygon fill="#758297" stroke="#758297" stroke-width="1.8" points="1589.21,-90.28 1597.21,-87.48 1589.21,-84.68 1589.21,-90.28"/>
</g>
<!-- r3p1&#45;&gt;r3p2 -->
<g id="edge8" class="edge">
<title>r3p1&#45;&gt;r3p2</title>
<path fill="none" stroke="#758297" stroke-width="1.8" d="M764.88,-109.44C764.88,-105.19 764.88,-93.35 764.88,-89.06"/>
</g>
<!-- r3p2&#45;&gt;n3 -->
<g id="edge9" class="edge">
<title>r3p2&#45;&gt;n3</title>
<path fill="none" stroke="#758297" stroke-width="1.8" d="M763.6,-87.48C760.54,-87.48 752.13,-87.48 740.41,-87.48"/>
<polygon fill="#758297" stroke="#758297" stroke-width="1.8" points="740.55,-84.68 732.55,-87.48 740.55,-90.28 740.55,-84.68"/>
</g>
<!-- r4p1&#45;&gt;r4p2 -->
<g id="edge11" class="edge">
<title>r4p1&#45;&gt;r4p2</title>
<path fill="none" stroke="#758297" stroke-width="1.8" d="M364.88,-117.63C364.88,-112.45 364.88,-93.91 364.88,-88.79"/>
</g>
<!-- r4p2&#45;&gt;n3 -->
<g id="edge12" class="edge">
<title>r4p2&#45;&gt;n3</title>
<path fill="none" stroke="#758297" stroke-width="1.8" d="M366.16,-87.48C369.22,-87.48 377.63,-87.48 389.35,-87.48"/>
<polygon fill="#758297" stroke="#758297" stroke-width="1.8" points="389.21,-90.28 397.21,-87.48 389.21,-84.68 389.21,-90.28"/>
</g>
<!-- r5p1&#45;&gt;r5p2 -->
<g id="edge14" class="edge">
<title>r5p1&#45;&gt;r5p2</title>
<path fill="none" stroke="#758297" stroke-width="1.8" stroke-dasharray="5,2" d="M2163.41,-234.98C2129.86,-234.98 1532.23,-234.98 1499.57,-234.98"/>
</g>
<!-- r5p2&#45;&gt;n9 -->
<g id="edge15" class="edge">
<title>r5p2&#45;&gt;n9</title>
<path fill="none" stroke="#758297" stroke-width="1.8" stroke-dasharray="5,2" d="M1498.18,-236.37C1498.18,-241.7 1498.18,-261.62 1498.18,-283.9"/>
<polygon fill="none" stroke="#758297" stroke-width="1.8" points="1495.38,-283.89 1498.18,-291.89 1500.98,-283.89 1495.38,-283.89"/>
</g>
<!-- r6p1&#45;&gt;r6p2 -->
<g id="edge17" class="edge">
<title>r6p1&#45;&gt;r6p2</title>
<path fill="none" stroke="#758297" stroke-width="1.8" stroke-dasharray="5,2" d="M1366.18,-242.98C1401.1,-242.98 2129.52,-242.98 2163.64,-242.98"/>
</g>
<!-- r6p2&#45;&gt;n5 -->
<g id="edge18" class="edge">
<title>r6p2&#45;&gt;n5</title>
<path fill="none" stroke="#758297" stroke-width="1.8" stroke-dasharray="5,2" d="M2164.88,-244.37C2164.88,-250.34 2164.88,-274.57 2164.88,-299.94"/>
<polygon fill="none" stroke="#758297" stroke-width="1.8" points="2162.08,-299.72 2164.88,-307.72 2167.68,-299.72 2162.08,-299.72"/>
</g>
<!-- r7p1&#45;&gt;r7p2 -->
<g id="edge20" class="edge">
<title>r7p1&#45;&gt;r7p2</title>
<path fill="none" stroke="#758297" stroke-width="1.8" stroke-dasharray="5,2" d="M963.38,-242.98C949.65,-242.98 845.82,-242.98 832.9,-242.98"/>
</g>
<!-- r7p2&#45;&gt;n8 -->
<g id="edge21" class="edge">
<title>r7p2&#45;&gt;n8</title>
<path fill="none" stroke="#758297" stroke-width="1.8" stroke-dasharray="5,2" d="M831.58,-244.37C831.58,-250.34 831.58,-274.57 831.58,-299.94"/>
<polygon fill="none" stroke="#758297" stroke-width="1.8" points="828.78,-299.72 831.58,-307.72 834.38,-299.72 828.78,-299.72"/>
</g>
<!-- r8p1&#45;&gt;r8p2 -->
<g id="edge23" class="edge">
<title>r8p1&#45;&gt;r8p2</title>
<path fill="none" stroke="#758297" stroke-width="1.8" stroke-dasharray="5,2" d="M164.88,-242.98C164.88,-242.98 164.88,-242.98 164.88,-242.98"/>
</g>
<!-- r8p2&#45;&gt;n2 -->
<g id="edge24" class="edge">
<title>r8p2&#45;&gt;n2</title>
<path fill="none" stroke="#758297" stroke-width="1.8" stroke-dasharray="5,2" d="M164.88,-244.37C164.88,-250.34 164.88,-274.57 164.88,-299.94"/>
<polygon fill="none" stroke="#758297" stroke-width="1.8" points="162.08,-299.72 164.88,-307.72 167.68,-299.72 162.08,-299.72"/>
</g>
<!-- n0 -->
<g id="node1" class="node">
<title>n0</title>
<path fill="#ffffff" stroke="#5b8def" d="M317.76,-175.14C317.76,-175.14 12,-175.14 12,-175.14 6,-175.14 0,-169.14 0,-163.14 0,-163.14 0,-74.82 0,-74.82 0,-68.82 6,-62.82 12,-62.82 12,-62.82 317.76,-62.82 317.76,-62.82 323.76,-62.82 329.76,-68.82 329.76,-74.82 329.76,-74.82 329.76,-163.14 329.76,-163.14 329.76,-169.14 323.76,-175.14 317.76,-175.14"/>
<text xml:space="preserve" text-anchor="middle" x="164.88" y="-114.63" font-family="Architects Daughter" font-size="18.00">HazelcastLeaderElector</text>
</g>
<!-- n1 -->
<g id="node2" class="node">
<title>n1</title>
<path fill="#ffffff" stroke="#58a978" d="M1517.76,-175.06C1517.76,-175.06 1212,-175.06 1212,-175.06 1206,-175.06 1200,-169.06 1200,-163.06 1200,-163.06 1200,-58.9 1200,-58.9 1200,-52.9 1206,-46.9 1212,-46.9 1212,-46.9 1517.76,-46.9 1517.76,-46.9 1523.76,-46.9 1529.76,-52.9 1529.76,-58.9 1529.76,-58.9 1529.76,-163.06 1529.76,-163.06 1529.76,-169.06 1523.76,-175.06 1517.76,-175.06"/>
<text xml:space="preserve" text-anchor="middle" x="1364.88" y="-106.63" font-family="Architects Daughter" font-size="18.00">Hazelcast Suspend</text>
</g>
<!-- n2 -->
<g id="node3" class="node">
<title>n2</title>
<path fill="#ffffff" stroke="#d6a441" d="M317.76,-423.14C317.76,-423.14 12,-423.14 12,-423.14 6,-423.14 0,-417.14 0,-411.14 0,-411.14 0,-322.82 0,-322.82 0,-316.82 6,-310.82 12,-310.82 12,-310.82 317.76,-310.82 317.76,-310.82 323.76,-310.82 329.76,-316.82 329.76,-322.82 329.76,-322.82 329.76,-411.14 329.76,-411.14 329.76,-417.14 323.76,-423.14 317.76,-423.14"/>
<text xml:space="preserve" text-anchor="middle" x="164.88" y="-362.63" font-family="Architects Daughter" font-size="18.00">LeaderElector</text>
</g>
<!-- n3 -->
<g id="node4" class="node">
<title>n3</title>
<path fill="#ffffff" stroke="#dc6b82" d="M717.76,-174.96C717.76,-174.96 412,-174.96 412,-174.96 406,-174.96 400,-168.96 400,-162.96 400,-162.96 400,-12 400,-12 400,-6 406,0 412,0 412,0 717.76,0 717.76,0 723.76,0 729.76,-6 729.76,-12 729.76,-12 729.76,-162.96 729.76,-162.96 729.76,-168.96 723.76,-174.96 717.76,-174.96"/>
<text xml:space="preserve" text-anchor="middle" x="564.88" y="-83.13" font-family="Architects Daughter" font-size="18.00">HazelcastLock</text>
</g>
<!-- n4 -->
<g id="node5" class="node">
<title>n4</title>
<path fill="#ffffff" stroke="#45a7a1" d="M1917.76,-174.96C1917.76,-174.96 1612,-174.96 1612,-174.96 1606,-174.96 1600,-168.96 1600,-162.96 1600,-162.96 1600,-12 1600,-12 1600,-6 1606,0 1612,0 1612,0 1917.76,0 1917.76,0 1923.76,0 1929.76,-6 1929.76,-12 1929.76,-12 1929.76,-162.96 1929.76,-162.96 1929.76,-168.96 1923.76,-174.96 1917.76,-174.96"/>
<text xml:space="preserve" text-anchor="middle" x="1764.88" y="-83.13" font-family="Architects Daughter" font-size="18.00">HazelcastSuspendLock</text>
</g>
<!-- n5 -->
<g id="node6" class="node">
<title>n5</title>
<path fill="#ffffff" stroke="#8a72d6" d="M2317.76,-423.14C2317.76,-423.14 2012,-423.14 2012,-423.14 2006,-423.14 2000,-417.14 2000,-411.14 2000,-411.14 2000,-322.82 2000,-322.82 2000,-316.82 2006,-310.82 2012,-310.82 2012,-310.82 2317.76,-310.82 2317.76,-310.82 2323.76,-310.82 2329.76,-316.82 2329.76,-322.82 2329.76,-322.82 2329.76,-411.14 2329.76,-411.14 2329.76,-417.14 2323.76,-423.14 2317.76,-423.14"/>
<text xml:space="preserve" text-anchor="middle" x="2164.88" y="-362.63" font-family="Architects Daughter" font-size="18.00">SuspendLeaderElector</text>
</g>
<!-- n6 -->
<g id="node7" class="node">
<title>n6</title>
<path fill="#ffffff" stroke="#b88a44" d="M1117.76,-175.06C1117.76,-175.06 812,-175.06 812,-175.06 806,-175.06 800,-169.06 800,-163.06 800,-163.06 800,-58.9 800,-58.9 800,-52.9 806,-46.9 812,-46.9 812,-46.9 1117.76,-46.9 1117.76,-46.9 1123.76,-46.9 1129.76,-52.9 1129.76,-58.9 1129.76,-58.9 1129.76,-163.06 1129.76,-163.06 1129.76,-169.06 1123.76,-175.06 1117.76,-175.06"/>
<text xml:space="preserve" text-anchor="middle" x="964.88" y="-106.63" font-family="Architects Daughter" font-size="18.00">Hazelcast Leader Group</text>
</g>
<!-- n7 -->
<g id="node8" class="node">
<title>n7</title>
<path fill="#ffffff" stroke="#8ba84d" d="M2317.76,-175.06C2317.76,-175.06 2012,-175.06 2012,-175.06 2006,-175.06 2000,-169.06 2000,-163.06 2000,-163.06 2000,-58.9 2000,-58.9 2000,-52.9 2006,-46.9 2012,-46.9 2012,-46.9 2317.76,-46.9 2317.76,-46.9 2323.76,-46.9 2329.76,-52.9 2329.76,-58.9 2329.76,-58.9 2329.76,-163.06 2329.76,-163.06 2329.76,-169.06 2323.76,-175.06 2317.76,-175.06"/>
<text xml:space="preserve" text-anchor="middle" x="2164.88" y="-106.63" font-family="Architects Daughter" font-size="18.00">Hazelcast Suspend</text>
</g>
<!-- n8 -->
<g id="node9" class="node">
<title>n8</title>
<path fill="#ffffff" stroke="#5b8def" d="M984.46,-423.14C984.46,-423.14 678.7,-423.14 678.7,-423.14 672.7,-423.14 666.7,-417.14 666.7,-411.14 666.7,-411.14 666.7,-322.82 666.7,-322.82 666.7,-316.82 672.7,-310.82 678.7,-310.82 678.7,-310.82 984.46,-310.82 984.46,-310.82 990.46,-310.82 996.46,-316.82 996.46,-322.82 996.46,-322.82 996.46,-411.14 996.46,-411.14 996.46,-417.14 990.46,-423.14 984.46,-423.14"/>
<text xml:space="preserve" text-anchor="middle" x="831.58" y="-362.63" font-family="Architects Daughter" font-size="18.00">LeaderGroupElector</text>
</g>
<!-- n9 -->
<g id="node10" class="node">
<title>n9</title>
<path fill="#ffffff" stroke="#58a978" d="M1651.06,-423.06C1651.06,-423.06 1345.3,-423.06 1345.3,-423.06 1339.3,-423.06 1333.3,-417.06 1333.3,-411.06 1333.3,-411.06 1333.3,-306.9 1333.3,-306.9 1333.3,-300.9 1339.3,-294.9 1345.3,-294.9 1345.3,-294.9 1651.06,-294.9 1651.06,-294.9 1657.06,-294.9 1663.06,-300.9 1663.06,-306.9 1663.06,-306.9 1663.06,-411.06 1663.06,-411.06 1663.06,-417.06 1657.06,-423.06 1651.06,-423.06"/>
<text xml:space="preserve" text-anchor="middle" x="1498.18" y="-354.63" font-family="Architects Daughter" font-size="18.00">Suspend Leader Group</text>
</g>
<!-- r1p1 -->
<!-- r1p2 -->
<!-- r2p1 -->
<!-- r2p2 -->
<!-- r3p1 -->
<!-- r3p2 -->
<!-- r4p1 -->
<!-- r4p2 -->
<!-- r5p1 -->
<!-- r5p2 -->
<!-- r6p1 -->
<!-- r6p2 -->
<!-- r7p1 -->
<!-- r7p2 -->
<!-- r8p1 -->
<!-- r8p2 -->
</g>
</svg>
