<svg xmlns="http://www.w3.org/2000/svg" width="1260" height="760" viewBox="0 0 1260 760" role="img" aria-label="leader micrometer Architecture">
  <metadata id="graphviz-evidence">Regenerated with Graphviz evidence: leader-micrometer-architecture-01.dot, leader-micrometer-architecture-01.plain, leader-micrometer-architecture-01-graphviz.svg via scripts/regenerate-readme-diagram-graphviz-evidence.mjs.</metadata>
<defs>
  <filter id="shadow" x="-8%" y="-8%" width="116%" height="116%"><feDropShadow dx="0" dy="8" stdDeviation="9" flood-color="#1f2937" flood-opacity="0.10"/></filter>
  <marker id="openArrow" markerWidth="12" markerHeight="10" refX="10" refY="5" orient="auto" markerUnits="strokeWidth"><path d="M 1 1 L 10 5 L 1 9" fill="none" stroke="#758297" stroke-width="1.8" stroke-linecap="round" stroke-linejoin="round"/></marker>
  <style>
    .canvas{fill:#f7f9fc}.frame{fill:#fff;stroke:#d8e0ea;stroke-width:1.5}
    .title{font-family:"Architects Daughter","Comic Mono","Comic Sans MS","Comic Sans",cursive;font-size:43px;font-weight:400;fill:#102033}
    .subtitle{font-family:"Comic Mono","Comic Sans MS","Comic Sans","Comic Neue",Arial,sans-serif;font-size:15px;font-weight:400;fill:#536273}
    .smallLabel{font-family:"Architects Daughter","Comic Mono","Comic Sans MS","Comic Sans",cursive;font-size:21px;font-weight:400;fill:#102033}
    .mono{font-family:"Comic Mono","Comic Sans MS","Comic Sans","Comic Neue",Arial,sans-serif;font-size:12px;font-weight:400;fill:#102033}
    .card{stroke-width:2.1;filter:url(#shadow)}
    .line{stroke:#758297;stroke-width:2.1;fill:none;marker-end:url(#openArrow)}
  </style>
</defs>
<rect class="canvas" width="1260" height="760"/>
<rect class="frame" x="32" y="28" width="1196" height="704" rx="28"/>
<text class="title" x="66" y="82">leader micrometer Architecture</text>
<text class="subtitle" x="70" y="118">AOP, direct elector, and listener paths converge on a Micrometer MeterRegistry</text>
<path class="line" d="M370 219 L450 219"/>
<path class="line" d="M1020 293 L1020 318 L960 318 L960 340"/>
<path class="line" d="M610 258 L610 310 L390 310 L390 664 L450 664"/>
<path class="line" d="M960 448 L960 585 L690 585 L690 610"/>
<path class="line" d="M370 509 L450 509"/>
<path class="line" d="M610 563 L610 610"/>
<path class="line" d="M770 664 L815 664 L815 654 L860 654"/>
<g id="annotations" transform="translate(70,165)">
  <rect class="card" x="0" y="0" width="300" height="108" rx="14" fill="#E8F3FF" stroke="#5B8DEF"/>
  <text class="smallLabel" x="150" y="39" text-anchor="middle">@LeaderElection</text>
  <text class="smallLabel" x="150" y="66" text-anchor="middle">@LeaderGroupElection</text>
</g>
<g id="recorder" transform="translate(450,150)">
  <rect class="card" x="0" y="0" width="320" height="108" rx="14" fill="#EAF7EF" stroke="#58A978"/>
  <text class="smallLabel" x="160" y="39" text-anchor="middle">Micrometer Leader</text>
  <text class="smallLabel" x="160" y="66" text-anchor="middle">Aop Metrics Recorder</text>
</g>
<g id="direct" transform="translate(870,185)">
  <rect class="card" x="0" y="0" width="300" height="108" rx="14" fill="#FFF3D9" stroke="#D6A441"/>
  <text class="smallLabel" x="150" y="54" text-anchor="middle">Direct elector calls</text>
</g>
<g id="decorators" transform="translate(800,340)">
  <rect class="card" x="0" y="0" width="320" height="108" rx="14" fill="#FDECEF" stroke="#DC6B82"/>
  <text class="smallLabel" x="160" y="39" text-anchor="middle">Instrumented*Elector</text>
  <text class="smallLabel" x="160" y="66" text-anchor="middle">decorators</text>
</g>
<g id="callbacks" transform="translate(70,455)">
  <rect class="card" x="0" y="0" width="300" height="108" rx="14" fill="#E9F7F6" stroke="#45A7A1"/>
  <text class="smallLabel" x="150" y="39" text-anchor="middle">Leader Election</text>
  <text class="smallLabel" x="150" y="66" text-anchor="middle">Listener callbacks</text>
</g>
<g id="listener" transform="translate(450,455)">
  <rect class="card" x="0" y="0" width="320" height="108" rx="14" fill="#F1ECFF" stroke="#8A72D6"/>
  <text class="smallLabel" x="160" y="39" text-anchor="middle">Micrometer Leader</text>
  <text class="smallLabel" x="160" y="66" text-anchor="middle">Election Listener</text>
</g>
<g id="registry" transform="translate(450,610)">
  <rect class="card" x="0" y="0" width="320" height="108" rx="14" fill="#F7F1E7" stroke="#B88A44"/>
  <text class="smallLabel" x="160" y="54" text-anchor="middle">MeterRegistry</text>
</g>
<g id="exporters" transform="translate(860,600)">
  <rect class="card" x="0" y="0" width="320" height="108" rx="14" fill="#EEF6D9" stroke="#8BA84D"/>
  <text class="smallLabel" x="160" y="39" text-anchor="middle">Prometheus / Datadog</text>
  <text class="smallLabel" x="160" y="66" text-anchor="middle">/ OTLP</text>
</g>
</svg>
