<?xml version="1.0" encoding="UTF-8" standalone="no"?>
<!DOCTYPE svg PUBLIC "-//W3C//DTD SVG 1.1//EN"
 "http://www.w3.org/Graphics/SVG/1.1/DTD/svg11.dtd">
<!-- Generated by graphviz version 15.0.0 (20260523.1842)
 -->
<!-- Title: leader&#45;redis&#45;redisson&#45;sequence&#45;02 Pages: 1 -->
<svg width="894pt" height="440pt"
 viewBox="0.00 0.00 894.00 440.00" xmlns="http://www.w3.org/2000/svg" xmlns:xlink="http://www.w3.org/1999/xlink">
<g id="graph0" class="graph" transform="scale(1 1) rotate(0) translate(4 436)">
<title>leader&#45;redis&#45;redisson&#45;sequence&#45;02</title>
<!-- caller -->
<g id="node1" class="node">
<title>caller</title>
<path fill="#f8fafc" stroke="#94a3b8" d="M49,-237C49,-237 12,-237 12,-237 6,-237 0,-231 0,-225 0,-225 0,-213 0,-213 0,-207 6,-201 12,-201 12,-201 49,-201 49,-201 55,-201 61,-207 61,-213 61,-213 61,-225 61,-225 61,-231 55,-237 49,-237"/>
<text xml:space="preserve" text-anchor="middle" x="30.5" y="-213.57" font-family="Comic Mono" font-size="14.00">Caller</text>
</g>
<!-- elector -->
<g id="node2" class="node">
<title>elector</title>
<path fill="#f8fafc" stroke="#94a3b8" d="M440,-237C440,-237 328,-237 328,-237 322,-237 316,-231 316,-225 316,-225 316,-213 316,-213 316,-207 322,-201 328,-201 328,-201 440,-201 440,-201 446,-201 452,-207 452,-213 452,-213 452,-225 452,-225 452,-231 446,-237 440,-237"/>
<text xml:space="preserve" text-anchor="middle" x="384" y="-213.57" font-family="Comic Mono" font-size="14.00">Redisson elector</text>
</g>
<!-- caller&#45;&gt;elector -->
<g id="edge1" class="edge">
<title>caller&#45;&gt;elector</title>
<path fill="none" stroke="#4f83bf" d="M61.25,-210C61.25,-210 307.3,-210 307.3,-210"/>
<polygon fill="#4f83bf" stroke="#4f83bf" points="307.3,-212.45 314.3,-210 307.3,-207.55 307.3,-212.45"/>
<text xml:space="preserve" text-anchor="middle" x="188.5" y="-288.5" font-family="Comic Mono" font-size="10.00">runIfLeader(lockName, options, body)</text>
</g>
<!-- elector&#45;&gt;caller -->
<g id="edge7" class="edge">
<title>elector&#45;&gt;caller</title>
<path fill="none" stroke="#3e9868" d="M315.84,-219C315.84,-219 69.59,-219 69.59,-219"/>
<polygon fill="#3e9868" stroke="#3e9868" points="69.59,-216.55 62.59,-219 69.59,-221.45 69.59,-216.55"/>
<text xml:space="preserve" text-anchor="middle" x="188.5" y="-221.5" font-family="Comic Mono" font-size="10.00">return body result</text>
</g>
<!-- elector&#45;&gt;caller -->
<g id="edge10" class="edge">
<title>elector&#45;&gt;caller</title>
<path fill="none" stroke="#c94d68" d="M315.84,-228C315.84,-228 69.59,-228 69.59,-228"/>
<polygon fill="#c94d68" stroke="#c94d68" points="69.59,-225.55 62.59,-228 69.59,-230.45 69.59,-225.55"/>
<text xml:space="preserve" text-anchor="middle" x="188.5" y="-154.5" font-family="Comic Mono" font-size="10.00">return skipped result</text>
</g>
<!-- backend -->
<g id="node3" class="node">
<title>backend</title>
<path fill="#f8fafc" stroke="#94a3b8" d="M873.75,-337C873.75,-337 776.75,-337 776.75,-337 770.75,-337 764.75,-331 764.75,-325 764.75,-325 764.75,-313 764.75,-313 764.75,-307 770.75,-301 776.75,-301 776.75,-301 873.75,-301 873.75,-301 879.75,-301 885.75,-307 885.75,-313 885.75,-313 885.75,-325 885.75,-325 885.75,-331 879.75,-337 873.75,-337"/>
<text xml:space="preserve" text-anchor="middle" x="825.25" y="-313.57" font-family="Comic Mono" font-size="14.00">Redisson RLock</text>
</g>
<!-- elector&#45;&gt;backend -->
<g id="edge2" class="edge">
<title>elector&#45;&gt;backend</title>
<path fill="none" stroke="#b9851b" d="M452.43,-231.86C563.74,-231.86 771.75,-231.86 771.75,-231.86 771.75,-231.86 771.75,-292.01 771.75,-292.01"/>
<polygon fill="#b9851b" stroke="#b9851b" points="769.3,-292.01 771.75,-299.01 774.2,-292.01 769.3,-292.01"/>
<text xml:space="preserve" text-anchor="middle" x="608.38" y="-422.5" font-family="Comic Mono" font-size="10.00">tryLock(waitTime, leaseTime)</text>
</g>
<!-- elector&#45;&gt;backend -->
<g id="edge6" class="edge">
<title>elector&#45;&gt;backend</title>
<path fill="none" stroke="#755bc6" d="M452.06,-216.43C575.97,-216.43 825.75,-216.43 825.75,-216.43 825.75,-216.43 825.75,-292.15 825.75,-292.15"/>
<polygon fill="#755bc6" stroke="#755bc6" points="823.3,-292.15 825.75,-299.15 828.2,-292.15 823.3,-292.15"/>
<text xml:space="preserve" text-anchor="middle" x="608.38" y="-355.5" font-family="Comic Mono" font-size="10.00">unlock only when current owner still holds lock</text>
</g>
<!-- body -->
<g id="node4" class="node">
<title>body</title>
<path fill="#f8fafc" stroke="#94a3b8" d="M862.5,-146C862.5,-146 788,-146 788,-146 782,-146 776,-140 776,-134 776,-134 776,-122 776,-122 776,-116 782,-110 788,-110 788,-110 862.5,-110 862.5,-110 868.5,-110 874.5,-116 874.5,-122 874.5,-122 874.5,-134 874.5,-134 874.5,-140 868.5,-146 862.5,-146"/>
<text xml:space="preserve" text-anchor="middle" x="825.25" y="-122.58" font-family="Comic Mono" font-size="14.00">Leader body</text>
</g>
<!-- elector&#45;&gt;body -->
<g id="edge4" class="edge">
<title>elector&#45;&gt;body</title>
<path fill="none" stroke="#4f83bf" d="M452.38,-211.29C583.58,-211.29 857.75,-211.29 857.75,-211.29 857.75,-211.29 857.75,-155 857.75,-155"/>
<polygon fill="#4f83bf" stroke="#4f83bf" points="860.2,-155 857.75,-148 855.3,-155 860.2,-155"/>
<text xml:space="preserve" text-anchor="middle" x="608.38" y="-154.5" font-family="Comic Mono" font-size="10.00">execute protected leader body</text>
</g>
<!-- cleanup -->
<g id="node5" class="node">
<title>cleanup</title>
<path fill="#f8fafc" stroke="#94a3b8" d="M870,-36C870,-36 780.5,-36 780.5,-36 774.5,-36 768.5,-30 768.5,-24 768.5,-24 768.5,-12 768.5,-12 768.5,-6 774.5,0 780.5,0 780.5,0 870,0 870,0 876,0 882,-6 882,-12 882,-12 882,-24 882,-24 882,-30 876,-36 870,-36"/>
<text xml:space="preserve" text-anchor="middle" x="825.25" y="-12.57" font-family="Comic Mono" font-size="14.00">Recovery path</text>
</g>
<!-- elector&#45;&gt;cleanup -->
<g id="edge9" class="edge">
<title>elector&#45;&gt;cleanup</title>
<path fill="none" stroke="#2e8f89" d="M383.75,-200.81C383.75,-151.33 383.75,-18 383.75,-18 383.75,-18 759.92,-18 759.92,-18"/>
<polygon fill="#2e8f89" stroke="#2e8f89" points="759.92,-20.45 766.92,-18 759.92,-15.55 759.92,-20.45"/>
<text xml:space="preserve" text-anchor="middle" x="608.38" y="-20.5" font-family="Comic Mono" font-size="10.00">watchdog or lease expiry clears abandoned lock</text>
</g>
<!-- backend&#45;&gt;elector -->
<g id="edge3" class="edge">
<title>backend&#45;&gt;elector</title>
<path fill="none" stroke="#3e9868" d="M792.75,-300.77C792.75,-273.87 792.75,-226.71 792.75,-226.71 792.75,-226.71 460.93,-226.71 460.93,-226.71"/>
<polygon fill="#3e9868" stroke="#3e9868" points="460.93,-224.26 453.93,-226.71 460.93,-229.16 460.93,-224.26"/>
<text xml:space="preserve" text-anchor="middle" x="608.38" y="-288.5" font-family="Comic Mono" font-size="10.00">token accepted</text>
</g>
<!-- backend&#45;&gt;elector -->
<g id="edge8" class="edge">
<title>backend&#45;&gt;elector</title>
<path fill="none" stroke="#c94d68" d="M808.75,-300.67C808.75,-272.45 808.75,-221.57 808.75,-221.57 808.75,-221.57 460.76,-221.57 460.76,-221.57"/>
<polygon fill="#c94d68" stroke="#c94d68" points="460.76,-219.12 453.76,-221.57 460.76,-224.02 460.76,-219.12"/>
<text xml:space="preserve" text-anchor="middle" x="608.38" y="-221.5" font-family="Comic Mono" font-size="10.00">existing owner token blocks acquire</text>
</g>
<!-- body&#45;&gt;elector -->
<g id="edge5" class="edge">
<title>body&#45;&gt;elector</title>
<path fill="none" stroke="#3e9868" d="M841.75,-146.12C841.75,-169.21 841.75,-206.14 841.75,-206.14 841.75,-206.14 460.55,-206.14 460.55,-206.14"/>
<polygon fill="#3e9868" stroke="#3e9868" points="460.55,-203.69 453.55,-206.14 460.55,-208.59 460.55,-203.69"/>
<text xml:space="preserve" text-anchor="middle" x="608.38" y="-87.5" font-family="Comic Mono" font-size="10.00">body result</text>
</g>
</g>
</svg>
