<?xml version="1.0" encoding="UTF-8" standalone="no"?>
<!DOCTYPE svg PUBLIC "-//W3C//DTD SVG 1.1//EN"
 "http://www.w3.org/Graphics/SVG/1.1/DTD/svg11.dtd">
<!-- Generated by graphviz version 15.0.0 (20260523.1842)
 -->
<!-- Title: leader&#45;core&#45;sequence&#45;02 Pages: 1 -->
<svg width="1036pt" height="105pt"
 viewBox="0.00 0.00 1036.00 105.00" xmlns="http://www.w3.org/2000/svg" xmlns:xlink="http://www.w3.org/1999/xlink">
<g id="graph0" class="graph" transform="scale(1 1) rotate(0) translate(4 100.5)">
<title>leader&#45;core&#45;sequence&#45;02</title>
<text xml:space="preserve" text-anchor="middle" x="513.84" y="-79.2" font-family="Times,serif" font-size="14.00">Single&#45;leader: lock acquire/release</text>
<!-- n0&#45;&gt;n1 -->
<g id="edge1" class="edge">
<title>n0&#45;&gt;n1</title>
<path fill="none" stroke="#758297" stroke-width="1.8" d="M229.98,-60C229.98,-60 387.82,-60 387.82,-60"/>
<polygon fill="#758297" stroke="#758297" stroke-width="1.8" points="387.82,-62.8 395.82,-60 387.82,-57.2 387.82,-62.8"/>
</g>
<!-- n0&#45;&gt;n1 -->
<g id="edge5" class="edge">
<title>n0&#45;&gt;n1</title>
<path fill="none" stroke="#758297" stroke-width="1.8" stroke-dasharray="5,2" d="M229.98,-36C229.98,-36 387.82,-36 387.82,-36"/>
<polygon fill="#758297" stroke="#758297" stroke-width="1.8" points="387.82,-38.8 395.82,-36 387.82,-33.2 387.82,-38.8"/>
</g>
<!-- n1&#45;&gt;n0 -->
<g id="edge4" class="edge">
<title>n1&#45;&gt;n0</title>
<path fill="none" stroke="#758297" stroke-width="1.8" d="M398.7,-24C398.7,-24 240.86,-24 240.86,-24"/>
<polygon fill="#758297" stroke="#758297" stroke-width="1.8" points="240.86,-21.2 232.86,-24 240.86,-26.8 240.86,-21.2"/>
</g>
<!-- n1&#45;&gt;n0 -->
<g id="edge7" class="edge">
<title>n1&#45;&gt;n0</title>
<path fill="none" stroke="#758297" stroke-width="1.8" stroke-dasharray="5,2" d="M398.7,-12C398.7,-12 240.86,-12 240.86,-12"/>
<polygon fill="#758297" stroke="#758297" stroke-width="1.8" points="240.86,-9.2 232.86,-12 240.86,-14.8 240.86,-9.2"/>
</g>
<!-- n1&#45;&gt;n0 -->
<g id="edge9" class="edge">
<title>n1&#45;&gt;n0</title>
<path fill="none" stroke="#758297" stroke-width="1.8" stroke-dasharray="5,2" d="M398.7,-48C398.7,-48 240.86,-48 240.86,-48"/>
<polygon fill="#758297" stroke="#758297" stroke-width="1.8" points="240.86,-45.2 232.86,-48 240.86,-50.8 240.86,-45.2"/>
</g>
<!-- n1&#45;&gt;n2 -->
<g id="edge2" class="edge">
<title>n1&#45;&gt;n2</title>
<path fill="none" stroke="#758297" stroke-width="1.8" d="M628.98,-58C628.98,-58 786.82,-58 786.82,-58"/>
<polygon fill="#758297" stroke="#758297" stroke-width="1.8" points="786.82,-60.8 794.82,-58 786.82,-55.2 786.82,-60.8"/>
</g>
<!-- n1&#45;&gt;n2 -->
<g id="edge6" class="edge">
<title>n1&#45;&gt;n2</title>
<path fill="none" stroke="#758297" stroke-width="1.8" d="M628.98,-43C628.98,-43 786.82,-43 786.82,-43"/>
<polygon fill="#758297" stroke="#758297" stroke-width="1.8" points="786.82,-45.8 794.82,-43 786.82,-40.2 786.82,-45.8"/>
</g>
<!-- n2&#45;&gt;n1 -->
<g id="edge3" class="edge">
<title>n2&#45;&gt;n1</title>
<path fill="none" stroke="#758297" stroke-width="1.8" stroke-dasharray="5,2" d="M797.7,-29C797.7,-29 639.86,-29 639.86,-29"/>
<polygon fill="#758297" stroke="#758297" stroke-width="1.8" points="639.86,-26.2 631.86,-29 639.86,-31.8 639.86,-26.2"/>
</g>
<!-- n2&#45;&gt;n1 -->
<g id="edge8" class="edge">
<title>n2&#45;&gt;n1</title>
<path fill="none" stroke="#758297" stroke-width="1.8" stroke-dasharray="5,2" d="M797.7,-14C797.7,-14 639.86,-14 639.86,-14"/>
<polygon fill="#758297" stroke="#758297" stroke-width="1.8" points="639.86,-11.2 631.86,-14 639.86,-16.8 639.86,-11.2"/>
</g>
<!-- n0 -->
<g id="node1" class="node">
<title>n0</title>
<path fill="#ffffff" stroke="#5b8def" d="M217.68,-72C217.68,-72 12,-72 12,-72 6,-72 0,-66 0,-60 0,-60 0,-12 0,-12 0,-6 6,0 12,0 12,0 217.68,0 217.68,0 223.68,0 229.68,-6 229.68,-12 229.68,-12 229.68,-60 229.68,-60 229.68,-66 223.68,-72 217.68,-72"/>
<text xml:space="preserve" text-anchor="middle" x="114.84" y="-31.65" font-family="Architects Daughter" font-size="18.00">Caller</text>
</g>
<!-- n1 -->
<g id="node2" class="node">
<title>n1</title>
<path fill="#ffffff" stroke="#58a978" d="M616.68,-72C616.68,-72 411,-72 411,-72 405,-72 399,-66 399,-60 399,-60 399,-12 399,-12 399,-6 405,0 411,0 411,0 616.68,0 616.68,0 622.68,0 628.68,-6 628.68,-12 628.68,-12 628.68,-60 628.68,-60 628.68,-66 622.68,-72 616.68,-72"/>
<text xml:space="preserve" text-anchor="middle" x="513.84" y="-31.65" font-family="Architects Daughter" font-size="18.00">LeaderElector</text>
</g>
<!-- n2 -->
<g id="node3" class="node">
<title>n2</title>
<path fill="#ffffff" stroke="#d6a441" d="M1015.68,-72C1015.68,-72 810,-72 810,-72 804,-72 798,-66 798,-60 798,-60 798,-12 798,-12 798,-6 804,0 810,0 810,0 1015.68,0 1015.68,0 1021.68,0 1027.68,-6 1027.68,-12 1027.68,-12 1027.68,-60 1027.68,-60 1027.68,-66 1021.68,-72 1015.68,-72"/>
<text xml:space="preserve" text-anchor="middle" x="912.84" y="-31.65" font-family="Architects Daughter" font-size="18.00">LockStore</text>
</g>
</g>
</svg>
