<?xml version="1.0" encoding="UTF-8" standalone="no"?>
<!DOCTYPE svg PUBLIC "-//W3C//DTD SVG 1.1//EN"
 "http://www.w3.org/Graphics/SVG/1.1/DTD/svg11.dtd">
<!-- Generated by graphviz version 15.0.0 (20260523.1842)
 -->
<!-- Title: leader&#45;core&#45;sequence&#45;03 Pages: 1 -->
<svg width="851pt" height="428pt"
 viewBox="0.00 0.00 851.00 428.00" xmlns="http://www.w3.org/2000/svg" xmlns:xlink="http://www.w3.org/1999/xlink">
<g id="graph0" class="graph" transform="scale(1 1) rotate(0) translate(4 424)">
<title>leader&#45;core&#45;sequence&#45;03</title>
<!-- caller -->
<g id="node1" class="node">
<title>caller</title>
<path fill="#f8fafc" stroke="#94a3b8" d="M49,-219C49,-219 12,-219 12,-219 6,-219 0,-213 0,-207 0,-207 0,-195 0,-195 0,-189 6,-183 12,-183 12,-183 49,-183 49,-183 55,-183 61,-189 61,-195 61,-195 61,-207 61,-207 61,-213 55,-219 49,-219"/>
<text xml:space="preserve" text-anchor="middle" x="30.5" y="-195.57" font-family="Comic Mono" font-size="14.00">Caller</text>
</g>
<!-- group -->
<g id="node2" class="node">
<title>group</title>
<path fill="#f8fafc" stroke="#94a3b8" d="M476,-219C476,-219 349,-219 349,-219 343,-219 337,-213 337,-207 337,-207 337,-195 337,-195 337,-189 343,-183 349,-183 349,-183 476,-183 476,-183 482,-183 488,-189 488,-195 488,-195 488,-207 488,-207 488,-213 482,-219 476,-219"/>
<text xml:space="preserve" text-anchor="middle" x="412.5" y="-195.57" font-family="Comic Mono" font-size="14.00">Core group elector</text>
</g>
<!-- caller&#45;&gt;group -->
<g id="edge1" class="edge">
<title>caller&#45;&gt;group</title>
<path fill="none" stroke="#4f83bf" d="M61.44,-192C61.44,-192 328.08,-192 328.08,-192"/>
<polygon fill="#4f83bf" stroke="#4f83bf" points="328.08,-194.45 335.08,-192 328.08,-189.55 328.08,-194.45"/>
<text xml:space="preserve" text-anchor="middle" x="199" y="-270.5" font-family="Comic Mono" font-size="10.00">runIfLeader(groupName, maxLeaders, body)</text>
</g>
<!-- group&#45;&gt;caller -->
<g id="edge8" class="edge">
<title>group&#45;&gt;caller</title>
<path fill="none" stroke="#3e9868" d="M336.57,-201C336.57,-201 69.78,-201 69.78,-201"/>
<polygon fill="#3e9868" stroke="#3e9868" points="69.78,-198.55 62.78,-201 69.78,-203.45 69.78,-198.55"/>
<text xml:space="preserve" text-anchor="middle" x="199" y="-203.5" font-family="Comic Mono" font-size="10.00">return group result and slot</text>
</g>
<!-- group&#45;&gt;caller -->
<g id="edge10" class="edge">
<title>group&#45;&gt;caller</title>
<path fill="none" stroke="#c94d68" d="M336.57,-210C336.57,-210 69.78,-210 69.78,-210"/>
<polygon fill="#c94d68" stroke="#c94d68" points="69.78,-207.55 62.78,-210 69.78,-212.45 69.78,-207.55"/>
<text xml:space="preserve" text-anchor="middle" x="199" y="-136.5" font-family="Comic Mono" font-size="10.00">return skipped group result</text>
</g>
<!-- slots -->
<g id="node3" class="node">
<title>slots</title>
<path fill="#f8fafc" stroke="#94a3b8" d="M831,-420C831,-420 734,-420 734,-420 728,-420 722,-414 722,-408 722,-408 722,-396 722,-396 722,-390 728,-384 734,-384 734,-384 831,-384 831,-384 837,-384 843,-390 843,-396 843,-396 843,-408 843,-408 843,-414 837,-420 831,-420"/>
<text xml:space="preserve" text-anchor="middle" x="782.5" y="-396.57" font-family="Comic Mono" font-size="14.00">Slot namespace</text>
</g>
<!-- group&#45;&gt;slots -->
<g id="edge2" class="edge">
<title>group&#45;&gt;slots</title>
<path fill="none" stroke="#2e8f89" d="M412,-219.19C412,-268.67 412,-402 412,-402 412,-402 713.22,-402 713.22,-402"/>
<polygon fill="#2e8f89" stroke="#2e8f89" points="713.22,-404.45 720.22,-402 713.22,-399.55 713.22,-404.45"/>
<text xml:space="preserve" text-anchor="middle" x="605" y="-404.5" font-family="Comic Mono" font-size="10.00">build slot keys 0..maxLeaders&#45;1</text>
</g>
<!-- backend -->
<g id="node4" class="node">
<title>backend</title>
<path fill="#f8fafc" stroke="#94a3b8" d="M831,-253C831,-253 734,-253 734,-253 728,-253 722,-247 722,-241 722,-241 722,-229 722,-229 722,-223 728,-217 734,-217 734,-217 831,-217 831,-217 837,-217 843,-223 843,-229 843,-229 843,-241 843,-241 843,-247 837,-253 831,-253"/>
<text xml:space="preserve" text-anchor="middle" x="782.5" y="-229.57" font-family="Comic Mono" font-size="14.00">Slot primitive</text>
</g>
<!-- group&#45;&gt;backend -->
<g id="edge3" class="edge">
<title>group&#45;&gt;backend</title>
<path fill="none" stroke="#b9851b" d="M488.38,-197.57C582.59,-197.57 731,-197.57 731,-197.57 731,-197.57 731,-208.21 731,-208.21"/>
<polygon fill="#b9851b" stroke="#b9851b" points="728.55,-208.21 731,-215.21 733.45,-208.21 728.55,-208.21"/>
<text xml:space="preserve" text-anchor="middle" x="605" y="-337.5" font-family="Comic Mono" font-size="10.00">tryAcquire first free slot token</text>
</g>
<!-- group&#45;&gt;backend -->
<g id="edge7" class="edge">
<title>group&#45;&gt;backend</title>
<path fill="none" stroke="#755bc6" d="M488.28,-202.43C583.33,-202.43 734,-202.43 734,-202.43 734,-202.43 734,-208.3 734,-208.3"/>
<polygon fill="#755bc6" stroke="#755bc6" points="731.55,-208.3 734,-215.3 736.45,-208.3 731.55,-208.3"/>
<text xml:space="preserve" text-anchor="middle" x="605" y="-270.5" font-family="Comic Mono" font-size="10.00">release owned slot token</text>
</g>
<!-- body -->
<g id="node5" class="node">
<title>body</title>
<path fill="#f8fafc" stroke="#94a3b8" d="M816,-52C816,-52 749,-52 749,-52 743,-52 737,-46 737,-40 737,-40 737,-28 737,-28 737,-22 743,-16 749,-16 749,-16 816,-16 816,-16 822,-16 828,-22 828,-28 828,-28 828,-40 828,-40 828,-46 822,-52 816,-52"/>
<text xml:space="preserve" text-anchor="middle" x="782.5" y="-28.57" font-family="Comic Mono" font-size="14.00">Group body</text>
</g>
<!-- group&#45;&gt;body -->
<g id="edge5" class="edge">
<title>group&#45;&gt;body</title>
<path fill="none" stroke="#4f83bf" d="M488.11,-187.86C592.23,-187.86 767,-187.86 767,-187.86 767,-187.86 767,-60.77 767,-60.77"/>
<polygon fill="#4f83bf" stroke="#4f83bf" points="769.45,-60.77 767,-53.77 764.55,-60.77 769.45,-60.77"/>
<text xml:space="preserve" text-anchor="middle" x="605" y="-69.5" font-family="Comic Mono" font-size="10.00">execute body for owned slot</text>
</g>
<!-- backend&#45;&gt;group -->
<g id="edge4" class="edge">
<title>backend&#45;&gt;group</title>
<path fill="none" stroke="#3e9868" d="M725,-216.55C725,-213.95 725,-212.14 725,-212.14 725,-212.14 496.66,-212.14 496.66,-212.14"/>
<polygon fill="#3e9868" stroke="#3e9868" points="496.66,-209.69 489.66,-212.14 496.66,-214.59 496.66,-209.69"/>
<text xml:space="preserve" text-anchor="middle" x="605" y="-203.5" font-family="Comic Mono" font-size="10.00">slot token accepted</text>
</g>
<!-- backend&#45;&gt;group -->
<g id="edge9" class="edge">
<title>backend&#45;&gt;group</title>
<path fill="none" stroke="#c94d68" d="M728,-216.67C728,-211.51 728,-207.29 728,-207.29 728,-207.29 496.99,-207.29 496.99,-207.29"/>
<polygon fill="#c94d68" stroke="#c94d68" points="496.99,-204.84 489.99,-207.29 496.99,-209.74 496.99,-204.84"/>
<text xml:space="preserve" text-anchor="middle" x="605" y="-136.5" font-family="Comic Mono" font-size="10.00">no slot accepted before waitTime</text>
</g>
<!-- body&#45;&gt;group -->
<g id="edge6" class="edge">
<title>body&#45;&gt;group</title>
<path fill="none" stroke="#3e9868" d="M798,-52.21C798,-93.9 798,-192.71 798,-192.71 798,-192.71 496.72,-192.71 496.72,-192.71"/>
<polygon fill="#3e9868" stroke="#3e9868" points="496.72,-190.26 489.72,-192.71 496.72,-195.16 496.72,-190.26"/>
<text xml:space="preserve" text-anchor="middle" x="605" y="-2.5" font-family="Comic Mono" font-size="10.00">slot result</text>
</g>
</g>
</svg>
