<?xml version="1.0" encoding="UTF-8" standalone="no"?>
<!DOCTYPE svg PUBLIC "-//W3C//DTD SVG 1.1//EN"
 "http://www.w3.org/Graphics/SVG/1.1/DTD/svg11.dtd">
<!-- Generated by graphviz version 15.0.0 (20260523.1842)
 -->
<!-- Title: leader&#45;redis&#45;redisson&#45;sequence&#45;02 Pages: 1 -->
<svg width="1316pt" height="1188pt"
 viewBox="0.00 0.00 1316.00 1188.00" xmlns="http://www.w3.org/2000/svg" xmlns:xlink="http://www.w3.org/1999/xlink">
<g id="graph0" class="graph" transform="scale(1 1) rotate(0) translate(4 1183.5)">
<title>leader&#45;redis&#45;redisson&#45;sequence&#45;02</title>
<text xml:space="preserve" text-anchor="middle" x="654.12" y="-1162.2" font-family="Times,serif" font-size="14.00">Scenario 1 — Normal acquire/release plus cra.</text>
<!-- n0&#45;&gt;n2 -->
<g id="edge1" class="edge">
<title>n0&#45;&gt;n2</title>
<path fill="none" stroke="#758297" stroke-width="1.8" d="M30.02,-1123.34C30.02,-1138.21 30.02,-1152 30.02,-1152 30.02,-1152 1248.19,-1152 1248.19,-1152 1248.19,-1152 1248.19,-1134.06 1248.19,-1134.06"/>
<polygon fill="#758297" stroke="#758297" stroke-width="1.8" points="1250.99,-1134.06 1248.19,-1126.06 1245.39,-1134.06 1250.99,-1134.06"/>
</g>
<!-- n0&#45;&gt;n2 -->
<g id="edge2" class="edge">
<title>n0&#45;&gt;n2</title>
<path fill="none" stroke="#758297" stroke-width="1.8" d="M60.05,-1123.57C60.05,-1136.55 60.05,-1148 60.05,-1148 60.05,-1148 1218.17,-1148 1218.17,-1148 1218.17,-1148 1218.17,-1134.3 1218.17,-1134.3"/>
<polygon fill="#758297" stroke="#758297" stroke-width="1.8" points="1220.97,-1134.3 1218.17,-1126.3 1215.37,-1134.3 1220.97,-1134.3"/>
</g>
<!-- n0&#45;&gt;n2 -->
<g id="edge4" class="edge">
<title>n0&#45;&gt;n2</title>
<path fill="none" stroke="#758297" stroke-width="1.8" d="M90.07,-1123.43C90.07,-1135.07 90.07,-1145 90.07,-1145 90.07,-1145 1188.14,-1145 1188.14,-1145 1188.14,-1145 1188.14,-1134.16 1188.14,-1134.16"/>
<polygon fill="#758297" stroke="#758297" stroke-width="1.8" points="1190.94,-1134.16 1188.14,-1126.16 1185.34,-1134.16 1190.94,-1134.16"/>
</g>
<!-- n0&#45;&gt;n2 -->
<g id="edge11" class="edge">
<title>n0&#45;&gt;n2</title>
<path fill="none" stroke="#758297" stroke-width="1.8" d="M120.1,-1123.34C120.1,-1133.1 120.1,-1141 120.1,-1141 120.1,-1141 1158.12,-1141 1158.12,-1141 1158.12,-1141 1158.12,-1134.07 1158.12,-1134.07"/>
<polygon fill="#758297" stroke="#758297" stroke-width="1.8" points="1160.92,-1134.07 1158.12,-1126.07 1155.32,-1134.07 1160.92,-1134.07"/>
</g>
<!-- n0&#45;&gt;n2 -->
<g id="edge13" class="edge">
<title>n0&#45;&gt;n2</title>
<path fill="none" stroke="#758297" stroke-width="1.8" d="M150.12,-1123.36C150.12,-1131.1 150.12,-1137 150.12,-1137 150.12,-1137 1128.1,-1137 1128.1,-1137 1128.1,-1137 1128.1,-1134.08 1128.1,-1134.08"/>
<polygon fill="#758297" stroke="#758297" stroke-width="1.8" points="1130.9,-1134.08 1128.1,-1126.08 1125.3,-1134.08 1130.9,-1134.08"/>
</g>
<!-- n0&#45;&gt;r6p1 -->
<g id="edge6" class="edge">
<title>n0&#45;&gt;r6p1</title>
<path fill="none" stroke="#758297" stroke-width="1.8" d="M214.12,-1050.72C214.12,-940.15 214.12,-613.96 214.12,-588.64"/>
</g>
<!-- n0&#45;&gt;r13p1 -->
<g id="edge15" class="edge">
<title>n0&#45;&gt;r13p1</title>
<path fill="none" stroke="#758297" stroke-width="1.8" d="M257.72,-1050.87C257.72,-865.87 257.72,-35 257.72,-35 257.72,-35 223.14,-35 215.57,-35"/>
</g>
<!-- n1&#45;&gt;n2 -->
<g id="edge9" class="edge">
<title>n1&#45;&gt;n2</title>
<path fill="none" stroke="#758297" stroke-width="1.8" d="M804.65,-1109C804.65,-1109 997.2,-1109 997.2,-1109"/>
<polygon fill="#758297" stroke="#758297" stroke-width="1.8" points="997.2,-1111.8 1005.2,-1109 997.2,-1106.2 997.2,-1111.8"/>
</g>
<!-- n1&#45;&gt;n2 -->
<g id="edge18" class="edge">
<title>n1&#45;&gt;n2</title>
<path fill="none" stroke="#758297" stroke-width="1.8" d="M804.65,-1094C804.65,-1094 997.2,-1094 997.2,-1094"/>
<polygon fill="#758297" stroke="#758297" stroke-width="1.8" points="997.2,-1096.8 1005.2,-1094 997.2,-1091.2 997.2,-1096.8"/>
</g>
<!-- n2&#45;&gt;n0 -->
<g id="edge3" class="edge">
<title>n2&#45;&gt;n0</title>
<path fill="none" stroke="#758297" stroke-width="1.8" stroke-dasharray="5,2" d="M1098.07,-1123.12C1098.07,-1129.42 1098.07,-1134 1098.07,-1134 1098.07,-1134 210.17,-1134 210.17,-1134 210.17,-1134 210.17,-1132.91 210.17,-1132.91"/>
<polygon fill="#758297" stroke="#758297" stroke-width="1.8" points="212.97,-1133.84 210.17,-1125.84 207.37,-1133.84 212.97,-1133.84"/>
</g>
<!-- n2&#45;&gt;n0 -->
<g id="edge5" class="edge">
<title>n2&#45;&gt;n0</title>
<path fill="none" stroke="#758297" stroke-width="1.8" stroke-dasharray="5,2" d="M1068.05,-1123.29C1068.05,-1127.32 1068.05,-1130 1068.05,-1130 1068.05,-1130 240.19,-1130 240.19,-1130 240.19,-1130 240.19,-1129.33 240.19,-1129.33"/>
<polygon fill="#758297" stroke="#758297" stroke-width="1.8" points="242.99,-1134.02 240.19,-1126.02 237.39,-1134.02 242.99,-1134.02"/>
</g>
<!-- n2&#45;&gt;n0 -->
<g id="edge12" class="edge">
<title>n2&#45;&gt;n0</title>
<path fill="none" stroke="#758297" stroke-width="1.8" stroke-dasharray="5,2" d="M1038.02,-1123.32C1038.02,-1125.6 1038.02,-1127 1038.02,-1127 1038.02,-1127 270.22,-1127 270.22,-1127 270.22,-1127 270.22,-1126.63 270.22,-1126.63"/>
<polygon fill="#758297" stroke="#758297" stroke-width="1.8" points="273.02,-1134.04 270.22,-1126.04 267.42,-1134.04 273.02,-1134.04"/>
</g>
<!-- n2&#45;&gt;n0 -->
<g id="edge14" class="edge">
<title>n2&#45;&gt;n0</title>
<path fill="none" stroke="#758297" stroke-width="1.8" stroke-dasharray="5,2" d="M1278.22,-1123.43C1278.22,-1139.57 1278.22,-1155 1278.22,-1155 1278.22,-1155 180.14,-1155 180.14,-1155 180.14,-1155 180.14,-1134.15 180.14,-1134.15"/>
<polygon fill="#758297" stroke="#758297" stroke-width="1.8" points="182.94,-1134.15 180.14,-1126.15 177.34,-1134.15 182.94,-1134.15"/>
</g>
<!-- n2&#45;&gt;n1 -->
<g id="edge10" class="edge">
<title>n2&#45;&gt;n1</title>
<path fill="none" stroke="#758297" stroke-width="1.8" stroke-dasharray="5,2" d="M1007.59,-1080C1007.59,-1080 815.04,-1080 815.04,-1080"/>
<polygon fill="#758297" stroke="#758297" stroke-width="1.8" points="815.04,-1077.2 807.04,-1080 815.04,-1082.8 815.04,-1077.2"/>
</g>
<!-- n2&#45;&gt;n1 -->
<g id="edge19" class="edge">
<title>n2&#45;&gt;n1</title>
<path fill="none" stroke="#758297" stroke-width="1.8" stroke-dasharray="5,2" d="M1007.59,-1065C1007.59,-1065 815.04,-1065 815.04,-1065"/>
<polygon fill="#758297" stroke="#758297" stroke-width="1.8" points="815.04,-1062.2 807.04,-1065 815.04,-1067.8 815.04,-1062.2"/>
</g>
<!-- r6p1&#45;&gt;r6p2 -->
<g id="edge7" class="edge">
<title>r6p1&#45;&gt;r6p2</title>
<path fill="none" stroke="#758297" stroke-width="1.8" d="M214.12,-585.62C214.12,-580.03 214.12,-560.02 214.12,-554.5"/>
</g>
<!-- r6p2&#45;&gt;n0 -->
<g id="edge8" class="edge">
<title>r6p2&#45;&gt;n0</title>
<path fill="none" stroke="#758297" stroke-width="1.8" d="M215.59,-553C220.56,-553 236.46,-553 236.46,-553 236.46,-553 236.46,-1040.07 236.46,-1040.07"/>
<polygon fill="#758297" stroke="#758297" stroke-width="1.8" points="233.66,-1040.07 236.46,-1048.07 239.26,-1040.07 233.66,-1040.07"/>
</g>
<!-- r13p1&#45;&gt;r13p2 -->
<g id="edge16" class="edge">
<title>r13p1&#45;&gt;r13p2</title>
<path fill="none" stroke="#758297" stroke-width="1.8" d="M214.12,-33.62C214.12,-28.03 214.12,-8.02 214.12,-2.5"/>
</g>
<!-- r13p2&#45;&gt;n0 -->
<g id="edge17" class="edge">
<title>r13p2&#45;&gt;n0</title>
<path fill="none" stroke="#758297" stroke-width="1.8" d="M215.25,-1C223.86,-1 278.98,-1 278.98,-1 278.98,-1 278.98,-1039.91 278.98,-1039.91"/>
<polygon fill="#758297" stroke="#758297" stroke-width="1.8" points="276.18,-1039.91 278.98,-1047.91 281.78,-1039.91 276.18,-1039.91"/>
</g>
<!-- n0 -->
<g id="node1" class="node">
<title>n0</title>
<path fill="#ffffff" stroke="#5b8def" d="M288.24,-1123.08C288.24,-1123.08 12,-1123.08 12,-1123.08 6,-1123.08 0,-1117.08 0,-1111.08 0,-1111.08 0,-1063.08 0,-1063.08 0,-1057.08 6,-1051.08 12,-1051.08 12,-1051.08 288.24,-1051.08 288.24,-1051.08 294.24,-1051.08 300.24,-1057.08 300.24,-1063.08 300.24,-1063.08 300.24,-1111.08 300.24,-1111.08 300.24,-1117.08 294.24,-1123.08 288.24,-1123.08"/>
<text xml:space="preserve" text-anchor="middle" x="150.12" y="-1082.73" font-family="Architects Daughter" font-size="18.00">ClientA</text>
</g>
<!-- n1 -->
<g id="node2" class="node">
<title>n1</title>
<path fill="#ffffff" stroke="#58a978" d="M792.24,-1123.08C792.24,-1123.08 516,-1123.08 516,-1123.08 510,-1123.08 504,-1117.08 504,-1111.08 504,-1111.08 504,-1063.08 504,-1063.08 504,-1057.08 510,-1051.08 516,-1051.08 516,-1051.08 792.24,-1051.08 792.24,-1051.08 798.24,-1051.08 804.24,-1057.08 804.24,-1063.08 804.24,-1063.08 804.24,-1111.08 804.24,-1111.08 804.24,-1117.08 798.24,-1123.08 792.24,-1123.08"/>
<text xml:space="preserve" text-anchor="middle" x="654.12" y="-1082.73" font-family="Architects Daughter" font-size="18.00">ClientB</text>
</g>
<!-- n2 -->
<g id="node3" class="node">
<title>n2</title>
<path fill="#ffffff" stroke="#d6a441" d="M1296.24,-1123.08C1296.24,-1123.08 1020,-1123.08 1020,-1123.08 1014,-1123.08 1008,-1117.08 1008,-1111.08 1008,-1111.08 1008,-1063.08 1008,-1063.08 1008,-1057.08 1014,-1051.08 1020,-1051.08 1020,-1051.08 1296.24,-1051.08 1296.24,-1051.08 1302.24,-1051.08 1308.24,-1057.08 1308.24,-1063.08 1308.24,-1063.08 1308.24,-1111.08 1308.24,-1111.08 1308.24,-1117.08 1302.24,-1123.08 1296.24,-1123.08"/>
<text xml:space="preserve" text-anchor="middle" x="1158.12" y="-1082.73" font-family="Architects Daughter" font-size="18.00">Redis (RPermit</text>
</g>
<!-- r6p1 -->
<!-- r6p2 -->
<!-- r13p1 -->
<!-- r13p2 -->
</g>
</svg>
