<?xml version="1.0" encoding="UTF-8" standalone="no"?>
<!DOCTYPE svg PUBLIC "-//W3C//DTD SVG 1.1//EN"
 "http://www.w3.org/Graphics/SVG/1.1/DTD/svg11.dtd">
<!-- Generated by graphviz version 15.0.0 (20260523.1842)
 -->
<!-- Title: leader&#45;spring&#45;boot&#45;architecture&#45;01 Pages: 1 -->
<svg width="1169pt" height="591pt"
 viewBox="0.00 0.00 1169.00 591.00" xmlns="http://www.w3.org/2000/svg" xmlns:xlink="http://www.w3.org/1999/xlink">
<g id="graph0" class="graph" transform="scale(1 1) rotate(0) translate(4 586.58)">
<title>leader&#45;spring&#45;boot&#45;architecture&#45;01</title>
<text xml:space="preserve" text-anchor="middle" x="580.6" y="-565.28" font-family="Times,serif" font-size="14.00">leader spring boot Architecture</text>
<!-- n0&#45;&gt;n1 -->
<g id="edge1" class="edge">
<title>n0&#45;&gt;n1</title>
<path fill="none" stroke="#758297" stroke-width="1.8" d="M300.61,-504.04C316.61,-504.04 332.97,-504.04 349.19,-504.04"/>
<polygon fill="#758297" stroke="#758297" stroke-width="1.8" points="349.09,-506.84 357.09,-504.04 349.09,-501.24 349.09,-506.84"/>
</g>
<!-- n1&#45;&gt;r2p1 -->
<g id="edge2" class="edge">
<title>n1&#45;&gt;r2p1</title>
<path fill="none" stroke="#758297" stroke-width="1.8" d="M680.13,-504.04C699.59,-504.04 714.25,-504.04 718.71,-504.04"/>
</g>
<!-- n1&#45;&gt;r10p1 -->
<g id="edge21" class="edge">
<title>n1&#45;&gt;r10p1</title>
<path fill="none" stroke="#758297" stroke-width="1.8" d="M359.81,-504.04C345.33,-504.04 334.78,-504.04 331.33,-504.04"/>
</g>
<!-- n2&#45;&gt;r9p1 -->
<g id="edge17" class="edge">
<title>n2&#45;&gt;r9p1</title>
<path fill="none" stroke="#758297" stroke-width="1.8" d="M940.12,-439.75C940.12,-430.1 940.12,-422.28 940.12,-419.32"/>
</g>
<!-- n3&#45;&gt;n4 -->
<g id="edge5" class="edge">
<title>n3&#45;&gt;n4</title>
<path fill="none" stroke="#758297" stroke-width="1.8" d="M300.61,-334.04C316.61,-334.04 332.97,-334.04 349.19,-334.04"/>
<polygon fill="#758297" stroke="#758297" stroke-width="1.8" points="349.09,-336.84 357.09,-334.04 349.09,-331.24 349.09,-336.84"/>
</g>
<!-- n4&#45;&gt;n5 -->
<g id="edge9" class="edge">
<title>n4&#45;&gt;n5</title>
<path fill="none" stroke="#758297" stroke-width="1.8" d="M680.44,-334.04C703.02,-334.04 726.24,-334.04 748.84,-334.04"/>
<polygon fill="#758297" stroke="#758297" stroke-width="1.8" points="748.8,-336.84 756.8,-334.04 748.8,-331.24 748.8,-336.84"/>
</g>
<!-- n4&#45;&gt;n7 -->
<g id="edge10" class="edge">
<title>n4&#45;&gt;n7</title>
<path fill="none" stroke="#758297" stroke-width="1.8" d="M520.12,-279.73C520.12,-236.15 520.12,-174.86 520.12,-128.75"/>
<polygon fill="#758297" stroke="#758297" stroke-width="1.8" points="522.92,-128.99 520.12,-120.99 517.32,-128.99 522.92,-128.99"/>
</g>
<!-- n5&#45;&gt;r7p1 -->
<g id="edge11" class="edge">
<title>n5&#45;&gt;r7p1</title>
<path fill="none" stroke="#758297" stroke-width="1.8" d="M910.12,-279.8C910.12,-232.53 910.12,-169.94 910.12,-159.54"/>
</g>
<!-- n6&#45;&gt;r4p1 -->
<g id="edge6" class="edge">
<title>n6&#45;&gt;r4p1</title>
<path fill="none" stroke="#758297" stroke-width="1.8" d="M300.4,-144.04C314.83,-144.04 325.43,-144.04 328.9,-144.04"/>
</g>
<!-- n7&#45;&gt;r8p1 -->
<g id="edge14" class="edge">
<title>n7&#45;&gt;r8p1</title>
<path fill="none" stroke="#758297" stroke-width="1.8" d="M680.13,-64.04C699.59,-64.04 714.25,-64.04 718.71,-64.04"/>
</g>
<!-- r2p1&#45;&gt;r2p2 -->
<g id="edge3" class="edge">
<title>r2p1&#45;&gt;r2p2</title>
<path fill="none" stroke="#758297" stroke-width="1.8" d="M720.12,-502.88C720.12,-502.14 720.12,-501.18 720.12,-500.41"/>
</g>
<!-- r2p2&#45;&gt;n2 -->
<g id="edge4" class="edge">
<title>r2p2&#45;&gt;n2</title>
<path fill="none" stroke="#758297" stroke-width="1.8" d="M721.52,-499.04C725.09,-499.04 735.23,-499.04 749.3,-499.04"/>
<polygon fill="#758297" stroke="#758297" stroke-width="1.8" points="748.92,-501.84 756.92,-499.04 748.92,-496.24 748.92,-501.84"/>
</g>
<!-- r4p1&#45;&gt;r4p2 -->
<g id="edge7" class="edge">
<title>r4p1&#45;&gt;r4p2</title>
<path fill="none" stroke="#758297" stroke-width="1.8" d="M330.12,-145.25C330.12,-160.55 330.12,-315.63 330.12,-332.55"/>
</g>
<!-- r4p2&#45;&gt;n4 -->
<g id="edge8" class="edge">
<title>r4p2&#45;&gt;n4</title>
<path fill="none" stroke="#758297" stroke-width="1.8" d="M331.33,-334.04C333.91,-334.04 340.47,-334.04 349.67,-334.04"/>
<polygon fill="#758297" stroke="#758297" stroke-width="1.8" points="349.44,-336.84 357.44,-334.04 349.44,-331.24 349.44,-336.84"/>
</g>
<!-- r7p1&#45;&gt;r7p2 -->
<g id="edge12" class="edge">
<title>r7p1&#45;&gt;r7p2</title>
<path fill="none" stroke="#758297" stroke-width="1.8" d="M911.41,-158.04C916.25,-158.04 933.36,-158.04 938.59,-158.04"/>
</g>
<!-- r7p2&#45;&gt;n8 -->
<g id="edge13" class="edge">
<title>r7p2&#45;&gt;n8</title>
<path fill="none" stroke="#758297" stroke-width="1.8" d="M940.12,-156.64C940.12,-152.89 940.12,-142.02 940.12,-128.83"/>
<polygon fill="#758297" stroke="#758297" stroke-width="1.8" points="942.92,-129.09 940.12,-121.09 937.32,-129.09 942.92,-129.09"/>
</g>
<!-- r8p1&#45;&gt;r8p2 -->
<g id="edge15" class="edge">
<title>r8p1&#45;&gt;r8p2</title>
<path fill="none" stroke="#758297" stroke-width="1.8" d="M720.12,-62.88C720.12,-62.14 720.12,-61.18 720.12,-60.41"/>
</g>
<!-- r8p2&#45;&gt;n8 -->
<g id="edge16" class="edge">
<title>r8p2&#45;&gt;n8</title>
<path fill="none" stroke="#758297" stroke-width="1.8" d="M721.52,-59.04C725.09,-59.04 735.23,-59.04 749.3,-59.04"/>
<polygon fill="#758297" stroke="#758297" stroke-width="1.8" points="748.92,-61.84 756.92,-59.04 748.92,-56.24 748.92,-61.84"/>
</g>
<!-- r9p1&#45;&gt;r9p2 -->
<g id="edge18" class="edge">
<title>r9p1&#45;&gt;r9p2</title>
<path fill="none" stroke="#758297" stroke-width="1.8" d="M941.52,-418.04C959.38,-418.04 1141.78,-418.04 1158.84,-418.04"/>
</g>
<!-- r9p2&#45;&gt;r9p3 -->
<g id="edge19" class="edge">
<title>r9p2&#45;&gt;r9p3</title>
<path fill="none" stroke="#758297" stroke-width="1.8" d="M1160.12,-416.74C1160.12,-394.16 1160.12,-84.68 1160.12,-60.53"/>
</g>
<!-- r9p3&#45;&gt;n8 -->
<g id="edge20" class="edge">
<title>r9p3&#45;&gt;n8</title>
<path fill="none" stroke="#758297" stroke-width="1.8" d="M1158.72,-59.04C1155.15,-59.04 1145.01,-59.04 1130.94,-59.04"/>
<polygon fill="#758297" stroke="#758297" stroke-width="1.8" points="1131.32,-56.24 1123.32,-59.04 1131.32,-61.84 1131.32,-56.24"/>
</g>
<!-- r10p1&#45;&gt;r10p2 -->
<g id="edge22" class="edge">
<title>r10p1&#45;&gt;r10p2</title>
<path fill="none" stroke="#758297" stroke-width="1.8" d="M330.12,-502.74C330.12,-480.09 330.12,-169.75 330.12,-145.54"/>
</g>
<!-- r10p2&#45;&gt;n6 -->
<g id="edge23" class="edge">
<title>r10p2&#45;&gt;n6</title>
<path fill="none" stroke="#758297" stroke-width="1.8" d="M328.56,-144.04C325.82,-144.04 319.58,-144.04 311.01,-144.04"/>
<polygon fill="#758297" stroke="#758297" stroke-width="1.8" points="311.13,-141.24 303.13,-144.04 311.13,-146.84 311.13,-141.24"/>
</g>
<!-- n0 -->
<g id="node1" class="node">
<title>n0</title>
<path fill="#ffffff" stroke="#5b8def" d="M288.24,-558.04C288.24,-558.04 12,-558.04 12,-558.04 6,-558.04 0,-552.04 0,-546.04 0,-546.04 0,-462.04 0,-462.04 0,-456.04 6,-450.04 12,-450.04 12,-450.04 288.24,-450.04 288.24,-450.04 294.24,-450.04 300.24,-456.04 300.24,-462.04 300.24,-462.04 300.24,-546.04 300.24,-546.04 300.24,-552.04 294.24,-558.04 288.24,-558.04"/>
<text xml:space="preserve" text-anchor="middle" x="150.12" y="-499.69" font-family="Architects Daughter" font-size="18.00">LeaderProperties</text>
</g>
<!-- n1 -->
<g id="node2" class="node">
<title>n1</title>
<path fill="#ffffff" stroke="#58a978" d="M667.96,-558.04C667.96,-558.04 372.28,-558.04 372.28,-558.04 366.28,-558.04 360.28,-552.04 360.28,-546.04 360.28,-546.04 360.28,-462.04 360.28,-462.04 360.28,-456.04 366.28,-450.04 372.28,-450.04 372.28,-450.04 667.96,-450.04 667.96,-450.04 673.96,-450.04 679.96,-456.04 679.96,-462.04 679.96,-462.04 679.96,-546.04 679.96,-546.04 679.96,-552.04 673.96,-558.04 667.96,-558.04"/>
<text xml:space="preserve" text-anchor="middle" x="520.12" y="-499.69" font-family="Architects Daughter" font-size="18.00">Leader Aop Factory</text>
</g>
<!-- n2 -->
<g id="node3" class="node">
<title>n2</title>
<path fill="#ffffff" stroke="#d6a441" d="M1108.12,-558.08C1108.12,-558.08 772.12,-558.08 772.12,-558.08 766.12,-558.08 760.12,-552.08 760.12,-546.08 760.12,-546.08 760.12,-452 760.12,-452 760.12,-446 766.12,-440 772.12,-440 772.12,-440 1108.12,-440 1108.12,-440 1114.12,-440 1120.12,-446 1120.12,-452 1120.12,-452 1120.12,-546.08 1120.12,-546.08 1120.12,-552.08 1114.12,-558.08 1108.12,-558.08"/>
<text xml:space="preserve" text-anchor="middle" x="940.12" y="-494.69" font-family="Architects Daughter" font-size="18.00">LeaderElectorFactory</text>
</g>
<!-- n3 -->
<g id="node4" class="node">
<title>n3</title>
<path fill="#ffffff" stroke="#dc6b82" d="M288.24,-388.04C288.24,-388.04 12,-388.04 12,-388.04 6,-388.04 0,-382.04 0,-376.04 0,-376.04 0,-292.04 0,-292.04 0,-286.04 6,-280.04 12,-280.04 12,-280.04 288.24,-280.04 288.24,-280.04 294.24,-280.04 300.24,-286.04 300.24,-292.04 300.24,-292.04 300.24,-376.04 300.24,-376.04 300.24,-382.04 294.24,-388.04 288.24,-388.04"/>
<text xml:space="preserve" text-anchor="middle" x="150.12" y="-329.69" font-family="Architects Daughter" font-size="18.00">LeaderAopProperties</text>
</g>
<!-- n4 -->
<g id="node5" class="node">
<title>n4</title>
<path fill="#ffffff" stroke="#45a7a1" d="M667.96,-388.04C667.96,-388.04 372.28,-388.04 372.28,-388.04 366.28,-388.04 360.28,-382.04 360.28,-376.04 360.28,-376.04 360.28,-292.04 360.28,-292.04 360.28,-286.04 366.28,-280.04 372.28,-280.04 372.28,-280.04 667.96,-280.04 667.96,-280.04 673.96,-280.04 679.96,-286.04 679.96,-292.04 679.96,-292.04 679.96,-376.04 679.96,-376.04 679.96,-382.04 673.96,-388.04 667.96,-388.04"/>
<text xml:space="preserve" text-anchor="middle" x="520.12" y="-329.69" font-family="Architects Daughter" font-size="18.00">Leader Aop Auto</text>
</g>
<!-- n5 -->
<g id="node6" class="node">
<title>n5</title>
<path fill="#ffffff" stroke="#8a72d6" d="M1048.24,-388.04C1048.24,-388.04 772,-388.04 772,-388.04 766,-388.04 760,-382.04 760,-376.04 760,-376.04 760,-292.04 760,-292.04 760,-286.04 766,-280.04 772,-280.04 772,-280.04 1048.24,-280.04 1048.24,-280.04 1054.24,-280.04 1060.24,-286.04 1060.24,-292.04 1060.24,-292.04 1060.24,-376.04 1060.24,-376.04 1060.24,-382.04 1054.24,-388.04 1048.24,-388.04"/>
<text xml:space="preserve" text-anchor="middle" x="910.12" y="-329.69" font-family="Architects Daughter" font-size="18.00">LeaderBeanSelector</text>
</g>
<!-- n6 -->
<g id="node7" class="node">
<title>n6</title>
<path fill="#ffffff" stroke="#b88a44" d="M288.24,-198.04C288.24,-198.04 12,-198.04 12,-198.04 6,-198.04 0,-192.04 0,-186.04 0,-186.04 0,-102.04 0,-102.04 0,-96.04 6,-90.04 12,-90.04 12,-90.04 288.24,-90.04 288.24,-90.04 294.24,-90.04 300.24,-96.04 300.24,-102.04 300.24,-102.04 300.24,-186.04 300.24,-186.04 300.24,-192.04 294.24,-198.04 288.24,-198.04"/>
<text xml:space="preserve" text-anchor="middle" x="150.12" y="-139.69" font-family="Architects Daughter" font-size="18.00">Leader Micrometer</text>
</g>
<!-- n7 -->
<g id="node8" class="node">
<title>n7</title>
<path fill="#ffffff" stroke="#8ba84d" d="M667.96,-118.04C667.96,-118.04 372.28,-118.04 372.28,-118.04 366.28,-118.04 360.28,-112.04 360.28,-106.04 360.28,-106.04 360.28,-22.04 360.28,-22.04 360.28,-16.04 366.28,-10.04 372.28,-10.04 372.28,-10.04 667.96,-10.04 667.96,-10.04 673.96,-10.04 679.96,-16.04 679.96,-22.04 679.96,-22.04 679.96,-106.04 679.96,-106.04 679.96,-112.04 673.96,-118.04 667.96,-118.04"/>
<text xml:space="preserve" text-anchor="middle" x="520.12" y="-59.69" font-family="Architects Daughter" font-size="18.00">Spel Expression</text>
</g>
<!-- n8 -->
<g id="node9" class="node">
<title>n8</title>
<path fill="#ffffff" stroke="#7b8798" d="M1108.12,-118.08C1108.12,-118.08 772.12,-118.08 772.12,-118.08 766.12,-118.08 760.12,-112.08 760.12,-106.08 760.12,-106.08 760.12,-12 760.12,-12 760.12,-6 766.12,0 772.12,0 772.12,0 1108.12,0 1108.12,0 1114.12,0 1120.12,-6 1120.12,-12 1120.12,-12 1120.12,-106.08 1120.12,-106.08 1120.12,-112.08 1114.12,-118.08 1108.12,-118.08"/>
<text xml:space="preserve" text-anchor="middle" x="940.12" y="-54.69" font-family="Architects Daughter" font-size="18.00">LeaderElectionAspect</text>
</g>
<!-- r2p1 -->
<!-- r2p2 -->
<!-- r4p1 -->
<!-- r4p2 -->
<!-- r7p1 -->
<!-- r7p2 -->
<!-- r8p1 -->
<!-- r8p2 -->
<!-- r9p1 -->
<!-- r9p2 -->
<!-- r9p3 -->
<!-- r10p1 -->
<!-- r10p2 -->
</g>
</svg>
