<svg xmlns="http://www.w3.org/2000/svg" width="1950" height="1004" viewBox="0 0 1950 1004" role="img" aria-label="leader zookeeper Class Structure">
<defs>
  <filter id="shadow" x="-8%" y="-8%" width="116%" height="116%"><feDropShadow dx="0" dy="8" stdDeviation="9" flood-color="#1f2937" flood-opacity="0.10"/></filter>
  <marker id="openArrow" markerWidth="10" markerHeight="8" refX="8.5" refY="4" orient="auto" markerUnits="strokeWidth"><path d="M 1 1 L 8.5 4 L 1 7" fill="none" stroke="#758297" stroke-width="1.7" stroke-linecap="round" stroke-linejoin="round"/></marker>
  <marker id="inherit" markerWidth="11" markerHeight="10" refX="9.5" refY="5" orient="auto" markerUnits="strokeWidth"><path d="M 0.5 1 L 9.5 5 L 0.5 9 Z" fill="#ffffff" stroke="#758297" stroke-width="1.7"/></marker>
  <style>
    .canvas{fill:#f7f9fc}.frame{fill:#fff;stroke:#d8e0ea;stroke-width:1.5}
    .title{font-family:"Architects Daughter","Comic Sans MS","Comic Sans",cursive;font-size:43px;font-weight:400;fill:#102033}
    .subtitle{font-family:"Comic Sans MS","Comic Sans","Comic Neue",Arial,sans-serif;font-size:15px;font-weight:400;fill:#536273}
    .label{font-family:"Architects Daughter","Comic Sans MS","Comic Sans",cursive;font-size:25px;font-weight:400;fill:#102033}
    .smallLabel{font-family:"Architects Daughter","Comic Sans MS","Comic Sans",cursive;font-size:21px;font-weight:400;fill:#102033}
    .mono{font-family:"Comic Sans MS","Comic Sans","Comic Neue",Arial,sans-serif;font-size:12px;font-weight:400;fill:#102033}
    .small{font-family:"Comic Sans MS","Comic Sans","Comic Neue",Arial,sans-serif;font-size:12px;font-weight:400;fill:#536273}
    .strong{font-family:"Comic Sans MS","Comic Sans","Comic Neue",Arial,sans-serif;font-size:13px;font-weight:400;fill:#102033}
    .card{stroke-width:2.1;filter:url(#shadow)}.compartment{stroke-width:1.5;fill:none}
    .line{stroke:#758297;stroke-width:2.1;fill:none;marker-end:url(#openArrow)}
    .plainLine{stroke:#758297;stroke-width:2.1;fill:none}
    .dashed{stroke:#758297;stroke-width:2.1;stroke-dasharray:7 6;fill:none;marker-end:url(#openArrow)}
    .inheritLine{stroke:#758297;stroke-width:2.2;fill:none;marker-end:url(#inherit)}
    .implLine{stroke:#758297;stroke-width:2.2;stroke-dasharray:8 7;fill:none;marker-end:url(#inherit)}
  </style>
</defs>
<rect class="canvas" width="1950" height="1004"/>
<rect class="frame" x="32" y="28" width="1886" height="948" rx="28"/>
<text class="title" x="66" y="82">leader zookeeper Class Structure</text>
<text class="subtitle" x="70" y="118">UML classes from the original Mermaid source</text>
<path class="line" d="M1725 500 L1725 354 L1125 354 L1125 298"/>
<path class="line" d="M1275 458 L1275 402 L1125 402 L1125 298"/>
<path class="line" d="M375 458 L375 394 L675 394 L675 282"/>
<path class="line" d="M825 500 L825 386 L675 386 L675 282"/>
<path class="implLine" d="M1725 628 L1725 696 L1575 696 L1575 806"/>
<path class="implLine" d="M375 586 L375 688 L225 688 L225 764"/>
<path class="implLine" d="M1275 586 L1275 680 L1125 680 L1125 764"/>
<path class="implLine" d="M825 612 L825 672 L675 672 L675 806"/>
<g transform="translate(520,806)">
  <rect class="card" x="0" y="0" width="310" height="112" rx="5" fill="#E8F3FF" stroke="#5B8DEF"/>
  <line class="compartment" x1="0" y1="78" x2="310" y2="78" stroke="#5B8DEF"/>
  <text class="small" x="155" y="26" text-anchor="middle">«interface»</text>
  <text class="label" x="155" y="61" text-anchor="middle">LeaderElector</text>

</g>
<g transform="translate(670,500)">
  <rect class="card" x="0" y="0" width="310" height="112" rx="5" fill="#EAF7EF" stroke="#58A978"/>
  <line class="compartment" x1="0" y1="78" x2="310" y2="78" stroke="#58A978"/>
  <text class="small" x="155" y="26" text-anchor="middle"></text>
  <text class="label" x="155" y="61" text-anchor="middle">ZooKeeperLeaderElector</text>

</g>
<g transform="translate(520,170)">
  <rect class="card" x="0" y="0" width="310" height="112" rx="5" fill="#FFF3D9" stroke="#D6A441"/>
  <line class="compartment" x1="0" y1="78" x2="310" y2="78" stroke="#D6A441"/>
  <text class="small" x="155" y="26" text-anchor="middle"></text>
  <text class="label" x="155" y="61" text-anchor="middle">InterProcessMutex</text>

</g>
<g transform="translate(220,458)">
  <rect class="card" x="0" y="0" width="310" height="128" rx="5" fill="#FDECEF" stroke="#DC6B82"/>
  <line class="compartment" x1="0" y1="94" x2="310" y2="94" stroke="#DC6B82"/>
  <text class="small" x="155" y="26" text-anchor="middle"></text>
  <text class="label" x="155" y="56.5" text-anchor="middle">Zoo Keeper Suspend</text>
<text class="label" x="155" y="81.5" text-anchor="middle">Leader Elector</text>

</g>
<g transform="translate(70,764)">
  <rect class="card" x="0" y="0" width="310" height="112" rx="5" fill="#E9F7F6" stroke="#45A7A1"/>
  <line class="compartment" x1="0" y1="78" x2="310" y2="78" stroke="#45A7A1"/>
  <text class="small" x="155" y="26" text-anchor="middle">«interface»</text>
  <text class="label" x="155" y="61" text-anchor="middle">SuspendLeaderElector</text>

</g>
<g transform="translate(970,764)">
  <rect class="card" x="0" y="0" width="310" height="112" rx="5" fill="#F1ECFF" stroke="#8A72D6"/>
  <line class="compartment" x1="0" y1="78" x2="310" y2="78" stroke="#8A72D6"/>
  <text class="small" x="155" y="26" text-anchor="middle">«interface»</text>
  <text class="label" x="155" y="61" text-anchor="middle">LeaderGroupElector</text>

</g>
<g transform="translate(1120,458)">
  <rect class="card" x="0" y="0" width="310" height="128" rx="5" fill="#F7F1E7" stroke="#B88A44"/>
  <line class="compartment" x1="0" y1="94" x2="310" y2="94" stroke="#B88A44"/>
  <text class="small" x="155" y="26" text-anchor="middle"></text>
  <text class="label" x="155" y="56.5" text-anchor="middle">Zoo Keeper Leader</text>
<text class="label" x="155" y="81.5" text-anchor="middle">Group Elector</text>

</g>
<g transform="translate(970,170)">
  <rect class="card" x="0" y="0" width="310" height="128" rx="5" fill="#EEF6D9" stroke="#8BA84D"/>
  <line class="compartment" x1="0" y1="94" x2="310" y2="94" stroke="#8BA84D"/>
  <text class="small" x="155" y="26" text-anchor="middle"></text>
  <text class="label" x="155" y="56.5" text-anchor="middle">Inter Process</text>
<text class="label" x="155" y="81.5" text-anchor="middle">Semaphore V2</text>

</g>
<g transform="translate(1570,500)">
  <rect class="card" x="0" y="0" width="310" height="128" rx="5" fill="#E8F3FF" stroke="#5B8DEF"/>
  <line class="compartment" x1="0" y1="94" x2="310" y2="94" stroke="#5B8DEF"/>
  <text class="small" x="155" y="26" text-anchor="middle"></text>
  <text class="label" x="155" y="56.5" text-anchor="middle">Zoo Keeper Suspend</text>
<text class="label" x="155" y="81.5" text-anchor="middle">Leader Group Elector</text>

</g>
<g transform="translate(1420,806)">
  <rect class="card" x="0" y="0" width="310" height="128" rx="5" fill="#EAF7EF" stroke="#58A978"/>
  <line class="compartment" x1="0" y1="94" x2="310" y2="94" stroke="#58A978"/>
  <text class="small" x="155" y="26" text-anchor="middle">«interface»</text>
  <text class="label" x="155" y="56.5" text-anchor="middle">Suspend Leader Group</text>
<text class="label" x="155" y="81.5" text-anchor="middle">Elector</text>

</g>
</svg>
