<?xml version="1.0" encoding="UTF-8" standalone="no"?>
<!DOCTYPE svg PUBLIC "-//W3C//DTD SVG 1.1//EN"
 "http://www.w3.org/Graphics/SVG/1.1/DTD/svg11.dtd">
<!-- Generated by graphviz version 15.0.0 (20260523.1842)
 -->
<!-- Title: leader&#45;etcd&#45;architecture&#45;01 Pages: 1 -->
<svg width="1208pt" height="511pt"
 viewBox="0.00 0.00 1208.00 511.00" xmlns="http://www.w3.org/2000/svg" xmlns:xlink="http://www.w3.org/1999/xlink">
<g id="graph0" class="graph" transform="scale(1 1) rotate(0) translate(4 506.5)">
<title>leader&#45;etcd&#45;architecture&#45;01</title>
<text xml:space="preserve" text-anchor="middle" x="600.12" y="-485.2" font-family="Times,serif" font-size="14.00">leader etcd Architecture</text>
<!-- n0&#45;&gt;r1p1 -->
<g id="edge1" class="edge">
<title>n0&#45;&gt;r1p1</title>
<path fill="none" stroke="#758297" stroke-width="1.8" d="M300.4,-404C314.83,-404 325.43,-404 328.9,-404"/>
</g>
<!-- n1&#45;&gt;r2p1 -->
<g id="edge4" class="edge">
<title>n1&#45;&gt;r2p1</title>
<path fill="none" stroke="#758297" stroke-width="1.8" d="M300.4,-184C314.83,-184 325.43,-184 328.9,-184"/>
</g>
<!-- n1&#45;&gt;r3p1 -->
<g id="edge7" class="edge">
<title>n1&#45;&gt;r3p1</title>
<path fill="none" stroke="#758297" stroke-width="1.8" d="M300.4,-184C314.83,-184 325.43,-184 328.9,-184"/>
</g>
<!-- n2&#45;&gt;n6 -->
<g id="edge10" class="edge">
<title>n2&#45;&gt;n6</title>
<path fill="none" stroke="#758297" stroke-width="1.8" d="M700.39,-424C761.02,-424 829.08,-424 888.93,-424"/>
<polygon fill="#758297" stroke="#758297" stroke-width="1.8" points="888.89,-426.8 896.89,-424 888.89,-421.2 888.89,-426.8"/>
</g>
<!-- n3&#45;&gt;n2 -->
<g id="edge14" class="edge">
<title>n3&#45;&gt;n2</title>
<path fill="none" stroke="#758297" stroke-width="1.8" d="M530.12,-293.01C530.12,-313.63 530.12,-337.35 530.12,-358.9"/>
<polygon fill="#758297" stroke="#758297" stroke-width="1.8" points="527.32,-358.88 530.12,-366.88 532.92,-358.88 527.32,-358.88"/>
</g>
<!-- n3&#45;&gt;r5p1 -->
<g id="edge11" class="edge">
<title>n3&#45;&gt;r5p1</title>
<path fill="none" stroke="#758297" stroke-width="1.8" d="M700.5,-239C709.56,-239 716.07,-239 718.75,-239"/>
</g>
<!-- n5&#45;&gt;r8p1 -->
<g id="edge16" class="edge">
<title>n5&#45;&gt;r8p1</title>
<path fill="none" stroke="#758297" stroke-width="1.8" d="M739.59,-254C738.33,-254 737.32,-254 736.58,-254"/>
</g>
<!-- n6&#45;&gt;n7 -->
<g id="edge15" class="edge">
<title>n6&#45;&gt;n7</title>
<path fill="none" stroke="#758297" stroke-width="1.8" d="M1050.12,-369.8C1050.12,-303.17 1050.12,-190.19 1050.12,-118.97"/>
<polygon fill="#758297" stroke="#758297" stroke-width="1.8" points="1052.92,-119.07 1050.12,-111.07 1047.32,-119.07 1052.92,-119.07"/>
</g>
<!-- r1p1&#45;&gt;r1p2 -->
<g id="edge2" class="edge">
<title>r1p1&#45;&gt;r1p2</title>
<path fill="none" stroke="#758297" stroke-width="1.8" d="M330.12,-405.57C330.12,-409.4 330.12,-419.17 330.12,-422.7"/>
</g>
<!-- r1p2&#45;&gt;n2 -->
<g id="edge3" class="edge">
<title>r1p2&#45;&gt;n2</title>
<path fill="none" stroke="#758297" stroke-width="1.8" d="M331.4,-424C333.99,-424 340.38,-424 349.37,-424"/>
<polygon fill="#758297" stroke="#758297" stroke-width="1.8" points="349.35,-426.8 357.35,-424 349.35,-421.2 349.35,-426.8"/>
</g>
<!-- r2p1&#45;&gt;r2p2 -->
<g id="edge5" class="edge">
<title>r2p1&#45;&gt;r2p2</title>
<path fill="none" stroke="#758297" stroke-width="1.8" d="M330.12,-185.36C330.12,-192.9 330.12,-229.56 330.12,-237.49"/>
</g>
<!-- r2p2&#45;&gt;n3 -->
<g id="edge6" class="edge">
<title>r2p2&#45;&gt;n3</title>
<path fill="none" stroke="#758297" stroke-width="1.8" d="M331.4,-239C333.99,-239 340.38,-239 349.37,-239"/>
<polygon fill="#758297" stroke="#758297" stroke-width="1.8" points="349.35,-241.8 357.35,-239 349.35,-236.2 349.35,-241.8"/>
</g>
<!-- r3p1&#45;&gt;r3p2 -->
<g id="edge8" class="edge">
<title>r3p1&#45;&gt;r3p2</title>
<path fill="none" stroke="#758297" stroke-width="1.8" d="M330.12,-182.54C330.12,-169.15 330.12,-67.89 330.12,-55.29"/>
</g>
<!-- r3p2&#45;&gt;n4 -->
<g id="edge9" class="edge">
<title>r3p2&#45;&gt;n4</title>
<path fill="none" stroke="#758297" stroke-width="1.8" d="M331.4,-54C333.99,-54 340.38,-54 349.37,-54"/>
<polygon fill="#758297" stroke="#758297" stroke-width="1.8" points="349.35,-56.8 357.35,-54 349.35,-51.2 349.35,-56.8"/>
</g>
<!-- r5p1&#45;&gt;r5p2 -->
<g id="edge12" class="edge">
<title>r5p1&#45;&gt;r5p2</title>
<path fill="none" stroke="#758297" stroke-width="1.8" d="M720.12,-240.38C720.12,-243.29 720.12,-249.96 720.12,-252.75"/>
</g>
<!-- r5p2&#45;&gt;n5 -->
<g id="edge13" class="edge">
<title>r5p2&#45;&gt;n5</title>
<path fill="none" stroke="#758297" stroke-width="1.8" d="M721.59,-254C723.1,-254 725.72,-254 729.25,-254"/>
<polygon fill="#758297" stroke="#758297" stroke-width="1.8" points="729.01,-256.8 737.01,-254 729.01,-251.2 729.01,-256.8"/>
</g>
<!-- r8p1&#45;&gt;r8p2 -->
<g id="edge17" class="edge">
<title>r8p1&#45;&gt;r8p2</title>
<path fill="none" stroke="#758297" stroke-width="1.8" d="M735.12,-255.47C735.12,-271.18 735.12,-407.79 735.12,-422.68"/>
</g>
<!-- r8p2&#45;&gt;n6 -->
<g id="edge18" class="edge">
<title>r8p2&#45;&gt;n6</title>
<path fill="none" stroke="#758297" stroke-width="1.8" d="M736.52,-424C747.25,-424 817.69,-424 889.09,-424"/>
<polygon fill="#758297" stroke="#758297" stroke-width="1.8" points="888.91,-426.8 896.91,-424 888.91,-421.2 888.91,-426.8"/>
</g>
<!-- n0 -->
<g id="node1" class="node">
<title>n0</title>
<path fill="#ffffff" stroke="#5b8def" d="M288.24,-458C288.24,-458 12,-458 12,-458 6,-458 0,-452 0,-446 0,-446 0,-362 0,-362 0,-356 6,-350 12,-350 12,-350 288.24,-350 288.24,-350 294.24,-350 300.24,-356 300.24,-362 300.24,-362 300.24,-446 300.24,-446 300.24,-452 294.24,-458 288.24,-458"/>
<text xml:space="preserve" text-anchor="middle" x="150.12" y="-399.65" font-family="Architects Daughter" font-size="18.00">Application workers</text>
</g>
<!-- n1 -->
<g id="node2" class="node">
<title>n1</title>
<path fill="#ffffff" stroke="#58a978" d="M288.24,-238C288.24,-238 12,-238 12,-238 6,-238 0,-232 0,-226 0,-226 0,-142 0,-142 0,-136 6,-130 12,-130 12,-130 288.24,-130 288.24,-130 294.24,-130 300.24,-136 300.24,-142 300.24,-142 300.24,-226 300.24,-226 300.24,-232 294.24,-238 288.24,-238"/>
<text xml:space="preserve" text-anchor="middle" x="150.12" y="-179.65" font-family="Architects Daughter" font-size="18.00">Spring Boot</text>
</g>
<!-- n2 -->
<g id="node3" class="node">
<title>n2</title>
<path fill="#ffffff" stroke="#d6a441" d="M688.04,-478C688.04,-478 372.2,-478 372.2,-478 366.2,-478 360.2,-472 360.2,-466 360.2,-466 360.2,-382 360.2,-382 360.2,-376 366.2,-370 372.2,-370 372.2,-370 688.04,-370 688.04,-370 694.04,-370 700.04,-376 700.04,-382 700.04,-382 700.04,-466 700.04,-466 700.04,-472 694.04,-478 688.04,-478"/>
<text xml:space="preserve" text-anchor="middle" x="530.12" y="-419.65" font-family="Architects Daughter" font-size="18.00">EtcdLeaderElector</text>
</g>
<!-- n3 -->
<g id="node4" class="node">
<title>n3</title>
<path fill="#ffffff" stroke="#dc6b82" d="M688.04,-293C688.04,-293 372.2,-293 372.2,-293 366.2,-293 360.2,-287 360.2,-281 360.2,-281 360.2,-197 360.2,-197 360.2,-191 366.2,-185 372.2,-185 372.2,-185 688.04,-185 688.04,-185 694.04,-185 700.04,-191 700.04,-197 700.04,-197 700.04,-281 700.04,-281 700.04,-287 694.04,-293 688.04,-293"/>
<text xml:space="preserve" text-anchor="middle" x="530.12" y="-234.65" font-family="Architects Daughter" font-size="18.00">EtcdLeaderGroupElector</text>
</g>
<!-- n4 -->
<g id="node5" class="node">
<title>n4</title>
<path fill="#ffffff" stroke="#45a7a1" d="M688.04,-108C688.04,-108 372.2,-108 372.2,-108 366.2,-108 360.2,-102 360.2,-96 360.2,-96 360.2,-12 360.2,-12 360.2,-6 366.2,0 372.2,0 372.2,0 688.04,0 688.04,0 694.04,0 700.04,-6 700.04,-12 700.04,-12 700.04,-96 700.04,-96 700.04,-102 694.04,-108 688.04,-108"/>
<text xml:space="preserve" text-anchor="middle" x="530.12" y="-49.65" font-family="Architects Daughter" font-size="18.00">Event Publisher</text>
</g>
<!-- n5 -->
<g id="node6" class="node">
<title>n5</title>
<path fill="#ffffff" stroke="#8a72d6" d="M1028.24,-308C1028.24,-308 752,-308 752,-308 746,-308 740,-302 740,-296 740,-296 740,-212 740,-212 740,-206 746,-200 752,-200 752,-200 1028.24,-200 1028.24,-200 1034.24,-200 1040.24,-206 1040.24,-212 1040.24,-212 1040.24,-296 1040.24,-296 1040.24,-302 1034.24,-308 1028.24,-308"/>
<text xml:space="preserve" text-anchor="middle" x="890.12" y="-249.65" font-family="Architects Daughter" font-size="18.00">jetcd Client</text>
</g>
<!-- n6 -->
<g id="node7" class="node">
<title>n6</title>
<path fill="#ffffff" stroke="#b88a44" d="M1188.24,-478C1188.24,-478 912,-478 912,-478 906,-478 900,-472 900,-466 900,-466 900,-382 900,-382 900,-376 906,-370 912,-370 912,-370 1188.24,-370 1188.24,-370 1194.24,-370 1200.24,-376 1200.24,-382 1200.24,-382 1200.24,-466 1200.24,-466 1200.24,-472 1194.24,-478 1188.24,-478"/>
<text xml:space="preserve" text-anchor="middle" x="1050.12" y="-419.65" font-family="Architects Daughter" font-size="18.00">etcd Lock service</text>
</g>
<!-- n7 -->
<g id="node8" class="node">
<title>n7</title>
<path fill="#ffffff" stroke="#8ba84d" d="M1188.24,-108C1188.24,-108 912,-108 912,-108 906,-108 900,-102 900,-96 900,-96 900,-12 900,-12 900,-6 906,0 912,0 912,0 1188.24,0 1188.24,0 1194.24,0 1200.24,-6 1200.24,-12 1200.24,-12 1200.24,-96 1200.24,-96 1200.24,-102 1194.24,-108 1188.24,-108"/>
<text xml:space="preserve" text-anchor="middle" x="1050.12" y="-49.65" font-family="Architects Daughter" font-size="18.00">etcd Lease</text>
</g>
<!-- r1p1 -->
<!-- r1p2 -->
<!-- r2p1 -->
<!-- r2p2 -->
<!-- r3p1 -->
<!-- r3p2 -->
<!-- r5p1 -->
<!-- r5p2 -->
<!-- r8p1 -->
<!-- r8p2 -->
</g>
</svg>
