<svg xmlns="http://www.w3.org/2000/svg" width="998" height="1640" viewBox="0 0 998 1640" role="img" aria-label="leader exposed jdbc Class Structure">
<defs>
  <filter id="shadow" x="-8%" y="-8%" width="116%" height="116%"><feDropShadow dx="0" dy="8" stdDeviation="9" flood-color="#1f2937" flood-opacity="0.10"/></filter>
  <marker id="openArrow" markerWidth="10" markerHeight="8" refX="8.5" refY="4" orient="auto" markerUnits="strokeWidth"><path d="M 1 1 L 8.5 4 L 1 7" fill="none" stroke="#758297" stroke-width="1.7" stroke-linecap="round" stroke-linejoin="round"/></marker>
  <marker id="inherit" markerWidth="11" markerHeight="10" refX="9.5" refY="5" orient="auto" markerUnits="strokeWidth"><path d="M 0.5 1 L 9.5 5 L 0.5 9 Z" fill="#ffffff" stroke="#758297" stroke-width="1.7"/></marker>
  <style>
    .canvas{fill:#f7f9fc}.frame{fill:#fff;stroke:#d8e0ea;stroke-width:1.5}
    .title{font-family:"Architects Daughter","Comic Sans MS","Comic Sans",cursive;font-size:43px;font-weight:400;fill:#102033}
    .subtitle{font-family:"Comic Sans MS","Comic Sans","Comic Neue",Arial,sans-serif;font-size:15px;font-weight:400;fill:#536273}
    .label{font-family:"Architects Daughter","Comic Sans MS","Comic Sans",cursive;font-size:25px;font-weight:400;fill:#102033}
    .smallLabel{font-family:"Architects Daughter","Comic Sans MS","Comic Sans",cursive;font-size:21px;font-weight:400;fill:#102033}
    .mono{font-family:"Comic Sans MS","Comic Sans","Comic Neue",Arial,sans-serif;font-size:12px;font-weight:400;fill:#102033}
    .small{font-family:"Comic Sans MS","Comic Sans","Comic Neue",Arial,sans-serif;font-size:12px;font-weight:400;fill:#536273}
    .strong{font-family:"Comic Sans MS","Comic Sans","Comic Neue",Arial,sans-serif;font-size:13px;font-weight:400;fill:#102033}
    .card{stroke-width:2.1;filter:url(#shadow)}.compartment{stroke-width:1.5;fill:none}
    .line{stroke:#758297;stroke-width:2.1;fill:none;marker-end:url(#openArrow)}
    .plainLine{stroke:#758297;stroke-width:2.1;fill:none}
    .dashed{stroke:#758297;stroke-width:2.1;stroke-dasharray:7 6;fill:none;marker-end:url(#openArrow)}
    .inheritLine{stroke:#758297;stroke-width:2.2;fill:none;marker-end:url(#inherit)}
    .implLine{stroke:#758297;stroke-width:2.2;stroke-dasharray:8 7;fill:none;marker-end:url(#inherit)}
  </style>
</defs>
<rect class="canvas" width="998" height="1640"/>
<rect class="frame" x="32" y="28" width="934" height="1584" rx="28"/>
<text class="title" x="66" y="82">leader exposed jdbc Class Structu.</text>
<text class="subtitle" x="70" y="118">UML classes from the original Mermaid source</text>
<path class="line" d="M499 1316 L499 1532 L274 1532 L274 1174"/>
<path class="line" d="M724 1062 L724 1015 L986 1015 L986 455 L724 455 L724 376"/>
<path class="line" d="M274 1062 L274 1007 L22 1007 L22 769 L274 769 L274 698"/>
<path class="implLine" d="M499 1316 L499 999 L724 999 L724 936"/>
<path class="implLine" d="M724 1062 L724 991 L274 991 L274 936"/>
<path class="implLine" d="M274 1062 L274 983 L52 983 L52 423 L274 423 L274 292"/>
<path class="implLine" d="M274 1062 L274 1229 L62 1229 L62 737 L724 737 L724 614"/>
<g transform="translate(84,180)">
  <rect class="card" x="0" y="0" width="380" height="112" rx="5" fill="#E8F3FF" stroke="#5B8DEF"/>
  <line class="compartment" x1="0" y1="78" x2="380" y2="78" stroke="#5B8DEF"/>
  <text class="small" x="190" y="26" text-anchor="middle">«interface»</text>
  <text class="label" x="190" y="61" text-anchor="middle">AsyncLeaderElector</text>

</g>
<g transform="translate(534,180)">
  <rect class="card" x="0" y="0" width="380" height="196" rx="5" fill="#EAF7EF" stroke="#58A978"/>
  <line class="compartment" x1="0" y1="78" x2="380" y2="78" stroke="#58A978"/>
  <text class="small" x="190" y="26" text-anchor="middle"></text>
  <text class="label" x="190" y="61" text-anchor="middle">ExposedJdbcGroupLock</text>
  <text class="mono" x="18" y="108">+tryLock(waitTime, leaseTime) Boolean</text>
<text class="mono" x="18" y="129">+unlock()</text>
<text class="mono" x="18" y="150">+slot: Int</text>
<text class="mono" x="18" y="171">+token: String</text>
</g>
<g transform="translate(84,502)">
  <rect class="card" x="0" y="0" width="380" height="196" rx="5" fill="#FFF3D9" stroke="#D6A441"/>
  <line class="compartment" x1="0" y1="78" x2="380" y2="78" stroke="#D6A441"/>
  <text class="small" x="190" y="26" text-anchor="middle"></text>
  <text class="label" x="190" y="61" text-anchor="middle">ExposedJdbcLock</text>
  <text class="mono" x="18" y="108">+tryLock(waitTime, leaseTime) Boolean</text>
<text class="mono" x="18" y="129">+unlock()</text>
<text class="mono" x="18" y="150">+isHeldByCurrentInstance() Boolean</text>
<text class="mono" x="18" y="171">+token: String</text>
</g>
<g transform="translate(534,502)">
  <rect class="card" x="0" y="0" width="380" height="112" rx="5" fill="#FDECEF" stroke="#DC6B82"/>
  <line class="compartment" x1="0" y1="78" x2="380" y2="78" stroke="#DC6B82"/>
  <text class="small" x="190" y="26" text-anchor="middle">«interface»</text>
  <text class="label" x="190" y="61" text-anchor="middle">LeaderElector</text>

</g>
<g transform="translate(84,824)">
  <rect class="card" x="0" y="0" width="380" height="112" rx="5" fill="#E9F7F6" stroke="#45A7A1"/>
  <line class="compartment" x1="0" y1="78" x2="380" y2="78" stroke="#45A7A1"/>
  <text class="small" x="190" y="26" text-anchor="middle">«interface»</text>
  <text class="label" x="190" y="61" text-anchor="middle">LeaderGroupElector</text>

</g>
<g transform="translate(534,824)">
  <rect class="card" x="0" y="0" width="380" height="112" rx="5" fill="#F1ECFF" stroke="#8A72D6"/>
  <line class="compartment" x1="0" y1="78" x2="380" y2="78" stroke="#8A72D6"/>
  <text class="small" x="190" y="26" text-anchor="middle">«interface»</text>
  <text class="label" x="190" y="61" text-anchor="middle">VirtualThreadLeaderElector</text>

</g>
<g transform="translate(84,1062)">
  <rect class="card" x="0" y="0" width="380" height="112" rx="5" fill="#F7F1E7" stroke="#B88A44"/>
  <line class="compartment" x1="0" y1="78" x2="380" y2="78" stroke="#B88A44"/>
  <text class="small" x="190" y="26" text-anchor="middle"></text>
  <text class="label" x="190" y="61" text-anchor="middle">ExposedJdbcLeaderElector</text>

</g>
<g transform="translate(534,1062)">
  <rect class="card" x="0" y="0" width="380" height="128" rx="5" fill="#EEF6D9" stroke="#8BA84D"/>
  <line class="compartment" x1="0" y1="94" x2="380" y2="94" stroke="#8BA84D"/>
  <text class="small" x="190" y="26" text-anchor="middle"></text>
  <text class="label" x="190" y="56.5" text-anchor="middle">Exposed Jdbc Leader Group</text>
<text class="label" x="190" y="81.5" text-anchor="middle">Elector</text>

</g>
<g transform="translate(309,1316)">
  <rect class="card" x="0" y="0" width="380" height="128" rx="5" fill="#E8F3FF" stroke="#5B8DEF"/>
  <line class="compartment" x1="0" y1="94" x2="380" y2="94" stroke="#5B8DEF"/>
  <text class="small" x="190" y="26" text-anchor="middle"></text>
  <text class="label" x="190" y="56.5" text-anchor="middle">Exposed Jdbc Virtual Thread</text>
<text class="label" x="190" y="81.5" text-anchor="middle">Leader Elector</text>

</g>
</svg>
