<?xml version="1.0" encoding="UTF-8" standalone="no"?>
<!DOCTYPE svg PUBLIC "-//W3C//DTD SVG 1.1//EN"
 "http://www.w3.org/Graphics/SVG/1.1/DTD/svg11.dtd">
<!-- Generated by graphviz version 15.0.0 (20260523.1842)
 -->
<!-- Title: leader&#45;spring&#45;boot&#45;sequence&#45;02 Pages: 1 -->
<svg width="1988pt" height="1075pt"
 viewBox="0.00 0.00 1988.00 1075.00" xmlns="http://www.w3.org/2000/svg" xmlns:xlink="http://www.w3.org/1999/xlink">
<g id="graph0" class="graph" transform="scale(1 1) rotate(0) translate(4 1070.5)">
<title>leader&#45;spring&#45;boot&#45;sequence&#45;02</title>
<text xml:space="preserve" text-anchor="middle" x="990.12" y="-1049.2" font-family="Times,serif" font-size="14.00">Sequence: reentrant @LeaderElection</text>
<!-- n0&#45;&gt;n1 -->
<g id="edge1" class="edge">
<title>n0&#45;&gt;n1</title>
<path fill="none" stroke="#758297" stroke-width="1.8" d="M300.56,-986C300.56,-986 408.94,-986 408.94,-986"/>
<polygon fill="#758297" stroke="#758297" stroke-width="1.8" points="408.94,-988.8 416.94,-986 408.94,-983.2 408.94,-988.8"/>
</g>
<!-- n0&#45;&gt;n1 -->
<g id="edge9" class="edge">
<title>n0&#45;&gt;n1</title>
<path fill="none" stroke="#758297" stroke-width="1.8" d="M300.56,-972C300.56,-972 408.94,-972 408.94,-972"/>
<polygon fill="#758297" stroke="#758297" stroke-width="1.8" points="408.94,-974.8 416.94,-972 408.94,-969.2 408.94,-974.8"/>
</g>
<!-- n0&#45;&gt;n1 -->
<g id="edge17" class="edge">
<title>n0&#45;&gt;n1</title>
<path fill="none" stroke="#758297" stroke-width="1.8" stroke-dasharray="5,2" d="M300.56,-957C300.56,-957 408.94,-957 408.94,-957"/>
<polygon fill="#758297" stroke="#758297" stroke-width="1.8" points="408.94,-959.8 416.94,-957 408.94,-954.2 408.94,-959.8"/>
</g>
<!-- n0&#45;&gt;n3 -->
<g id="edge19" class="edge">
<title>n0&#45;&gt;n3</title>
<path fill="none" stroke="#758297" stroke-width="1.8" stroke-dasharray="5,2" d="M100.08,-1015.34C100.08,-1025.1 100.08,-1033 100.08,-1033 100.08,-1033 1485.18,-1033 1485.18,-1033 1485.18,-1033 1485.18,-1026.07 1485.18,-1026.07"/>
<polygon fill="#758297" stroke="#758297" stroke-width="1.8" points="1487.98,-1026.07 1485.18,-1018.07 1482.38,-1026.07 1487.98,-1026.07"/>
</g>
<!-- n1&#45;&gt;n0 -->
<g id="edge16" class="edge">
<title>n1&#45;&gt;n0</title>
<path fill="none" stroke="#758297" stroke-width="1.8" d="M419.68,-1001C419.68,-1001 311.3,-1001 311.3,-1001"/>
<polygon fill="#758297" stroke="#758297" stroke-width="1.8" points="311.3,-998.2 303.3,-1001 311.3,-1003.8 311.3,-998.2"/>
</g>
<!-- n1&#45;&gt;n2 -->
<g id="edge2" class="edge">
<title>n1&#45;&gt;n2</title>
<path fill="none" stroke="#758297" stroke-width="1.8" d="M720.56,-1005C720.56,-1005 828.94,-1005 828.94,-1005"/>
<polygon fill="#758297" stroke="#758297" stroke-width="1.8" points="828.94,-1007.8 836.94,-1005 828.94,-1002.2 828.94,-1007.8"/>
</g>
<!-- n1&#45;&gt;n2 -->
<g id="edge10" class="edge">
<title>n1&#45;&gt;n2</title>
<path fill="none" stroke="#758297" stroke-width="1.8" d="M720.56,-995C720.56,-995 828.94,-995 828.94,-995"/>
<polygon fill="#758297" stroke="#758297" stroke-width="1.8" points="828.94,-997.8 836.94,-995 828.94,-992.2 828.94,-997.8"/>
</g>
<!-- n1&#45;&gt;n2 -->
<g id="edge15" class="edge">
<title>n1&#45;&gt;n2</title>
<path fill="none" stroke="#758297" stroke-width="1.8" d="M720.56,-984C720.56,-984 828.94,-984 828.94,-984"/>
<polygon fill="#758297" stroke="#758297" stroke-width="1.8" points="828.94,-986.8 836.94,-984 828.94,-981.2 828.94,-986.8"/>
</g>
<!-- n1&#45;&gt;n2 -->
<g id="edge18" class="edge">
<title>n1&#45;&gt;n2</title>
<path fill="none" stroke="#758297" stroke-width="1.8" d="M720.56,-974C720.56,-974 828.94,-974 828.94,-974"/>
<polygon fill="#758297" stroke="#758297" stroke-width="1.8" points="828.94,-976.8 836.94,-974 828.94,-971.2 828.94,-976.8"/>
</g>
<!-- n1&#45;&gt;n3 -->
<g id="edge4" class="edge">
<title>n1&#45;&gt;n3</title>
<path fill="none" stroke="#758297" stroke-width="1.8" d="M570.12,-1015.34C570.12,-1020.45 570.12,-1024 570.12,-1024 570.12,-1024 1410.12,-1024 1410.12,-1024 1410.12,-1024 1410.12,-1023.13 1410.12,-1023.13"/>
<polygon fill="#758297" stroke="#758297" stroke-width="1.8" points="1412.92,-1026.06 1410.12,-1018.06 1407.32,-1026.06 1412.92,-1026.06"/>
</g>
<!-- n1&#45;&gt;r12p1 -->
<g id="edge12" class="edge">
<title>n1&#45;&gt;r12p1</title>
<path fill="none" stroke="#758297" stroke-width="1.8" d="M634.12,-942.65C634.12,-773.23 634.12,-69.18 634.12,-36.27"/>
</g>
<!-- n2&#45;&gt;n1 -->
<g id="edge3" class="edge">
<title>n2&#45;&gt;n1</title>
<path fill="none" stroke="#758297" stroke-width="1.8" stroke-dasharray="5,2" d="M839.68,-964C839.68,-964 731.3,-964 731.3,-964"/>
<polygon fill="#758297" stroke="#758297" stroke-width="1.8" points="731.3,-961.2 723.3,-964 731.3,-966.8 731.3,-961.2"/>
</g>
<!-- n2&#45;&gt;n1 -->
<g id="edge11" class="edge">
<title>n2&#45;&gt;n1</title>
<path fill="none" stroke="#758297" stroke-width="1.8" stroke-dasharray="5,2" d="M839.68,-953C839.68,-953 731.3,-953 731.3,-953"/>
<polygon fill="#758297" stroke="#758297" stroke-width="1.8" points="731.3,-950.2 723.3,-953 731.3,-955.8 731.3,-950.2"/>
</g>
<!-- n3&#45;&gt;n0 -->
<g id="edge8" class="edge">
<title>n3&#45;&gt;n0</title>
<path fill="none" stroke="#758297" stroke-width="1.8" d="M1335.06,-1015.32C1335.06,-1029.3 1335.06,-1042 1335.06,-1042 1335.06,-1042 200.16,-1042 200.16,-1042 200.16,-1042 200.16,-1026.04 200.16,-1026.04"/>
<polygon fill="#758297" stroke="#758297" stroke-width="1.8" points="202.96,-1026.04 200.16,-1018.04 197.36,-1026.04 202.96,-1026.04"/>
</g>
<!-- n3&#45;&gt;n2 -->
<g id="edge7" class="edge">
<title>n3&#45;&gt;n2</title>
<path fill="none" stroke="#758297" stroke-width="1.8" d="M1259.68,-967C1259.68,-967 1151.3,-967 1151.3,-967"/>
<polygon fill="#758297" stroke="#758297" stroke-width="1.8" points="1151.3,-964.2 1143.3,-967 1151.3,-969.8 1151.3,-964.2"/>
</g>
<!-- n3&#45;&gt;n2 -->
<g id="edge21" class="edge">
<title>n3&#45;&gt;n2</title>
<path fill="none" stroke="#758297" stroke-width="1.8" d="M1259.68,-991C1259.68,-991 1151.3,-991 1151.3,-991"/>
<polygon fill="#758297" stroke="#758297" stroke-width="1.8" points="1151.3,-988.2 1143.3,-991 1151.3,-993.8 1151.3,-988.2"/>
</g>
<!-- n3&#45;&gt;n4 -->
<g id="edge5" class="edge">
<title>n3&#45;&gt;n4</title>
<path fill="none" stroke="#758297" stroke-width="1.8" d="M1560.56,-979C1560.56,-979 1668.94,-979 1668.94,-979"/>
<polygon fill="#758297" stroke="#758297" stroke-width="1.8" points="1668.94,-981.8 1676.94,-979 1668.94,-976.2 1668.94,-981.8"/>
</g>
<!-- n3&#45;&gt;n4 -->
<g id="edge20" class="edge">
<title>n3&#45;&gt;n4</title>
<path fill="none" stroke="#758297" stroke-width="1.8" d="M1560.56,-961C1560.56,-961 1668.94,-961 1668.94,-961"/>
<polygon fill="#758297" stroke="#758297" stroke-width="1.8" points="1668.94,-963.8 1676.94,-961 1668.94,-958.2 1668.94,-963.8"/>
</g>
<!-- n4&#45;&gt;n3 -->
<g id="edge6" class="edge">
<title>n4&#45;&gt;n3</title>
<path fill="none" stroke="#758297" stroke-width="1.8" stroke-dasharray="5,2" d="M1679.68,-997C1679.68,-997 1571.3,-997 1571.3,-997"/>
<polygon fill="#758297" stroke="#758297" stroke-width="1.8" points="1571.3,-994.2 1563.3,-997 1571.3,-999.8 1571.3,-994.2"/>
</g>
<!-- r12p1&#45;&gt;r12p2 -->
<g id="edge13" class="edge">
<title>r12p1&#45;&gt;r12p2</title>
<path fill="none" stroke="#758297" stroke-width="1.8" d="M634.12,-33.62C634.12,-28.03 634.12,-8.02 634.12,-2.5"/>
</g>
<!-- r12p2&#45;&gt;n1 -->
<g id="edge14" class="edge">
<title>r12p2&#45;&gt;n1</title>
<path fill="none" stroke="#758297" stroke-width="1.8" d="M635.57,-1C643.14,-1 677.72,-1 677.72,-1 677.72,-1 677.72,-932.09 677.72,-932.09"/>
<polygon fill="#758297" stroke="#758297" stroke-width="1.8" points="674.92,-932.09 677.72,-940.09 680.52,-932.09 674.92,-932.09"/>
</g>
<!-- n0 -->
<g id="node1" class="node">
<title>n0</title>
<path fill="#ffffff" stroke="#5b8def" d="M288.24,-1015.08C288.24,-1015.08 12,-1015.08 12,-1015.08 6,-1015.08 0,-1009.08 0,-1003.08 0,-1003.08 0,-955.08 0,-955.08 0,-949.08 6,-943.08 12,-943.08 12,-943.08 288.24,-943.08 288.24,-943.08 294.24,-943.08 300.24,-949.08 300.24,-955.08 300.24,-955.08 300.24,-1003.08 300.24,-1003.08 300.24,-1009.08 294.24,-1015.08 288.24,-1015.08"/>
<text xml:space="preserve" text-anchor="middle" x="150.12" y="-974.73" font-family="Architects Daughter" font-size="18.00">Caller</text>
</g>
<!-- n1 -->
<g id="node2" class="node">
<title>n1</title>
<path fill="#ffffff" stroke="#58a978" d="M708.24,-1015.08C708.24,-1015.08 432,-1015.08 432,-1015.08 426,-1015.08 420,-1009.08 420,-1003.08 420,-1003.08 420,-955.08 420,-955.08 420,-949.08 426,-943.08 432,-943.08 432,-943.08 708.24,-943.08 708.24,-943.08 714.24,-943.08 720.24,-949.08 720.24,-955.08 720.24,-955.08 720.24,-1003.08 720.24,-1003.08 720.24,-1009.08 714.24,-1015.08 708.24,-1015.08"/>
<text xml:space="preserve" text-anchor="middle" x="570.12" y="-974.73" font-family="Architects Daughter" font-size="18.00">Leader Election</text>
</g>
<!-- n2 -->
<g id="node3" class="node">
<title>n2</title>
<path fill="#ffffff" stroke="#d6a441" d="M1128.24,-1015.08C1128.24,-1015.08 852,-1015.08 852,-1015.08 846,-1015.08 840,-1009.08 840,-1003.08 840,-1003.08 840,-955.08 840,-955.08 840,-949.08 846,-943.08 852,-943.08 852,-943.08 1128.24,-943.08 1128.24,-943.08 1134.24,-943.08 1140.24,-949.08 1140.24,-955.08 1140.24,-955.08 1140.24,-1003.08 1140.24,-1003.08 1140.24,-1009.08 1134.24,-1015.08 1128.24,-1015.08"/>
<text xml:space="preserve" text-anchor="middle" x="990.12" y="-974.73" font-family="Architects Daughter" font-size="18.00">LockStateHolder</text>
</g>
<!-- n3 -->
<g id="node4" class="node">
<title>n3</title>
<path fill="#ffffff" stroke="#dc6b82" d="M1548.24,-1015.08C1548.24,-1015.08 1272,-1015.08 1272,-1015.08 1266,-1015.08 1260,-1009.08 1260,-1003.08 1260,-1003.08 1260,-955.08 1260,-955.08 1260,-949.08 1266,-943.08 1272,-943.08 1272,-943.08 1548.24,-943.08 1548.24,-943.08 1554.24,-943.08 1560.24,-949.08 1560.24,-955.08 1560.24,-955.08 1560.24,-1003.08 1560.24,-1003.08 1560.24,-1009.08 1554.24,-1015.08 1548.24,-1015.08"/>
<text xml:space="preserve" text-anchor="middle" x="1410.12" y="-974.73" font-family="Architects Daughter" font-size="18.00">LeaderElector</text>
</g>
<!-- n4 -->
<g id="node5" class="node">
<title>n4</title>
<path fill="#ffffff" stroke="#45a7a1" d="M1968.24,-1015.08C1968.24,-1015.08 1692,-1015.08 1692,-1015.08 1686,-1015.08 1680,-1009.08 1680,-1003.08 1680,-1003.08 1680,-955.08 1680,-955.08 1680,-949.08 1686,-943.08 1692,-943.08 1692,-943.08 1968.24,-943.08 1968.24,-943.08 1974.24,-943.08 1980.24,-949.08 1980.24,-955.08 1980.24,-955.08 1980.24,-1003.08 1980.24,-1003.08 1980.24,-1009.08 1974.24,-1015.08 1968.24,-1015.08"/>
<text xml:space="preserve" text-anchor="middle" x="1830.12" y="-974.73" font-family="Architects Daughter" font-size="18.00">Redis / Mongo / ...</text>
</g>
<!-- r12p1 -->
<!-- r12p2 -->
</g>
</svg>
