<svg xmlns="http://www.w3.org/2000/svg" width="1754" height="821" viewBox="0 0 1754 821" role="img" aria-label="leader redis redisson Class Structure">
  <metadata id="graphviz-evidence">Regenerated with Graphviz evidence: leader-redis-redisson-class-01.dot, leader-redis-redisson-class-01.plain, leader-redis-redisson-class-01-graphviz.svg via scripts/regenerate-readme-diagram-graphviz-evidence.mjs.</metadata>
<defs>
  <filter id="shadow" x="-8%" y="-8%" width="116%" height="116%"><feDropShadow dx="0" dy="8" stdDeviation="9" flood-color="#1f2937" flood-opacity="0.10"/></filter>
  <marker id="openArrow" markerWidth="10" markerHeight="8" refX="8.5" refY="4" orient="auto" markerUnits="strokeWidth"><path d="M 1 1 L 8.5 4 L 1 7" fill="none" stroke="#758297" stroke-width="1.7" stroke-linecap="round" stroke-linejoin="round"/></marker>
  <marker id="inherit" markerWidth="11" markerHeight="10" refX="9.5" refY="5" orient="auto" markerUnits="strokeWidth"><path d="M 0.5 1 L 9.5 5 L 0.5 9 Z" fill="#ffffff" stroke="#758297" stroke-width="1.7"/></marker>
  <style>
    .canvas{fill:#f7f9fc}.frame{fill:#fff;stroke:#d8e0ea;stroke-width:1.5}
    .title{font-family:"Architects Daughter","Comic Mono","Comic Sans MS","Comic Sans",cursive;font-size:43px;font-weight:400;fill:#102033}
    .subtitle{font-family:"Comic Mono","Comic Sans MS","Comic Sans","Comic Neue",Arial,sans-serif;font-size:15px;font-weight:400;fill:#536273}
    .label{font-family:"Architects Daughter","Comic Mono","Comic Sans MS","Comic Sans",cursive;font-size:25px;font-weight:400;fill:#102033}
    .smallLabel{font-family:"Architects Daughter","Comic Mono","Comic Sans MS","Comic Sans",cursive;font-size:21px;font-weight:400;fill:#102033}
    .mono{font-family:"Comic Mono","Comic Sans MS","Comic Sans","Comic Neue",Arial,sans-serif;font-size:12px;font-weight:400;fill:#102033}
    .small{font-family:"Comic Mono","Comic Sans MS","Comic Sans","Comic Neue",Arial,sans-serif;font-size:12px;font-weight:400;fill:#536273}
    .strong{font-family:"Comic Mono","Comic Sans MS","Comic Sans","Comic Neue",Arial,sans-serif;font-size:13px;font-weight:400;fill:#102033}
    .card{stroke-width:2.1;filter:url(#shadow)}.compartment{stroke-width:1.5;fill:none}
    .line{stroke:#758297;stroke-width:2.1;fill:none;marker-end:url(#openArrow)}
    .plainLine{stroke:#758297;stroke-width:2.1;fill:none}
    .dashed{stroke:#758297;stroke-width:2.1;stroke-dasharray:7 6;fill:none;marker-end:url(#openArrow)}
    .inheritLine{stroke:#758297;stroke-width:2.2;fill:none;marker-end:url(#inherit)}
    .implLine{stroke:#758297;stroke-width:2.2;stroke-dasharray:8 7;fill:none;marker-end:url(#inherit)}

    .layerBand{fill-opacity:0.45;stroke-width:1.4;stroke-dasharray:9 7}
    .layerLabel{font-family:"Architects Daughter","Comic Mono","Comic Sans MS","Comic Sans",cursive;font-size:19px;font-weight:400;fill:#536273}
  </style>
</defs>
<rect class="canvas" width="1754" height="821"/>
<rect class="frame" x="32" y="28" width="1690" height="765" rx="28"/>
<text class="title" x="66" y="82">leader redis redisson Class Structure</text>
<text class="subtitle" x="70" y="118">UML classes from the original Mermaid source</text>
<g id="layer-bands" aria-label="Layer bands">
  <g data-layer="Public Electors">
    <rect class="layerBand" x="40" y="156" width="1674" height="168" rx="18" fill="#EEF6FF" stroke="#9BC4F8"/>
    <text class="layerLabel" x="58" y="183">Public Electors</text>
  </g>
  <g data-layer="Redisson Lock Primitives">
    <rect class="layerBand" x="40" y="410" width="1674" height="231" rx="18" fill="#EEF8F1" stroke="#A5D6B7"/>
    <text class="layerLabel" x="58" y="437">Redisson Lock Primitives</text>
  </g>
</g>

<path class="implLine" d="M1492 434 L1492 308"/>
<path class="implLine" d="M262 434 L262 292"/>
<path class="implLine" d="M1082 434 L1082 292"/>
<path class="implLine" d="M672 434 L672 292"/>
<g transform="translate(92,180)">
  <rect class="card" x="0" y="0" width="340" height="112" rx="5" fill="#E8F3FF" stroke="#5B8DEF"/>
  <line class="compartment" x1="0" y1="78" x2="340" y2="78" stroke="#5B8DEF"/>
  <text class="small" x="170" y="26" text-anchor="middle">«interface»</text>
  <text class="label" x="170" y="61" text-anchor="middle">SuspendLeaderElector</text>

</g>
<g transform="translate(502,180)">
  <rect class="card" x="0" y="0" width="340" height="112" rx="5" fill="#EAF7EF" stroke="#58A978"/>
  <line class="compartment" x1="0" y1="78" x2="340" y2="78" stroke="#58A978"/>
  <text class="small" x="170" y="26" text-anchor="middle">«interface»</text>
  <text class="label" x="170" y="61" text-anchor="middle">LeaderElector</text>

</g>
<g transform="translate(912,180)">
  <rect class="card" x="0" y="0" width="340" height="112" rx="5" fill="#FFF3D9" stroke="#D6A441"/>
  <line class="compartment" x1="0" y1="78" x2="340" y2="78" stroke="#D6A441"/>
  <text class="small" x="170" y="26" text-anchor="middle">«interface»</text>
  <text class="label" x="170" y="61" text-anchor="middle">LeaderGroupElector</text>

</g>
<g transform="translate(1322,180)">
  <rect class="card" x="0" y="0" width="340" height="128" rx="5" fill="#FDECEF" stroke="#DC6B82"/>
  <line class="compartment" x1="0" y1="94" x2="340" y2="94" stroke="#DC6B82"/>
  <text class="small" x="170" y="26" text-anchor="middle">«interface»</text>
  <text class="label" x="170" y="56.5" text-anchor="middle">Suspend Leader Group</text>
<text class="label" x="170" y="81.5" text-anchor="middle">Elector</text>

</g>
<g transform="translate(92,434)">
  <rect class="card" x="0" y="0" width="340" height="191" rx="5" fill="#E9F7F6" stroke="#45A7A1"/>
  <line class="compartment" x1="0" y1="94" x2="340" y2="94" stroke="#45A7A1"/>
  <text class="small" x="170" y="26" text-anchor="middle"></text>
  <text class="label" x="170" y="56.5" text-anchor="middle">Redisson Suspend Leader</text>
<text class="label" x="170" y="81.5" text-anchor="middle">Elector</text>
  <text class="mono" x="18" y="124">-redissonClient RedissonClient</text>
<text class="mono" x="18" y="145">-options LeaderElectionOptions</text>
<text class="mono" x="18" y="166">+runIfLeader(lockName, action) T?</text>
</g>
<g transform="translate(502,434)">
  <rect class="card" x="0" y="0" width="340" height="175" rx="5" fill="#F1ECFF" stroke="#8A72D6"/>
  <line class="compartment" x1="0" y1="78" x2="340" y2="78" stroke="#8A72D6"/>
  <text class="small" x="170" y="26" text-anchor="middle"></text>
  <text class="label" x="170" y="61" text-anchor="middle">RedissonLeaderElector</text>
  <text class="mono" x="18" y="108">-redissonClient RedissonClient</text>
<text class="mono" x="18" y="129">-options LeaderElectionOptions</text>
<text class="mono" x="18" y="150">+runIfLeader(lockName, action) T?</text>
</g>
<g transform="translate(912,434)">
  <rect class="card" x="0" y="0" width="340" height="191" rx="5" fill="#F7F1E7" stroke="#B88A44"/>
  <line class="compartment" x1="0" y1="94" x2="340" y2="94" stroke="#B88A44"/>
  <text class="small" x="170" y="26" text-anchor="middle"></text>
  <text class="label" x="170" y="56.5" text-anchor="middle">Redisson Leader Group</text>
<text class="label" x="170" y="81.5" text-anchor="middle">Elector</text>
  <text class="mono" x="18" y="124">-redissonClient RedissonClient</text>
<text class="mono" x="18" y="145">-options LeaderGroupElectionOptions</text>
<text class="mono" x="18" y="166">+runIfLeader(lockName, action) T?</text>
</g>
<g transform="translate(1322,434)">
  <rect class="card" x="0" y="0" width="340" height="191" rx="5" fill="#EEF6D9" stroke="#8BA84D"/>
  <line class="compartment" x1="0" y1="94" x2="340" y2="94" stroke="#8BA84D"/>
  <text class="small" x="170" y="26" text-anchor="middle"></text>
  <text class="label" x="170" y="56.5" text-anchor="middle">Redisson Suspend Leader</text>
<text class="label" x="170" y="81.5" text-anchor="middle">Group Elector</text>
  <text class="mono" x="18" y="124">-redissonClient RedissonClient</text>
<text class="mono" x="18" y="145">-options LeaderGroupElectionOptions</text>
<text class="mono" x="18" y="166">+runIfLeader(lockName, action) T?</text>
</g>
</svg>
