<svg xmlns="http://www.w3.org/2000/svg" width="1468" height="1508" viewBox="0 0 1468 1508" role="img" aria-label="Scenario 1 — Normal acquire/release plus crash recovery">
  <metadata id="graphviz-evidence">Regenerated with Graphviz evidence: leader-redis-redisson-sequence-02.dot, leader-redis-redisson-sequence-02.plain, leader-redis-redisson-sequence-02-graphviz.svg via scripts/regenerate-readme-diagram-graphviz-evidence.mjs.</metadata>
<defs>
  <filter id="shadow" x="-8%" y="-8%" width="116%" height="116%"><feDropShadow dx="0" dy="8" stdDeviation="9" flood-color="#1f2937" flood-opacity="0.10"/></filter>
  <marker id="openArrow" markerWidth="12" markerHeight="10" refX="10" refY="5" orient="auto" markerUnits="strokeWidth"><path d="M 1 1 L 10 5 L 1 9" fill="none" stroke="#758297" stroke-width="1.8" stroke-linecap="round" stroke-linejoin="round"/></marker>
  <marker id="inherit" markerWidth="14" markerHeight="12" refX="12" refY="6" orient="auto" markerUnits="strokeWidth"><path d="M 0 1 L 12 6 L 0 11 Z" fill="#ffffff" stroke="#758297" stroke-width="1.8"/></marker>
  <style>
    .canvas{fill:#f7f9fc}.frame{fill:#fff;stroke:#d8e0ea;stroke-width:1.5}
    .title{font-family:"Architects Daughter","Comic Mono","Comic Sans MS","Comic Sans",cursive;font-size:43px;font-weight:400;fill:#102033}
    .subtitle{font-family:"Comic Mono","Comic Sans MS","Comic Sans","Comic Neue",Arial,sans-serif;font-size:15px;font-weight:400;fill:#536273}
    .label{font-family:"Architects Daughter","Comic Mono","Comic Sans MS","Comic Sans",cursive;font-size:25px;font-weight:400;fill:#102033}
    .smallLabel{font-family:"Architects Daughter","Comic Mono","Comic Sans MS","Comic Sans",cursive;font-size:21px;font-weight:400;fill:#102033}
    .mono{font-family:"Comic Mono","Comic Sans MS","Comic Sans","Comic Neue",Arial,sans-serif;font-size:12px;font-weight:400;fill:#102033}
    .small{font-family:"Comic Mono","Comic Sans MS","Comic Sans","Comic Neue",Arial,sans-serif;font-size:12px;font-weight:400;fill:#536273}
    .strong{font-family:"Comic Mono","Comic Sans MS","Comic Sans","Comic Neue",Arial,sans-serif;font-size:13px;font-weight:400;fill:#102033}
    .card{stroke-width:2.1;filter:url(#shadow)}.compartment{stroke-width:1.5;fill:none}
    .line{stroke:#758297;stroke-width:2.1;fill:none;marker-end:url(#openArrow)}
    .plainLine{stroke:#758297;stroke-width:2.1;fill:none}
    .dashed{stroke:#758297;stroke-width:2.1;stroke-dasharray:7 6;fill:none;marker-end:url(#openArrow)}
    .inheritLine{stroke:#758297;stroke-width:2.2;fill:none;marker-end:url(#inherit)}
    .implLine{stroke:#758297;stroke-width:2.2;stroke-dasharray:8 7;fill:none;marker-end:url(#inherit)}
  </style>
  <!-- semantic lock-state route markers -->
  <marker id="semanticArrow-neutral" markerWidth="8" markerHeight="8" refX="7" refY="4" orient="auto" markerUnits="strokeWidth"><path d="M 1 1 L 7 4 L 1 7" fill="none" stroke="#758297" stroke-width="1.9" stroke-linecap="round" stroke-linejoin="round"/></marker>
  <marker id="semanticArrow-leader" markerWidth="8" markerHeight="8" refX="7" refY="4" orient="auto" markerUnits="strokeWidth"><path d="M 1 1 L 7 4 L 1 7" fill="none" stroke="#43A76B" stroke-width="1.9" stroke-linecap="round" stroke-linejoin="round"/></marker>
  <marker id="semanticArrow-skipped" markerWidth="8" markerHeight="8" refX="7" refY="4" orient="auto" markerUnits="strokeWidth"><path d="M 1 1 L 7 4 L 1 7" fill="none" stroke="#EF5B7A" stroke-width="1.9" stroke-linecap="round" stroke-linejoin="round"/></marker>
  <marker id="semanticArrow-contention" markerWidth="8" markerHeight="8" refX="7" refY="4" orient="auto" markerUnits="strokeWidth"><path d="M 1 1 L 7 4 L 1 7" fill="none" stroke="#D99A2B" stroke-width="1.9" stroke-linecap="round" stroke-linejoin="round"/></marker>
  <marker id="semanticArrow-reacquire" markerWidth="8" markerHeight="8" refX="7" refY="4" orient="auto" markerUnits="strokeWidth"><path d="M 1 1 L 7 4 L 1 7" fill="none" stroke="#8B6EEB" stroke-width="1.9" stroke-linecap="round" stroke-linejoin="round"/></marker>
  <!-- /semantic lock-state route markers -->
</defs>
<rect class="canvas" width="1468" height="1508"/>
<rect class="frame" x="32" y="28" width="1404" height="1452" rx="28"/>
<text class="title" x="66" y="82">Scenario 1 — Normal acquire/release plus cra.</text>
<text class="subtitle" x="70" y="118">Sequence messages from the original Mermaid source</text>
<rect class="card" x="80" y="166" width="300" height="72" rx="12" fill="#E8F3FF" stroke="#5B8DEF"/>
<text class="smallLabel" x="230" y="209" text-anchor="middle">ClientA</text>
<line class="lifeline" x1="230" y1="252" x2="230" y2="1448" stroke="#b7c2d1" stroke-width="2" stroke-dasharray="10 10"/>
<rect class="card" x="584" y="166" width="300" height="72" rx="12" fill="#EAF7EF" stroke="#58A978"/>
<text class="smallLabel" x="734" y="209" text-anchor="middle">ClientB</text>
<line class="lifeline" x1="734" y1="252" x2="734" y2="1448" stroke="#b7c2d1" stroke-width="2" stroke-dasharray="10 10"/>
<rect class="card" x="1088" y="166" width="300" height="72" rx="12" fill="#FFF3D9" stroke="#D6A441"/>
<text class="smallLabel" x="1238" y="198.5" text-anchor="middle">Redis (RPermit</text>
<text class="smallLabel" x="1238" y="219.5" text-anchor="middle">Expirable</text>
<line class="lifeline" x1="1238" y1="252" x2="1238" y2="1448" stroke="#b7c2d1" stroke-width="2" stroke-dasharray="10 10"/>
<rect x="534.5" y="286" width="399" height="40" rx="102" fill="#ffffff" opacity="0.97"/>
<text class="strong" x="552.5" y="313" text-anchor="start" style="fill:#758297">1. getPermitExpirableSemaphore(lg:{lockName})</text>
<path class="line" d="M230 332 L1238 332" data-route-tone="neutral" style="stroke:#758297;marker-end:url(#semanticArrow-neutral)"/>
<rect x="595" y="360" width="278" height="40" rx="102" fill="#ffffff" opacity="0.97"/>
<text class="strong" x="613" y="387" text-anchor="start" style="fill:#758297">2. trySetPermits(maxLeaders=2)</text>
<path class="line" d="M230 406 L1238 406" data-route-tone="neutral" style="stroke:#758297;marker-end:url(#semanticArrow-neutral)"/>
<rect x="629" y="434" width="210" height="40" rx="102" fill="#ffffff" opacity="0.97"/>
<text class="strong" x="647" y="461" text-anchor="start" style="fill:#758297">3. ok</text>
<path class="dashed" d="M1238 480 L230 480" data-route-tone="neutral" style="stroke:#758297;marker-end:url(#semanticArrow-neutral)"/>
<rect x="595" y="508" width="278" height="40" rx="102" fill="#ffffff" opacity="0.97"/>
<text class="strong" x="613" y="535" text-anchor="start" style="fill:#43A76B">4. tryAcquire(waitMs, leaseMs)</text>
<path class="line" d="M230 554 L1238 554" data-route-tone="leader" style="stroke:#43A76B;marker-end:url(#semanticArrow-leader)"/>
<rect x="629" y="582" width="210" height="40" rx="102" fill="#ffffff" opacity="0.97"/>
<text class="strong" x="647" y="609" text-anchor="start" style="fill:#43A76B">5. permitId A1</text>
<path class="dashed" d="M1238 628 L230 628" data-route-tone="leader" style="stroke:#43A76B;marker-end:url(#semanticArrow-leader)"/>
<rect x="173" y="656" width="210" height="40" rx="102" fill="#ffffff" opacity="0.97"/>
<text class="strong" x="191" y="683" text-anchor="start" style="fill:#43A76B">6. action()</text>
<path class="line" d="M230 702 C294 702 294 736 230 736" data-route-tone="leader" style="stroke:#43A76B;marker-end:url(#semanticArrow-leader)"/>
<rect x="881" y="764" width="210" height="40" rx="102" fill="#ffffff" opacity="0.97"/>
<text class="strong" x="899" y="791" text-anchor="start" style="fill:#43A76B">7. tryAcquire(...)</text>
<path class="line" d="M734 810 L1238 810" data-route-tone="leader" style="stroke:#43A76B;marker-end:url(#semanticArrow-leader)"/>
<rect x="881" y="838" width="210" height="40" rx="102" fill="#ffffff" opacity="0.97"/>
<text class="strong" x="899" y="865" text-anchor="start" style="fill:#43A76B">8. permitId B1</text>
<path class="dashed" d="M1238 884 L734 884" data-route-tone="leader" style="stroke:#43A76B;marker-end:url(#semanticArrow-leader)"/>
<rect x="629" y="912" width="210" height="40" rx="102" fill="#ffffff" opacity="0.97"/>
<text class="strong" x="647" y="939" text-anchor="start" style="fill:#D99A2B">9. release(A1)</text>
<path class="line" d="M230 958 L1238 958" data-route-tone="contention" style="stroke:#D99A2B;marker-end:url(#semanticArrow-contention)"/>
<rect x="629" y="986" width="210" height="40" rx="102" fill="#ffffff" opacity="0.97"/>
<text class="strong" x="647" y="1013" text-anchor="start" style="fill:#D99A2B">10. ok</text>
<path class="dashed" d="M1238 1032 L230 1032" data-route-tone="contention" style="stroke:#D99A2B;marker-end:url(#semanticArrow-contention)"/>
<rect x="615" y="1060" width="238" height="40" rx="102" fill="#ffffff" opacity="0.97"/>
<text class="strong" x="633" y="1087" text-anchor="start" style="fill:#8B6EEB">11. tryAcquire (lease=2s)</text>
<path class="line" d="M230 1106 L1238 1106" data-route-tone="reacquire" style="stroke:#8B6EEB;marker-end:url(#semanticArrow-reacquire)"/>
<rect x="629" y="1134" width="210" height="40" rx="102" fill="#ffffff" opacity="0.97"/>
<text class="strong" x="647" y="1161" text-anchor="start" style="fill:#8B6EEB">12. permitId A2</text>
<path class="dashed" d="M1238 1180 L230 1180" data-route-tone="reacquire" style="stroke:#8B6EEB;marker-end:url(#semanticArrow-reacquire)"/>
<rect x="173" y="1208" width="210" height="40" rx="102" fill="#ffffff" opacity="0.97"/>
<text class="strong" x="191" y="1235" text-anchor="start" style="fill:#D99A2B">13. crash</text>
<path class="line" d="M230 1254 C294 1254 294 1288 230 1288" data-route-tone="contention" style="stroke:#D99A2B;marker-end:url(#semanticArrow-contention)"/>
<rect x="881" y="1316" width="210" height="40" rx="102" fill="#ffffff" opacity="0.97"/>
<text class="strong" x="899" y="1343" text-anchor="start" style="fill:#8B6EEB">14. tryAcquire</text>
<path class="line" d="M734 1362 L1238 1362" data-route-tone="reacquire" style="stroke:#8B6EEB;marker-end:url(#semanticArrow-reacquire)"/>
<rect x="839" y="1390" width="294" height="40" rx="102" fill="#ffffff" opacity="0.97"/>
<text class="strong" x="857" y="1417" text-anchor="start" style="fill:#8B6EEB">15. permitId B3 (auto-recovered)</text>
<path class="dashed" d="M1238 1436 L734 1436" data-route-tone="reacquire" style="stroke:#8B6EEB;marker-end:url(#semanticArrow-reacquire)"/>
</svg>
