<?xml version="1.0" encoding="UTF-8" standalone="no"?>
<!DOCTYPE svg PUBLIC "-//W3C//DTD SVG 1.1//EN"
 "http://www.w3.org/Graphics/SVG/1.1/DTD/svg11.dtd">
<!-- Generated by graphviz version 15.0.0 (20260523.1842)
 -->
<!-- Title: leader&#45;k8s&#45;architecture&#45;01 Pages: 1 -->
<svg width="1594pt" height="422pt"
 viewBox="0.00 0.00 1594.00 422.00" xmlns="http://www.w3.org/2000/svg" xmlns:xlink="http://www.w3.org/1999/xlink">
<g id="graph0" class="graph" transform="scale(1 1) rotate(0) translate(4 418)">
<title>leader&#45;k8s&#45;architecture&#45;01</title>
<!-- caller -->
<g id="node1" class="node">
<title>caller</title>
<path fill="#f8fafc" stroke="#94a3b8" d="M139,-340C139,-340 12,-340 12,-340 6,-340 0,-334 0,-328 0,-328 0,-316 0,-316 0,-310 6,-304 12,-304 12,-304 139,-304 139,-304 145,-304 151,-310 151,-316 151,-316 151,-328 151,-328 151,-334 145,-340 139,-340"/>
<text xml:space="preserve" text-anchor="middle" x="75.5" y="-316.57" font-family="Comic Mono" font-size="14.00">Application Caller</text>
</g>
<!-- single -->
<g id="node5" class="node">
<title>single</title>
<path fill="#f8fafc" stroke="#94a3b8" d="M399.5,-382C399.5,-382 250,-382 250,-382 244,-382 238,-376 238,-370 238,-370 238,-358 238,-358 238,-352 244,-346 250,-346 250,-346 399.5,-346 399.5,-346 405.5,-346 411.5,-352 411.5,-358 411.5,-358 411.5,-370 411.5,-370 411.5,-376 405.5,-382 399.5,-382"/>
<text xml:space="preserve" text-anchor="middle" x="324.75" y="-358.57" font-family="Comic Mono" font-size="14.00">Single Lease Electors</text>
</g>
<!-- caller&#45;&gt;single -->
<g id="edge1" class="edge">
<title>caller&#45;&gt;single</title>
<path fill="none" stroke="#758297" d="M75.25,-340.06C75.25,-351.44 75.25,-364 75.25,-364 75.25,-364 226.32,-364 226.32,-364"/>
<polygon fill="#758297" stroke="#758297" points="226.32,-367.5 236.32,-364 226.32,-360.5 226.32,-367.5"/>
<text xml:space="preserve" text-anchor="middle" x="194.5" y="-361.5" font-family="Comic Mono" font-size="10.00">call</text>
</g>
<!-- group -->
<g id="node6" class="node">
<title>group</title>
<path fill="#f8fafc" stroke="#94a3b8" d="M395.75,-299C395.75,-299 253.75,-299 253.75,-299 247.75,-299 241.75,-293 241.75,-287 241.75,-287 241.75,-275 241.75,-275 241.75,-269 247.75,-263 253.75,-263 253.75,-263 395.75,-263 395.75,-263 401.75,-263 407.75,-269 407.75,-275 407.75,-275 407.75,-287 407.75,-287 407.75,-293 401.75,-299 395.75,-299"/>
<text xml:space="preserve" text-anchor="middle" x="324.75" y="-275.57" font-family="Comic Mono" font-size="14.00">Group Lease Electors</text>
</g>
<!-- caller&#45;&gt;group -->
<g id="edge2" class="edge">
<title>caller&#45;&gt;group</title>
<path fill="none" stroke="#758297" d="M75.25,-303.9C75.25,-292.91 75.25,-281 75.25,-281 75.25,-281 229.81,-281 229.81,-281"/>
<polygon fill="#758297" stroke="#758297" points="229.81,-284.5 239.81,-281 229.81,-277.5 229.81,-284.5"/>
<text xml:space="preserve" text-anchor="middle" x="194.5" y="-292.5" font-family="Comic Mono" font-size="10.00">call</text>
</g>
<!-- fabric8 -->
<g id="node2" class="node">
<title>fabric8</title>
<path fill="#f8fafc" stroke="#94a3b8" d="M720.75,-119C720.75,-119 526.25,-119 526.25,-119 520.25,-119 514.25,-113 514.25,-107 514.25,-107 514.25,-95 514.25,-95 514.25,-89 520.25,-83 526.25,-83 526.25,-83 720.75,-83 720.75,-83 726.75,-83 732.75,-89 732.75,-95 732.75,-95 732.75,-107 732.75,-107 732.75,-113 726.75,-119 720.75,-119"/>
<text xml:space="preserve" text-anchor="middle" x="623.5" y="-95.58" font-family="Comic Mono" font-size="14.00">Caller&#45;Owned Fabric8 Client</text>
</g>
<!-- lock -->
<g id="node7" class="node">
<title>lock</title>
<path fill="#f8fafc" stroke="#94a3b8" d="M997.75,-231C997.75,-231 863.25,-231 863.25,-231 857.25,-231 851.25,-225 851.25,-219 851.25,-219 851.25,-207 851.25,-207 851.25,-201 857.25,-195 863.25,-195 863.25,-195 997.75,-195 997.75,-195 1003.75,-195 1009.75,-201 1009.75,-207 1009.75,-207 1009.75,-219 1009.75,-219 1009.75,-225 1003.75,-231 997.75,-231"/>
<text xml:space="preserve" text-anchor="middle" x="930.5" y="-207.57" font-family="Comic Mono" font-size="14.00">KubernetesLeaseLock</text>
</g>
<!-- fabric8&#45;&gt;lock -->
<g id="edge3" class="edge">
<title>fabric8&#45;&gt;lock</title>
<path fill="none" stroke="#758297" d="M729.25,-119.44C729.25,-152.62 729.25,-219 729.25,-219 729.25,-219 839.45,-219 839.45,-219"/>
<polygon fill="#758297" stroke="#758297" points="839.45,-222.5 849.45,-219 839.45,-215.5 839.45,-222.5"/>
<text xml:space="preserve" text-anchor="middle" x="792" y="-103.5" font-family="Comic Mono" font-size="10.00">dependency</text>
</g>
<!-- options -->
<g id="node3" class="node">
<title>options</title>
<path fill="#f8fafc" stroke="#94a3b8" d="M709.5,-36C709.5,-36 537.5,-36 537.5,-36 531.5,-36 525.5,-30 525.5,-24 525.5,-24 525.5,-12 525.5,-12 525.5,-6 531.5,0 537.5,0 537.5,0 709.5,0 709.5,0 715.5,0 721.5,-6 721.5,-12 721.5,-12 721.5,-24 721.5,-24 721.5,-30 715.5,-36 709.5,-36"/>
<text xml:space="preserve" text-anchor="middle" x="623.5" y="-12.57" font-family="Comic Mono" font-size="14.00">Kubernetes Lease Options</text>
</g>
<!-- options&#45;&gt;lock -->
<g id="edge4" class="edge">
<title>options&#45;&gt;lock</title>
<path fill="none" stroke="#758297" d="M721.66,-32.5C758.79,-32.5 792.25,-32.5 792.25,-32.5 792.25,-32.5 792.25,-207 792.25,-207 792.25,-207 839.37,-207 839.37,-207"/>
<polygon fill="#758297" stroke="#758297" points="839.37,-210.5 849.37,-207 839.37,-203.5 839.37,-210.5"/>
<text xml:space="preserve" text-anchor="middle" x="792" y="-20.5" font-family="Comic Mono" font-size="10.00">dependency</text>
</g>
<!-- rbac -->
<g id="node4" class="node">
<title>rbac</title>
<path fill="#f8fafc" stroke="#94a3b8" d="M1289.75,-65C1289.75,-65 1162.75,-65 1162.75,-65 1156.75,-65 1150.75,-59 1150.75,-53 1150.75,-53 1150.75,-41 1150.75,-41 1150.75,-35 1156.75,-29 1162.75,-29 1162.75,-29 1289.75,-29 1289.75,-29 1295.75,-29 1301.75,-35 1301.75,-41 1301.75,-41 1301.75,-53 1301.75,-53 1301.75,-59 1295.75,-65 1289.75,-65"/>
<text xml:space="preserve" text-anchor="middle" x="1226.25" y="-41.58" font-family="Comic Mono" font-size="14.00">Namespace And RBAC</text>
</g>
<!-- metadata -->
<g id="node12" class="node">
<title>metadata</title>
<path fill="#f8fafc" stroke="#94a3b8" d="M1574.25,-97C1574.25,-97 1454.75,-97 1454.75,-97 1448.75,-97 1442.75,-91 1442.75,-85 1442.75,-85 1442.75,-73 1442.75,-73 1442.75,-67 1448.75,-61 1454.75,-61 1454.75,-61 1574.25,-61 1574.25,-61 1580.25,-61 1586.25,-67 1586.25,-73 1586.25,-73 1586.25,-85 1586.25,-85 1586.25,-91 1580.25,-97 1574.25,-97"/>
<text xml:space="preserve" text-anchor="middle" x="1514.5" y="-73.58" font-family="Comic Mono" font-size="14.00">Audit Annotations</text>
</g>
<!-- rbac&#45;&gt;metadata -->
<g id="edge5" class="edge">
<title>rbac&#45;&gt;metadata</title>
<path fill="none" stroke="#758297" d="M1226.25,-65.46C1226.25,-70.2 1226.25,-74 1226.25,-74 1226.25,-74 1430.99,-74 1430.99,-74"/>
<polygon fill="#758297" stroke="#758297" points="1430.99,-77.5 1440.99,-74 1430.99,-70.5 1430.99,-77.5"/>
<text xml:space="preserve" text-anchor="middle" x="1383.5" y="-49.5" font-family="Comic Mono" font-size="10.00">dependency</text>
</g>
<!-- single&#45;&gt;lock -->
<g id="edge6" class="edge">
<title>single&#45;&gt;lock</title>
<path fill="none" stroke="#758297" d="M411.81,-370C588,-370 970.25,-370 970.25,-370 970.25,-370 970.25,-242.83 970.25,-242.83"/>
<polygon fill="#758297" stroke="#758297" points="973.75,-242.83 970.25,-232.83 966.75,-242.83 973.75,-242.83"/>
<text xml:space="preserve" text-anchor="middle" x="623.5" y="-404.5" font-family="Comic Mono" font-size="10.00">call</text>
</g>
<!-- handle -->
<g id="node8" class="node">
<title>handle</title>
<path fill="#f8fafc" stroke="#94a3b8" d="M713.25,-308C713.25,-308 533.75,-308 533.75,-308 527.75,-308 521.75,-302 521.75,-296 521.75,-296 521.75,-284 521.75,-284 521.75,-278 527.75,-272 533.75,-272 533.75,-272 713.25,-272 713.25,-272 719.25,-272 725.25,-278 725.25,-284 725.25,-284 725.25,-296 725.25,-296 725.25,-302 719.25,-308 713.25,-308"/>
<text xml:space="preserve" text-anchor="middle" x="623.5" y="-284.57" font-family="Comic Mono" font-size="14.00">Lease Handle And Extender</text>
</g>
<!-- single&#45;&gt;handle -->
<g id="edge8" class="edge">
<title>single&#45;&gt;handle</title>
<path fill="none" stroke="#758297" d="M411.89,-358C500,-358 623.25,-358 623.25,-358 623.25,-358 623.25,-319.74 623.25,-319.74"/>
<polygon fill="#758297" stroke="#758297" points="626.75,-319.74 623.25,-309.74 619.75,-319.74 626.75,-319.74"/>
<text xml:space="preserve" text-anchor="middle" x="462.88" y="-359.5" font-family="Comic Mono" font-size="10.00">success</text>
</g>
<!-- group&#45;&gt;lock -->
<g id="edge7" class="edge">
<title>group&#45;&gt;lock</title>
<path fill="none" stroke="#758297" d="M408.03,-267.5C565.5,-267.5 891.25,-267.5 891.25,-267.5 891.25,-267.5 891.25,-242.96 891.25,-242.96"/>
<polygon fill="#758297" stroke="#758297" points="894.75,-242.96 891.25,-232.96 887.75,-242.96 894.75,-242.96"/>
<text xml:space="preserve" text-anchor="middle" x="623.5" y="-215.5" font-family="Comic Mono" font-size="10.00">call</text>
</g>
<!-- group&#45;&gt;handle -->
<g id="edge9" class="edge">
<title>group&#45;&gt;handle</title>
<path fill="none" stroke="#758297" d="M407.97,-285.5C407.97,-285.5 509.8,-285.5 509.8,-285.5"/>
<polygon fill="#758297" stroke="#758297" points="509.8,-289 519.8,-285.5 509.8,-282 509.8,-289"/>
<text xml:space="preserve" text-anchor="middle" x="462.88" y="-291.5" font-family="Comic Mono" font-size="10.00">success</text>
</g>
<!-- version -->
<g id="node11" class="node">
<title>version</title>
<path fill="#f8fafc" stroke="#94a3b8" d="M1312.25,-148C1312.25,-148 1140.25,-148 1140.25,-148 1134.25,-148 1128.25,-142 1128.25,-136 1128.25,-136 1128.25,-124 1128.25,-124 1128.25,-118 1134.25,-112 1140.25,-112 1140.25,-112 1312.25,-112 1312.25,-112 1318.25,-112 1324.25,-118 1324.25,-124 1324.25,-124 1324.25,-136 1324.25,-136 1324.25,-142 1318.25,-148 1312.25,-148"/>
<text xml:space="preserve" text-anchor="middle" x="1226.25" y="-124.58" font-family="Comic Mono" font-size="14.00">ResourceVersion Conflict</text>
</g>
<!-- lock&#45;&gt;version -->
<g id="edge11" class="edge">
<title>lock&#45;&gt;version</title>
<path fill="none" stroke="#758297" d="M1010.14,-213C1097.74,-213 1226.25,-213 1226.25,-213 1226.25,-213 1226.25,-159.93 1226.25,-159.93"/>
<polygon fill="#758297" stroke="#758297" points="1229.75,-159.93 1226.25,-149.93 1222.75,-159.93 1229.75,-159.93"/>
<text xml:space="preserve" text-anchor="middle" x="1069" y="-205.5" font-family="Comic Mono" font-size="10.00">contention</text>
</g>
<!-- handle&#45;&gt;lock -->
<g id="edge10" class="edge">
<title>handle&#45;&gt;lock</title>
<path fill="none" stroke="#758297" d="M725.64,-290C814.88,-290 930.25,-290 930.25,-290 930.25,-290 930.25,-242.76 930.25,-242.76"/>
<polygon fill="#758297" stroke="#758297" points="933.75,-242.76 930.25,-232.76 926.75,-242.76 933.75,-242.76"/>
<text xml:space="preserve" text-anchor="middle" x="792" y="-291.5" font-family="Comic Mono" font-size="10.00">retry</text>
</g>
<!-- singleLease -->
<g id="node9" class="node">
<title>singleLease</title>
<path fill="#f8fafc" stroke="#94a3b8" d="M997.75,-148C997.75,-148 863.25,-148 863.25,-148 857.25,-148 851.25,-142 851.25,-136 851.25,-136 851.25,-124 851.25,-124 851.25,-118 857.25,-112 863.25,-112 863.25,-112 997.75,-112 997.75,-112 1003.75,-112 1009.75,-118 1009.75,-124 1009.75,-124 1009.75,-136 1009.75,-136 1009.75,-142 1003.75,-148 997.75,-148"/>
<text xml:space="preserve" text-anchor="middle" x="930.5" y="-124.58" font-family="Comic Mono" font-size="14.00">Single Lease Object</text>
</g>
<!-- singleLease&#45;&gt;version -->
<g id="edge12" class="edge">
<title>singleLease&#45;&gt;version</title>
<path fill="none" stroke="#758297" d="M1010.14,-130C1010.14,-130 1116.46,-130 1116.46,-130"/>
<polygon fill="#758297" stroke="#758297" points="1116.46,-133.5 1126.46,-130 1116.46,-126.5 1116.46,-133.5"/>
<text xml:space="preserve" text-anchor="middle" x="1069" y="-132.5" font-family="Comic Mono" font-size="10.00">success</text>
</g>
<!-- slotLeases -->
<g id="node10" class="node">
<title>slotLeases</title>
<path fill="#f8fafc" stroke="#94a3b8" d="M990.25,-65C990.25,-65 870.75,-65 870.75,-65 864.75,-65 858.75,-59 858.75,-53 858.75,-53 858.75,-41 858.75,-41 858.75,-35 864.75,-29 870.75,-29 870.75,-29 990.25,-29 990.25,-29 996.25,-29 1002.25,-35 1002.25,-41 1002.25,-41 1002.25,-53 1002.25,-53 1002.25,-59 996.25,-65 990.25,-65"/>
<text xml:space="preserve" text-anchor="middle" x="930.5" y="-41.58" font-family="Comic Mono" font-size="14.00">Group Slot Leases</text>
</g>
<!-- slotLeases&#45;&gt;version -->
<g id="edge13" class="edge">
<title>slotLeases&#45;&gt;version</title>
<path fill="none" stroke="#758297" d="M1002.63,-47C1062.97,-47 1139.25,-47 1139.25,-47 1139.25,-47 1139.25,-100.07 1139.25,-100.07"/>
<polygon fill="#758297" stroke="#758297" points="1135.75,-100.07 1139.25,-110.07 1142.75,-100.07 1135.75,-100.07"/>
<text xml:space="preserve" text-anchor="middle" x="1069" y="-49.5" font-family="Comic Mono" font-size="10.00">success</text>
</g>
<!-- version&#45;&gt;metadata -->
<g id="edge14" class="edge">
<title>version&#45;&gt;metadata</title>
<path fill="none" stroke="#758297" d="M1313.25,-111.87C1313.25,-101.29 1313.25,-90 1313.25,-90 1313.25,-90 1430.9,-90 1430.9,-90"/>
<polygon fill="#758297" stroke="#758297" points="1430.9,-93.5 1440.9,-90 1430.9,-86.5 1430.9,-93.5"/>
<text xml:space="preserve" text-anchor="middle" x="1383.5" y="-122.5" font-family="Comic Mono" font-size="10.00">release</text>
</g>
</g>
</svg>
