<?xml version="1.0" encoding="UTF-8" standalone="no"?>
<!DOCTYPE svg PUBLIC "-//W3C//DTD SVG 1.1//EN"
 "http://www.w3.org/Graphics/SVG/1.1/DTD/svg11.dtd">
<!-- Generated by graphviz version 15.0.0 (20260523.1842)
 -->
<!-- Title: leader&#45;k8s&#45;sequence&#45;02 Pages: 1 -->
<svg width="919pt" height="440pt"
 viewBox="0.00 0.00 919.00 440.00" xmlns="http://www.w3.org/2000/svg" xmlns:xlink="http://www.w3.org/1999/xlink">
<g id="graph0" class="graph" transform="scale(1 1) rotate(0) translate(4 436)">
<title>leader&#45;k8s&#45;sequence&#45;02</title>
<!-- caller -->
<g id="node1" class="node">
<title>caller</title>
<path fill="#f8fafc" stroke="#94a3b8" d="M49,-237C49,-237 12,-237 12,-237 6,-237 0,-231 0,-225 0,-225 0,-213 0,-213 0,-207 6,-201 12,-201 12,-201 49,-201 49,-201 55,-201 61,-207 61,-213 61,-213 61,-225 61,-225 61,-231 55,-237 49,-237"/>
<text xml:space="preserve" text-anchor="middle" x="30.5" y="-213.57" font-family="Comic Mono" font-size="14.00">Caller</text>
</g>
<!-- elector -->
<g id="node2" class="node">
<title>elector</title>
<path fill="#f8fafc" stroke="#94a3b8" d="M455,-237C455,-237 328,-237 328,-237 322,-237 316,-231 316,-225 316,-225 316,-213 316,-213 316,-207 322,-201 328,-201 328,-201 455,-201 455,-201 461,-201 467,-207 467,-213 467,-213 467,-225 467,-225 467,-231 461,-237 455,-237"/>
<text xml:space="preserve" text-anchor="middle" x="391.5" y="-213.57" font-family="Comic Mono" font-size="14.00">Kubernetes elector</text>
</g>
<!-- caller&#45;&gt;elector -->
<g id="edge1" class="edge">
<title>caller&#45;&gt;elector</title>
<path fill="none" stroke="#4f83bf" d="M61.28,-210C61.28,-210 307,-210 307,-210"/>
<polygon fill="#4f83bf" stroke="#4f83bf" points="307,-212.45 314,-210 307,-207.55 307,-212.45"/>
<text xml:space="preserve" text-anchor="middle" x="188.5" y="-288.5" font-family="Comic Mono" font-size="10.00">runIfLeader(lockName, options, body)</text>
</g>
<!-- elector&#45;&gt;caller -->
<g id="edge7" class="edge">
<title>elector&#45;&gt;caller</title>
<path fill="none" stroke="#3e9868" d="M315.82,-219C315.82,-219 69.58,-219 69.58,-219"/>
<polygon fill="#3e9868" stroke="#3e9868" points="69.58,-216.55 62.58,-219 69.58,-221.45 69.58,-216.55"/>
<text xml:space="preserve" text-anchor="middle" x="188.5" y="-221.5" font-family="Comic Mono" font-size="10.00">return body result</text>
</g>
<!-- elector&#45;&gt;caller -->
<g id="edge10" class="edge">
<title>elector&#45;&gt;caller</title>
<path fill="none" stroke="#c94d68" d="M315.82,-228C315.82,-228 69.58,-228 69.58,-228"/>
<polygon fill="#c94d68" stroke="#c94d68" points="69.58,-225.55 62.58,-228 69.58,-230.45 69.58,-225.55"/>
<text xml:space="preserve" text-anchor="middle" x="188.5" y="-154.5" font-family="Comic Mono" font-size="10.00">return skipped result</text>
</g>
<!-- backend -->
<g id="node3" class="node">
<title>backend</title>
<path fill="#f8fafc" stroke="#94a3b8" d="M898.5,-337C898.5,-337 786.5,-337 786.5,-337 780.5,-337 774.5,-331 774.5,-325 774.5,-325 774.5,-313 774.5,-313 774.5,-307 780.5,-301 786.5,-301 786.5,-301 898.5,-301 898.5,-301 904.5,-301 910.5,-307 910.5,-313 910.5,-313 910.5,-325 910.5,-325 910.5,-331 904.5,-337 898.5,-337"/>
<text xml:space="preserve" text-anchor="middle" x="842.5" y="-313.57" font-family="Comic Mono" font-size="14.00">Kubernetes Lease</text>
</g>
<!-- elector&#45;&gt;backend -->
<g id="edge2" class="edge">
<title>elector&#45;&gt;backend</title>
<path fill="none" stroke="#b9851b" d="M467.3,-231.86C579.71,-231.86 777.5,-231.86 777.5,-231.86 777.5,-231.86 777.5,-292.01 777.5,-292.01"/>
<polygon fill="#b9851b" stroke="#b9851b" points="775.05,-292.01 777.5,-299.01 779.95,-292.01 775.05,-292.01"/>
<text xml:space="preserve" text-anchor="middle" x="620.75" y="-422.5" font-family="Comic Mono" font-size="10.00">create or replace Lease with holderIdentity</text>
</g>
<!-- elector&#45;&gt;backend -->
<g id="edge6" class="edge">
<title>elector&#45;&gt;backend</title>
<path fill="none" stroke="#755bc6" d="M467.3,-216.43C582.77,-216.43 789.5,-216.43 789.5,-216.43 789.5,-216.43 789.5,-292.15 789.5,-292.15"/>
<polygon fill="#755bc6" stroke="#755bc6" points="787.05,-292.15 789.5,-299.15 791.95,-292.15 787.05,-292.15"/>
<text xml:space="preserve" text-anchor="middle" x="620.75" y="-355.5" font-family="Comic Mono" font-size="10.00">clear holder identity when token still matches</text>
</g>
<!-- body -->
<g id="node4" class="node">
<title>body</title>
<path fill="#f8fafc" stroke="#94a3b8" d="M879.75,-146C879.75,-146 805.25,-146 805.25,-146 799.25,-146 793.25,-140 793.25,-134 793.25,-134 793.25,-122 793.25,-122 793.25,-116 799.25,-110 805.25,-110 805.25,-110 879.75,-110 879.75,-110 885.75,-110 891.75,-116 891.75,-122 891.75,-122 891.75,-134 891.75,-134 891.75,-140 885.75,-146 879.75,-146"/>
<text xml:space="preserve" text-anchor="middle" x="842.5" y="-122.58" font-family="Comic Mono" font-size="14.00">Leader body</text>
</g>
<!-- elector&#45;&gt;body -->
<g id="edge4" class="edge">
<title>elector&#45;&gt;body</title>
<path fill="none" stroke="#4f83bf" d="M467.31,-211.29C599.56,-211.29 858.5,-211.29 858.5,-211.29 858.5,-211.29 858.5,-155 858.5,-155"/>
<polygon fill="#4f83bf" stroke="#4f83bf" points="860.95,-155 858.5,-148 856.05,-155 860.95,-155"/>
<text xml:space="preserve" text-anchor="middle" x="620.75" y="-154.5" font-family="Comic Mono" font-size="10.00">execute protected leader body</text>
</g>
<!-- cleanup -->
<g id="node5" class="node">
<title>cleanup</title>
<path fill="#f8fafc" stroke="#94a3b8" d="M887.25,-36C887.25,-36 797.75,-36 797.75,-36 791.75,-36 785.75,-30 785.75,-24 785.75,-24 785.75,-12 785.75,-12 785.75,-6 791.75,0 797.75,0 797.75,0 887.25,0 887.25,0 893.25,0 899.25,-6 899.25,-12 899.25,-12 899.25,-24 899.25,-24 899.25,-30 893.25,-36 887.25,-36"/>
<text xml:space="preserve" text-anchor="middle" x="842.5" y="-12.57" font-family="Comic Mono" font-size="14.00">Recovery path</text>
</g>
<!-- elector&#45;&gt;cleanup -->
<g id="edge9" class="edge">
<title>elector&#45;&gt;cleanup</title>
<path fill="none" stroke="#2e8f89" d="M391.5,-200.81C391.5,-151.33 391.5,-18 391.5,-18 391.5,-18 776.87,-18 776.87,-18"/>
<polygon fill="#2e8f89" stroke="#2e8f89" points="776.87,-20.45 783.87,-18 776.87,-15.55 776.87,-20.45"/>
<text xml:space="preserve" text-anchor="middle" x="620.75" y="-20.5" font-family="Comic Mono" font-size="10.00">leaseDurationSeconds expires stale holder</text>
</g>
<!-- backend&#45;&gt;elector -->
<g id="edge3" class="edge">
<title>backend&#45;&gt;elector</title>
<path fill="none" stroke="#3e9868" d="M780.5,-300.77C780.5,-273.87 780.5,-226.71 780.5,-226.71 780.5,-226.71 475.94,-226.71 475.94,-226.71"/>
<polygon fill="#3e9868" stroke="#3e9868" points="475.94,-224.26 468.94,-226.71 475.94,-229.16 475.94,-224.26"/>
<text xml:space="preserve" text-anchor="middle" x="620.75" y="-288.5" font-family="Comic Mono" font-size="10.00">token accepted</text>
</g>
<!-- backend&#45;&gt;elector -->
<g id="edge8" class="edge">
<title>backend&#45;&gt;elector</title>
<path fill="none" stroke="#c94d68" d="M782.5,-300.67C782.5,-272.45 782.5,-221.57 782.5,-221.57 782.5,-221.57 475.87,-221.57 475.87,-221.57"/>
<polygon fill="#c94d68" stroke="#c94d68" points="475.87,-219.12 468.87,-221.57 475.87,-224.02 475.87,-219.12"/>
<text xml:space="preserve" text-anchor="middle" x="620.75" y="-221.5" font-family="Comic Mono" font-size="10.00">existing owner token blocks acquire</text>
</g>
<!-- body&#45;&gt;elector -->
<g id="edge5" class="edge">
<title>body&#45;&gt;elector</title>
<path fill="none" stroke="#3e9868" d="M826.5,-146.12C826.5,-169.21 826.5,-206.14 826.5,-206.14 826.5,-206.14 475.78,-206.14 475.78,-206.14"/>
<polygon fill="#3e9868" stroke="#3e9868" points="475.78,-203.69 468.78,-206.14 475.78,-208.59 475.78,-203.69"/>
<text xml:space="preserve" text-anchor="middle" x="620.75" y="-87.5" font-family="Comic Mono" font-size="10.00">body result</text>
</g>
</g>
</svg>
