<?xml version="1.0" encoding="UTF-8" standalone="no"?>
<!DOCTYPE svg PUBLIC "-//W3C//DTD SVG 1.1//EN"
 "http://www.w3.org/Graphics/SVG/1.1/DTD/svg11.dtd">
<!-- Generated by graphviz version 15.0.0 (20260523.1842)
 -->
<!-- Title: leader&#45;dynamodb&#45;architecture&#45;01 Pages: 1 -->
<svg width="1602pt" height="422pt"
 viewBox="0.00 0.00 1602.00 422.00" xmlns="http://www.w3.org/2000/svg" xmlns:xlink="http://www.w3.org/1999/xlink">
<g id="graph0" class="graph" transform="scale(1 1) rotate(0) translate(4 418)">
<title>leader&#45;dynamodb&#45;architecture&#45;01</title>
<!-- caller -->
<g id="node1" class="node">
<title>caller</title>
<path fill="#f8fafc" stroke="#94a3b8" d="M139,-340C139,-340 12,-340 12,-340 6,-340 0,-334 0,-328 0,-328 0,-316 0,-316 0,-310 6,-304 12,-304 12,-304 139,-304 139,-304 145,-304 151,-310 151,-316 151,-316 151,-328 151,-328 151,-334 145,-340 139,-340"/>
<text xml:space="preserve" text-anchor="middle" x="75.5" y="-316.57" font-family="Comic Mono" font-size="14.00">Application Caller</text>
</g>
<!-- single -->
<g id="node5" class="node">
<title>single</title>
<path fill="#f8fafc" stroke="#94a3b8" d="M407,-382C407,-382 250,-382 250,-382 244,-382 238,-376 238,-370 238,-370 238,-358 238,-358 238,-352 244,-346 250,-346 250,-346 407,-346 407,-346 413,-346 419,-352 419,-358 419,-358 419,-370 419,-370 419,-376 413,-382 407,-382"/>
<text xml:space="preserve" text-anchor="middle" x="328.5" y="-358.57" font-family="Comic Mono" font-size="14.00">Single Leader Electors</text>
</g>
<!-- caller&#45;&gt;single -->
<g id="edge1" class="edge">
<title>caller&#45;&gt;single</title>
<path fill="none" stroke="#758297" d="M151.26,-324C195.92,-324 243.75,-324 243.75,-324 243.75,-324 243.75,-334.36 243.75,-334.36"/>
<polygon fill="#758297" stroke="#758297" points="240.25,-334.36 243.75,-344.36 247.25,-334.36 240.25,-334.36"/>
<text xml:space="preserve" text-anchor="middle" x="194.5" y="-361.5" font-family="Comic Mono" font-size="10.00">call</text>
</g>
<!-- group -->
<g id="node6" class="node">
<title>group</title>
<path fill="#f8fafc" stroke="#94a3b8" d="M395.75,-299C395.75,-299 261.25,-299 261.25,-299 255.25,-299 249.25,-293 249.25,-287 249.25,-287 249.25,-275 249.25,-275 249.25,-269 255.25,-263 261.25,-263 261.25,-263 395.75,-263 395.75,-263 401.75,-263 407.75,-269 407.75,-275 407.75,-275 407.75,-287 407.75,-287 407.75,-293 401.75,-299 395.75,-299"/>
<text xml:space="preserve" text-anchor="middle" x="328.5" y="-275.57" font-family="Comic Mono" font-size="14.00">Group Slot Electors</text>
</g>
<!-- caller&#45;&gt;group -->
<g id="edge2" class="edge">
<title>caller&#45;&gt;group</title>
<path fill="none" stroke="#758297" d="M75.75,-303.9C75.75,-292.91 75.75,-281 75.75,-281 75.75,-281 237.36,-281 237.36,-281"/>
<polygon fill="#758297" stroke="#758297" points="237.36,-284.5 247.36,-281 237.36,-277.5 237.36,-284.5"/>
<text xml:space="preserve" text-anchor="middle" x="194.5" y="-292.5" font-family="Comic Mono" font-size="10.00">call</text>
</g>
<!-- clients -->
<g id="node2" class="node">
<title>clients</title>
<path fill="#f8fafc" stroke="#94a3b8" d="M675.75,-119C675.75,-119 571.25,-119 571.25,-119 565.25,-119 559.25,-113 559.25,-107 559.25,-107 559.25,-95 559.25,-95 559.25,-89 565.25,-83 571.25,-83 571.25,-83 675.75,-83 675.75,-83 681.75,-83 687.75,-89 687.75,-95 687.75,-95 687.75,-107 687.75,-107 687.75,-113 681.75,-119 675.75,-119"/>
<text xml:space="preserve" text-anchor="middle" x="623.5" y="-95.58" font-family="Comic Mono" font-size="14.00">AWS SDK Clients</text>
</g>
<!-- client -->
<g id="node7" class="node">
<title>client</title>
<path fill="#f8fafc" stroke="#94a3b8" d="M982.75,-231C982.75,-231 855.75,-231 855.75,-231 849.75,-231 843.75,-225 843.75,-219 843.75,-219 843.75,-207 843.75,-207 843.75,-201 849.75,-195 855.75,-195 855.75,-195 982.75,-195 982.75,-195 988.75,-195 994.75,-201 994.75,-207 994.75,-207 994.75,-219 994.75,-219 994.75,-225 988.75,-231 982.75,-231"/>
<text xml:space="preserve" text-anchor="middle" x="919.25" y="-207.57" font-family="Comic Mono" font-size="14.00">DynamoDbLockClient</text>
</g>
<!-- clients&#45;&gt;client -->
<g id="edge3" class="edge">
<title>clients&#45;&gt;client</title>
<path fill="none" stroke="#758297" d="M688.06,-115.5C754.31,-115.5 847.75,-115.5 847.75,-115.5 847.75,-115.5 847.75,-183.15 847.75,-183.15"/>
<polygon fill="#758297" stroke="#758297" points="844.25,-183.15 847.75,-193.15 851.25,-183.15 844.25,-183.15"/>
<text xml:space="preserve" text-anchor="middle" x="784.5" y="-103.5" font-family="Comic Mono" font-size="10.00">dependency</text>
</g>
<!-- options -->
<g id="node3" class="node">
<title>options</title>
<path fill="#f8fafc" stroke="#94a3b8" d="M679.5,-36C679.5,-36 567.5,-36 567.5,-36 561.5,-36 555.5,-30 555.5,-24 555.5,-24 555.5,-12 555.5,-12 555.5,-6 561.5,0 567.5,0 567.5,0 679.5,0 679.5,0 685.5,0 691.5,-6 691.5,-12 691.5,-12 691.5,-24 691.5,-24 691.5,-30 685.5,-36 679.5,-36"/>
<text xml:space="preserve" text-anchor="middle" x="623.5" y="-12.57" font-family="Comic Mono" font-size="14.00">DynamoDB Options</text>
</g>
<!-- options&#45;&gt;client -->
<g id="edge4" class="edge">
<title>options&#45;&gt;client</title>
<path fill="none" stroke="#758297" d="M691.99,-32.5C758.9,-32.5 850.75,-32.5 850.75,-32.5 850.75,-32.5 850.75,-183.19 850.75,-183.19"/>
<polygon fill="#758297" stroke="#758297" points="847.25,-183.19 850.75,-193.19 854.25,-183.19 847.25,-183.19"/>
<text xml:space="preserve" text-anchor="middle" x="784.5" y="-20.5" font-family="Comic Mono" font-size="10.00">dependency</text>
</g>
<!-- tableOwner -->
<g id="node4" class="node">
<title>tableOwner</title>
<path fill="#f8fafc" stroke="#94a3b8" d="M1297.25,-65C1297.25,-65 1125.25,-65 1125.25,-65 1119.25,-65 1113.25,-59 1113.25,-53 1113.25,-53 1113.25,-41 1113.25,-41 1113.25,-35 1119.25,-29 1125.25,-29 1125.25,-29 1297.25,-29 1297.25,-29 1303.25,-29 1309.25,-35 1309.25,-41 1309.25,-41 1309.25,-53 1309.25,-53 1309.25,-59 1303.25,-65 1297.25,-65"/>
<text xml:space="preserve" text-anchor="middle" x="1211.25" y="-41.58" font-family="Comic Mono" font-size="14.00">Caller&#45;Provisioned Table</text>
</g>
<!-- ttlCleanup -->
<g id="node12" class="node">
<title>ttlCleanup</title>
<path fill="#f8fafc" stroke="#94a3b8" d="M1581.75,-97C1581.75,-97 1439.75,-97 1439.75,-97 1433.75,-97 1427.75,-91 1427.75,-85 1427.75,-85 1427.75,-73 1427.75,-73 1427.75,-67 1433.75,-61 1439.75,-61 1439.75,-61 1581.75,-61 1581.75,-61 1587.75,-61 1593.75,-67 1593.75,-73 1593.75,-73 1593.75,-85 1593.75,-85 1593.75,-91 1587.75,-97 1581.75,-97"/>
<text xml:space="preserve" text-anchor="middle" x="1510.75" y="-73.58" font-family="Comic Mono" font-size="14.00">DynamoDB TTL Cleanup</text>
</g>
<!-- tableOwner&#45;&gt;ttlCleanup -->
<g id="edge5" class="edge">
<title>tableOwner&#45;&gt;ttlCleanup</title>
<path fill="none" stroke="#758297" d="M1301.75,-65.46C1301.75,-70.2 1301.75,-74 1301.75,-74 1301.75,-74 1416.03,-74 1416.03,-74"/>
<polygon fill="#758297" stroke="#758297" points="1416.03,-77.5 1426.03,-74 1416.03,-70.5 1416.03,-77.5"/>
<text xml:space="preserve" text-anchor="middle" x="1368.5" y="-49.5" font-family="Comic Mono" font-size="10.00">dependency</text>
</g>
<!-- single&#45;&gt;client -->
<g id="edge6" class="edge">
<title>single&#45;&gt;client</title>
<path fill="none" stroke="#758297" d="M411.75,-345.68C411.75,-304.27 411.75,-207 411.75,-207 411.75,-207 831.76,-207 831.76,-207"/>
<polygon fill="#758297" stroke="#758297" points="831.76,-210.5 841.76,-207 831.76,-203.5 831.76,-210.5"/>
<text xml:space="preserve" text-anchor="middle" x="623.5" y="-404.5" font-family="Comic Mono" font-size="10.00">call</text>
</g>
<!-- extender -->
<g id="node8" class="node">
<title>extender</title>
<path fill="#f8fafc" stroke="#94a3b8" d="M713.25,-308C713.25,-308 533.75,-308 533.75,-308 527.75,-308 521.75,-302 521.75,-296 521.75,-296 521.75,-284 521.75,-284 521.75,-278 527.75,-272 533.75,-272 533.75,-272 713.25,-272 713.25,-272 719.25,-272 725.25,-278 725.25,-284 725.25,-284 725.25,-296 725.25,-296 725.25,-302 719.25,-308 713.25,-308"/>
<text xml:space="preserve" text-anchor="middle" x="623.5" y="-284.57" font-family="Comic Mono" font-size="14.00">Lease Handle And Extender</text>
</g>
<!-- single&#45;&gt;extender -->
<g id="edge8" class="edge">
<title>single&#45;&gt;extender</title>
<path fill="none" stroke="#758297" d="M414.75,-345.71C414.75,-323.79 414.75,-290 414.75,-290 414.75,-290 509.75,-290 509.75,-290"/>
<polygon fill="#758297" stroke="#758297" points="509.75,-293.5 519.75,-290 509.75,-286.5 509.75,-293.5"/>
<text xml:space="preserve" text-anchor="middle" x="470.38" y="-359.5" font-family="Comic Mono" font-size="10.00">success</text>
</g>
<!-- group&#45;&gt;client -->
<g id="edge7" class="edge">
<title>group&#45;&gt;client</title>
<path fill="none" stroke="#758297" d="M408.1,-267.5C569.22,-267.5 918.75,-267.5 918.75,-267.5 918.75,-267.5 918.75,-242.96 918.75,-242.96"/>
<polygon fill="#758297" stroke="#758297" points="922.25,-242.96 918.75,-232.96 915.25,-242.96 922.25,-242.96"/>
<text xml:space="preserve" text-anchor="middle" x="623.5" y="-215.5" font-family="Comic Mono" font-size="10.00">call</text>
</g>
<!-- group&#45;&gt;extender -->
<g id="edge9" class="edge">
<title>group&#45;&gt;extender</title>
<path fill="none" stroke="#758297" d="M407.94,-281C407.94,-281 509.89,-281 509.89,-281"/>
<polygon fill="#758297" stroke="#758297" points="509.89,-284.5 519.89,-281 509.89,-277.5 509.89,-284.5"/>
<text xml:space="preserve" text-anchor="middle" x="470.38" y="-291.5" font-family="Comic Mono" font-size="10.00">success</text>
</g>
<!-- logicalLease -->
<g id="node11" class="node">
<title>logicalLease</title>
<path fill="#f8fafc" stroke="#94a3b8" d="M1282.25,-148C1282.25,-148 1140.25,-148 1140.25,-148 1134.25,-148 1128.25,-142 1128.25,-136 1128.25,-136 1128.25,-124 1128.25,-124 1128.25,-118 1134.25,-112 1140.25,-112 1140.25,-112 1282.25,-112 1282.25,-112 1288.25,-112 1294.25,-118 1294.25,-124 1294.25,-124 1294.25,-136 1294.25,-136 1294.25,-142 1288.25,-148 1282.25,-148"/>
<text xml:space="preserve" text-anchor="middle" x="1211.25" y="-124.58" font-family="Comic Mono" font-size="14.00">Logical Lease Fields</text>
</g>
<!-- client&#45;&gt;logicalLease -->
<g id="edge11" class="edge">
<title>client&#45;&gt;logicalLease</title>
<path fill="none" stroke="#758297" d="M986.75,-194.71C986.75,-172.79 986.75,-139 986.75,-139 986.75,-139 1116.46,-139 1116.46,-139"/>
<polygon fill="#758297" stroke="#758297" points="1116.46,-142.5 1126.46,-139 1116.46,-135.5 1116.46,-142.5"/>
<text xml:space="preserve" text-anchor="middle" x="1054" y="-205.5" font-family="Comic Mono" font-size="10.00">dependency</text>
</g>
<!-- extender&#45;&gt;client -->
<g id="edge10" class="edge">
<title>extender&#45;&gt;client</title>
<path fill="none" stroke="#758297" d="M708.75,-271.72C708.75,-250.68 708.75,-219 708.75,-219 708.75,-219 831.74,-219 831.74,-219"/>
<polygon fill="#758297" stroke="#758297" points="831.74,-222.5 841.74,-219 831.74,-215.5 831.74,-222.5"/>
<text xml:space="preserve" text-anchor="middle" x="784.5" y="-291.5" font-family="Comic Mono" font-size="10.00">retry</text>
</g>
<!-- singleKey -->
<g id="node9" class="node">
<title>singleKey</title>
<path fill="#f8fafc" stroke="#94a3b8" d="M971.5,-148C971.5,-148 867,-148 867,-148 861,-148 855,-142 855,-136 855,-136 855,-124 855,-124 855,-118 861,-112 867,-112 867,-112 971.5,-112 971.5,-112 977.5,-112 983.5,-118 983.5,-124 983.5,-124 983.5,-136 983.5,-136 983.5,-142 977.5,-148 971.5,-148"/>
<text xml:space="preserve" text-anchor="middle" x="919.25" y="-124.58" font-family="Comic Mono" font-size="14.00">Single Lock Row</text>
</g>
<!-- singleKey&#45;&gt;logicalLease -->
<g id="edge13" class="edge">
<title>singleKey&#45;&gt;logicalLease</title>
<path fill="none" stroke="#758297" d="M983.69,-130C983.69,-130 1116.31,-130 1116.31,-130"/>
<polygon fill="#758297" stroke="#758297" points="1116.31,-133.5 1126.31,-130 1116.31,-126.5 1116.31,-133.5"/>
<text xml:space="preserve" text-anchor="middle" x="1054" y="-132.5" font-family="Comic Mono" font-size="10.00">success</text>
</g>
<!-- groupRows -->
<g id="node10" class="node">
<title>groupRows</title>
<path fill="#f8fafc" stroke="#94a3b8" d="M971.5,-65C971.5,-65 867,-65 867,-65 861,-65 855,-59 855,-53 855,-53 855,-41 855,-41 855,-35 861,-29 867,-29 867,-29 971.5,-29 971.5,-29 977.5,-29 983.5,-35 983.5,-41 983.5,-41 983.5,-53 983.5,-53 983.5,-59 977.5,-65 971.5,-65"/>
<text xml:space="preserve" text-anchor="middle" x="919.25" y="-41.58" font-family="Comic Mono" font-size="14.00">Group Slot Rows</text>
</g>
<!-- groupRows&#45;&gt;logicalLease -->
<g id="edge14" class="edge">
<title>groupRows&#45;&gt;logicalLease</title>
<path fill="none" stroke="#758297" d="M983.89,-47C988.13,-47 990.75,-47 990.75,-47 990.75,-47 990.75,-121 990.75,-121 990.75,-121 1116.37,-121 1116.37,-121"/>
<polygon fill="#758297" stroke="#758297" points="1116.37,-124.5 1126.37,-121 1116.37,-117.5 1116.37,-124.5"/>
<text xml:space="preserve" text-anchor="middle" x="1054" y="-49.5" font-family="Comic Mono" font-size="10.00">success</text>
</g>
<!-- logicalLease&#45;&gt;ttlCleanup -->
<g id="edge12" class="edge">
<title>logicalLease&#45;&gt;ttlCleanup</title>
<path fill="none" stroke="#758297" d="M1210.75,-111.87C1210.75,-101.29 1210.75,-90 1210.75,-90 1210.75,-90 1416.07,-90 1416.07,-90"/>
<polygon fill="#758297" stroke="#758297" points="1416.07,-93.5 1426.07,-90 1416.07,-86.5 1416.07,-93.5"/>
<text xml:space="preserve" text-anchor="middle" x="1368.5" y="-122.5" font-family="Comic Mono" font-size="10.00">release</text>
</g>
</g>
</svg>
