<svg xmlns="http://www.w3.org/2000/svg" width="2250" height="1660" viewBox="0 0 2250 1660" role="img" aria-labelledby="title desc" data-intent="Answer the Spring Boot reader's AOP runtime question: how does an annotated method enter leader election, why do nested leader calls avoid reacquiring the same backend lock, and how does the scope close after the protected work returns?" data-evidence="leader-spring-boot README reentrant section, LeaderElectionAspect, LockAssert, LockExtender" data-source-read="leader-spring-boot/README.md; leader-spring-boot/README.ko.md; leader-spring-boot/src/main/kotlin/io/bluetape4k/leader/spring/aop/LeaderElectionAspect.kt; leader-spring-boot/src/main/kotlin/io/bluetape4k/leader/spring/LockAssert.kt">
  <title id="title">Spring Boot Reentrant Leader Election Sequence</title>
  <desc id="desc">Spring Boot reentrant leader election sequence diagram.</desc>
  <defs>
    <filter id="shadow" x="-8%" y="-8%" width="116%" height="116%"><feDropShadow dx="0" dy="6" stdDeviation="7" flood-color="#203040" flood-opacity="0.10"/></filter>
    <marker id="seqArrow-call" markerWidth="5" markerHeight="5" refX="4.5" refY="2.5" orient="auto" markerUnits="strokeWidth"><path d="M 0.5 0.5 L 4.5 2.5 L 0.5 4.5 Z" fill="#4F83BF"/></marker>
    <marker id="seqArrow-success" markerWidth="5" markerHeight="5" refX="4.5" refY="2.5" orient="auto" markerUnits="strokeWidth"><path d="M 0.5 0.5 L 4.5 2.5 L 0.5 4.5 Z" fill="#3E9868"/></marker>
    <marker id="seqArrow-skip" markerWidth="5" markerHeight="5" refX="4.5" refY="2.5" orient="auto" markerUnits="strokeWidth"><path d="M 0.5 0.5 L 4.5 2.5 L 0.5 4.5 Z" fill="#C94D68"/></marker>
    <marker id="seqArrow-contention" markerWidth="5" markerHeight="5" refX="4.5" refY="2.5" orient="auto" markerUnits="strokeWidth"><path d="M 0.5 0.5 L 4.5 2.5 L 0.5 4.5 Z" fill="#B9851B"/></marker>
    <marker id="seqArrow-release" markerWidth="5" markerHeight="5" refX="4.5" refY="2.5" orient="auto" markerUnits="strokeWidth"><path d="M 0.5 0.5 L 4.5 2.5 L 0.5 4.5 Z" fill="#755BC6"/></marker>
    <marker id="seqArrow-retry" markerWidth="5" markerHeight="5" refX="4.5" refY="2.5" orient="auto" markerUnits="strokeWidth"><path d="M 0.5 0.5 L 4.5 2.5 L 0.5 4.5 Z" fill="#4F63C7"/></marker>
    <marker id="seqArrow-dependency" markerWidth="5" markerHeight="5" refX="4.5" refY="2.5" orient="auto" markerUnits="strokeWidth"><path d="M 0.5 0.5 L 4.5 2.5 L 0.5 4.5 Z" fill="#2E8F89"/></marker>
    <marker id="seqArrow-metric" markerWidth="5" markerHeight="5" refX="4.5" refY="2.5" orient="auto" markerUnits="strokeWidth"><path d="M 0.5 0.5 L 4.5 2.5 L 0.5 4.5 Z" fill="#718A35"/></marker>
    <marker id="seqArrow-neutral" markerWidth="5" markerHeight="5" refX="4.5" refY="2.5" orient="auto" markerUnits="strokeWidth"><path d="M 0.5 0.5 L 4.5 2.5 L 0.5 4.5 Z" fill="#758297"/></marker>
    <style>
      .canvas{fill:#F7FAFC}
      .frame{fill:#FFFFFF;stroke:#D7E2EC;stroke-width:2}
      .title{font-family:"Architects Daughter";font-size:44px;fill:#22344A;font-weight:400}
      .subtitle{font-family:"Comic Mono";font-size:16px;fill:#536476;font-weight:400}
      .band{fill:#F3F7FB;stroke:#D7E2EC;stroke-width:2}
      .bandTitle{font-family:"Architects Daughter";font-size:24px;fill:#22344A;font-weight:400;paint-order:stroke;stroke:#F3F7FB;stroke-width:5px;stroke-linejoin:round}
      .card{filter:url(#shadow);stroke-width:2}
      .cardTitle{font-family:"Architects Daughter";font-size:23px;fill:#22344A;font-weight:400}
      .detail{font-family:"Comic Mono";font-size:13px;fill:#42556B;font-weight:400}
      .small{font-family:"Comic Mono";font-size:12px;fill:#627184;font-weight:400}
      .route{fill:none;stroke-width:2.45;stroke-linejoin:round;stroke-linecap:round}
      .seq{fill:none;stroke-width:3;stroke-linecap:round}
      .seqReturn{fill:none;stroke-width:2.7;stroke-linecap:round;stroke-dasharray:8 7}
      .lifeline{stroke:#A7B4C3;stroke-width:1.8;stroke-dasharray:8 8}
      .pill{fill:#FFFFFF;stroke:#D6E3EF;stroke-width:1.4}
      .branchBox{fill:#FFFFFF;fill-opacity:.42;stroke:#D6A441;stroke-width:1.8;stroke-dasharray:8 8}
    </style>
  </defs>
  <rect class="canvas" width="2250" height="1660"/>
  <rect class="frame" x="32" y="28" width="2186" height="1604" rx="28"/>
  <text class="title" x="66" y="82">Spring Boot Reentrant Leader Election Sequence</text>
  <text class="subtitle" x="70" y="116">AOP opens a leader scope, nested calls reuse the scope, and LockAssert sees only real ownership.</text>
<g id="participant-caller">
  <rect class="card" x="128" y="228" width="260" height="76" rx="10" fill="#E8F3FF" stroke="#5B8DEF"/>
  <text class="cardTitle" x="258" y="273" text-anchor="middle">Caller</text>
  <line class="lifeline" x1="258" y1="304" x2="258" y2="1536"/>
</g>
<g id="participant-aspect">
  <rect class="card" x="474.79999999999995" y="228" width="260" height="76" rx="10" fill="#EAF7EF" stroke="#58A978"/>
  <text class="cardTitle" x="604.8" y="273" text-anchor="middle">LeaderElectionAspect</text>
  <line class="lifeline" x1="604.8" y1="304" x2="604.8" y2="1536"/>
</g>
<g id="participant-scope">
  <rect class="card" x="821.6" y="228" width="260" height="76" rx="10" fill="#F1ECFF" stroke="#8A72D6"/>
  <text class="cardTitle" x="951.6" y="273" text-anchor="middle">Leader scope</text>
  <line class="lifeline" x1="951.6" y1="304" x2="951.6" y2="1536"/>
</g>
<g id="participant-elector">
  <rect class="card" x="1168.4" y="228" width="260" height="76" rx="10" fill="#FFF3D9" stroke="#D6A441"/>
  <text class="cardTitle" x="1298.4" y="273" text-anchor="middle">Backend elector</text>
  <line class="lifeline" x1="1298.4" y1="304" x2="1298.4" y2="1536"/>
</g>
<g id="participant-method">
  <rect class="card" x="1515.2" y="228" width="260" height="76" rx="10" fill="#E9F7F6" stroke="#45A7A1"/>
  <text class="cardTitle" x="1645.2" y="273" text-anchor="middle">Annotated method</text>
  <line class="lifeline" x1="1645.2" y1="304" x2="1645.2" y2="1536"/>
</g>
<g id="participant-assert">
  <rect class="card" x="1862" y="228" width="260" height="76" rx="10" fill="#EEF6D9" stroke="#8BA84D"/>
  <text class="cardTitle" x="1992" y="273" text-anchor="middle">LockAssert</text>
  <line class="lifeline" x1="1992" y1="304" x2="1992" y2="1536"/>
</g>
<g id="m1">
  <rect class="pill" x="300.2" y="329" width="262.4" height="42" rx="7"/>
  <circle cx="319.2" cy="350" r="12" fill="#4F83BF"/>
  <text class="detail" x="319.2" y="351" text-anchor="middle" dominant-baseline="middle" style="fill:#fff;font-size:12px">1</text>
  <text class="detail" x="449.4" y="342" text-anchor="middle" dominant-baseline="middle">invoke @LeaderElection</text>
  <text class="detail" x="449.4" y="357" text-anchor="middle" dominant-baseline="middle">method</text>
  <path class="seq" d="M258 388 L604.8 388" stroke="#4F83BF" marker-end="url(#seqArrow-call)"/>
</g>
<g id="m2">
  <rect class="pill" x="636.2" y="425" width="284" height="28" rx="7"/>
  <circle cx="655.2" cy="439" r="12" fill="#2E8F89"/>
  <text class="detail" x="655.2" y="440" text-anchor="middle" dominant-baseline="middle" style="fill:#fff;font-size:12px">2</text>
  <text class="detail" x="796.2" y="440" text-anchor="middle" dominant-baseline="middle">check active leader scope</text>
  <path class="seq" d="M604.8 470 L951.6 470" stroke="#2E8F89" marker-end="url(#seqArrow-dependency)"/>
</g>
<g>
  <rect class="branchBox" x="128" y="517" width="1994" height="46" rx="15"/>
  <rect class="pill" x="341.4" y="511" width="180" height="30" rx="8"/>
  <text class="detail" x="431.4" y="527" text-anchor="middle" dominant-baseline="middle">alt outer call</text>
</g>
<g id="m4">
  <rect class="pill" x="777.2" y="589" width="348.8" height="28" rx="7"/>
  <circle cx="796.2" cy="603" r="12" fill="#B9851B"/>
  <text class="detail" x="796.2" y="604" text-anchor="middle" dominant-baseline="middle" style="fill:#fff;font-size:12px">4</text>
  <text class="detail" x="969.6" y="604" text-anchor="middle" dominant-baseline="middle">runIfLeader via configured elector</text>
  <path class="seq" d="M604.8 634 L1298.4 634" stroke="#B9851B" marker-end="url(#seqArrow-contention)"/>
</g>
<g id="m5">
  <rect class="pill" x="834.8000000000001" y="671" width="233.6" height="28" rx="7"/>
  <circle cx="853.8000000000001" cy="685" r="12" fill="#3E9868"/>
  <text class="detail" x="853.8000000000001" y="686" text-anchor="middle" dominant-baseline="middle" style="fill:#fff;font-size:12px">5</text>
  <text class="detail" x="969.6" y="686" text-anchor="middle" dominant-baseline="middle">ownership acquired</text>
  <path class="seqReturn" d="M1298.4 716 L604.8 716" stroke="#3E9868" marker-end="url(#seqArrow-success)"/>
</g>
<g id="m6">
  <rect class="pill" x="647" y="753" width="262.4" height="28" rx="7"/>
  <circle cx="666" cy="767" r="12" fill="#3E9868"/>
  <text class="detail" x="666" y="768" text-anchor="middle" dominant-baseline="middle" style="fill:#fff;font-size:12px">6</text>
  <text class="detail" x="796.2" y="768" text-anchor="middle" dominant-baseline="middle">open Real leader scope</text>
  <path class="seq" d="M604.8 798 L951.6 798" stroke="#3E9868" marker-end="url(#seqArrow-success)"/>
</g>
<g id="m7">
  <rect class="pill" x="975.8" y="835" width="298.4" height="28" rx="7"/>
  <circle cx="994.8" cy="849" r="12" fill="#4F83BF"/>
  <text class="detail" x="994.8" y="850" text-anchor="middle" dominant-baseline="middle" style="fill:#fff;font-size:12px">7</text>
  <text class="detail" x="1143" y="850" text-anchor="middle" dominant-baseline="middle">proceed with annotated body</text>
  <path class="seq" d="M604.8 880 L1645.2 880" stroke="#4F83BF" marker-end="url(#seqArrow-call)"/>
</g>
<g id="m8">
  <rect class="pill" x="1676.6" y="917" width="284" height="28" rx="7"/>
  <circle cx="1695.6" cy="931" r="12" fill="#718A35"/>
  <text class="detail" x="1695.6" y="932" text-anchor="middle" dominant-baseline="middle" style="fill:#fff;font-size:12px">8</text>
  <text class="detail" x="1836.6" y="932" text-anchor="middle" dominant-baseline="middle">assertLocked inside scope</text>
  <path class="seq" d="M1645.2 962 L1992 962" stroke="#718A35" marker-end="url(#seqArrow-metric)"/>
</g>
<g id="m9">
  <rect class="pill" x="1001" y="999" width="248" height="28" rx="7"/>
  <circle cx="1020" cy="1013" r="12" fill="#3E9868"/>
  <text class="detail" x="1020" y="1014" text-anchor="middle" dominant-baseline="middle" style="fill:#fff;font-size:12px">9</text>
  <text class="detail" x="1143" y="1014" text-anchor="middle" dominant-baseline="middle">return method result</text>
  <path class="seqReturn" d="M1645.2 1044 L604.8 1044" stroke="#3E9868" marker-end="url(#seqArrow-success)"/>
</g>
<g id="m10">
  <rect class="pill" x="625.4000000000001" y="1081" width="305.6" height="28" rx="7"/>
  <circle cx="644.4000000000001" cy="1095" r="12" fill="#755BC6"/>
  <text class="detail" x="644.4000000000001" y="1096" text-anchor="middle" dominant-baseline="middle" style="fill:#fff;font-size:12px">10</text>
  <text class="detail" x="796.2" y="1096" text-anchor="middle" dominant-baseline="middle">close scope and release lock</text>
  <path class="seq" d="M604.8 1126 L951.6 1126" stroke="#755BC6" marker-end="url(#seqArrow-release)"/>
</g>
<g>
  <rect class="branchBox" x="128" y="1173" width="1994" height="46" rx="15"/>
  <rect class="pill" x="341.4" y="1167" width="180" height="30" rx="8"/>
  <text class="detail" x="431.4" y="1183" text-anchor="middle" dominant-baseline="middle">else nested call</text>
</g>
<g id="m12">
  <rect class="pill" x="636.2" y="1245" width="284" height="28" rx="7"/>
  <circle cx="655.2" cy="1259" r="12" fill="#3E9868"/>
  <text class="detail" x="655.2" y="1260" text-anchor="middle" dominant-baseline="middle" style="fill:#fff;font-size:12px">12</text>
  <text class="detail" x="796.2" y="1260" text-anchor="middle" dominant-baseline="middle">reuse existing Real scope</text>
  <path class="seqReturn" d="M951.6 1290 L604.8 1290" stroke="#3E9868" marker-end="url(#seqArrow-success)"/>
</g>
<g id="m13">
  <rect class="pill" x="954.2" y="1327" width="341.6" height="28" rx="7"/>
  <circle cx="973.2" cy="1341" r="12" fill="#4F83BF"/>
  <text class="detail" x="973.2" y="1342" text-anchor="middle" dominant-baseline="middle" style="fill:#fff;font-size:12px">13</text>
  <text class="detail" x="1143" y="1342" text-anchor="middle" dominant-baseline="middle">proceed without backend reacquire</text>
  <path class="seq" d="M604.8 1372 L1645.2 1372" stroke="#4F83BF" marker-end="url(#seqArrow-call)"/>
</g>
<g id="m14">
  <rect class="pill" x="307.4" y="1409" width="248" height="28" rx="7"/>
  <circle cx="326.4" cy="1423" r="12" fill="#3E9868"/>
  <text class="detail" x="326.4" y="1424" text-anchor="middle" dominant-baseline="middle" style="fill:#fff;font-size:12px">14</text>
  <text class="detail" x="449.4" y="1424" text-anchor="middle" dominant-baseline="middle">return method result</text>
  <path class="seqReturn" d="M604.8 1454 L258 1454" stroke="#3E9868" marker-end="url(#seqArrow-success)"/>
</g>
</svg>
