<?xml version="1.0" encoding="UTF-8" standalone="no"?>
<!DOCTYPE svg PUBLIC "-//W3C//DTD SVG 1.1//EN"
 "http://www.w3.org/Graphics/SVG/1.1/DTD/svg11.dtd">
<!-- Generated by graphviz version 15.0.0 (20260523.1842)
 -->
<!-- Title: leader&#45;hazelcast&#45;sequence&#45;02 Pages: 1 -->
<svg width="880pt" height="440pt"
 viewBox="0.00 0.00 880.00 440.00" xmlns="http://www.w3.org/2000/svg" xmlns:xlink="http://www.w3.org/1999/xlink">
<g id="graph0" class="graph" transform="scale(1 1) rotate(0) translate(4 436)">
<title>leader&#45;hazelcast&#45;sequence&#45;02</title>
<!-- caller -->
<g id="node1" class="node">
<title>caller</title>
<path fill="#f8fafc" stroke="#94a3b8" d="M49,-237C49,-237 12,-237 12,-237 6,-237 0,-231 0,-225 0,-225 0,-213 0,-213 0,-207 6,-201 12,-201 12,-201 49,-201 49,-201 55,-201 61,-207 61,-213 61,-213 61,-225 61,-225 61,-231 55,-237 49,-237"/>
<text xml:space="preserve" text-anchor="middle" x="30.5" y="-213.57" font-family="Comic Mono" font-size="14.00">Caller</text>
</g>
<!-- elector -->
<g id="node2" class="node">
<title>elector</title>
<path fill="#f8fafc" stroke="#94a3b8" d="M447.5,-237C447.5,-237 328,-237 328,-237 322,-237 316,-231 316,-225 316,-225 316,-213 316,-213 316,-207 322,-201 328,-201 328,-201 447.5,-201 447.5,-201 453.5,-201 459.5,-207 459.5,-213 459.5,-213 459.5,-225 459.5,-225 459.5,-231 453.5,-237 447.5,-237"/>
<text xml:space="preserve" text-anchor="middle" x="387.75" y="-213.57" font-family="Comic Mono" font-size="14.00">Hazelcast elector</text>
</g>
<!-- caller&#45;&gt;elector -->
<g id="edge1" class="edge">
<title>caller&#45;&gt;elector</title>
<path fill="none" stroke="#4f83bf" d="M61.27,-210C61.27,-210 307.04,-210 307.04,-210"/>
<polygon fill="#4f83bf" stroke="#4f83bf" points="307.04,-212.45 314.04,-210 307.04,-207.55 307.04,-212.45"/>
<text xml:space="preserve" text-anchor="middle" x="188.5" y="-288.5" font-family="Comic Mono" font-size="10.00">runIfLeader(lockName, options, body)</text>
</g>
<!-- elector&#45;&gt;caller -->
<g id="edge7" class="edge">
<title>elector&#45;&gt;caller</title>
<path fill="none" stroke="#3e9868" d="M315.88,-219C315.88,-219 69.81,-219 69.81,-219"/>
<polygon fill="#3e9868" stroke="#3e9868" points="69.81,-216.55 62.81,-219 69.81,-221.45 69.81,-216.55"/>
<text xml:space="preserve" text-anchor="middle" x="188.5" y="-221.5" font-family="Comic Mono" font-size="10.00">return body result</text>
</g>
<!-- elector&#45;&gt;caller -->
<g id="edge10" class="edge">
<title>elector&#45;&gt;caller</title>
<path fill="none" stroke="#c94d68" d="M315.88,-228C315.88,-228 69.81,-228 69.81,-228"/>
<polygon fill="#c94d68" stroke="#c94d68" points="69.81,-225.55 62.81,-228 69.81,-230.45 69.81,-225.55"/>
<text xml:space="preserve" text-anchor="middle" x="188.5" y="-154.5" font-family="Comic Mono" font-size="10.00">return skipped result</text>
</g>
<!-- backend -->
<g id="node3" class="node">
<title>backend</title>
<path fill="#f8fafc" stroke="#94a3b8" d="M860.25,-337C860.25,-337 763.25,-337 763.25,-337 757.25,-337 751.25,-331 751.25,-325 751.25,-325 751.25,-313 751.25,-313 751.25,-307 757.25,-301 763.25,-301 763.25,-301 860.25,-301 860.25,-301 866.25,-301 872.25,-307 872.25,-313 872.25,-313 872.25,-325 872.25,-325 872.25,-331 866.25,-337 860.25,-337"/>
<text xml:space="preserve" text-anchor="middle" x="811.75" y="-313.57" font-family="Comic Mono" font-size="14.00">Hazelcast IMap</text>
</g>
<!-- elector&#45;&gt;backend -->
<g id="edge2" class="edge">
<title>elector&#45;&gt;backend</title>
<path fill="none" stroke="#b9851b" d="M459.63,-231.86C567.37,-231.86 758.25,-231.86 758.25,-231.86 758.25,-231.86 758.25,-292.01 758.25,-292.01"/>
<polygon fill="#b9851b" stroke="#b9851b" points="755.8,-292.01 758.25,-299.01 760.7,-292.01 755.8,-292.01"/>
<text xml:space="preserve" text-anchor="middle" x="605.38" y="-422.5" font-family="Comic Mono" font-size="10.00">IMap.putIfAbsent(lockKey, token, leaseTime)</text>
</g>
<!-- elector&#45;&gt;backend -->
<g id="edge6" class="edge">
<title>elector&#45;&gt;backend</title>
<path fill="none" stroke="#755bc6" d="M459.76,-216.43C580.87,-216.43 812.25,-216.43 812.25,-216.43 812.25,-216.43 812.25,-292.15 812.25,-292.15"/>
<polygon fill="#755bc6" stroke="#755bc6" points="809.8,-292.15 812.25,-299.15 814.7,-292.15 809.8,-292.15"/>
<text xml:space="preserve" text-anchor="middle" x="605.38" y="-355.5" font-family="Comic Mono" font-size="10.00">IMap.remove(lockKey, token)</text>
</g>
<!-- body -->
<g id="node4" class="node">
<title>body</title>
<path fill="#f8fafc" stroke="#94a3b8" d="M849,-146C849,-146 774.5,-146 774.5,-146 768.5,-146 762.5,-140 762.5,-134 762.5,-134 762.5,-122 762.5,-122 762.5,-116 768.5,-110 774.5,-110 774.5,-110 849,-110 849,-110 855,-110 861,-116 861,-122 861,-122 861,-134 861,-134 861,-140 855,-146 849,-146"/>
<text xml:space="preserve" text-anchor="middle" x="811.75" y="-122.58" font-family="Comic Mono" font-size="14.00">Leader body</text>
</g>
<!-- elector&#45;&gt;body -->
<g id="edge4" class="edge">
<title>elector&#45;&gt;body</title>
<path fill="none" stroke="#4f83bf" d="M459.83,-211.29C588.47,-211.29 844.25,-211.29 844.25,-211.29 844.25,-211.29 844.25,-155 844.25,-155"/>
<polygon fill="#4f83bf" stroke="#4f83bf" points="846.7,-155 844.25,-148 841.8,-155 846.7,-155"/>
<text xml:space="preserve" text-anchor="middle" x="605.38" y="-154.5" font-family="Comic Mono" font-size="10.00">execute protected leader body</text>
</g>
<!-- cleanup -->
<g id="node5" class="node">
<title>cleanup</title>
<path fill="#f8fafc" stroke="#94a3b8" d="M856.5,-36C856.5,-36 767,-36 767,-36 761,-36 755,-30 755,-24 755,-24 755,-12 755,-12 755,-6 761,0 767,0 767,0 856.5,0 856.5,0 862.5,0 868.5,-6 868.5,-12 868.5,-12 868.5,-24 868.5,-24 868.5,-30 862.5,-36 856.5,-36"/>
<text xml:space="preserve" text-anchor="middle" x="811.75" y="-12.57" font-family="Comic Mono" font-size="14.00">Recovery path</text>
</g>
<!-- elector&#45;&gt;cleanup -->
<g id="edge9" class="edge">
<title>elector&#45;&gt;cleanup</title>
<path fill="none" stroke="#2e8f89" d="M387.25,-200.81C387.25,-151.33 387.25,-18 387.25,-18 387.25,-18 745.99,-18 745.99,-18"/>
<polygon fill="#2e8f89" stroke="#2e8f89" points="745.99,-20.45 752.99,-18 745.99,-15.55 745.99,-20.45"/>
<text xml:space="preserve" text-anchor="middle" x="605.38" y="-20.5" font-family="Comic Mono" font-size="10.00">Hazelcast TTL removes crashed owner key</text>
</g>
<!-- backend&#45;&gt;elector -->
<g id="edge3" class="edge">
<title>backend&#45;&gt;elector</title>
<path fill="none" stroke="#3e9868" d="M779.25,-300.77C779.25,-273.87 779.25,-226.71 779.25,-226.71 779.25,-226.71 468.07,-226.71 468.07,-226.71"/>
<polygon fill="#3e9868" stroke="#3e9868" points="468.07,-224.26 461.07,-226.71 468.07,-229.16 468.07,-224.26"/>
<text xml:space="preserve" text-anchor="middle" x="605.38" y="-288.5" font-family="Comic Mono" font-size="10.00">token accepted</text>
</g>
<!-- backend&#45;&gt;elector -->
<g id="edge8" class="edge">
<title>backend&#45;&gt;elector</title>
<path fill="none" stroke="#c94d68" d="M795.25,-300.67C795.25,-272.45 795.25,-221.57 795.25,-221.57 795.25,-221.57 468.18,-221.57 468.18,-221.57"/>
<polygon fill="#c94d68" stroke="#c94d68" points="468.18,-219.12 461.18,-221.57 468.18,-224.02 468.18,-219.12"/>
<text xml:space="preserve" text-anchor="middle" x="605.38" y="-221.5" font-family="Comic Mono" font-size="10.00">existing owner token blocks acquire</text>
</g>
<!-- body&#45;&gt;elector -->
<g id="edge5" class="edge">
<title>body&#45;&gt;elector</title>
<path fill="none" stroke="#3e9868" d="M828.25,-146.12C828.25,-169.21 828.25,-206.14 828.25,-206.14 828.25,-206.14 468.51,-206.14 468.51,-206.14"/>
<polygon fill="#3e9868" stroke="#3e9868" points="468.51,-203.69 461.51,-206.14 468.51,-208.59 468.51,-203.69"/>
<text xml:space="preserve" text-anchor="middle" x="605.38" y="-87.5" font-family="Comic Mono" font-size="10.00">body result</text>
</g>
</g>
</svg>
