<svg id="my-svg" width="100%" xmlns="http://www.w3.org/2000/svg" xmlns:xlink="http://www.w3.org/1999/xlink" class="classDiagram" style="max-width: 1763.92px; background-color: transparent;" viewBox="0 0 1763.921875 342" role="graphics-document document" aria-roledescription="class"><style>#my-svg{font-size:16px;fill:#102033;}@keyframes edge-animation-frame{from{stroke-dashoffset:0;}}@keyframes dash{to{stroke-dashoffset:0;}}#my-svg .edge-animation-slow{stroke-dasharray:9,5!important;stroke-dashoffset:900;animation:dash 50s linear infinite;stroke-linecap:round;}#my-svg .edge-animation-fast{stroke-dasharray:9,5!important;stroke-dashoffset:900;animation:dash 20s linear infinite;stroke-linecap:round;}#my-svg .error-icon{fill:#FFF3D9;}#my-svg .error-text{fill:#102033;stroke:#102033;}#my-svg .edge-thickness-normal{stroke-width:1px;}#my-svg .edge-thickness-thick{stroke-width:3.5px;}#my-svg .edge-pattern-solid{stroke-dasharray:0;}#my-svg .edge-thickness-invisible{stroke-width:0;fill:none;}#my-svg .edge-pattern-dashed{stroke-dasharray:3;}#my-svg .edge-pattern-dotted{stroke-dasharray:2;}#my-svg .marker{fill:#7A8794;stroke:#7A8794;}#my-svg .marker.cross{stroke:#7A8794;}#my-svg svg{font-size:16px;}#my-svg p{margin:0;}#my-svg g.classGroup text{fill:#5B8DEF;stroke:none;font-size:10px;}#my-svg g.classGroup text .title{font-weight:bolder;}#my-svg .cluster-label text{fill:#102033;}#my-svg .cluster-label span{color:#102033;}#my-svg .cluster-label span p{background-color:transparent;}#my-svg .cluster rect{fill:#F8FAFC;stroke:#CBD5E1;stroke-width:1px;}#my-svg .cluster text{fill:#102033;}#my-svg .cluster span{color:#102033;}#my-svg .nodeLabel,#my-svg .edgeLabel{color:#102033;}#my-svg .noteLabel .nodeLabel,#my-svg .noteLabel .edgeLabel{color:#333;}#my-svg .edgeLabel .label rect{fill:#E8F3FF;}#my-svg .label text{fill:#102033;}#my-svg .labelBkg{background:#E8F3FF;}#my-svg .edgeLabel .label span{background:#E8F3FF;}#my-svg .classTitle{font-weight:bolder;}#my-svg .node rect,#my-svg .node circle,#my-svg .node ellipse,#my-svg .node polygon,#my-svg .node path{fill:#E8F3FF;stroke:#5B8DEF;stroke-width:1;}#my-svg .divider{stroke:#5B8DEF;stroke-width:1;}#my-svg g.clickable{cursor:pointer;}#my-svg g.classGroup rect{fill:#E8F3FF;stroke:#5B8DEF;}#my-svg g.classGroup line{stroke:#5B8DEF;stroke-width:1;}#my-svg .classLabel .box{stroke:none;stroke-width:0;fill:#E8F3FF;opacity:0.5;}#my-svg .classLabel .label{fill:#5B8DEF;font-size:10px;}#my-svg .relation{stroke:#7A8794;stroke-width:1;fill:none;}#my-svg .dashed-line{stroke-dasharray:3;}#my-svg .dotted-line{stroke-dasharray:1 2;}#my-svg [id$="-compositionStart"],#my-svg .composition{fill:#7A8794!important;stroke:#7A8794!important;stroke-width:1;}#my-svg [id$="-compositionEnd"],#my-svg .composition{fill:#7A8794!important;stroke:#7A8794!important;stroke-width:1;}#my-svg [id$="-dependencyStart"],#my-svg .dependency{fill:#7A8794!important;stroke:#7A8794!important;stroke-width:1;}#my-svg [id$="-dependencyEnd"],#my-svg .dependency{fill:#7A8794!important;stroke:#7A8794!important;stroke-width:1;}#my-svg [id$="-extensionStart"],#my-svg .extension{fill:transparent!important;stroke:#7A8794!important;stroke-width:1;}#my-svg [id$="-extensionEnd"],#my-svg .extension{fill:transparent!important;stroke:#7A8794!important;stroke-width:1;}#my-svg [id$="-aggregationStart"],#my-svg .aggregation{fill:transparent!important;stroke:#7A8794!important;stroke-width:1;}#my-svg [id$="-aggregationEnd"],#my-svg .aggregation{fill:transparent!important;stroke:#7A8794!important;stroke-width:1;}#my-svg [id$="-lollipopStart"],#my-svg .lollipop{fill:#E8F3FF!important;stroke:#7A8794!important;stroke-width:1;}#my-svg [id$="-lollipopEnd"],#my-svg .lollipop{fill:#E8F3FF!important;stroke:#7A8794!important;stroke-width:1;}#my-svg .edgeTerminals{font-size:11px;line-height:initial;}#my-svg .classTitleText{text-anchor:middle;font-size:18px;fill:#102033;}#my-svg .edgeLabel[data-look="neo"]{background-color:#FFFFFF;text-align:center;}#my-svg .edgeLabel[data-look="neo"] p{background-color:#FFFFFF;}#my-svg .edgeLabel[data-look="neo"] rect{opacity:0.5;background-color:#FFFFFF;fill:#FFFFFF;}#my-svg .label-icon{display:inline-block;height:1em;overflow:visible;vertical-align:-0.125em;}#my-svg .node .label-icon path{fill:currentColor;stroke:revert;stroke-width:revert;}#my-svg .node .neo-node{stroke:#5B8DEF;}#my-svg [data-look="neo"].node rect,#my-svg [data-look="neo"].cluster rect,#my-svg [data-look="neo"].node polygon{stroke:url(#my-svg-gradient);filter:drop-shadow( 1px 2px 2px rgba(185,185,185,1));}#my-svg [data-look="neo"].node path{stroke:url(#my-svg-gradient);stroke-width:1px;}#my-svg [data-look="neo"].node .outer-path{filter:drop-shadow( 1px 2px 2px rgba(185,185,185,1));}#my-svg [data-look="neo"].node .neo-line path{stroke:#5B8DEF;filter:none;}#my-svg [data-look="neo"].node circle{stroke:url(#my-svg-gradient);filter:drop-shadow( 1px 2px 2px rgba(185,185,185,1));}#my-svg [data-look="neo"].node circle .state-start{fill:#000000;}#my-svg [data-look="neo"].icon-shape .icon{fill:url(#my-svg-gradient);filter:drop-shadow( 1px 2px 2px rgba(185,185,185,1));}#my-svg [data-look="neo"].icon-shape .icon-neo path{stroke:url(#my-svg-gradient);filter:drop-shadow( 1px 2px 2px rgba(185,185,185,1));}#my-svg :root{--mermaid-font-family:"trebuchet ms",verdana,arial,sans-serif;}#my-svg .LeaderElector&gt;*{fill:rgb(234, 247, 239)!important;stroke:rgb(88, 169, 120)!important;color:rgb(16, 32, 51)!important;stroke-width:1.5px!important;}#my-svg .LeaderElector span{fill:rgb(234, 247, 239)!important;stroke:rgb(88, 169, 120)!important;color:rgb(16, 32, 51)!important;stroke-width:1.5px!important;}#my-svg .LeaderGroupElector&gt;*{fill:rgb(243, 238, 255)!important;stroke:rgb(139, 117, 215)!important;color:rgb(16, 32, 51)!important;stroke-width:1.5px!important;}#my-svg .LeaderGroupElector span{fill:rgb(243, 238, 255)!important;stroke:rgb(139, 117, 215)!important;color:rgb(16, 32, 51)!important;stroke-width:1.5px!important;}#my-svg .SuspendLeaderElector&gt;*{fill:rgb(253, 236, 239)!important;stroke:rgb(217, 112, 131)!important;color:rgb(16, 32, 51)!important;stroke-width:1.5px!important;}#my-svg .SuspendLeaderElector span{fill:rgb(253, 236, 239)!important;stroke:rgb(217, 112, 131)!important;color:rgb(16, 32, 51)!important;stroke-width:1.5px!important;}#my-svg .SuspendLeaderGroupElector&gt;*{fill:rgb(238, 242, 247)!important;stroke:rgb(138, 151, 168)!important;color:rgb(16, 32, 51)!important;stroke-width:1.5px!important;}#my-svg .SuspendLeaderGroupElector span{fill:rgb(238, 242, 247)!important;stroke:rgb(138, 151, 168)!important;color:rgb(16, 32, 51)!important;stroke-width:1.5px!important;}#my-svg .RedissonLeaderElector&gt;*{fill:rgb(243, 238, 255)!important;stroke:rgb(139, 117, 215)!important;color:rgb(16, 32, 51)!important;stroke-width:1.5px!important;}#my-svg .RedissonLeaderElector span{fill:rgb(243, 238, 255)!important;stroke:rgb(139, 117, 215)!important;color:rgb(16, 32, 51)!important;stroke-width:1.5px!important;}#my-svg .RedissonLeaderGroupElector&gt;*{fill:rgb(243, 238, 255)!important;stroke:rgb(139, 117, 215)!important;color:rgb(16, 32, 51)!important;stroke-width:1.5px!important;}#my-svg .RedissonLeaderGroupElector span{fill:rgb(243, 238, 255)!important;stroke:rgb(139, 117, 215)!important;color:rgb(16, 32, 51)!important;stroke-width:1.5px!important;}#my-svg .RedissonSuspendLeaderElector&gt;*{fill:rgb(243, 238, 255)!important;stroke:rgb(139, 117, 215)!important;color:rgb(16, 32, 51)!important;stroke-width:1.5px!important;}#my-svg .RedissonSuspendLeaderElector span{fill:rgb(243, 238, 255)!important;stroke:rgb(139, 117, 215)!important;color:rgb(16, 32, 51)!important;stroke-width:1.5px!important;}#my-svg .RedissonSuspendLeaderGroupElector&gt;*{fill:rgb(243, 238, 255)!important;stroke:rgb(139, 117, 215)!important;color:rgb(16, 32, 51)!important;stroke-width:1.5px!important;}#my-svg .RedissonSuspendLeaderGroupElector span{fill:rgb(243, 238, 255)!important;stroke:rgb(139, 117, 215)!important;color:rgb(16, 32, 51)!important;stroke-width:1.5px!important;}</style><g><defs><marker id="my-svg_class-aggregationStart" class="marker aggregation class" refX="18" refY="7" markerWidth="190" markerHeight="240" orient="auto"><path d="M 18,7 L9,13 L1,7 L9,1 Z"/></marker></defs><defs><marker id="my-svg_class-aggregationEnd" class="marker aggregation class" refX="1" refY="7" markerWidth="20" markerHeight="28" orient="auto"><path d="M 18,7 L9,13 L1,7 L9,1 Z"/></marker></defs><defs><marker id="my-svg_class-aggregationStart-margin" class="marker aggregation class" refX="15" refY="7" markerWidth="190" markerHeight="240" orient="auto" markerUnits="userSpaceOnUse"><path d="M 18,7 L9,13 L1,7 L9,1 Z" style="stroke-width: 2;"/></marker></defs><defs><marker id="my-svg_class-aggregationEnd-margin" class="marker aggregation class" refX="1" refY="7" markerWidth="20" markerHeight="28" orient="auto" markerUnits="userSpaceOnUse"><path d="M 18,7 L9,13 L1,7 L9,1 Z" style="stroke-width: 2;"/></marker></defs><defs><marker id="my-svg_class-extensionStart" class="marker extension class" refX="18" refY="7" markerWidth="20" markerHeight="28" orient="auto" markerUnits="userSpaceOnUse"><path d="M 1,7 L18,13 V 1 Z"/></marker></defs><defs><marker id="my-svg_class-extensionEnd" class="marker extension class" refX="1" refY="7" markerWidth="20" markerHeight="28" orient="auto"><path d="M 1,1 V 13 L18,7 Z"/></marker></defs><marker id="my-svg_class-extensionStart-margin" class="marker extension class" refX="18" refY="7" markerWidth="20" markerHeight="28" orient="auto" markerUnits="userSpaceOnUse" viewBox="0 0 20 14"><polygon points="10,7 18,13 18,1" style="stroke-width: 2; stroke-dasharray: 0;"/></marker><defs><marker id="my-svg_class-extensionEnd-margin" class="marker extension class" refX="9" refY="7" markerWidth="20" markerHeight="28" orient="auto" markerUnits="userSpaceOnUse" viewBox="0 0 20 14"><polygon points="10,1 10,13 18,7" style="stroke-width: 2; stroke-dasharray: 0;"/></marker></defs><defs><marker id="my-svg_class-compositionStart" class="marker composition class" refX="18" refY="7" markerWidth="190" markerHeight="240" orient="auto"><path d="M 18,7 L9,13 L1,7 L9,1 Z"/></marker></defs><defs><marker id="my-svg_class-compositionEnd" class="marker composition class" refX="1" refY="7" markerWidth="20" markerHeight="28" orient="auto"><path d="M 18,7 L9,13 L1,7 L9,1 Z"/></marker></defs><defs><marker id="my-svg_class-compositionStart-margin" class="marker composition class" refX="15" refY="7" markerWidth="190" markerHeight="240" orient="auto" markerUnits="userSpaceOnUse"><path viewBox="0 0 15 15" d="M 18,7 L9,13 L1,7 L9,1 Z" style="stroke-width: 0;"/></marker></defs><defs><marker id="my-svg_class-compositionEnd-margin" class="marker composition class" refX="3.5" refY="7" markerWidth="20" markerHeight="28" orient="auto" markerUnits="userSpaceOnUse"><path d="M 18,7 L9,13 L1,7 L9,1 Z" style="stroke-width: 0;"/></marker></defs><defs><marker id="my-svg_class-dependencyStart" class="marker dependency class" refX="6" refY="7" markerWidth="190" markerHeight="240" orient="auto"><path d="M 5,7 L9,13 L1,7 L9,1 Z"/></marker></defs><defs><marker id="my-svg_class-dependencyEnd" class="marker dependency class" refX="13" refY="7" markerWidth="20" markerHeight="28" orient="auto"><path d="M 18,7 L9,13 L14,7 L9,1 Z"/></marker></defs><defs><marker id="my-svg_class-dependencyStart-margin" class="marker dependency class" refX="4" refY="7" markerWidth="190" markerHeight="240" orient="auto" markerUnits="userSpaceOnUse"><path d="M 5,7 L9,13 L1,7 L9,1 Z" style="stroke-width: 0;"/></marker></defs><defs><marker id="my-svg_class-dependencyEnd-margin" class="marker dependency class" refX="16" refY="7" markerWidth="20" markerHeight="28" orient="auto" markerUnits="userSpaceOnUse"><path d="M 18,7 L9,13 L14,7 L9,1 Z" style="stroke-width: 0;"/></marker></defs><defs><marker id="my-svg_class-lollipopStart" class="marker lollipop class" refX="13" refY="7" markerWidth="190" markerHeight="240" orient="auto"><circle fill="transparent" cx="7" cy="7" r="6"/></marker></defs><defs><marker id="my-svg_class-lollipopEnd" class="marker lollipop class" refX="1" refY="7" markerWidth="190" markerHeight="240" orient="auto"><circle fill="transparent" cx="7" cy="7" r="6"/></marker></defs><defs><marker id="my-svg_class-lollipopStart-margin" class="marker lollipop class" refX="13" refY="7" markerWidth="190" markerHeight="240" orient="auto" markerUnits="userSpaceOnUse"><circle fill="transparent" cx="7" cy="7" r="6" stroke-width="2"/></marker></defs><defs><marker id="my-svg_class-lollipopEnd-margin" class="marker lollipop class" refX="1" refY="7" markerWidth="190" markerHeight="240" orient="auto" markerUnits="userSpaceOnUse"><circle fill="transparent" cx="7" cy="7" r="6" stroke-width="2"/></marker></defs><g class="root"><g class="clusters"/><g class="edgePaths"><path d="M192.098,176L192.098,180.167C192.098,184.333,192.098,192.667,192.098,198.125C192.098,203.583,192.098,206.167,192.098,207.458L192.098,208.75" id="my-svg-id_RedissonLeaderElector_LeaderElector_1" class="edge-thickness-normal edge-pattern-dashed relation" style=";;;" data-edge="true" data-et="edge" data-id="id_RedissonLeaderElector_LeaderElector_1" data-points="W3sieCI6MTkyLjA5NzY1NjI1LCJ5IjoxNzZ9LHsieCI6MTkyLjA5NzY1NjI1LCJ5IjoyMDF9LHsieCI6MTkyLjA5NzY1NjI1LCJ5IjoyMjZ9XQ==" data-look="classic" marker-end="url(#my-svg_class-extensionEnd)"/><path d="M626.137,176L626.137,180.167C626.137,184.333,626.137,192.667,626.137,198.125C626.137,203.583,626.137,206.167,626.137,207.458L626.137,208.75" id="my-svg-id_RedissonLeaderGroupElector_LeaderGroupElector_2" class="edge-thickness-normal edge-pattern-dashed relation" style=";;;" data-edge="true" data-et="edge" data-id="id_RedissonLeaderGroupElector_LeaderGroupElector_2" data-points="W3sieCI6NjI2LjEzNjcxODc1LCJ5IjoxNzZ9LHsieCI6NjI2LjEzNjcxODc1LCJ5IjoyMDF9LHsieCI6NjI2LjEzNjcxODc1LCJ5IjoyMjZ9XQ==" data-look="classic" marker-end="url(#my-svg_class-extensionEnd)"/><path d="M1075.617,176L1075.617,180.167C1075.617,184.333,1075.617,192.667,1075.617,198.125C1075.617,203.583,1075.617,206.167,1075.617,207.458L1075.617,208.75" id="my-svg-id_RedissonSuspendLeaderElector_SuspendLeaderElector_3" class="edge-thickness-normal edge-pattern-dashed relation" style=";;;" data-edge="true" data-et="edge" data-id="id_RedissonSuspendLeaderElector_SuspendLeaderElector_3" data-points="W3sieCI6MTA3NS42MTcxODc1LCJ5IjoxNzZ9LHsieCI6MTA3NS42MTcxODc1LCJ5IjoyMDF9LHsieCI6MTA3NS42MTcxODc1LCJ5IjoyMjZ9XQ==" data-look="classic" marker-end="url(#my-svg_class-extensionEnd)"/><path d="M1540.539,176L1540.539,180.167C1540.539,184.333,1540.539,192.667,1540.539,198.125C1540.539,203.583,1540.539,206.167,1540.539,207.458L1540.539,208.75" id="my-svg-id_RedissonSuspendLeaderGroupElector_SuspendLeaderGroupElector_4" class="edge-thickness-normal edge-pattern-dashed relation" style=";;;" data-edge="true" data-et="edge" data-id="id_RedissonSuspendLeaderGroupElector_SuspendLeaderGroupElector_4" data-points="W3sieCI6MTU0MC41MzkwNjI1LCJ5IjoxNzZ9LHsieCI6MTU0MC41MzkwNjI1LCJ5IjoyMDF9LHsieCI6MTU0MC41MzkwNjI1LCJ5IjoyMjZ9XQ==" data-look="classic" marker-end="url(#my-svg_class-extensionEnd)"/></g><g class="edgeLabels"><g class="edgeLabel"><g class="label" data-id="id_RedissonLeaderElector_LeaderElector_1" transform="translate(0, 0)"><foreignObject width="0" height="0"><div xmlns="http://www.w3.org/1999/xhtml" class="labelBkg" style="display: table-cell; white-space: nowrap; line-height: 1.5; max-width: 200px; text-align: center;"><span class="edgeLabel"></span></div></foreignObject></g></g><g class="edgeLabel"><g class="label" data-id="id_RedissonLeaderGroupElector_LeaderGroupElector_2" transform="translate(0, 0)"><foreignObject width="0" height="0"><div xmlns="http://www.w3.org/1999/xhtml" class="labelBkg" style="display: table-cell; white-space: nowrap; line-height: 1.5; max-width: 200px; text-align: center;"><span class="edgeLabel"></span></div></foreignObject></g></g><g class="edgeLabel"><g class="label" data-id="id_RedissonSuspendLeaderElector_SuspendLeaderElector_3" transform="translate(0, 0)"><foreignObject width="0" height="0"><div xmlns="http://www.w3.org/1999/xhtml" class="labelBkg" style="display: table-cell; white-space: nowrap; line-height: 1.5; max-width: 200px; text-align: center;"><span class="edgeLabel"></span></div></foreignObject></g></g><g class="edgeLabel"><g class="label" data-id="id_RedissonSuspendLeaderGroupElector_SuspendLeaderGroupElector_4" transform="translate(0, 0)"><foreignObject width="0" height="0"><div xmlns="http://www.w3.org/1999/xhtml" class="labelBkg" style="display: table-cell; white-space: nowrap; line-height: 1.5; max-width: 200px; text-align: center;"><span class="edgeLabel"></span></div></foreignObject></g></g></g><g class="nodes"><g class="node default" id="my-svg-classId-LeaderElector-0" data-look="classic" transform="translate(192.09765625, 280)"><g class="basic label-container outer-path"><path d="M-64.6640625 -54 L64.6640625 -54 L64.6640625 54 L-64.6640625 54" stroke="none" stroke-width="0" fill="#EAF7EF" style="fill:#EAF7EF;stroke:#58A978;color:#102033;stroke-width:1.5px"/><path d="M-64.6640625 -54 C-28.896883241834473 -54, 6.870296016331054 -54, 64.6640625 -54 M-64.6640625 -54 C-15.731676990402839 -54, 33.20070851919432 -54, 64.6640625 -54 M64.6640625 -54 C64.6640625 -22.3529801212185, 64.6640625 9.294039757562999, 64.6640625 54 M64.6640625 -54 C64.6640625 -12.959726965816678, 64.6640625 28.080546068366644, 64.6640625 54 M64.6640625 54 C24.635393865862156 54, -15.393274768275688 54, -64.6640625 54 M64.6640625 54 C15.364088886169966 54, -33.93588472766007 54, -64.6640625 54 M-64.6640625 54 C-64.6640625 23.20775205314935, -64.6640625 -7.584495893701302, -64.6640625 -54 M-64.6640625 54 C-64.6640625 25.715435168999374, -64.6640625 -2.5691296620012523, -64.6640625 -54" stroke="#58A978" stroke-width="1.5" fill="none" stroke-dasharray="0 0" style="fill:#EAF7EF;stroke:#58A978;color:#102033;stroke-width:1.5px"/></g><g class="annotation-group text" transform="translate(-41.171875, -30)"><g class="label" style="" transform="translate(0,-12)"><foreignObject width="82.34375" height="24"><div xmlns="http://www.w3.org/1999/xhtml" style="display: table-cell; white-space: nowrap; line-height: 1.5; max-width: 122px; text-align: center;"><span class="nodeLabel markdown-node-label" style="fill:#EAF7EF;stroke:#58A978;color:#102033;stroke-width:1.5px"><p>«interface»</p></span></div></foreignObject></g></g><g class="label-group text" transform="translate(-52.6640625, -6)"><g class="label" style="font-weight: bolder" transform="translate(0,-12)"><foreignObject width="105.328125" height="24"><div xmlns="http://www.w3.org/1999/xhtml" style="display: table-cell; white-space: nowrap; line-height: 1.5; max-width: 141px; text-align: center;"><span class="nodeLabel markdown-node-label" style="fill:#EAF7EF;stroke:#58A978;color:#102033;stroke-width:1.5px"><p>LeaderElector</p></span></div></foreignObject></g></g><g class="members-group text" transform="translate(-52.6640625, 42)"/><g class="methods-group text" transform="translate(-52.6640625, 72)"/><g class="divider" style="fill:#EAF7EF;stroke:#58A978;color:#102033;stroke-width:1.5px"><path d="M-64.6640625 18 C-18.717581474811567 18.000355270603553, 27.228899550376866 18.00071054120711, 64.6640625 18.001 M-64.6640625 18 C-23.848424186610856 18.00031559754163, 16.967214126778288 18.00063119508326, 64.6640625 18.001" stroke="#58A978" stroke-width="1.5" fill="none" stroke-dasharray="0 0" style="fill:#EAF7EF;stroke:#58A978;color:#102033;stroke-width:1.5px"/></g><g class="divider" style="fill:#EAF7EF;stroke:#58A978;color:#102033;stroke-width:1.5px"><path d="M-64.6640625 36 C-22.775137898383647 36.00032389648115, 19.113786703232705 36.000647792962305, 64.6640625 36.001 M-64.6640625 36 C-35.441122179861594 36.000225959669024, -6.218181859723195 36.00045191933804, 64.6640625 36.001" stroke="#58A978" stroke-width="1.5" fill="none" stroke-dasharray="0 0" style="fill:#EAF7EF;stroke:#58A978;color:#102033;stroke-width:1.5px"/></g></g><g class="node default" id="my-svg-classId-LeaderGroupElector-1" data-look="classic" transform="translate(626.13671875, 280)"><g class="basic label-container outer-path"><path d="M-87.3671875 -54 L87.3671875 -54 L87.3671875 54 L-87.3671875 54" stroke="none" stroke-width="0" fill="#F3EEFF" style="fill:#F3EEFF;stroke:#8B75D7;color:#102033;stroke-width:1.5px"/><path d="M-87.3671875 -54 C-49.429679706514115 -54, -11.49217191302823 -54, 87.3671875 -54 M-87.3671875 -54 C-22.973147468878267 -54, 41.420892562243466 -54, 87.3671875 -54 M87.3671875 -54 C87.3671875 -19.852158933889143, 87.3671875 14.295682132221714, 87.3671875 54 M87.3671875 -54 C87.3671875 -17.9887277931714, 87.3671875 18.0225444136572, 87.3671875 54 M87.3671875 54 C24.64121635259466 54, -38.08475479481068 54, -87.3671875 54 M87.3671875 54 C21.507101721553198 54, -44.352984056893604 54, -87.3671875 54 M-87.3671875 54 C-87.3671875 10.898596629521471, -87.3671875 -32.20280674095706, -87.3671875 -54 M-87.3671875 54 C-87.3671875 26.424771232209242, -87.3671875 -1.1504575355815163, -87.3671875 -54" stroke="#8B75D7" stroke-width="1.5" fill="none" stroke-dasharray="0 0" style="fill:#F3EEFF;stroke:#8B75D7;color:#102033;stroke-width:1.5px"/></g><g class="annotation-group text" transform="translate(-41.171875, -30)"><g class="label" style="" transform="translate(0,-12)"><foreignObject width="82.34375" height="24"><div xmlns="http://www.w3.org/1999/xhtml" style="display: table-cell; white-space: nowrap; line-height: 1.5; max-width: 122px; text-align: center;"><span class="nodeLabel markdown-node-label" style="fill:#F3EEFF;stroke:#8B75D7;color:#102033;stroke-width:1.5px"><p>«interface»</p></span></div></foreignObject></g></g><g class="label-group text" transform="translate(-75.3671875, -6)"><g class="label" style="font-weight: bolder" transform="translate(0,-12)"><foreignObject width="150.734375" height="24"><div xmlns="http://www.w3.org/1999/xhtml" style="display: table-cell; white-space: nowrap; line-height: 1.5; max-width: 182px; text-align: center;"><span class="nodeLabel markdown-node-label" style="fill:#F3EEFF;stroke:#8B75D7;color:#102033;stroke-width:1.5px"><p>LeaderGroupElector</p></span></div></foreignObject></g></g><g class="members-group text" transform="translate(-75.3671875, 42)"/><g class="methods-group text" transform="translate(-75.3671875, 72)"/><g class="divider" style="fill:#F3EEFF;stroke:#8B75D7;color:#102033;stroke-width:1.5px"><path d="M-87.3671875 18 C-52.08942487819994 18.000201893660716, -16.811662256399885 18.000403787321435, 87.3671875 18.001 M-87.3671875 18 C-30.108138097188267 18.000327691957594, 27.150911305623467 18.00065538391519, 87.3671875 18.001" stroke="#8B75D7" stroke-width="1.5" fill="none" stroke-dasharray="0 0" style="fill:#F3EEFF;stroke:#8B75D7;color:#102033;stroke-width:1.5px"/></g><g class="divider" style="fill:#F3EEFF;stroke:#8B75D7;color:#102033;stroke-width:1.5px"><path d="M-87.3671875 36 C-47.48564693096938 36.0002282409547, -7.604106361938761 36.0004564819094, 87.3671875 36.001 M-87.3671875 36 C-29.654572670325948 36.0003302877, 28.058042159348105 36.0006605754, 87.3671875 36.001" stroke="#8B75D7" stroke-width="1.5" fill="none" stroke-dasharray="0 0" style="fill:#F3EEFF;stroke:#8B75D7;color:#102033;stroke-width:1.5px"/></g></g><g class="node default" id="my-svg-classId-SuspendLeaderElector-2" data-look="classic" transform="translate(1075.6171875, 280)"><g class="basic label-container outer-path"><path d="M-95.546875 -54 L95.546875 -54 L95.546875 54 L-95.546875 54" stroke="none" stroke-width="0" fill="#FDECEF" style="fill:#FDECEF;stroke:#D97083;color:#102033;stroke-width:1.5px"/><path d="M-95.546875 -54 C-46.56058853604857 -54, 2.42569792790286 -54, 95.546875 -54 M-95.546875 -54 C-23.395135393897263 -54, 48.756604212205474 -54, 95.546875 -54 M95.546875 -54 C95.546875 -29.068614033184808, 95.546875 -4.137228066369616, 95.546875 54 M95.546875 -54 C95.546875 -32.08969544864848, 95.546875 -10.179390897296955, 95.546875 54 M95.546875 54 C53.55326566751764 54, 11.559656335035285 54, -95.546875 54 M95.546875 54 C41.099933009409746 54, -13.347008981180508 54, -95.546875 54 M-95.546875 54 C-95.546875 22.241568925514255, -95.546875 -9.51686214897149, -95.546875 -54 M-95.546875 54 C-95.546875 18.551536282282377, -95.546875 -16.896927435435245, -95.546875 -54" stroke="#D97083" stroke-width="1.5" fill="none" stroke-dasharray="0 0" style="fill:#FDECEF;stroke:#D97083;color:#102033;stroke-width:1.5px"/></g><g class="annotation-group text" transform="translate(-41.171875, -30)"><g class="label" style="" transform="translate(0,-12)"><foreignObject width="82.34375" height="24"><div xmlns="http://www.w3.org/1999/xhtml" style="display: table-cell; white-space: nowrap; line-height: 1.5; max-width: 122px; text-align: center;"><span class="nodeLabel markdown-node-label" style="fill:#FDECEF;stroke:#D97083;color:#102033;stroke-width:1.5px"><p>«interface»</p></span></div></foreignObject></g></g><g class="label-group text" transform="translate(-83.546875, -6)"><g class="label" style="font-weight: bolder" transform="translate(0,-12)"><foreignObject width="167.09375" height="24"><div xmlns="http://www.w3.org/1999/xhtml" style="display: table-cell; white-space: nowrap; line-height: 1.5; max-width: 195px; text-align: center;"><span class="nodeLabel markdown-node-label" style="fill:#FDECEF;stroke:#D97083;color:#102033;stroke-width:1.5px"><p>SuspendLeaderElector</p></span></div></foreignObject></g></g><g class="members-group text" transform="translate(-83.546875, 42)"/><g class="methods-group text" transform="translate(-83.546875, 72)"/><g class="divider" style="fill:#FDECEF;stroke:#D97083;color:#102033;stroke-width:1.5px"><path d="M-95.546875 18 C-39.43869044133154 18.000293616010772, 16.669494117336924 18.000587232021548, 95.546875 18.001 M-95.546875 18 C-21.15956780848937 18.000389271272304, 53.22773938302126 18.000778542544605, 95.546875 18.001" stroke="#D97083" stroke-width="1.5" fill="none" stroke-dasharray="0 0" style="fill:#FDECEF;stroke:#D97083;color:#102033;stroke-width:1.5px"/></g><g class="divider" style="fill:#FDECEF;stroke:#D97083;color:#102033;stroke-width:1.5px"><path d="M-95.546875 36 C-39.50337286469045 36.00029327752548, 16.540129270619104 36.000586555050965, 95.546875 36.001 M-95.546875 36 C-54.147798216013996 36.000216642756676, -12.748721432027992 36.00043328551335, 95.546875 36.001" stroke="#D97083" stroke-width="1.5" fill="none" stroke-dasharray="0 0" style="fill:#FDECEF;stroke:#D97083;color:#102033;stroke-width:1.5px"/></g></g><g class="node default" id="my-svg-classId-SuspendLeaderGroupElector-3" data-look="classic" transform="translate(1540.5390625, 280)"><g class="basic label-container outer-path"><path d="M-118.25 -54 L118.25 -54 L118.25 54 L-118.25 54" stroke="none" stroke-width="0" fill="#EEF2F7" style="fill:#EEF2F7;stroke:#8A97A8;color:#102033;stroke-width:1.5px"/><path d="M-118.25 -54 C-62.004043035263564 -54, -5.758086070527128 -54, 118.25 -54 M-118.25 -54 C-68.12037624320078 -54, -17.990752486401576 -54, 118.25 -54 M118.25 -54 C118.25 -23.19668523444032, 118.25 7.60662953111936, 118.25 54 M118.25 -54 C118.25 -32.10760610628167, 118.25 -10.215212212563344, 118.25 54 M118.25 54 C27.728764116678462 54, -62.792471766643075 54, -118.25 54 M118.25 54 C56.49096116652016 54, -5.268077666959684 54, -118.25 54 M-118.25 54 C-118.25 15.709091737725721, -118.25 -22.581816524548557, -118.25 -54 M-118.25 54 C-118.25 14.17392830204232, -118.25 -25.65214339591536, -118.25 -54" stroke="#8A97A8" stroke-width="1.5" fill="none" stroke-dasharray="0 0" style="fill:#EEF2F7;stroke:#8A97A8;color:#102033;stroke-width:1.5px"/></g><g class="annotation-group text" transform="translate(-41.171875, -30)"><g class="label" style="" transform="translate(0,-12)"><foreignObject width="82.34375" height="24"><div xmlns="http://www.w3.org/1999/xhtml" style="display: table-cell; white-space: nowrap; line-height: 1.5; max-width: 122px; text-align: center;"><span class="nodeLabel markdown-node-label" style="fill:#EEF2F7;stroke:#8A97A8;color:#102033;stroke-width:1.5px"><p>«interface»</p></span></div></foreignObject></g></g><g class="label-group text" transform="translate(-106.25, -6)"><g class="label" style="font-weight: bolder" transform="translate(0,-12)"><foreignObject width="212.5" height="24"><div xmlns="http://www.w3.org/1999/xhtml" style="display: table-cell; white-space: nowrap; line-height: 1.5; max-width: 236px; text-align: center;"><span class="nodeLabel markdown-node-label" style="fill:#EEF2F7;stroke:#8A97A8;color:#102033;stroke-width:1.5px"><p>SuspendLeaderGroupElector</p></span></div></foreignObject></g></g><g class="members-group text" transform="translate(-106.25, 42)"/><g class="methods-group text" transform="translate(-106.25, 72)"/><g class="divider" style="fill:#EEF2F7;stroke:#8A97A8;color:#102033;stroke-width:1.5px"><path d="M-118.25 18 C-68.71925431887112 18.00020943232846, -19.18850863774223 18.000418864656922, 118.25 18.001 M-118.25 18 C-65.91819575247683 18.000221276127895, -13.586391504953653 18.000442552255794, 118.25 18.001" stroke="#8A97A8" stroke-width="1.5" fill="none" stroke-dasharray="0 0" style="fill:#EEF2F7;stroke:#8A97A8;color:#102033;stroke-width:1.5px"/></g><g class="divider" style="fill:#EEF2F7;stroke:#8A97A8;color:#102033;stroke-width:1.5px"><path d="M-118.25 36 C-49.38139707267142 36.00029119916671, 19.487205854657162 36.00058239833342, 118.25 36.001 M-118.25 36 C-38.9127600489831 36.00033546401671, 40.424479902033795 36.00067092803341, 118.25 36.001" stroke="#8A97A8" stroke-width="1.5" fill="none" stroke-dasharray="0 0" style="fill:#EEF2F7;stroke:#8A97A8;color:#102033;stroke-width:1.5px"/></g></g><g class="node default" id="my-svg-classId-RedissonLeaderElector-4" data-look="classic" transform="translate(192.09765625, 92)"><g class="basic label-container outer-path"><path d="M-184.09765625 -84 L184.09765625 -84 L184.09765625 84 L-184.09765625 84" stroke="none" stroke-width="0" fill="#F3EEFF" style="fill:#F3EEFF;stroke:#8B75D7;color:#102033;stroke-width:1.5px"/><path d="M-184.09765625 -84 C-92.05166005081325 -84, -0.005663851626508176 -84, 184.09765625 -84 M-184.09765625 -84 C-92.62041921986491 -84, -1.1431821897298278 -84, 184.09765625 -84 M184.09765625 -84 C184.09765625 -47.88565120493604, 184.09765625 -11.771302409872078, 184.09765625 84 M184.09765625 -84 C184.09765625 -18.207349248468645, 184.09765625 47.58530150306271, 184.09765625 84 M184.09765625 84 C89.30697010204041 84, -5.483716045919181 84, -184.09765625 84 M184.09765625 84 C89.0751084530511 84, -5.947439343897798 84, -184.09765625 84 M-184.09765625 84 C-184.09765625 40.958958074910655, -184.09765625 -2.082083850178691, -184.09765625 -84 M-184.09765625 84 C-184.09765625 17.775017628887227, -184.09765625 -48.449964742225546, -184.09765625 -84" stroke="#8B75D7" stroke-width="1.5" fill="none" stroke-dasharray="0 0" style="fill:#F3EEFF;stroke:#8B75D7;color:#102033;stroke-width:1.5px"/></g><g class="annotation-group text" transform="translate(0, -60)"/><g class="label-group text" transform="translate(-85.3203125, -60)"><g class="label" style="font-weight: bolder" transform="translate(0,-12)"><foreignObject width="170.640625" height="24"><div xmlns="http://www.w3.org/1999/xhtml" style="display: table-cell; white-space: nowrap; line-height: 1.5; max-width: 199px; text-align: center;"><span class="nodeLabel markdown-node-label" style="fill:#F3EEFF;stroke:#8B75D7;color:#102033;stroke-width:1.5px"><p>RedissonLeaderElector</p></span></div></foreignObject></g></g><g class="members-group text" transform="translate(-172.09765625, -12)"><g class="label" style="" transform="translate(0,-12)"><foreignObject width="215.875" height="24"><div xmlns="http://www.w3.org/1999/xhtml" style="display: table-cell; white-space: nowrap; line-height: 1.5; max-width: 254px; text-align: center;"><span class="nodeLabel markdown-node-label" style="fill:#F3EEFF;stroke:#8B75D7;color:#102033;stroke-width:1.5px"><p>-redissonClient RedissonClient</p></span></div></foreignObject></g><g class="label" style="" transform="translate(0,12)"><foreignObject width="224.578125" height="24"><div xmlns="http://www.w3.org/1999/xhtml" style="display: table-cell; white-space: nowrap; line-height: 1.5; max-width: 259px; text-align: center;"><span class="nodeLabel markdown-node-label" style="fill:#F3EEFF;stroke:#8B75D7;color:#102033;stroke-width:1.5px"><p>-options LeaderElectionOptions</p></span></div></foreignObject></g></g><g class="methods-group text" transform="translate(-172.09765625, 60)"><g class="label" style="" transform="translate(0,-12)"><foreignObject width="258.875" height="24"><div xmlns="http://www.w3.org/1999/xhtml" style="display: table-cell; white-space: nowrap; line-height: 1.5; max-width: 292px; text-align: center;"><span class="nodeLabel markdown-node-label" style="fill:#F3EEFF;stroke:#8B75D7;color:#102033;stroke-width:1.5px"><p>+runIfLeader(lockName, action) : T?</p></span></div></foreignObject></g></g><g class="divider" style="fill:#F3EEFF;stroke:#8B75D7;color:#102033;stroke-width:1.5px"><path d="M-184.09765625 -36 C-58.02522204007819 -35.9996575935925, 68.04721216984362 -35.99931518718501, 184.09765625 -35.999 M-184.09765625 -36 C-71.87603798814088 -35.99969521171386, 40.34558027371824 -35.99939042342772, 184.09765625 -35.999" stroke="#8B75D7" stroke-width="1.5" fill="none" stroke-dasharray="0 0" style="fill:#F3EEFF;stroke:#8B75D7;color:#102033;stroke-width:1.5px"/></g><g class="divider" style="fill:#F3EEFF;stroke:#8B75D7;color:#102033;stroke-width:1.5px"><path d="M-184.09765625 36 C-65.00449094246689 36.00032345106324, 54.088674365066225 36.000646902126476, 184.09765625 36.001 M-184.09765625 36 C-39.81538175640978 36.0003918634203, 104.46689273718044 36.000783726840595, 184.09765625 36.001" stroke="#8B75D7" stroke-width="1.5" fill="none" stroke-dasharray="0 0" style="fill:#F3EEFF;stroke:#8B75D7;color:#102033;stroke-width:1.5px"/></g></g><g class="node default" id="my-svg-classId-RedissonLeaderGroupElector-5" data-look="classic" transform="translate(626.13671875, 92)"><g class="basic label-container outer-path"><path d="M-199.94140625 -84 L199.94140625 -84 L199.94140625 84 L-199.94140625 84" stroke="none" stroke-width="0" fill="#F3EEFF" style="fill:#F3EEFF;stroke:#8B75D7;color:#102033;stroke-width:1.5px"/><path d="M-199.94140625 -84 C-59.918930317313254 -84, 80.10354561537349 -84, 199.94140625 -84 M-199.94140625 -84 C-87.19278135911009 -84, 25.55584353177983 -84, 199.94140625 -84 M199.94140625 -84 C199.94140625 -41.105494958282044, 199.94140625 1.7890100834359117, 199.94140625 84 M199.94140625 -84 C199.94140625 -44.35698801421137, 199.94140625 -4.713976028422735, 199.94140625 84 M199.94140625 84 C70.80777480041775 84, -58.32585664916451 84, -199.94140625 84 M199.94140625 84 C59.02016742698501 84, -81.90107139602998 84, -199.94140625 84 M-199.94140625 84 C-199.94140625 45.33612415847881, -199.94140625 6.672248316957621, -199.94140625 -84 M-199.94140625 84 C-199.94140625 26.163005273385323, -199.94140625 -31.673989453229353, -199.94140625 -84" stroke="#8B75D7" stroke-width="1.5" fill="none" stroke-dasharray="0 0" style="fill:#F3EEFF;stroke:#8B75D7;color:#102033;stroke-width:1.5px"/></g><g class="annotation-group text" transform="translate(0, -60)"/><g class="label-group text" transform="translate(-108.0234375, -60)"><g class="label" style="font-weight: bolder" transform="translate(0,-12)"><foreignObject width="216.046875" height="24"><div xmlns="http://www.w3.org/1999/xhtml" style="display: table-cell; white-space: nowrap; line-height: 1.5; max-width: 240px; text-align: center;"><span class="nodeLabel markdown-node-label" style="fill:#F3EEFF;stroke:#8B75D7;color:#102033;stroke-width:1.5px"><p>RedissonLeaderGroupElector</p></span></div></foreignObject></g></g><g class="members-group text" transform="translate(-187.94140625, -12)"><g class="label" style="" transform="translate(0,-12)"><foreignObject width="215.875" height="24"><div xmlns="http://www.w3.org/1999/xhtml" style="display: table-cell; white-space: nowrap; line-height: 1.5; max-width: 254px; text-align: center;"><span class="nodeLabel markdown-node-label" style="fill:#F3EEFF;stroke:#8B75D7;color:#102033;stroke-width:1.5px"><p>-redissonClient RedissonClient</p></span></div></foreignObject></g><g class="label" style="" transform="translate(0,12)"><foreignObject width="267.859375" height="24"><div xmlns="http://www.w3.org/1999/xhtml" style="display: table-cell; white-space: nowrap; line-height: 1.5; max-width: 300px; text-align: center;"><span class="nodeLabel markdown-node-label" style="fill:#F3EEFF;stroke:#8B75D7;color:#102033;stroke-width:1.5px"><p>-options LeaderGroupElectionOptions</p></span></div></foreignObject></g></g><g class="methods-group text" transform="translate(-187.94140625, 60)"><g class="label" style="" transform="translate(0,-12)"><foreignObject width="258.875" height="24"><div xmlns="http://www.w3.org/1999/xhtml" style="display: table-cell; white-space: nowrap; line-height: 1.5; max-width: 292px; text-align: center;"><span class="nodeLabel markdown-node-label" style="fill:#F3EEFF;stroke:#8B75D7;color:#102033;stroke-width:1.5px"><p>+runIfLeader(lockName, action) : T?</p></span></div></foreignObject></g></g><g class="divider" style="fill:#F3EEFF;stroke:#8B75D7;color:#102033;stroke-width:1.5px"><path d="M-199.94140625 -36 C-60.787000781255415 -35.999652012036734, 78.36740468748917 -35.99930402407346, 199.94140625 -35.999 M-199.94140625 -36 C-51.78408241982308 -35.99962949814496, 96.37324141035384 -35.99925899628992, 199.94140625 -35.999" stroke="#8B75D7" stroke-width="1.5" fill="none" stroke-dasharray="0 0" style="fill:#F3EEFF;stroke:#8B75D7;color:#102033;stroke-width:1.5px"/></g><g class="divider" style="fill:#F3EEFF;stroke:#8B75D7;color:#102033;stroke-width:1.5px"><path d="M-199.94140625 36 C-78.28547581517256 36.00030422895566, 43.37045461965488 36.000608457911326, 199.94140625 36.001 M-199.94140625 36 C-59.46724199446476 36.00035128832714, 81.00692226107049 36.00070257665428, 199.94140625 36.001" stroke="#8B75D7" stroke-width="1.5" fill="none" stroke-dasharray="0 0" style="fill:#F3EEFF;stroke:#8B75D7;color:#102033;stroke-width:1.5px"/></g></g><g class="node default" id="my-svg-classId-RedissonSuspendLeaderElector-6" data-look="classic" transform="translate(1075.6171875, 92)"><g class="basic label-container outer-path"><path d="M-199.5390625 -84 L199.5390625 -84 L199.5390625 84 L-199.5390625 84" stroke="none" stroke-width="0" fill="#F3EEFF" style="fill:#F3EEFF;stroke:#8B75D7;color:#102033;stroke-width:1.5px"/><path d="M-199.5390625 -84 C-72.34038689089897 -84, 54.85828871820206 -84, 199.5390625 -84 M-199.5390625 -84 C-47.452617679506744 -84, 104.63382714098651 -84, 199.5390625 -84 M199.5390625 -84 C199.5390625 -30.375363929577226, 199.5390625 23.249272140845548, 199.5390625 84 M199.5390625 -84 C199.5390625 -25.48227004951299, 199.5390625 33.03545990097402, 199.5390625 84 M199.5390625 84 C68.5981773814649 84, -62.342707737070214 84, -199.5390625 84 M199.5390625 84 C61.17024048339442 84, -77.19858153321115 84, -199.5390625 84 M-199.5390625 84 C-199.5390625 36.32660789811155, -199.5390625 -11.346784203776906, -199.5390625 -84 M-199.5390625 84 C-199.5390625 38.13127843163107, -199.5390625 -7.737443136737866, -199.5390625 -84" stroke="#8B75D7" stroke-width="1.5" fill="none" stroke-dasharray="0 0" style="fill:#F3EEFF;stroke:#8B75D7;color:#102033;stroke-width:1.5px"/></g><g class="annotation-group text" transform="translate(0, -60)"/><g class="label-group text" transform="translate(-116.203125, -60)"><g class="label" style="font-weight: bolder" transform="translate(0,-12)"><foreignObject width="232.40625" height="24"><div xmlns="http://www.w3.org/1999/xhtml" style="display: table-cell; white-space: nowrap; line-height: 1.5; max-width: 254px; text-align: center;"><span class="nodeLabel markdown-node-label" style="fill:#F3EEFF;stroke:#8B75D7;color:#102033;stroke-width:1.5px"><p>RedissonSuspendLeaderElector</p></span></div></foreignObject></g></g><g class="members-group text" transform="translate(-187.5390625, -12)"><g class="label" style="" transform="translate(0,-12)"><foreignObject width="215.875" height="24"><div xmlns="http://www.w3.org/1999/xhtml" style="display: table-cell; white-space: nowrap; line-height: 1.5; max-width: 254px; text-align: center;"><span class="nodeLabel markdown-node-label" style="fill:#F3EEFF;stroke:#8B75D7;color:#102033;stroke-width:1.5px"><p>-redissonClient RedissonClient</p></span></div></foreignObject></g><g class="label" style="" transform="translate(0,12)"><foreignObject width="224.578125" height="24"><div xmlns="http://www.w3.org/1999/xhtml" style="display: table-cell; white-space: nowrap; line-height: 1.5; max-width: 259px; text-align: center;"><span class="nodeLabel markdown-node-label" style="fill:#F3EEFF;stroke:#8B75D7;color:#102033;stroke-width:1.5px"><p>-options LeaderElectionOptions</p></span></div></foreignObject></g></g><g class="methods-group text" transform="translate(-187.5390625, 60)"><g class="label" style="" transform="translate(0,-12)"><foreignObject width="258.875" height="24"><div xmlns="http://www.w3.org/1999/xhtml" style="display: table-cell; white-space: nowrap; line-height: 1.5; max-width: 292px; text-align: center;"><span class="nodeLabel markdown-node-label" style="fill:#F3EEFF;stroke:#8B75D7;color:#102033;stroke-width:1.5px"><p>+runIfLeader(lockName, action) : T?</p></span></div></foreignObject></g></g><g class="divider" style="fill:#F3EEFF;stroke:#8B75D7;color:#102033;stroke-width:1.5px"><path d="M-199.5390625 -36 C-81.83429620469133 -35.9997050583359, 35.870470090617346 -35.99941011667179, 199.5390625 -35.999 M-199.5390625 -36 C-55.407097623442496 -35.99963883772162, 88.72486725311501 -35.999277675443246, 199.5390625 -35.999" stroke="#8B75D7" stroke-width="1.5" fill="none" stroke-dasharray="0 0" style="fill:#F3EEFF;stroke:#8B75D7;color:#102033;stroke-width:1.5px"/></g><g class="divider" style="fill:#F3EEFF;stroke:#8B75D7;color:#102033;stroke-width:1.5px"><path d="M-199.5390625 36 C-80.44805502109617 36.000298415272646, 38.64295245780767 36.00059683054529, 199.5390625 36.001 M-199.5390625 36 C-68.7446982097618 36.000327741251894, 62.04966608047641 36.00065548250378, 199.5390625 36.001" stroke="#8B75D7" stroke-width="1.5" fill="none" stroke-dasharray="0 0" style="fill:#F3EEFF;stroke:#8B75D7;color:#102033;stroke-width:1.5px"/></g></g><g class="node default" id="my-svg-classId-RedissonSuspendLeaderGroupElector-7" data-look="classic" transform="translate(1540.5390625, 92)"><g class="basic label-container outer-path"><path d="M-215.3828125 -84 L215.3828125 -84 L215.3828125 84 L-215.3828125 84" stroke="none" stroke-width="0" fill="#F3EEFF" style="fill:#F3EEFF;stroke:#8B75D7;color:#102033;stroke-width:1.5px"/><path d="M-215.3828125 -84 C-110.63723309672542 -84, -5.8916536934508486 -84, 215.3828125 -84 M-215.3828125 -84 C-63.25031961580572 -84, 88.88217326838856 -84, 215.3828125 -84 M215.3828125 -84 C215.3828125 -21.7040230575788, 215.3828125 40.5919538848424, 215.3828125 84 M215.3828125 -84 C215.3828125 -27.04540926140386, 215.3828125 29.909181477192277, 215.3828125 84 M215.3828125 84 C107.47113380827275 84, -0.4405448834544927 84, -215.3828125 84 M215.3828125 84 C51.957152961416256 84, -111.46850657716749 84, -215.3828125 84 M-215.3828125 84 C-215.3828125 42.090403396051656, -215.3828125 0.1808067921033114, -215.3828125 -84 M-215.3828125 84 C-215.3828125 35.660708442054535, -215.3828125 -12.67858311589093, -215.3828125 -84" stroke="#8B75D7" stroke-width="1.5" fill="none" stroke-dasharray="0 0" style="fill:#F3EEFF;stroke:#8B75D7;color:#102033;stroke-width:1.5px"/></g><g class="annotation-group text" transform="translate(0, -60)"/><g class="label-group text" transform="translate(-138.90625, -60)"><g class="label" style="font-weight: bolder" transform="translate(0,-12)"><foreignObject width="277.8125" height="24"><div xmlns="http://www.w3.org/1999/xhtml" style="display: table-cell; white-space: nowrap; line-height: 1.5; max-width: 294px; text-align: center;"><span class="nodeLabel markdown-node-label" style="fill:#F3EEFF;stroke:#8B75D7;color:#102033;stroke-width:1.5px"><p>RedissonSuspendLeaderGroupElector</p></span></div></foreignObject></g></g><g class="members-group text" transform="translate(-203.3828125, -12)"><g class="label" style="" transform="translate(0,-12)"><foreignObject width="215.875" height="24"><div xmlns="http://www.w3.org/1999/xhtml" style="display: table-cell; white-space: nowrap; line-height: 1.5; max-width: 254px; text-align: center;"><span class="nodeLabel markdown-node-label" style="fill:#F3EEFF;stroke:#8B75D7;color:#102033;stroke-width:1.5px"><p>-redissonClient RedissonClient</p></span></div></foreignObject></g><g class="label" style="" transform="translate(0,12)"><foreignObject width="267.859375" height="24"><div xmlns="http://www.w3.org/1999/xhtml" style="display: table-cell; white-space: nowrap; line-height: 1.5; max-width: 300px; text-align: center;"><span class="nodeLabel markdown-node-label" style="fill:#F3EEFF;stroke:#8B75D7;color:#102033;stroke-width:1.5px"><p>-options LeaderGroupElectionOptions</p></span></div></foreignObject></g></g><g class="methods-group text" transform="translate(-203.3828125, 60)"><g class="label" style="" transform="translate(0,-12)"><foreignObject width="258.875" height="24"><div xmlns="http://www.w3.org/1999/xhtml" style="display: table-cell; white-space: nowrap; line-height: 1.5; max-width: 292px; text-align: center;"><span class="nodeLabel markdown-node-label" style="fill:#F3EEFF;stroke:#8B75D7;color:#102033;stroke-width:1.5px"><p>+runIfLeader(lockName, action) : T?</p></span></div></foreignObject></g></g><g class="divider" style="fill:#F3EEFF;stroke:#8B75D7;color:#102033;stroke-width:1.5px"><path d="M-215.3828125 -36 C-96.62023573408779 -35.999724298853316, 22.14234103182443 -35.999448597706625, 215.3828125 -35.999 M-215.3828125 -36 C-121.90905356309939 -35.99978300552897, -28.435294626198782 -35.99956601105793, 215.3828125 -35.999" stroke="#8B75D7" stroke-width="1.5" fill="none" stroke-dasharray="0 0" style="fill:#F3EEFF;stroke:#8B75D7;color:#102033;stroke-width:1.5px"/></g><g class="divider" style="fill:#F3EEFF;stroke:#8B75D7;color:#102033;stroke-width:1.5px"><path d="M-215.3828125 36 C-117.73082444526345 36.000226694012674, -20.078836390526902 36.000453388025356, 215.3828125 36.001 M-215.3828125 36 C-100.28814099126122 36.00026718629535, 14.806530517477569 36.0005343725907, 215.3828125 36.001" stroke="#8B75D7" stroke-width="1.5" fill="none" stroke-dasharray="0 0" style="fill:#F3EEFF;stroke:#8B75D7;color:#102033;stroke-width:1.5px"/></g></g></g></g></g><defs><filter id="my-svg-drop-shadow" height="130%" width="130%"><feDropShadow dx="4" dy="4" stdDeviation="0" flood-opacity="0.06" flood-color="#000000"/></filter></defs><defs><filter id="my-svg-drop-shadow-small" height="150%" width="150%"><feDropShadow dx="2" dy="2" stdDeviation="0" flood-opacity="0.06" flood-color="#000000"/></filter></defs><linearGradient id="my-svg-gradient" gradientUnits="objectBoundingBox" x1="0%" y1="0%" x2="100%" y2="0%"><stop offset="0%" stop-color="#5B8DEF" stop-opacity="1"/><stop offset="100%" stop-color="#58A978" stop-opacity="1"/></linearGradient></svg>