<svg xmlns="http://www.w3.org/2000/svg" width="1804" height="1366" viewBox="0 0 1804 1366" role="img" aria-label="leader ktor Sequence Flow">
  <metadata id="graphviz-evidence">Regenerated with Graphviz evidence: leader-ktor-sequence-01.dot, leader-ktor-sequence-01.plain, leader-ktor-sequence-01-graphviz.svg via scripts/regenerate-readme-diagram-graphviz-evidence.mjs.</metadata>
<defs>
  <filter id="shadow" x="-8%" y="-8%" width="116%" height="116%"><feDropShadow dx="0" dy="8" stdDeviation="9" flood-color="#1f2937" flood-opacity="0.10"/></filter>
  <marker id="openArrow" markerWidth="12" markerHeight="10" refX="10" refY="5" orient="auto" markerUnits="strokeWidth"><path d="M 1 1 L 10 5 L 1 9" fill="none" stroke="#758297" stroke-width="1.8" stroke-linecap="round" stroke-linejoin="round"/></marker>
  <marker id="inherit" markerWidth="14" markerHeight="12" refX="12" refY="6" orient="auto" markerUnits="strokeWidth"><path d="M 0 1 L 12 6 L 0 11 Z" fill="#ffffff" stroke="#758297" stroke-width="1.8"/></marker>
  <style>
    .canvas{fill:#f7f9fc}.frame{fill:#fff;stroke:#d8e0ea;stroke-width:1.5}
    .title{font-family:"Architects Daughter","Comic Mono","Comic Sans MS","Comic Sans",cursive;font-size:43px;font-weight:400;fill:#102033}
    .subtitle{font-family:"Comic Mono","Comic Sans MS","Comic Sans","Comic Neue",Arial,sans-serif;font-size:15px;font-weight:400;fill:#536273}
    .label{font-family:"Architects Daughter","Comic Mono","Comic Sans MS","Comic Sans",cursive;font-size:25px;font-weight:400;fill:#102033}
    .smallLabel{font-family:"Architects Daughter","Comic Mono","Comic Sans MS","Comic Sans",cursive;font-size:21px;font-weight:400;fill:#102033}
    .mono{font-family:"Comic Mono","Comic Sans MS","Comic Sans","Comic Neue",Arial,sans-serif;font-size:12px;font-weight:400;fill:#102033}
    .small{font-family:"Comic Mono","Comic Sans MS","Comic Sans","Comic Neue",Arial,sans-serif;font-size:12px;font-weight:400;fill:#536273}
    .strong{font-family:"Comic Mono","Comic Sans MS","Comic Sans","Comic Neue",Arial,sans-serif;font-size:13px;font-weight:400;fill:#102033}
    .card{stroke-width:2.1;filter:url(#shadow)}.compartment{stroke-width:1.5;fill:none}
    .line{stroke:#758297;stroke-width:2.1;fill:none;marker-end:url(#openArrow)}
    .plainLine{stroke:#758297;stroke-width:2.1;fill:none}
    .dashed{stroke:#758297;stroke-width:2.1;stroke-dasharray:7 6;fill:none;marker-end:url(#openArrow)}
    .inheritLine{stroke:#758297;stroke-width:2.2;fill:none;marker-end:url(#inherit)}
    .implLine{stroke:#758297;stroke-width:2.2;stroke-dasharray:8 7;fill:none;marker-end:url(#inherit)}
  </style>
</defs>
<rect class="canvas" width="1804" height="1366"/>
<rect class="frame" x="32" y="28" width="1740" height="1310" rx="28"/>
<text class="title" x="66" y="82">leader ktor Sequence Flow</text>
<text class="subtitle" x="70" y="118">Sequence messages from the original Mermaid source</text>
<rect class="card" x="80" y="166" width="300" height="72" rx="110" fill="#E8F3FF" stroke="#5B8DEF"/>
<text class="smallLabel" x="230" y="209" text-anchor="middle">Application (Ktor)</text>
<line class="lifeline" x1="230" y1="252" x2="230" y2="1306" stroke="#b7c2d1" stroke-width="2" stroke-dasharray="10 10"/>
<rect class="card" x="528" y="166" width="300" height="72" rx="110" fill="#EAF7EF" stroke="#58A978"/>
<text class="smallLabel" x="678" y="198.5" text-anchor="middle">Leader Election</text>
<text class="smallLabel" x="678" y="219.5" text-anchor="middle">Plugin</text>
<line class="lifeline" x1="678" y1="252" x2="678" y2="1306" stroke="#b7c2d1" stroke-width="2" stroke-dasharray="10 10"/>
<rect class="card" x="976" y="166" width="300" height="72" rx="110" fill="#FFF3D9" stroke="#D6A441"/>
<text class="smallLabel" x="1126" y="209" text-anchor="middle">leaderScheduled</text>
<line class="lifeline" x1="1126" y1="252" x2="1126" y2="1306" stroke="#b7c2d1" stroke-width="2" stroke-dasharray="10 10"/>
<rect class="card" x="1424" y="166" width="300" height="72" rx="110" fill="#FDECEF" stroke="#DC6B82"/>
<text class="smallLabel" x="1574" y="198.5" text-anchor="middle">Suspend Leader</text>
<text class="smallLabel" x="1574" y="219.5" text-anchor="middle">Elector</text>
<line class="lifeline" x1="1574" y1="252" x2="1574" y2="1306" stroke="#b7c2d1" stroke-width="2" stroke-dasharray="10 10"/>
<rect x="206" y="286" width="496" height="40" rx="102" fill="#ffffff" opacity="0.97"/>
<text class="strong" x="224" y="313" text-anchor="start">1. install(LeaderElectionPlugin) { leaderElection = ... }</text>
<path class="line" d="M230 332 L678 332"/>
<rect x="319" y="396" width="270" height="40" rx="102" fill="#ffffff" opacity="0.97"/>
<text class="strong" x="337" y="423" text-anchor="start">2. store config in attributes</text>
<path class="dashed" d="M678 442 L230 442"/>
<rect x="490.5" y="506" width="375" height="40" rx="102" fill="#ffffff" opacity="0.97"/>
<text class="strong" x="508.5" y="533" text-anchor="start">3. leaderScheduled(job, 1.minutes) { ... }</text>
<path class="line" d="M230 552 L1126 552"/>
<rect x="563" y="616" width="230" height="40" rx="102" fill="#ffffff" opacity="0.97"/>
<text class="strong" x="581" y="643" text-anchor="start">4. launch background Job</text>
<path class="dashed" d="M1126 662 L230 662"/>
<rect x="1203" y="726" width="294" height="40" rx="102" fill="#ffffff" opacity="0.97"/>
<text class="strong" x="1221" y="753" text-anchor="start">5. runIfLeader(job) { action() }</text>
<path class="line" d="M1126 772 L1574 772"/>
<rect x="1235" y="836" width="230" height="40" rx="102" fill="#ffffff" opacity="0.97"/>
<text class="strong" x="1253" y="863" text-anchor="start">6. result or null (skip)</text>
<path class="dashed" d="M1574 882 L1126 882"/>
<rect x="1069" y="946" width="210" height="40" rx="102" fill="#ffffff" opacity="0.97"/>
<text class="strong" x="1087" y="973" text-anchor="start">7. delay(period)</text>
<path class="line" d="M1126 992 C1190 992 1190 1026 1126 1026"/>
<rect x="349" y="1076" width="210" height="40" rx="102" fill="#ffffff" opacity="0.97"/>
<text class="strong" x="367" y="1103" text-anchor="start">8. ApplicationStopped</text>
<path class="line" d="M230 1122 L678 1122"/>
<rect x="327" y="1186" width="254" height="40" rx="102" fill="#ffffff" opacity="0.97"/>
<text class="strong" x="345" y="1213" text-anchor="start">9. cancel application scope</text>
<path class="dashed" d="M678 1232 L230 1232"/>
</svg>
