<?xml version="1.0" encoding="UTF-8" standalone="no"?>
<!DOCTYPE svg PUBLIC "-//W3C//DTD SVG 1.1//EN"
 "http://www.w3.org/Graphics/SVG/1.1/DTD/svg11.dtd">
<!-- Generated by graphviz version 15.0.0 (20260523.1842)
 -->
<!-- Title: leader&#45;redis&#45;lettuce&#45;sequence&#45;03 Pages: 1 -->
<svg width="1316pt" height="1105pt"
 viewBox="0.00 0.00 1316.00 1105.00" xmlns="http://www.w3.org/2000/svg" xmlns:xlink="http://www.w3.org/1999/xlink">
<g id="graph0" class="graph" transform="scale(1 1) rotate(0) translate(4 1100.5)">
<title>leader&#45;redis&#45;lettuce&#45;sequence&#45;03</title>
<text xml:space="preserve" text-anchor="middle" x="654.12" y="-1079.2" font-family="Times,serif" font-size="14.00">Scenario 2 — minLeaseTime delegated to backe.</text>
<!-- n0&#45;&gt;n2 -->
<g id="edge1" class="edge">
<title>n0&#45;&gt;n2</title>
<path fill="none" stroke="#758297" stroke-width="1.8" d="M180.14,-1043.34C180.14,-1058.21 180.14,-1072 180.14,-1072 180.14,-1072 1248.19,-1072 1248.19,-1072 1248.19,-1072 1248.19,-1054.06 1248.19,-1054.06"/>
<polygon fill="#758297" stroke="#758297" stroke-width="1.8" points="1250.99,-1054.06 1248.19,-1046.06 1245.39,-1054.06 1250.99,-1054.06"/>
</g>
<!-- n0&#45;&gt;n2 -->
<g id="edge6" class="edge">
<title>n0&#45;&gt;n2</title>
<path fill="none" stroke="#758297" stroke-width="1.8" d="M240.19,-1043.43C240.19,-1055.07 240.19,-1065 240.19,-1065 240.19,-1065 1188.14,-1065 1188.14,-1065 1188.14,-1065 1188.14,-1054.16 1188.14,-1054.16"/>
<polygon fill="#758297" stroke="#758297" stroke-width="1.8" points="1190.94,-1054.16 1188.14,-1046.16 1185.34,-1054.16 1190.94,-1054.16"/>
</g>
<!-- n0&#45;&gt;r3p1 -->
<g id="edge3" class="edge">
<title>n0&#45;&gt;r3p1</title>
<path fill="none" stroke="#758297" stroke-width="1.8" d="M214.12,-970.74C214.12,-899.5 214.12,-747 214.12,-730.53"/>
</g>
<!-- n1&#45;&gt;n2 -->
<g id="edge11" class="edge">
<title>n1&#45;&gt;n2</title>
<path fill="none" stroke="#758297" stroke-width="1.8" d="M804.65,-1000C804.65,-1000 997.2,-1000 997.2,-1000"/>
<polygon fill="#758297" stroke="#758297" stroke-width="1.8" points="997.2,-1002.8 1005.2,-1000 997.2,-997.2 997.2,-1002.8"/>
</g>
<!-- n1&#45;&gt;n2 -->
<g id="edge16" class="edge">
<title>n1&#45;&gt;n2</title>
<path fill="none" stroke="#758297" stroke-width="1.8" d="M804.65,-985C804.65,-985 997.2,-985 997.2,-985"/>
<polygon fill="#758297" stroke="#758297" stroke-width="1.8" points="997.2,-987.8 1005.2,-985 997.2,-982.2 997.2,-987.8"/>
</g>
<!-- n2&#45;&gt;n0 -->
<g id="edge2" class="edge">
<title>n2&#45;&gt;n0</title>
<path fill="none" stroke="#758297" stroke-width="1.8" stroke-dasharray="5,2" d="M1128.1,-1043.36C1128.1,-1051.1 1128.1,-1057 1128.1,-1057 1128.1,-1057 60.05,-1057 60.05,-1057 60.05,-1057 60.05,-1054.08 60.05,-1054.08"/>
<polygon fill="#758297" stroke="#758297" stroke-width="1.8" points="62.85,-1054.08 60.05,-1046.08 57.25,-1054.08 62.85,-1054.08"/>
</g>
<!-- n2&#45;&gt;n0 -->
<g id="edge10" class="edge">
<title>n2&#45;&gt;n0</title>
<path fill="none" stroke="#758297" stroke-width="1.8" stroke-dasharray="5,2" d="M1068.05,-1043.29C1068.05,-1047.32 1068.05,-1050 1068.05,-1050 1068.05,-1050 120.1,-1050 120.1,-1050 120.1,-1050 120.1,-1049.33 120.1,-1049.33"/>
<polygon fill="#758297" stroke="#758297" stroke-width="1.8" points="122.9,-1054.02 120.1,-1046.02 117.3,-1054.02 122.9,-1054.02"/>
</g>
<!-- n2&#45;&gt;n1 -->
<g id="edge15" class="edge">
<title>n2&#45;&gt;n1</title>
<path fill="none" stroke="#758297" stroke-width="1.8" stroke-dasharray="5,2" d="M1007.59,-1014C1007.59,-1014 815.04,-1014 815.04,-1014"/>
<polygon fill="#758297" stroke="#758297" stroke-width="1.8" points="815.04,-1011.2 807.04,-1014 815.04,-1016.8 815.04,-1011.2"/>
</g>
<!-- n2&#45;&gt;n1 -->
<g id="edge20" class="edge">
<title>n2&#45;&gt;n1</title>
<path fill="none" stroke="#758297" stroke-width="1.8" stroke-dasharray="5,2" d="M1007.59,-1029C1007.59,-1029 815.04,-1029 815.04,-1029"/>
<polygon fill="#758297" stroke="#758297" stroke-width="1.8" points="815.04,-1026.2 807.04,-1029 815.04,-1031.8 815.04,-1026.2"/>
</g>
<!-- n2&#45;&gt;r5p1 -->
<g id="edge7" class="edge">
<title>n2&#45;&gt;r5p1</title>
<path fill="none" stroke="#758297" stroke-width="1.8" d="M1222.12,-970.6C1222.12,-866.05 1222.12,-571.35 1222.12,-548.49"/>
</g>
<!-- n2&#45;&gt;r8p1 -->
<g id="edge12" class="edge">
<title>n2&#45;&gt;r8p1</title>
<path fill="none" stroke="#758297" stroke-width="1.8" d="M1251.55,-970.59C1251.55,-824.66 1251.55,-291 1251.55,-291 1251.55,-291 1229.02,-291 1223.38,-291"/>
</g>
<!-- n2&#45;&gt;r11p1 -->
<g id="edge17" class="edge">
<title>n2&#45;&gt;r11p1</title>
<path fill="none" stroke="#758297" stroke-width="1.8" d="M1279.89,-970.75C1279.89,-794.28 1279.89,-35 1279.89,-35 1279.89,-35 1232.44,-35 1223.55,-35"/>
</g>
<!-- r3p1&#45;&gt;r3p2 -->
<g id="edge4" class="edge">
<title>r3p1&#45;&gt;r3p2</title>
<path fill="none" stroke="#758297" stroke-width="1.8" d="M214.12,-727.62C214.12,-722.03 214.12,-702.02 214.12,-696.5"/>
</g>
<!-- r3p2&#45;&gt;n0 -->
<g id="edge5" class="edge">
<title>r3p2&#45;&gt;n0</title>
<path fill="none" stroke="#758297" stroke-width="1.8" d="M215.57,-695C223.14,-695 257.72,-695 257.72,-695 257.72,-695 257.72,-959.95 257.72,-959.95"/>
<polygon fill="#758297" stroke="#758297" stroke-width="1.8" points="254.92,-959.95 257.72,-967.95 260.52,-959.95 254.92,-959.95"/>
</g>
<!-- r5p1&#45;&gt;r5p2 -->
<g id="edge8" class="edge">
<title>r5p1&#45;&gt;r5p2</title>
<path fill="none" stroke="#758297" stroke-width="1.8" d="M1222.12,-545.62C1222.12,-540.03 1222.12,-520.02 1222.12,-514.5"/>
</g>
<!-- r5p2&#45;&gt;n2 -->
<g id="edge9" class="edge">
<title>r5p2&#45;&gt;n2</title>
<path fill="none" stroke="#758297" stroke-width="1.8" d="M1223.53,-513C1227.3,-513 1237.37,-513 1237.37,-513 1237.37,-513 1237.37,-960.02 1237.37,-960.02"/>
<polygon fill="#758297" stroke="#758297" stroke-width="1.8" points="1234.57,-960.02 1237.37,-968.02 1240.17,-960.02 1234.57,-960.02"/>
</g>
<!-- r8p1&#45;&gt;r8p2 -->
<g id="edge13" class="edge">
<title>r8p1&#45;&gt;r8p2</title>
<path fill="none" stroke="#758297" stroke-width="1.8" d="M1222.12,-289.62C1222.12,-284.03 1222.12,-264.02 1222.12,-258.5"/>
</g>
<!-- r8p2&#45;&gt;n2 -->
<g id="edge14" class="edge">
<title>r8p2&#45;&gt;n2</title>
<path fill="none" stroke="#758297" stroke-width="1.8" d="M1223.57,-257C1231.14,-257 1265.72,-257 1265.72,-257 1265.72,-257 1265.72,-959.92 1265.72,-959.92"/>
<polygon fill="#758297" stroke="#758297" stroke-width="1.8" points="1262.92,-959.92 1265.72,-967.92 1268.52,-959.92 1262.92,-959.92"/>
</g>
<!-- r11p1&#45;&gt;r11p2 -->
<g id="edge18" class="edge">
<title>r11p1&#45;&gt;r11p2</title>
<path fill="none" stroke="#758297" stroke-width="1.8" d="M1222.12,-33.62C1222.12,-28.03 1222.12,-8.02 1222.12,-2.5"/>
</g>
<!-- r11p2&#45;&gt;n2 -->
<g id="edge19" class="edge">
<title>r11p2&#45;&gt;n2</title>
<path fill="none" stroke="#758297" stroke-width="1.8" d="M1223.62,-1C1233.95,-1 1294.07,-1 1294.07,-1 1294.07,-1 1294.07,-959.95 1294.07,-959.95"/>
<polygon fill="#758297" stroke="#758297" stroke-width="1.8" points="1291.27,-959.95 1294.07,-967.95 1296.87,-959.95 1291.27,-959.95"/>
</g>
<!-- n0 -->
<g id="node1" class="node">
<title>n0</title>
<path fill="#ffffff" stroke="#5b8def" d="M288.24,-1043.08C288.24,-1043.08 12,-1043.08 12,-1043.08 6,-1043.08 0,-1037.08 0,-1031.08 0,-1031.08 0,-983.08 0,-983.08 0,-977.08 6,-971.08 12,-971.08 12,-971.08 288.24,-971.08 288.24,-971.08 294.24,-971.08 300.24,-977.08 300.24,-983.08 300.24,-983.08 300.24,-1031.08 300.24,-1031.08 300.24,-1037.08 294.24,-1043.08 288.24,-1043.08"/>
<text xml:space="preserve" text-anchor="middle" x="150.12" y="-1002.73" font-family="Architects Daughter" font-size="18.00">ClientA</text>
</g>
<!-- n1 -->
<g id="node2" class="node">
<title>n1</title>
<path fill="#ffffff" stroke="#58a978" d="M792.24,-1043.08C792.24,-1043.08 516,-1043.08 516,-1043.08 510,-1043.08 504,-1037.08 504,-1031.08 504,-1031.08 504,-983.08 504,-983.08 504,-977.08 510,-971.08 516,-971.08 516,-971.08 792.24,-971.08 792.24,-971.08 798.24,-971.08 804.24,-977.08 804.24,-983.08 804.24,-983.08 804.24,-1031.08 804.24,-1031.08 804.24,-1037.08 798.24,-1043.08 792.24,-1043.08"/>
<text xml:space="preserve" text-anchor="middle" x="654.12" y="-1002.73" font-family="Architects Daughter" font-size="18.00">ClientB</text>
</g>
<!-- n2 -->
<g id="node3" class="node">
<title>n2</title>
<path fill="#ffffff" stroke="#d6a441" d="M1296.24,-1043.08C1296.24,-1043.08 1020,-1043.08 1020,-1043.08 1014,-1043.08 1008,-1037.08 1008,-1031.08 1008,-1031.08 1008,-983.08 1008,-983.08 1008,-977.08 1014,-971.08 1020,-971.08 1020,-971.08 1296.24,-971.08 1296.24,-971.08 1302.24,-971.08 1308.24,-977.08 1308.24,-983.08 1308.24,-983.08 1308.24,-1031.08 1308.24,-1031.08 1308.24,-1037.08 1302.24,-1043.08 1296.24,-1043.08"/>
<text xml:space="preserve" text-anchor="middle" x="1158.12" y="-1002.73" font-family="Architects Daughter" font-size="18.00">Redis</text>
</g>
<!-- r3p1 -->
<!-- r3p2 -->
<!-- r5p1 -->
<!-- r5p2 -->
<!-- r8p1 -->
<!-- r8p2 -->
<!-- r11p1 -->
<!-- r11p2 -->
</g>
</svg>
