<?xml version="1.0" encoding="UTF-8" standalone="no"?>
<!DOCTYPE svg PUBLIC "-//W3C//DTD SVG 1.1//EN"
 "http://www.w3.org/Graphics/SVG/1.1/DTD/svg11.dtd">
<!-- Generated by graphviz version 15.0.0 (20260523.1842)
 -->
<!-- Title: leader&#45;etcd&#45;architecture&#45;01 Pages: 1 -->
<svg width="1975pt" height="422pt"
 viewBox="0.00 0.00 1975.00 422.00" xmlns="http://www.w3.org/2000/svg" xmlns:xlink="http://www.w3.org/1999/xlink">
<g id="graph0" class="graph" transform="scale(1 1) rotate(0) translate(4 418)">
<title>leader&#45;etcd&#45;architecture&#45;01</title>
<!-- caller -->
<g id="node1" class="node">
<title>caller</title>
<path fill="#f8fafc" stroke="#94a3b8" d="M139,-340C139,-340 12,-340 12,-340 6,-340 0,-334 0,-328 0,-328 0,-316 0,-316 0,-310 6,-304 12,-304 12,-304 139,-304 139,-304 145,-304 151,-310 151,-316 151,-316 151,-328 151,-328 151,-334 145,-340 139,-340"/>
<text xml:space="preserve" text-anchor="middle" x="75.5" y="-316.57" font-family="Comic Mono" font-size="14.00">Application Caller</text>
</g>
<!-- single -->
<g id="node5" class="node">
<title>single</title>
<path fill="#f8fafc" stroke="#94a3b8" d="M407,-382C407,-382 250,-382 250,-382 244,-382 238,-376 238,-370 238,-370 238,-358 238,-358 238,-352 244,-346 250,-346 250,-346 407,-346 407,-346 413,-346 419,-352 419,-358 419,-358 419,-370 419,-370 419,-376 413,-382 407,-382"/>
<text xml:space="preserve" text-anchor="middle" x="328.5" y="-358.57" font-family="Comic Mono" font-size="14.00">Single Leader Electors</text>
</g>
<!-- caller&#45;&gt;single -->
<g id="edge1" class="edge">
<title>caller&#45;&gt;single</title>
<path fill="none" stroke="#758297" d="M151.37,-324C196.09,-324 244,-324 244,-324 244,-324 244,-334.36 244,-334.36"/>
<polygon fill="#758297" stroke="#758297" points="240.5,-334.36 244,-344.36 247.5,-334.36 240.5,-334.36"/>
<text xml:space="preserve" text-anchor="middle" x="194.5" y="-361.5" font-family="Comic Mono" font-size="10.00">call</text>
</g>
<!-- group -->
<g id="node6" class="node">
<title>group</title>
<path fill="#f8fafc" stroke="#94a3b8" d="M395.75,-299C395.75,-299 261.25,-299 261.25,-299 255.25,-299 249.25,-293 249.25,-287 249.25,-287 249.25,-275 249.25,-275 249.25,-269 255.25,-263 261.25,-263 261.25,-263 395.75,-263 395.75,-263 401.75,-263 407.75,-269 407.75,-275 407.75,-275 407.75,-287 407.75,-287 407.75,-293 401.75,-299 395.75,-299"/>
<text xml:space="preserve" text-anchor="middle" x="328.5" y="-275.57" font-family="Comic Mono" font-size="14.00">Group Slot Electors</text>
</g>
<!-- caller&#45;&gt;group -->
<g id="edge2" class="edge">
<title>caller&#45;&gt;group</title>
<path fill="none" stroke="#758297" d="M75,-303.9C75,-292.91 75,-281 75,-281 75,-281 237.47,-281 237.47,-281"/>
<polygon fill="#758297" stroke="#758297" points="237.47,-284.5 247.47,-281 237.47,-277.5 237.47,-284.5"/>
<text xml:space="preserve" text-anchor="middle" x="194.5" y="-292.5" font-family="Comic Mono" font-size="10.00">call</text>
</g>
<!-- jetcd -->
<g id="node2" class="node">
<title>jetcd</title>
<path fill="#f8fafc" stroke="#94a3b8" d="M713.25,-119C713.25,-119 533.75,-119 533.75,-119 527.75,-119 521.75,-113 521.75,-107 521.75,-107 521.75,-95 521.75,-95 521.75,-89 527.75,-83 533.75,-83 533.75,-83 713.25,-83 713.25,-83 719.25,-83 725.25,-89 725.25,-95 725.25,-95 725.25,-107 725.25,-107 725.25,-113 719.25,-119 713.25,-119"/>
<text xml:space="preserve" text-anchor="middle" x="623.5" y="-95.58" font-family="Comic Mono" font-size="14.00">Caller&#45;Owned jetcd Client</text>
</g>
<!-- client -->
<g id="node7" class="node">
<title>client</title>
<path fill="#f8fafc" stroke="#94a3b8" d="M952.75,-231C952.75,-231 855.75,-231 855.75,-231 849.75,-231 843.75,-225 843.75,-219 843.75,-219 843.75,-207 843.75,-207 843.75,-201 849.75,-195 855.75,-195 855.75,-195 952.75,-195 952.75,-195 958.75,-195 964.75,-201 964.75,-207 964.75,-207 964.75,-219 964.75,-219 964.75,-225 958.75,-231 952.75,-231"/>
<text xml:space="preserve" text-anchor="middle" x="904.25" y="-207.57" font-family="Comic Mono" font-size="14.00">EtcdLockClient</text>
</g>
<!-- jetcd&#45;&gt;client -->
<g id="edge3" class="edge">
<title>jetcd&#45;&gt;client</title>
<path fill="none" stroke="#758297" d="M725.71,-115.5C798.69,-115.5 884,-115.5 884,-115.5 884,-115.5 884,-183.15 884,-183.15"/>
<polygon fill="#758297" stroke="#758297" points="880.5,-183.15 884,-193.15 887.5,-183.15 880.5,-183.15"/>
<text xml:space="preserve" text-anchor="middle" x="784.5" y="-103.5" font-family="Comic Mono" font-size="10.00">dependency</text>
</g>
<!-- options -->
<g id="node3" class="node">
<title>options</title>
<path fill="#f8fafc" stroke="#94a3b8" d="M664.5,-36C664.5,-36 582.5,-36 582.5,-36 576.5,-36 570.5,-30 570.5,-24 570.5,-24 570.5,-12 570.5,-12 570.5,-6 576.5,0 582.5,0 582.5,0 664.5,0 664.5,0 670.5,0 676.5,-6 676.5,-12 676.5,-12 676.5,-24 676.5,-24 676.5,-30 670.5,-36 664.5,-36"/>
<text xml:space="preserve" text-anchor="middle" x="623.5" y="-12.57" font-family="Comic Mono" font-size="14.00">Etcd Options</text>
</g>
<!-- options&#45;&gt;client -->
<g id="edge4" class="edge">
<title>options&#45;&gt;client</title>
<path fill="none" stroke="#758297" d="M676.88,-18C763.23,-18 924,-18 924,-18 924,-18 924,-183.14 924,-183.14"/>
<polygon fill="#758297" stroke="#758297" points="920.5,-183.14 924,-193.14 927.5,-183.14 920.5,-183.14"/>
<text xml:space="preserve" text-anchor="middle" x="784.5" y="-20.5" font-family="Comic Mono" font-size="10.00">dependency</text>
</g>
<!-- publisher -->
<g id="node4" class="node">
<title>publisher</title>
<path fill="#f8fafc" stroke="#94a3b8" d="M1659.25,-148C1659.25,-148 1554.75,-148 1554.75,-148 1548.75,-148 1542.75,-142 1542.75,-136 1542.75,-136 1542.75,-124 1542.75,-124 1542.75,-118 1548.75,-112 1554.75,-112 1554.75,-112 1659.25,-112 1659.25,-112 1665.25,-112 1671.25,-118 1671.25,-124 1671.25,-124 1671.25,-136 1671.25,-136 1671.25,-142 1665.25,-148 1659.25,-148"/>
<text xml:space="preserve" text-anchor="middle" x="1607" y="-124.58" font-family="Comic Mono" font-size="14.00">Event Publisher</text>
</g>
<!-- watch -->
<g id="node12" class="node">
<title>watch</title>
<path fill="#f8fafc" stroke="#94a3b8" d="M1955,-180C1955,-180 1820.5,-180 1820.5,-180 1814.5,-180 1808.5,-174 1808.5,-168 1808.5,-168 1808.5,-156 1808.5,-156 1808.5,-150 1814.5,-144 1820.5,-144 1820.5,-144 1955,-144 1955,-144 1961,-144 1967,-150 1967,-156 1967,-156 1967,-168 1967,-168 1967,-174 1961,-180 1955,-180"/>
<text xml:space="preserve" text-anchor="middle" x="1887.75" y="-156.57" font-family="Comic Mono" font-size="14.00">Ownership Key Watch</text>
</g>
<!-- publisher&#45;&gt;watch -->
<g id="edge5" class="edge">
<title>publisher&#45;&gt;watch</title>
<path fill="none" stroke="#758297" d="M1607,-148.32C1607,-153.94 1607,-158.67 1607,-158.67 1607,-158.67 1796.54,-158.67 1796.54,-158.67"/>
<polygon fill="#758297" stroke="#758297" points="1796.54,-162.17 1806.54,-158.67 1796.54,-155.17 1796.54,-162.17"/>
<text xml:space="preserve" text-anchor="middle" x="1749.25" y="-132.5" font-family="Comic Mono" font-size="10.00">dependency</text>
</g>
<!-- single&#45;&gt;client -->
<g id="edge6" class="edge">
<title>single&#45;&gt;client</title>
<path fill="none" stroke="#758297" d="M411,-345.79C411,-305.62 411,-213 411,-213 411,-213 831.76,-213 831.76,-213"/>
<polygon fill="#758297" stroke="#758297" points="831.76,-216.5 841.76,-213 831.76,-209.5 831.76,-216.5"/>
<text xml:space="preserve" text-anchor="middle" x="623.5" y="-404.5" font-family="Comic Mono" font-size="10.00">call</text>
</g>
<!-- handle -->
<g id="node8" class="node">
<title>handle</title>
<path fill="#f8fafc" stroke="#94a3b8" d="M713.25,-308C713.25,-308 533.75,-308 533.75,-308 527.75,-308 521.75,-302 521.75,-296 521.75,-296 521.75,-284 521.75,-284 521.75,-278 527.75,-272 533.75,-272 533.75,-272 713.25,-272 713.25,-272 719.25,-272 725.25,-278 725.25,-284 725.25,-284 725.25,-296 725.25,-296 725.25,-302 719.25,-308 713.25,-308"/>
<text xml:space="preserve" text-anchor="middle" x="623.5" y="-284.57" font-family="Comic Mono" font-size="14.00">Lease Handle And Extender</text>
</g>
<!-- single&#45;&gt;handle -->
<g id="edge8" class="edge">
<title>single&#45;&gt;handle</title>
<path fill="none" stroke="#758297" d="M415,-345.71C415,-323.79 415,-290 415,-290 415,-290 509.87,-290 509.87,-290"/>
<polygon fill="#758297" stroke="#758297" points="509.87,-293.5 519.87,-290 509.87,-286.5 509.87,-293.5"/>
<text xml:space="preserve" text-anchor="middle" x="470.38" y="-359.5" font-family="Comic Mono" font-size="10.00">success</text>
</g>
<!-- group&#45;&gt;client -->
<g id="edge7" class="edge">
<title>group&#45;&gt;client</title>
<path fill="none" stroke="#758297" d="M408.09,-267.5C561.69,-267.5 884,-267.5 884,-267.5 884,-267.5 884,-242.96 884,-242.96"/>
<polygon fill="#758297" stroke="#758297" points="887.5,-242.96 884,-232.96 880.5,-242.96 887.5,-242.96"/>
<text xml:space="preserve" text-anchor="middle" x="623.5" y="-215.5" font-family="Comic Mono" font-size="10.00">call</text>
</g>
<!-- group&#45;&gt;handle -->
<g id="edge9" class="edge">
<title>group&#45;&gt;handle</title>
<path fill="none" stroke="#758297" d="M407.94,-281C407.94,-281 509.89,-281 509.89,-281"/>
<polygon fill="#758297" stroke="#758297" points="509.89,-284.5 519.89,-281 509.89,-277.5 509.89,-284.5"/>
<text xml:space="preserve" text-anchor="middle" x="470.38" y="-291.5" font-family="Comic Mono" font-size="10.00">success</text>
</g>
<!-- lease -->
<g id="node9" class="node">
<title>lease</title>
<path fill="#f8fafc" stroke="#94a3b8" d="M1162.25,-231C1162.25,-231 1095.25,-231 1095.25,-231 1089.25,-231 1083.25,-225 1083.25,-219 1083.25,-219 1083.25,-207 1083.25,-207 1083.25,-201 1089.25,-195 1095.25,-195 1095.25,-195 1162.25,-195 1162.25,-195 1168.25,-195 1174.25,-201 1174.25,-207 1174.25,-207 1174.25,-219 1174.25,-219 1174.25,-225 1168.25,-231 1162.25,-231"/>
<text xml:space="preserve" text-anchor="middle" x="1128.75" y="-207.57" font-family="Comic Mono" font-size="14.00">Etcd Lease</text>
</g>
<!-- client&#45;&gt;lease -->
<g id="edge11" class="edge">
<title>client&#45;&gt;lease</title>
<path fill="none" stroke="#758297" d="M965,-213C965,-213 1071.4,-213 1071.4,-213"/>
<polygon fill="#758297" stroke="#758297" points="1071.4,-216.5 1081.4,-213 1071.4,-209.5 1071.4,-216.5"/>
<text xml:space="preserve" text-anchor="middle" x="1024" y="-215.5" font-family="Comic Mono" font-size="10.00">dependency</text>
</g>
<!-- handle&#45;&gt;client -->
<g id="edge10" class="edge">
<title>handle&#45;&gt;client</title>
<path fill="none" stroke="#758297" d="M725.65,-290C812.77,-290 924,-290 924,-290 924,-290 924,-242.76 924,-242.76"/>
<polygon fill="#758297" stroke="#758297" points="927.5,-242.76 924,-232.76 920.5,-242.76 927.5,-242.76"/>
<text xml:space="preserve" text-anchor="middle" x="784.5" y="-292.5" font-family="Comic Mono" font-size="10.00">retry</text>
</g>
<!-- singleKey -->
<g id="node10" class="node">
<title>singleKey</title>
<path fill="#f8fafc" stroke="#94a3b8" d="M1393.5,-231C1393.5,-231 1289,-231 1289,-231 1283,-231 1277,-225 1277,-219 1277,-219 1277,-207 1277,-207 1277,-201 1283,-195 1289,-195 1289,-195 1393.5,-195 1393.5,-195 1399.5,-195 1405.5,-201 1405.5,-207 1405.5,-207 1405.5,-219 1405.5,-219 1405.5,-225 1399.5,-231 1393.5,-231"/>
<text xml:space="preserve" text-anchor="middle" x="1341.25" y="-207.57" font-family="Comic Mono" font-size="14.00">Single Lock Key</text>
</g>
<!-- lease&#45;&gt;singleKey -->
<g id="edge12" class="edge">
<title>lease&#45;&gt;singleKey</title>
<path fill="none" stroke="#758297" d="M1174.6,-213C1174.6,-213 1265.03,-213 1265.03,-213"/>
<polygon fill="#758297" stroke="#758297" points="1265.03,-216.5 1275.03,-213 1265.03,-209.5 1265.03,-216.5"/>
<text xml:space="preserve" text-anchor="middle" x="1225.62" y="-215.5" font-family="Comic Mono" font-size="10.00">success</text>
</g>
<!-- groupKeys -->
<g id="node11" class="node">
<title>groupKeys</title>
<path fill="#f8fafc" stroke="#94a3b8" d="M1678,-231C1678,-231 1536,-231 1536,-231 1530,-231 1524,-225 1524,-219 1524,-219 1524,-207 1524,-207 1524,-201 1530,-195 1536,-195 1536,-195 1678,-195 1678,-195 1684,-195 1690,-201 1690,-207 1690,-207 1690,-219 1690,-219 1690,-225 1684,-231 1678,-231"/>
<text xml:space="preserve" text-anchor="middle" x="1607" y="-207.57" font-family="Comic Mono" font-size="14.00">Group Slot Lock Keys</text>
</g>
<!-- singleKey&#45;&gt;groupKeys -->
<g id="edge13" class="edge">
<title>singleKey&#45;&gt;groupKeys</title>
<path fill="none" stroke="#758297" d="M1405.92,-213C1405.92,-213 1512.34,-213 1512.34,-213"/>
<polygon fill="#758297" stroke="#758297" points="1512.34,-216.5 1522.34,-213 1512.34,-209.5 1512.34,-216.5"/>
<text xml:space="preserve" text-anchor="middle" x="1464.75" y="-215.5" font-family="Comic Mono" font-size="10.00">contention</text>
</g>
<!-- groupKeys&#45;&gt;watch -->
<g id="edge14" class="edge">
<title>groupKeys&#45;&gt;watch</title>
<path fill="none" stroke="#758297" d="M1681,-194.73C1681,-182.77 1681,-169.33 1681,-169.33 1681,-169.33 1796.6,-169.33 1796.6,-169.33"/>
<polygon fill="#758297" stroke="#758297" points="1796.6,-172.83 1806.6,-169.33 1796.6,-165.83 1796.6,-172.83"/>
<text xml:space="preserve" text-anchor="middle" x="1749.25" y="-205.5" font-family="Comic Mono" font-size="10.00">release</text>
</g>
</g>
</svg>
