<svg xmlns="http://www.w3.org/2000/svg" width="1180" height="760" viewBox="0 0 1180 760" role="img" aria-labelledby="title desc">
  <title id="title">Redisson Group Lock Flow - Acquire, Release, Crash Recovery</title>
  <desc id="desc">Sequence diagram for normal Redisson group permit acquire and release plus crash recovery by permit TTL.</desc>
  <defs>
    <filter id="shadow" x="-20%" y="-20%" width="140%" height="150%">
      <feDropShadow dx="0" dy="5" stdDeviation="6" flood-color="#64748b" flood-opacity="0.13"/>
    </filter>
    <marker viewBox="0 0 10 10" markerUnits="userSpaceOnUse" id="arrowBlue" markerWidth="16" markerHeight="16" refX="9" refY="5" orient="auto"><path d="M 0 0 L 10 5 L 0 10 Z" fill="#3f7d9c" stroke="#3f7d9c" stroke-width="0" stroke-dasharray="none" style="stroke-dasharray:none!important"/></marker>
    <marker viewBox="0 0 10 10" markerUnits="userSpaceOnUse" id="arrowGreen" markerWidth="16" markerHeight="16" refX="9" refY="5" orient="auto"><path d="M 0 0 L 10 5 L 0 10 Z" fill="#6e8f4f" stroke="#6e8f4f" stroke-width="0" stroke-dasharray="none" style="stroke-dasharray:none!important"/></marker>
    <marker viewBox="0 0 10 10" markerUnits="userSpaceOnUse" id="arrowAmber" markerWidth="16" markerHeight="16" refX="9" refY="5" orient="auto"><path d="M 0 0 L 10 5 L 0 10 Z" fill="#9b7d54" stroke="#9b7d54" stroke-width="0" stroke-dasharray="none" style="stroke-dasharray:none!important"/></marker>
    <marker viewBox="0 0 10 10" markerUnits="userSpaceOnUse" id="arrowRed" markerWidth="16" markerHeight="16" refX="9" refY="5" orient="auto"><path d="M 0 0 L 10 5 L 0 10 Z" fill="#b86868" stroke="#b86868" stroke-width="0" stroke-dasharray="none" style="stroke-dasharray:none!important"/></marker>
    <marker viewBox="0 0 10 10" markerUnits="userSpaceOnUse" id="arrowPurple" markerWidth="16" markerHeight="16" refX="9" refY="5" orient="auto"><path d="M 0 0 L 10 5 L 0 10 Z" fill="#7c5aa6" stroke="#7c5aa6" stroke-width="0" stroke-dasharray="none" style="stroke-dasharray:none!important"/></marker>
  </defs>
  <style>
    text { font-family: "Comic Mono"; fill: #36464f; }
    .title { font-family: "Architects Daughter"; font-size: 42px; fill: #263238; }
    .subtitle { font-family: "Comic Mono"; font-size: 17px; fill: #36464f; }
    .participant { font-family: "Architects Daughter"; font-size: 20px; fill: #1f3138; }
    .label { font-family: "Comic Mono"; font-size: 12.5px; fill: #36464f; }
    .num { font-family: "Comic Mono"; font-size: 12px; fill: #ffffff; font-weight: 700; }
    .small { font-family: "Comic Mono"; font-size: 12px; fill: #60727d; }
    .frame { fill: #ffffff; stroke: #41545d; stroke-width: 2.2; filter: none; }
    .header { fill: #ffffff; stroke: #546e7a; stroke-width: 2.2; }
    .life { stroke: #9aaab1; stroke-width: 2; stroke-dasharray: 7 8; }
    .callBlue, .callGreen, .callAmber, .callRed, .blue, .purple, .green, .amber { fill: none; stroke-width: 2.6; stroke-linecap: round; stroke-linejoin: round; }
    .callBlue, .blue { stroke: #3f7d9c; marker-end: url(#arrowBlue); }
    .callGreen, .green { stroke: #6e8f4f; marker-end: url(#arrowGreen); }
    .callAmber, .amber { stroke: #9b7d54; marker-end: url(#arrowAmber); }
    .callRed { stroke: #b86868; marker-end: url(#arrowRed); }
    .purple { stroke: #7c5aa6; marker-end: url(#arrowPurple); }
    .ret { stroke-dasharray: 10 8; }
    .badgeBlue { fill: #3f7d9c; }
    .badgeGreen { fill: #6e8f4f; }
    .badgeAmber { fill: #9b7d54; }
    .badgeRed { fill: #b86868; }
    .badgePurple { fill: #7c5aa6; }
    .pill { fill: #ffffff; stroke: #c8d7df; stroke-width: 1.5; }
    .alt { fill: none; stroke: #78909c; stroke-width: 2.4; stroke-dasharray: 12 8; }
    .altLabel { fill: #fbfcf8; stroke: #c8d7df; stroke-width: 1.5; }
    .footer { font-family: "Comic Mono"; font-size: 13px; fill: #60727d; }
  </style>
  <rect width="1180" height="760" fill="#fbfcf8"/>
  <rect class="frame" x="34" y="30" width="1112" height="690" rx="18"/>
  <text class="title" x="590" y="76" text-anchor="middle">Redisson Group Lock Flow</text>
  <text class="subtitle" x="590" y="103" text-anchor="middle">Normal acquire/release and crash recovery through RPermitExpirableSemaphore permit TTL.</text>

  <g transform="translate(86 134)">
    <rect class="header" x="0" y="0" width="150" height="62" rx="9"/>
    <text class="participant" x="75" y="37" text-anchor="middle">Caller</text>
  </g>
  <g transform="translate(312 134)">
    <rect class="header" x="0" y="0" width="198" height="62" rx="9"/>
    <text class="participant" x="99" y="30" text-anchor="middle">RedissonLeader</text>
    <text class="participant" x="99" y="48" text-anchor="middle">GroupElector</text>
  </g>
  <g transform="translate(610 134)">
    <rect class="header" x="0" y="0" width="230" height="62" rx="9"/>
    <text class="participant" x="115" y="30" text-anchor="middle">RPermitExpirableSemaphore</text>
    <text class="small" x="115" y="48" text-anchor="middle">lg:{lockName}</text>
  </g>
  <g transform="translate(934 134)">
    <rect class="header" x="0" y="0" width="150" height="62" rx="9"/>
    <text class="participant" x="75" y="37" text-anchor="middle">Action</text>
  </g>

  <line class="life" x1="161" y1="196" x2="161" y2="635"/>
  <line class="life" x1="411" y1="196" x2="411" y2="635"/>
  <line class="life" x1="725" y1="196" x2="725" y2="635"/>
  <line class="life" x1="1009" y1="196" x2="1009" y2="635"/>

  <rect class="alt" x="70" y="224" width="1040" height="312" rx="10"/>
  <rect class="altLabel" x="88" y="211" width="230" height="28" rx="6"/>
  <text class="small" x="203" y="230" text-anchor="middle">normal acquire / release</text>

  <line class="callBlue" x1="161" y1="258" x2="405" y2="258"/>
  <rect class="pill" x="206" y="234" width="154" height="28" rx="14"/>
  <circle class="badgeBlue" cx="222" cy="248" r="11"/><text class="num" x="222" y="252" text-anchor="middle">1</text>
  <text class="label" x="242" y="252">runIfLeader()</text>

  <line class="callBlue" x1="411" y1="316" x2="719" y2="316"/>
  <rect class="pill" x="478" y="292" width="174" height="28" rx="14"/>
  <circle class="badgeBlue" cx="494" cy="306" r="11"/><text class="num" x="494" y="310" text-anchor="middle">2</text>
  <text class="label" x="514" y="310">trySetPermits(max)</text>

  <line class="callGreen" x1="411" y1="374" x2="719" y2="374"/>
  <rect class="pill" x="476" y="350" width="178" height="28" rx="14"/>
  <circle class="badgeGreen" cx="492" cy="364" r="11"/><text class="num" x="492" y="368" text-anchor="middle">3</text>
  <text class="label" x="512" y="368">tryAcquire(wait, lease)</text>

  <line class="callGreen ret" x1="725" y1="420" x2="417" y2="420"/>
  <rect class="pill" x="529" y="396" width="112" height="28" rx="14"/>
  <circle class="badgeGreen" cx="545" cy="410" r="11"/><text class="num" x="545" y="414" text-anchor="middle">4</text>
  <text class="label" x="565" y="414">permitId</text>

  <line class="callBlue" x1="411" y1="462" x2="1003" y2="462"/>
  <rect class="pill" x="615" y="438" width="184" height="28" rx="14"/>
  <circle class="badgeBlue" cx="631" cy="452" r="11"/><text class="num" x="631" y="456" text-anchor="middle">5</text>
  <text class="label" x="651" y="456">run action with handle</text>

  <line class="callGreen" x1="411" y1="520" x2="719" y2="520"/>
  <rect class="pill" x="515" y="496" width="94" height="28" rx="14"/>
  <circle class="badgeGreen" cx="531" cy="510" r="11"/><text class="num" x="531" y="514" text-anchor="middle">6</text>
  <text class="label" x="551" y="514">release()</text>

  <rect class="alt" x="70" y="558" width="1040" height="78" rx="10"/>
  <rect class="altLabel" x="88" y="545" width="214" height="28" rx="6"/>
  <text class="small" x="195" y="564" text-anchor="middle">crash recovery path</text>
  <line class="callRed" x1="1009" y1="584" x2="731" y2="584"/>
  <rect class="pill" x="780" y="560" width="184" height="28" rx="14"/>
  <circle class="badgeRed" cx="796" cy="574" r="11"/><text class="num" x="796" y="578" text-anchor="middle">7</text>
  <text class="label" x="816" y="578">holder dies: no release</text>
  <line class="callAmber ret" x1="725" y1="616" x2="417" y2="616"/>
  <rect class="pill" x="493" y="592" width="156" height="28" rx="14"/>
  <circle class="badgeAmber" cx="509" cy="606" r="11"/><text class="num" x="509" y="610" text-anchor="middle">8</text>
  <text class="label" x="529" y="610">TTL expires, slot free</text>

  <rect fill="#ffffff" stroke="#c8d7df" x="84" y="662" width="1012" height="34" rx="10"/>
  <text class="footer" x="590" y="684" text-anchor="middle">github.com/bluetape4k/bluetape4k-leader / leader-redis-redisson</text>
</svg>
