<?xml version="1.0" encoding="UTF-8" standalone="no"?>
<!DOCTYPE svg PUBLIC "-//W3C//DTD SVG 1.1//EN"
 "http://www.w3.org/Graphics/SVG/1.1/DTD/svg11.dtd">
<!-- Generated by graphviz version 15.0.0 (20260523.1842)
 -->
<!-- Title: leader&#45;zookeeper&#45;class&#45;01 Pages: 1 -->
<svg width="9974pt" height="500pt"
 viewBox="0.00 0.00 9974.00 500.00" xmlns="http://www.w3.org/2000/svg" xmlns:xlink="http://www.w3.org/1999/xlink">
<g id="graph0" class="graph" transform="scale(1 1) rotate(0) translate(4 496)">
<title>leader&#45;zookeeper&#45;class&#45;01</title>
<!-- leaderContract -->
<g id="node1" class="node">
<title>leaderContract</title>
<path fill="#f8fafc" stroke="#94a3b8" d="M3533.75,-264C3533.75,-264 2611.75,-264 2611.75,-264 2605.75,-264 2599.75,-258 2599.75,-252 2599.75,-252 2599.75,-240 2599.75,-240 2599.75,-234 2605.75,-228 2611.75,-228 2611.75,-228 3533.75,-228 3533.75,-228 3539.75,-228 3545.75,-234 3545.75,-240 3545.75,-240 3545.75,-252 3545.75,-252 3545.75,-258 3539.75,-264 3533.75,-264"/>
<text xml:space="preserve" text-anchor="middle" x="3072.75" y="-240.57" font-family="Comic Mono" font-size="14.00">&lt;&lt;core interface&gt;&gt;\nLeaderElector\n+ runIfLeader(lockName): T?\n+ runAsyncIfLeader(lockName)\n+ state(lockName): LeaderState</text>
</g>
<!-- suspendContract -->
<g id="node2" class="node">
<title>suspendContract</title>
<path fill="#f8fafc" stroke="#94a3b8" d="M1061.5,-264C1061.5,-264 12,-264 12,-264 6,-264 0,-258 0,-252 0,-252 0,-240 0,-240 0,-234 6,-228 12,-228 12,-228 1061.5,-228 1061.5,-228 1067.5,-228 1073.5,-234 1073.5,-240 1073.5,-240 1073.5,-252 1073.5,-252 1073.5,-258 1067.5,-264 1061.5,-264"/>
<text xml:space="preserve" text-anchor="middle" x="536.75" y="-240.57" font-family="Comic Mono" font-size="14.00">&lt;&lt;core suspend interface&gt;&gt;\nSuspendLeaderElector\n+ suspend runIfLeader(lockName)\n+ runIfLeaderResultSuspend(slot)\ncoroutine context handle</text>
</g>
<!-- groupContract -->
<g id="node3" class="node">
<title>groupContract</title>
<path fill="#f8fafc" stroke="#94a3b8" d="M7396.75,-264C7396.75,-264 6474.75,-264 6474.75,-264 6468.75,-264 6462.75,-258 6462.75,-252 6462.75,-252 6462.75,-240 6462.75,-240 6462.75,-234 6468.75,-228 6474.75,-228 6474.75,-228 7396.75,-228 7396.75,-228 7402.75,-228 7408.75,-234 7408.75,-240 7408.75,-240 7408.75,-252 7408.75,-252 7408.75,-258 7402.75,-264 7396.75,-264"/>
<text xml:space="preserve" text-anchor="middle" x="6935.75" y="-240.57" font-family="Comic Mono" font-size="14.00">&lt;&lt;core group interface&gt;&gt;\nLeaderGroupElector\n+ maxLeaders: Int\n+ runIfLeader(lockName): T?\n+ activeCount / availableSlots</text>
</g>
<!-- suspendGroupContract -->
<g id="node4" class="node">
<title>suspendGroupContract</title>
<path fill="#f8fafc" stroke="#94a3b8" d="M9824.25,-264C9824.25,-264 8797.25,-264 8797.25,-264 8791.25,-264 8785.25,-258 8785.25,-252 8785.25,-252 8785.25,-240 8785.25,-240 8785.25,-234 8791.25,-228 8797.25,-228 8797.25,-228 9824.25,-228 9824.25,-228 9830.25,-228 9836.25,-234 9836.25,-240 9836.25,-240 9836.25,-252 9836.25,-252 9836.25,-258 9830.25,-264 9824.25,-264"/>
<text xml:space="preserve" text-anchor="middle" x="9310.75" y="-240.57" font-family="Comic Mono" font-size="14.00">&lt;&lt;core suspend group&gt;&gt;\nSuspendLeaderGroupElector\n+ maxLeaders: Int\n+ suspend runIfLeader(lockName)\n+ state(lockName): LeaderGroupState</text>
</g>
<!-- zkLeader -->
<g id="node5" class="node">
<title>zkLeader</title>
<path fill="#f8fafc" stroke="#94a3b8" d="M4537.25,-150C4537.25,-150 3330.25,-150 3330.25,-150 3324.25,-150 3318.25,-144 3318.25,-138 3318.25,-138 3318.25,-126 3318.25,-126 3318.25,-120 3324.25,-114 3330.25,-114 3330.25,-114 4537.25,-114 4537.25,-114 4543.25,-114 4549.25,-120 4549.25,-126 4549.25,-126 4549.25,-138 4549.25,-138 4549.25,-144 4543.25,-150 4537.25,-150"/>
<text xml:space="preserve" text-anchor="middle" x="3933.75" y="-126.58" font-family="Comic Mono" font-size="14.00">&lt;&lt;blocking + async implementation&gt;&gt;\nZooKeeperLeaderElector\nCuratorFramework client\nmutex recipe per lock path\nacquire(waitTimeMs)\nwatchdog disabled by design</text>
</g>
<!-- zkLeader&#45;&gt;leaderContract -->
<g id="edge1" class="edge">
<title>zkLeader&#45;&gt;leaderContract</title>
<path fill="none" stroke="#4f83bf" d="M3432,-150.32C3432,-150.32 3432,-218.22 3432,-218.22"/>
<polygon fill="#4f83bf" stroke="#4f83bf" points="3429.2,-218.22 3432,-226.22 3434.8,-218.22 3429.2,-218.22"/>
<text xml:space="preserve" text-anchor="middle" x="3091.12" y="-185.5" font-family="Comic Mono" font-size="10.00">inherit</text>
</g>
<!-- singleDelegates -->
<g id="node10" class="node">
<title>singleDelegates</title>
<path fill="#f8fafc" stroke="#94a3b8" d="M5087.75,-264C5087.75,-264 3745.75,-264 3745.75,-264 3739.75,-264 3733.75,-258 3733.75,-252 3733.75,-252 3733.75,-240 3733.75,-240 3733.75,-234 3739.75,-228 3745.75,-228 3745.75,-228 5087.75,-228 5087.75,-228 5093.75,-228 5099.75,-234 5099.75,-240 5099.75,-240 5099.75,-252 5099.75,-252 5099.75,-258 5093.75,-264 5087.75,-264"/>
<text xml:space="preserve" text-anchor="middle" x="4416.75" y="-240.57" font-family="Comic Mono" font-size="14.00">&lt;&lt;mutex liveness delegates&gt;&gt;\nSingle Extend Delegates\nZooKeeperLockExtendDelegate\nZooKeeperSuspendLockExtendDelegate\nisAcquiredInThisProcess check\nreturns Extended(Instant.MAX)</text>
</g>
<!-- zkLeader&#45;&gt;singleDelegates -->
<g id="edge9" class="edge">
<title>zkLeader&#45;&gt;singleDelegates</title>
<path fill="none" stroke="#b9851b" d="M4141.5,-150.32C4141.5,-150.32 4141.5,-218.22 4141.5,-218.22"/>
<polygon fill="#b9851b" stroke="#b9851b" points="4138.7,-218.22 4141.5,-226.22 4144.3,-218.22 4138.7,-218.22"/>
<text xml:space="preserve" text-anchor="middle" x="4308.12" y="-185.5" font-family="Comic Mono" font-size="10.00">handle delegate</text>
</g>
<!-- mutex -->
<g id="node12" class="node">
<title>mutex</title>
<path fill="#f8fafc" stroke="#94a3b8" d="M4982.75,-378C4982.75,-378 3850.75,-378 3850.75,-378 3844.75,-378 3838.75,-372 3838.75,-366 3838.75,-366 3838.75,-354 3838.75,-354 3838.75,-348 3844.75,-342 3850.75,-342 3850.75,-342 4982.75,-342 4982.75,-342 4988.75,-342 4994.75,-348 4994.75,-354 4994.75,-354 4994.75,-366 4994.75,-366 4994.75,-372 4988.75,-378 4982.75,-378"/>
<text xml:space="preserve" text-anchor="middle" x="4416.75" y="-354.57" font-family="Comic Mono" font-size="14.00">&lt;&lt;single lock primitive&gt;&gt;\nCurator Mutex Recipe\npath from ZooKeeperPaths\nacquire(wait, MILLISECONDS)\nrelease in finally block\nephemeral recipe nodes</text>
</g>
<!-- zkLeader&#45;&gt;mutex -->
<g id="edge15" class="edge">
<title>zkLeader&#45;&gt;mutex</title>
<path fill="none" stroke="#b9851b" d="M3639.75,-150.17C3639.75,-203.19 3639.75,-354 3639.75,-354 3639.75,-354 3828.82,-354 3828.82,-354"/>
<polygon fill="#b9851b" stroke="#b9851b" points="3828.82,-356.8 3836.82,-354 3828.82,-351.2 3828.82,-356.8"/>
<text xml:space="preserve" text-anchor="middle" x="3666.88" y="-242.5" font-family="Comic Mono" font-size="10.00">local</text>
</g>
<!-- zkSuspend -->
<g id="node6" class="node">
<title>zkSuspend</title>
<path fill="#f8fafc" stroke="#94a3b8" d="M3010.5,-150C3010.5,-150 1691,-150 1691,-150 1685,-150 1679,-144 1679,-138 1679,-138 1679,-126 1679,-126 1679,-120 1685,-114 1691,-114 1691,-114 3010.5,-114 3010.5,-114 3016.5,-114 3022.5,-120 3022.5,-126 3022.5,-126 3022.5,-138 3022.5,-138 3022.5,-144 3016.5,-150 3010.5,-150"/>
<text xml:space="preserve" text-anchor="middle" x="2350.75" y="-126.58" font-family="Comic Mono" font-size="14.00">&lt;&lt;coroutine implementation&gt;&gt;\nZooKeeperSuspendLeaderElector\nsingle&#45;thread owner dispatcher\nblocking acquire/release bridge\nNonCancellable cleanup\ncloses dispatcher after run</text>
</g>
<!-- zkSuspend&#45;&gt;suspendContract -->
<g id="edge2" class="edge">
<title>zkSuspend&#45;&gt;suspendContract</title>
<path fill="none" stroke="#4f83bf" d="M1678.51,-132C1382.41,-132 1100.5,-132 1100.5,-132 1100.5,-132 1100.5,-246 1100.5,-246 1100.5,-246 1083.2,-246 1083.2,-246"/>
<polygon fill="#4f83bf" stroke="#4f83bf" points="1083.2,-243.2 1075.2,-246 1083.2,-248.8 1083.2,-243.2"/>
<text xml:space="preserve" text-anchor="middle" x="555.12" y="-185.5" font-family="Comic Mono" font-size="10.00">inherit</text>
</g>
<!-- zkSuspend&#45;&gt;singleDelegates -->
<g id="edge10" class="edge">
<title>zkSuspend&#45;&gt;singleDelegates</title>
<path fill="none" stroke="#b9851b" d="M2586.31,-150.3C2586.31,-194.41 2586.31,-303 2586.31,-303 2586.31,-303 3786.25,-303 3786.25,-303 3786.25,-303 3786.25,-273.86 3786.25,-273.86"/>
<polygon fill="#b9851b" stroke="#b9851b" points="3789.05,-273.86 3786.25,-265.86 3783.45,-273.86 3789.05,-273.86"/>
<text xml:space="preserve" text-anchor="middle" x="2697.75" y="-185.5" font-family="Comic Mono" font-size="10.00">suspend delegate</text>
</g>
<!-- ownerThread -->
<g id="node14" class="node">
<title>ownerThread</title>
<path fill="#f8fafc" stroke="#94a3b8" d="M2534,-264C2534,-264 1139.5,-264 1139.5,-264 1133.5,-264 1127.5,-258 1127.5,-252 1127.5,-252 1127.5,-240 1127.5,-240 1127.5,-234 1133.5,-228 1139.5,-228 1139.5,-228 2534,-228 2534,-228 2540,-228 2546,-234 2546,-240 2546,-240 2546,-252 2546,-252 2546,-258 2540,-264 2534,-264"/>
<text xml:space="preserve" text-anchor="middle" x="1836.75" y="-240.57" font-family="Comic Mono" font-size="14.00">&lt;&lt;Curator thread ownership&gt;&gt;\nCall&#45;Scoped Owner Thread\nnew single&#45;thread dispatcher\ndaemon zookeeper&#45;suspend&#45;leader&#45;*\nacquire/release same owner thread\ndispatcher closed after cleanup</text>
</g>
<!-- zkSuspend&#45;&gt;ownerThread -->
<g id="edge18" class="edge">
<title>zkSuspend&#45;&gt;ownerThread</title>
<path fill="none" stroke="#758297" d="M2112.5,-150.32C2112.5,-150.32 2112.5,-218.22 2112.5,-218.22"/>
<polygon fill="#758297" stroke="#758297" points="2109.7,-218.22 2112.5,-226.22 2115.3,-218.22 2109.7,-218.22"/>
<text xml:space="preserve" text-anchor="middle" x="1899.25" y="-185.5" font-family="Comic Mono" font-size="10.00">owner thread</text>
</g>
<!-- zkGroup -->
<g id="node7" class="node">
<title>zkGroup</title>
<path fill="#f8fafc" stroke="#94a3b8" d="M7580.5,-150C7580.5,-150 6231,-150 6231,-150 6225,-150 6219,-144 6219,-138 6219,-138 6219,-126 6219,-126 6219,-120 6225,-114 6231,-114 6231,-114 7580.5,-114 7580.5,-114 7586.5,-114 7592.5,-120 7592.5,-126 7592.5,-126 7592.5,-138 7592.5,-138 7592.5,-144 7586.5,-150 7580.5,-150"/>
<text xml:space="preserve" text-anchor="middle" x="6905.75" y="-126.58" font-family="Comic Mono" font-size="14.00">&lt;&lt;semaphore group implementation&gt;&gt;\nZooKeeperLeaderGroupElector\nCurator semaphore recipe\nacquire Lease within waitTime\nparticipantNodes activeCount\nlease.nodeName becomes slotId</text>
</g>
<!-- zkGroup&#45;&gt;groupContract -->
<g id="edge3" class="edge">
<title>zkGroup&#45;&gt;groupContract</title>
<path fill="none" stroke="#4f83bf" d="M6935.75,-150.32C6935.75,-150.32 6935.75,-218.22 6935.75,-218.22"/>
<polygon fill="#4f83bf" stroke="#4f83bf" points="6932.95,-218.22 6935.75,-226.22 6938.55,-218.22 6932.95,-218.22"/>
<text xml:space="preserve" text-anchor="middle" x="6954.12" y="-185.5" font-family="Comic Mono" font-size="10.00">inherit</text>
</g>
<!-- slotDelegates -->
<g id="node11" class="node">
<title>slotDelegates</title>
<path fill="#f8fafc" stroke="#94a3b8" d="M8719,-264C8719,-264 7474.5,-264 7474.5,-264 7468.5,-264 7462.5,-258 7462.5,-252 7462.5,-252 7462.5,-240 7462.5,-240 7462.5,-234 7468.5,-228 7474.5,-228 7474.5,-228 8719,-228 8719,-228 8725,-228 8731,-234 8731,-240 8731,-240 8731,-252 8731,-252 8731,-258 8725,-264 8719,-264"/>
<text xml:space="preserve" text-anchor="middle" x="8096.75" y="-240.57" font-family="Comic Mono" font-size="14.00">&lt;&lt;lease state delegates&gt;&gt;\nSlot Extend Delegates\nZooKeeperSlotExtendDelegate\nZooKeeperSuspendSlotExtendDelegate\nAtomicBoolean released flag\nmarkReleased &#45;&gt; NotHeld</text>
</g>
<!-- zkGroup&#45;&gt;slotDelegates -->
<g id="edge11" class="edge">
<title>zkGroup&#45;&gt;slotDelegates</title>
<path fill="none" stroke="#755bc6" d="M7549.17,-150.32C7549.17,-150.32 7549.17,-218.22 7549.17,-218.22"/>
<polygon fill="#755bc6" stroke="#755bc6" points="7546.37,-218.22 7549.17,-226.22 7551.97,-218.22 7546.37,-218.22"/>
<text xml:space="preserve" text-anchor="middle" x="7833.5" y="-185.5" font-family="Comic Mono" font-size="10.00">lease delegate</text>
</g>
<!-- semaphore -->
<g id="node13" class="node">
<title>semaphore</title>
<path fill="#f8fafc" stroke="#94a3b8" d="M7425.25,-378C7425.25,-378 6248.25,-378 6248.25,-378 6242.25,-378 6236.25,-372 6236.25,-366 6236.25,-366 6236.25,-354 6236.25,-354 6236.25,-348 6242.25,-342 6248.25,-342 6248.25,-342 7425.25,-342 7425.25,-342 7431.25,-342 7437.25,-348 7437.25,-354 7437.25,-354 7437.25,-366 7437.25,-366 7437.25,-372 7431.25,-378 7425.25,-378"/>
<text xml:space="preserve" text-anchor="middle" x="6836.75" y="-354.57" font-family="Comic Mono" font-size="14.00">&lt;&lt;group permit primitive&gt;&gt;\nCurator Semaphore Recipe\npath from ZooKeeperPaths\nmaxLeaders permits\nLease nodeName used as slotId\nLease.close releases permit</text>
</g>
<!-- zkGroup&#45;&gt;semaphore -->
<g id="edge16" class="edge">
<title>zkGroup&#45;&gt;semaphore</title>
<path fill="none" stroke="#755bc6" d="M7418.25,-150.27C7418.25,-150.27 7418.25,-332.13 7418.25,-332.13"/>
<polygon fill="#755bc6" stroke="#755bc6" points="7415.45,-332.13 7418.25,-340.13 7421.05,-332.13 7415.45,-332.13"/>
<text xml:space="preserve" text-anchor="middle" x="6398.25" y="-242.5" font-family="Comic Mono" font-size="10.00">slot</text>
</g>
<!-- zkSuspendGroup -->
<g id="node8" class="node">
<title>zkSuspendGroup</title>
<path fill="#f8fafc" stroke="#94a3b8" d="M9408.75,-150C9408.75,-150 8156.75,-150 8156.75,-150 8150.75,-150 8144.75,-144 8144.75,-138 8144.75,-138 8144.75,-126 8144.75,-126 8144.75,-120 8150.75,-114 8156.75,-114 8156.75,-114 9408.75,-114 9408.75,-114 9414.75,-114 9420.75,-120 9420.75,-126 9420.75,-126 9420.75,-138 9420.75,-138 9420.75,-144 9414.75,-150 9408.75,-150"/>
<text xml:space="preserve" text-anchor="middle" x="8782.75" y="-126.58" font-family="Comic Mono" font-size="14.00">&lt;&lt;coroutine semaphore group&gt;&gt;\nZooKeeperSuspend Group\nZooKeeperSuspendLeaderGroupElector\nDispatchers.IO acquire\nNonCancellable lease.close\nmarkReleased before close</text>
</g>
<!-- zkSuspendGroup&#45;&gt;suspendGroupContract -->
<g id="edge4" class="edge">
<title>zkSuspendGroup&#45;&gt;suspendGroupContract</title>
<path fill="none" stroke="#4f83bf" d="M9103,-150.32C9103,-150.32 9103,-218.22 9103,-218.22"/>
<polygon fill="#4f83bf" stroke="#4f83bf" points="9100.2,-218.22 9103,-226.22 9105.8,-218.22 9100.2,-218.22"/>
<text xml:space="preserve" text-anchor="middle" x="9329.12" y="-185.5" font-family="Comic Mono" font-size="10.00">inherit</text>
</g>
<!-- zkSuspendGroup&#45;&gt;slotDelegates -->
<g id="edge12" class="edge">
<title>zkSuspendGroup&#45;&gt;slotDelegates</title>
<path fill="none" stroke="#755bc6" d="M8437.88,-150.32C8437.88,-150.32 8437.88,-218.22 8437.88,-218.22"/>
<polygon fill="#755bc6" stroke="#755bc6" points="8435.08,-218.22 8437.88,-226.22 8440.68,-218.22 8435.08,-218.22"/>
<text xml:space="preserve" text-anchor="middle" x="8429.88" y="-185.5" font-family="Comic Mono" font-size="10.00">suspend lease</text>
</g>
<!-- zkSuspendGroup&#45;&gt;semaphore -->
<g id="edge17" class="edge">
<title>zkSuspendGroup&#45;&gt;semaphore</title>
<path fill="none" stroke="#755bc6" d="M8758.12,-150.27C8758.12,-204.38 8758.12,-360 8758.12,-360 8758.12,-360 7446.95,-360 7446.95,-360"/>
<polygon fill="#755bc6" stroke="#755bc6" points="7446.95,-357.2 7438.95,-360 7446.95,-362.8 7446.95,-357.2"/>
<text xml:space="preserve" text-anchor="middle" x="9955.25" y="-242.5" font-family="Comic Mono" font-size="10.00">slot</text>
</g>
<!-- factories -->
<g id="node9" class="node">
<title>factories</title>
<path fill="#f8fafc" stroke="#94a3b8" d="M5465.75,-36C5465.75,-36 4033.75,-36 4033.75,-36 4027.75,-36 4021.75,-30 4021.75,-24 4021.75,-24 4021.75,-12 4021.75,-12 4021.75,-6 4027.75,0 4033.75,0 4033.75,0 5465.75,0 5465.75,0 5471.75,0 5477.75,-6 5477.75,-12 5477.75,-12 5477.75,-24 5477.75,-24 5477.75,-30 5471.75,-36 5465.75,-36"/>
<text xml:space="preserve" text-anchor="middle" x="4749.75" y="-12.57" font-family="Comic Mono" font-size="14.00">&lt;&lt;factory + extensions&gt;&gt;\nFactory Entrypoints\nZooKeeperLeaderElectorFactory\nZooKeeperLeaderGroupElectorFactory\nZooKeeperSuspendLeaderElectorFactory\nCuratorFramework runIfLeader* extensions</text>
</g>
<!-- factories&#45;&gt;zkLeader -->
<g id="edge5" class="edge">
<title>factories&#45;&gt;zkLeader</title>
<path fill="none" stroke="#758297" d="M4285.5,-36.32C4285.5,-36.32 4285.5,-104.22 4285.5,-104.22"/>
<polygon fill="#758297" stroke="#758297" points="4282.7,-104.22 4285.5,-112.22 4288.3,-104.22 4282.7,-104.22"/>
<text xml:space="preserve" text-anchor="middle" x="4720" y="-71.5" font-family="Comic Mono" font-size="10.00">dependency</text>
</g>
<!-- factories&#45;&gt;zkSuspend -->
<g id="edge6" class="edge">
<title>factories&#45;&gt;zkSuspend</title>
<path fill="none" stroke="#758297" d="M4021.32,-18C3607.15,-18 3170.38,-18 3170.38,-18 3170.38,-18 3170.38,-132 3170.38,-132 3170.38,-132 3032.41,-132 3032.41,-132"/>
<polygon fill="#758297" stroke="#758297" points="3032.41,-129.2 3024.41,-132 3032.41,-134.8 3032.41,-129.2"/>
<text xml:space="preserve" text-anchor="middle" x="3994" y="-71.5" font-family="Comic Mono" font-size="10.00">dependency</text>
</g>
<!-- factories&#45;&gt;zkGroup -->
<g id="edge7" class="edge">
<title>factories&#45;&gt;zkGroup</title>
<path fill="none" stroke="#758297" d="M5478.18,-24C5823.7,-24 6162.12,-24 6162.12,-24 6162.12,-24 6162.12,-132 6162.12,-132 6162.12,-132 6209.11,-132 6209.11,-132"/>
<polygon fill="#758297" stroke="#758297" points="6209.11,-134.8 6217.11,-132 6209.11,-129.2 6209.11,-134.8"/>
<text xml:space="preserve" text-anchor="middle" x="6171" y="-71.5" font-family="Comic Mono" font-size="10.00">dependency</text>
</g>
<!-- factories&#45;&gt;zkSuspendGroup -->
<g id="edge8" class="edge">
<title>factories&#45;&gt;zkSuspendGroup</title>
<path fill="none" stroke="#758297" d="M5478.03,-12C6399.7,-12 7868.62,-12 7868.62,-12 7868.62,-12 7868.62,-132 7868.62,-132 7868.62,-132 8134.93,-132 8134.93,-132"/>
<polygon fill="#758297" stroke="#758297" points="8134.93,-134.8 8142.93,-132 8134.93,-129.2 8134.93,-134.8"/>
<text xml:space="preserve" text-anchor="middle" x="7586" y="-71.5" font-family="Comic Mono" font-size="10.00">dependency</text>
</g>
<!-- singleDelegates&#45;&gt;mutex -->
<g id="edge13" class="edge">
<title>singleDelegates&#45;&gt;mutex</title>
<path fill="none" stroke="#b9851b" d="M4416.75,-264.32C4416.75,-264.32 4416.75,-332.22 4416.75,-332.22"/>
<polygon fill="#b9851b" stroke="#b9851b" points="4413.95,-332.22 4416.75,-340.22 4419.55,-332.22 4413.95,-332.22"/>
<text xml:space="preserve" text-anchor="middle" x="4453.5" y="-299.5" font-family="Comic Mono" font-size="10.00">liveness check</text>
</g>
<!-- slotDelegates&#45;&gt;semaphore -->
<g id="edge14" class="edge">
<title>slotDelegates&#45;&gt;semaphore</title>
<path fill="none" stroke="#755bc6" d="M7462.31,-246C7440.43,-246 7427.75,-246 7427.75,-246 7427.75,-246 7427.75,-332.17 7427.75,-332.17"/>
<polygon fill="#755bc6" stroke="#755bc6" points="7424.95,-332.17 7427.75,-340.17 7430.55,-332.17 7424.95,-332.17"/>
<text xml:space="preserve" text-anchor="middle" x="7296.25" y="-299.5" font-family="Comic Mono" font-size="10.00">slot</text>
</g>
<!-- runtime -->
<g id="node16" class="node">
<title>runtime</title>
<path fill="#f8fafc" stroke="#94a3b8" d="M5810,-492C5810,-492 4355.5,-492 4355.5,-492 4349.5,-492 4343.5,-486 4343.5,-480 4343.5,-480 4343.5,-468 4343.5,-468 4343.5,-462 4349.5,-456 4355.5,-456 4355.5,-456 5810,-456 5810,-456 5816,-456 5822,-462 5822,-468 5822,-468 5822,-480 5822,-480 5822,-486 5816,-492 5810,-492"/>
<text xml:space="preserve" text-anchor="middle" x="5082.75" y="-468.57" font-family="Comic Mono" font-size="14.00">&lt;&lt;session&#45;backed coordination&gt;&gt;\nZooKeeper Runtime Semantics\nZooKeeper session owns liveness\nsession expiry removes recipe nodes\nleaseTime is not ZooKeeper TTL\nautoExtend warning but disabled</text>
</g>
<!-- mutex&#45;&gt;runtime -->
<g id="edge22" class="edge">
<title>mutex&#45;&gt;runtime</title>
<path fill="none" stroke="#758297" d="M4669.12,-378.32C4669.12,-378.32 4669.12,-446.22 4669.12,-446.22"/>
<polygon fill="#758297" stroke="#758297" points="4666.33,-446.22 4669.13,-454.22 4671.93,-446.22 4666.33,-446.22"/>
<text xml:space="preserve" text-anchor="middle" x="4773.88" y="-413.5" font-family="Comic Mono" font-size="10.00">session nodes</text>
</g>
<!-- semaphore&#45;&gt;runtime -->
<g id="edge21" class="edge">
<title>semaphore&#45;&gt;runtime</title>
<path fill="none" stroke="#758297" d="M6235.89,-366C5943.79,-366 5654.94,-366 5654.94,-366 5654.94,-366 5654.94,-446.17 5654.94,-446.17"/>
<polygon fill="#758297" stroke="#758297" points="5652.14,-446.17 5654.94,-454.17 5657.74,-446.17 5652.14,-446.17"/>
<text xml:space="preserve" text-anchor="middle" x="5972.25" y="-413.5" font-family="Comic Mono" font-size="10.00">recipe nodes</text>
</g>
<!-- ownerThread&#45;&gt;mutex -->
<g id="edge19" class="edge">
<title>ownerThread&#45;&gt;mutex</title>
<path fill="none" stroke="#758297" d="M2546.24,-240C2563.27,-240 2572.88,-240 2572.88,-240 2572.88,-240 2572.88,-366 2572.88,-366 2572.88,-366 3828.88,-366 3828.88,-366"/>
<polygon fill="#758297" stroke="#758297" points="3828.88,-368.8 3836.88,-366 3828.88,-363.2 3828.88,-368.8"/>
<text xml:space="preserve" text-anchor="middle" x="3171.62" y="-299.5" font-family="Comic Mono" font-size="10.00">same&#45;thread release</text>
</g>
<!-- ownerThread&#45;&gt;runtime -->
<g id="edge24" class="edge">
<title>ownerThread&#45;&gt;runtime</title>
<path fill="none" stroke="#758297" d="M2546.28,-252C2554.8,-252 2559.44,-252 2559.44,-252 2559.44,-252 2559.44,-474 2559.44,-474 2559.44,-474 4333.63,-474 4333.63,-474"/>
<polygon fill="#758297" stroke="#758297" points="4333.63,-476.8 4341.63,-474 4333.63,-471.2 4333.63,-476.8"/>
<text xml:space="preserve" text-anchor="middle" x="2263" y="-356.5" font-family="Comic Mono" font-size="10.00">dependency</text>
</g>
<!-- paths -->
<g id="node15" class="node">
<title>paths</title>
<path fill="#f8fafc" stroke="#94a3b8" d="M6267.75,-264C6267.75,-264 5165.75,-264 5165.75,-264 5159.75,-264 5153.75,-258 5153.75,-252 5153.75,-252 5153.75,-240 5153.75,-240 5153.75,-234 5159.75,-228 5165.75,-228 5165.75,-228 6267.75,-228 6267.75,-228 6273.75,-228 6279.75,-234 6279.75,-240 6279.75,-240 6279.75,-252 6279.75,-252 6279.75,-258 6273.75,-264 6267.75,-264"/>
<text xml:space="preserve" text-anchor="middle" x="5716.75" y="-240.57" font-family="Comic Mono" font-size="14.00">&lt;&lt;base path builder&gt;&gt;\nZooKeeperPaths\ndefault /leader&#45;election\ndefault /leader&#45;group&#45;election\ntrims trailing slash\nroot base becomes /{lockName}</text>
</g>
<!-- paths&#45;&gt;mutex -->
<g id="edge20" class="edge">
<title>paths&#45;&gt;mutex</title>
<path fill="none" stroke="#758297" d="M5320.81,-264.32C5320.81,-295.13 5320.81,-354 5320.81,-354 5320.81,-354 5004.58,-354 5004.58,-354"/>
<polygon fill="#758297" stroke="#758297" points="5004.58,-351.2 4996.58,-354 5004.58,-356.8 5004.58,-351.2"/>
<text xml:space="preserve" text-anchor="middle" x="5113.62" y="-299.5" font-family="Comic Mono" font-size="10.00">single path</text>
</g>
<!-- paths&#45;&gt;runtime -->
<g id="edge23" class="edge">
<title>paths&#45;&gt;runtime</title>
<path fill="none" stroke="#758297" d="M5487.88,-264.27C5487.88,-264.27 5487.88,-446.13 5487.88,-446.13"/>
<polygon fill="#758297" stroke="#758297" points="5485.08,-446.13 5487.88,-454.13 5490.68,-446.13 5485.08,-446.13"/>
<text xml:space="preserve" text-anchor="middle" x="5417.25" y="-356.5" font-family="Comic Mono" font-size="10.00">uses</text>
</g>
<!-- classifier -->
<g id="node17" class="node">
<title>classifier</title>
<path fill="#f8fafc" stroke="#94a3b8" d="M6093.25,-150C6093.25,-150 4736.25,-150 4736.25,-150 4730.25,-150 4724.25,-144 4724.25,-138 4724.25,-138 4724.25,-126 4724.25,-126 4724.25,-120 4730.25,-114 4736.25,-114 4736.25,-114 6093.25,-114 6093.25,-114 6099.25,-114 6105.25,-120 6105.25,-126 6105.25,-126 6105.25,-138 6105.25,-138 6105.25,-144 6099.25,-150 6093.25,-150"/>
<text xml:space="preserve" text-anchor="middle" x="5414.75" y="-126.58" font-family="Comic Mono" font-size="14.00">&lt;&lt;extender error policy&gt;&gt;\nZooKeeperBackendErrorClassifier\nConnectionLoss &#45;&gt; transient\nOperationTimeout &#45;&gt; transient\nSessionExpired &#45;&gt; non&#45;transient\nSessionMoved &#45;&gt; non&#45;transient</text>
</g>
<!-- classifier&#45;&gt;singleDelegates -->
<g id="edge25" class="edge">
<title>classifier&#45;&gt;singleDelegates</title>
<path fill="none" stroke="#2e8f89" d="M4912,-150.32C4912,-150.32 4912,-218.22 4912,-218.22"/>
<polygon fill="#2e8f89" stroke="#2e8f89" points="4909.2,-218.22 4912,-226.22 4914.8,-218.22 4909.2,-218.22"/>
<text xml:space="preserve" text-anchor="middle" x="4576.88" y="-185.5" font-family="Comic Mono" font-size="10.00">event</text>
</g>
<!-- classifier&#45;&gt;slotDelegates -->
<g id="edge26" class="edge">
<title>classifier&#45;&gt;slotDelegates</title>
<path fill="none" stroke="#2e8f89" d="M5629.5,-150.35C5629.5,-167.01 5629.5,-189 5629.5,-189 5629.5,-189 7505.83,-189 7505.83,-189 7505.83,-189 7505.83,-218.14 7505.83,-218.14"/>
<polygon fill="#2e8f89" stroke="#2e8f89" points="7503.03,-218.14 7505.83,-226.14 7508.63,-218.14 7503.03,-218.14"/>
<text xml:space="preserve" text-anchor="middle" x="5899.88" y="-185.5" font-family="Comic Mono" font-size="10.00">event</text>
</g>
</g>
</svg>
