<?xml version="1.0" encoding="UTF-8" standalone="no"?>
<!DOCTYPE svg PUBLIC "-//W3C//DTD SVG 1.1//EN"
 "http://www.w3.org/Graphics/SVG/1.1/DTD/svg11.dtd">
<!-- Generated by graphviz version 15.0.0 (20260523.1842)
 -->
<!-- Title: leader&#45;k8s&#45;architecture&#45;01 Pages: 1 -->
<svg width="1268pt" height="278pt"
 viewBox="0.00 0.00 1268.00 278.00" xmlns="http://www.w3.org/2000/svg" xmlns:xlink="http://www.w3.org/1999/xlink">
<g id="graph0" class="graph" transform="scale(1 1) rotate(0) translate(4 274.26)">
<title>leader&#45;k8s&#45;architecture&#45;01</title>
<text xml:space="preserve" text-anchor="middle" x="630.02" y="-252.96" font-family="Times,serif" font-size="14.00">leader&#45;k8s Architecture</text>
<!-- n0&#45;&gt;n1 -->
<g id="edge1" class="edge">
<title>n0&#45;&gt;n1</title>
<path fill="none" stroke="#758297" stroke-width="1.8" d="M250.33,-163C250.33,-163 328.87,-163 328.87,-163"/>
<polygon fill="#758297" stroke="#758297" stroke-width="1.8" points="328.87,-165.8 336.87,-163 328.87,-160.2 328.87,-165.8"/>
</g>
<!-- n0&#45;&gt;n2 -->
<g id="edge2" class="edge">
<title>n0&#45;&gt;n2</title>
<path fill="none" stroke="#758297" stroke-width="1.8" d="M250.33,-88C250.33,-88 328.87,-88 328.87,-88"/>
<polygon fill="#758297" stroke="#758297" stroke-width="1.8" points="328.87,-90.8 336.87,-88 328.87,-85.2 328.87,-90.8"/>
</g>
<!-- n1&#45;&gt;n3 -->
<g id="edge3" class="edge">
<title>n1&#45;&gt;n3</title>
<path fill="none" stroke="#758297" stroke-width="1.8" d="M630.31,-163C630.31,-163 708.81,-163 708.81,-163"/>
<polygon fill="#758297" stroke="#758297" stroke-width="1.8" points="708.81,-165.8 716.81,-163 708.81,-160.2 708.81,-165.8"/>
</g>
<!-- n2&#45;&gt;n3 -->
<g id="edge4" class="edge">
<title>n2&#45;&gt;n3</title>
<path fill="none" stroke="#758297" stroke-width="1.8" d="M630.31,-88C630.31,-88 708.81,-88 708.81,-88"/>
<polygon fill="#758297" stroke="#758297" stroke-width="1.8" points="708.81,-90.8 716.81,-88 708.81,-85.2 708.81,-90.8"/>
</g>
<!-- n3&#45;&gt;n4 -->
<g id="edge5" class="edge">
<title>n3&#45;&gt;n4</title>
<path fill="none" stroke="#758297" stroke-width="1.8" d="M970.12,-128C970.12,-128 1038.91,-128 1038.91,-128"/>
<polygon fill="#758297" stroke="#758297" stroke-width="1.8" points="1038.91,-130.8 1046.91,-128 1038.91,-125.2 1038.91,-130.8"/>
</g>
<!-- n0 -->
<g id="node1" class="node">
<title>n0</title>
<path fill="#ffffff" stroke="#5b8def" d="M237.84,-175.76C237.84,-175.76 12,-175.76 12,-175.76 6,-175.76 0,-169.76 0,-163.76 0,-163.76 0,-92 0,-92 0,-86 6,-80 12,-80 12,-80 237.84,-80 237.84,-80 243.84,-80 249.84,-86 249.84,-92 249.84,-92 249.84,-163.76 249.84,-163.76 249.84,-169.76 243.84,-175.76 237.84,-175.76"/>
<text xml:space="preserve" text-anchor="middle" x="124.92" y="-123.53" font-family="Architects Daughter" font-size="18.00">Application</text>
</g>
<!-- n1 -->
<g id="node2" class="node">
<title>n1</title>
<path fill="#ffffff" stroke="#58a978" d="M618,-245.76C618,-245.76 351.84,-245.76 351.84,-245.76 345.84,-245.76 339.84,-239.76 339.84,-233.76 339.84,-233.76 339.84,-162 339.84,-162 339.84,-156 345.84,-150 351.84,-150 351.84,-150 618,-150 618,-150 624,-150 630,-156 630,-162 630,-162 630,-233.76 630,-233.76 630,-239.76 624,-245.76 618,-245.76"/>
<text xml:space="preserve" text-anchor="middle" x="484.92" y="-193.53" font-family="Architects Daughter" font-size="18.00">KubernetesLease</text>
</g>
<!-- n2 -->
<g id="node3" class="node">
<title>n2</title>
<path fill="#ffffff" stroke="#d6a441" d="M618,-95.76C618,-95.76 351.84,-95.76 351.84,-95.76 345.84,-95.76 339.84,-89.76 339.84,-83.76 339.84,-83.76 339.84,-12 339.84,-12 339.84,-6 345.84,0 351.84,0 351.84,0 618,0 618,0 624,0 630,-6 630,-12 630,-12 630,-83.76 630,-83.76 630,-89.76 624,-95.76 618,-95.76"/>
<text xml:space="preserve" text-anchor="middle" x="484.92" y="-43.53" font-family="Architects Daughter" font-size="18.00">KubernetesLease</text>
</g>
<!-- n3 -->
<g id="node4" class="node">
<title>n3</title>
<path fill="#ffffff" stroke="#dc6b82" d="M957.84,-175.76C957.84,-175.76 732,-175.76 732,-175.76 726,-175.76 720,-169.76 720,-163.76 720,-163.76 720,-92 720,-92 720,-86 726,-80 732,-80 732,-80 957.84,-80 957.84,-80 963.84,-80 969.84,-86 969.84,-92 969.84,-92 969.84,-163.76 969.84,-163.76 969.84,-169.76 963.84,-175.76 957.84,-175.76"/>
<text xml:space="preserve" text-anchor="middle" x="844.92" y="-123.53" font-family="Architects Daughter" font-size="18.00">Kubernetes</text>
</g>
<!-- n4 -->
<g id="node5" class="node">
<title>n4</title>
<path fill="#ffffff" stroke="#45a7a1" d="M1248.04,-175.76C1248.04,-175.76 1061.8,-175.76 1061.8,-175.76 1055.8,-175.76 1049.8,-169.76 1049.8,-163.76 1049.8,-163.76 1049.8,-92 1049.8,-92 1049.8,-86 1055.8,-80 1061.8,-80 1061.8,-80 1248.04,-80 1248.04,-80 1254.04,-80 1260.04,-86 1260.04,-92 1260.04,-92 1260.04,-163.76 1260.04,-163.76 1260.04,-169.76 1254.04,-175.76 1248.04,-175.76"/>
<text xml:space="preserve" text-anchor="middle" x="1154.92" y="-123.53" font-family="Architects Daughter" font-size="18.00">coordination.k8s.io</text>
</g>
</g>
</svg>
