<?xml version="1.0" encoding="UTF-8" standalone="no"?>
<!DOCTYPE svg PUBLIC "-//W3C//DTD SVG 1.1//EN"
 "http://www.w3.org/Graphics/SVG/1.1/DTD/svg11.dtd">
<!-- Generated by graphviz version 15.0.0 (20260523.1842)
 -->
<!-- Title: leader&#45;spring&#45;boot&#45;architecture&#45;01 Pages: 1 -->
<svg width="2129pt" height="270pt"
 viewBox="0.00 0.00 2129.00 270.00" xmlns="http://www.w3.org/2000/svg" xmlns:xlink="http://www.w3.org/1999/xlink">
<g id="graph0" class="graph" transform="scale(1 1) rotate(0) translate(4 266)">
<title>leader&#45;spring&#45;boot&#45;architecture&#45;01</title>
<!-- imports -->
<g id="node1" class="node">
<title>imports</title>
<path fill="#f8fafc" stroke="#94a3b8" d="M191.5,-119C191.5,-119 12,-119 12,-119 6,-119 0,-113 0,-107 0,-107 0,-95 0,-95 0,-89 6,-83 12,-83 12,-83 191.5,-83 191.5,-83 197.5,-83 203.5,-89 203.5,-95 203.5,-95 203.5,-107 203.5,-107 203.5,-113 197.5,-119 191.5,-119"/>
<text xml:space="preserve" text-anchor="middle" x="101.75" y="-95.58" font-family="Comic Mono" font-size="14.00">AutoConfiguration Imports</text>
</g>
<!-- coreAuto -->
<g id="node5" class="node">
<title>coreAuto</title>
<path fill="#f8fafc" stroke="#94a3b8" d="M461,-77C461,-77 349,-77 349,-77 343,-77 337,-71 337,-65 337,-65 337,-53 337,-53 337,-47 343,-41 349,-41 349,-41 461,-41 461,-41 467,-41 473,-47 473,-53 473,-53 473,-65 473,-65 473,-71 467,-77 461,-77"/>
<text xml:space="preserve" text-anchor="middle" x="405" y="-53.58" font-family="Comic Mono" font-size="14.00">Core Auto&#45;Config</text>
</g>
<!-- imports&#45;&gt;coreAuto -->
<g id="edge1" class="edge">
<title>imports&#45;&gt;coreAuto</title>
<path fill="none" stroke="#758297" d="M203.99,-92C284.34,-92 382.75,-92 382.75,-92 382.75,-92 382.75,-88.94 382.75,-88.94"/>
<polygon fill="#758297" stroke="#758297" points="386.25,-88.94 382.75,-78.94 379.25,-88.94 386.25,-88.94"/>
<text xml:space="preserve" text-anchor="middle" x="262.75" y="-103.5" font-family="Comic Mono" font-size="10.00">dependency</text>
</g>
<!-- props -->
<g id="node2" class="node">
<title>props</title>
<path fill="#f8fafc" stroke="#94a3b8" d="M187.75,-36C187.75,-36 15.75,-36 15.75,-36 9.75,-36 3.75,-30 3.75,-24 3.75,-24 3.75,-12 3.75,-12 3.75,-6 9.75,0 15.75,0 15.75,0 187.75,0 187.75,0 193.75,0 199.75,-6 199.75,-12 199.75,-12 199.75,-24 199.75,-24 199.75,-30 193.75,-36 187.75,-36"/>
<text xml:space="preserve" text-anchor="middle" x="101.75" y="-12.57" font-family="Comic Mono" font-size="14.00">LeaderProperties Binding</text>
</g>
<!-- props&#45;&gt;coreAuto -->
<g id="edge2" class="edge">
<title>props&#45;&gt;coreAuto</title>
<path fill="none" stroke="#758297" d="M200.13,-18C288.6,-18 404.75,-18 404.75,-18 404.75,-18 404.75,-29.38 404.75,-29.38"/>
<polygon fill="#758297" stroke="#758297" points="401.25,-29.38 404.75,-39.38 408.25,-29.38 401.25,-29.38"/>
<text xml:space="preserve" text-anchor="middle" x="262.75" y="-20.5" font-family="Comic Mono" font-size="10.00">dependency</text>
</g>
<!-- backendBeans -->
<g id="node3" class="node">
<title>backendBeans</title>
<path fill="#f8fafc" stroke="#94a3b8" d="M476,-160C476,-160 334,-160 334,-160 328,-160 322,-154 322,-148 322,-148 322,-136 322,-136 322,-130 328,-124 334,-124 334,-124 476,-124 476,-124 482,-124 488,-130 488,-136 488,-136 488,-148 488,-148 488,-154 482,-160 476,-160"/>
<text xml:space="preserve" text-anchor="middle" x="405" y="-136.57" font-family="Comic Mono" font-size="14.00">Backend Client Beans</text>
</g>
<!-- factoryAuto -->
<g id="node6" class="node">
<title>factoryAuto</title>
<path fill="#f8fafc" stroke="#94a3b8" d="M783,-119C783,-119 618.5,-119 618.5,-119 612.5,-119 606.5,-113 606.5,-107 606.5,-107 606.5,-95 606.5,-95 606.5,-89 612.5,-83 618.5,-83 618.5,-83 783,-83 783,-83 789,-83 795,-89 795,-95 795,-95 795,-107 795,-107 795,-113 789,-119 783,-119"/>
<text xml:space="preserve" text-anchor="middle" x="700.75" y="-95.58" font-family="Comic Mono" font-size="14.00">AOP Factory Auto&#45;Config</text>
</g>
<!-- backendBeans&#45;&gt;factoryAuto -->
<g id="edge3" class="edge">
<title>backendBeans&#45;&gt;factoryAuto</title>
<path fill="none" stroke="#758297" d="M480.75,-123.76C480.75,-116.57 480.75,-110 480.75,-110 480.75,-110 594.66,-110 594.66,-110"/>
<polygon fill="#758297" stroke="#758297" points="594.66,-113.5 604.66,-110 594.66,-106.5 594.66,-113.5"/>
<text xml:space="preserve" text-anchor="middle" x="547.25" y="-144.5" font-family="Comic Mono" font-size="10.00">dependency</text>
</g>
<!-- optionalBeans -->
<g id="node4" class="node">
<title>optionalBeans</title>
<path fill="#f8fafc" stroke="#94a3b8" d="M783,-224C783,-224 618.5,-224 618.5,-224 612.5,-224 606.5,-218 606.5,-212 606.5,-212 606.5,-200 606.5,-200 606.5,-194 612.5,-188 618.5,-188 618.5,-188 783,-188 783,-188 789,-188 795,-194 795,-200 795,-200 795,-212 795,-212 795,-218 789,-224 783,-224"/>
<text xml:space="preserve" text-anchor="middle" x="700.75" y="-200.57" font-family="Comic Mono" font-size="14.00">Optional Platform Beans</text>
</g>
<!-- micrometerAuto -->
<g id="node7" class="node">
<title>micrometerAuto</title>
<path fill="#f8fafc" stroke="#94a3b8" d="M1082.5,-193C1082.5,-193 925.5,-193 925.5,-193 919.5,-193 913.5,-187 913.5,-181 913.5,-181 913.5,-169 913.5,-169 913.5,-163 919.5,-157 925.5,-157 925.5,-157 1082.5,-157 1082.5,-157 1088.5,-157 1094.5,-163 1094.5,-169 1094.5,-169 1094.5,-181 1094.5,-181 1094.5,-187 1088.5,-193 1082.5,-193"/>
<text xml:space="preserve" text-anchor="middle" x="1004" y="-169.57" font-family="Comic Mono" font-size="14.00">Micrometer Auto&#45;Config</text>
</g>
<!-- optionalBeans&#45;&gt;micrometerAuto -->
<g id="edge4" class="edge">
<title>optionalBeans&#45;&gt;micrometerAuto</title>
<path fill="none" stroke="#758297" d="M795.37,-196.5C884.28,-196.5 1003.75,-196.5 1003.75,-196.5 1003.75,-196.5 1003.75,-196.16 1003.75,-196.16"/>
<polygon fill="#758297" stroke="#758297" points="1007.25,-204.65 1003.75,-194.65 1000.25,-204.65 1007.25,-204.65"/>
<text xml:space="preserve" text-anchor="middle" x="854.25" y="-208.5" font-family="Comic Mono" font-size="10.00">dependency</text>
</g>
<!-- coreAuto&#45;&gt;factoryAuto -->
<g id="edge5" class="edge">
<title>coreAuto&#45;&gt;factoryAuto</title>
<path fill="none" stroke="#758297" d="M427.75,-77.06C427.75,-88.44 427.75,-101 427.75,-101 427.75,-101 594.52,-101 594.52,-101"/>
<polygon fill="#758297" stroke="#758297" points="594.52,-104.5 604.52,-101 594.52,-97.5 594.52,-104.5"/>
<text xml:space="preserve" text-anchor="middle" x="547.25" y="-71.5" font-family="Comic Mono" font-size="10.00">dependency</text>
</g>
<!-- factoryAuto&#45;&gt;micrometerAuto -->
<g id="edge6" class="edge">
<title>factoryAuto&#45;&gt;micrometerAuto</title>
<path fill="none" stroke="#758297" d="M795.37,-107.5C884.28,-107.5 1003.75,-107.5 1003.75,-107.5 1003.75,-107.5 1003.75,-145.04 1003.75,-145.04"/>
<polygon fill="#758297" stroke="#758297" points="1000.25,-145.04 1003.75,-155.04 1007.25,-145.04 1000.25,-145.04"/>
<text xml:space="preserve" text-anchor="middle" x="854.25" y="-144.5" font-family="Comic Mono" font-size="10.00">dependency</text>
</g>
<!-- factories -->
<g id="node10" class="node">
<title>factories</title>
<path fill="#f8fafc" stroke="#94a3b8" d="M1311.5,-96C1311.5,-96 1139.5,-96 1139.5,-96 1133.5,-96 1127.5,-90 1127.5,-84 1127.5,-84 1127.5,-72 1127.5,-72 1127.5,-66 1133.5,-60 1139.5,-60 1139.5,-60 1311.5,-60 1311.5,-60 1317.5,-60 1323.5,-66 1323.5,-72 1323.5,-72 1323.5,-84 1323.5,-84 1323.5,-90 1317.5,-96 1311.5,-96"/>
<text xml:space="preserve" text-anchor="middle" x="1225.5" y="-72.58" font-family="Comic Mono" font-size="14.00">Selectable Factory Beans</text>
</g>
<!-- factoryAuto&#45;&gt;factories -->
<g id="edge9" class="edge">
<title>factoryAuto&#45;&gt;factories</title>
<path fill="none" stroke="#758297" d="M795.47,-89.5C795.47,-89.5 1115.54,-89.5 1115.54,-89.5"/>
<polygon fill="#758297" stroke="#758297" points="1115.54,-93 1125.54,-89.5 1115.54,-86 1115.54,-93"/>
<text xml:space="preserve" text-anchor="middle" x="854.25" y="-80.5" font-family="Comic Mono" font-size="10.00">success</text>
</g>
<!-- aopAuto -->
<g id="node8" class="node">
<title>aopAuto</title>
<path fill="#f8fafc" stroke="#94a3b8" d="M1536.75,-179C1536.75,-179 1372.25,-179 1372.25,-179 1366.25,-179 1360.25,-173 1360.25,-167 1360.25,-167 1360.25,-155 1360.25,-155 1360.25,-149 1366.25,-143 1372.25,-143 1372.25,-143 1536.75,-143 1536.75,-143 1542.75,-143 1548.75,-149 1548.75,-155 1548.75,-155 1548.75,-167 1548.75,-167 1548.75,-173 1542.75,-179 1536.75,-179"/>
<text xml:space="preserve" text-anchor="middle" x="1454.5" y="-155.57" font-family="Comic Mono" font-size="14.00">AOP Runtime Auto&#45;Config</text>
</g>
<!-- micrometerAuto&#45;&gt;aopAuto -->
<g id="edge7" class="edge">
<title>micrometerAuto&#45;&gt;aopAuto</title>
<path fill="none" stroke="#758297" d="M1094.89,-168C1094.89,-168 1348.35,-168 1348.35,-168"/>
<polygon fill="#758297" stroke="#758297" points="1348.35,-171.5 1358.35,-168 1348.35,-164.5 1348.35,-171.5"/>
<text xml:space="preserve" text-anchor="middle" x="1225.5" y="-174.5" font-family="Comic Mono" font-size="10.00">dependency</text>
</g>
<!-- metrics -->
<g id="node12" class="node">
<title>metrics</title>
<path fill="#f8fafc" stroke="#94a3b8" d="M1540.5,-262C1540.5,-262 1368.5,-262 1368.5,-262 1362.5,-262 1356.5,-256 1356.5,-250 1356.5,-250 1356.5,-238 1356.5,-238 1356.5,-232 1362.5,-226 1368.5,-226 1368.5,-226 1540.5,-226 1540.5,-226 1546.5,-226 1552.5,-232 1552.5,-238 1552.5,-238 1552.5,-250 1552.5,-250 1552.5,-256 1546.5,-262 1540.5,-262"/>
<text xml:space="preserve" text-anchor="middle" x="1454.5" y="-238.57" font-family="Comic Mono" font-size="14.00">Metrics And Health Beans</text>
</g>
<!-- micrometerAuto&#45;&gt;metrics -->
<g id="edge12" class="edge">
<title>micrometerAuto&#45;&gt;metrics</title>
<path fill="none" stroke="#758297" d="M1094.94,-186C1226.61,-186 1454.75,-186 1454.75,-186 1454.75,-186 1454.75,-214.13 1454.75,-214.13"/>
<polygon fill="#758297" stroke="#758297" points="1451.25,-214.13 1454.75,-224.13 1458.25,-214.13 1451.25,-214.13"/>
<text xml:space="preserve" text-anchor="middle" x="1225.5" y="-246.5" font-family="Comic Mono" font-size="10.00">metric</text>
</g>
<!-- observeAuto -->
<g id="node9" class="node">
<title>observeAuto</title>
<path fill="#f8fafc" stroke="#94a3b8" d="M1795,-236C1795,-236 1698,-236 1698,-236 1692,-236 1686,-230 1686,-224 1686,-224 1686,-212 1686,-212 1686,-206 1692,-200 1698,-200 1698,-200 1795,-200 1795,-200 1801,-200 1807,-206 1807,-212 1807,-212 1807,-224 1807,-224 1807,-230 1801,-236 1795,-236"/>
<text xml:space="preserve" text-anchor="middle" x="1746.5" y="-212.57" font-family="Comic Mono" font-size="14.00">Observe Config</text>
</g>
<!-- aopAuto&#45;&gt;observeAuto -->
<g id="edge8" class="edge">
<title>aopAuto&#45;&gt;observeAuto</title>
<path fill="none" stroke="#758297" d="M1548.98,-167C1634.37,-167 1746.75,-167 1746.75,-167 1746.75,-167 1746.75,-188.07 1746.75,-188.07"/>
<polygon fill="#758297" stroke="#758297" points="1743.25,-188.07 1746.75,-198.07 1750.25,-188.07 1743.25,-188.07"/>
<text xml:space="preserve" text-anchor="middle" x="1611.75" y="-220.5" font-family="Comic Mono" font-size="10.00">dependency</text>
</g>
<!-- aspect -->
<g id="node11" class="node">
<title>aspect</title>
<path fill="#f8fafc" stroke="#94a3b8" d="M1810,-125C1810,-125 1683,-125 1683,-125 1677,-125 1671,-119 1671,-113 1671,-113 1671,-101 1671,-101 1671,-95 1677,-89 1683,-89 1683,-89 1810,-89 1810,-89 1816,-89 1822,-95 1822,-101 1822,-101 1822,-113 1822,-113 1822,-119 1816,-125 1810,-125"/>
<text xml:space="preserve" text-anchor="middle" x="1746.5" y="-101.58" font-family="Comic Mono" font-size="14.00">CTW Leader Aspects</text>
</g>
<!-- aopAuto&#45;&gt;aspect -->
<g id="edge10" class="edge">
<title>aopAuto&#45;&gt;aspect</title>
<path fill="none" stroke="#758297" d="M1548.95,-155C1610.24,-155 1678.75,-155 1678.75,-155 1678.75,-155 1678.75,-136.93 1678.75,-136.93"/>
<polygon fill="#758297" stroke="#758297" points="1682.25,-136.93 1678.75,-126.93 1675.25,-136.93 1682.25,-136.93"/>
<text xml:space="preserve" text-anchor="middle" x="1611.75" y="-156.5" font-family="Comic Mono" font-size="10.00">success</text>
</g>
<!-- endpoint -->
<g id="node13" class="node">
<title>endpoint</title>
<path fill="#f8fafc" stroke="#94a3b8" d="M2108.75,-236C2108.75,-236 1936.75,-236 1936.75,-236 1930.75,-236 1924.75,-230 1924.75,-224 1924.75,-224 1924.75,-212 1924.75,-212 1924.75,-206 1930.75,-200 1936.75,-200 1936.75,-200 2108.75,-200 2108.75,-200 2114.75,-200 2120.75,-206 2120.75,-212 2120.75,-212 2120.75,-224 2120.75,-224 2120.75,-230 2114.75,-236 2108.75,-236"/>
<text xml:space="preserve" text-anchor="middle" x="2022.75" y="-212.57" font-family="Comic Mono" font-size="14.00">Status Registry Endpoint</text>
</g>
<!-- observeAuto&#45;&gt;endpoint -->
<g id="edge13" class="edge">
<title>observeAuto&#45;&gt;endpoint</title>
<path fill="none" stroke="#758297" d="M1807.47,-218C1807.47,-218 1912.98,-218 1912.98,-218"/>
<polygon fill="#758297" stroke="#758297" points="1912.98,-221.5 1922.98,-218 1912.98,-214.5 1912.98,-221.5"/>
<text xml:space="preserve" text-anchor="middle" x="1873.38" y="-220.5" font-family="Comic Mono" font-size="10.00">success</text>
</g>
<!-- factories&#45;&gt;aspect -->
<g id="edge11" class="edge">
<title>factories&#45;&gt;aspect</title>
<path fill="none" stroke="#758297" d="M1323.8,-92.5C1323.8,-92.5 1659.08,-92.5 1659.08,-92.5"/>
<polygon fill="#758297" stroke="#758297" points="1659.08,-96 1669.08,-92.5 1659.08,-89 1659.08,-96"/>
<text xml:space="preserve" text-anchor="middle" x="1454.5" y="-80.5" font-family="Comic Mono" font-size="10.00">call</text>
</g>
</g>
</svg>
