<?xml version="1.0" encoding="UTF-8" standalone="no"?>
<!DOCTYPE svg PUBLIC "-//W3C//DTD SVG 1.1//EN"
 "http://www.w3.org/Graphics/SVG/1.1/DTD/svg11.dtd">
<!-- Generated by graphviz version 15.0.0 (20260523.1842)
 -->
<!-- Title: leader&#45;spring&#45;boot&#45;sequence&#45;02 Pages: 1 -->
<svg width="1988pt" height="1471pt"
 viewBox="0.00 0.00 1988.00 1471.00" xmlns="http://www.w3.org/2000/svg" xmlns:xlink="http://www.w3.org/1999/xlink">
<g id="graph0" class="graph" transform="scale(1 1) rotate(0) translate(4 1466.5)">
<title>leader&#45;spring&#45;boot&#45;sequence&#45;02</title>
<text xml:space="preserve" text-anchor="middle" x="990.12" y="-1445.2" font-family="Times,serif" font-size="14.00">Sequence: reentrant @LeaderElection</text>
<!-- n0&#45;&gt;n1 -->
<g id="edge1" class="edge">
<title>n0&#45;&gt;n1</title>
<path fill="none" stroke="#758297" stroke-width="1.8" d="M300.56,-1382C300.56,-1382 408.94,-1382 408.94,-1382"/>
<polygon fill="#758297" stroke="#758297" stroke-width="1.8" points="408.94,-1384.8 416.94,-1382 408.94,-1379.2 408.94,-1384.8"/>
</g>
<!-- n0&#45;&gt;n1 -->
<g id="edge9" class="edge">
<title>n0&#45;&gt;n1</title>
<path fill="none" stroke="#758297" stroke-width="1.8" d="M300.56,-1368C300.56,-1368 408.94,-1368 408.94,-1368"/>
<polygon fill="#758297" stroke="#758297" stroke-width="1.8" points="408.94,-1370.8 416.94,-1368 408.94,-1365.2 408.94,-1370.8"/>
</g>
<!-- n0&#45;&gt;n1 -->
<g id="edge17" class="edge">
<title>n0&#45;&gt;n1</title>
<path fill="none" stroke="#758297" stroke-width="1.8" stroke-dasharray="5,2" d="M300.56,-1353C300.56,-1353 408.94,-1353 408.94,-1353"/>
<polygon fill="#758297" stroke="#758297" stroke-width="1.8" points="408.94,-1355.8 416.94,-1353 408.94,-1350.2 408.94,-1355.8"/>
</g>
<!-- n0&#45;&gt;n3 -->
<g id="edge19" class="edge">
<title>n0&#45;&gt;n3</title>
<path fill="none" stroke="#758297" stroke-width="1.8" stroke-dasharray="5,2" d="M100.08,-1411.34C100.08,-1421.1 100.08,-1429 100.08,-1429 100.08,-1429 1485.18,-1429 1485.18,-1429 1485.18,-1429 1485.18,-1422.07 1485.18,-1422.07"/>
<polygon fill="#758297" stroke="#758297" stroke-width="1.8" points="1487.98,-1422.07 1485.18,-1414.07 1482.38,-1422.07 1487.98,-1422.07"/>
</g>
<!-- n1&#45;&gt;n0 -->
<g id="edge16" class="edge">
<title>n1&#45;&gt;n0</title>
<path fill="none" stroke="#758297" stroke-width="1.8" d="M419.68,-1397C419.68,-1397 311.3,-1397 311.3,-1397"/>
<polygon fill="#758297" stroke="#758297" stroke-width="1.8" points="311.3,-1394.2 303.3,-1397 311.3,-1399.8 311.3,-1394.2"/>
</g>
<!-- n1&#45;&gt;n2 -->
<g id="edge2" class="edge">
<title>n1&#45;&gt;n2</title>
<path fill="none" stroke="#758297" stroke-width="1.8" d="M720.56,-1401C720.56,-1401 828.94,-1401 828.94,-1401"/>
<polygon fill="#758297" stroke="#758297" stroke-width="1.8" points="828.94,-1403.8 836.94,-1401 828.94,-1398.2 828.94,-1403.8"/>
</g>
<!-- n1&#45;&gt;n2 -->
<g id="edge10" class="edge">
<title>n1&#45;&gt;n2</title>
<path fill="none" stroke="#758297" stroke-width="1.8" d="M720.56,-1391C720.56,-1391 828.94,-1391 828.94,-1391"/>
<polygon fill="#758297" stroke="#758297" stroke-width="1.8" points="828.94,-1393.8 836.94,-1391 828.94,-1388.2 828.94,-1393.8"/>
</g>
<!-- n1&#45;&gt;n2 -->
<g id="edge15" class="edge">
<title>n1&#45;&gt;n2</title>
<path fill="none" stroke="#758297" stroke-width="1.8" d="M720.56,-1380C720.56,-1380 828.94,-1380 828.94,-1380"/>
<polygon fill="#758297" stroke="#758297" stroke-width="1.8" points="828.94,-1382.8 836.94,-1380 828.94,-1377.2 828.94,-1382.8"/>
</g>
<!-- n1&#45;&gt;n2 -->
<g id="edge18" class="edge">
<title>n1&#45;&gt;n2</title>
<path fill="none" stroke="#758297" stroke-width="1.8" d="M720.56,-1370C720.56,-1370 828.94,-1370 828.94,-1370"/>
<polygon fill="#758297" stroke="#758297" stroke-width="1.8" points="828.94,-1372.8 836.94,-1370 828.94,-1367.2 828.94,-1372.8"/>
</g>
<!-- n1&#45;&gt;n3 -->
<g id="edge4" class="edge">
<title>n1&#45;&gt;n3</title>
<path fill="none" stroke="#758297" stroke-width="1.8" d="M570.12,-1411.34C570.12,-1416.45 570.12,-1420 570.12,-1420 570.12,-1420 1410.12,-1420 1410.12,-1420 1410.12,-1420 1410.12,-1419.13 1410.12,-1419.13"/>
<polygon fill="#758297" stroke="#758297" stroke-width="1.8" points="1412.92,-1422.06 1410.12,-1414.06 1407.32,-1422.06 1412.92,-1422.06"/>
</g>
<!-- n1&#45;&gt;r12p1 -->
<g id="edge12" class="edge">
<title>n1&#45;&gt;r12p1</title>
<path fill="none" stroke="#758297" stroke-width="1.8" d="M634.12,-1338.89C634.12,-1129.56 634.12,-81.51 634.12,-36.57"/>
</g>
<!-- n2&#45;&gt;n1 -->
<g id="edge3" class="edge">
<title>n2&#45;&gt;n1</title>
<path fill="none" stroke="#758297" stroke-width="1.8" stroke-dasharray="5,2" d="M839.68,-1360C839.68,-1360 731.3,-1360 731.3,-1360"/>
<polygon fill="#758297" stroke="#758297" stroke-width="1.8" points="731.3,-1357.2 723.3,-1360 731.3,-1362.8 731.3,-1357.2"/>
</g>
<!-- n2&#45;&gt;n1 -->
<g id="edge11" class="edge">
<title>n2&#45;&gt;n1</title>
<path fill="none" stroke="#758297" stroke-width="1.8" stroke-dasharray="5,2" d="M839.68,-1349C839.68,-1349 731.3,-1349 731.3,-1349"/>
<polygon fill="#758297" stroke="#758297" stroke-width="1.8" points="731.3,-1346.2 723.3,-1349 731.3,-1351.8 731.3,-1346.2"/>
</g>
<!-- n3&#45;&gt;n0 -->
<g id="edge8" class="edge">
<title>n3&#45;&gt;n0</title>
<path fill="none" stroke="#758297" stroke-width="1.8" d="M1335.06,-1411.32C1335.06,-1425.3 1335.06,-1438 1335.06,-1438 1335.06,-1438 200.16,-1438 200.16,-1438 200.16,-1438 200.16,-1422.04 200.16,-1422.04"/>
<polygon fill="#758297" stroke="#758297" stroke-width="1.8" points="202.96,-1422.04 200.16,-1414.04 197.36,-1422.04 202.96,-1422.04"/>
</g>
<!-- n3&#45;&gt;n2 -->
<g id="edge7" class="edge">
<title>n3&#45;&gt;n2</title>
<path fill="none" stroke="#758297" stroke-width="1.8" d="M1259.68,-1363C1259.68,-1363 1151.3,-1363 1151.3,-1363"/>
<polygon fill="#758297" stroke="#758297" stroke-width="1.8" points="1151.3,-1360.2 1143.3,-1363 1151.3,-1365.8 1151.3,-1360.2"/>
</g>
<!-- n3&#45;&gt;n2 -->
<g id="edge21" class="edge">
<title>n3&#45;&gt;n2</title>
<path fill="none" stroke="#758297" stroke-width="1.8" d="M1259.68,-1387C1259.68,-1387 1151.3,-1387 1151.3,-1387"/>
<polygon fill="#758297" stroke="#758297" stroke-width="1.8" points="1151.3,-1384.2 1143.3,-1387 1151.3,-1389.8 1151.3,-1384.2"/>
</g>
<!-- n3&#45;&gt;n4 -->
<g id="edge5" class="edge">
<title>n3&#45;&gt;n4</title>
<path fill="none" stroke="#758297" stroke-width="1.8" d="M1560.56,-1375C1560.56,-1375 1668.94,-1375 1668.94,-1375"/>
<polygon fill="#758297" stroke="#758297" stroke-width="1.8" points="1668.94,-1377.8 1676.94,-1375 1668.94,-1372.2 1668.94,-1377.8"/>
</g>
<!-- n3&#45;&gt;n4 -->
<g id="edge20" class="edge">
<title>n3&#45;&gt;n4</title>
<path fill="none" stroke="#758297" stroke-width="1.8" d="M1560.56,-1357C1560.56,-1357 1668.94,-1357 1668.94,-1357"/>
<polygon fill="#758297" stroke="#758297" stroke-width="1.8" points="1668.94,-1359.8 1676.94,-1357 1668.94,-1354.2 1668.94,-1359.8"/>
</g>
<!-- n4&#45;&gt;n3 -->
<g id="edge6" class="edge">
<title>n4&#45;&gt;n3</title>
<path fill="none" stroke="#758297" stroke-width="1.8" stroke-dasharray="5,2" d="M1679.68,-1393C1679.68,-1393 1571.3,-1393 1571.3,-1393"/>
<polygon fill="#758297" stroke="#758297" stroke-width="1.8" points="1571.3,-1390.2 1563.3,-1393 1571.3,-1395.8 1571.3,-1390.2"/>
</g>
<!-- r12p1&#45;&gt;r12p2 -->
<g id="edge13" class="edge">
<title>r12p1&#45;&gt;r12p2</title>
<path fill="none" stroke="#758297" stroke-width="1.8" d="M634.12,-33.62C634.12,-28.03 634.12,-8.02 634.12,-2.5"/>
</g>
<!-- r12p2&#45;&gt;n1 -->
<g id="edge14" class="edge">
<title>r12p2&#45;&gt;n1</title>
<path fill="none" stroke="#758297" stroke-width="1.8" d="M635.57,-1C643.14,-1 677.72,-1 677.72,-1 677.72,-1 677.72,-1327.96 677.72,-1327.96"/>
<polygon fill="#758297" stroke="#758297" stroke-width="1.8" points="674.92,-1327.96 677.72,-1335.96 680.52,-1327.96 674.92,-1327.96"/>
</g>
<!-- n0 -->
<g id="node1" class="node">
<title>n0</title>
<path fill="#ffffff" stroke="#5b8def" d="M288.24,-1411.08C288.24,-1411.08 12,-1411.08 12,-1411.08 6,-1411.08 0,-1405.08 0,-1399.08 0,-1399.08 0,-1351.08 0,-1351.08 0,-1345.08 6,-1339.08 12,-1339.08 12,-1339.08 288.24,-1339.08 288.24,-1339.08 294.24,-1339.08 300.24,-1345.08 300.24,-1351.08 300.24,-1351.08 300.24,-1399.08 300.24,-1399.08 300.24,-1405.08 294.24,-1411.08 288.24,-1411.08"/>
<text xml:space="preserve" text-anchor="middle" x="150.12" y="-1370.73" font-family="Architects Daughter" font-size="18.00">Caller</text>
</g>
<!-- n1 -->
<g id="node2" class="node">
<title>n1</title>
<path fill="#ffffff" stroke="#58a978" d="M708.24,-1411.08C708.24,-1411.08 432,-1411.08 432,-1411.08 426,-1411.08 420,-1405.08 420,-1399.08 420,-1399.08 420,-1351.08 420,-1351.08 420,-1345.08 426,-1339.08 432,-1339.08 432,-1339.08 708.24,-1339.08 708.24,-1339.08 714.24,-1339.08 720.24,-1345.08 720.24,-1351.08 720.24,-1351.08 720.24,-1399.08 720.24,-1399.08 720.24,-1405.08 714.24,-1411.08 708.24,-1411.08"/>
<text xml:space="preserve" text-anchor="middle" x="570.12" y="-1370.73" font-family="Architects Daughter" font-size="18.00">Leader Election</text>
</g>
<!-- n2 -->
<g id="node3" class="node">
<title>n2</title>
<path fill="#ffffff" stroke="#d6a441" d="M1128.24,-1411.08C1128.24,-1411.08 852,-1411.08 852,-1411.08 846,-1411.08 840,-1405.08 840,-1399.08 840,-1399.08 840,-1351.08 840,-1351.08 840,-1345.08 846,-1339.08 852,-1339.08 852,-1339.08 1128.24,-1339.08 1128.24,-1339.08 1134.24,-1339.08 1140.24,-1345.08 1140.24,-1351.08 1140.24,-1351.08 1140.24,-1399.08 1140.24,-1399.08 1140.24,-1405.08 1134.24,-1411.08 1128.24,-1411.08"/>
<text xml:space="preserve" text-anchor="middle" x="990.12" y="-1370.73" font-family="Architects Daughter" font-size="18.00">LockStateHolder</text>
</g>
<!-- n3 -->
<g id="node4" class="node">
<title>n3</title>
<path fill="#ffffff" stroke="#dc6b82" d="M1548.24,-1411.08C1548.24,-1411.08 1272,-1411.08 1272,-1411.08 1266,-1411.08 1260,-1405.08 1260,-1399.08 1260,-1399.08 1260,-1351.08 1260,-1351.08 1260,-1345.08 1266,-1339.08 1272,-1339.08 1272,-1339.08 1548.24,-1339.08 1548.24,-1339.08 1554.24,-1339.08 1560.24,-1345.08 1560.24,-1351.08 1560.24,-1351.08 1560.24,-1399.08 1560.24,-1399.08 1560.24,-1405.08 1554.24,-1411.08 1548.24,-1411.08"/>
<text xml:space="preserve" text-anchor="middle" x="1410.12" y="-1370.73" font-family="Architects Daughter" font-size="18.00">LeaderElector</text>
</g>
<!-- n4 -->
<g id="node5" class="node">
<title>n4</title>
<path fill="#ffffff" stroke="#45a7a1" d="M1968.24,-1411.08C1968.24,-1411.08 1692,-1411.08 1692,-1411.08 1686,-1411.08 1680,-1405.08 1680,-1399.08 1680,-1399.08 1680,-1351.08 1680,-1351.08 1680,-1345.08 1686,-1339.08 1692,-1339.08 1692,-1339.08 1968.24,-1339.08 1968.24,-1339.08 1974.24,-1339.08 1980.24,-1345.08 1980.24,-1351.08 1980.24,-1351.08 1980.24,-1399.08 1980.24,-1399.08 1980.24,-1405.08 1974.24,-1411.08 1968.24,-1411.08"/>
<text xml:space="preserve" text-anchor="middle" x="1830.12" y="-1370.73" font-family="Architects Daughter" font-size="18.00">Redis / Mongo / ...</text>
</g>
<!-- r12p1 -->
<!-- r12p2 -->
</g>
</svg>
