<?xml version="1.0" encoding="UTF-8" standalone="no"?>
<!DOCTYPE svg PUBLIC "-//W3C//DTD SVG 1.1//EN"
 "http://www.w3.org/Graphics/SVG/1.1/DTD/svg11.dtd">
<!-- Generated by graphviz version 15.0.0 (20260523.1842)
 -->
<!-- Title: leader&#45;redis&#45;redisson&#45;sequence&#45;03 Pages: 1 -->
<svg width="1036pt" height="483pt"
 viewBox="0.00 0.00 1036.00 483.00" xmlns="http://www.w3.org/2000/svg" xmlns:xlink="http://www.w3.org/1999/xlink">
<g id="graph0" class="graph" transform="scale(1 1) rotate(0) translate(4 478.5)">
<title>leader&#45;redis&#45;redisson&#45;sequence&#45;03</title>
<text xml:space="preserve" text-anchor="middle" x="513.84" y="-457.2" font-family="Times,serif" font-size="14.00">Scenario 2 — minLeaseTime via update.</text>
<!-- n0&#45;&gt;n2 -->
<g id="edge1" class="edge">
<title>n0&#45;&gt;n2</title>
<path fill="none" stroke="#758297" stroke-width="1.8" d="M91.87,-421.36C91.87,-429.1 91.87,-435 91.87,-435 91.87,-435 889.87,-435 889.87,-435 889.87,-435 889.87,-432.08 889.87,-432.08"/>
<polygon fill="#758297" stroke="#758297" stroke-width="1.8" points="892.67,-432.08 889.87,-424.08 887.07,-432.08 892.67,-432.08"/>
</g>
<!-- n0&#45;&gt;n2 -->
<g id="edge6" class="edge">
<title>n0&#45;&gt;n2</title>
<path fill="none" stroke="#758297" stroke-width="1.8" d="M45.94,-421.43C45.94,-433.07 45.94,-443 45.94,-443 45.94,-443 935.81,-443 935.81,-443 935.81,-443 935.81,-432.16 935.81,-432.16"/>
<polygon fill="#758297" stroke="#758297" stroke-width="1.8" points="938.61,-432.16 935.81,-424.16 933.01,-432.16 938.61,-432.16"/>
</g>
<!-- n0&#45;&gt;r3p1 -->
<g id="edge3" class="edge">
<title>n0&#45;&gt;r3p1</title>
<path fill="none" stroke="#758297" stroke-width="1.8" d="M178.84,-348.61C178.84,-263.17 178.84,-55.77 178.84,-36.52"/>
</g>
<!-- n1&#45;&gt;n2 -->
<g id="edge8" class="edge">
<title>n1&#45;&gt;n2</title>
<path fill="none" stroke="#758297" stroke-width="1.8" d="M628.98,-363C628.98,-363 786.82,-363 786.82,-363"/>
<polygon fill="#758297" stroke="#758297" stroke-width="1.8" points="786.82,-365.8 794.82,-363 786.82,-360.2 786.82,-365.8"/>
</g>
<!-- n1&#45;&gt;n2 -->
<g id="edge10" class="edge">
<title>n1&#45;&gt;n2</title>
<path fill="none" stroke="#758297" stroke-width="1.8" d="M628.98,-378C628.98,-378 786.82,-378 786.82,-378"/>
<polygon fill="#758297" stroke="#758297" stroke-width="1.8" points="786.82,-380.8 794.82,-378 786.82,-375.2 786.82,-380.8"/>
</g>
<!-- n2&#45;&gt;n0 -->
<g id="edge2" class="edge">
<title>n2&#45;&gt;n0</title>
<path fill="none" stroke="#758297" stroke-width="1.8" stroke-dasharray="5,2" d="M981.74,-421.34C981.74,-436.21 981.74,-450 981.74,-450 981.74,-450 137.81,-450 137.81,-450 137.81,-450 137.81,-432.06 137.81,-432.06"/>
<polygon fill="#758297" stroke="#758297" stroke-width="1.8" points="140.61,-432.06 137.81,-424.06 135.01,-432.06 140.61,-432.06"/>
</g>
<!-- n2&#45;&gt;n0 -->
<g id="edge7" class="edge">
<title>n2&#45;&gt;n0</title>
<path fill="none" stroke="#758297" stroke-width="1.8" stroke-dasharray="5,2" d="M843.94,-421.29C843.94,-425.32 843.94,-428 843.94,-428 843.94,-428 183.74,-428 183.74,-428 183.74,-428 183.74,-427.33 183.74,-427.33"/>
<polygon fill="#758297" stroke="#758297" stroke-width="1.8" points="186.54,-432.02 183.74,-424.02 180.94,-432.02 186.54,-432.02"/>
</g>
<!-- n2&#45;&gt;n1 -->
<g id="edge9" class="edge">
<title>n2&#45;&gt;n1</title>
<path fill="none" stroke="#758297" stroke-width="1.8" stroke-dasharray="5,2" d="M797.7,-407C797.7,-407 639.86,-407 639.86,-407"/>
<polygon fill="#758297" stroke="#758297" stroke-width="1.8" points="639.86,-404.2 631.86,-407 639.86,-409.8 639.86,-404.2"/>
</g>
<!-- n2&#45;&gt;n1 -->
<g id="edge11" class="edge">
<title>n2&#45;&gt;n1</title>
<path fill="none" stroke="#758297" stroke-width="1.8" stroke-dasharray="5,2" d="M797.7,-392C797.7,-392 639.86,-392 639.86,-392"/>
<polygon fill="#758297" stroke="#758297" stroke-width="1.8" points="639.86,-389.2 631.86,-392 639.86,-394.8 639.86,-389.2"/>
</g>
<!-- r3p1&#45;&gt;r3p2 -->
<g id="edge4" class="edge">
<title>r3p1&#45;&gt;r3p2</title>
<path fill="none" stroke="#758297" stroke-width="1.8" d="M178.84,-33.62C178.84,-28.03 178.84,-8.02 178.84,-2.5"/>
</g>
<!-- r3p2&#45;&gt;n0 -->
<g id="edge5" class="edge">
<title>r3p2&#45;&gt;n0</title>
<path fill="none" stroke="#758297" stroke-width="1.8" d="M180.24,-1C185.63,-1 204.8,-1 204.8,-1 204.8,-1 204.8,-337.88 204.8,-337.88"/>
<polygon fill="#758297" stroke="#758297" stroke-width="1.8" points="202,-337.88 204.8,-345.88 207.6,-337.88 202,-337.88"/>
</g>
<!-- n0 -->
<g id="node1" class="node">
<title>n0</title>
<path fill="#ffffff" stroke="#5b8def" d="M217.68,-421.08C217.68,-421.08 12,-421.08 12,-421.08 6,-421.08 0,-415.08 0,-409.08 0,-409.08 0,-361.08 0,-361.08 0,-355.08 6,-349.08 12,-349.08 12,-349.08 217.68,-349.08 217.68,-349.08 223.68,-349.08 229.68,-355.08 229.68,-361.08 229.68,-361.08 229.68,-409.08 229.68,-409.08 229.68,-415.08 223.68,-421.08 217.68,-421.08"/>
<text xml:space="preserve" text-anchor="middle" x="114.84" y="-380.73" font-family="Architects Daughter" font-size="18.00">ClientA</text>
</g>
<!-- n1 -->
<g id="node2" class="node">
<title>n1</title>
<path fill="#ffffff" stroke="#58a978" d="M616.68,-421.08C616.68,-421.08 411,-421.08 411,-421.08 405,-421.08 399,-415.08 399,-409.08 399,-409.08 399,-361.08 399,-361.08 399,-355.08 405,-349.08 411,-349.08 411,-349.08 616.68,-349.08 616.68,-349.08 622.68,-349.08 628.68,-355.08 628.68,-361.08 628.68,-361.08 628.68,-409.08 628.68,-409.08 628.68,-415.08 622.68,-421.08 616.68,-421.08"/>
<text xml:space="preserve" text-anchor="middle" x="513.84" y="-380.73" font-family="Architects Daughter" font-size="18.00">ClientB</text>
</g>
<!-- n2 -->
<g id="node3" class="node">
<title>n2</title>
<path fill="#ffffff" stroke="#d6a441" d="M1015.68,-421.08C1015.68,-421.08 810,-421.08 810,-421.08 804,-421.08 798,-415.08 798,-409.08 798,-409.08 798,-361.08 798,-361.08 798,-355.08 804,-349.08 810,-349.08 810,-349.08 1015.68,-349.08 1015.68,-349.08 1021.68,-349.08 1027.68,-355.08 1027.68,-361.08 1027.68,-361.08 1027.68,-409.08 1027.68,-409.08 1027.68,-415.08 1021.68,-421.08 1015.68,-421.08"/>
<text xml:space="preserve" text-anchor="middle" x="912.84" y="-380.73" font-family="Architects Daughter" font-size="18.00">Redis</text>
</g>
<!-- r3p1 -->
<!-- r3p2 -->
</g>
</svg>
