<?xml version="1.0" encoding="UTF-8" standalone="no"?>
<!DOCTYPE svg PUBLIC "-//W3C//DTD SVG 1.1//EN"
 "http://www.w3.org/Graphics/SVG/1.1/DTD/svg11.dtd">
<!-- Generated by graphviz version 15.0.0 (20260523.1842)
 -->
<!-- Title: leader&#45;zookeeper&#45;class&#45;01 Pages: 1 -->
<svg width="2218pt" height="409pt"
 viewBox="0.00 0.00 2218.00 409.00" xmlns="http://www.w3.org/2000/svg" xmlns:xlink="http://www.w3.org/1999/xlink">
<g id="graph0" class="graph" transform="scale(1 1) rotate(0) translate(4 404.74)">
<title>leader&#45;zookeeper&#45;class&#45;01</title>
<text xml:space="preserve" text-anchor="middle" x="1105.16" y="-383.44" font-family="Times,serif" font-size="14.00">leader zookeeper Class Structure</text>
<!-- n1&#45;&gt;r4p1 -->
<g id="edge10" class="edge">
<title>n1&#45;&gt;r4p1</title>
<path fill="none" stroke="#758297" stroke-width="1.8" d="M788.46,-128.64C788.46,-157.25 788.46,-187.43 788.46,-194.52"/>
</g>
<!-- n1&#45;&gt;r8p1 -->
<g id="edge22" class="edge">
<title>n1&#45;&gt;r8p1</title>
<path fill="none" stroke="#758297" stroke-width="1.8" stroke-dasharray="5,2" d="M788.46,-128.64C788.46,-157.25 788.46,-187.43 788.46,-194.52"/>
</g>
<!-- n3&#45;&gt;r3p1 -->
<g id="edge7" class="edge">
<title>n3&#45;&gt;r3p1</title>
<path fill="none" stroke="#758297" stroke-width="1.8" d="M155.16,-128.53C155.16,-157.85 155.16,-187.58 155.16,-194.55"/>
</g>
<!-- n3&#45;&gt;r6p1 -->
<g id="edge16" class="edge">
<title>n3&#45;&gt;r6p1</title>
<path fill="none" stroke="#758297" stroke-width="1.8" stroke-dasharray="5,2" d="M155.16,-128.53C155.16,-157.85 155.16,-187.58 155.16,-194.55"/>
</g>
<!-- n6&#45;&gt;r2p1 -->
<g id="edge4" class="edge">
<title>n6&#45;&gt;r2p1</title>
<path fill="none" stroke="#758297" stroke-width="1.8" d="M1421.86,-128.62C1421.86,-154.99 1421.86,-180.74 1421.86,-186.76"/>
</g>
<!-- n6&#45;&gt;r7p1 -->
<g id="edge19" class="edge">
<title>n6&#45;&gt;r7p1</title>
<path fill="none" stroke="#758297" stroke-width="1.8" stroke-dasharray="5,2" d="M1421.86,-128.53C1421.86,-157.85 1421.86,-187.58 1421.86,-194.55"/>
</g>
<!-- n8&#45;&gt;r1p1 -->
<g id="edge1" class="edge">
<title>n8&#45;&gt;r1p1</title>
<path fill="none" stroke="#758297" stroke-width="1.8" d="M2055.16,-128.62C2055.16,-154.99 2055.16,-180.74 2055.16,-186.76"/>
</g>
<!-- n8&#45;&gt;r5p1 -->
<g id="edge13" class="edge">
<title>n8&#45;&gt;r5p1</title>
<path fill="none" stroke="#758297" stroke-width="1.8" stroke-dasharray="5,2" d="M2055.16,-128.62C2055.16,-154.99 2055.16,-180.74 2055.16,-186.76"/>
</g>
<!-- r1p1&#45;&gt;r1p2 -->
<g id="edge2" class="edge">
<title>r1p1&#45;&gt;r1p2</title>
<path fill="none" stroke="#758297" stroke-width="1.8" d="M2053.93,-188.08C2020.75,-188.08 1328.76,-188.08 1296.34,-188.08"/>
</g>
<!-- r1p2&#45;&gt;n7 -->
<g id="edge3" class="edge">
<title>r1p2&#45;&gt;n7</title>
<path fill="none" stroke="#758297" stroke-width="1.8" d="M1295.16,-189.47C1295.16,-194.8 1295.16,-214.72 1295.16,-237"/>
<polygon fill="#758297" stroke="#758297" stroke-width="1.8" points="1292.36,-236.99 1295.16,-244.99 1297.96,-236.99 1292.36,-236.99"/>
</g>
<!-- r2p1&#45;&gt;r2p2 -->
<g id="edge5" class="edge">
<title>r2p1&#45;&gt;r2p2</title>
<path fill="none" stroke="#758297" stroke-width="1.8" d="M1420.44,-188.08C1407.5,-188.08 1310.34,-188.08 1296.74,-188.08"/>
</g>
<!-- r2p2&#45;&gt;n7 -->
<g id="edge6" class="edge">
<title>r2p2&#45;&gt;n7</title>
<path fill="none" stroke="#758297" stroke-width="1.8" d="M1295.16,-189.47C1295.16,-194.8 1295.16,-214.72 1295.16,-237"/>
<polygon fill="#758297" stroke="#758297" stroke-width="1.8" points="1292.36,-236.99 1295.16,-244.99 1297.96,-236.99 1292.36,-236.99"/>
</g>
<!-- r3p1&#45;&gt;r3p2 -->
<g id="edge8" class="edge">
<title>r3p1&#45;&gt;r3p2</title>
<path fill="none" stroke="#758297" stroke-width="1.8" d="M156.54,-196.08C180.44,-196.08 508.03,-196.08 533.58,-196.08"/>
</g>
<!-- r3p2&#45;&gt;n2 -->
<g id="edge9" class="edge">
<title>r3p2&#45;&gt;n2</title>
<path fill="none" stroke="#758297" stroke-width="1.8" d="M535.16,-197.47C535.16,-203.44 535.16,-227.67 535.16,-253.04"/>
<polygon fill="#758297" stroke="#758297" stroke-width="1.8" points="532.36,-252.82 535.16,-260.82 537.96,-252.82 532.36,-252.82"/>
</g>
<!-- r4p1&#45;&gt;r4p2 -->
<g id="edge11" class="edge">
<title>r4p1&#45;&gt;r4p2</title>
<path fill="none" stroke="#758297" stroke-width="1.8" d="M787.33,-196.08C769.91,-196.08 556.61,-196.08 536.66,-196.08"/>
</g>
<!-- r4p2&#45;&gt;n2 -->
<g id="edge12" class="edge">
<title>r4p2&#45;&gt;n2</title>
<path fill="none" stroke="#758297" stroke-width="1.8" d="M535.16,-197.47C535.16,-203.44 535.16,-227.67 535.16,-253.04"/>
<polygon fill="#758297" stroke="#758297" stroke-width="1.8" points="532.36,-252.82 535.16,-260.82 537.96,-252.82 532.36,-252.82"/>
</g>
<!-- r5p1&#45;&gt;r5p2 -->
<g id="edge14" class="edge">
<title>r5p1&#45;&gt;r5p2</title>
<path fill="none" stroke="#758297" stroke-width="1.8" stroke-dasharray="5,2" d="M2055.16,-188.08C2055.16,-188.08 2055.16,-188.08 2055.16,-188.08"/>
</g>
<!-- r5p2&#45;&gt;n9 -->
<g id="edge15" class="edge">
<title>r5p2&#45;&gt;n9</title>
<path fill="none" stroke="#758297" stroke-width="1.8" stroke-dasharray="5,2" d="M2055.16,-189.47C2055.16,-194.8 2055.16,-214.72 2055.16,-237"/>
<polygon fill="none" stroke="#758297" stroke-width="1.8" points="2052.36,-236.99 2055.16,-244.99 2057.96,-236.99 2052.36,-236.99"/>
</g>
<!-- r6p1&#45;&gt;r6p2 -->
<g id="edge17" class="edge">
<title>r6p1&#45;&gt;r6p2</title>
<path fill="none" stroke="#758297" stroke-width="1.8" stroke-dasharray="5,2" d="M155.16,-196.08C155.16,-196.08 155.16,-196.08 155.16,-196.08"/>
</g>
<!-- r6p2&#45;&gt;n4 -->
<g id="edge18" class="edge">
<title>r6p2&#45;&gt;n4</title>
<path fill="none" stroke="#758297" stroke-width="1.8" stroke-dasharray="5,2" d="M155.16,-197.47C155.16,-203.44 155.16,-227.67 155.16,-253.04"/>
<polygon fill="none" stroke="#758297" stroke-width="1.8" points="152.36,-252.82 155.16,-260.82 157.96,-252.82 152.36,-252.82"/>
</g>
<!-- r7p1&#45;&gt;r7p2 -->
<g id="edge20" class="edge">
<title>r7p1&#45;&gt;r7p2</title>
<path fill="none" stroke="#758297" stroke-width="1.8" stroke-dasharray="5,2" d="M1422.99,-196.08C1440.41,-196.08 1653.71,-196.08 1673.66,-196.08"/>
</g>
<!-- r7p2&#45;&gt;n5 -->
<g id="edge21" class="edge">
<title>r7p2&#45;&gt;n5</title>
<path fill="none" stroke="#758297" stroke-width="1.8" stroke-dasharray="5,2" d="M1675.16,-197.47C1675.16,-203.44 1675.16,-227.67 1675.16,-253.04"/>
<polygon fill="none" stroke="#758297" stroke-width="1.8" points="1672.36,-252.82 1675.16,-260.82 1677.96,-252.82 1672.36,-252.82"/>
</g>
<!-- r8p1&#45;&gt;r8p2 -->
<g id="edge23" class="edge">
<title>r8p1&#45;&gt;r8p2</title>
<path fill="none" stroke="#758297" stroke-width="1.8" stroke-dasharray="5,2" d="M789.88,-196.08C802.82,-196.08 899.98,-196.08 913.58,-196.08"/>
</g>
<!-- r8p2&#45;&gt;n0 -->
<g id="edge24" class="edge">
<title>r8p2&#45;&gt;n0</title>
<path fill="none" stroke="#758297" stroke-width="1.8" stroke-dasharray="5,2" d="M915.16,-197.47C915.16,-203.44 915.16,-227.67 915.16,-253.04"/>
<polygon fill="none" stroke="#758297" stroke-width="1.8" points="912.36,-252.82 915.16,-260.82 917.96,-252.82 912.36,-252.82"/>
</g>
<!-- n0 -->
<g id="node1" class="node">
<title>n0</title>
<path fill="#ffffff" stroke="#5b8def" d="M1058.32,-376.24C1058.32,-376.24 772,-376.24 772,-376.24 766,-376.24 760,-370.24 760,-364.24 760,-364.24 760,-275.92 760,-275.92 760,-269.92 766,-263.92 772,-263.92 772,-263.92 1058.32,-263.92 1058.32,-263.92 1064.32,-263.92 1070.32,-269.92 1070.32,-275.92 1070.32,-275.92 1070.32,-364.24 1070.32,-364.24 1070.32,-370.24 1064.32,-376.24 1058.32,-376.24"/>
<text xml:space="preserve" text-anchor="middle" x="915.16" y="-315.73" font-family="Architects Daughter" font-size="18.00">LeaderElector</text>
</g>
<!-- n1 -->
<g id="node2" class="node">
<title>n1</title>
<path fill="#ffffff" stroke="#58a978" d="M931.62,-128.24C931.62,-128.24 645.3,-128.24 645.3,-128.24 639.3,-128.24 633.3,-122.24 633.3,-116.24 633.3,-116.24 633.3,-27.92 633.3,-27.92 633.3,-21.92 639.3,-15.92 645.3,-15.92 645.3,-15.92 931.62,-15.92 931.62,-15.92 937.62,-15.92 943.62,-21.92 943.62,-27.92 943.62,-27.92 943.62,-116.24 943.62,-116.24 943.62,-122.24 937.62,-128.24 931.62,-128.24"/>
<text xml:space="preserve" text-anchor="middle" x="788.46" y="-67.73" font-family="Architects Daughter" font-size="18.00">ZooKeeperLeaderElector</text>
</g>
<!-- n2 -->
<g id="node3" class="node">
<title>n2</title>
<path fill="#ffffff" stroke="#d6a441" d="M678.32,-376.24C678.32,-376.24 392,-376.24 392,-376.24 386,-376.24 380,-370.24 380,-364.24 380,-364.24 380,-275.92 380,-275.92 380,-269.92 386,-263.92 392,-263.92 392,-263.92 678.32,-263.92 678.32,-263.92 684.32,-263.92 690.32,-269.92 690.32,-275.92 690.32,-275.92 690.32,-364.24 690.32,-364.24 690.32,-370.24 684.32,-376.24 678.32,-376.24"/>
<text xml:space="preserve" text-anchor="middle" x="535.16" y="-315.73" font-family="Architects Daughter" font-size="18.00">InterProcessMutex</text>
</g>
<!-- n3 -->
<g id="node4" class="node">
<title>n3</title>
<path fill="#ffffff" stroke="#dc6b82" d="M298.32,-128.16C298.32,-128.16 12,-128.16 12,-128.16 6,-128.16 0,-122.16 0,-116.16 0,-116.16 0,-12 0,-12 0,-6 6,0 12,0 12,0 298.32,0 298.32,0 304.32,0 310.32,-6 310.32,-12 310.32,-12 310.32,-116.16 310.32,-116.16 310.32,-122.16 304.32,-128.16 298.32,-128.16"/>
<text xml:space="preserve" text-anchor="middle" x="155.16" y="-59.73" font-family="Architects Daughter" font-size="18.00">Zoo Keeper Suspend</text>
</g>
<!-- n4 -->
<g id="node5" class="node">
<title>n4</title>
<path fill="#ffffff" stroke="#45a7a1" d="M298.32,-376.24C298.32,-376.24 12,-376.24 12,-376.24 6,-376.24 0,-370.24 0,-364.24 0,-364.24 0,-275.92 0,-275.92 0,-269.92 6,-263.92 12,-263.92 12,-263.92 298.32,-263.92 298.32,-263.92 304.32,-263.92 310.32,-269.92 310.32,-275.92 310.32,-275.92 310.32,-364.24 310.32,-364.24 310.32,-370.24 304.32,-376.24 298.32,-376.24"/>
<text xml:space="preserve" text-anchor="middle" x="155.16" y="-315.73" font-family="Architects Daughter" font-size="18.00">SuspendLeaderElector</text>
</g>
<!-- n5 -->
<g id="node6" class="node">
<title>n5</title>
<path fill="#ffffff" stroke="#8a72d6" d="M1818.32,-376.24C1818.32,-376.24 1532,-376.24 1532,-376.24 1526,-376.24 1520,-370.24 1520,-364.24 1520,-364.24 1520,-275.92 1520,-275.92 1520,-269.92 1526,-263.92 1532,-263.92 1532,-263.92 1818.32,-263.92 1818.32,-263.92 1824.32,-263.92 1830.32,-269.92 1830.32,-275.92 1830.32,-275.92 1830.32,-364.24 1830.32,-364.24 1830.32,-370.24 1824.32,-376.24 1818.32,-376.24"/>
<text xml:space="preserve" text-anchor="middle" x="1675.16" y="-315.73" font-family="Architects Daughter" font-size="18.00">LeaderGroupElector</text>
</g>
<!-- n6 -->
<g id="node7" class="node">
<title>n6</title>
<path fill="#ffffff" stroke="#b88a44" d="M1565.02,-128.16C1565.02,-128.16 1278.7,-128.16 1278.7,-128.16 1272.7,-128.16 1266.7,-122.16 1266.7,-116.16 1266.7,-116.16 1266.7,-12 1266.7,-12 1266.7,-6 1272.7,0 1278.7,0 1278.7,0 1565.02,0 1565.02,0 1571.02,0 1577.02,-6 1577.02,-12 1577.02,-12 1577.02,-116.16 1577.02,-116.16 1577.02,-122.16 1571.02,-128.16 1565.02,-128.16"/>
<text xml:space="preserve" text-anchor="middle" x="1421.86" y="-59.73" font-family="Architects Daughter" font-size="18.00">Zoo Keeper Leader</text>
</g>
<!-- n7 -->
<g id="node8" class="node">
<title>n7</title>
<path fill="#ffffff" stroke="#8ba84d" d="M1438.32,-376.16C1438.32,-376.16 1152,-376.16 1152,-376.16 1146,-376.16 1140,-370.16 1140,-364.16 1140,-364.16 1140,-260 1140,-260 1140,-254 1146,-248 1152,-248 1152,-248 1438.32,-248 1438.32,-248 1444.32,-248 1450.32,-254 1450.32,-260 1450.32,-260 1450.32,-364.16 1450.32,-364.16 1450.32,-370.16 1444.32,-376.16 1438.32,-376.16"/>
<text xml:space="preserve" text-anchor="middle" x="1295.16" y="-307.73" font-family="Architects Daughter" font-size="18.00">Inter Process</text>
</g>
<!-- n8 -->
<g id="node9" class="node">
<title>n8</title>
<path fill="#ffffff" stroke="#5b8def" d="M2198.32,-128.16C2198.32,-128.16 1912,-128.16 1912,-128.16 1906,-128.16 1900,-122.16 1900,-116.16 1900,-116.16 1900,-12 1900,-12 1900,-6 1906,0 1912,0 1912,0 2198.32,0 2198.32,0 2204.32,0 2210.32,-6 2210.32,-12 2210.32,-12 2210.32,-116.16 2210.32,-116.16 2210.32,-122.16 2204.32,-128.16 2198.32,-128.16"/>
<text xml:space="preserve" text-anchor="middle" x="2055.16" y="-59.73" font-family="Architects Daughter" font-size="18.00">Zoo Keeper Suspend</text>
</g>
<!-- n9 -->
<g id="node10" class="node">
<title>n9</title>
<path fill="#ffffff" stroke="#58a978" d="M2198.32,-376.16C2198.32,-376.16 1912,-376.16 1912,-376.16 1906,-376.16 1900,-370.16 1900,-364.16 1900,-364.16 1900,-260 1900,-260 1900,-254 1906,-248 1912,-248 1912,-248 2198.32,-248 2198.32,-248 2204.32,-248 2210.32,-254 2210.32,-260 2210.32,-260 2210.32,-364.16 2210.32,-364.16 2210.32,-370.16 2204.32,-376.16 2198.32,-376.16"/>
<text xml:space="preserve" text-anchor="middle" x="2055.16" y="-307.73" font-family="Architects Daughter" font-size="18.00">Suspend Leader Group</text>
</g>
<!-- r1p1 -->
<!-- r1p2 -->
<!-- r2p1 -->
<!-- r2p2 -->
<!-- r3p1 -->
<!-- r3p2 -->
<!-- r4p1 -->
<!-- r4p2 -->
<!-- r5p1 -->
<!-- r5p2 -->
<!-- r6p1 -->
<!-- r6p2 -->
<!-- r7p1 -->
<!-- r7p2 -->
<!-- r8p1 -->
<!-- r8p2 -->
</g>
</svg>
