<?xml version="1.0" encoding="UTF-8" standalone="no"?>
<!DOCTYPE svg PUBLIC "-//W3C//DTD SVG 1.1//EN"
 "http://www.w3.org/Graphics/SVG/1.1/DTD/svg11.dtd">
<!-- Generated by graphviz version 15.0.0 (20260523.1842)
 -->
<!-- Title: leader&#45;mongodb&#45;class&#45;01 Pages: 1 -->
<svg width="8257pt" height="524pt"
 viewBox="0.00 0.00 8257.00 524.00" xmlns="http://www.w3.org/2000/svg" xmlns:xlink="http://www.w3.org/1999/xlink">
<g id="graph0" class="graph" transform="scale(1 1) rotate(0) translate(4 520)">
<title>leader&#45;mongodb&#45;class&#45;01</title>
<!-- leaderContract -->
<g id="node1" class="node">
<title>leaderContract</title>
<path fill="#f8fafc" stroke="#94a3b8" d="M2061.75,-264C2061.75,-264 1139.75,-264 1139.75,-264 1133.75,-264 1127.75,-258 1127.75,-252 1127.75,-252 1127.75,-240 1127.75,-240 1127.75,-234 1133.75,-228 1139.75,-228 1139.75,-228 2061.75,-228 2061.75,-228 2067.75,-228 2073.75,-234 2073.75,-240 2073.75,-240 2073.75,-252 2073.75,-252 2073.75,-258 2067.75,-264 2061.75,-264"/>
<text xml:space="preserve" text-anchor="middle" x="1600.75" y="-240.57" font-family="Comic Mono" font-size="14.00">&lt;&lt;core interface&gt;&gt;\nLeaderElector\n+ runIfLeader(lockName): T?\n+ runAsyncIfLeader(lockName)\n+ state(lockName): LeaderState</text>
</g>
<!-- suspendContract -->
<g id="node2" class="node">
<title>suspendContract</title>
<path fill="#f8fafc" stroke="#94a3b8" d="M1061.5,-264C1061.5,-264 12,-264 12,-264 6,-264 0,-258 0,-252 0,-252 0,-240 0,-240 0,-234 6,-228 12,-228 12,-228 1061.5,-228 1061.5,-228 1067.5,-228 1073.5,-234 1073.5,-240 1073.5,-240 1073.5,-252 1073.5,-252 1073.5,-258 1067.5,-264 1061.5,-264"/>
<text xml:space="preserve" text-anchor="middle" x="536.75" y="-240.57" font-family="Comic Mono" font-size="14.00">&lt;&lt;core suspend interface&gt;&gt;\nSuspendLeaderElector\n+ suspend runIfLeader(lockName)\n+ runIfLeaderResultSuspend(slot)\ncoroutine context handle</text>
</g>
<!-- groupContract -->
<g id="node3" class="node">
<title>groupContract</title>
<path fill="#f8fafc" stroke="#94a3b8" d="M7021.75,-264C7021.75,-264 6099.75,-264 6099.75,-264 6093.75,-264 6087.75,-258 6087.75,-252 6087.75,-252 6087.75,-240 6087.75,-240 6087.75,-234 6093.75,-228 6099.75,-228 6099.75,-228 7021.75,-228 7021.75,-228 7027.75,-228 7033.75,-234 7033.75,-240 7033.75,-240 7033.75,-252 7033.75,-252 7033.75,-258 7027.75,-264 7021.75,-264"/>
<text xml:space="preserve" text-anchor="middle" x="6560.75" y="-240.57" font-family="Comic Mono" font-size="14.00">&lt;&lt;core group interface&gt;&gt;\nLeaderGroupElector\n+ maxLeaders: Int\n+ runIfLeader(lockName): T?\n+ activeCount / availableSlots</text>
</g>
<!-- suspendGroupContract -->
<g id="node4" class="node">
<title>suspendGroupContract</title>
<path fill="#f8fafc" stroke="#94a3b8" d="M8237.25,-264C8237.25,-264 7210.25,-264 7210.25,-264 7204.25,-264 7198.25,-258 7198.25,-252 7198.25,-252 7198.25,-240 7198.25,-240 7198.25,-234 7204.25,-228 7210.25,-228 7210.25,-228 8237.25,-228 8237.25,-228 8243.25,-228 8249.25,-234 8249.25,-240 8249.25,-240 8249.25,-252 8249.25,-252 8249.25,-258 8243.25,-264 8237.25,-264"/>
<text xml:space="preserve" text-anchor="middle" x="7723.75" y="-240.57" font-family="Comic Mono" font-size="14.00">&lt;&lt;core suspend group&gt;&gt;\nSuspendLeaderGroupElector\n+ maxLeaders: Int\n+ suspend runIfLeader(lockName)\n+ state(lockName): LeaderGroupState</text>
</g>
<!-- mongoLeader -->
<g id="node5" class="node">
<title>mongoLeader</title>
<path fill="#f8fafc" stroke="#94a3b8" d="M3373,-150C3373,-150 2158.5,-150 2158.5,-150 2152.5,-150 2146.5,-144 2146.5,-138 2146.5,-138 2146.5,-126 2146.5,-126 2146.5,-120 2152.5,-114 2158.5,-114 2158.5,-114 3373,-114 3373,-114 3379,-114 3385,-120 3385,-126 3385,-126 3385,-138 3385,-138 3385,-144 3379,-150 3373,-150"/>
<text xml:space="preserve" text-anchor="middle" x="2765.75" y="-126.58" font-family="Comic Mono" font-size="14.00">&lt;&lt;blocking + async implementation&gt;&gt;\nMongoLeaderElector\nsync MongoCollection&lt;Document&gt;\ncreates MongoLock\nautoExtend watchdog optional\nhistory recorder optional</text>
</g>
<!-- mongoLeader&#45;&gt;leaderContract -->
<g id="edge1" class="edge">
<title>mongoLeader&#45;&gt;leaderContract</title>
<path fill="none" stroke="#4f83bf" d="M2146.04,-138C2126.96,-138 2116,-138 2116,-138 2116,-138 2116,-252 2116,-252 2116,-252 2083.35,-252 2083.35,-252"/>
<polygon fill="#4f83bf" stroke="#4f83bf" points="2083.35,-249.2 2075.35,-252 2083.35,-254.8 2083.35,-249.2"/>
<text xml:space="preserve" text-anchor="middle" x="1619.12" y="-185.5" font-family="Comic Mono" font-size="10.00">inherit</text>
</g>
<!-- singleDelegates -->
<g id="node10" class="node">
<title>singleDelegates</title>
<path fill="#f8fafc" stroke="#94a3b8" d="M3391.75,-264C3391.75,-264 2139.75,-264 2139.75,-264 2133.75,-264 2127.75,-258 2127.75,-252 2127.75,-252 2127.75,-240 2127.75,-240 2127.75,-234 2133.75,-228 2139.75,-228 2139.75,-228 3391.75,-228 3391.75,-228 3397.75,-228 3403.75,-234 3403.75,-240 3403.75,-240 3403.75,-252 3403.75,-252 3403.75,-258 3397.75,-264 3391.75,-264"/>
<text xml:space="preserve" text-anchor="middle" x="2765.75" y="-240.57" font-family="Comic Mono" font-size="14.00">&lt;&lt;renewal delegates&gt;&gt;\nSingle Extend Delegates\nMongoLockExtendDelegate\nMongoSuspendLockExtendDelegate\nshare lock with LeaderLockHandle\nclassify Mongo backend errors</text>
</g>
<!-- mongoLeader&#45;&gt;singleDelegates -->
<g id="edge9" class="edge">
<title>mongoLeader&#45;&gt;singleDelegates</title>
<path fill="none" stroke="#b9851b" d="M2765.75,-150.32C2765.75,-150.32 2765.75,-218.22 2765.75,-218.22"/>
<polygon fill="#b9851b" stroke="#b9851b" points="2762.95,-218.22 2765.75,-226.22 2768.55,-218.22 2762.95,-218.22"/>
<text xml:space="preserve" text-anchor="middle" x="2805.12" y="-185.5" font-family="Comic Mono" font-size="10.00">handle delegate</text>
</g>
<!-- history -->
<g id="node15" class="node">
<title>history</title>
<path fill="#f8fafc" stroke="#94a3b8" d="M4774,-264C4774,-264 3469.5,-264 3469.5,-264 3463.5,-264 3457.5,-258 3457.5,-252 3457.5,-252 3457.5,-240 3457.5,-240 3457.5,-234 3463.5,-228 3469.5,-228 3469.5,-228 4774,-228 4774,-228 4780,-228 4786,-234 4786,-240 4786,-240 4786,-252 4786,-252 4786,-258 4780,-264 4774,-264"/>
<text xml:space="preserve" text-anchor="middle" x="4121.75" y="-240.57" font-family="Comic Mono" font-size="14.00">&lt;&lt;optional audit store&gt;&gt;\nMongo History Sink\nMongoLeaderHistorySink\ncollection bluetape4k_leader_history\nrecords ACQUIRED/COMPLETED/FAILED\nindexer adds TTL retention index</text>
</g>
<!-- mongoLeader&#45;&gt;history -->
<g id="edge21" class="edge">
<title>mongoLeader&#45;&gt;history</title>
<path fill="none" stroke="#2e8f89" d="M3385.27,-132C3411.76,-132 3427.42,-132 3427.42,-132 3427.42,-132 3427.42,-255 3427.42,-255 3427.42,-255 3447.74,-255 3447.74,-255"/>
<polygon fill="#2e8f89" stroke="#2e8f89" points="3447.74,-257.8 3455.74,-255 3447.74,-252.2 3447.74,-257.8"/>
<text xml:space="preserve" text-anchor="middle" x="3481.88" y="-185.5" font-family="Comic Mono" font-size="10.00">event</text>
</g>
<!-- mongoSuspend -->
<g id="node6" class="node">
<title>mongoSuspend</title>
<path fill="#f8fafc" stroke="#94a3b8" d="M2080.5,-150C2080.5,-150 821,-150 821,-150 815,-150 809,-144 809,-138 809,-138 809,-126 809,-126 809,-120 815,-114 821,-114 821,-114 2080.5,-114 2080.5,-114 2086.5,-114 2092.5,-120 2092.5,-126 2092.5,-126 2092.5,-138 2092.5,-138 2092.5,-144 2086.5,-150 2080.5,-150"/>
<text xml:space="preserve" text-anchor="middle" x="1450.75" y="-126.58" font-family="Comic Mono" font-size="14.00">&lt;&lt;coroutine implementation&gt;&gt;\nMongoSuspendLeaderElector\nCoroutineMongoCollection&lt;Document&gt;\ncreates MongoSuspendLock\nwithContext(handle element)\nNonCancellable unlock</text>
</g>
<!-- mongoSuspend&#45;&gt;suspendContract -->
<g id="edge2" class="edge">
<title>mongoSuspend&#45;&gt;suspendContract</title>
<path fill="none" stroke="#4f83bf" d="M941.25,-150.32C941.25,-150.32 941.25,-218.22 941.25,-218.22"/>
<polygon fill="#4f83bf" stroke="#4f83bf" points="938.45,-218.22 941.25,-226.22 944.05,-218.22 938.45,-218.22"/>
<text xml:space="preserve" text-anchor="middle" x="555.12" y="-185.5" font-family="Comic Mono" font-size="10.00">inherit</text>
</g>
<!-- mongoSuspend&#45;&gt;singleDelegates -->
<g id="edge10" class="edge">
<title>mongoSuspend&#45;&gt;singleDelegates</title>
<path fill="none" stroke="#b9851b" d="M2083.12,-150.32C2083.12,-181.13 2083.12,-240 2083.12,-240 2083.12,-240 2117.87,-240 2117.87,-240"/>
<polygon fill="#b9851b" stroke="#b9851b" points="2117.87,-242.8 2125.87,-240 2117.87,-237.2 2117.87,-242.8"/>
<text xml:space="preserve" text-anchor="middle" x="1496.75" y="-185.5" font-family="Comic Mono" font-size="10.00">suspend delegate</text>
</g>
<!-- mongoGroup -->
<g id="node7" class="node">
<title>mongoGroup</title>
<path fill="#f8fafc" stroke="#94a3b8" d="M6183.25,-150C6183.25,-150 5036.25,-150 5036.25,-150 5030.25,-150 5024.25,-144 5024.25,-138 5024.25,-138 5024.25,-126 5024.25,-126 5024.25,-120 5030.25,-114 5036.25,-114 5036.25,-114 6183.25,-114 6183.25,-114 6189.25,-114 6195.25,-120 6195.25,-126 6195.25,-126 6195.25,-138 6195.25,-138 6195.25,-144 6189.25,-150 6183.25,-150"/>
<text xml:space="preserve" text-anchor="middle" x="5609.75" y="-126.58" font-family="Comic Mono" font-size="14.00">&lt;&lt;slot group implementation&gt;&gt;\nMongoLeaderGroupElector\nsync group collection\nrandomized slot iteration\nslotKey lockName:slot:N\ngroup watchdog disabled</text>
</g>
<!-- mongoGroup&#45;&gt;groupContract -->
<g id="edge3" class="edge">
<title>mongoGroup&#45;&gt;groupContract</title>
<path fill="none" stroke="#4f83bf" d="M6141.5,-150.32C6141.5,-150.32 6141.5,-218.22 6141.5,-218.22"/>
<polygon fill="#4f83bf" stroke="#4f83bf" points="6138.7,-218.22 6141.5,-226.22 6144.3,-218.22 6138.7,-218.22"/>
<text xml:space="preserve" text-anchor="middle" x="6579.12" y="-185.5" font-family="Comic Mono" font-size="10.00">inherit</text>
</g>
<!-- slotDelegates -->
<g id="node11" class="node">
<title>slotDelegates</title>
<path fill="#f8fafc" stroke="#94a3b8" d="M6021.5,-264C6021.5,-264 4852,-264 4852,-264 4846,-264 4840,-258 4840,-252 4840,-252 4840,-240 4840,-240 4840,-234 4846,-228 4852,-228 4852,-228 6021.5,-228 6021.5,-228 6027.5,-228 6033.5,-234 6033.5,-240 6033.5,-240 6033.5,-252 6033.5,-252 6033.5,-258 6027.5,-264 6021.5,-264"/>
<text xml:space="preserve" text-anchor="middle" x="5436.75" y="-240.57" font-family="Comic Mono" font-size="14.00">&lt;&lt;group renewal delegates&gt;&gt;\nSlot Extend Delegates\nMongoSlotExtendDelegate\nMongoSuspendSlotExtendDelegate\nextend lockName:slot:N\nmanual LockExtender path</text>
</g>
<!-- mongoGroup&#45;&gt;slotDelegates -->
<g id="edge11" class="edge">
<title>mongoGroup&#45;&gt;slotDelegates</title>
<path fill="none" stroke="#755bc6" d="M5528.88,-150.32C5528.88,-150.32 5528.88,-218.22 5528.88,-218.22"/>
<polygon fill="#755bc6" stroke="#755bc6" points="5526.08,-218.22 5528.88,-226.22 5531.68,-218.22 5526.08,-218.22"/>
<text xml:space="preserve" text-anchor="middle" x="5557.88" y="-185.5" font-family="Comic Mono" font-size="10.00">slot delegate</text>
</g>
<!-- mongoGroup&#45;&gt;history -->
<g id="edge22" class="edge">
<title>mongoGroup&#45;&gt;history</title>
<path fill="none" stroke="#2e8f89" d="M5276.56,-150.35C5276.56,-167.01 5276.56,-189 5276.56,-189 5276.56,-189 4804.62,-189 4804.62,-189 4804.62,-189 4804.62,-246 4804.62,-246 4804.62,-246 4795.87,-246 4795.87,-246"/>
<polygon fill="#2e8f89" stroke="#2e8f89" points="4795.87,-243.2 4787.87,-246 4795.87,-248.8 4795.87,-243.2"/>
<text xml:space="preserve" text-anchor="middle" x="5227.88" y="-185.5" font-family="Comic Mono" font-size="10.00">event</text>
</g>
<!-- mongoSuspendGroup -->
<g id="node8" class="node">
<title>mongoSuspendGroup</title>
<path fill="#f8fafc" stroke="#94a3b8" d="M7627.75,-150C7627.75,-150 6375.75,-150 6375.75,-150 6369.75,-150 6363.75,-144 6363.75,-138 6363.75,-138 6363.75,-126 6363.75,-126 6363.75,-120 6369.75,-114 6375.75,-114 6375.75,-114 7627.75,-114 7627.75,-114 7633.75,-114 7639.75,-120 7639.75,-126 7639.75,-126 7639.75,-138 7639.75,-138 7639.75,-144 7633.75,-150 7627.75,-150"/>
<text xml:space="preserve" text-anchor="middle" x="7001.75" y="-126.58" font-family="Comic Mono" font-size="14.00">&lt;&lt;coroutine slot group&gt;&gt;\nMongoSuspend Group\nMongoSuspendLeaderGroupElector\nsync collection for state queries\ncoroutine collection for locks\nsame namespace required</text>
</g>
<!-- mongoSuspendGroup&#45;&gt;suspendGroupContract -->
<g id="edge4" class="edge">
<title>mongoSuspendGroup&#45;&gt;suspendGroupContract</title>
<path fill="none" stroke="#4f83bf" d="M7419,-150.32C7419,-150.32 7419,-218.22 7419,-218.22"/>
<polygon fill="#4f83bf" stroke="#4f83bf" points="7416.2,-218.22 7419,-226.22 7421.8,-218.22 7416.2,-218.22"/>
<text xml:space="preserve" text-anchor="middle" x="7742.12" y="-185.5" font-family="Comic Mono" font-size="10.00">inherit</text>
</g>
<!-- mongoSuspendGroup&#45;&gt;slotDelegates -->
<g id="edge12" class="edge">
<title>mongoSuspendGroup&#45;&gt;slotDelegates</title>
<path fill="none" stroke="#755bc6" d="M6698.75,-150.4C6698.75,-172.89 6698.75,-208 6698.75,-208 6698.75,-208 5781.19,-208 5781.19,-208 5781.19,-208 5781.19,-218.38 5781.19,-218.38"/>
<polygon fill="#755bc6" stroke="#755bc6" points="5778.39,-218.38 5781.19,-226.38 5783.99,-218.38 5778.39,-218.38"/>
<text xml:space="preserve" text-anchor="middle" x="6857.25" y="-185.5" font-family="Comic Mono" font-size="10.00">suspend slot</text>
</g>
<!-- dualCollections -->
<g id="node17" class="node">
<title>dualCollections</title>
<path fill="#f8fafc" stroke="#94a3b8" d="M7470.25,-333C7470.25,-333 5903.25,-333 5903.25,-333 5897.25,-333 5891.25,-327 5891.25,-321 5891.25,-321 5891.25,-309 5891.25,-309 5891.25,-303 5897.25,-297 5903.25,-297 5903.25,-297 7470.25,-297 7470.25,-297 7476.25,-297 7482.25,-303 7482.25,-309 7482.25,-309 7482.25,-321 7482.25,-321 7482.25,-327 7476.25,-333 7470.25,-333"/>
<text xml:space="preserve" text-anchor="middle" x="6686.75" y="-309.57" font-family="Comic Mono" font-size="14.00">&lt;&lt;namespace invariant&gt;&gt;\nSuspend Group Dual Collections\nsync MongoCollection: activeCount/state\nCoroutineMongoCollection: acquire/release\ncollection namespace must match\nTTL monitor can lag up to 60 seconds</text>
</g>
<!-- mongoSuspendGroup&#45;&gt;dualCollections -->
<g id="edge19" class="edge">
<title>mongoSuspendGroup&#45;&gt;dualCollections</title>
<path fill="none" stroke="#758297" d="M7116,-150.22C7116,-150.22 7116,-287.07 7116,-287.07"/>
<polygon fill="#758297" stroke="#758297" points="7113.2,-287.07 7116,-295.07 7118.8,-287.07 7113.2,-287.07"/>
<text xml:space="preserve" text-anchor="middle" x="7142" y="-185.5" font-family="Comic Mono" font-size="10.00">dependency</text>
</g>
<!-- factories -->
<g id="node9" class="node">
<title>factories</title>
<path fill="#f8fafc" stroke="#94a3b8" d="M4217,-36C4217,-36 2792.5,-36 2792.5,-36 2786.5,-36 2780.5,-30 2780.5,-24 2780.5,-24 2780.5,-12 2780.5,-12 2780.5,-6 2786.5,0 2792.5,0 2792.5,0 4217,0 4217,0 4223,0 4229,-6 4229,-12 4229,-12 4229,-24 4229,-24 4229,-30 4223,-36 4217,-36"/>
<text xml:space="preserve" text-anchor="middle" x="3504.75" y="-12.57" font-family="Comic Mono" font-size="14.00">&lt;&lt;factory + module options&gt;&gt;\nFactory And Options\nMongoLeaderElectorFactory\nMongoLeaderGroupElectorFactory\nMongoLeaderElectionOptions.retryDelay\nMongoLeaderGroupElectionOptions.maxLeaders</text>
</g>
<!-- factories&#45;&gt;mongoLeader -->
<g id="edge5" class="edge">
<title>factories&#45;&gt;mongoLeader</title>
<path fill="none" stroke="#758297" d="M3082.75,-36.32C3082.75,-36.32 3082.75,-104.22 3082.75,-104.22"/>
<polygon fill="#758297" stroke="#758297" points="3079.95,-104.22 3082.75,-112.22 3085.55,-104.22 3079.95,-104.22"/>
<text xml:space="preserve" text-anchor="middle" x="3475" y="-71.5" font-family="Comic Mono" font-size="10.00">dependency</text>
</g>
<!-- factories&#45;&gt;mongoSuspend -->
<g id="edge6" class="edge">
<title>factories&#45;&gt;mongoSuspend</title>
<path fill="none" stroke="#758297" d="M2780.14,-18C2438.32,-18 2104.25,-18 2104.25,-18 2104.25,-18 2104.25,-126 2104.25,-126 2104.25,-126 2102.42,-126 2102.42,-126"/>
<polygon fill="#758297" stroke="#758297" points="2102.42,-123.2 2094.42,-126 2102.42,-128.8 2102.42,-123.2"/>
<text xml:space="preserve" text-anchor="middle" x="2762" y="-71.5" font-family="Comic Mono" font-size="10.00">dependency</text>
</g>
<!-- factories&#45;&gt;mongoGroup -->
<g id="edge7" class="edge">
<title>factories&#45;&gt;mongoGroup</title>
<path fill="none" stroke="#758297" d="M4229.41,-24C4609.59,-24 4997.25,-24 4997.25,-24 4997.25,-24 4997.25,-132 4997.25,-132 4997.25,-132 5014.45,-132 5014.45,-132"/>
<polygon fill="#758297" stroke="#758297" points="5014.45,-134.8 5022.45,-132 5014.45,-129.2 5014.45,-134.8"/>
<text xml:space="preserve" text-anchor="middle" x="4953" y="-71.5" font-family="Comic Mono" font-size="10.00">dependency</text>
</g>
<!-- factories&#45;&gt;mongoSuspendGroup -->
<g id="edge8" class="edge">
<title>factories&#45;&gt;mongoSuspendGroup</title>
<path fill="none" stroke="#758297" d="M4229.25,-12C5051.39,-12 6279.5,-12 6279.5,-12 6279.5,-12 6279.5,-132 6279.5,-132 6279.5,-132 6353.9,-132 6353.9,-132"/>
<polygon fill="#758297" stroke="#758297" points="6353.9,-134.8 6361.9,-132 6353.9,-129.2 6353.9,-134.8"/>
<text xml:space="preserve" text-anchor="middle" x="6445" y="-71.5" font-family="Comic Mono" font-size="10.00">dependency</text>
</g>
<!-- mongoLock -->
<g id="node12" class="node">
<title>mongoLock</title>
<path fill="#f8fafc" stroke="#94a3b8" d="M5984,-402C5984,-402 4889.5,-402 4889.5,-402 4883.5,-402 4877.5,-396 4877.5,-390 4877.5,-390 4877.5,-378 4877.5,-378 4877.5,-372 4883.5,-366 4889.5,-366 4889.5,-366 5984,-366 5984,-366 5990,-366 5996,-372 5996,-378 5996,-378 5996,-390 5996,-390 5996,-396 5990,-402 5984,-402"/>
<text xml:space="preserve" text-anchor="middle" x="5436.75" y="-378.57" font-family="Comic Mono" font-size="14.00">&lt;&lt;findOneAndUpdate lock&gt;&gt;\nMongoLock\ntoken: Base58 fencing value\nexpired filter + upsert AFTER\nE11000 means contended\ndelete or minLease update</text>
</g>
<!-- singleDelegates&#45;&gt;mongoLock -->
<g id="edge13" class="edge">
<title>singleDelegates&#45;&gt;mongoLock</title>
<path fill="none" stroke="#b9851b" d="M3394.38,-227.75C3394.38,-204.98 3394.38,-169 3394.38,-169 3394.38,-169 4831.62,-169 4831.62,-169 4831.62,-169 4831.62,-378 4831.62,-378 4831.62,-378 4867.59,-378 4867.59,-378"/>
<polygon fill="#b9851b" stroke="#b9851b" points="4867.59,-380.8 4875.59,-378 4867.59,-375.2 4867.59,-380.8"/>
<text xml:space="preserve" text-anchor="middle" x="4416.62" y="-311.5" font-family="Comic Mono" font-size="10.00">sync extend</text>
</g>
<!-- mongoSuspendLock -->
<g id="node13" class="node">
<title>mongoSuspendLock</title>
<path fill="#f8fafc" stroke="#94a3b8" d="M4811.25,-402C4811.25,-402 3634.25,-402 3634.25,-402 3628.25,-402 3622.25,-396 3622.25,-390 3622.25,-390 3622.25,-378 3622.25,-378 3622.25,-372 3628.25,-366 3634.25,-366 3634.25,-366 4811.25,-366 4811.25,-366 4817.25,-366 4823.25,-372 4823.25,-378 4823.25,-378 4823.25,-390 4823.25,-390 4823.25,-396 4817.25,-402 4811.25,-402"/>
<text xml:space="preserve" text-anchor="middle" x="4222.75" y="-378.57" font-family="Comic Mono" font-size="14.00">&lt;&lt;coroutine Mongo lock&gt;&gt;\nMongoSuspendLock\ncoroutine driver retry loop\nensureActive while acquiring\ntoken check before unlock\nsame extendDetailed contract</text>
</g>
<!-- singleDelegates&#45;&gt;mongoSuspendLock -->
<g id="edge14" class="edge">
<title>singleDelegates&#45;&gt;mongoSuspendLock</title>
<path fill="none" stroke="#b9851b" d="M3404.03,-237C3411.52,-237 3415.58,-237 3415.58,-237 3415.58,-237 3415.58,-384 3415.58,-384 3415.58,-384 3612.36,-384 3612.36,-384"/>
<polygon fill="#b9851b" stroke="#b9851b" points="3612.36,-386.8 3620.36,-384 3612.36,-381.2 3612.36,-386.8"/>
<text xml:space="preserve" text-anchor="middle" x="3506.88" y="-311.5" font-family="Comic Mono" font-size="10.00">local</text>
</g>
<!-- slotDelegates&#45;&gt;mongoLock -->
<g id="edge15" class="edge">
<title>slotDelegates&#45;&gt;mongoLock</title>
<path fill="none" stroke="#755bc6" d="M5384.38,-264.33C5384.38,-264.33 5384.38,-356.09 5384.38,-356.09"/>
<polygon fill="#755bc6" stroke="#755bc6" points="5381.58,-356.09 5384.38,-364.09 5387.18,-356.09 5381.58,-356.09"/>
<text xml:space="preserve" text-anchor="middle" x="5447.25" y="-311.5" font-family="Comic Mono" font-size="10.00">slot</text>
</g>
<!-- slotDelegates&#45;&gt;mongoSuspendLock -->
<g id="edge16" class="edge">
<title>slotDelegates&#45;&gt;mongoSuspendLock</title>
<path fill="none" stroke="#755bc6" d="M4858.75,-264.24C4858.75,-302.99 4858.75,-390 4858.75,-390 4858.75,-390 4833.16,-390 4833.16,-390"/>
<polygon fill="#755bc6" stroke="#755bc6" points="4833.16,-387.2 4825.16,-390 4833.16,-392.8 4833.16,-387.2"/>
<text xml:space="preserve" text-anchor="middle" x="4941.25" y="-311.5" font-family="Comic Mono" font-size="10.00">suspend slot</text>
</g>
<!-- mongoCollections -->
<g id="node14" class="node">
<title>mongoCollections</title>
<path fill="#f8fafc" stroke="#94a3b8" d="M6047.75,-516C6047.75,-516 4825.75,-516 4825.75,-516 4819.75,-516 4813.75,-510 4813.75,-504 4813.75,-504 4813.75,-492 4813.75,-492 4813.75,-486 4819.75,-480 4825.75,-480 4825.75,-480 6047.75,-480 6047.75,-480 6053.75,-480 6059.75,-486 6059.75,-492 6059.75,-492 6059.75,-504 6059.75,-504 6059.75,-510 6053.75,-516 6047.75,-516"/>
<text xml:space="preserve" text-anchor="middle" x="5436.75" y="-492.57" font-family="Comic Mono" font-size="14.00">&lt;&lt;TTL document store&gt;&gt;\nMongo Lock Collections\nbluetape4k_leader_locks\nbluetape4k_leader_group_locks\nfields: _id, token, expireAt\nTTL index expireAfterSeconds=0</text>
</g>
<!-- mongoLock&#45;&gt;mongoCollections -->
<g id="edge17" class="edge">
<title>mongoLock&#45;&gt;mongoCollections</title>
<path fill="none" stroke="#758297" d="M5436.75,-402.32C5436.75,-402.32 5436.75,-470.22 5436.75,-470.22"/>
<polygon fill="#758297" stroke="#758297" points="5433.95,-470.22 5436.75,-478.22 5439.55,-470.22 5433.95,-470.22"/>
<text xml:space="preserve" text-anchor="middle" x="5478.75" y="-437.5" font-family="Comic Mono" font-size="10.00">findOneAndUpdate</text>
</g>
<!-- mongoSuspendLock&#45;&gt;mongoCollections -->
<g id="edge18" class="edge">
<title>mongoSuspendLock&#45;&gt;mongoCollections</title>
<path fill="none" stroke="#758297" d="M4818.5,-402.32C4818.5,-402.32 4818.5,-470.22 4818.5,-470.22"/>
<polygon fill="#758297" stroke="#758297" points="4815.7,-470.22 4818.5,-478.22 4821.3,-470.22 4815.7,-470.22"/>
<text xml:space="preserve" text-anchor="middle" x="4800.75" y="-437.5" font-family="Comic Mono" font-size="10.00">coroutine driver</text>
</g>
<!-- classifier -->
<g id="node16" class="node">
<title>classifier</title>
<path fill="#f8fafc" stroke="#94a3b8" d="M4958.25,-150C4958.25,-150 3451.25,-150 3451.25,-150 3445.25,-150 3439.25,-144 3439.25,-138 3439.25,-138 3439.25,-126 3439.25,-126 3439.25,-120 3445.25,-114 3451.25,-114 3451.25,-114 4958.25,-114 4958.25,-114 4964.25,-114 4970.25,-120 4970.25,-126 4970.25,-126 4970.25,-138 4970.25,-138 4970.25,-144 4964.25,-150 4958.25,-150"/>
<text xml:space="preserve" text-anchor="middle" x="4204.75" y="-126.58" font-family="Comic Mono" font-size="14.00">&lt;&lt;watchdog error policy&gt;&gt;\nMongoBackendErrorClassifier\ntimeout / socket &#45;&gt; transient\nnot primary / recovering &#45;&gt; transient\nauth / write concern &#45;&gt; non&#45;transient\nfeeds CompositeBackendErrorClassifier</text>
</g>
<!-- classifier&#45;&gt;singleDelegates -->
<g id="edge23" class="edge">
<title>classifier&#45;&gt;singleDelegates</title>
<path fill="none" stroke="#2e8f89" d="M3448.38,-150.32C3448.38,-182.54 3448.38,-246 3448.38,-246 3448.38,-246 3413.63,-246 3413.63,-246"/>
<polygon fill="#2e8f89" stroke="#2e8f89" points="3413.63,-243.2 3405.63,-246 3413.63,-248.8 3413.63,-243.2"/>
<text xml:space="preserve" text-anchor="middle" x="3849.88" y="-185.5" font-family="Comic Mono" font-size="10.00">event</text>
</g>
<!-- classifier&#45;&gt;slotDelegates -->
<g id="edge24" class="edge">
<title>classifier&#45;&gt;slotDelegates</title>
<path fill="none" stroke="#2e8f89" d="M4905.12,-150.32C4905.12,-150.32 4905.12,-218.22 4905.12,-218.22"/>
<polygon fill="#2e8f89" stroke="#2e8f89" points="4902.33,-218.22 4905.13,-226.22 4907.93,-218.22 4902.33,-218.22"/>
<text xml:space="preserve" text-anchor="middle" x="4833.88" y="-185.5" font-family="Comic Mono" font-size="10.00">event</text>
</g>
<!-- dualCollections&#45;&gt;mongoCollections -->
<g id="edge20" class="edge">
<title>dualCollections&#45;&gt;mongoCollections</title>
<path fill="none" stroke="#758297" d="M6027.88,-333.22C6027.88,-333.22 6027.88,-470.07 6027.88,-470.07"/>
<polygon fill="#758297" stroke="#758297" points="6025.08,-470.07 6027.88,-478.07 6030.68,-470.07 6025.08,-470.07"/>
<text xml:space="preserve" text-anchor="middle" x="6406.25" y="-380.5" font-family="Comic Mono" font-size="10.00">uses</text>
</g>
</g>
</svg>
