<?xml version="1.0" encoding="UTF-8" standalone="no"?>
<!DOCTYPE svg PUBLIC "-//W3C//DTD SVG 1.1//EN"
 "http://www.w3.org/Graphics/SVG/1.1/DTD/svg11.dtd">
<!-- Generated by graphviz version 15.0.0 (20260523.1842)
 -->
<!-- Title: leader&#45;redis&#45;redisson&#45;sequence&#45;02 Pages: 1 -->
<svg width="1316pt" height="1606pt"
 viewBox="0.00 0.00 1316.00 1606.00" xmlns="http://www.w3.org/2000/svg" xmlns:xlink="http://www.w3.org/1999/xlink">
<g id="graph0" class="graph" transform="scale(1 1) rotate(0) translate(4 1601.5)">
<title>leader&#45;redis&#45;redisson&#45;sequence&#45;02</title>
<text xml:space="preserve" text-anchor="middle" x="654.12" y="-1580.2" font-family="Times,serif" font-size="14.00">Scenario 1 — Normal acquire/release plus cra.</text>
<!-- n0&#45;&gt;n2 -->
<g id="edge1" class="edge">
<title>n0&#45;&gt;n2</title>
<path fill="none" stroke="#758297" stroke-width="1.8" d="M30.02,-1541.34C30.02,-1556.21 30.02,-1570 30.02,-1570 30.02,-1570 1248.19,-1570 1248.19,-1570 1248.19,-1570 1248.19,-1552.06 1248.19,-1552.06"/>
<polygon fill="#758297" stroke="#758297" stroke-width="1.8" points="1250.99,-1552.06 1248.19,-1544.06 1245.39,-1552.06 1250.99,-1552.06"/>
</g>
<!-- n0&#45;&gt;n2 -->
<g id="edge2" class="edge">
<title>n0&#45;&gt;n2</title>
<path fill="none" stroke="#758297" stroke-width="1.8" d="M60.05,-1541.57C60.05,-1554.55 60.05,-1566 60.05,-1566 60.05,-1566 1218.17,-1566 1218.17,-1566 1218.17,-1566 1218.17,-1552.3 1218.17,-1552.3"/>
<polygon fill="#758297" stroke="#758297" stroke-width="1.8" points="1220.97,-1552.3 1218.17,-1544.3 1215.37,-1552.3 1220.97,-1552.3"/>
</g>
<!-- n0&#45;&gt;n2 -->
<g id="edge4" class="edge">
<title>n0&#45;&gt;n2</title>
<path fill="none" stroke="#758297" stroke-width="1.8" d="M90.07,-1541.43C90.07,-1553.07 90.07,-1563 90.07,-1563 90.07,-1563 1188.14,-1563 1188.14,-1563 1188.14,-1563 1188.14,-1552.16 1188.14,-1552.16"/>
<polygon fill="#758297" stroke="#758297" stroke-width="1.8" points="1190.94,-1552.16 1188.14,-1544.16 1185.34,-1552.16 1190.94,-1552.16"/>
</g>
<!-- n0&#45;&gt;n2 -->
<g id="edge11" class="edge">
<title>n0&#45;&gt;n2</title>
<path fill="none" stroke="#758297" stroke-width="1.8" d="M120.1,-1541.34C120.1,-1551.1 120.1,-1559 120.1,-1559 120.1,-1559 1158.12,-1559 1158.12,-1559 1158.12,-1559 1158.12,-1552.07 1158.12,-1552.07"/>
<polygon fill="#758297" stroke="#758297" stroke-width="1.8" points="1160.92,-1552.07 1158.12,-1544.07 1155.32,-1552.07 1160.92,-1552.07"/>
</g>
<!-- n0&#45;&gt;n2 -->
<g id="edge13" class="edge">
<title>n0&#45;&gt;n2</title>
<path fill="none" stroke="#758297" stroke-width="1.8" d="M150.12,-1541.36C150.12,-1549.1 150.12,-1555 150.12,-1555 150.12,-1555 1128.1,-1555 1128.1,-1555 1128.1,-1555 1128.1,-1552.08 1128.1,-1552.08"/>
<polygon fill="#758297" stroke="#758297" stroke-width="1.8" points="1130.9,-1552.08 1128.1,-1544.08 1125.3,-1552.08 1130.9,-1552.08"/>
</g>
<!-- n0&#45;&gt;r6p1 -->
<g id="edge6" class="edge">
<title>n0&#45;&gt;r6p1</title>
<path fill="none" stroke="#758297" stroke-width="1.8" d="M214.12,-1469C214.12,-1332.81 214.12,-856.18 214.12,-826.53"/>
</g>
<!-- n0&#45;&gt;r13p1 -->
<g id="edge15" class="edge">
<title>n0&#45;&gt;r13p1</title>
<path fill="none" stroke="#758297" stroke-width="1.8" d="M257.72,-1468.74C257.72,-1242.36 257.72,-35 257.72,-35 257.72,-35 223.14,-35 215.57,-35"/>
</g>
<!-- n1&#45;&gt;n2 -->
<g id="edge9" class="edge">
<title>n1&#45;&gt;n2</title>
<path fill="none" stroke="#758297" stroke-width="1.8" d="M804.65,-1527C804.65,-1527 997.2,-1527 997.2,-1527"/>
<polygon fill="#758297" stroke="#758297" stroke-width="1.8" points="997.2,-1529.8 1005.2,-1527 997.2,-1524.2 997.2,-1529.8"/>
</g>
<!-- n1&#45;&gt;n2 -->
<g id="edge18" class="edge">
<title>n1&#45;&gt;n2</title>
<path fill="none" stroke="#758297" stroke-width="1.8" d="M804.65,-1512C804.65,-1512 997.2,-1512 997.2,-1512"/>
<polygon fill="#758297" stroke="#758297" stroke-width="1.8" points="997.2,-1514.8 1005.2,-1512 997.2,-1509.2 997.2,-1514.8"/>
</g>
<!-- n2&#45;&gt;n0 -->
<g id="edge3" class="edge">
<title>n2&#45;&gt;n0</title>
<path fill="none" stroke="#758297" stroke-width="1.8" stroke-dasharray="5,2" d="M1098.07,-1541.12C1098.07,-1547.42 1098.07,-1552 1098.07,-1552 1098.07,-1552 210.17,-1552 210.17,-1552 210.17,-1552 210.17,-1550.91 210.17,-1550.91"/>
<polygon fill="#758297" stroke="#758297" stroke-width="1.8" points="212.97,-1551.84 210.17,-1543.84 207.37,-1551.84 212.97,-1551.84"/>
</g>
<!-- n2&#45;&gt;n0 -->
<g id="edge5" class="edge">
<title>n2&#45;&gt;n0</title>
<path fill="none" stroke="#758297" stroke-width="1.8" stroke-dasharray="5,2" d="M1068.05,-1541.29C1068.05,-1545.32 1068.05,-1548 1068.05,-1548 1068.05,-1548 240.19,-1548 240.19,-1548 240.19,-1548 240.19,-1547.33 240.19,-1547.33"/>
<polygon fill="#758297" stroke="#758297" stroke-width="1.8" points="242.99,-1552.02 240.19,-1544.02 237.39,-1552.02 242.99,-1552.02"/>
</g>
<!-- n2&#45;&gt;n0 -->
<g id="edge12" class="edge">
<title>n2&#45;&gt;n0</title>
<path fill="none" stroke="#758297" stroke-width="1.8" stroke-dasharray="5,2" d="M1038.02,-1541.32C1038.02,-1543.6 1038.02,-1545 1038.02,-1545 1038.02,-1545 270.22,-1545 270.22,-1545 270.22,-1545 270.22,-1544.63 270.22,-1544.63"/>
<polygon fill="#758297" stroke="#758297" stroke-width="1.8" points="273.02,-1552.04 270.22,-1544.04 267.42,-1552.04 273.02,-1552.04"/>
</g>
<!-- n2&#45;&gt;n0 -->
<g id="edge14" class="edge">
<title>n2&#45;&gt;n0</title>
<path fill="none" stroke="#758297" stroke-width="1.8" stroke-dasharray="5,2" d="M1278.22,-1541.43C1278.22,-1557.57 1278.22,-1573 1278.22,-1573 1278.22,-1573 180.14,-1573 180.14,-1573 180.14,-1573 180.14,-1552.15 180.14,-1552.15"/>
<polygon fill="#758297" stroke="#758297" stroke-width="1.8" points="182.94,-1552.15 180.14,-1544.15 177.34,-1552.15 182.94,-1552.15"/>
</g>
<!-- n2&#45;&gt;n1 -->
<g id="edge10" class="edge">
<title>n2&#45;&gt;n1</title>
<path fill="none" stroke="#758297" stroke-width="1.8" stroke-dasharray="5,2" d="M1007.59,-1498C1007.59,-1498 815.04,-1498 815.04,-1498"/>
<polygon fill="#758297" stroke="#758297" stroke-width="1.8" points="815.04,-1495.2 807.04,-1498 815.04,-1500.8 815.04,-1495.2"/>
</g>
<!-- n2&#45;&gt;n1 -->
<g id="edge19" class="edge">
<title>n2&#45;&gt;n1</title>
<path fill="none" stroke="#758297" stroke-width="1.8" stroke-dasharray="5,2" d="M1007.59,-1483C1007.59,-1483 815.04,-1483 815.04,-1483"/>
<polygon fill="#758297" stroke="#758297" stroke-width="1.8" points="815.04,-1480.2 807.04,-1483 815.04,-1485.8 815.04,-1480.2"/>
</g>
<!-- r6p1&#45;&gt;r6p2 -->
<g id="edge7" class="edge">
<title>r6p1&#45;&gt;r6p2</title>
<path fill="none" stroke="#758297" stroke-width="1.8" d="M214.12,-823.62C214.12,-818.03 214.12,-798.02 214.12,-792.5"/>
</g>
<!-- r6p2&#45;&gt;n0 -->
<g id="edge8" class="edge">
<title>r6p2&#45;&gt;n0</title>
<path fill="none" stroke="#758297" stroke-width="1.8" d="M215.59,-791C220.56,-791 236.46,-791 236.46,-791 236.46,-791 236.46,-1457.96 236.46,-1457.96"/>
<polygon fill="#758297" stroke="#758297" stroke-width="1.8" points="233.66,-1457.96 236.46,-1465.96 239.26,-1457.96 233.66,-1457.96"/>
</g>
<!-- r13p1&#45;&gt;r13p2 -->
<g id="edge16" class="edge">
<title>r13p1&#45;&gt;r13p2</title>
<path fill="none" stroke="#758297" stroke-width="1.8" d="M214.12,-33.62C214.12,-28.03 214.12,-8.02 214.12,-2.5"/>
</g>
<!-- r13p2&#45;&gt;n0 -->
<g id="edge17" class="edge">
<title>r13p2&#45;&gt;n0</title>
<path fill="none" stroke="#758297" stroke-width="1.8" d="M215.25,-1C223.86,-1 278.98,-1 278.98,-1 278.98,-1 278.98,-1457.92 278.98,-1457.92"/>
<polygon fill="#758297" stroke="#758297" stroke-width="1.8" points="276.18,-1457.92 278.98,-1465.92 281.78,-1457.92 276.18,-1457.92"/>
</g>
<!-- n0 -->
<g id="node1" class="node">
<title>n0</title>
<path fill="#ffffff" stroke="#5b8def" d="M288.24,-1541.08C288.24,-1541.08 12,-1541.08 12,-1541.08 6,-1541.08 0,-1535.08 0,-1529.08 0,-1529.08 0,-1481.08 0,-1481.08 0,-1475.08 6,-1469.08 12,-1469.08 12,-1469.08 288.24,-1469.08 288.24,-1469.08 294.24,-1469.08 300.24,-1475.08 300.24,-1481.08 300.24,-1481.08 300.24,-1529.08 300.24,-1529.08 300.24,-1535.08 294.24,-1541.08 288.24,-1541.08"/>
<text xml:space="preserve" text-anchor="middle" x="150.12" y="-1500.73" font-family="Architects Daughter" font-size="18.00">ClientA</text>
</g>
<!-- n1 -->
<g id="node2" class="node">
<title>n1</title>
<path fill="#ffffff" stroke="#58a978" d="M792.24,-1541.08C792.24,-1541.08 516,-1541.08 516,-1541.08 510,-1541.08 504,-1535.08 504,-1529.08 504,-1529.08 504,-1481.08 504,-1481.08 504,-1475.08 510,-1469.08 516,-1469.08 516,-1469.08 792.24,-1469.08 792.24,-1469.08 798.24,-1469.08 804.24,-1475.08 804.24,-1481.08 804.24,-1481.08 804.24,-1529.08 804.24,-1529.08 804.24,-1535.08 798.24,-1541.08 792.24,-1541.08"/>
<text xml:space="preserve" text-anchor="middle" x="654.12" y="-1500.73" font-family="Architects Daughter" font-size="18.00">ClientB</text>
</g>
<!-- n2 -->
<g id="node3" class="node">
<title>n2</title>
<path fill="#ffffff" stroke="#d6a441" d="M1296.24,-1541.08C1296.24,-1541.08 1020,-1541.08 1020,-1541.08 1014,-1541.08 1008,-1535.08 1008,-1529.08 1008,-1529.08 1008,-1481.08 1008,-1481.08 1008,-1475.08 1014,-1469.08 1020,-1469.08 1020,-1469.08 1296.24,-1469.08 1296.24,-1469.08 1302.24,-1469.08 1308.24,-1475.08 1308.24,-1481.08 1308.24,-1481.08 1308.24,-1529.08 1308.24,-1529.08 1308.24,-1535.08 1302.24,-1541.08 1296.24,-1541.08"/>
<text xml:space="preserve" text-anchor="middle" x="1158.12" y="-1500.73" font-family="Architects Daughter" font-size="18.00">Redis (RPermit</text>
</g>
<!-- r6p1 -->
<!-- r6p2 -->
<!-- r13p1 -->
<!-- r13p2 -->
</g>
</svg>
