<?xml version="1.0" encoding="UTF-8" standalone="no"?>
<!DOCTYPE svg PUBLIC "-//W3C//DTD SVG 1.1//EN"
 "http://www.w3.org/Graphics/SVG/1.1/DTD/svg11.dtd">
<!-- Generated by graphviz version 15.0.0 (20260523.1842)
 -->
<!-- Title: leader&#45;redis&#45;redisson&#45;class&#45;01 Pages: 1 -->
<svg width="1578pt" height="478pt"
 viewBox="0.00 0.00 1578.00 478.00" xmlns="http://www.w3.org/2000/svg" xmlns:xlink="http://www.w3.org/1999/xlink">
<g id="graph0" class="graph" transform="scale(1 1) rotate(0) translate(4 473.56)">
<title>leader&#45;redis&#45;redisson&#45;class&#45;01</title>
<text xml:space="preserve" text-anchor="middle" x="784.92" y="-452.26" font-family="Times,serif" font-size="14.00">leader redis redisson Class Structure</text>
<!-- n4&#45;&gt;n0 -->
<g id="edge2" class="edge">
<title>n4&#45;&gt;n0</title>
<path fill="none" stroke="#758297" stroke-width="1.8" stroke-dasharray="5,2" d="M169.92,-191.1C169.92,-191.1 169.92,-321.56 169.92,-321.56"/>
<polygon fill="none" stroke="#758297" stroke-width="1.8" points="167.12,-321.56 169.92,-329.56 172.72,-321.56 167.12,-321.56"/>
</g>
<!-- n5&#45;&gt;n1 -->
<g id="edge4" class="edge">
<title>n5&#45;&gt;n1</title>
<path fill="none" stroke="#758297" stroke-width="1.8" stroke-dasharray="5,2" d="M579.92,-191C579.92,-191 579.92,-321.8 579.92,-321.8"/>
<polygon fill="none" stroke="#758297" stroke-width="1.8" points="577.12,-321.8 579.92,-329.8 582.72,-321.8 577.12,-321.8"/>
</g>
<!-- n6&#45;&gt;n2 -->
<g id="edge3" class="edge">
<title>n6&#45;&gt;n2</title>
<path fill="none" stroke="#758297" stroke-width="1.8" stroke-dasharray="5,2" d="M989.92,-191.1C989.92,-191.1 989.92,-321.56 989.92,-321.56"/>
<polygon fill="none" stroke="#758297" stroke-width="1.8" points="987.12,-321.56 989.92,-329.56 992.72,-321.56 987.12,-321.56"/>
</g>
<!-- n7&#45;&gt;n3 -->
<g id="edge1" class="edge">
<title>n7&#45;&gt;n3</title>
<path fill="none" stroke="#758297" stroke-width="1.8" stroke-dasharray="5,2" d="M1399.92,-191.26C1399.92,-191.26 1399.92,-306.02 1399.92,-306.02"/>
<polygon fill="none" stroke="#758297" stroke-width="1.8" points="1397.12,-306.02 1399.92,-314.02 1402.72,-306.02 1397.12,-306.02"/>
</g>
<!-- n0 -->
<g id="node1" class="node">
<title>n0</title>
<path fill="#ffffff" stroke="#5b8def" d="M327.84,-445.06C327.84,-445.06 12,-445.06 12,-445.06 6,-445.06 0,-439.06 0,-433.06 0,-433.06 0,-344.74 0,-344.74 0,-338.74 6,-332.74 12,-332.74 12,-332.74 327.84,-332.74 327.84,-332.74 333.84,-332.74 339.84,-338.74 339.84,-344.74 339.84,-344.74 339.84,-433.06 339.84,-433.06 339.84,-439.06 333.84,-445.06 327.84,-445.06"/>
<text xml:space="preserve" text-anchor="middle" x="169.92" y="-384.55" font-family="Architects Daughter" font-size="18.00">SuspendLeaderElector</text>
</g>
<!-- n1 -->
<g id="node2" class="node">
<title>n1</title>
<path fill="#ffffff" stroke="#58a978" d="M737.84,-445.06C737.84,-445.06 422,-445.06 422,-445.06 416,-445.06 410,-439.06 410,-433.06 410,-433.06 410,-344.74 410,-344.74 410,-338.74 416,-332.74 422,-332.74 422,-332.74 737.84,-332.74 737.84,-332.74 743.84,-332.74 749.84,-338.74 749.84,-344.74 749.84,-344.74 749.84,-433.06 749.84,-433.06 749.84,-439.06 743.84,-445.06 737.84,-445.06"/>
<text xml:space="preserve" text-anchor="middle" x="579.92" y="-384.55" font-family="Architects Daughter" font-size="18.00">LeaderElector</text>
</g>
<!-- n2 -->
<g id="node3" class="node">
<title>n2</title>
<path fill="#ffffff" stroke="#d6a441" d="M1147.84,-445.06C1147.84,-445.06 832,-445.06 832,-445.06 826,-445.06 820,-439.06 820,-433.06 820,-433.06 820,-344.74 820,-344.74 820,-338.74 826,-332.74 832,-332.74 832,-332.74 1147.84,-332.74 1147.84,-332.74 1153.84,-332.74 1159.84,-338.74 1159.84,-344.74 1159.84,-344.74 1159.84,-433.06 1159.84,-433.06 1159.84,-439.06 1153.84,-445.06 1147.84,-445.06"/>
<text xml:space="preserve" text-anchor="middle" x="989.92" y="-384.55" font-family="Architects Daughter" font-size="18.00">LeaderGroupElector</text>
</g>
<!-- n3 -->
<g id="node4" class="node">
<title>n3</title>
<path fill="#ffffff" stroke="#dc6b82" d="M1557.84,-444.98C1557.84,-444.98 1242,-444.98 1242,-444.98 1236,-444.98 1230,-438.98 1230,-432.98 1230,-432.98 1230,-328.82 1230,-328.82 1230,-322.82 1236,-316.82 1242,-316.82 1242,-316.82 1557.84,-316.82 1557.84,-316.82 1563.84,-316.82 1569.84,-322.82 1569.84,-328.82 1569.84,-328.82 1569.84,-432.98 1569.84,-432.98 1569.84,-438.98 1563.84,-444.98 1557.84,-444.98"/>
<text xml:space="preserve" text-anchor="middle" x="1399.92" y="-376.55" font-family="Architects Daughter" font-size="18.00">Suspend Leader Group</text>
</g>
<!-- n4 -->
<g id="node5" class="node">
<title>n4</title>
<path fill="#ffffff" stroke="#45a7a1" d="M327.84,-190.8C327.84,-190.8 12,-190.8 12,-190.8 6,-190.8 0,-184.8 0,-178.8 0,-178.8 0,-12 0,-12 0,-6 6,0 12,0 12,0 327.84,0 327.84,0 333.84,0 339.84,-6 339.84,-12 339.84,-12 339.84,-178.8 339.84,-178.8 339.84,-184.8 333.84,-190.8 327.84,-190.8"/>
<text xml:space="preserve" text-anchor="middle" x="169.92" y="-91.05" font-family="Architects Daughter" font-size="18.00">Redisson Suspend Leader</text>
</g>
<!-- n5 -->
<g id="node6" class="node">
<title>n5</title>
<path fill="#ffffff" stroke="#8a72d6" d="M737.84,-190.88C737.84,-190.88 422,-190.88 422,-190.88 416,-190.88 410,-184.88 410,-178.88 410,-178.88 410,-27.92 410,-27.92 410,-21.92 416,-15.92 422,-15.92 422,-15.92 737.84,-15.92 737.84,-15.92 743.84,-15.92 749.84,-21.92 749.84,-27.92 749.84,-27.92 749.84,-178.88 749.84,-178.88 749.84,-184.88 743.84,-190.88 737.84,-190.88"/>
<text xml:space="preserve" text-anchor="middle" x="579.92" y="-99.05" font-family="Architects Daughter" font-size="18.00">RedissonLeaderElector</text>
</g>
<!-- n6 -->
<g id="node7" class="node">
<title>n6</title>
<path fill="#ffffff" stroke="#b88a44" d="M1147.84,-190.8C1147.84,-190.8 832,-190.8 832,-190.8 826,-190.8 820,-184.8 820,-178.8 820,-178.8 820,-12 820,-12 820,-6 826,0 832,0 832,0 1147.84,0 1147.84,0 1153.84,0 1159.84,-6 1159.84,-12 1159.84,-12 1159.84,-178.8 1159.84,-178.8 1159.84,-184.8 1153.84,-190.8 1147.84,-190.8"/>
<text xml:space="preserve" text-anchor="middle" x="989.92" y="-91.05" font-family="Architects Daughter" font-size="18.00">Redisson Leader Group</text>
</g>
<!-- n7 -->
<g id="node8" class="node">
<title>n7</title>
<path fill="#ffffff" stroke="#8ba84d" d="M1557.84,-190.8C1557.84,-190.8 1242,-190.8 1242,-190.8 1236,-190.8 1230,-184.8 1230,-178.8 1230,-178.8 1230,-12 1230,-12 1230,-6 1236,0 1242,0 1242,0 1557.84,0 1557.84,0 1563.84,0 1569.84,-6 1569.84,-12 1569.84,-12 1569.84,-178.8 1569.84,-178.8 1569.84,-184.8 1563.84,-190.8 1557.84,-190.8"/>
<text xml:space="preserve" text-anchor="middle" x="1399.92" y="-91.05" font-family="Architects Daughter" font-size="18.00">Redisson Suspend Leader</text>
</g>
</g>
</svg>
