<svg xmlns="http://www.w3.org/2000/svg" width="1468" height="1354" viewBox="0 0 1468 1354" role="img" aria-label="Scenario 2 — minLeaseTime delegated to backend TTL">
  <metadata id="graphviz-evidence">Regenerated with Graphviz evidence: leader-redis-lettuce-sequence-03.dot, leader-redis-lettuce-sequence-03.plain, leader-redis-lettuce-sequence-03-graphviz.svg via scripts/regenerate-readme-diagram-graphviz-evidence.mjs.</metadata>
<defs>
  <filter id="shadow" x="-8%" y="-8%" width="116%" height="116%"><feDropShadow dx="0" dy="8" stdDeviation="9" flood-color="#1f2937" flood-opacity="0.10"/></filter>
  <marker id="openArrow" markerWidth="12" markerHeight="10" refX="10" refY="5" orient="auto" markerUnits="strokeWidth"><path d="M 1 1 L 10 5 L 1 9" fill="none" stroke="#758297" stroke-width="1.8" stroke-linecap="round" stroke-linejoin="round"/></marker>
  <marker id="inherit" markerWidth="14" markerHeight="12" refX="12" refY="6" orient="auto" markerUnits="strokeWidth"><path d="M 0 1 L 12 6 L 0 11 Z" fill="#ffffff" stroke="#758297" stroke-width="1.8"/></marker>
  <style>
    .canvas{fill:#f7f9fc}.frame{fill:#fff;stroke:#d8e0ea;stroke-width:1.5}
    .title{font-family:"Architects Daughter","Comic Mono","Comic Sans MS","Comic Sans",cursive;font-size:43px;font-weight:400;fill:#102033}
    .subtitle{font-family:"Comic Mono","Comic Sans MS","Comic Sans","Comic Neue",Arial,sans-serif;font-size:15px;font-weight:400;fill:#536273}
    .label{font-family:"Architects Daughter","Comic Mono","Comic Sans MS","Comic Sans",cursive;font-size:25px;font-weight:400;fill:#102033}
    .smallLabel{font-family:"Architects Daughter","Comic Mono","Comic Sans MS","Comic Sans",cursive;font-size:21px;font-weight:400;fill:#102033}
    .mono{font-family:"Comic Mono","Comic Sans MS","Comic Sans","Comic Neue",Arial,sans-serif;font-size:12px;font-weight:400;fill:#102033}
    .small{font-family:"Comic Mono","Comic Sans MS","Comic Sans","Comic Neue",Arial,sans-serif;font-size:12px;font-weight:400;fill:#536273}
    .strong{font-family:"Comic Mono","Comic Sans MS","Comic Sans","Comic Neue",Arial,sans-serif;font-size:13px;font-weight:400;fill:#102033}
    .card{stroke-width:2.1;filter:url(#shadow)}.compartment{stroke-width:1.5;fill:none}
    .line{stroke:#758297;stroke-width:2.1;fill:none;marker-end:url(#openArrow)}
    .plainLine{stroke:#758297;stroke-width:2.1;fill:none}
    .dashed{stroke:#758297;stroke-width:2.1;stroke-dasharray:7 6;fill:none;marker-end:url(#openArrow)}
    .inheritLine{stroke:#758297;stroke-width:2.2;fill:none;marker-end:url(#inherit)}
    .implLine{stroke:#758297;stroke-width:2.2;stroke-dasharray:8 7;fill:none;marker-end:url(#inherit)}
  </style>
  <!-- semantic lock-state route markers -->
  <marker id="semanticArrow-neutral" markerWidth="8" markerHeight="8" refX="7" refY="4" orient="auto" markerUnits="strokeWidth"><path d="M 1 1 L 7 4 L 1 7" fill="none" stroke="#758297" stroke-width="1.9" stroke-linecap="round" stroke-linejoin="round"/></marker>
  <marker id="semanticArrow-leader" markerWidth="8" markerHeight="8" refX="7" refY="4" orient="auto" markerUnits="strokeWidth"><path d="M 1 1 L 7 4 L 1 7" fill="none" stroke="#43A76B" stroke-width="1.9" stroke-linecap="round" stroke-linejoin="round"/></marker>
  <marker id="semanticArrow-skipped" markerWidth="8" markerHeight="8" refX="7" refY="4" orient="auto" markerUnits="strokeWidth"><path d="M 1 1 L 7 4 L 1 7" fill="none" stroke="#EF5B7A" stroke-width="1.9" stroke-linecap="round" stroke-linejoin="round"/></marker>
  <marker id="semanticArrow-contention" markerWidth="8" markerHeight="8" refX="7" refY="4" orient="auto" markerUnits="strokeWidth"><path d="M 1 1 L 7 4 L 1 7" fill="none" stroke="#D99A2B" stroke-width="1.9" stroke-linecap="round" stroke-linejoin="round"/></marker>
  <marker id="semanticArrow-reacquire" markerWidth="8" markerHeight="8" refX="7" refY="4" orient="auto" markerUnits="strokeWidth"><path d="M 1 1 L 7 4 L 1 7" fill="none" stroke="#8B6EEB" stroke-width="1.9" stroke-linecap="round" stroke-linejoin="round"/></marker>
  <!-- /semantic lock-state route markers -->
</defs>
<rect class="canvas" width="1468" height="1354"/>
<rect class="frame" x="32" y="28" width="1404" height="1298" rx="28"/>
<text class="title" x="66" y="82">Scenario 2 — minLeaseTime delegated to backe.</text>
<text class="subtitle" x="70" y="118">Sequence messages from the original Mermaid source</text>
<rect class="card" x="80" y="166" width="300" height="72" rx="12" fill="#E8F3FF" stroke="#5B8DEF"/>
<text class="smallLabel" x="230" y="209" text-anchor="middle">ClientA</text>
<line class="lifeline" x1="230" y1="252" x2="230" y2="1294" stroke="#b7c2d1" stroke-width="2" stroke-dasharray="10 10"/>
<rect class="card" x="584" y="166" width="300" height="72" rx="12" fill="#EAF7EF" stroke="#58A978"/>
<text class="smallLabel" x="734" y="209" text-anchor="middle">ClientB</text>
<line class="lifeline" x1="734" y1="252" x2="734" y2="1294" stroke="#b7c2d1" stroke-width="2" stroke-dasharray="10 10"/>
<rect class="card" x="1088" y="166" width="300" height="72" rx="12" fill="#FFF3D9" stroke="#D6A441"/>
<text class="smallLabel" x="1238" y="198.5" text-anchor="middle">Redis</text>
<text class="smallLabel" x="1238" y="219.5" text-anchor="middle">(lg:{lockName}</text>
<line class="lifeline" x1="1238" y1="252" x2="1238" y2="1294" stroke="#b7c2d1" stroke-width="2" stroke-dasharray="10 10"/>
<rect x="629" y="286" width="210" height="40" rx="102" fill="#ffffff" opacity="0.97"/>
<text class="strong" x="647" y="313" text-anchor="start" style="fill:#43A76B">1. ACQUIRE token=A1</text>
<path class="line" d="M230 332 L1238 332" data-route-tone="leader" style="stroke:#43A76B;marker-end:url(#semanticArrow-leader)"/>
<rect x="629" y="360" width="210" height="40" rx="102" fill="#ffffff" opacity="0.97"/>
<text class="strong" x="647" y="387" text-anchor="start" style="fill:#43A76B">2. token A1</text>
<path class="dashed" d="M1238 406 L230 406" data-route-tone="leader" style="stroke:#43A76B;marker-end:url(#semanticArrow-leader)"/>
<rect x="173" y="434" width="210" height="40" rx="102" fill="#ffffff" opacity="0.97"/>
<text class="strong" x="191" y="461" text-anchor="start" style="fill:#43A76B">3. action() runs 50ms</text>
<path class="line" d="M230 480 C294 480 294 514 230 514" data-route-tone="leader" style="stroke:#43A76B;marker-end:url(#semanticArrow-leader)"/>
<rect x="554.5" y="542" width="359" height="40" rx="102" fill="#ffffff" opacity="0.97"/>
<text class="strong" x="572.5" y="569" text-anchor="start" style="fill:#D99A2B">4. RELEASE (A1, remainingMinLeaseMs=250)</text>
<path class="line" d="M230 588 L1238 588" data-route-tone="contention" style="stroke:#D99A2B;marker-end:url(#semanticArrow-contention)"/>
<rect x="919" y="616" width="399" height="40" rx="102" fill="#ffffff" opacity="0.97"/>
<text class="strong" x="937" y="643" text-anchor="start" style="fill:#D99A2B">5. TIME -&gt; nowMs ZADD XX score=(nowMs+250) A1</text>
<path class="line" d="M1238 662 C1302 662 1302 696 1238 696" data-route-tone="contention" style="stroke:#D99A2B;marker-end:url(#semanticArrow-contention)"/>
<rect x="629" y="724" width="210" height="40" rx="102" fill="#ffffff" opacity="0.97"/>
<text class="strong" x="647" y="751" text-anchor="start" style="fill:#D99A2B">6. 1</text>
<path class="dashed" d="M1238 770 L230 770" data-route-tone="contention" style="stroke:#D99A2B;marker-end:url(#semanticArrow-contention)"/>
<rect x="859" y="798" width="254" height="40" rx="102" fill="#ffffff" opacity="0.97"/>
<text class="strong" x="877" y="825" text-anchor="start" style="fill:#EF5B7A">7. ACQUIRE (waitTime=100ms)</text>
<path class="line" d="M734 844 L1238 844" data-route-tone="skipped" style="stroke:#EF5B7A;marker-end:url(#semanticArrow-skipped)"/>
<rect x="790" y="872" width="528" height="40" rx="102" fill="#ffffff" opacity="0.97"/>
<text class="strong" x="808" y="899" text-anchor="start" style="fill:#EF5B7A">8. ZREMRANGEBYSCORE -&gt; A1 not yet expired ZCARD == maxLeaders</text>
<path class="line" d="M1238 918 C1302 918 1302 952 1238 952" data-route-tone="skipped" style="stroke:#EF5B7A;marker-end:url(#semanticArrow-skipped)"/>
<rect x="881" y="980" width="210" height="40" rx="102" fill="#ffffff" opacity="0.97"/>
<text class="strong" x="899" y="1007" text-anchor="start" style="fill:#EF5B7A">9. (failed)</text>
<path class="dashed" d="M1238 1026 L734 1026" data-route-tone="skipped" style="stroke:#EF5B7A;marker-end:url(#semanticArrow-skipped)"/>
<rect x="881" y="1054" width="210" height="40" rx="102" fill="#ffffff" opacity="0.97"/>
<text class="strong" x="899" y="1081" text-anchor="start" style="fill:#8B6EEB">10. ACQUIRE</text>
<path class="line" d="M734 1100 L1238 1100" data-route-tone="reacquire" style="stroke:#8B6EEB;marker-end:url(#semanticArrow-reacquire)"/>
<rect x="1007" y="1128" width="311" height="40" rx="102" fill="#ffffff" opacity="0.97"/>
<text class="strong" x="1025" y="1155" text-anchor="start" style="fill:#8B6EEB">11. ZREMRANGEBYSCORE -&gt; A1 evicted</text>
<path class="line" d="M1238 1174 C1302 1174 1302 1208 1238 1208" data-route-tone="reacquire" style="stroke:#8B6EEB;marker-end:url(#semanticArrow-reacquire)"/>
<rect x="879" y="1236" width="214" height="40" rx="102" fill="#ffffff" opacity="0.97"/>
<text class="strong" x="897" y="1263" text-anchor="start" style="fill:#8B6EEB">12. token B1 (success)</text>
<path class="dashed" d="M1238 1282 L734 1282" data-route-tone="reacquire" style="stroke:#8B6EEB;marker-end:url(#semanticArrow-reacquire)"/>
</svg>
