<?xml version="1.0" encoding="UTF-8" standalone="no"?>
<!DOCTYPE svg PUBLIC "-//W3C//DTD SVG 1.1//EN"
 "http://www.w3.org/Graphics/SVG/1.1/DTD/svg11.dtd">
<!-- Generated by graphviz version 15.0.0 (20260523.1842)
 -->
<!-- Title: leader&#45;redis&#45;redisson&#45;class&#45;01 Pages: 1 -->
<svg width="8638pt" height="614pt"
 viewBox="0.00 0.00 8638.00 614.00" xmlns="http://www.w3.org/2000/svg" xmlns:xlink="http://www.w3.org/1999/xlink">
<g id="graph0" class="graph" transform="scale(1 1) rotate(0) translate(4 610)">
<title>leader&#45;redis&#45;redisson&#45;class&#45;01</title>
<!-- leaderContract -->
<g id="node1" class="node">
<title>leaderContract</title>
<path fill="#f8fafc" stroke="#94a3b8" d="M3353.75,-264C3353.75,-264 2431.75,-264 2431.75,-264 2425.75,-264 2419.75,-258 2419.75,-252 2419.75,-252 2419.75,-240 2419.75,-240 2419.75,-234 2425.75,-228 2431.75,-228 2431.75,-228 3353.75,-228 3353.75,-228 3359.75,-228 3365.75,-234 3365.75,-240 3365.75,-240 3365.75,-252 3365.75,-252 3365.75,-258 3359.75,-264 3353.75,-264"/>
<text xml:space="preserve" text-anchor="middle" x="2892.75" y="-240.57" font-family="Comic Mono" font-size="14.00">&lt;&lt;core interface&gt;&gt;\nLeaderElector\n+ runIfLeader(lockName): T?\n+ runAsyncIfLeader(lockName)\n+ state(lockName): LeaderState</text>
</g>
<!-- suspendContract -->
<g id="node2" class="node">
<title>suspendContract</title>
<path fill="#f8fafc" stroke="#94a3b8" d="M1061.5,-264C1061.5,-264 12,-264 12,-264 6,-264 0,-258 0,-252 0,-252 0,-240 0,-240 0,-234 6,-228 12,-228 12,-228 1061.5,-228 1061.5,-228 1067.5,-228 1073.5,-234 1073.5,-240 1073.5,-240 1073.5,-252 1073.5,-252 1073.5,-258 1067.5,-264 1061.5,-264"/>
<text xml:space="preserve" text-anchor="middle" x="536.75" y="-240.57" font-family="Comic Mono" font-size="14.00">&lt;&lt;core suspend interface&gt;&gt;\nSuspendLeaderElector\n+ suspend runIfLeader(lockName)\n+ runIfLeaderResultSuspend(slot)\ncoroutine context handle</text>
</g>
<!-- groupContract -->
<g id="node3" class="node">
<title>groupContract</title>
<path fill="#f8fafc" stroke="#94a3b8" d="M7382.75,-264C7382.75,-264 6460.75,-264 6460.75,-264 6454.75,-264 6448.75,-258 6448.75,-252 6448.75,-252 6448.75,-240 6448.75,-240 6448.75,-234 6454.75,-228 6460.75,-228 6460.75,-228 7382.75,-228 7382.75,-228 7388.75,-228 7394.75,-234 7394.75,-240 7394.75,-240 7394.75,-252 7394.75,-252 7394.75,-258 7388.75,-264 7382.75,-264"/>
<text xml:space="preserve" text-anchor="middle" x="6921.75" y="-240.57" font-family="Comic Mono" font-size="14.00">&lt;&lt;core group interface&gt;&gt;\nLeaderGroupElector\n+ maxLeaders: Int\n+ runIfLeader(lockName): T?\n+ activeCount / availableSlots</text>
</g>
<!-- suspendGroupContract -->
<g id="node4" class="node">
<title>suspendGroupContract</title>
<path fill="#f8fafc" stroke="#94a3b8" d="M8488.25,-264C8488.25,-264 7461.25,-264 7461.25,-264 7455.25,-264 7449.25,-258 7449.25,-252 7449.25,-252 7449.25,-240 7449.25,-240 7449.25,-234 7455.25,-228 7461.25,-228 7461.25,-228 8488.25,-228 8488.25,-228 8494.25,-228 8500.25,-234 8500.25,-240 8500.25,-240 8500.25,-252 8500.25,-252 8500.25,-258 8494.25,-264 8488.25,-264"/>
<text xml:space="preserve" text-anchor="middle" x="7974.75" y="-240.57" font-family="Comic Mono" font-size="14.00">&lt;&lt;core suspend group&gt;&gt;\nSuspendLeaderGroupElector\n+ maxLeaders: Int\n+ suspend runIfLeader(lockName)\n+ state(lockName): LeaderGroupState</text>
</g>
<!-- redissonLeader -->
<g id="node5" class="node">
<title>redissonLeader</title>
<path fill="#f8fafc" stroke="#94a3b8" d="M4302.25,-150C4302.25,-150 2885.25,-150 2885.25,-150 2879.25,-150 2873.25,-144 2873.25,-138 2873.25,-138 2873.25,-126 2873.25,-126 2873.25,-120 2879.25,-114 2885.25,-114 2885.25,-114 4302.25,-114 4302.25,-114 4308.25,-114 4314.25,-120 4314.25,-126 4314.25,-126 4314.25,-138 4314.25,-138 4314.25,-144 4308.25,-150 4302.25,-150"/>
<text xml:space="preserve" text-anchor="middle" x="3593.75" y="-126.58" font-family="Comic Mono" font-size="14.00">&lt;&lt;blocking + async implementation&gt;&gt;\nRedissonLeaderElector\nRedissonClient.getLock(lockName)\ntryLock(wait, explicit lease)\nbuilt&#45;in watchdog disabled\nLeaderLeaseAutoExtender owns renewals</text>
</g>
<!-- redissonLeader&#45;&gt;leaderContract -->
<g id="edge1" class="edge">
<title>redissonLeader&#45;&gt;leaderContract</title>
<path fill="none" stroke="#4f83bf" d="M3119.5,-150.32C3119.5,-150.32 3119.5,-218.22 3119.5,-218.22"/>
<polygon fill="#4f83bf" stroke="#4f83bf" points="3116.7,-218.22 3119.5,-226.22 3122.3,-218.22 3116.7,-218.22"/>
<text xml:space="preserve" text-anchor="middle" x="2911.12" y="-185.5" font-family="Comic Mono" font-size="10.00">inherit</text>
</g>
<!-- singleDelegates -->
<g id="node10" class="node">
<title>singleDelegates</title>
<path fill="#f8fafc" stroke="#94a3b8" d="M4743.75,-264C4743.75,-264 3431.75,-264 3431.75,-264 3425.75,-264 3419.75,-258 3419.75,-252 3419.75,-252 3419.75,-240 3419.75,-240 3419.75,-234 3425.75,-228 3431.75,-228 3431.75,-228 4743.75,-228 4743.75,-228 4749.75,-228 4755.75,-234 4755.75,-240 4755.75,-240 4755.75,-252 4755.75,-252 4755.75,-258 4749.75,-264 4743.75,-264"/>
<text xml:space="preserve" text-anchor="middle" x="4087.75" y="-240.57" font-family="Comic Mono" font-size="14.00">&lt;&lt;RLock renewal delegates&gt;&gt;\nSingle Extend Delegates\nRedissonLockExtendDelegate\nRedissonSuspendLockExtendDelegate\nRKeys.expire renews lock key\nWrongThread on owner mismatch</text>
</g>
<!-- redissonLeader&#45;&gt;singleDelegates -->
<g id="edge9" class="edge">
<title>redissonLeader&#45;&gt;singleDelegates</title>
<path fill="none" stroke="#b9851b" d="M4016.08,-150.32C4016.08,-150.32 4016.08,-218.22 4016.08,-218.22"/>
<polygon fill="#b9851b" stroke="#b9851b" points="4013.28,-218.22 4016.08,-226.22 4018.88,-218.22 4013.28,-218.22"/>
<text xml:space="preserve" text-anchor="middle" x="3880.12" y="-185.5" font-family="Comic Mono" font-size="10.00">handle delegate</text>
</g>
<!-- redissonSuspend -->
<g id="node6" class="node">
<title>redissonSuspend</title>
<path fill="#f8fafc" stroke="#94a3b8" d="M2684.5,-150C2684.5,-150 1545,-150 1545,-150 1539,-150 1533,-144 1533,-138 1533,-138 1533,-126 1533,-126 1533,-120 1539,-114 1545,-114 1545,-114 2684.5,-114 2684.5,-114 2690.5,-114 2696.5,-120 2696.5,-126 2696.5,-126 2696.5,-138 2696.5,-138 2696.5,-144 2690.5,-150 2684.5,-150"/>
<text xml:space="preserve" text-anchor="middle" x="2114.75" y="-126.58" font-family="Comic Mono" font-size="14.00">&lt;&lt;coroutine implementation&gt;&gt;\nRedissonSuspendLeaderElector\nuses RLock async API\nPID&#45;seeded owner id\nwithContext(handle element)\nNonCancellable unlock</text>
</g>
<!-- redissonSuspend&#45;&gt;suspendContract -->
<g id="edge2" class="edge">
<title>redissonSuspend&#45;&gt;suspendContract</title>
<path fill="none" stroke="#4f83bf" d="M1532.84,-132C1306.51,-132 1100.5,-132 1100.5,-132 1100.5,-132 1100.5,-246 1100.5,-246 1100.5,-246 1083.2,-246 1083.2,-246"/>
<polygon fill="#4f83bf" stroke="#4f83bf" points="1083.2,-243.2 1075.2,-246 1083.2,-248.8 1083.2,-243.2"/>
<text xml:space="preserve" text-anchor="middle" x="555.12" y="-185.5" font-family="Comic Mono" font-size="10.00">inherit</text>
</g>
<!-- redissonSuspend&#45;&gt;singleDelegates -->
<g id="edge10" class="edge">
<title>redissonSuspend&#45;&gt;singleDelegates</title>
<path fill="none" stroke="#b9851b" d="M2558.12,-150.39C2558.12,-171.13 2558.12,-202 2558.12,-202 2558.12,-202 3717.92,-202 3717.92,-202 3717.92,-202 3717.92,-218.08 3717.92,-218.08"/>
<polygon fill="#b9851b" stroke="#b9851b" points="3715.12,-218.08 3717.92,-226.08 3720.72,-218.08 3715.12,-218.08"/>
<text xml:space="preserve" text-anchor="middle" x="2474.75" y="-185.5" font-family="Comic Mono" font-size="10.00">suspend delegate</text>
</g>
<!-- ownerId -->
<g id="node14" class="node">
<title>ownerId</title>
<path fill="#f8fafc" stroke="#94a3b8" d="M2354,-264C2354,-264 1139.5,-264 1139.5,-264 1133.5,-264 1127.5,-258 1127.5,-252 1127.5,-252 1127.5,-240 1127.5,-240 1127.5,-234 1133.5,-228 1139.5,-228 1139.5,-228 2354,-228 2354,-228 2360,-228 2366,-234 2366,-240 2366,-240 2366,-252 2366,-252 2366,-258 2360,-264 2354,-264"/>
<text xml:space="preserve" text-anchor="middle" x="1746.75" y="-240.57" font-family="Comic Mono" font-size="14.00">&lt;&lt;RLock owner identity&gt;&gt;\nCoroutine Owner ID\ntimestamp | pid%(2^10) | seq\ngenerated per runIfLeader call\nprevents coroutine false reentry\nzero Redis round&#45;trip</text>
</g>
<!-- redissonSuspend&#45;&gt;ownerId -->
<g id="edge14" class="edge">
<title>redissonSuspend&#45;&gt;ownerId</title>
<path fill="none" stroke="#758297" d="M1949.5,-150.32C1949.5,-150.32 1949.5,-218.22 1949.5,-218.22"/>
<polygon fill="#758297" stroke="#758297" points="1946.7,-218.22 1949.5,-226.22 1952.3,-218.22 1946.7,-218.22"/>
<text xml:space="preserve" text-anchor="middle" x="1890.75" y="-185.5" font-family="Comic Mono" font-size="10.00">owner id</text>
</g>
<!-- redissonGroup -->
<g id="node7" class="node">
<title>redissonGroup</title>
<path fill="#f8fafc" stroke="#94a3b8" d="M6969.75,-150C6969.75,-150 5777.75,-150 5777.75,-150 5771.75,-150 5765.75,-144 5765.75,-138 5765.75,-138 5765.75,-126 5765.75,-126 5765.75,-120 5771.75,-114 5777.75,-114 5777.75,-114 6969.75,-114 6969.75,-114 6975.75,-114 6981.75,-120 6981.75,-126 6981.75,-126 6981.75,-138 6981.75,-138 6981.75,-144 6975.75,-150 6969.75,-150"/>
<text xml:space="preserve" text-anchor="middle" x="6373.75" y="-126.58" font-family="Comic Mono" font-size="14.00">&lt;&lt;expirable permit group&gt;&gt;\nRedissonLeaderGroupElector\ngetPermitExpirableSemaphore\ntrySetPermits(maxLeaders)\npermitId becomes slotId\ngroup watchdog disabled</text>
</g>
<!-- redissonGroup&#45;&gt;groupContract -->
<g id="edge3" class="edge">
<title>redissonGroup&#45;&gt;groupContract</title>
<path fill="none" stroke="#4f83bf" d="M6715.25,-150.32C6715.25,-150.32 6715.25,-218.22 6715.25,-218.22"/>
<polygon fill="#4f83bf" stroke="#4f83bf" points="6712.45,-218.22 6715.25,-226.22 6718.05,-218.22 6712.45,-218.22"/>
<text xml:space="preserve" text-anchor="middle" x="6940.12" y="-185.5" font-family="Comic Mono" font-size="10.00">inherit</text>
</g>
<!-- permitDelegates -->
<g id="node11" class="node">
<title>permitDelegates</title>
<path fill="#f8fafc" stroke="#94a3b8" d="M6253.75,-264C6253.75,-264 4821.75,-264 4821.75,-264 4815.75,-264 4809.75,-258 4809.75,-252 4809.75,-252 4809.75,-240 4809.75,-240 4809.75,-234 4815.75,-228 4821.75,-228 4821.75,-228 6253.75,-228 6253.75,-228 6259.75,-228 6265.75,-234 6265.75,-240 6265.75,-240 6265.75,-252 6265.75,-252 6265.75,-258 6259.75,-264 6253.75,-264"/>
<text xml:space="preserve" text-anchor="middle" x="5537.75" y="-240.57" font-family="Comic Mono" font-size="14.00">&lt;&lt;semaphore renewal delegates&gt;&gt;\nPermit Extend Delegates\nRedissonSemaphoreExtendDelegate\nRedissonSuspendSemaphoreExtendDelegate\nupdateLeaseTime by permitId\nactive flag tracks failed extend</text>
</g>
<!-- redissonGroup&#45;&gt;permitDelegates -->
<g id="edge11" class="edge">
<title>redissonGroup&#45;&gt;permitDelegates</title>
<path fill="none" stroke="#755bc6" d="M5932.42,-150.32C5932.42,-150.32 5932.42,-218.22 5932.42,-218.22"/>
<polygon fill="#755bc6" stroke="#755bc6" points="5929.62,-218.22 5932.42,-226.22 5935.22,-218.22 5929.62,-218.22"/>
<text xml:space="preserve" text-anchor="middle" x="5939.12" y="-185.5" font-family="Comic Mono" font-size="10.00">permit delegate</text>
</g>
<!-- semaphore -->
<g id="node13" class="node">
<title>semaphore</title>
<path fill="#f8fafc" stroke="#94a3b8" d="M6148.75,-378C6148.75,-378 4926.75,-378 4926.75,-378 4920.75,-378 4914.75,-372 4914.75,-366 4914.75,-366 4914.75,-354 4914.75,-354 4914.75,-348 4920.75,-342 4926.75,-342 4926.75,-342 6148.75,-342 6148.75,-342 6154.75,-342 6160.75,-348 6160.75,-354 6160.75,-354 6160.75,-366 6160.75,-366 6160.75,-372 6154.75,-378 6148.75,-378"/>
<text xml:space="preserve" text-anchor="middle" x="5537.75" y="-354.57" font-family="Comic Mono" font-size="14.00">&lt;&lt;group permit primitive&gt;&gt;\nRPermitExpirableSemaphore\nkey: lg:{lockName}\ntrySetPermits idempotent\ntryAcquire returns permitId\nupdateLeaseTime delegates minLease</text>
</g>
<!-- redissonGroup&#45;&gt;semaphore -->
<g id="edge17" class="edge">
<title>redissonGroup&#45;&gt;semaphore</title>
<path fill="none" stroke="#755bc6" d="M6357.25,-150.17C6357.25,-203.19 6357.25,-354 6357.25,-354 6357.25,-354 6170.73,-354 6170.73,-354"/>
<polygon fill="#755bc6" stroke="#755bc6" points="6170.73,-351.2 6162.73,-354 6170.73,-356.8 6170.73,-351.2"/>
<text xml:space="preserve" text-anchor="middle" x="6384.25" y="-242.5" font-family="Comic Mono" font-size="10.00">slot</text>
</g>
<!-- redissonSuspendGroup -->
<g id="node8" class="node">
<title>redissonSuspendGroup</title>
<path fill="#f8fafc" stroke="#94a3b8" d="M8344.5,-150C8344.5,-150 7145,-150 7145,-150 7139,-150 7133,-144 7133,-138 7133,-138 7133,-126 7133,-126 7133,-120 7139,-114 7145,-114 7145,-114 8344.5,-114 8344.5,-114 8350.5,-114 8356.5,-120 8356.5,-126 8356.5,-126 8356.5,-138 8356.5,-138 8356.5,-144 8350.5,-150 8344.5,-150"/>
<text xml:space="preserve" text-anchor="middle" x="7744.75" y="-126.58" font-family="Comic Mono" font-size="14.00">&lt;&lt;coroutine permit group&gt;&gt;\nRedissonSuspend Group\nRedissonSuspendLeaderGroupElector\ntrySetPermitsAsync\ntryAcquireAsync permitId\nNonCancellable release/extend</text>
</g>
<!-- redissonSuspendGroup&#45;&gt;suspendGroupContract -->
<g id="edge4" class="edge">
<title>redissonSuspendGroup&#45;&gt;suspendGroupContract</title>
<path fill="none" stroke="#4f83bf" d="M7902.88,-150.32C7902.88,-150.32 7902.88,-218.22 7902.88,-218.22"/>
<polygon fill="#4f83bf" stroke="#4f83bf" points="7900.08,-218.22 7902.88,-226.22 7905.68,-218.22 7900.08,-218.22"/>
<text xml:space="preserve" text-anchor="middle" x="7993.12" y="-185.5" font-family="Comic Mono" font-size="10.00">inherit</text>
</g>
<!-- redissonSuspendGroup&#45;&gt;permitDelegates -->
<g id="edge12" class="edge">
<title>redissonSuspendGroup&#45;&gt;permitDelegates</title>
<path fill="none" stroke="#755bc6" d="M7263.88,-150.41C7263.88,-162.46 7263.88,-176 7263.88,-176 7263.88,-176 6099.08,-176 6099.08,-176 6099.08,-176 6099.08,-218.09 6099.08,-218.09"/>
<polygon fill="#755bc6" stroke="#755bc6" points="6096.28,-218.09 6099.08,-226.09 6101.88,-218.09 6096.28,-218.09"/>
<text xml:space="preserve" text-anchor="middle" x="7418.5" y="-185.5" font-family="Comic Mono" font-size="10.00">suspend permit</text>
</g>
<!-- redissonSuspendGroup&#45;&gt;semaphore -->
<g id="edge18" class="edge">
<title>redissonSuspendGroup&#45;&gt;semaphore</title>
<path fill="none" stroke="#755bc6" d="M7422,-150.36C7422,-205.52 7422,-366 7422,-366 7422,-366 6170.44,-366 6170.44,-366"/>
<polygon fill="#755bc6" stroke="#755bc6" points="6170.44,-363.2 6162.44,-366 6170.44,-368.8 6170.44,-363.2"/>
<text xml:space="preserve" text-anchor="middle" x="8619.25" y="-242.5" font-family="Comic Mono" font-size="10.00">slot</text>
</g>
<!-- factories -->
<g id="node9" class="node">
<title>factories</title>
<path fill="#f8fafc" stroke="#94a3b8" d="M5014,-36C5014,-36 3619.5,-36 3619.5,-36 3613.5,-36 3607.5,-30 3607.5,-24 3607.5,-24 3607.5,-12 3607.5,-12 3607.5,-6 3613.5,0 3619.5,0 3619.5,0 5014,0 5014,0 5020,0 5026,-6 5026,-12 5026,-12 5026,-24 5026,-24 5026,-30 5020,-36 5014,-36"/>
<text xml:space="preserve" text-anchor="middle" x="4316.75" y="-12.57" font-family="Comic Mono" font-size="14.00">&lt;&lt;factory + extensions&gt;&gt;\nFactory Entrypoints\nRedissonLeaderElectorFactory\nRedissonLeaderGroupElectorFactory\nRedissonSuspendLeaderElectorFactory\nRedissonClient runIfLeader* extensions</text>
</g>
<!-- factories&#45;&gt;redissonLeader -->
<g id="edge5" class="edge">
<title>factories&#45;&gt;redissonLeader</title>
<path fill="none" stroke="#758297" d="M3960.88,-36.32C3960.88,-36.32 3960.88,-104.22 3960.88,-104.22"/>
<polygon fill="#758297" stroke="#758297" points="3958.08,-104.22 3960.88,-112.22 3963.68,-104.22 3958.08,-104.22"/>
<text xml:space="preserve" text-anchor="middle" x="4287" y="-71.5" font-family="Comic Mono" font-size="10.00">dependency</text>
</g>
<!-- factories&#45;&gt;redissonSuspend -->
<g id="edge6" class="edge">
<title>factories&#45;&gt;redissonSuspend</title>
<path fill="none" stroke="#758297" d="M3607.15,-18C3206.35,-18 2784.88,-18 2784.88,-18 2784.88,-18 2784.88,-132 2784.88,-132 2784.88,-132 2706.44,-132 2706.44,-132"/>
<polygon fill="#758297" stroke="#758297" points="2706.44,-129.2 2698.44,-132 2706.44,-134.8 2706.44,-129.2"/>
<text xml:space="preserve" text-anchor="middle" x="3553" y="-71.5" font-family="Comic Mono" font-size="10.00">dependency</text>
</g>
<!-- factories&#45;&gt;redissonGroup -->
<g id="edge7" class="edge">
<title>factories&#45;&gt;redissonGroup</title>
<path fill="none" stroke="#758297" d="M5026.39,-24C5382.29,-24 5738.62,-24 5738.62,-24 5738.62,-24 5738.62,-132 5738.62,-132 5738.62,-132 5756,-132 5756,-132"/>
<polygon fill="#758297" stroke="#758297" points="5756,-134.8 5764,-132 5756,-129.2 5756,-134.8"/>
<text xml:space="preserve" text-anchor="middle" x="5733" y="-71.5" font-family="Comic Mono" font-size="10.00">dependency</text>
</g>
<!-- factories&#45;&gt;redissonSuspendGroup -->
<g id="edge8" class="edge">
<title>factories&#45;&gt;redissonSuspendGroup</title>
<path fill="none" stroke="#758297" d="M5026.09,-12C5838.13,-12 7057.38,-12 7057.38,-12 7057.38,-12 7057.38,-132 7057.38,-132 7057.38,-132 7123.06,-132 7123.06,-132"/>
<polygon fill="#758297" stroke="#758297" points="7123.06,-134.8 7131.06,-132 7123.06,-129.2 7123.06,-134.8"/>
<text xml:space="preserve" text-anchor="middle" x="7093" y="-71.5" font-family="Comic Mono" font-size="10.00">dependency</text>
</g>
<!-- rlock -->
<g id="node12" class="node">
<title>rlock</title>
<path fill="#f8fafc" stroke="#94a3b8" d="M4758.75,-378C4758.75,-378 3416.75,-378 3416.75,-378 3410.75,-378 3404.75,-372 3404.75,-366 3404.75,-366 3404.75,-354 3404.75,-354 3404.75,-348 3410.75,-342 3416.75,-342 3416.75,-342 4758.75,-342 4758.75,-342 4764.75,-342 4770.75,-348 4770.75,-354 4770.75,-354 4770.75,-366 4770.75,-366 4770.75,-372 4764.75,-378 4758.75,-378"/>
<text xml:space="preserve" text-anchor="middle" x="4087.75" y="-354.57" font-family="Comic Mono" font-size="14.00">&lt;&lt;single Redis lock primitive&gt;&gt;\nRedisson RLock Path\nRLock.tryLock(wait, lease, id)\nRLock.unlock / unlockAsync(id)\nRKeys.expire for minLease/extend\nbuilt&#45;in watchdog never used</text>
</g>
<!-- singleDelegates&#45;&gt;rlock -->
<g id="edge13" class="edge">
<title>singleDelegates&#45;&gt;rlock</title>
<path fill="none" stroke="#b9851b" d="M4087.75,-264.32C4087.75,-264.32 4087.75,-332.22 4087.75,-332.22"/>
<polygon fill="#b9851b" stroke="#b9851b" points="4084.95,-332.22 4087.75,-340.22 4090.55,-332.22 4084.95,-332.22"/>
<text xml:space="preserve" text-anchor="middle" x="4119.25" y="-299.5" font-family="Comic Mono" font-size="10.00">RKeys.expire</text>
</g>
<!-- permitDelegates&#45;&gt;semaphore -->
<g id="edge16" class="edge">
<title>permitDelegates&#45;&gt;semaphore</title>
<path fill="none" stroke="#755bc6" d="M5537.75,-264.32C5537.75,-264.32 5537.75,-332.22 5537.75,-332.22"/>
<polygon fill="#755bc6" stroke="#755bc6" points="5534.95,-332.22 5537.75,-340.22 5540.55,-332.22 5534.95,-332.22"/>
<text xml:space="preserve" text-anchor="middle" x="5548.25" y="-299.5" font-family="Comic Mono" font-size="10.00">slot</text>
</g>
<!-- runtime -->
<g id="node15" class="node">
<title>runtime</title>
<path fill="#f8fafc" stroke="#94a3b8" d="M5049.75,-606C5049.75,-606 3737.75,-606 3737.75,-606 3731.75,-606 3725.75,-600 3725.75,-594 3725.75,-594 3725.75,-582 3725.75,-582 3725.75,-576 3731.75,-570 3737.75,-570 3737.75,-570 5049.75,-570 5049.75,-570 5055.75,-570 5061.75,-576 5061.75,-582 5061.75,-582 5061.75,-594 5061.75,-594 5061.75,-600 5055.75,-606 5049.75,-606"/>
<text xml:space="preserve" text-anchor="middle" x="4393.75" y="-582.58" font-family="Comic Mono" font-size="14.00">&lt;&lt;Redis&#45;backed objects&gt;&gt;\nRedisson Runtime Objects\nsingle RLock key: lockName\ngroup semaphore: lg:{lockName}\naudit RMap: lg:{lockName}:audit\npermit TTL gives crash recovery</text>
</g>
<!-- rlock&#45;&gt;runtime -->
<g id="edge19" class="edge">
<title>rlock&#45;&gt;runtime</title>
<path fill="none" stroke="#758297" d="M4248.25,-378.27C4248.25,-378.27 4248.25,-560.13 4248.25,-560.13"/>
<polygon fill="#758297" stroke="#758297" points="4245.45,-560.13 4248.25,-568.13 4251.05,-560.13 4245.45,-560.13"/>
<text xml:space="preserve" text-anchor="middle" x="4187.38" y="-470.5" font-family="Comic Mono" font-size="10.00">RLock key</text>
</g>
<!-- semaphore&#45;&gt;runtime -->
<g id="edge20" class="edge">
<title>semaphore&#45;&gt;runtime</title>
<path fill="none" stroke="#758297" d="M4914.45,-360C4872.37,-360 4846.25,-360 4846.25,-360 4846.25,-360 4846.25,-560.21 4846.25,-560.21"/>
<polygon fill="#758297" stroke="#758297" points="4843.45,-560.21 4846.25,-568.21 4849.05,-560.21 4843.45,-560.21"/>
<text xml:space="preserve" text-anchor="middle" x="4650" y="-470.5" font-family="Comic Mono" font-size="10.00">permit key</text>
</g>
<!-- audit -->
<g id="node16" class="node">
<title>audit</title>
<path fill="#f8fafc" stroke="#94a3b8" d="M6026.75,-492C6026.75,-492 4894.75,-492 4894.75,-492 4888.75,-492 4882.75,-486 4882.75,-480 4882.75,-480 4882.75,-468 4882.75,-468 4882.75,-462 4888.75,-456 4894.75,-456 4894.75,-456 6026.75,-456 6026.75,-456 6032.75,-456 6038.75,-462 6038.75,-468 6038.75,-468 6038.75,-480 6038.75,-480 6038.75,-486 6032.75,-492 6026.75,-492"/>
<text xml:space="preserve" text-anchor="middle" x="5460.75" y="-468.57" font-family="Comic Mono" font-size="14.00">&lt;&lt;traceability side channel&gt;&gt;\nLeaderSlot Audit Map\nRMap&lt;String,String&gt;\nfastPut permitId &#45;&gt; leaderId\nexpire lease + 5s padding\nfastRemove on release</text>
</g>
<!-- semaphore&#45;&gt;audit -->
<g id="edge22" class="edge">
<title>semaphore&#45;&gt;audit</title>
<path fill="none" stroke="#2e8f89" d="M5476.75,-378.32C5476.75,-378.32 5476.75,-446.22 5476.75,-446.22"/>
<polygon fill="#2e8f89" stroke="#2e8f89" points="5473.95,-446.22 5476.75,-454.22 5479.55,-446.22 5473.95,-446.22"/>
<text xml:space="preserve" text-anchor="middle" x="5525" y="-413.5" font-family="Comic Mono" font-size="10.00">audit RMap</text>
</g>
<!-- ownerId&#45;&gt;rlock -->
<g id="edge15" class="edge">
<title>ownerId&#45;&gt;rlock</title>
<path fill="none" stroke="#758297" d="M2366.15,-240C2388.7,-240 2401.83,-240 2401.83,-240 2401.83,-240 2401.83,-360 2401.83,-360 2401.83,-360 3394.94,-360 3394.94,-360"/>
<polygon fill="#758297" stroke="#758297" points="3394.94,-362.8 3402.94,-360 3394.94,-357.2 3394.94,-362.8"/>
<text xml:space="preserve" text-anchor="middle" x="2930.62" y="-299.5" font-family="Comic Mono" font-size="10.00">RLock owner</text>
</g>
<!-- ownerId&#45;&gt;runtime -->
<g id="edge21" class="edge">
<title>ownerId&#45;&gt;runtime</title>
<path fill="none" stroke="#758297" d="M2366.21,-252C2377.59,-252 2383.92,-252 2383.92,-252 2383.92,-252 2383.92,-588 2383.92,-588 2383.92,-588 3716.04,-588 3716.04,-588"/>
<polygon fill="#758297" stroke="#758297" points="3716.04,-590.8 3724.04,-588 3716.04,-585.2 3716.04,-590.8"/>
<text xml:space="preserve" text-anchor="middle" x="2574.12" y="-413.5" font-family="Comic Mono" font-size="10.00">owner id stored</text>
</g>
<!-- audit&#45;&gt;runtime -->
<g id="edge23" class="edge">
<title>audit&#45;&gt;runtime</title>
<path fill="none" stroke="#758297" d="M4972.25,-492.32C4972.25,-492.32 4972.25,-560.22 4972.25,-560.22"/>
<polygon fill="#758297" stroke="#758297" points="4969.45,-560.22 4972.25,-568.22 4975.05,-560.22 4969.45,-560.22"/>
<text xml:space="preserve" text-anchor="middle" x="5096.25" y="-527.5" font-family="Comic Mono" font-size="10.00">uses</text>
</g>
<!-- classifier -->
<g id="node17" class="node">
<title>classifier</title>
<path fill="#f8fafc" stroke="#94a3b8" d="M5699.5,-150C5699.5,-150 4380,-150 4380,-150 4374,-150 4368,-144 4368,-138 4368,-138 4368,-126 4368,-126 4368,-120 4374,-114 4380,-114 4380,-114 5699.5,-114 5699.5,-114 5705.5,-114 5711.5,-120 5711.5,-126 5711.5,-126 5711.5,-138 5711.5,-138 5711.5,-144 5705.5,-150 5699.5,-150"/>
<text xml:space="preserve" text-anchor="middle" x="5039.75" y="-126.58" font-family="Comic Mono" font-size="14.00">&lt;&lt;watchdog error policy&gt;&gt;\nRedissonBackendErrorClassifier\nRedisTimeout &#45;&gt; transient\nRedisConnection &#45;&gt; transient\nother RedisException &#45;&gt; non&#45;transient\nother errors delegated</text>
</g>
<!-- classifier&#45;&gt;singleDelegates -->
<g id="edge24" class="edge">
<title>classifier&#45;&gt;singleDelegates</title>
<path fill="none" stroke="#2e8f89" d="M4561.88,-150.32C4561.88,-150.32 4561.88,-218.22 4561.88,-218.22"/>
<polygon fill="#2e8f89" stroke="#2e8f89" points="4559.08,-218.22 4561.88,-226.22 4564.68,-218.22 4559.08,-218.22"/>
<text xml:space="preserve" text-anchor="middle" x="4809.88" y="-185.5" font-family="Comic Mono" font-size="10.00">event</text>
</g>
<!-- classifier&#45;&gt;permitDelegates -->
<g id="edge25" class="edge">
<title>classifier&#45;&gt;permitDelegates</title>
<path fill="none" stroke="#2e8f89" d="M5260.62,-150.32C5260.62,-150.32 5260.62,-218.22 5260.62,-218.22"/>
<polygon fill="#2e8f89" stroke="#2e8f89" points="5257.83,-218.22 5260.63,-226.22 5263.43,-218.22 5257.83,-218.22"/>
<text xml:space="preserve" text-anchor="middle" x="5258.88" y="-185.5" font-family="Comic Mono" font-size="10.00">event</text>
</g>
</g>
</svg>
