<?xml version="1.0" encoding="UTF-8" standalone="no"?>
<!DOCTYPE svg PUBLIC "-//W3C//DTD SVG 1.1//EN"
 "http://www.w3.org/Graphics/SVG/1.1/DTD/svg11.dtd">
<!-- Generated by graphviz version 15.0.0 (20260523.1842)
 -->
<!-- Title: leader&#45;spring&#45;boot&#45;sequence&#45;02 Pages: 1 -->
<svg width="1122pt" height="556pt"
 viewBox="0.00 0.00 1122.00 556.00" xmlns="http://www.w3.org/2000/svg" xmlns:xlink="http://www.w3.org/1999/xlink">
<g id="graph0" class="graph" transform="scale(1 1) rotate(0) translate(4 552)">
<title>leader&#45;spring&#45;boot&#45;sequence&#45;02</title>
<!-- caller -->
<g id="node1" class="node">
<title>caller</title>
<path fill="#f8fafc" stroke="#94a3b8" d="M49,-286C49,-286 12,-286 12,-286 6,-286 0,-280 0,-274 0,-274 0,-262 0,-262 0,-256 6,-250 12,-250 12,-250 49,-250 49,-250 55,-250 61,-256 61,-262 61,-262 61,-274 61,-274 61,-280 55,-286 49,-286"/>
<text xml:space="preserve" text-anchor="middle" x="30.5" y="-262.57" font-family="Comic Mono" font-size="14.00">Caller</text>
</g>
<!-- aspect -->
<g id="node2" class="node">
<title>aspect</title>
<path fill="#f8fafc" stroke="#94a3b8" d="M433.25,-286C433.25,-286 291.25,-286 291.25,-286 285.25,-286 279.25,-280 279.25,-274 279.25,-274 279.25,-262 279.25,-262 279.25,-256 285.25,-250 291.25,-250 291.25,-250 433.25,-250 433.25,-250 439.25,-250 445.25,-256 445.25,-262 445.25,-262 445.25,-274 445.25,-274 445.25,-280 439.25,-286 433.25,-286"/>
<text xml:space="preserve" text-anchor="middle" x="362.25" y="-262.57" font-family="Comic Mono" font-size="14.00">LeaderElectionAspect</text>
</g>
<!-- caller&#45;&gt;aspect -->
<g id="edge1" class="edge">
<title>caller&#45;&gt;aspect</title>
<path fill="none" stroke="#4f83bf" d="M61.41,-274C61.41,-274 270.38,-274 270.38,-274"/>
<polygon fill="#4f83bf" stroke="#4f83bf" points="270.38,-276.45 277.38,-274 270.38,-271.55 270.38,-276.45"/>
<text xml:space="preserve" text-anchor="middle" x="170.12" y="-304.5" font-family="Comic Mono" font-size="10.00">invoke @LeaderElection method</text>
</g>
<!-- aspect&#45;&gt;caller -->
<g id="edge12" class="edge">
<title>aspect&#45;&gt;caller</title>
<path fill="none" stroke="#3e9868" d="M278.96,-262C278.96,-262 69.76,-262 69.76,-262"/>
<polygon fill="#3e9868" stroke="#3e9868" points="69.76,-259.55 62.76,-262 69.76,-264.45 69.76,-259.55"/>
<text xml:space="preserve" text-anchor="middle" x="170.12" y="-237.5" font-family="Comic Mono" font-size="10.00">return method result</text>
</g>
<!-- scope -->
<g id="node3" class="node">
<title>scope</title>
<path fill="#f8fafc" stroke="#94a3b8" d="M798.75,-453C798.75,-453 716.75,-453 716.75,-453 710.75,-453 704.75,-447 704.75,-441 704.75,-441 704.75,-429 704.75,-429 704.75,-423 710.75,-417 716.75,-417 716.75,-417 798.75,-417 798.75,-417 804.75,-417 810.75,-423 810.75,-429 810.75,-429 810.75,-441 810.75,-441 810.75,-447 804.75,-453 798.75,-453"/>
<text xml:space="preserve" text-anchor="middle" x="757.75" y="-429.57" font-family="Comic Mono" font-size="14.00">Leader scope</text>
</g>
<!-- aspect&#45;&gt;scope -->
<g id="edge2" class="edge">
<title>aspect&#45;&gt;scope</title>
<path fill="none" stroke="#2e8f89" d="M445.74,-267.14C570.22,-267.14 790,-267.14 790,-267.14 790,-267.14 790,-408.2 790,-408.2"/>
<polygon fill="#2e8f89" stroke="#2e8f89" points="787.55,-408.2 790,-415.2 792.45,-408.2 787.55,-408.2"/>
<text xml:space="preserve" text-anchor="middle" x="567.5" y="-538.5" font-family="Comic Mono" font-size="10.00">check active leader scope</text>
</g>
<!-- aspect&#45;&gt;scope -->
<g id="edge5" class="edge">
<title>aspect&#45;&gt;scope</title>
<path fill="none" stroke="#3e9868" d="M445.7,-281.29C553.09,-281.29 726,-281.29 726,-281.29 726,-281.29 726,-408.25 726,-408.25"/>
<polygon fill="#3e9868" stroke="#3e9868" points="723.55,-408.25 726,-415.25 728.45,-408.25 723.55,-408.25"/>
<text xml:space="preserve" text-anchor="middle" x="567.5" y="-471.5" font-family="Comic Mono" font-size="10.00">open Real leader scope</text>
</g>
<!-- aspect&#45;&gt;scope -->
<g id="edge9" class="edge">
<title>aspect&#45;&gt;scope</title>
<path fill="none" stroke="#755bc6" d="M445.74,-276.57C558.89,-276.57 747,-276.57 747,-276.57 747,-276.57 747,-408 747,-408"/>
<polygon fill="#755bc6" stroke="#755bc6" points="744.55,-408 747,-415 749.45,-408 744.55,-408"/>
<text xml:space="preserve" text-anchor="middle" x="567.5" y="-404.5" font-family="Comic Mono" font-size="10.00">close scope and release lock</text>
</g>
<!-- elector -->
<g id="node4" class="node">
<title>elector</title>
<path fill="#f8fafc" stroke="#94a3b8" d="M810,-253C810,-253 705.5,-253 705.5,-253 699.5,-253 693.5,-247 693.5,-241 693.5,-241 693.5,-229 693.5,-229 693.5,-223 699.5,-217 705.5,-217 705.5,-217 810,-217 810,-217 816,-217 822,-223 822,-229 822,-229 822,-241 822,-241 822,-247 816,-253 810,-253"/>
<text xml:space="preserve" text-anchor="middle" x="757.75" y="-229.57" font-family="Comic Mono" font-size="14.00">Backend elector</text>
</g>
<!-- aspect&#45;&gt;elector -->
<g id="edge3" class="edge">
<title>aspect&#45;&gt;elector</title>
<path fill="none" stroke="#b9851b" d="M445.55,-257.71C545.85,-257.71 701,-257.71 701,-257.71 701,-257.71 701,-257.28 701,-257.28"/>
<polygon fill="#b9851b" stroke="#b9851b" points="703.45,-261.85 701,-254.85 698.55,-261.85 703.45,-261.85"/>
<text xml:space="preserve" text-anchor="middle" x="567.5" y="-270.5" font-family="Comic Mono" font-size="10.00">runIfLeader via configured elector</text>
</g>
<!-- method -->
<g id="node5" class="node">
<title>method</title>
<path fill="#f8fafc" stroke="#94a3b8" d="M813.75,-85C813.75,-85 701.75,-85 701.75,-85 695.75,-85 689.75,-79 689.75,-73 689.75,-73 689.75,-61 689.75,-61 689.75,-55 695.75,-49 701.75,-49 701.75,-49 813.75,-49 813.75,-49 819.75,-49 825.75,-55 825.75,-61 825.75,-61 825.75,-73 825.75,-73 825.75,-79 819.75,-85 813.75,-85"/>
<text xml:space="preserve" text-anchor="middle" x="757.75" y="-61.58" font-family="Comic Mono" font-size="14.00">Annotated method</text>
</g>
<!-- aspect&#45;&gt;method -->
<g id="edge6" class="edge">
<title>aspect&#45;&gt;method</title>
<path fill="none" stroke="#4f83bf" d="M321,-249.73C321,-198.64 321,-58 321,-58 321,-58 680.99,-58 680.99,-58"/>
<polygon fill="#4f83bf" stroke="#4f83bf" points="680.99,-60.45 687.99,-58 680.99,-55.55 680.99,-60.45"/>
<text xml:space="preserve" text-anchor="middle" x="567.5" y="-136.5" font-family="Comic Mono" font-size="10.00">proceed with annotated body</text>
</g>
<!-- aspect&#45;&gt;method -->
<g id="edge11" class="edge">
<title>aspect&#45;&gt;method</title>
<path fill="none" stroke="#4f83bf" d="M362,-249.81C362,-200.33 362,-67 362,-67 362,-67 680.75,-67 680.75,-67"/>
<polygon fill="#4f83bf" stroke="#4f83bf" points="680.75,-69.45 687.75,-67 680.75,-64.55 680.75,-69.45"/>
<text xml:space="preserve" text-anchor="middle" x="567.5" y="-69.5" font-family="Comic Mono" font-size="10.00">proceed without backend reacquire</text>
</g>
<!-- scope&#45;&gt;aspect -->
<g id="edge10" class="edge">
<title>scope&#45;&gt;aspect</title>
<path fill="none" stroke="#3e9868" d="M768,-416.6C768,-373.94 768,-271.86 768,-271.86 768,-271.86 453.85,-271.86 453.85,-271.86"/>
<polygon fill="#3e9868" stroke="#3e9868" points="453.85,-269.41 446.85,-271.86 453.85,-274.31 453.85,-269.41"/>
<text xml:space="preserve" text-anchor="middle" x="567.5" y="-337.5" font-family="Comic Mono" font-size="10.00">reuse existing Real scope</text>
</g>
<!-- elector&#45;&gt;aspect -->
<g id="edge4" class="edge">
<title>elector&#45;&gt;aspect</title>
<path fill="none" stroke="#3e9868" d="M697,-253.45C697,-258.41 697,-262.43 697,-262.43 697,-262.43 453.94,-262.43 453.94,-262.43"/>
<polygon fill="#3e9868" stroke="#3e9868" points="453.94,-259.98 446.94,-262.43 453.94,-264.88 453.94,-259.98"/>
<text xml:space="preserve" text-anchor="middle" x="567.5" y="-203.5" font-family="Comic Mono" font-size="10.00">ownership acquired</text>
</g>
<!-- method&#45;&gt;aspect -->
<g id="edge8" class="edge">
<title>method&#45;&gt;aspect</title>
<path fill="none" stroke="#3e9868" d="M689.54,-76C586.75,-76 404,-76 404,-76 404,-76 404,-241.08 404,-241.08"/>
<polygon fill="#3e9868" stroke="#3e9868" points="401.55,-241.08 404,-248.08 406.45,-241.08 401.55,-241.08"/>
<text xml:space="preserve" text-anchor="middle" x="567.5" y="-2.5" font-family="Comic Mono" font-size="10.00">return method result</text>
</g>
<!-- assert -->
<g id="node6" class="node">
<title>assert</title>
<path fill="#f8fafc" stroke="#94a3b8" d="M1102,-85C1102,-85 1035,-85 1035,-85 1029,-85 1023,-79 1023,-73 1023,-73 1023,-61 1023,-61 1023,-55 1029,-49 1035,-49 1035,-49 1102,-49 1102,-49 1108,-49 1114,-55 1114,-61 1114,-61 1114,-73 1114,-73 1114,-79 1108,-85 1102,-85"/>
<text xml:space="preserve" text-anchor="middle" x="1068.5" y="-61.58" font-family="Comic Mono" font-size="14.00">LockAssert</text>
</g>
<!-- method&#45;&gt;assert -->
<g id="edge7" class="edge">
<title>method&#45;&gt;assert</title>
<path fill="none" stroke="#718a35" d="M825.95,-67C825.95,-67 1014.06,-67 1014.06,-67"/>
<polygon fill="#718a35" stroke="#718a35" points="1014.06,-69.45 1021.06,-67 1014.06,-64.55 1014.06,-69.45"/>
<text xml:space="preserve" text-anchor="middle" x="924.38" y="-69.5" font-family="Comic Mono" font-size="10.00">assertLocked inside scope</text>
</g>
</g>
</svg>
