<?xml version="1.0" encoding="UTF-8" standalone="no"?>
<!DOCTYPE svg PUBLIC "-//W3C//DTD SVG 1.1//EN"
 "http://www.w3.org/Graphics/SVG/1.1/DTD/svg11.dtd">
<!-- Generated by graphviz version 15.0.0 (20260523.1842)
 -->
<!-- Title: leader&#45;redis&#45;lettuce&#45;class&#45;01 Pages: 1 -->
<svg width="2338pt" height="730pt"
 viewBox="0.00 0.00 2338.00 730.00" xmlns="http://www.w3.org/2000/svg" xmlns:xlink="http://www.w3.org/1999/xlink">
<g id="graph0" class="graph" transform="scale(1 1) rotate(0) translate(4 725.7)">
<title>leader&#45;redis&#45;lettuce&#45;class&#45;01</title>
<text xml:space="preserve" text-anchor="middle" x="1164.88" y="-704.4" font-family="Times,serif" font-size="14.00">leader redis lettuce Class Structure</text>
<!-- n0&#45;&gt;r3p1 -->
<g id="edge7" class="edge">
<title>n0&#45;&gt;r3p1</title>
<path fill="none" stroke="#758297" stroke-width="1.8" d="M730.02,-385.04C900,-385.04 1142.92,-385.04 1163.48,-385.04"/>
</g>
<!-- n0&#45;&gt;r7p1 -->
<g id="edge19" class="edge">
<title>n0&#45;&gt;r7p1</title>
<path fill="none" stroke="#758297" stroke-width="1.8" stroke-dasharray="5,2" d="M564.88,-449.49C564.88,-478.81 564.88,-508.54 564.88,-515.51"/>
</g>
<!-- n1&#45;&gt;r4p1 -->
<g id="edge10" class="edge">
<title>n1&#45;&gt;r4p1</title>
<path fill="none" stroke="#758297" stroke-width="1.8" d="M964.88,-336.43C964.88,-298.74 964.88,-254.72 964.88,-246.79"/>
</g>
<!-- n1&#45;&gt;r8p1 -->
<g id="edge22" class="edge">
<title>n1&#45;&gt;r8p1</title>
<path fill="none" stroke="#758297" stroke-width="1.8" stroke-dasharray="5,2" d="M964.88,-449.6C964.88,-478.21 964.88,-508.39 964.88,-515.48"/>
</g>
<!-- n2&#45;&gt;r2p1 -->
<g id="edge4" class="edge">
<title>n2&#45;&gt;r2p1</title>
<path fill="none" stroke="#758297" stroke-width="1.8" d="M1999.75,-385.04C1722.38,-385.04 1190.55,-385.04 1165.78,-385.04"/>
</g>
<!-- n2&#45;&gt;r6p1 -->
<g id="edge16" class="edge">
<title>n2&#45;&gt;r6p1</title>
<path fill="none" stroke="#758297" stroke-width="1.8" stroke-dasharray="5,2" d="M2164.88,-449.49C2164.88,-478.81 2164.88,-508.54 2164.88,-515.51"/>
</g>
<!-- n9&#45;&gt;r1p1 -->
<g id="edge1" class="edge">
<title>n9&#45;&gt;r1p1</title>
<path fill="none" stroke="#758297" stroke-width="1.8" d="M1530.04,-385.04C1546.88,-385.04 1559.36,-385.04 1563.44,-385.04"/>
</g>
<!-- n9&#45;&gt;r5p1 -->
<g id="edge13" class="edge">
<title>n9&#45;&gt;r5p1</title>
<path fill="none" stroke="#758297" stroke-width="1.8" stroke-dasharray="5,2" d="M1364.88,-449.58C1364.88,-475.95 1364.88,-501.7 1364.88,-507.72"/>
</g>
<!-- r1p1&#45;&gt;r1p2 -->
<g id="edge2" class="edge">
<title>r1p1&#45;&gt;r1p2</title>
<path fill="none" stroke="#758297" stroke-width="1.8" d="M1564.88,-383.5C1564.88,-379.25 1564.88,-367.41 1564.88,-363.12"/>
</g>
<!-- r1p2&#45;&gt;n5 -->
<g id="edge3" class="edge">
<title>r1p2&#45;&gt;n5</title>
<path fill="none" stroke="#758297" stroke-width="1.8" d="M1566.16,-361.54C1569.22,-361.54 1577.63,-361.54 1589.35,-361.54"/>
<polygon fill="#758297" stroke="#758297" stroke-width="1.8" points="1589.21,-364.34 1597.21,-361.54 1589.21,-358.74 1589.21,-364.34"/>
</g>
<!-- r2p1&#45;&gt;r2p2 -->
<g id="edge5" class="edge">
<title>r2p1&#45;&gt;r2p2</title>
<path fill="none" stroke="#758297" stroke-width="1.8" d="M1164.88,-383.84C1164.88,-381.43 1164.88,-376 1164.88,-373.43"/>
</g>
<!-- r2p2&#45;&gt;n3 -->
<g id="edge6" class="edge">
<title>r2p2&#45;&gt;n3</title>
<path fill="none" stroke="#758297" stroke-width="1.8" d="M1163.75,-372.04C1136.42,-372.04 619.91,-372.04 340.65,-372.04"/>
<polygon fill="#758297" stroke="#758297" stroke-width="1.8" points="340.72,-369.24 332.72,-372.04 340.72,-374.84 340.72,-369.24"/>
</g>
<!-- r3p1&#45;&gt;r3p2 -->
<g id="edge8" class="edge">
<title>r3p1&#45;&gt;r3p2</title>
<path fill="none" stroke="#758297" stroke-width="1.8" d="M1164.88,-383.5C1164.88,-379.25 1164.88,-367.41 1164.88,-363.12"/>
</g>
<!-- r3p2&#45;&gt;n5 -->
<g id="edge9" class="edge">
<title>r3p2&#45;&gt;n5</title>
<path fill="none" stroke="#758297" stroke-width="1.8" d="M1166.2,-361.54C1185.81,-361.54 1419.61,-361.54 1589.13,-361.54"/>
<polygon fill="#758297" stroke="#758297" stroke-width="1.8" points="1588.96,-364.34 1596.96,-361.54 1588.96,-358.74 1588.96,-364.34"/>
</g>
<!-- r4p1&#45;&gt;r4p2 -->
<g id="edge11" class="edge">
<title>r4p1&#45;&gt;r4p2</title>
<path fill="none" stroke="#758297" stroke-width="1.8" d="M966.16,-245.54C982.26,-245.54 1145.5,-245.54 1163.31,-245.54"/>
</g>
<!-- r4p2&#45;&gt;n7 -->
<g id="edge12" class="edge">
<title>r4p2&#45;&gt;n7</title>
<path fill="none" stroke="#758297" stroke-width="1.8" d="M1164.88,-244.08C1164.88,-236.56 1164.88,-201.02 1164.88,-164.64"/>
<polygon fill="#758297" stroke="#758297" stroke-width="1.8" points="1167.68,-165.11 1164.88,-157.11 1162.08,-165.11 1167.68,-165.11"/>
</g>
<!-- r5p1&#45;&gt;r5p2 -->
<g id="edge14" class="edge">
<title>r5p1&#45;&gt;r5p2</title>
<path fill="none" stroke="#758297" stroke-width="1.8" stroke-dasharray="5,2" d="M1363.35,-509.04C1333.05,-509.04 862.4,-509.04 833.02,-509.04"/>
</g>
<!-- r5p2&#45;&gt;n10 -->
<g id="edge15" class="edge">
<title>r5p2&#45;&gt;n10</title>
<path fill="none" stroke="#758297" stroke-width="1.8" stroke-dasharray="5,2" d="M831.58,-510.43C831.58,-515.76 831.58,-535.68 831.58,-557.96"/>
<polygon fill="none" stroke="#758297" stroke-width="1.8" points="828.78,-557.95 831.58,-565.95 834.38,-557.95 828.78,-557.95"/>
</g>
<!-- r6p1&#45;&gt;r6p2 -->
<g id="edge17" class="edge">
<title>r6p1&#45;&gt;r6p2</title>
<path fill="none" stroke="#758297" stroke-width="1.8" stroke-dasharray="5,2" d="M2163.41,-517.04C2129.86,-517.04 1532.23,-517.04 1499.57,-517.04"/>
</g>
<!-- r6p2&#45;&gt;n8 -->
<g id="edge18" class="edge">
<title>r6p2&#45;&gt;n8</title>
<path fill="none" stroke="#758297" stroke-width="1.8" stroke-dasharray="5,2" d="M1498.18,-518.43C1498.18,-524.4 1498.18,-548.63 1498.18,-574"/>
<polygon fill="none" stroke="#758297" stroke-width="1.8" points="1495.38,-573.78 1498.18,-581.78 1500.98,-573.78 1495.38,-573.78"/>
</g>
<!-- r7p1&#45;&gt;r7p2 -->
<g id="edge20" class="edge">
<title>r7p1&#45;&gt;r7p2</title>
<path fill="none" stroke="#758297" stroke-width="1.8" stroke-dasharray="5,2" d="M563.43,-517.04C538.17,-517.04 190.63,-517.04 166.23,-517.04"/>
</g>
<!-- r7p2&#45;&gt;n4 -->
<g id="edge21" class="edge">
<title>r7p2&#45;&gt;n4</title>
<path fill="none" stroke="#758297" stroke-width="1.8" stroke-dasharray="5,2" d="M164.88,-518.43C164.88,-524.4 164.88,-548.63 164.88,-574"/>
<polygon fill="none" stroke="#758297" stroke-width="1.8" points="162.08,-573.78 164.88,-581.78 167.68,-573.78 162.08,-573.78"/>
</g>
<!-- r8p1&#45;&gt;r8p2 -->
<g id="edge23" class="edge">
<title>r8p1&#45;&gt;r8p2</title>
<path fill="none" stroke="#758297" stroke-width="1.8" stroke-dasharray="5,2" d="M966.24,-517.04C1010.33,-517.04 2115.82,-517.04 2163.31,-517.04"/>
</g>
<!-- r8p2&#45;&gt;n6 -->
<g id="edge24" class="edge">
<title>r8p2&#45;&gt;n6</title>
<path fill="none" stroke="#758297" stroke-width="1.8" stroke-dasharray="5,2" d="M2164.88,-518.43C2164.88,-524.4 2164.88,-548.63 2164.88,-574"/>
<polygon fill="none" stroke="#758297" stroke-width="1.8" points="2162.08,-573.78 2164.88,-581.78 2167.68,-573.78 2162.08,-573.78"/>
</g>
<!-- n0 -->
<g id="node1" class="node">
<title>n0</title>
<path fill="#ffffff" stroke="#5b8def" d="M717.76,-449.12C717.76,-449.12 412,-449.12 412,-449.12 406,-449.12 400,-443.12 400,-437.12 400,-437.12 400,-332.96 400,-332.96 400,-326.96 406,-320.96 412,-320.96 412,-320.96 717.76,-320.96 717.76,-320.96 723.76,-320.96 729.76,-326.96 729.76,-332.96 729.76,-332.96 729.76,-437.12 729.76,-437.12 729.76,-443.12 723.76,-449.12 717.76,-449.12"/>
<text xml:space="preserve" text-anchor="middle" x="564.88" y="-380.69" font-family="Architects Daughter" font-size="18.00">Lettuce Leader Group</text>
</g>
<!-- n1 -->
<g id="node2" class="node">
<title>n1</title>
<path fill="#ffffff" stroke="#58a978" d="M1117.76,-449.2C1117.76,-449.2 812,-449.2 812,-449.2 806,-449.2 800,-443.2 800,-437.2 800,-437.2 800,-348.88 800,-348.88 800,-342.88 806,-336.88 812,-336.88 812,-336.88 1117.76,-336.88 1117.76,-336.88 1123.76,-336.88 1129.76,-342.88 1129.76,-348.88 1129.76,-348.88 1129.76,-437.2 1129.76,-437.2 1129.76,-443.2 1123.76,-449.2 1117.76,-449.2"/>
<text xml:space="preserve" text-anchor="middle" x="964.88" y="-388.69" font-family="Architects Daughter" font-size="18.00">LettuceLeaderElector</text>
</g>
<!-- n2 -->
<g id="node3" class="node">
<title>n2</title>
<path fill="#ffffff" stroke="#d6a441" d="M2317.76,-449.12C2317.76,-449.12 2012,-449.12 2012,-449.12 2006,-449.12 2000,-443.12 2000,-437.12 2000,-437.12 2000,-332.96 2000,-332.96 2000,-326.96 2006,-320.96 2012,-320.96 2012,-320.96 2317.76,-320.96 2317.76,-320.96 2323.76,-320.96 2329.76,-326.96 2329.76,-332.96 2329.76,-332.96 2329.76,-437.12 2329.76,-437.12 2329.76,-443.12 2323.76,-449.12 2317.76,-449.12"/>
<text xml:space="preserve" text-anchor="middle" x="2164.88" y="-380.69" font-family="Architects Daughter" font-size="18.00">Lettuce Suspend Leader</text>
</g>
<!-- n3 -->
<g id="node4" class="node">
<title>n3</title>
<path fill="#ffffff" stroke="#dc6b82" d="M317.76,-449.08C317.76,-449.08 12,-449.08 12,-449.08 6,-449.08 0,-443.08 0,-437.08 0,-437.08 0,-307 0,-307 0,-301 6,-295 12,-295 12,-295 317.76,-295 317.76,-295 323.76,-295 329.76,-301 329.76,-307 329.76,-307 329.76,-437.08 329.76,-437.08 329.76,-443.08 323.76,-449.08 317.76,-449.08"/>
<text xml:space="preserve" text-anchor="middle" x="164.88" y="-367.69" font-family="Architects Daughter" font-size="18.00">LettuceSuspendLock</text>
</g>
<!-- n4 -->
<g id="node5" class="node">
<title>n4</title>
<path fill="#ffffff" stroke="#45a7a1" d="M317.76,-697.2C317.76,-697.2 12,-697.2 12,-697.2 6,-697.2 0,-691.2 0,-685.2 0,-685.2 0,-596.88 0,-596.88 0,-590.88 6,-584.88 12,-584.88 12,-584.88 317.76,-584.88 317.76,-584.88 323.76,-584.88 329.76,-590.88 329.76,-596.88 329.76,-596.88 329.76,-685.2 329.76,-685.2 329.76,-691.2 323.76,-697.2 317.76,-697.2"/>
<text xml:space="preserve" text-anchor="middle" x="164.88" y="-636.69" font-family="Architects Daughter" font-size="18.00">LeaderGroupElector</text>
</g>
<!-- n5 -->
<g id="node6" class="node">
<title>n5</title>
<path fill="#ffffff" stroke="#8a72d6" d="M1917.76,-449.02C1917.76,-449.02 1612,-449.02 1612,-449.02 1606,-449.02 1600,-443.02 1600,-437.02 1600,-437.02 1600,-286.06 1600,-286.06 1600,-280.06 1606,-274.06 1612,-274.06 1612,-274.06 1917.76,-274.06 1917.76,-274.06 1923.76,-274.06 1929.76,-280.06 1929.76,-286.06 1929.76,-286.06 1929.76,-437.02 1929.76,-437.02 1929.76,-443.02 1923.76,-449.02 1917.76,-449.02"/>
<text xml:space="preserve" text-anchor="middle" x="1764.88" y="-357.19" font-family="Architects Daughter" font-size="18.00">LettuceSlotTokenGroup</text>
</g>
<!-- n6 -->
<g id="node7" class="node">
<title>n6</title>
<path fill="#ffffff" stroke="#b88a44" d="M2317.76,-697.2C2317.76,-697.2 2012,-697.2 2012,-697.2 2006,-697.2 2000,-691.2 2000,-685.2 2000,-685.2 2000,-596.88 2000,-596.88 2000,-590.88 2006,-584.88 2012,-584.88 2012,-584.88 2317.76,-584.88 2317.76,-584.88 2323.76,-584.88 2329.76,-590.88 2329.76,-596.88 2329.76,-596.88 2329.76,-685.2 2329.76,-685.2 2329.76,-691.2 2323.76,-697.2 2317.76,-697.2"/>
<text xml:space="preserve" text-anchor="middle" x="2164.88" y="-636.69" font-family="Architects Daughter" font-size="18.00">LeaderElector</text>
</g>
<!-- n7 -->
<g id="node8" class="node">
<title>n7</title>
<path fill="#ffffff" stroke="#8ba84d" d="M1317.76,-154.08C1317.76,-154.08 1012,-154.08 1012,-154.08 1006,-154.08 1000,-148.08 1000,-142.08 1000,-142.08 1000,-12 1000,-12 1000,-6 1006,0 1012,0 1012,0 1317.76,0 1317.76,0 1323.76,0 1329.76,-6 1329.76,-12 1329.76,-12 1329.76,-142.08 1329.76,-142.08 1329.76,-148.08 1323.76,-154.08 1317.76,-154.08"/>
<text xml:space="preserve" text-anchor="middle" x="1164.88" y="-72.69" font-family="Architects Daughter" font-size="18.00">LettuceLock</text>
</g>
<!-- n8 -->
<g id="node9" class="node">
<title>n8</title>
<path fill="#ffffff" stroke="#5b8def" d="M1651.06,-697.2C1651.06,-697.2 1345.3,-697.2 1345.3,-697.2 1339.3,-697.2 1333.3,-691.2 1333.3,-685.2 1333.3,-685.2 1333.3,-596.88 1333.3,-596.88 1333.3,-590.88 1339.3,-584.88 1345.3,-584.88 1345.3,-584.88 1651.06,-584.88 1651.06,-584.88 1657.06,-584.88 1663.06,-590.88 1663.06,-596.88 1663.06,-596.88 1663.06,-685.2 1663.06,-685.2 1663.06,-691.2 1657.06,-697.2 1651.06,-697.2"/>
<text xml:space="preserve" text-anchor="middle" x="1498.18" y="-636.69" font-family="Architects Daughter" font-size="18.00">SuspendLeaderElector</text>
</g>
<!-- n9 -->
<g id="node10" class="node">
<title>n9</title>
<path fill="#ffffff" stroke="#58a978" d="M1517.76,-449.12C1517.76,-449.12 1212,-449.12 1212,-449.12 1206,-449.12 1200,-443.12 1200,-437.12 1200,-437.12 1200,-332.96 1200,-332.96 1200,-326.96 1206,-320.96 1212,-320.96 1212,-320.96 1517.76,-320.96 1517.76,-320.96 1523.76,-320.96 1529.76,-326.96 1529.76,-332.96 1529.76,-332.96 1529.76,-437.12 1529.76,-437.12 1529.76,-443.12 1523.76,-449.12 1517.76,-449.12"/>
<text xml:space="preserve" text-anchor="middle" x="1364.88" y="-380.69" font-family="Architects Daughter" font-size="18.00">Lettuce Suspend Leader</text>
</g>
<!-- n10 -->
<g id="node11" class="node">
<title>n10</title>
<path fill="#ffffff" stroke="#d6a441" d="M984.46,-697.12C984.46,-697.12 678.7,-697.12 678.7,-697.12 672.7,-697.12 666.7,-691.12 666.7,-685.12 666.7,-685.12 666.7,-580.96 666.7,-580.96 666.7,-574.96 672.7,-568.96 678.7,-568.96 678.7,-568.96 984.46,-568.96 984.46,-568.96 990.46,-568.96 996.46,-574.96 996.46,-580.96 996.46,-580.96 996.46,-685.12 996.46,-685.12 996.46,-691.12 990.46,-697.12 984.46,-697.12"/>
<text xml:space="preserve" text-anchor="middle" x="831.58" y="-628.69" font-family="Architects Daughter" font-size="18.00">Suspend Leader Group</text>
</g>
<!-- r1p1 -->
<!-- r1p2 -->
<!-- r2p1 -->
<!-- r2p2 -->
<!-- r3p1 -->
<!-- r3p2 -->
<!-- r4p1 -->
<!-- r4p2 -->
<!-- r5p1 -->
<!-- r5p2 -->
<!-- r6p1 -->
<!-- r6p2 -->
<!-- r7p1 -->
<!-- r7p2 -->
<!-- r8p1 -->
<!-- r8p2 -->
</g>
</svg>
