<?xml version="1.0" encoding="UTF-8" standalone="no"?>
<!DOCTYPE svg PUBLIC "-//W3C//DTD SVG 1.1//EN"
 "http://www.w3.org/Graphics/SVG/1.1/DTD/svg11.dtd">
<!-- Generated by graphviz version 15.0.0 (20260523.1842)
 -->
<!-- Title: leader&#45;redis&#45;lettuce&#45;sequence&#45;02 Pages: 1 -->
<svg width="1316pt" height="1797pt"
 viewBox="0.00 0.00 1316.00 1797.00" xmlns="http://www.w3.org/2000/svg" xmlns:xlink="http://www.w3.org/1999/xlink">
<g id="graph0" class="graph" transform="scale(1 1) rotate(0) translate(4 1792.5)">
<title>leader&#45;redis&#45;lettuce&#45;sequence&#45;02</title>
<text xml:space="preserve" text-anchor="middle" x="654.12" y="-1771.2" font-family="Times,serif" font-size="14.00">Scenario 1 — Normal acquire/release plus cra.</text>
<!-- n0&#45;&gt;n2 -->
<g id="edge1" class="edge">
<title>n0&#45;&gt;n2</title>
<path fill="none" stroke="#758297" stroke-width="1.8" d="M171.57,-1733.28C171.57,-1749.05 171.57,-1764 171.57,-1764 171.57,-1764 1265.35,-1764 1265.35,-1764 1265.35,-1764 1265.35,-1744.01 1265.35,-1744.01"/>
<polygon fill="#758297" stroke="#758297" stroke-width="1.8" points="1268.15,-1744.01 1265.35,-1736.01 1262.55,-1744.01 1268.15,-1744.01"/>
</g>
<!-- n0&#45;&gt;n2 -->
<g id="edge11" class="edge">
<title>n0&#45;&gt;n2</title>
<path fill="none" stroke="#758297" stroke-width="1.8" d="M214.46,-1733.46C214.46,-1746.94 214.46,-1759 214.46,-1759 214.46,-1759 1222.46,-1759 1222.46,-1759 1222.46,-1759 1222.46,-1744.18 1222.46,-1744.18"/>
<polygon fill="#758297" stroke="#758297" stroke-width="1.8" points="1225.26,-1744.18 1222.46,-1736.18 1219.66,-1744.18 1225.26,-1744.18"/>
</g>
<!-- n0&#45;&gt;n2 -->
<g id="edge16" class="edge">
<title>n0&#45;&gt;n2</title>
<path fill="none" stroke="#758297" stroke-width="1.8" d="M257.35,-1733.45C257.35,-1744.61 257.35,-1754 257.35,-1754 257.35,-1754 1179.57,-1754 1179.57,-1754 1179.57,-1754 1179.57,-1744.17 1179.57,-1744.17"/>
<polygon fill="#758297" stroke="#758297" stroke-width="1.8" points="1182.37,-1744.17 1179.57,-1736.17 1176.77,-1744.17 1182.37,-1744.17"/>
</g>
<!-- n0&#45;&gt;r4p1 -->
<g id="edge6" class="edge">
<title>n0&#45;&gt;r4p1</title>
<path fill="none" stroke="#758297" stroke-width="1.8" d="M214.12,-1660.98C214.12,-1550.37 214.12,-1222.13 214.12,-1196.65"/>
</g>
<!-- n0&#45;&gt;r12p1 -->
<g id="edge18" class="edge">
<title>n0&#45;&gt;r12p1</title>
<path fill="none" stroke="#758297" stroke-width="1.8" d="M257.72,-1660.86C257.72,-1439.17 257.72,-275 257.72,-275 257.72,-275 223.14,-275 215.57,-275"/>
</g>
<!-- n1&#45;&gt;n2 -->
<g id="edge9" class="edge">
<title>n1&#45;&gt;n2</title>
<path fill="none" stroke="#758297" stroke-width="1.8" d="M804.65,-1719C804.65,-1719 997.2,-1719 997.2,-1719"/>
<polygon fill="#758297" stroke="#758297" stroke-width="1.8" points="997.2,-1721.8 1005.2,-1719 997.2,-1716.2 997.2,-1721.8"/>
</g>
<!-- n1&#45;&gt;n2 -->
<g id="edge21" class="edge">
<title>n1&#45;&gt;n2</title>
<path fill="none" stroke="#758297" stroke-width="1.8" d="M804.65,-1704C804.65,-1704 997.2,-1704 997.2,-1704"/>
<polygon fill="#758297" stroke="#758297" stroke-width="1.8" points="997.2,-1706.8 1005.2,-1704 997.2,-1701.2 997.2,-1706.8"/>
</g>
<!-- n2&#45;&gt;n0 -->
<g id="edge5" class="edge">
<title>n2&#45;&gt;n0</title>
<path fill="none" stroke="#758297" stroke-width="1.8" stroke-dasharray="5,2" d="M1136.67,-1733.42C1136.67,-1742.15 1136.67,-1749 1136.67,-1749 1136.67,-1749 42.89,-1749 42.89,-1749 42.89,-1749 42.89,-1744.15 42.89,-1744.15"/>
<polygon fill="#758297" stroke="#758297" stroke-width="1.8" points="45.69,-1744.15 42.89,-1736.15 40.09,-1744.15 45.69,-1744.15"/>
</g>
<!-- n2&#45;&gt;n0 -->
<g id="edge15" class="edge">
<title>n2&#45;&gt;n0</title>
<path fill="none" stroke="#758297" stroke-width="1.8" stroke-dasharray="5,2" d="M1093.78,-1733.26C1093.78,-1738.95 1093.78,-1743 1093.78,-1743 1093.78,-1743 85.78,-1743 85.78,-1743 85.78,-1743 85.78,-1742.03 85.78,-1742.03"/>
<polygon fill="#758297" stroke="#758297" stroke-width="1.8" points="88.58,-1743.99 85.78,-1735.99 82.98,-1743.99 88.58,-1743.99"/>
</g>
<!-- n2&#45;&gt;n0 -->
<g id="edge17" class="edge">
<title>n2&#45;&gt;n0</title>
<path fill="none" stroke="#758297" stroke-width="1.8" stroke-dasharray="5,2" d="M1050.89,-1733.31C1050.89,-1736.18 1050.89,-1738 1050.89,-1738 1050.89,-1738 128.67,-1738 128.67,-1738 128.67,-1738 128.67,-1737.53 128.67,-1737.53"/>
<polygon fill="#758297" stroke="#758297" stroke-width="1.8" points="131.47,-1744.03 128.67,-1736.03 125.87,-1744.03 131.47,-1744.03"/>
</g>
<!-- n2&#45;&gt;n1 -->
<g id="edge10" class="edge">
<title>n2&#45;&gt;n1</title>
<path fill="none" stroke="#758297" stroke-width="1.8" stroke-dasharray="5,2" d="M1007.59,-1690C1007.59,-1690 815.04,-1690 815.04,-1690"/>
<polygon fill="#758297" stroke="#758297" stroke-width="1.8" points="815.04,-1687.2 807.04,-1690 815.04,-1692.8 815.04,-1687.2"/>
</g>
<!-- n2&#45;&gt;n1 -->
<g id="edge25" class="edge">
<title>n2&#45;&gt;n1</title>
<path fill="none" stroke="#758297" stroke-width="1.8" stroke-dasharray="5,2" d="M1007.59,-1675C1007.59,-1675 815.04,-1675 815.04,-1675"/>
<polygon fill="#758297" stroke="#758297" stroke-width="1.8" points="815.04,-1672.2 807.04,-1675 815.04,-1677.8 815.04,-1672.2"/>
</g>
<!-- n2&#45;&gt;r2p1 -->
<g id="edge2" class="edge">
<title>n2&#45;&gt;r2p1</title>
<path fill="none" stroke="#758297" stroke-width="1.8" d="M1222.12,-1660.69C1222.12,-1590.24 1222.12,-1440.65 1222.12,-1424.5"/>
</g>
<!-- n2&#45;&gt;r8p1 -->
<g id="edge12" class="edge">
<title>n2&#45;&gt;r8p1</title>
<path fill="none" stroke="#758297" stroke-width="1.8" d="M1251.55,-1660.83C1251.55,-1485.63 1251.55,-735 1251.55,-735 1251.55,-735 1229.02,-735 1223.38,-735"/>
</g>
<!-- n2&#45;&gt;r14p1 -->
<g id="edge22" class="edge">
<title>n2&#45;&gt;r14p1</title>
<path fill="none" stroke="#758297" stroke-width="1.8" d="M1279.89,-1660.82C1279.89,-1417.76 1279.89,-35 1279.89,-35 1279.89,-35 1232.44,-35 1223.55,-35"/>
</g>
<!-- r2p1&#45;&gt;r2p2 -->
<g id="edge3" class="edge">
<title>r2p1&#45;&gt;r2p2</title>
<path fill="none" stroke="#758297" stroke-width="1.8" d="M1222.12,-1421.62C1222.12,-1416.03 1222.12,-1396.02 1222.12,-1390.5"/>
</g>
<!-- r2p2&#45;&gt;n2 -->
<g id="edge4" class="edge">
<title>r2p2&#45;&gt;n2</title>
<path fill="none" stroke="#758297" stroke-width="1.8" d="M1223.53,-1389C1227.3,-1389 1237.37,-1389 1237.37,-1389 1237.37,-1389 1237.37,-1650.11 1237.37,-1650.11"/>
<polygon fill="#758297" stroke="#758297" stroke-width="1.8" points="1234.57,-1650.11 1237.37,-1658.11 1240.17,-1650.11 1234.57,-1650.11"/>
</g>
<!-- r4p1&#45;&gt;r4p2 -->
<g id="edge7" class="edge">
<title>r4p1&#45;&gt;r4p2</title>
<path fill="none" stroke="#758297" stroke-width="1.8" d="M214.12,-1193.62C214.12,-1188.03 214.12,-1168.02 214.12,-1162.5"/>
</g>
<!-- r4p2&#45;&gt;n0 -->
<g id="edge8" class="edge">
<title>r4p2&#45;&gt;n0</title>
<path fill="none" stroke="#758297" stroke-width="1.8" d="M215.59,-1161C220.56,-1161 236.46,-1161 236.46,-1161 236.46,-1161 236.46,-1649.93 236.46,-1649.93"/>
<polygon fill="#758297" stroke="#758297" stroke-width="1.8" points="233.66,-1649.93 236.46,-1657.93 239.26,-1649.93 233.66,-1649.93"/>
</g>
<!-- r8p1&#45;&gt;r8p2 -->
<g id="edge13" class="edge">
<title>r8p1&#45;&gt;r8p2</title>
<path fill="none" stroke="#758297" stroke-width="1.8" d="M1222.12,-733.62C1222.12,-728.03 1222.12,-708.02 1222.12,-702.5"/>
</g>
<!-- r8p2&#45;&gt;n2 -->
<g id="edge14" class="edge">
<title>r8p2&#45;&gt;n2</title>
<path fill="none" stroke="#758297" stroke-width="1.8" d="M1223.57,-701C1231.14,-701 1265.72,-701 1265.72,-701 1265.72,-701 1265.72,-1650.02 1265.72,-1650.02"/>
<polygon fill="#758297" stroke="#758297" stroke-width="1.8" points="1262.92,-1650.02 1265.72,-1658.02 1268.52,-1650.02 1262.92,-1650.02"/>
</g>
<!-- r12p1&#45;&gt;r12p2 -->
<g id="edge19" class="edge">
<title>r12p1&#45;&gt;r12p2</title>
<path fill="none" stroke="#758297" stroke-width="1.8" d="M214.12,-273.62C214.12,-268.03 214.12,-248.02 214.12,-242.5"/>
</g>
<!-- r12p2&#45;&gt;n0 -->
<g id="edge20" class="edge">
<title>r12p2&#45;&gt;n0</title>
<path fill="none" stroke="#758297" stroke-width="1.8" d="M215.25,-241C223.86,-241 278.98,-241 278.98,-241 278.98,-241 278.98,-1650 278.98,-1650"/>
<polygon fill="#758297" stroke="#758297" stroke-width="1.8" points="276.18,-1650 278.98,-1658 281.78,-1650 276.18,-1650"/>
</g>
<!-- r14p1&#45;&gt;r14p2 -->
<g id="edge23" class="edge">
<title>r14p1&#45;&gt;r14p2</title>
<path fill="none" stroke="#758297" stroke-width="1.8" d="M1222.12,-33.62C1222.12,-28.03 1222.12,-8.02 1222.12,-2.5"/>
</g>
<!-- r14p2&#45;&gt;n2 -->
<g id="edge24" class="edge">
<title>r14p2&#45;&gt;n2</title>
<path fill="none" stroke="#758297" stroke-width="1.8" d="M1223.62,-1C1233.95,-1 1294.07,-1 1294.07,-1 1294.07,-1 1294.07,-1650.15 1294.07,-1650.15"/>
<polygon fill="#758297" stroke="#758297" stroke-width="1.8" points="1291.27,-1650.15 1294.07,-1658.15 1296.87,-1650.15 1291.27,-1650.15"/>
</g>
<!-- n0 -->
<g id="node1" class="node">
<title>n0</title>
<path fill="#ffffff" stroke="#5b8def" d="M288.24,-1733.08C288.24,-1733.08 12,-1733.08 12,-1733.08 6,-1733.08 0,-1727.08 0,-1721.08 0,-1721.08 0,-1673.08 0,-1673.08 0,-1667.08 6,-1661.08 12,-1661.08 12,-1661.08 288.24,-1661.08 288.24,-1661.08 294.24,-1661.08 300.24,-1667.08 300.24,-1673.08 300.24,-1673.08 300.24,-1721.08 300.24,-1721.08 300.24,-1727.08 294.24,-1733.08 288.24,-1733.08"/>
<text xml:space="preserve" text-anchor="middle" x="150.12" y="-1692.73" font-family="Architects Daughter" font-size="18.00">ClientA</text>
</g>
<!-- n1 -->
<g id="node2" class="node">
<title>n1</title>
<path fill="#ffffff" stroke="#58a978" d="M792.24,-1733.08C792.24,-1733.08 516,-1733.08 516,-1733.08 510,-1733.08 504,-1727.08 504,-1721.08 504,-1721.08 504,-1673.08 504,-1673.08 504,-1667.08 510,-1661.08 516,-1661.08 516,-1661.08 792.24,-1661.08 792.24,-1661.08 798.24,-1661.08 804.24,-1667.08 804.24,-1673.08 804.24,-1673.08 804.24,-1721.08 804.24,-1721.08 804.24,-1727.08 798.24,-1733.08 792.24,-1733.08"/>
<text xml:space="preserve" text-anchor="middle" x="654.12" y="-1692.73" font-family="Architects Daughter" font-size="18.00">ClientB</text>
</g>
<!-- n2 -->
<g id="node3" class="node">
<title>n2</title>
<path fill="#ffffff" stroke="#d6a441" d="M1296.24,-1733.08C1296.24,-1733.08 1020,-1733.08 1020,-1733.08 1014,-1733.08 1008,-1727.08 1008,-1721.08 1008,-1721.08 1008,-1673.08 1008,-1673.08 1008,-1667.08 1014,-1661.08 1020,-1661.08 1020,-1661.08 1296.24,-1661.08 1296.24,-1661.08 1302.24,-1661.08 1308.24,-1667.08 1308.24,-1673.08 1308.24,-1673.08 1308.24,-1721.08 1308.24,-1721.08 1308.24,-1727.08 1302.24,-1733.08 1296.24,-1733.08"/>
<text xml:space="preserve" text-anchor="middle" x="1158.12" y="-1692.73" font-family="Architects Daughter" font-size="18.00">Redis</text>
</g>
<!-- r2p1 -->
<!-- r2p2 -->
<!-- r4p1 -->
<!-- r4p2 -->
<!-- r8p1 -->
<!-- r8p2 -->
<!-- r12p1 -->
<!-- r12p2 -->
<!-- r14p1 -->
<!-- r14p2 -->
</g>
</svg>
