<?xml version="1.0" encoding="UTF-8" standalone="no"?>
<!DOCTYPE svg PUBLIC "-//W3C//DTD SVG 1.1//EN"
 "http://www.w3.org/Graphics/SVG/1.1/DTD/svg11.dtd">
<!-- Generated by graphviz version 15.0.0 (20260523.1842)
 -->
<!-- Title: leader&#45;micrometer&#45;architecture&#45;01 Pages: 1 -->
<svg width="1806pt" height="293pt"
 viewBox="0.00 0.00 1806.00 293.00" xmlns="http://www.w3.org/2000/svg" xmlns:xlink="http://www.w3.org/1999/xlink">
<g id="graph0" class="graph" transform="scale(1 1) rotate(0) translate(4 289)">
<title>leader&#45;micrometer&#45;architecture&#45;01</title>
<!-- aopSource -->
<g id="node1" class="node">
<title>aopSource</title>
<path fill="#f8fafc" stroke="#94a3b8" d="M154,-285C154,-285 12,-285 12,-285 6,-285 0,-279 0,-273 0,-273 0,-261 0,-261 0,-255 6,-249 12,-249 12,-249 154,-249 154,-249 160,-249 166,-255 166,-261 166,-261 166,-273 166,-273 166,-279 160,-285 154,-285"/>
<text xml:space="preserve" text-anchor="middle" x="83" y="-261.57" font-family="Comic Mono" font-size="14.00">Spring AOP Callbacks</text>
</g>
<!-- aopRecorder -->
<g id="node5" class="node">
<title>aopRecorder</title>
<path fill="#f8fafc" stroke="#94a3b8" d="M429.5,-285C429.5,-285 287.5,-285 287.5,-285 281.5,-285 275.5,-279 275.5,-273 275.5,-273 275.5,-261 275.5,-261 275.5,-255 281.5,-249 287.5,-249 287.5,-249 429.5,-249 429.5,-249 435.5,-249 441.5,-255 441.5,-261 441.5,-261 441.5,-273 441.5,-273 441.5,-279 435.5,-285 429.5,-285"/>
<text xml:space="preserve" text-anchor="middle" x="358.5" y="-261.57" font-family="Comic Mono" font-size="14.00">AOP Metrics Recorder</text>
</g>
<!-- aopSource&#45;&gt;aopRecorder -->
<g id="edge1" class="edge">
<title>aopSource&#45;&gt;aopRecorder</title>
<path fill="none" stroke="#758297" d="M166.41,-267C166.41,-267 263.86,-267 263.86,-267"/>
<polygon fill="#758297" stroke="#758297" points="263.86,-270.5 273.86,-267 263.86,-263.5 263.86,-270.5"/>
<text xml:space="preserve" text-anchor="middle" x="209.5" y="-269.5" font-family="Comic Mono" font-size="10.00">call</text>
</g>
<!-- directSource -->
<g id="node2" class="node">
<title>directSource</title>
<path fill="#f8fafc" stroke="#94a3b8" d="M154,-202C154,-202 12,-202 12,-202 6,-202 0,-196 0,-190 0,-190 0,-178 0,-178 0,-172 6,-166 12,-166 12,-166 154,-166 154,-166 160,-166 166,-172 166,-178 166,-178 166,-190 166,-190 166,-196 160,-202 154,-202"/>
<text xml:space="preserve" text-anchor="middle" x="83" y="-178.57" font-family="Comic Mono" font-size="14.00">Direct Elector Calls</text>
</g>
<!-- decorators -->
<g id="node6" class="node">
<title>decorators</title>
<path fill="#f8fafc" stroke="#94a3b8" d="M440.75,-202C440.75,-202 276.25,-202 276.25,-202 270.25,-202 264.25,-196 264.25,-190 264.25,-190 264.25,-178 264.25,-178 264.25,-172 270.25,-166 276.25,-166 276.25,-166 440.75,-166 440.75,-166 446.75,-166 452.75,-172 452.75,-178 452.75,-178 452.75,-190 452.75,-190 452.75,-196 446.75,-202 440.75,-202"/>
<text xml:space="preserve" text-anchor="middle" x="358.5" y="-178.57" font-family="Comic Mono" font-size="14.00">Instrumented Decorators</text>
</g>
<!-- directSource&#45;&gt;decorators -->
<g id="edge2" class="edge">
<title>directSource&#45;&gt;decorators</title>
<path fill="none" stroke="#758297" d="M166.41,-184C166.41,-184 252.29,-184 252.29,-184"/>
<polygon fill="#758297" stroke="#758297" points="252.29,-187.5 262.29,-184 252.29,-180.5 252.29,-187.5"/>
<text xml:space="preserve" text-anchor="middle" x="209.5" y="-186.5" font-family="Comic Mono" font-size="10.00">call</text>
</g>
<!-- listenerSource -->
<g id="node3" class="node">
<title>listenerSource</title>
<path fill="#f8fafc" stroke="#94a3b8" d="M142.75,-119C142.75,-119 23.25,-119 23.25,-119 17.25,-119 11.25,-113 11.25,-107 11.25,-107 11.25,-95 11.25,-95 11.25,-89 17.25,-83 23.25,-83 23.25,-83 142.75,-83 142.75,-83 148.75,-83 154.75,-89 154.75,-95 154.75,-95 154.75,-107 154.75,-107 154.75,-113 148.75,-119 142.75,-119"/>
<text xml:space="preserve" text-anchor="middle" x="83" y="-95.58" font-family="Comic Mono" font-size="14.00">Listener Registry</text>
</g>
<!-- listener -->
<g id="node7" class="node">
<title>listener</title>
<path fill="#f8fafc" stroke="#94a3b8" d="M425.75,-119C425.75,-119 291.25,-119 291.25,-119 285.25,-119 279.25,-113 279.25,-107 279.25,-107 279.25,-95 279.25,-95 279.25,-89 285.25,-83 291.25,-83 291.25,-83 425.75,-83 425.75,-83 431.75,-83 437.75,-89 437.75,-95 437.75,-95 437.75,-107 437.75,-107 437.75,-113 431.75,-119 425.75,-119"/>
<text xml:space="preserve" text-anchor="middle" x="358.5" y="-95.58" font-family="Comic Mono" font-size="14.00">Micrometer Listener</text>
</g>
<!-- listenerSource&#45;&gt;listener -->
<g id="edge3" class="edge">
<title>listenerSource&#45;&gt;listener</title>
<path fill="none" stroke="#758297" d="M155.02,-101C155.02,-101 267.63,-101 267.63,-101"/>
<polygon fill="#758297" stroke="#758297" points="267.63,-104.5 277.63,-101 267.63,-97.5 267.63,-104.5"/>
<text xml:space="preserve" text-anchor="middle" x="209.5" y="-103.5" font-family="Comic Mono" font-size="10.00">call</text>
</g>
<!-- historySource -->
<g id="node4" class="node">
<title>historySource</title>
<path fill="#f8fafc" stroke="#94a3b8" d="M139,-36C139,-36 27,-36 27,-36 21,-36 15,-30 15,-24 15,-24 15,-12 15,-12 15,-6 21,0 27,0 27,0 139,0 139,0 145,0 151,-6 151,-12 151,-12 151,-24 151,-24 151,-30 145,-36 139,-36"/>
<text xml:space="preserve" text-anchor="middle" x="83" y="-12.57" font-family="Comic Mono" font-size="14.00">History Recorder</text>
</g>
<!-- history -->
<g id="node8" class="node">
<title>history</title>
<path fill="#f8fafc" stroke="#94a3b8" d="M452,-36C452,-36 265,-36 265,-36 259,-36 253,-30 253,-24 253,-24 253,-12 253,-12 253,-6 259,0 265,0 265,0 452,0 452,0 458,0 464,-6 464,-12 464,-12 464,-24 464,-24 464,-30 458,-36 452,-36"/>
<text xml:space="preserve" text-anchor="middle" x="358.5" y="-12.57" font-family="Comic Mono" font-size="14.00">Counter&#45;Aware History Sink</text>
</g>
<!-- historySource&#45;&gt;history -->
<g id="edge4" class="edge">
<title>historySource&#45;&gt;history</title>
<path fill="none" stroke="#758297" d="M151.46,-18C151.46,-18 241.04,-18 241.04,-18"/>
<polygon fill="#758297" stroke="#758297" points="241.04,-21.5 251.04,-18 241.04,-14.5 241.04,-21.5"/>
<text xml:space="preserve" text-anchor="middle" x="209.5" y="-20.5" font-family="Comic Mono" font-size="10.00">call</text>
</g>
<!-- registry -->
<g id="node9" class="node">
<title>registry</title>
<path fill="#f8fafc" stroke="#94a3b8" d="M774,-160C774,-160 594.5,-160 594.5,-160 588.5,-160 582.5,-154 582.5,-148 582.5,-148 582.5,-136 582.5,-136 582.5,-130 588.5,-124 594.5,-124 594.5,-124 774,-124 774,-124 780,-124 786,-130 786,-136 786,-136 786,-148 786,-148 786,-154 780,-160 774,-160"/>
<text xml:space="preserve" text-anchor="middle" x="684.25" y="-136.57" font-family="Comic Mono" font-size="14.00">Application MeterRegistry</text>
</g>
<!-- aopRecorder&#45;&gt;registry -->
<g id="edge5" class="edge">
<title>aopRecorder&#45;&gt;registry</title>
<path fill="none" stroke="#758297" d="M441.9,-267C538.34,-267 684,-267 684,-267 684,-267 684,-171.96 684,-171.96"/>
<polygon fill="#758297" stroke="#758297" points="687.5,-171.96 684,-161.96 680.5,-171.96 687.5,-171.96"/>
<text xml:space="preserve" text-anchor="middle" x="523.25" y="-257.5" font-family="Comic Mono" font-size="10.00">dependency</text>
</g>
<!-- decorators&#45;&gt;registry -->
<g id="edge6" class="edge">
<title>decorators&#45;&gt;registry</title>
<path fill="none" stroke="#758297" d="M445,-165.57C445,-158.01 445,-151 445,-151 445,-151 570.58,-151 570.58,-151"/>
<polygon fill="#758297" stroke="#758297" points="570.58,-154.5 580.58,-151 570.58,-147.5 570.58,-154.5"/>
<text xml:space="preserve" text-anchor="middle" x="523.25" y="-181.5" font-family="Comic Mono" font-size="10.00">dependency</text>
</g>
<!-- listener&#45;&gt;registry -->
<g id="edge7" class="edge">
<title>listener&#45;&gt;registry</title>
<path fill="none" stroke="#758297" d="M358,-119.1C358,-130.09 358,-142 358,-142 358,-142 570.85,-142 570.85,-142"/>
<polygon fill="#758297" stroke="#758297" points="570.85,-145.5 580.85,-142 570.85,-138.5 570.85,-145.5"/>
<text xml:space="preserve" text-anchor="middle" x="523.25" y="-112.5" font-family="Comic Mono" font-size="10.00">dependency</text>
</g>
<!-- history&#45;&gt;registry -->
<g id="edge8" class="edge">
<title>history&#45;&gt;registry</title>
<path fill="none" stroke="#758297" d="M458,-36.48C458,-68.98 458,-133 458,-133 458,-133 570.53,-133 570.53,-133"/>
<polygon fill="#758297" stroke="#758297" points="570.53,-136.5 580.53,-133 570.53,-129.5 570.53,-136.5"/>
<text xml:space="preserve" text-anchor="middle" x="523.25" y="-39.5" font-family="Comic Mono" font-size="10.00">dependency</text>
</g>
<!-- aopMeters -->
<g id="node10" class="node">
<title>aopMeters</title>
<path fill="#f8fafc" stroke="#94a3b8" d="M1007.5,-160C1007.5,-160 895.5,-160 895.5,-160 889.5,-160 883.5,-154 883.5,-148 883.5,-148 883.5,-136 883.5,-136 883.5,-130 889.5,-124 895.5,-124 895.5,-124 1007.5,-124 1007.5,-124 1013.5,-124 1019.5,-130 1019.5,-136 1019.5,-136 1019.5,-148 1019.5,-148 1019.5,-154 1013.5,-160 1007.5,-160"/>
<text xml:space="preserve" text-anchor="middle" x="951.5" y="-136.57" font-family="Comic Mono" font-size="14.00">AOP Meter Family</text>
</g>
<!-- registry&#45;&gt;aopMeters -->
<g id="edge9" class="edge">
<title>registry&#45;&gt;aopMeters</title>
<path fill="none" stroke="#758297" d="M786.43,-142C786.43,-142 871.79,-142 871.79,-142"/>
<polygon fill="#758297" stroke="#758297" points="871.79,-145.5 881.79,-142 871.79,-138.5 871.79,-145.5"/>
<text xml:space="preserve" text-anchor="middle" x="834.75" y="-144.5" font-family="Comic Mono" font-size="10.00">metric</text>
</g>
<!-- directMeters -->
<g id="node11" class="node">
<title>directMeters</title>
<path fill="#f8fafc" stroke="#94a3b8" d="M1263.5,-211C1263.5,-211 1129,-211 1129,-211 1123,-211 1117,-205 1117,-199 1117,-199 1117,-187 1117,-187 1117,-181 1123,-175 1129,-175 1129,-175 1263.5,-175 1263.5,-175 1269.5,-175 1275.5,-181 1275.5,-187 1275.5,-187 1275.5,-199 1275.5,-199 1275.5,-205 1269.5,-211 1263.5,-211"/>
<text xml:space="preserve" text-anchor="middle" x="1196.25" y="-187.57" font-family="Comic Mono" font-size="14.00">Direct Meter Family</text>
</g>
<!-- aopMeters&#45;&gt;directMeters -->
<g id="edge10" class="edge">
<title>aopMeters&#45;&gt;directMeters</title>
<path fill="none" stroke="#758297" d="M951,-160.38C951,-173.38 951,-188.5 951,-188.5 951,-188.5 1105.11,-188.5 1105.11,-188.5"/>
<polygon fill="#758297" stroke="#758297" points="1105.11,-192 1115.11,-188.5 1105.11,-185 1105.11,-192"/>
<text xml:space="preserve" text-anchor="middle" x="1068.25" y="-188.5" font-family="Comic Mono" font-size="10.00">metric</text>
</g>
<!-- export -->
<g id="node13" class="node">
<title>export</title>
<path fill="#f8fafc" stroke="#94a3b8" d="M1786,-160C1786,-160 1689,-160 1689,-160 1683,-160 1677,-154 1677,-148 1677,-148 1677,-136 1677,-136 1677,-130 1683,-124 1689,-124 1689,-124 1786,-124 1786,-124 1792,-124 1798,-130 1798,-136 1798,-136 1798,-148 1798,-148 1798,-154 1792,-160 1786,-160"/>
<text xml:space="preserve" text-anchor="middle" x="1737.5" y="-136.57" font-family="Comic Mono" font-size="14.00">Export Backend</text>
</g>
<!-- aopMeters&#45;&gt;export -->
<g id="edge12" class="edge">
<title>aopMeters&#45;&gt;export</title>
<path fill="none" stroke="#758297" d="M1019.88,-142C1019.88,-142 1665.15,-142 1665.15,-142"/>
<polygon fill="#758297" stroke="#758297" points="1665.15,-145.5 1675.15,-142 1665.15,-138.5 1665.15,-145.5"/>
<text xml:space="preserve" text-anchor="middle" x="1326.88" y="-106.5" font-family="Comic Mono" font-size="10.00">success</text>
</g>
<!-- eventHistoryMeters -->
<g id="node12" class="node">
<title>eventHistoryMeters</title>
<path fill="#f8fafc" stroke="#94a3b8" d="M1562.25,-211C1562.25,-211 1390.25,-211 1390.25,-211 1384.25,-211 1378.25,-205 1378.25,-199 1378.25,-199 1378.25,-187 1378.25,-187 1378.25,-181 1384.25,-175 1390.25,-175 1390.25,-175 1562.25,-175 1562.25,-175 1568.25,-175 1574.25,-181 1574.25,-187 1574.25,-187 1574.25,-199 1574.25,-199 1574.25,-205 1568.25,-211 1562.25,-211"/>
<text xml:space="preserve" text-anchor="middle" x="1476.25" y="-187.57" font-family="Comic Mono" font-size="14.00">Event And History Meters</text>
</g>
<!-- directMeters&#45;&gt;eventHistoryMeters -->
<g id="edge11" class="edge">
<title>directMeters&#45;&gt;eventHistoryMeters</title>
<path fill="none" stroke="#758297" d="M1275.74,-193C1275.74,-193 1366.35,-193 1366.35,-193"/>
<polygon fill="#758297" stroke="#758297" points="1366.35,-196.5 1376.35,-193 1366.35,-189.5 1366.35,-196.5"/>
<text xml:space="preserve" text-anchor="middle" x="1326.88" y="-195.5" font-family="Comic Mono" font-size="10.00">metric</text>
</g>
<!-- eventHistoryMeters&#45;&gt;export -->
<g id="edge13" class="edge">
<title>eventHistoryMeters&#45;&gt;export</title>
<path fill="none" stroke="#758297" d="M1574.46,-193C1648.37,-193 1737,-193 1737,-193 1737,-193 1737,-171.93 1737,-171.93"/>
<polygon fill="#758297" stroke="#758297" points="1740.5,-171.93 1737,-161.93 1733.5,-171.93 1740.5,-171.93"/>
<text xml:space="preserve" text-anchor="middle" x="1625.62" y="-188.5" font-family="Comic Mono" font-size="10.00">success</text>
</g>
</g>
</svg>
