<?xml version="1.0" encoding="UTF-8" standalone="no"?>
<!DOCTYPE svg PUBLIC "-//W3C//DTD SVG 1.1//EN"
 "http://www.w3.org/Graphics/SVG/1.1/DTD/svg11.dtd">
<!-- Generated by graphviz version 15.0.0 (20260523.1842)
 -->
<!-- Title: leader&#45;mongodb&#45;class&#45;01 Pages: 1 -->
<svg width="2338pt" height="456pt"
 viewBox="0.00 0.00 2338.00 456.00" xmlns="http://www.w3.org/2000/svg" xmlns:xlink="http://www.w3.org/1999/xlink">
<g id="graph0" class="graph" transform="scale(1 1) rotate(0) translate(4 451.64)">
<title>leader&#45;mongodb&#45;class&#45;01</title>
<text xml:space="preserve" text-anchor="middle" x="1164.88" y="-430.34" font-family="Times,serif" font-size="14.00">leader mongodb Class Structure</text>
<!-- n0&#45;&gt;r4p1 -->
<g id="edge10" class="edge">
<title>n0&#45;&gt;r4p1</title>
<path fill="none" stroke="#758297" stroke-width="1.8" d="M330.01,-118.98C607.38,-118.98 1139.21,-118.98 1163.98,-118.98"/>
</g>
<!-- n0&#45;&gt;r8p1 -->
<g id="edge22" class="edge">
<title>n0&#45;&gt;r8p1</title>
<path fill="none" stroke="#758297" stroke-width="1.8" stroke-dasharray="5,2" d="M164.88,-175.54C164.88,-204.15 164.88,-234.33 164.88,-241.42"/>
</g>
<!-- n0&#45;&gt;r9p1 -->
<g id="edge25" class="edge">
<title>n0&#45;&gt;r9p1</title>
<path fill="none" stroke="#758297" stroke-width="1.8" stroke-dasharray="5,2" d="M164.88,-175.54C164.88,-204.15 164.88,-234.33 164.88,-241.42"/>
</g>
<!-- n1&#45;&gt;r2p1 -->
<g id="edge4" class="edge">
<title>n1&#45;&gt;r2p1</title>
<path fill="none" stroke="#758297" stroke-width="1.8" d="M1199.72,-110.98C1182.88,-110.98 1170.4,-110.98 1166.32,-110.98"/>
</g>
<!-- n1&#45;&gt;r6p1 -->
<g id="edge16" class="edge">
<title>n1&#45;&gt;r6p1</title>
<path fill="none" stroke="#758297" stroke-width="1.8" stroke-dasharray="5,2" d="M1364.88,-175.43C1364.88,-204.75 1364.88,-234.48 1364.88,-241.45"/>
</g>
<!-- n7&#45;&gt;r3p1 -->
<g id="edge7" class="edge">
<title>n7&#45;&gt;r3p1</title>
<path fill="none" stroke="#758297" stroke-width="1.8" d="M730.16,-118.98C956.18,-118.98 1336.93,-118.98 1363.42,-118.98"/>
</g>
<!-- n7&#45;&gt;r7p1 -->
<g id="edge19" class="edge">
<title>n7&#45;&gt;r7p1</title>
<path fill="none" stroke="#758297" stroke-width="1.8" stroke-dasharray="5,2" d="M564.88,-175.54C564.88,-204.15 564.88,-234.33 564.88,-241.42"/>
</g>
<!-- n8&#45;&gt;r1p1 -->
<g id="edge1" class="edge">
<title>n8&#45;&gt;r1p1</title>
<path fill="none" stroke="#758297" stroke-width="1.8" d="M1599.59,-110.98C1496.35,-110.98 1380.4,-110.98 1366.31,-110.98"/>
</g>
<!-- n8&#45;&gt;r5p1 -->
<g id="edge13" class="edge">
<title>n8&#45;&gt;r5p1</title>
<path fill="none" stroke="#758297" stroke-width="1.8" stroke-dasharray="5,2" d="M1764.88,-175.52C1764.88,-201.89 1764.88,-227.64 1764.88,-233.66"/>
</g>
<!-- r1p1&#45;&gt;r1p2 -->
<g id="edge2" class="edge">
<title>r1p1&#45;&gt;r1p2</title>
<path fill="none" stroke="#758297" stroke-width="1.8" d="M1364.88,-109.44C1364.88,-105.19 1364.88,-93.35 1364.88,-89.06"/>
</g>
<!-- r1p2&#45;&gt;n3 -->
<g id="edge3" class="edge">
<title>r1p2&#45;&gt;n3</title>
<path fill="none" stroke="#758297" stroke-width="1.8" d="M1363.43,-87.48C1349.73,-87.48 1241.16,-87.48 1140.8,-87.48"/>
<polygon fill="#758297" stroke="#758297" stroke-width="1.8" points="1140.9,-84.68 1132.9,-87.48 1140.9,-90.28 1140.9,-84.68"/>
</g>
<!-- r2p1&#45;&gt;r2p2 -->
<g id="edge5" class="edge">
<title>r2p1&#45;&gt;r2p2</title>
<path fill="none" stroke="#758297" stroke-width="1.8" d="M1164.88,-109.44C1164.88,-105.19 1164.88,-93.35 1164.88,-89.06"/>
</g>
<!-- r2p2&#45;&gt;n3 -->
<g id="edge6" class="edge">
<title>r2p2&#45;&gt;n3</title>
<path fill="none" stroke="#758297" stroke-width="1.8" d="M1163.6,-87.48C1160.54,-87.48 1152.13,-87.48 1140.41,-87.48"/>
<polygon fill="#758297" stroke="#758297" stroke-width="1.8" points="1140.55,-84.68 1132.55,-87.48 1140.55,-90.28 1140.55,-84.68"/>
</g>
<!-- r3p1&#45;&gt;r3p2 -->
<g id="edge8" class="edge">
<title>r3p1&#45;&gt;r3p2</title>
<path fill="none" stroke="#758297" stroke-width="1.8" d="M1364.88,-117.63C1364.88,-112.45 1364.88,-93.91 1364.88,-88.79"/>
</g>
<!-- r3p2&#45;&gt;n4 -->
<g id="edge9" class="edge">
<title>r3p2&#45;&gt;n4</title>
<path fill="none" stroke="#758297" stroke-width="1.8" d="M1366.18,-87.48C1390.86,-87.48 1761.82,-87.48 1989.39,-87.48"/>
<polygon fill="#758297" stroke="#758297" stroke-width="1.8" points="1989.06,-90.28 1997.06,-87.48 1989.06,-84.68 1989.06,-90.28"/>
</g>
<!-- r4p1&#45;&gt;r4p2 -->
<g id="edge11" class="edge">
<title>r4p1&#45;&gt;r4p2</title>
<path fill="none" stroke="#758297" stroke-width="1.8" d="M1164.88,-117.63C1164.88,-112.45 1164.88,-93.91 1164.88,-88.79"/>
</g>
<!-- r4p2&#45;&gt;n4 -->
<g id="edge12" class="edge">
<title>r4p2&#45;&gt;n4</title>
<path fill="none" stroke="#758297" stroke-width="1.8" d="M1166.01,-87.48C1193.34,-87.48 1709.85,-87.48 1989.11,-87.48"/>
<polygon fill="#758297" stroke="#758297" stroke-width="1.8" points="1989.04,-90.28 1997.04,-87.48 1989.04,-84.68 1989.04,-90.28"/>
</g>
<!-- r5p1&#45;&gt;r5p2 -->
<g id="edge14" class="edge">
<title>r5p1&#45;&gt;r5p2</title>
<path fill="none" stroke="#758297" stroke-width="1.8" stroke-dasharray="5,2" d="M1766.33,-234.98C1791.59,-234.98 2139.13,-234.98 2163.53,-234.98"/>
</g>
<!-- r5p2&#45;&gt;n10 -->
<g id="edge15" class="edge">
<title>r5p2&#45;&gt;n10</title>
<path fill="none" stroke="#758297" stroke-width="1.8" stroke-dasharray="5,2" d="M2164.88,-236.37C2164.88,-241.7 2164.88,-261.62 2164.88,-283.9"/>
<polygon fill="none" stroke="#758297" stroke-width="1.8" points="2162.08,-283.89 2164.88,-291.89 2167.68,-283.89 2162.08,-283.89"/>
</g>
<!-- r6p1&#45;&gt;r6p2 -->
<g id="edge17" class="edge">
<title>r6p1&#45;&gt;r6p2</title>
<path fill="none" stroke="#758297" stroke-width="1.8" stroke-dasharray="5,2" d="M1366.22,-242.98C1386.93,-242.98 1641.55,-242.98 1663.39,-242.98"/>
</g>
<!-- r6p2&#45;&gt;n6 -->
<g id="edge18" class="edge">
<title>r6p2&#45;&gt;n6</title>
<path fill="none" stroke="#758297" stroke-width="1.8" stroke-dasharray="5,2" d="M1664.88,-244.37C1664.88,-250.34 1664.88,-274.57 1664.88,-299.94"/>
<polygon fill="none" stroke="#758297" stroke-width="1.8" points="1662.08,-299.72 1664.88,-307.72 1667.68,-299.72 1662.08,-299.72"/>
</g>
<!-- r7p1&#45;&gt;r7p2 -->
<g id="edge20" class="edge">
<title>r7p1&#45;&gt;r7p2</title>
<path fill="none" stroke="#758297" stroke-width="1.8" stroke-dasharray="5,2" d="M566.2,-242.98C596.4,-242.98 1134.24,-242.98 1163.63,-242.98"/>
</g>
<!-- r7p2&#45;&gt;n9 -->
<g id="edge21" class="edge">
<title>r7p2&#45;&gt;n9</title>
<path fill="none" stroke="#758297" stroke-width="1.8" stroke-dasharray="5,2" d="M1164.88,-244.37C1164.88,-250.34 1164.88,-274.57 1164.88,-299.94"/>
<polygon fill="none" stroke="#758297" stroke-width="1.8" points="1162.08,-299.72 1164.88,-307.72 1167.68,-299.72 1162.08,-299.72"/>
</g>
<!-- r8p1&#45;&gt;r8p2 -->
<g id="edge23" class="edge">
<title>r8p1&#45;&gt;r8p2</title>
<path fill="none" stroke="#758297" stroke-width="1.8" stroke-dasharray="5,2" d="M166.31,-242.98C194.73,-242.98 635.98,-242.98 663.53,-242.98"/>
</g>
<!-- r8p2&#45;&gt;n5 -->
<g id="edge24" class="edge">
<title>r8p2&#45;&gt;n5</title>
<path fill="none" stroke="#758297" stroke-width="1.8" stroke-dasharray="5,2" d="M664.88,-244.37C664.88,-250.34 664.88,-274.57 664.88,-299.94"/>
<polygon fill="none" stroke="#758297" stroke-width="1.8" points="662.08,-299.72 664.88,-307.72 667.68,-299.72 662.08,-299.72"/>
</g>
<!-- r9p1&#45;&gt;r9p2 -->
<g id="edge26" class="edge">
<title>r9p1&#45;&gt;r9p2</title>
<path fill="none" stroke="#758297" stroke-width="1.8" stroke-dasharray="5,2" d="M164.88,-242.98C164.88,-242.98 164.88,-242.98 164.88,-242.98"/>
</g>
<!-- r9p2&#45;&gt;n2 -->
<g id="edge27" class="edge">
<title>r9p2&#45;&gt;n2</title>
<path fill="none" stroke="#758297" stroke-width="1.8" stroke-dasharray="5,2" d="M164.88,-244.37C164.88,-250.34 164.88,-274.57 164.88,-299.94"/>
<polygon fill="none" stroke="#758297" stroke-width="1.8" points="162.08,-299.72 164.88,-307.72 167.68,-299.72 162.08,-299.72"/>
</g>
<!-- n0 -->
<g id="node1" class="node">
<title>n0</title>
<path fill="#ffffff" stroke="#5b8def" d="M317.76,-175.14C317.76,-175.14 12,-175.14 12,-175.14 6,-175.14 0,-169.14 0,-163.14 0,-163.14 0,-74.82 0,-74.82 0,-68.82 6,-62.82 12,-62.82 12,-62.82 317.76,-62.82 317.76,-62.82 323.76,-62.82 329.76,-68.82 329.76,-74.82 329.76,-74.82 329.76,-163.14 329.76,-163.14 329.76,-169.14 323.76,-175.14 317.76,-175.14"/>
<text xml:space="preserve" text-anchor="middle" x="164.88" y="-114.63" font-family="Architects Daughter" font-size="18.00">MongoLeaderElector</text>
</g>
<!-- n1 -->
<g id="node2" class="node">
<title>n1</title>
<path fill="#ffffff" stroke="#58a978" d="M1517.76,-175.06C1517.76,-175.06 1212,-175.06 1212,-175.06 1206,-175.06 1200,-169.06 1200,-163.06 1200,-163.06 1200,-58.9 1200,-58.9 1200,-52.9 1206,-46.9 1212,-46.9 1212,-46.9 1517.76,-46.9 1517.76,-46.9 1523.76,-46.9 1529.76,-52.9 1529.76,-58.9 1529.76,-58.9 1529.76,-163.06 1529.76,-163.06 1529.76,-169.06 1523.76,-175.06 1517.76,-175.06"/>
<text xml:space="preserve" text-anchor="middle" x="1364.88" y="-106.63" font-family="Architects Daughter" font-size="18.00">Mongo Suspend Leader</text>
</g>
<!-- n2 -->
<g id="node3" class="node">
<title>n2</title>
<path fill="#ffffff" stroke="#d6a441" d="M317.76,-423.14C317.76,-423.14 12,-423.14 12,-423.14 6,-423.14 0,-417.14 0,-411.14 0,-411.14 0,-322.82 0,-322.82 0,-316.82 6,-310.82 12,-310.82 12,-310.82 317.76,-310.82 317.76,-310.82 323.76,-310.82 329.76,-316.82 329.76,-322.82 329.76,-322.82 329.76,-411.14 329.76,-411.14 329.76,-417.14 323.76,-423.14 317.76,-423.14"/>
<text xml:space="preserve" text-anchor="middle" x="164.88" y="-362.63" font-family="Architects Daughter" font-size="18.00">LeaderElector</text>
</g>
<!-- n3 -->
<g id="node4" class="node">
<title>n3</title>
<path fill="#ffffff" stroke="#dc6b82" d="M1117.76,-174.96C1117.76,-174.96 812,-174.96 812,-174.96 806,-174.96 800,-168.96 800,-162.96 800,-162.96 800,-12 800,-12 800,-6 806,0 812,0 812,0 1117.76,0 1117.76,0 1123.76,0 1129.76,-6 1129.76,-12 1129.76,-12 1129.76,-162.96 1129.76,-162.96 1129.76,-168.96 1123.76,-174.96 1117.76,-174.96"/>
<text xml:space="preserve" text-anchor="middle" x="964.88" y="-83.13" font-family="Architects Daughter" font-size="18.00">MongoSuspendLock</text>
</g>
<!-- n4 -->
<g id="node5" class="node">
<title>n4</title>
<path fill="#ffffff" stroke="#45a7a1" d="M2317.76,-174.96C2317.76,-174.96 2012,-174.96 2012,-174.96 2006,-174.96 2000,-168.96 2000,-162.96 2000,-162.96 2000,-12 2000,-12 2000,-6 2006,0 2012,0 2012,0 2317.76,0 2317.76,0 2323.76,0 2329.76,-6 2329.76,-12 2329.76,-12 2329.76,-162.96 2329.76,-162.96 2329.76,-168.96 2323.76,-174.96 2317.76,-174.96"/>
<text xml:space="preserve" text-anchor="middle" x="2164.88" y="-83.13" font-family="Architects Daughter" font-size="18.00">MongoLock</text>
</g>
<!-- n5 -->
<g id="node6" class="node">
<title>n5</title>
<path fill="#ffffff" stroke="#8a72d6" d="M817.76,-423.14C817.76,-423.14 512,-423.14 512,-423.14 506,-423.14 500,-417.14 500,-411.14 500,-411.14 500,-322.82 500,-322.82 500,-316.82 506,-310.82 512,-310.82 512,-310.82 817.76,-310.82 817.76,-310.82 823.76,-310.82 829.76,-316.82 829.76,-322.82 829.76,-322.82 829.76,-411.14 829.76,-411.14 829.76,-417.14 823.76,-423.14 817.76,-423.14"/>
<text xml:space="preserve" text-anchor="middle" x="664.88" y="-362.63" font-family="Architects Daughter" font-size="18.00">AsyncLeaderElector</text>
</g>
<!-- n6 -->
<g id="node7" class="node">
<title>n6</title>
<path fill="#ffffff" stroke="#b88a44" d="M1817.76,-423.14C1817.76,-423.14 1512,-423.14 1512,-423.14 1506,-423.14 1500,-417.14 1500,-411.14 1500,-411.14 1500,-322.82 1500,-322.82 1500,-316.82 1506,-310.82 1512,-310.82 1512,-310.82 1817.76,-310.82 1817.76,-310.82 1823.76,-310.82 1829.76,-316.82 1829.76,-322.82 1829.76,-322.82 1829.76,-411.14 1829.76,-411.14 1829.76,-417.14 1823.76,-423.14 1817.76,-423.14"/>
<text xml:space="preserve" text-anchor="middle" x="1664.88" y="-362.63" font-family="Architects Daughter" font-size="18.00">SuspendLeaderElector</text>
</g>
<!-- n7 -->
<g id="node8" class="node">
<title>n7</title>
<path fill="#ffffff" stroke="#8ba84d" d="M717.76,-175.14C717.76,-175.14 412,-175.14 412,-175.14 406,-175.14 400,-169.14 400,-163.14 400,-163.14 400,-74.82 400,-74.82 400,-68.82 406,-62.82 412,-62.82 412,-62.82 717.76,-62.82 717.76,-62.82 723.76,-62.82 729.76,-68.82 729.76,-74.82 729.76,-74.82 729.76,-163.14 729.76,-163.14 729.76,-169.14 723.76,-175.14 717.76,-175.14"/>
<text xml:space="preserve" text-anchor="middle" x="564.88" y="-114.63" font-family="Architects Daughter" font-size="18.00">MongoLeaderGroupElector</text>
</g>
<!-- n8 -->
<g id="node9" class="node">
<title>n8</title>
<path fill="#ffffff" stroke="#5b8def" d="M1917.76,-175.06C1917.76,-175.06 1612,-175.06 1612,-175.06 1606,-175.06 1600,-169.06 1600,-163.06 1600,-163.06 1600,-58.9 1600,-58.9 1600,-52.9 1606,-46.9 1612,-46.9 1612,-46.9 1917.76,-46.9 1917.76,-46.9 1923.76,-46.9 1929.76,-52.9 1929.76,-58.9 1929.76,-58.9 1929.76,-163.06 1929.76,-163.06 1929.76,-169.06 1923.76,-175.06 1917.76,-175.06"/>
<text xml:space="preserve" text-anchor="middle" x="1764.88" y="-106.63" font-family="Architects Daughter" font-size="18.00">Mongo Suspend Leader</text>
</g>
<!-- n9 -->
<g id="node10" class="node">
<title>n9</title>
<path fill="#ffffff" stroke="#58a978" d="M1317.76,-423.14C1317.76,-423.14 1012,-423.14 1012,-423.14 1006,-423.14 1000,-417.14 1000,-411.14 1000,-411.14 1000,-322.82 1000,-322.82 1000,-316.82 1006,-310.82 1012,-310.82 1012,-310.82 1317.76,-310.82 1317.76,-310.82 1323.76,-310.82 1329.76,-316.82 1329.76,-322.82 1329.76,-322.82 1329.76,-411.14 1329.76,-411.14 1329.76,-417.14 1323.76,-423.14 1317.76,-423.14"/>
<text xml:space="preserve" text-anchor="middle" x="1164.88" y="-362.63" font-family="Architects Daughter" font-size="18.00">LeaderGroupElector</text>
</g>
<!-- n10 -->
<g id="node11" class="node">
<title>n10</title>
<path fill="#ffffff" stroke="#d6a441" d="M2317.76,-423.06C2317.76,-423.06 2012,-423.06 2012,-423.06 2006,-423.06 2000,-417.06 2000,-411.06 2000,-411.06 2000,-306.9 2000,-306.9 2000,-300.9 2006,-294.9 2012,-294.9 2012,-294.9 2317.76,-294.9 2317.76,-294.9 2323.76,-294.9 2329.76,-300.9 2329.76,-306.9 2329.76,-306.9 2329.76,-411.06 2329.76,-411.06 2329.76,-417.06 2323.76,-423.06 2317.76,-423.06"/>
<text xml:space="preserve" text-anchor="middle" x="2164.88" y="-354.63" font-family="Architects Daughter" font-size="18.00">Suspend Leader Group</text>
</g>
<!-- r1p1 -->
<!-- r1p2 -->
<!-- r2p1 -->
<!-- r2p2 -->
<!-- r3p1 -->
<!-- r3p2 -->
<!-- r4p1 -->
<!-- r4p2 -->
<!-- r5p1 -->
<!-- r5p2 -->
<!-- r6p1 -->
<!-- r6p2 -->
<!-- r7p1 -->
<!-- r7p2 -->
<!-- r8p1 -->
<!-- r8p2 -->
<!-- r9p1 -->
<!-- r9p2 -->
</g>
</svg>
