<svg xmlns="http://www.w3.org/2000/svg" width="1240" height="920" viewBox="0 0 1240 920" role="img" aria-labelledby="title desc">
  <title id="title">leader-ktor sequence flow</title>
  <desc id="desc">Sequence diagram for installing LeaderElectionPlugin, resolving the configured SuspendLeaderElector, running leaderScheduled cycles, isolating failures, and optionally serving the management route.</desc>
  <defs>
    <filter id="shadow" x="-12%" y="-18%" width="124%" height="144%">
      <feDropShadow dx="0" dy="6" stdDeviation="7" flood-color="#64748b" flood-opacity="0.12"/>
    </filter>
    <marker id="arrowBlue" viewBox="0 0 14 12" markerWidth="13" markerHeight="11" refX="12" refY="6" orient="auto" markerUnits="userSpaceOnUse">
      <path d="M 1 1 L 13 6 L 1 11" fill="none" stroke="#2563eb" stroke-width="1.8" stroke-linecap="round" stroke-linejoin="round"/>
    </marker>
    <marker id="arrowGreen" viewBox="0 0 14 12" markerWidth="13" markerHeight="11" refX="12" refY="6" orient="auto" markerUnits="userSpaceOnUse">
      <path d="M 1 1 L 13 6 L 1 11" fill="none" stroke="#059669" stroke-width="1.8" stroke-linecap="round" stroke-linejoin="round"/>
    </marker>
    <marker id="arrowAmber" viewBox="0 0 14 12" markerWidth="13" markerHeight="11" refX="12" refY="6" orient="auto" markerUnits="userSpaceOnUse">
      <path d="M 1 1 L 13 6 L 1 11" fill="none" stroke="#b45309" stroke-width="1.8" stroke-linecap="round" stroke-linejoin="round"/>
    </marker>
    <marker id="arrowPurple" viewBox="0 0 14 12" markerWidth="13" markerHeight="11" refX="12" refY="6" orient="auto" markerUnits="userSpaceOnUse">
      <path d="M 1 1 L 13 6 L 1 11" fill="none" stroke="#7c3aed" stroke-width="1.8" stroke-linecap="round" stroke-linejoin="round"/>
    </marker>
    <marker id="arrowRose" viewBox="0 0 14 12" markerWidth="13" markerHeight="11" refX="12" refY="6" orient="auto" markerUnits="userSpaceOnUse">
      <path d="M 1 1 L 13 6 L 1 11" fill="none" stroke="#be123c" stroke-width="1.8" stroke-linecap="round" stroke-linejoin="round"/>
    </marker>
  </defs>
  <style>
    text { font-family: "Comic Mono", monospace; fill: #263244; letter-spacing: 0; }
    .title { font-family: "Architects Daughter", cursive; font-size: 34px; fill: #172033; }
    .subtitle { font-size: 13px; fill: #64748b; }
    .participant-title { font-family: "Architects Daughter", cursive; font-size: 15px; fill: #172033; }
    .participant-sub { font-size: 10px; fill: #64748b; }
    .label { font-size: 11px; font-weight: 700; }
    .note { font-size: 11px; fill: #475569; }
    .frame-title { font-family: "Architects Daughter", cursive; font-size: 14px; fill: #334155; }
    .footer { font-size: 11px; fill: #64748b; }
    .frame { fill: #ffffff; stroke: #cbd5e1; stroke-width: 1.5; filter: url(#shadow); }
    .participant { fill: #f8fafc; stroke: #dbe4f0; stroke-width: 1.2; }
    .lifeline { stroke: #cbd5e1; stroke-width: 1.3; stroke-dasharray: 7 7; }
    .activation { fill: #eff6ff; stroke: #93c5fd; stroke-width: 1.1; }
    .alt { fill: rgba(219,234,254,0.18); stroke: #60a5fa; stroke-width: 1.7; stroke-dasharray: 8 6; }
    .else { stroke: #94a3b8; stroke-width: 1.4; stroke-dasharray: 6 6; }
    .failure { fill: rgba(255,228,230,0.2); stroke: #fb7185; stroke-width: 1.7; stroke-dasharray: 8 6; }
    .opt { fill: rgba(236,253,245,0.22); stroke: #34d399; stroke-width: 1.7; stroke-dasharray: 8 6; }
    .line { fill: none; stroke-width: 1.8; stroke-linecap: round; stroke-linejoin: round; }
    .blue { stroke: #2563eb; marker-end: url(#arrowBlue); }
    .green { stroke: #059669; marker-end: url(#arrowGreen); }
    .amber { stroke: #b45309; marker-end: url(#arrowAmber); }
    .purple { stroke: #7c3aed; marker-end: url(#arrowPurple); }
    .rose { stroke: #be123c; marker-end: url(#arrowRose); }
    .return { fill: none; stroke: #64748b; stroke-width: 1.4; stroke-dasharray: 7 5; marker-end: url(#arrowBlue); }
    .label-bg { fill: #f8fafc; stroke: #e2e8f0; stroke-width: 0.8; rx: 6; }
  </style>

  <rect width="1240" height="920" fill="#f6f8fb"/>
  <rect class="frame" x="34" y="30" width="1172" height="842" rx="18"/>
  <text class="title" x="620" y="74" text-anchor="middle">leader-ktor Sequence Flow</text>
  <text class="subtitle" x="620" y="102" text-anchor="middle">Ktor plugin config is stored in Application.attributes; leaderScheduled launches a cancellable loop that calls runIfLeader.</text>

  <g id="participants">
    <g transform="translate(50 136)">
      <rect class="participant" width="130" height="58" rx="8"/>
      <text class="participant-title" x="65" y="24" text-anchor="middle">Application</text>
      <text class="participant-sub" x="65" y="43" text-anchor="middle">module + scope</text>
    </g>
    <g transform="translate(216 136)">
      <rect class="participant" width="132" height="58" rx="8"/>
      <text class="participant-title" x="66" y="24" text-anchor="middle">Plugin</text>
      <text class="participant-sub" x="66" y="43" text-anchor="middle">LeaderElection</text>
    </g>
    <g transform="translate(384 136)">
      <rect class="participant" width="132" height="58" rx="8"/>
      <text class="participant-title" x="66" y="24" text-anchor="middle">Attributes</text>
      <text class="participant-sub" x="66" y="43" text-anchor="middle">config key</text>
    </g>
    <g transform="translate(552 136)">
      <rect class="participant" width="132" height="58" rx="8"/>
      <text class="participant-title" x="66" y="24" text-anchor="middle">Job</text>
      <text class="participant-sub" x="66" y="43" text-anchor="middle">leaderScheduled</text>
    </g>
    <g transform="translate(720 136)">
      <rect class="participant" width="132" height="58" rx="8"/>
      <text class="participant-title" x="66" y="24" text-anchor="middle">Elector</text>
      <text class="participant-sub" x="66" y="43" text-anchor="middle">runIfLeader</text>
    </g>
    <g transform="translate(888 136)">
      <rect class="participant" width="132" height="58" rx="8"/>
      <text class="participant-title" x="66" y="24" text-anchor="middle">Action</text>
      <text class="participant-sub" x="66" y="43" text-anchor="middle">suspend block</text>
    </g>
    <g transform="translate(1054 136)">
      <rect class="participant" width="132" height="58" rx="8"/>
      <text class="participant-title" x="66" y="24" text-anchor="middle">Mgmt route</text>
      <text class="participant-sub" x="66" y="43" text-anchor="middle">optional JSON</text>
    </g>
  </g>

  <line class="lifeline" x1="115" y1="194" x2="115" y2="752"/>
  <line class="lifeline" x1="282" y1="194" x2="282" y2="752"/>
  <line class="lifeline" x1="450" y1="194" x2="450" y2="752"/>
  <line class="lifeline" x1="618" y1="194" x2="618" y2="752"/>
  <line class="lifeline" x1="786" y1="194" x2="786" y2="752"/>
  <line class="lifeline" x1="954" y1="194" x2="954" y2="752"/>
  <line class="lifeline" x1="1120" y1="194" x2="1120" y2="752"/>

  <rect class="opt" x="68" y="216" width="1074" height="152" rx="10"/>
  <text class="frame-title" x="84" y="239">install plugin</text>
  <path class="line blue" d="M 115 262 L 282 262"/>
  <rect class="label-bg" x="142" y="241" width="114" height="20"/>
  <text class="label" x="199" y="255" text-anchor="middle" fill="#1d4ed8">1 install(config)</text>
  <rect class="activation" x="274" y="254" width="16" height="82" rx="4"/>
  <path class="line green" d="M 282 300 L 450 300"/>
  <rect class="label-bg" x="312" y="279" width="112" height="20"/>
  <text class="label" x="368" y="293" text-anchor="middle" fill="#047857">2 put config</text>
  <path class="line amber" d="M 282 336 L 1120 336"/>
  <rect class="label-bg" x="566" y="315" width="270" height="20"/>
  <text class="label" x="701" y="329" text-anchor="middle" fill="#92400e">3 optional management route install</text>

  <rect class="alt" x="68" y="392" width="1074" height="308" rx="10"/>
  <text class="frame-title" x="84" y="415">leaderScheduled loop while Application scope is active</text>
  <path class="line purple" d="M 115 448 L 618 448"/>
  <rect class="label-bg" x="258" y="427" width="218" height="20"/>
  <text class="label" x="367" y="441" text-anchor="middle" fill="#6d28d9">4 leaderScheduled(lock, period)</text>
  <rect class="activation" x="610" y="440" width="16" height="224" rx="4"/>
  <path class="line green" d="M 618 486 L 450 486"/>
  <rect class="label-bg" x="478" y="465" width="112" height="20"/>
  <text class="label" x="534" y="479" text-anchor="middle" fill="#047857">5 resolve/register</text>
  <path class="line blue" d="M 618 530 L 786 530"/>
  <rect class="label-bg" x="650" y="509" width="104" height="20"/>
  <text class="label" x="702" y="523" text-anchor="middle" fill="#1d4ed8">6 runIfLeader</text>
  <rect class="activation" x="778" y="522" width="16" height="82" rx="4"/>

  <rect class="opt" x="724" y="552" width="260" height="80" rx="8"/>
  <text class="frame-title" x="738" y="575">when elected</text>
  <path class="line green" d="M 786 596 L 954 596"/>
  <rect class="label-bg" x="824" y="575" width="92" height="20"/>
  <text class="label" x="870" y="589" text-anchor="middle" fill="#047857">7 action()</text>
  <rect class="activation" x="946" y="588" width="16" height="36" rx="4"/>

  <line class="else" x1="84" y1="642" x2="1126" y2="642"/>
  <text class="frame-title" x="84" y="665">else skipped or after action</text>
  <path class="return" d="M 786 676 L 618 676"/>
  <rect class="label-bg" x="642" y="655" width="120" height="20"/>
  <text class="label" x="702" y="669" text-anchor="middle" fill="#475569">8 delay(period)</text>

  <rect class="failure" x="724" y="712" width="418" height="76" rx="10"/>
  <text class="frame-title" x="738" y="735">failure isolation</text>
  <path class="line rose" d="M 954 758 L 618 758"/>
  <rect class="label-bg" x="704" y="737" width="166" height="20"/>
  <text class="label" x="787" y="751" text-anchor="middle" fill="#9f1239">Exception -> warn, continue</text>

  <path class="line amber" d="M 115 812 L 618 812"/>
  <rect class="label-bg" x="264" y="791" width="204" height="20"/>
  <text class="label" x="366" y="805" text-anchor="middle" fill="#92400e">ApplicationStopped cancels job</text>
  <text class="note" x="86" y="842">CancellationException is rethrown; ordinary action failures are logged and the next cycle still runs.</text>

  <g transform="translate(118 858)">
    <rect fill="#f8fafc" stroke="#dbe4f0" width="1004" height="42" rx="12"/>
    <text class="footer" x="502" y="17" text-anchor="middle">github.com/bluetape4k/bluetape4k-leader / leader-ktor</text>
    <text class="footer" x="502" y="32" text-anchor="middle">The plugin stores configuration; leaderScheduled owns the recurring leader-only job and management registry entry.</text>
  </g>
</svg>
