<?xml version="1.0" encoding="UTF-8" standalone="no"?>
<!DOCTYPE svg PUBLIC "-//W3C//DTD SVG 1.1//EN"
 "http://www.w3.org/Graphics/SVG/1.1/DTD/svg11.dtd">
<!-- Generated by graphviz version 15.0.0 (20260523.1842)
 -->
<!-- Title: leader&#45;hazelcast&#45;sequence&#45;03 Pages: 1 -->
<svg width="920pt" height="428pt"
 viewBox="0.00 0.00 920.00 428.00" xmlns="http://www.w3.org/2000/svg" xmlns:xlink="http://www.w3.org/1999/xlink">
<g id="graph0" class="graph" transform="scale(1 1) rotate(0) translate(4 424)">
<title>leader&#45;hazelcast&#45;sequence&#45;03</title>
<!-- caller -->
<g id="node1" class="node">
<title>caller</title>
<path fill="#f8fafc" stroke="#94a3b8" d="M49,-219C49,-219 12,-219 12,-219 6,-219 0,-213 0,-207 0,-207 0,-195 0,-195 0,-189 6,-183 12,-183 12,-183 49,-183 49,-183 55,-183 61,-189 61,-195 61,-195 61,-207 61,-207 61,-213 55,-219 49,-219"/>
<text xml:space="preserve" text-anchor="middle" x="30.5" y="-195.57" font-family="Comic Mono" font-size="14.00">Caller</text>
</g>
<!-- group -->
<g id="node2" class="node">
<title>group</title>
<path fill="#f8fafc" stroke="#94a3b8" d="M513.5,-219C513.5,-219 349,-219 349,-219 343,-219 337,-213 337,-207 337,-207 337,-195 337,-195 337,-189 343,-183 349,-183 349,-183 513.5,-183 513.5,-183 519.5,-183 525.5,-189 525.5,-195 525.5,-195 525.5,-207 525.5,-207 525.5,-213 519.5,-219 513.5,-219"/>
<text xml:space="preserve" text-anchor="middle" x="431.25" y="-195.57" font-family="Comic Mono" font-size="14.00">Hazelcast group elector</text>
</g>
<!-- caller&#45;&gt;group -->
<g id="edge1" class="edge">
<title>caller&#45;&gt;group</title>
<path fill="none" stroke="#4f83bf" d="M61.28,-192C61.28,-192 328.32,-192 328.32,-192"/>
<polygon fill="#4f83bf" stroke="#4f83bf" points="328.32,-194.45 335.32,-192 328.32,-189.55 328.32,-194.45"/>
<text xml:space="preserve" text-anchor="middle" x="199" y="-270.5" font-family="Comic Mono" font-size="10.00">runIfLeader(groupName, maxLeaders, body)</text>
</g>
<!-- group&#45;&gt;caller -->
<g id="edge8" class="edge">
<title>group&#45;&gt;caller</title>
<path fill="none" stroke="#3e9868" d="M336.53,-201C336.53,-201 69.71,-201 69.71,-201"/>
<polygon fill="#3e9868" stroke="#3e9868" points="69.71,-198.55 62.71,-201 69.71,-203.45 69.71,-198.55"/>
<text xml:space="preserve" text-anchor="middle" x="199" y="-203.5" font-family="Comic Mono" font-size="10.00">return group result and slot</text>
</g>
<!-- group&#45;&gt;caller -->
<g id="edge10" class="edge">
<title>group&#45;&gt;caller</title>
<path fill="none" stroke="#c94d68" d="M336.53,-210C336.53,-210 69.71,-210 69.71,-210"/>
<polygon fill="#c94d68" stroke="#c94d68" points="69.71,-207.55 62.71,-210 69.71,-212.45 69.71,-207.55"/>
<text xml:space="preserve" text-anchor="middle" x="199" y="-136.5" font-family="Comic Mono" font-size="10.00">return skipped group result</text>
</g>
<!-- slots -->
<g id="node3" class="node">
<title>slots</title>
<path fill="#f8fafc" stroke="#94a3b8" d="M900,-420C900,-420 803,-420 803,-420 797,-420 791,-414 791,-408 791,-408 791,-396 791,-396 791,-390 797,-384 803,-384 803,-384 900,-384 900,-384 906,-384 912,-390 912,-396 912,-396 912,-408 912,-408 912,-414 906,-420 900,-420"/>
<text xml:space="preserve" text-anchor="middle" x="851.5" y="-396.57" font-family="Comic Mono" font-size="14.00">Slot namespace</text>
</g>
<!-- group&#45;&gt;slots -->
<g id="edge2" class="edge">
<title>group&#45;&gt;slots</title>
<path fill="none" stroke="#2e8f89" d="M431,-219.19C431,-268.67 431,-402 431,-402 431,-402 782.29,-402 782.29,-402"/>
<polygon fill="#2e8f89" stroke="#2e8f89" points="782.29,-404.45 789.29,-402 782.29,-399.55 782.29,-404.45"/>
<text xml:space="preserve" text-anchor="middle" x="658.25" y="-404.5" font-family="Comic Mono" font-size="10.00">build slot keys 0..maxLeaders&#45;1</text>
</g>
<!-- backend -->
<g id="node4" class="node">
<title>backend</title>
<path fill="#f8fafc" stroke="#94a3b8" d="M900,-253C900,-253 803,-253 803,-253 797,-253 791,-247 791,-241 791,-241 791,-229 791,-229 791,-223 797,-217 803,-217 803,-217 900,-217 900,-217 906,-217 912,-223 912,-229 912,-229 912,-241 912,-241 912,-247 906,-253 900,-253"/>
<text xml:space="preserve" text-anchor="middle" x="851.5" y="-229.57" font-family="Comic Mono" font-size="14.00">Hazelcast IMap</text>
</g>
<!-- group&#45;&gt;backend -->
<g id="edge3" class="edge">
<title>group&#45;&gt;backend</title>
<path fill="none" stroke="#b9851b" d="M525.54,-202.43C635.67,-202.43 803,-202.43 803,-202.43 803,-202.43 803,-208.3 803,-208.3"/>
<polygon fill="#b9851b" stroke="#b9851b" points="800.55,-208.3 803,-215.3 805.45,-208.3 800.55,-208.3"/>
<text xml:space="preserve" text-anchor="middle" x="658.25" y="-337.5" font-family="Comic Mono" font-size="10.00">putIfAbsent(slotKey, token, leaseTime)</text>
</g>
<!-- group&#45;&gt;backend -->
<g id="edge7" class="edge">
<title>group&#45;&gt;backend</title>
<path fill="none" stroke="#755bc6" d="M525.73,-197.57C634.99,-197.57 800,-197.57 800,-197.57 800,-197.57 800,-208.21 800,-208.21"/>
<polygon fill="#755bc6" stroke="#755bc6" points="797.55,-208.21 800,-215.21 802.45,-208.21 797.55,-208.21"/>
<text xml:space="preserve" text-anchor="middle" x="658.25" y="-270.5" font-family="Comic Mono" font-size="10.00">remove(slotKey, token)</text>
</g>
<!-- body -->
<g id="node5" class="node">
<title>body</title>
<path fill="#f8fafc" stroke="#94a3b8" d="M885,-52C885,-52 818,-52 818,-52 812,-52 806,-46 806,-40 806,-40 806,-28 806,-28 806,-22 812,-16 818,-16 818,-16 885,-16 885,-16 891,-16 897,-22 897,-28 897,-28 897,-40 897,-40 897,-46 891,-52 885,-52"/>
<text xml:space="preserve" text-anchor="middle" x="851.5" y="-28.57" font-family="Comic Mono" font-size="14.00">Group body</text>
</g>
<!-- group&#45;&gt;body -->
<g id="edge5" class="edge">
<title>group&#45;&gt;body</title>
<path fill="none" stroke="#4f83bf" d="M525.8,-192.71C653.96,-192.71 867,-192.71 867,-192.71 867,-192.71 867,-60.72 867,-60.72"/>
<polygon fill="#4f83bf" stroke="#4f83bf" points="869.45,-60.72 867,-53.72 864.55,-60.72 869.45,-60.72"/>
<text xml:space="preserve" text-anchor="middle" x="658.25" y="-69.5" font-family="Comic Mono" font-size="10.00">execute body for owned slot</text>
</g>
<!-- backend&#45;&gt;group -->
<g id="edge4" class="edge">
<title>backend&#45;&gt;group</title>
<path fill="none" stroke="#3e9868" d="M794,-216.55C794,-213.95 794,-212.14 794,-212.14 794,-212.14 534.12,-212.14 534.12,-212.14"/>
<polygon fill="#3e9868" stroke="#3e9868" points="534.12,-209.69 527.12,-212.14 534.12,-214.59 534.12,-209.69"/>
<text xml:space="preserve" text-anchor="middle" x="658.25" y="-203.5" font-family="Comic Mono" font-size="10.00">slot token accepted</text>
</g>
<!-- backend&#45;&gt;group -->
<g id="edge9" class="edge">
<title>backend&#45;&gt;group</title>
<path fill="none" stroke="#c94d68" d="M797,-216.67C797,-211.51 797,-207.29 797,-207.29 797,-207.29 534.43,-207.29 534.43,-207.29"/>
<polygon fill="#c94d68" stroke="#c94d68" points="534.43,-204.84 527.43,-207.29 534.43,-209.74 534.43,-204.84"/>
<text xml:space="preserve" text-anchor="middle" x="658.25" y="-136.5" font-family="Comic Mono" font-size="10.00">no slot accepted before waitTime</text>
</g>
<!-- body&#45;&gt;group -->
<g id="edge6" class="edge">
<title>body&#45;&gt;group</title>
<path fill="none" stroke="#3e9868" d="M836,-52.25C836,-93.01 836,-187.86 836,-187.86 836,-187.86 534.4,-187.86 534.4,-187.86"/>
<polygon fill="#3e9868" stroke="#3e9868" points="534.4,-185.41 527.4,-187.86 534.4,-190.31 534.4,-185.41"/>
<text xml:space="preserve" text-anchor="middle" x="658.25" y="-2.5" font-family="Comic Mono" font-size="10.00">slot result</text>
</g>
</g>
</svg>
