<?xml version="1.0" encoding="UTF-8" standalone="no"?>
<!DOCTYPE svg PUBLIC "-//W3C//DTD SVG 1.1//EN"
 "http://www.w3.org/Graphics/SVG/1.1/DTD/svg11.dtd">
<!-- Generated by graphviz version 15.0.0 (20260523.1842)
 -->
<!-- Title: leader&#45;exposed&#45;r2dbc&#45;class&#45;01 Pages: 1 -->
<svg width="1618pt" height="798pt"
 viewBox="0.00 0.00 1618.00 798.00" xmlns="http://www.w3.org/2000/svg" xmlns:xlink="http://www.w3.org/1999/xlink">
<g id="graph0" class="graph" transform="scale(1 1) rotate(0) translate(4 793.58)">
<title>leader&#45;exposed&#45;r2dbc&#45;class&#45;01</title>
<text xml:space="preserve" text-anchor="middle" x="804.96" y="-772.28" font-family="Times,serif" font-size="14.00">leader exposed r2dbc Class Structure</text>
<!-- n0&#45;&gt;r2p1 -->
<g id="edge4" class="edge">
<title>n0&#45;&gt;r2p1</title>
<path fill="none" stroke="#758297" stroke-width="1.8" d="M770.28,-406C787.12,-406 799.49,-406 803.54,-406"/>
</g>
<!-- n0&#45;&gt;r4p1 -->
<g id="edge10" class="edge">
<title>n0&#45;&gt;r4p1</title>
<path fill="none" stroke="#758297" stroke-width="1.8" d="M419.64,-406C402.8,-406 390.43,-406 386.38,-406"/>
</g>
<!-- n0&#45;&gt;r6p1 -->
<g id="edge16" class="edge">
<title>n0&#45;&gt;r6p1</title>
<path fill="none" stroke="#758297" stroke-width="1.8" stroke-dasharray="5,2" d="M594.96,-470.42C594.96,-504.91 594.96,-541.87 594.96,-549.54"/>
</g>
<!-- n4&#45;&gt;r1p1 -->
<g id="edge1" class="edge">
<title>n4&#45;&gt;r1p1</title>
<path fill="none" stroke="#758297" stroke-width="1.8" d="M1259.64,-406C1242.8,-406 1230.43,-406 1226.38,-406"/>
</g>
<!-- n4&#45;&gt;r3p1 -->
<g id="edge7" class="edge">
<title>n4&#45;&gt;r3p1</title>
<path fill="none" stroke="#758297" stroke-width="1.8" d="M1434.96,-341.71C1434.96,-306.31 1434.96,-267.95 1434.96,-259.98"/>
</g>
<!-- n4&#45;&gt;r5p1 -->
<g id="edge13" class="edge">
<title>n4&#45;&gt;r5p1</title>
<path fill="none" stroke="#758297" stroke-width="1.8" stroke-dasharray="5,2" d="M1434.96,-470.52C1434.96,-496.89 1434.96,-522.64 1434.96,-528.66"/>
</g>
<!-- r1p1&#45;&gt;r1p2 -->
<g id="edge2" class="edge">
<title>r1p1&#45;&gt;r1p2</title>
<path fill="none" stroke="#758297" stroke-width="1.8" d="M1224.96,-404.6C1224.96,-400.81 1224.96,-390.22 1224.96,-386.39"/>
</g>
<!-- r1p2&#45;&gt;n2 -->
<g id="edge3" class="edge">
<title>r1p2&#45;&gt;n2</title>
<path fill="none" stroke="#758297" stroke-width="1.8" d="M1223.62,-385C1223.62,-385 1200.7,-385 1200.7,-385"/>
<polygon fill="#758297" stroke="#758297" stroke-width="1.8" points="1200.7,-382.2 1192.7,-385 1200.7,-387.8 1200.7,-382.2"/>
</g>
<!-- r2p1&#45;&gt;r2p2 -->
<g id="edge5" class="edge">
<title>r2p1&#45;&gt;r2p2</title>
<path fill="none" stroke="#758297" stroke-width="1.8" d="M804.96,-404.6C804.96,-400.81 804.96,-390.22 804.96,-386.39"/>
</g>
<!-- r2p2&#45;&gt;n2 -->
<g id="edge6" class="edge">
<title>r2p2&#45;&gt;n2</title>
<path fill="none" stroke="#758297" stroke-width="1.8" d="M806.3,-385C806.3,-385 829.22,-385 829.22,-385"/>
<polygon fill="#758297" stroke="#758297" stroke-width="1.8" points="829.22,-387.8 837.22,-385 829.22,-382.2 829.22,-387.8"/>
</g>
<!-- r3p1&#45;&gt;r3p2 -->
<g id="edge8" class="edge">
<title>r3p1&#45;&gt;r3p2</title>
<path fill="none" stroke="#758297" stroke-width="1.8" d="M1433.57,-258C1401.87,-258 837.13,-258 806.27,-258"/>
</g>
<!-- r3p2&#45;&gt;n5 -->
<g id="edge9" class="edge">
<title>r3p2&#45;&gt;n5</title>
<path fill="none" stroke="#758297" stroke-width="1.8" d="M804.96,-257C804.96,-257 804.96,-186.16 804.96,-186.16"/>
<polygon fill="#758297" stroke="#758297" stroke-width="1.8" points="807.76,-186.16 804.96,-178.16 802.16,-186.16 807.76,-186.16"/>
</g>
<!-- r4p1&#45;&gt;r4p2 -->
<g id="edge11" class="edge">
<title>r4p1&#45;&gt;r4p2</title>
<path fill="none" stroke="#758297" stroke-width="1.8" d="M384.96,-404.44C384.96,-400.19 384.96,-388.35 384.96,-384.06"/>
</g>
<!-- r4p2&#45;&gt;n1 -->
<g id="edge12" class="edge">
<title>r4p2&#45;&gt;n1</title>
<path fill="none" stroke="#758297" stroke-width="1.8" d="M383.62,-382C383.62,-382 360.7,-382 360.7,-382"/>
<polygon fill="#758297" stroke="#758297" stroke-width="1.8" points="360.7,-379.2 352.7,-382 360.7,-384.8 360.7,-379.2"/>
</g>
<!-- r5p1&#45;&gt;r5p2 -->
<g id="edge14" class="edge">
<title>r5p1&#45;&gt;r5p2</title>
<path fill="none" stroke="#758297" stroke-width="1.8" stroke-dasharray="5,2" d="M1433.54,-530C1387.15,-530 221.83,-530 176.33,-530"/>
</g>
<!-- r5p2&#45;&gt;n6 -->
<g id="edge15" class="edge">
<title>r5p2&#45;&gt;n6</title>
<path fill="none" stroke="#758297" stroke-width="1.8" stroke-dasharray="5,2" d="M174.96,-531.26C174.96,-531.26 174.96,-579.11 174.96,-579.11"/>
<polygon fill="none" stroke="#758297" stroke-width="1.8" points="172.16,-579.11 174.96,-587.11 177.76,-579.11 172.16,-579.11"/>
</g>
<!-- r6p1&#45;&gt;r6p2 -->
<g id="edge17" class="edge">
<title>r6p1&#45;&gt;r6p2</title>
<path fill="none" stroke="#758297" stroke-width="1.8" stroke-dasharray="5,2" d="M596.32,-551C632.99,-551 1397.83,-551 1433.66,-551"/>
</g>
<!-- r6p2&#45;&gt;n3 -->
<g id="edge18" class="edge">
<title>r6p2&#45;&gt;n3</title>
<path fill="none" stroke="#758297" stroke-width="1.8" stroke-dasharray="5,2" d="M1434.96,-552.26C1434.96,-552.26 1434.96,-620.86 1434.96,-620.86"/>
<polygon fill="none" stroke="#758297" stroke-width="1.8" points="1432.16,-620.86 1434.96,-628.86 1437.76,-620.86 1432.16,-620.86"/>
</g>
<!-- n0 -->
<g id="node1" class="node">
<title>n0</title>
<path fill="#ffffff" stroke="#5b8def" d="M757.92,-470.06C757.92,-470.06 432,-470.06 432,-470.06 426,-470.06 420,-464.06 420,-458.06 420,-458.06 420,-353.9 420,-353.9 420,-347.9 426,-341.9 432,-341.9 432,-341.9 757.92,-341.9 757.92,-341.9 763.92,-341.9 769.92,-347.9 769.92,-353.9 769.92,-353.9 769.92,-458.06 769.92,-458.06 769.92,-464.06 763.92,-470.06 757.92,-470.06"/>
<text xml:space="preserve" text-anchor="middle" x="594.96" y="-401.63" font-family="Architects Daughter" font-size="18.00">Exposed R2dbc Suspend</text>
</g>
<!-- n1 -->
<g id="node2" class="node">
<title>n1</title>
<path fill="#ffffff" stroke="#58a978" d="M337.92,-469.96C337.92,-469.96 12,-469.96 12,-469.96 6,-469.96 0,-463.96 0,-457.96 0,-457.96 0,-307 0,-307 0,-301 6,-295 12,-295 12,-295 337.92,-295 337.92,-295 343.92,-295 349.92,-301 349.92,-307 349.92,-307 349.92,-457.96 349.92,-457.96 349.92,-463.96 343.92,-469.96 337.92,-469.96"/>
<text xml:space="preserve" text-anchor="middle" x="174.96" y="-378.13" font-family="Architects Daughter" font-size="18.00">ExposedR2dbcLock</text>
</g>
<!-- n2 -->
<g id="node3" class="node">
<title>n2</title>
<path fill="#ffffff" stroke="#d6a441" d="M1177.92,-469.94C1177.92,-469.94 852,-469.94 852,-469.94 846,-469.94 840,-463.94 840,-457.94 840,-457.94 840,-312.02 840,-312.02 840,-306.02 846,-300.02 852,-300.02 852,-300.02 1177.92,-300.02 1177.92,-300.02 1183.92,-300.02 1189.92,-306.02 1189.92,-312.02 1189.92,-312.02 1189.92,-457.94 1189.92,-457.94 1189.92,-463.94 1183.92,-469.94 1177.92,-469.94"/>
<text xml:space="preserve" text-anchor="middle" x="1014.96" y="-380.63" font-family="Architects Daughter" font-size="18.00">Exposed R2dbc Schema</text>
</g>
<!-- n3 -->
<g id="node4" class="node">
<title>n3</title>
<path fill="#ffffff" stroke="#dc6b82" d="M1597.92,-765.08C1597.92,-765.08 1272,-765.08 1272,-765.08 1266,-765.08 1260,-759.08 1260,-753.08 1260,-753.08 1260,-643.88 1260,-643.88 1260,-637.88 1266,-631.88 1272,-631.88 1272,-631.88 1597.92,-631.88 1597.92,-631.88 1603.92,-631.88 1609.92,-637.88 1609.92,-643.88 1609.92,-643.88 1609.92,-753.08 1609.92,-753.08 1609.92,-759.08 1603.92,-765.08 1597.92,-765.08"/>
<text xml:space="preserve" text-anchor="middle" x="1434.96" y="-694.13" font-family="Architects Daughter" font-size="18.00">SuspendLeaderElector</text>
</g>
<!-- n4 -->
<g id="node5" class="node">
<title>n4</title>
<path fill="#ffffff" stroke="#45a7a1" d="M1597.92,-470.06C1597.92,-470.06 1272,-470.06 1272,-470.06 1266,-470.06 1260,-464.06 1260,-458.06 1260,-458.06 1260,-353.9 1260,-353.9 1260,-347.9 1266,-341.9 1272,-341.9 1272,-341.9 1597.92,-341.9 1597.92,-341.9 1603.92,-341.9 1609.92,-347.9 1609.92,-353.9 1609.92,-353.9 1609.92,-458.06 1609.92,-458.06 1609.92,-464.06 1603.92,-470.06 1597.92,-470.06"/>
<text xml:space="preserve" text-anchor="middle" x="1434.96" y="-401.63" font-family="Architects Daughter" font-size="18.00">Exposed R2dbc Suspend</text>
</g>
<!-- n5 -->
<g id="node6" class="node">
<title>n5</title>
<path fill="#ffffff" stroke="#8a72d6" d="M967.92,-174.96C967.92,-174.96 642,-174.96 642,-174.96 636,-174.96 630,-168.96 630,-162.96 630,-162.96 630,-12 630,-12 630,-6 636,0 642,0 642,0 967.92,0 967.92,0 973.92,0 979.92,-6 979.92,-12 979.92,-12 979.92,-162.96 979.92,-162.96 979.92,-168.96 973.92,-174.96 967.92,-174.96"/>
<text xml:space="preserve" text-anchor="middle" x="804.96" y="-83.13" font-family="Architects Daughter" font-size="18.00">ExposedR2dbcGroupLock</text>
</g>
<!-- n6 -->
<g id="node7" class="node">
<title>n6</title>
<path fill="#ffffff" stroke="#b88a44" d="M337.92,-764.96C337.92,-764.96 12,-764.96 12,-764.96 6,-764.96 0,-758.96 0,-752.96 0,-752.96 0,-602 0,-602 0,-596 6,-590 12,-590 12,-590 337.92,-590 337.92,-590 343.92,-590 349.92,-596 349.92,-602 349.92,-602 349.92,-752.96 349.92,-752.96 349.92,-758.96 343.92,-764.96 337.92,-764.96"/>
<text xml:space="preserve" text-anchor="middle" x="174.96" y="-673.13" font-family="Architects Daughter" font-size="18.00">SuspendLeaderGroupElector</text>
</g>
<!-- r1p1 -->
<!-- r1p2 -->
<!-- r2p1 -->
<!-- r2p2 -->
<!-- r3p1 -->
<!-- r3p2 -->
<!-- r4p1 -->
<!-- r4p2 -->
<!-- r5p1 -->
<!-- r5p2 -->
<!-- r6p1 -->
<!-- r6p2 -->
</g>
</svg>
