<?xml version="1.0" encoding="UTF-8" standalone="no"?>
<!DOCTYPE svg PUBLIC "-//W3C//DTD SVG 1.1//EN"
 "http://www.w3.org/Graphics/SVG/1.1/DTD/svg11.dtd">
<!-- Generated by graphviz version 15.0.0 (20260523.1842)
 -->
<!-- Title: leader&#45;redis&#45;lettuce&#45;sequence&#45;02 Pages: 1 -->
<svg width="1316pt" height="1397pt"
 viewBox="0.00 0.00 1316.00 1397.00" xmlns="http://www.w3.org/2000/svg" xmlns:xlink="http://www.w3.org/1999/xlink">
<g id="graph0" class="graph" transform="scale(1 1) rotate(0) translate(4 1392.5)">
<title>leader&#45;redis&#45;lettuce&#45;sequence&#45;02</title>
<text xml:space="preserve" text-anchor="middle" x="654.12" y="-1371.2" font-family="Times,serif" font-size="14.00">Scenario 1 — Normal acquire/release plus cra.</text>
<!-- n0&#45;&gt;n2 -->
<g id="edge1" class="edge">
<title>n0&#45;&gt;n2</title>
<path fill="none" stroke="#758297" stroke-width="1.8" d="M171.57,-1333.28C171.57,-1349.05 171.57,-1364 171.57,-1364 171.57,-1364 1265.35,-1364 1265.35,-1364 1265.35,-1364 1265.35,-1344.01 1265.35,-1344.01"/>
<polygon fill="#758297" stroke="#758297" stroke-width="1.8" points="1268.15,-1344.01 1265.35,-1336.01 1262.55,-1344.01 1268.15,-1344.01"/>
</g>
<!-- n0&#45;&gt;n2 -->
<g id="edge11" class="edge">
<title>n0&#45;&gt;n2</title>
<path fill="none" stroke="#758297" stroke-width="1.8" d="M214.46,-1333.46C214.46,-1346.94 214.46,-1359 214.46,-1359 214.46,-1359 1222.46,-1359 1222.46,-1359 1222.46,-1359 1222.46,-1344.18 1222.46,-1344.18"/>
<polygon fill="#758297" stroke="#758297" stroke-width="1.8" points="1225.26,-1344.18 1222.46,-1336.18 1219.66,-1344.18 1225.26,-1344.18"/>
</g>
<!-- n0&#45;&gt;n2 -->
<g id="edge16" class="edge">
<title>n0&#45;&gt;n2</title>
<path fill="none" stroke="#758297" stroke-width="1.8" d="M257.35,-1333.45C257.35,-1344.61 257.35,-1354 257.35,-1354 257.35,-1354 1179.57,-1354 1179.57,-1354 1179.57,-1354 1179.57,-1344.17 1179.57,-1344.17"/>
<polygon fill="#758297" stroke="#758297" stroke-width="1.8" points="1182.37,-1344.17 1179.57,-1336.17 1176.77,-1344.17 1182.37,-1344.17"/>
</g>
<!-- n0&#45;&gt;r4p1 -->
<g id="edge6" class="edge">
<title>n0&#45;&gt;r4p1</title>
<path fill="none" stroke="#758297" stroke-width="1.8" d="M214.12,-1260.91C214.12,-1163.41 214.12,-900.98 214.12,-878.61"/>
</g>
<!-- n0&#45;&gt;r12p1 -->
<g id="edge18" class="edge">
<title>n0&#45;&gt;r12p1</title>
<path fill="none" stroke="#758297" stroke-width="1.8" d="M257.72,-1260.83C257.72,-1072.79 257.72,-217 257.72,-217 257.72,-217 223.14,-217 215.57,-217"/>
</g>
<!-- n1&#45;&gt;n2 -->
<g id="edge9" class="edge">
<title>n1&#45;&gt;n2</title>
<path fill="none" stroke="#758297" stroke-width="1.8" d="M804.65,-1319C804.65,-1319 997.2,-1319 997.2,-1319"/>
<polygon fill="#758297" stroke="#758297" stroke-width="1.8" points="997.2,-1321.8 1005.2,-1319 997.2,-1316.2 997.2,-1321.8"/>
</g>
<!-- n1&#45;&gt;n2 -->
<g id="edge21" class="edge">
<title>n1&#45;&gt;n2</title>
<path fill="none" stroke="#758297" stroke-width="1.8" d="M804.65,-1275C804.65,-1275 997.2,-1275 997.2,-1275"/>
<polygon fill="#758297" stroke="#758297" stroke-width="1.8" points="997.2,-1277.8 1005.2,-1275 997.2,-1272.2 997.2,-1277.8"/>
</g>
<!-- n2&#45;&gt;n0 -->
<g id="edge5" class="edge">
<title>n2&#45;&gt;n0</title>
<path fill="none" stroke="#758297" stroke-width="1.8" stroke-dasharray="5,2" d="M1136.67,-1333.42C1136.67,-1342.15 1136.67,-1349 1136.67,-1349 1136.67,-1349 42.89,-1349 42.89,-1349 42.89,-1349 42.89,-1344.15 42.89,-1344.15"/>
<polygon fill="#758297" stroke="#758297" stroke-width="1.8" points="45.69,-1344.15 42.89,-1336.15 40.09,-1344.15 45.69,-1344.15"/>
</g>
<!-- n2&#45;&gt;n0 -->
<g id="edge15" class="edge">
<title>n2&#45;&gt;n0</title>
<path fill="none" stroke="#758297" stroke-width="1.8" stroke-dasharray="5,2" d="M1093.78,-1333.26C1093.78,-1338.95 1093.78,-1343 1093.78,-1343 1093.78,-1343 85.78,-1343 85.78,-1343 85.78,-1343 85.78,-1342.03 85.78,-1342.03"/>
<polygon fill="#758297" stroke="#758297" stroke-width="1.8" points="88.58,-1343.99 85.78,-1335.99 82.98,-1343.99 88.58,-1343.99"/>
</g>
<!-- n2&#45;&gt;n0 -->
<g id="edge17" class="edge">
<title>n2&#45;&gt;n0</title>
<path fill="none" stroke="#758297" stroke-width="1.8" stroke-dasharray="5,2" d="M1050.89,-1333.31C1050.89,-1336.18 1050.89,-1338 1050.89,-1338 1050.89,-1338 128.67,-1338 128.67,-1338 128.67,-1338 128.67,-1337.53 128.67,-1337.53"/>
<polygon fill="#758297" stroke="#758297" stroke-width="1.8" points="131.47,-1344.03 128.67,-1336.03 125.87,-1344.03 131.47,-1344.03"/>
</g>
<!-- n2&#45;&gt;n1 -->
<g id="edge10" class="edge">
<title>n2&#45;&gt;n1</title>
<path fill="none" stroke="#758297" stroke-width="1.8" stroke-dasharray="5,2" d="M1007.59,-1304C1007.59,-1304 815.04,-1304 815.04,-1304"/>
<polygon fill="#758297" stroke="#758297" stroke-width="1.8" points="815.04,-1301.2 807.04,-1304 815.04,-1306.8 815.04,-1301.2"/>
</g>
<!-- n2&#45;&gt;n1 -->
<g id="edge25" class="edge">
<title>n2&#45;&gt;n1</title>
<path fill="none" stroke="#758297" stroke-width="1.8" stroke-dasharray="5,2" d="M1007.59,-1290C1007.59,-1290 815.04,-1290 815.04,-1290"/>
<polygon fill="#758297" stroke="#758297" stroke-width="1.8" points="815.04,-1287.2 807.04,-1290 815.04,-1292.8 815.04,-1287.2"/>
</g>
<!-- n2&#45;&gt;r2p1 -->
<g id="edge2" class="edge">
<title>n2&#45;&gt;r2p1</title>
<path fill="none" stroke="#758297" stroke-width="1.8" d="M1222.12,-1260.67C1222.12,-1198.17 1222.12,-1075.68 1222.12,-1060.61"/>
</g>
<!-- n2&#45;&gt;r8p1 -->
<g id="edge12" class="edge">
<title>n2&#45;&gt;r8p1</title>
<path fill="none" stroke="#758297" stroke-width="1.8" d="M1251.55,-1260.65C1251.55,-1110.44 1251.55,-547 1251.55,-547 1251.55,-547 1229.02,-547 1223.38,-547"/>
</g>
<!-- n2&#45;&gt;r14p1 -->
<g id="edge22" class="edge">
<title>n2&#45;&gt;r14p1</title>
<path fill="none" stroke="#758297" stroke-width="1.8" d="M1279.89,-1260.67C1279.89,-1053.74 1279.89,-35 1279.89,-35 1279.89,-35 1232.44,-35 1223.55,-35"/>
</g>
<!-- r2p1&#45;&gt;r2p2 -->
<g id="edge3" class="edge">
<title>r2p1&#45;&gt;r2p2</title>
<path fill="none" stroke="#758297" stroke-width="1.8" d="M1222.12,-1057.62C1222.12,-1052.03 1222.12,-1032.02 1222.12,-1026.5"/>
</g>
<!-- r2p2&#45;&gt;n2 -->
<g id="edge4" class="edge">
<title>r2p2&#45;&gt;n2</title>
<path fill="none" stroke="#758297" stroke-width="1.8" d="M1223.53,-1025C1227.3,-1025 1237.37,-1025 1237.37,-1025 1237.37,-1025 1237.37,-1249.94 1237.37,-1249.94"/>
<polygon fill="#758297" stroke="#758297" stroke-width="1.8" points="1234.57,-1249.94 1237.37,-1257.94 1240.17,-1249.94 1234.57,-1249.94"/>
</g>
<!-- r4p1&#45;&gt;r4p2 -->
<g id="edge7" class="edge">
<title>r4p1&#45;&gt;r4p2</title>
<path fill="none" stroke="#758297" stroke-width="1.8" d="M214.12,-875.62C214.12,-870.03 214.12,-850.02 214.12,-844.5"/>
</g>
<!-- r4p2&#45;&gt;n0 -->
<g id="edge8" class="edge">
<title>r4p2&#45;&gt;n0</title>
<path fill="none" stroke="#758297" stroke-width="1.8" d="M215.59,-843C220.56,-843 236.46,-843 236.46,-843 236.46,-843 236.46,-1249.96 236.46,-1249.96"/>
<polygon fill="#758297" stroke="#758297" stroke-width="1.8" points="233.66,-1249.96 236.46,-1257.96 239.26,-1249.96 233.66,-1249.96"/>
</g>
<!-- r8p1&#45;&gt;r8p2 -->
<g id="edge13" class="edge">
<title>r8p1&#45;&gt;r8p2</title>
<path fill="none" stroke="#758297" stroke-width="1.8" d="M1222.12,-545.62C1222.12,-540.03 1222.12,-520.02 1222.12,-514.5"/>
</g>
<!-- r8p2&#45;&gt;n2 -->
<g id="edge14" class="edge">
<title>r8p2&#45;&gt;n2</title>
<path fill="none" stroke="#758297" stroke-width="1.8" d="M1223.57,-513C1231.14,-513 1265.72,-513 1265.72,-513 1265.72,-513 1265.72,-1250.11 1265.72,-1250.11"/>
<polygon fill="#758297" stroke="#758297" stroke-width="1.8" points="1262.92,-1250.11 1265.72,-1258.11 1268.52,-1250.11 1262.92,-1250.11"/>
</g>
<!-- r12p1&#45;&gt;r12p2 -->
<g id="edge19" class="edge">
<title>r12p1&#45;&gt;r12p2</title>
<path fill="none" stroke="#758297" stroke-width="1.8" d="M214.12,-215.62C214.12,-210.03 214.12,-190.02 214.12,-184.5"/>
</g>
<!-- r12p2&#45;&gt;n0 -->
<g id="edge20" class="edge">
<title>r12p2&#45;&gt;n0</title>
<path fill="none" stroke="#758297" stroke-width="1.8" d="M215.25,-183C223.86,-183 278.98,-183 278.98,-183 278.98,-183 278.98,-1249.92 278.98,-1249.92"/>
<polygon fill="#758297" stroke="#758297" stroke-width="1.8" points="276.18,-1249.92 278.98,-1257.92 281.78,-1249.92 276.18,-1249.92"/>
</g>
<!-- r14p1&#45;&gt;r14p2 -->
<g id="edge23" class="edge">
<title>r14p1&#45;&gt;r14p2</title>
<path fill="none" stroke="#758297" stroke-width="1.8" d="M1222.12,-33.62C1222.12,-28.03 1222.12,-8.02 1222.12,-2.5"/>
</g>
<!-- r14p2&#45;&gt;n2 -->
<g id="edge24" class="edge">
<title>r14p2&#45;&gt;n2</title>
<path fill="none" stroke="#758297" stroke-width="1.8" d="M1223.62,-1C1233.95,-1 1294.07,-1 1294.07,-1 1294.07,-1 1294.07,-1250 1294.07,-1250"/>
<polygon fill="#758297" stroke="#758297" stroke-width="1.8" points="1291.27,-1250 1294.07,-1258 1296.87,-1250 1291.27,-1250"/>
</g>
<!-- n0 -->
<g id="node1" class="node">
<title>n0</title>
<path fill="#ffffff" stroke="#5b8def" d="M288.24,-1333.08C288.24,-1333.08 12,-1333.08 12,-1333.08 6,-1333.08 0,-1327.08 0,-1321.08 0,-1321.08 0,-1273.08 0,-1273.08 0,-1267.08 6,-1261.08 12,-1261.08 12,-1261.08 288.24,-1261.08 288.24,-1261.08 294.24,-1261.08 300.24,-1267.08 300.24,-1273.08 300.24,-1273.08 300.24,-1321.08 300.24,-1321.08 300.24,-1327.08 294.24,-1333.08 288.24,-1333.08"/>
<text xml:space="preserve" text-anchor="middle" x="150.12" y="-1292.73" font-family="Architects Daughter" font-size="18.00">ClientA</text>
</g>
<!-- n1 -->
<g id="node2" class="node">
<title>n1</title>
<path fill="#ffffff" stroke="#58a978" d="M792.24,-1333.08C792.24,-1333.08 516,-1333.08 516,-1333.08 510,-1333.08 504,-1327.08 504,-1321.08 504,-1321.08 504,-1273.08 504,-1273.08 504,-1267.08 510,-1261.08 516,-1261.08 516,-1261.08 792.24,-1261.08 792.24,-1261.08 798.24,-1261.08 804.24,-1267.08 804.24,-1273.08 804.24,-1273.08 804.24,-1321.08 804.24,-1321.08 804.24,-1327.08 798.24,-1333.08 792.24,-1333.08"/>
<text xml:space="preserve" text-anchor="middle" x="654.12" y="-1292.73" font-family="Architects Daughter" font-size="18.00">ClientB</text>
</g>
<!-- n2 -->
<g id="node3" class="node">
<title>n2</title>
<path fill="#ffffff" stroke="#d6a441" d="M1296.24,-1333.08C1296.24,-1333.08 1020,-1333.08 1020,-1333.08 1014,-1333.08 1008,-1327.08 1008,-1321.08 1008,-1321.08 1008,-1273.08 1008,-1273.08 1008,-1267.08 1014,-1261.08 1020,-1261.08 1020,-1261.08 1296.24,-1261.08 1296.24,-1261.08 1302.24,-1261.08 1308.24,-1267.08 1308.24,-1273.08 1308.24,-1273.08 1308.24,-1321.08 1308.24,-1321.08 1308.24,-1327.08 1302.24,-1333.08 1296.24,-1333.08"/>
<text xml:space="preserve" text-anchor="middle" x="1158.12" y="-1292.73" font-family="Architects Daughter" font-size="18.00">Redis</text>
</g>
<!-- r2p1 -->
<!-- r2p2 -->
<!-- r4p1 -->
<!-- r4p2 -->
<!-- r8p1 -->
<!-- r8p2 -->
<!-- r12p1 -->
<!-- r12p2 -->
<!-- r14p1 -->
<!-- r14p2 -->
</g>
</svg>
