<?xml version="1.0" encoding="UTF-8" standalone="no"?>
<!DOCTYPE svg PUBLIC "-//W3C//DTD SVG 1.1//EN"
 "http://www.w3.org/Graphics/SVG/1.1/DTD/svg11.dtd">
<!-- Generated by graphviz version 15.0.0 (20260523.1842)
 -->
<!-- Title: leader&#45;spring&#45;boot&#45;architecture&#45;01 Pages: 1 -->
<svg width="956pt" height="465pt"
 viewBox="0.00 0.00 956.00 465.00" xmlns="http://www.w3.org/2000/svg" xmlns:xlink="http://www.w3.org/1999/xlink">
<g id="graph0" class="graph" transform="scale(1 1) rotate(0) translate(4 460.58)">
<title>leader&#45;spring&#45;boot&#45;architecture&#45;01</title>
<text xml:space="preserve" text-anchor="middle" x="474.04" y="-439.28" font-family="Times,serif" font-size="14.00">leader spring boot Architecture</text>
<!-- n0&#45;&gt;r10p1 -->
<g id="edge28" class="edge">
<title>n0&#45;&gt;r10p1</title>
<path fill="none" stroke="#758297" stroke-width="1.8" d="M280.2,-382.04C284.06,-382.04 286.94,-382.04 288.56,-382.04"/>
</g>
<!-- n1&#45;&gt;r9p1 -->
<g id="edge25" class="edge">
<title>n1&#45;&gt;r9p1</title>
<path fill="none" stroke="#758297" stroke-width="1.8" d="M474.04,-331.84C474.04,-317.64 474.04,-304.86 474.04,-300.57"/>
</g>
<!-- n2&#45;&gt;r7p1 -->
<g id="edge19" class="edge">
<title>n2&#45;&gt;r7p1</title>
<path fill="none" stroke="#758297" stroke-width="1.8" d="M716.89,-331.61C689.41,-316.4 664.96,-302.87 659.28,-299.73"/>
</g>
<!-- n2&#45;&gt;r8p1 -->
<g id="edge22" class="edge">
<title>n2&#45;&gt;r8p1</title>
<path fill="none" stroke="#758297" stroke-width="1.8" d="M808.04,-331.78C808.04,-287.12 808.04,-227.4 808.04,-217.47"/>
</g>
<!-- n3&#45;&gt;r6p1 -->
<g id="edge16" class="edge">
<title>n3&#45;&gt;r6p1</title>
<path fill="none" stroke="#758297" stroke-width="1.8" d="M280.2,-216.04C284.06,-216.04 286.94,-216.04 288.56,-216.04"/>
</g>
<!-- n4&#45;&gt;r4p1 -->
<g id="edge10" class="edge">
<title>n4&#45;&gt;r4p1</title>
<path fill="none" stroke="#758297" stroke-width="1.8" d="M382.89,-165.61C355.41,-150.4 330.96,-136.87 325.28,-133.73"/>
</g>
<!-- n4&#45;&gt;r5p1 -->
<g id="edge13" class="edge">
<title>n4&#45;&gt;r5p1</title>
<path fill="none" stroke="#758297" stroke-width="1.8" d="M614.2,-216.04C618.06,-216.04 620.94,-216.04 622.56,-216.04"/>
</g>
<!-- n5&#45;&gt;r3p1 -->
<g id="edge7" class="edge">
<title>n5&#45;&gt;r3p1</title>
<path fill="none" stroke="#758297" stroke-width="1.8" d="M716.89,-165.61C689.41,-150.4 664.96,-136.87 659.28,-133.73"/>
</g>
<!-- n6&#45;&gt;r2p1 -->
<g id="edge4" class="edge">
<title>n6&#45;&gt;r2p1</title>
<path fill="none" stroke="#758297" stroke-width="1.8" d="M280.2,-50.04C284.06,-50.04 286.94,-50.04 288.56,-50.04"/>
</g>
<!-- n8&#45;&gt;r1p1 -->
<g id="edge1" class="edge">
<title>n8&#45;&gt;r1p1</title>
<path fill="none" stroke="#758297" stroke-width="1.8" d="M667.88,-50.04C664.02,-50.04 661.14,-50.04 659.52,-50.04"/>
</g>
<!-- r1p1&#45;&gt;r1p2 -->
<g id="edge2" class="edge">
<title>r1p1&#45;&gt;r1p2</title>
<path fill="none" stroke="#758297" stroke-width="1.8" d="M656.58,-50.04C650.99,-50.04 630.98,-50.04 625.46,-50.04"/>
</g>
<!-- r1p2&#45;&gt;n7 -->
<g id="edge3" class="edge">
<title>r1p2&#45;&gt;n7</title>
<path fill="none" stroke="#758297" stroke-width="1.8" d="M622.74,-50.04C622.65,-50.04 622.54,-50.04 622.44,-50.04"/>
<polygon fill="#758297" stroke="#758297" stroke-width="1.8" points="625.14,-47.24 617.14,-50.04 625.14,-52.84 625.14,-47.24"/>
</g>
<!-- r2p1&#45;&gt;r2p2 -->
<g id="edge5" class="edge">
<title>r2p1&#45;&gt;r2p2</title>
<path fill="none" stroke="#758297" stroke-width="1.8" d="M291.5,-50.04C297.09,-50.04 317.1,-50.04 322.62,-50.04"/>
</g>
<!-- r2p2&#45;&gt;n7 -->
<g id="edge6" class="edge">
<title>r2p2&#45;&gt;n7</title>
<path fill="none" stroke="#758297" stroke-width="1.8" d="M325.34,-50.04C325.43,-50.04 325.54,-50.04 325.64,-50.04"/>
<polygon fill="#758297" stroke="#758297" stroke-width="1.8" points="322.94,-52.84 330.94,-50.04 322.94,-47.24 322.94,-52.84"/>
</g>
<!-- r3p1&#45;&gt;r3p2 -->
<g id="edge8" class="edge">
<title>r3p1&#45;&gt;r3p2</title>
<path fill="none" stroke="#758297" stroke-width="1.8" d="M656.58,-133.04C650.99,-133.04 630.98,-133.04 625.46,-133.04"/>
</g>
<!-- r3p2&#45;&gt;n7 -->
<g id="edge9" class="edge">
<title>r3p2&#45;&gt;n7</title>
<path fill="none" stroke="#758297" stroke-width="1.8" d="M622.74,-132.32C617.61,-129.48 597.87,-118.56 574.37,-105.56"/>
<polygon fill="#758297" stroke="#758297" stroke-width="1.8" points="575.95,-103.23 567.59,-101.8 573.23,-108.13 575.95,-103.23"/>
</g>
<!-- r4p1&#45;&gt;r4p2 -->
<g id="edge11" class="edge">
<title>r4p1&#45;&gt;r4p2</title>
<path fill="none" stroke="#758297" stroke-width="1.8" d="M322.58,-133.04C316.99,-133.04 296.98,-133.04 291.46,-133.04"/>
</g>
<!-- r4p2&#45;&gt;n6 -->
<g id="edge12" class="edge">
<title>r4p2&#45;&gt;n6</title>
<path fill="none" stroke="#758297" stroke-width="1.8" d="M288.74,-132.32C283.61,-129.48 263.87,-118.56 240.37,-105.56"/>
<polygon fill="#758297" stroke="#758297" stroke-width="1.8" points="241.95,-103.23 233.59,-101.8 239.23,-108.13 241.95,-103.23"/>
</g>
<!-- r5p1&#45;&gt;r5p2 -->
<g id="edge14" class="edge">
<title>r5p1&#45;&gt;r5p2</title>
<path fill="none" stroke="#758297" stroke-width="1.8" d="M625.5,-216.04C631.09,-216.04 651.1,-216.04 656.62,-216.04"/>
</g>
<!-- r5p2&#45;&gt;n5 -->
<g id="edge15" class="edge">
<title>r5p2&#45;&gt;n5</title>
<path fill="none" stroke="#758297" stroke-width="1.8" d="M659.34,-216.04C659.43,-216.04 659.54,-216.04 659.64,-216.04"/>
<polygon fill="#758297" stroke="#758297" stroke-width="1.8" points="656.94,-218.84 664.94,-216.04 656.94,-213.24 656.94,-218.84"/>
</g>
<!-- r6p1&#45;&gt;r6p2 -->
<g id="edge17" class="edge">
<title>r6p1&#45;&gt;r6p2</title>
<path fill="none" stroke="#758297" stroke-width="1.8" d="M291.5,-216.04C297.09,-216.04 317.1,-216.04 322.62,-216.04"/>
</g>
<!-- r6p2&#45;&gt;n4 -->
<g id="edge18" class="edge">
<title>r6p2&#45;&gt;n4</title>
<path fill="none" stroke="#758297" stroke-width="1.8" d="M325.34,-216.04C325.43,-216.04 325.54,-216.04 325.64,-216.04"/>
<polygon fill="#758297" stroke="#758297" stroke-width="1.8" points="322.94,-218.84 330.94,-216.04 322.94,-213.24 322.94,-218.84"/>
</g>
<!-- r7p1&#45;&gt;r7p2 -->
<g id="edge20" class="edge">
<title>r7p1&#45;&gt;r7p2</title>
<path fill="none" stroke="#758297" stroke-width="1.8" d="M656.71,-299.04C633.56,-299.04 316.32,-299.04 291.57,-299.04"/>
</g>
<!-- r7p2&#45;&gt;n3 -->
<g id="edge21" class="edge">
<title>r7p2&#45;&gt;n3</title>
<path fill="none" stroke="#758297" stroke-width="1.8" d="M288.74,-298.32C283.61,-295.48 263.87,-284.56 240.37,-271.56"/>
<polygon fill="#758297" stroke="#758297" stroke-width="1.8" points="241.95,-269.23 233.59,-267.8 239.23,-274.13 241.95,-269.23"/>
</g>
<!-- r8p1&#45;&gt;r8p2 -->
<g id="edge23" class="edge">
<title>r8p1&#45;&gt;r8p2</title>
<path fill="none" stroke="#758297" stroke-width="1.8" d="M808.04,-216.04C808.04,-216.04 808.04,-216.04 808.04,-216.04"/>
</g>
<!-- r8p2&#45;&gt;n8 -->
<g id="edge24" class="edge">
<title>r8p2&#45;&gt;n8</title>
<path fill="none" stroke="#758297" stroke-width="1.8" d="M808.04,-214.6C808.04,-205.43 808.04,-154.03 808.04,-111.08"/>
<polygon fill="#758297" stroke="#758297" stroke-width="1.8" points="810.84,-111.1 808.04,-103.1 805.24,-111.1 810.84,-111.1"/>
</g>
<!-- r9p1&#45;&gt;r9p2 -->
<g id="edge26" class="edge">
<title>r9p1&#45;&gt;r9p2</title>
<path fill="none" stroke="#758297" stroke-width="1.8" d="M474.04,-299.04C474.04,-299.04 474.04,-299.04 474.04,-299.04"/>
</g>
<!-- r9p2&#45;&gt;n4 -->
<g id="edge27" class="edge">
<title>r9p2&#45;&gt;n4</title>
<path fill="none" stroke="#758297" stroke-width="1.8" d="M474.04,-297.6C474.04,-294.5 474.04,-286.69 474.04,-277.07"/>
<polygon fill="#758297" stroke="#758297" stroke-width="1.8" points="476.84,-277.24 474.04,-269.24 471.24,-277.24 476.84,-277.24"/>
</g>
<!-- r10p1&#45;&gt;r10p2 -->
<g id="edge29" class="edge">
<title>r10p1&#45;&gt;r10p2</title>
<path fill="none" stroke="#758297" stroke-width="1.8" d="M291.37,-382.04C314.52,-382.04 631.76,-382.04 656.51,-382.04"/>
</g>
<!-- r10p2&#45;&gt;n2 -->
<g id="edge30" class="edge">
<title>r10p2&#45;&gt;n2</title>
<path fill="none" stroke="#758297" stroke-width="1.8" d="M659.34,-382.04C659.43,-382.04 659.54,-382.04 659.64,-382.04"/>
<polygon fill="#758297" stroke="#758297" stroke-width="1.8" points="656.94,-384.84 664.94,-382.04 656.94,-379.24 656.94,-384.84"/>
</g>
<!-- n0 -->
<g id="node1" class="node">
<title>n0</title>
<path fill="#ffffff" stroke="#5b8def" d="M268.08,-432.08C268.08,-432.08 12,-432.08 12,-432.08 6,-432.08 0,-426.08 0,-420.08 0,-420.08 0,-344 0,-344 0,-338 6,-332 12,-332 12,-332 268.08,-332 268.08,-332 274.08,-332 280.08,-338 280.08,-344 280.08,-344 280.08,-420.08 280.08,-420.08 280.08,-426.08 274.08,-432.08 268.08,-432.08"/>
<text xml:space="preserve" text-anchor="middle" x="140.04" y="-377.69" font-family="Architects Daughter" font-size="18.00">LeaderProperties</text>
</g>
<!-- n1 -->
<g id="node2" class="node">
<title>n1</title>
<path fill="#ffffff" stroke="#58a978" d="M602.08,-432.08C602.08,-432.08 346,-432.08 346,-432.08 340,-432.08 334,-426.08 334,-420.08 334,-420.08 334,-344 334,-344 334,-338 340,-332 346,-332 346,-332 602.08,-332 602.08,-332 608.08,-332 614.08,-338 614.08,-344 614.08,-344 614.08,-420.08 614.08,-420.08 614.08,-426.08 608.08,-432.08 602.08,-432.08"/>
<text xml:space="preserve" text-anchor="middle" x="474.04" y="-377.69" font-family="Architects Daughter" font-size="18.00">LeaderAopProperties</text>
</g>
<!-- n2 -->
<g id="node3" class="node">
<title>n2</title>
<path fill="#ffffff" stroke="#d6a441" d="M936.08,-432.08C936.08,-432.08 680,-432.08 680,-432.08 674,-432.08 668,-426.08 668,-420.08 668,-420.08 668,-344 668,-344 668,-338 674,-332 680,-332 680,-332 936.08,-332 936.08,-332 942.08,-332 948.08,-338 948.08,-344 948.08,-344 948.08,-420.08 948.08,-420.08 948.08,-426.08 942.08,-432.08 936.08,-432.08"/>
<text xml:space="preserve" text-anchor="middle" x="808.04" y="-377.69" font-family="Architects Daughter" font-size="18.00">Leader Aop Factory</text>
</g>
<!-- n3 -->
<g id="node4" class="node">
<title>n3</title>
<path fill="#ffffff" stroke="#dc6b82" d="M268.08,-266.08C268.08,-266.08 12,-266.08 12,-266.08 6,-266.08 0,-260.08 0,-254.08 0,-254.08 0,-178 0,-178 0,-172 6,-166 12,-166 12,-166 268.08,-166 268.08,-166 274.08,-166 280.08,-172 280.08,-178 280.08,-178 280.08,-254.08 280.08,-254.08 280.08,-260.08 274.08,-266.08 268.08,-266.08"/>
<text xml:space="preserve" text-anchor="middle" x="140.04" y="-211.69" font-family="Architects Daughter" font-size="18.00">Leader Micrometer</text>
</g>
<!-- n4 -->
<g id="node5" class="node">
<title>n4</title>
<path fill="#ffffff" stroke="#45a7a1" d="M602.08,-266.08C602.08,-266.08 346,-266.08 346,-266.08 340,-266.08 334,-260.08 334,-254.08 334,-254.08 334,-178 334,-178 334,-172 340,-166 346,-166 346,-166 602.08,-166 602.08,-166 608.08,-166 614.08,-172 614.08,-178 614.08,-178 614.08,-254.08 614.08,-254.08 614.08,-260.08 608.08,-266.08 602.08,-266.08"/>
<text xml:space="preserve" text-anchor="middle" x="474.04" y="-211.69" font-family="Architects Daughter" font-size="18.00">Leader Aop Auto</text>
</g>
<!-- n5 -->
<g id="node6" class="node">
<title>n5</title>
<path fill="#ffffff" stroke="#8a72d6" d="M936.08,-266.08C936.08,-266.08 680,-266.08 680,-266.08 674,-266.08 668,-260.08 668,-254.08 668,-254.08 668,-178 668,-178 668,-172 674,-166 680,-166 680,-166 936.08,-166 936.08,-166 942.08,-166 948.08,-172 948.08,-178 948.08,-178 948.08,-254.08 948.08,-254.08 948.08,-260.08 942.08,-266.08 936.08,-266.08"/>
<text xml:space="preserve" text-anchor="middle" x="808.04" y="-211.69" font-family="Architects Daughter" font-size="18.00">LeaderBeanSelector</text>
</g>
<!-- n6 -->
<g id="node7" class="node">
<title>n6</title>
<path fill="#ffffff" stroke="#b88a44" d="M268.08,-100.08C268.08,-100.08 12,-100.08 12,-100.08 6,-100.08 0,-94.08 0,-88.08 0,-88.08 0,-12 0,-12 0,-6 6,0 12,0 12,0 268.08,0 268.08,0 274.08,0 280.08,-6 280.08,-12 280.08,-12 280.08,-88.08 280.08,-88.08 280.08,-94.08 274.08,-100.08 268.08,-100.08"/>
<text xml:space="preserve" text-anchor="middle" x="140.04" y="-45.69" font-family="Architects Daughter" font-size="18.00">Spel Expression</text>
</g>
<!-- n7 -->
<g id="node8" class="node">
<title>n7</title>
<path fill="#ffffff" stroke="#8ba84d" d="M602.08,-100.08C602.08,-100.08 346,-100.08 346,-100.08 340,-100.08 334,-94.08 334,-88.08 334,-88.08 334,-12 334,-12 334,-6 340,0 346,0 346,0 602.08,0 602.08,0 608.08,0 614.08,-6 614.08,-12 614.08,-12 614.08,-88.08 614.08,-88.08 614.08,-94.08 608.08,-100.08 602.08,-100.08"/>
<text xml:space="preserve" text-anchor="middle" x="474.04" y="-45.69" font-family="Architects Daughter" font-size="18.00">LeaderElectionAspect</text>
</g>
<!-- n8 -->
<g id="node9" class="node">
<title>n8</title>
<path fill="#ffffff" stroke="#5b8def" d="M936.08,-100.08C936.08,-100.08 680,-100.08 680,-100.08 674,-100.08 668,-94.08 668,-88.08 668,-88.08 668,-12 668,-12 668,-6 674,0 680,0 680,0 936.08,0 936.08,0 942.08,0 948.08,-6 948.08,-12 948.08,-12 948.08,-88.08 948.08,-88.08 948.08,-94.08 942.08,-100.08 936.08,-100.08"/>
<text xml:space="preserve" text-anchor="middle" x="808.04" y="-45.69" font-family="Architects Daughter" font-size="18.00">LeaderElectorFactory</text>
</g>
<!-- r1p1 -->
<!-- r1p2 -->
<!-- r2p1 -->
<!-- r2p2 -->
<!-- r3p1 -->
<!-- r3p2 -->
<!-- r4p1 -->
<!-- r4p2 -->
<!-- r5p1 -->
<!-- r5p2 -->
<!-- r6p1 -->
<!-- r6p2 -->
<!-- r7p1 -->
<!-- r7p2 -->
<!-- r8p1 -->
<!-- r8p2 -->
<!-- r9p1 -->
<!-- r9p2 -->
<!-- r10p1 -->
<!-- r10p2 -->
</g>
</svg>
