<svg id="my-svg" width="100%" xmlns="http://www.w3.org/2000/svg" xmlns:xlink="http://www.w3.org/1999/xlink" class="classDiagram" style="max-width: 2070.54px; background-color: transparent;" viewBox="0 0 2070.5390625 348" role="graphics-document document" aria-roledescription="class"><style>#my-svg{font-size:16px;fill:#102033;}@keyframes edge-animation-frame{from{stroke-dashoffset:0;}}@keyframes dash{to{stroke-dashoffset:0;}}#my-svg .edge-animation-slow{stroke-dasharray:9,5!important;stroke-dashoffset:900;animation:dash 50s linear infinite;stroke-linecap:round;}#my-svg .edge-animation-fast{stroke-dasharray:9,5!important;stroke-dashoffset:900;animation:dash 20s linear infinite;stroke-linecap:round;}#my-svg .error-icon{fill:#FFF3D9;}#my-svg .error-text{fill:#102033;stroke:#102033;}#my-svg .edge-thickness-normal{stroke-width:1px;}#my-svg .edge-thickness-thick{stroke-width:3.5px;}#my-svg .edge-pattern-solid{stroke-dasharray:0;}#my-svg .edge-thickness-invisible{stroke-width:0;fill:none;}#my-svg .edge-pattern-dashed{stroke-dasharray:3;}#my-svg .edge-pattern-dotted{stroke-dasharray:2;}#my-svg .marker{fill:#7A8794;stroke:#7A8794;}#my-svg .marker.cross{stroke:#7A8794;}#my-svg svg{font-size:16px;}#my-svg p{margin:0;}#my-svg g.classGroup text{fill:#5B8DEF;stroke:none;font-size:10px;}#my-svg g.classGroup text .title{font-weight:bolder;}#my-svg .cluster-label text{fill:#102033;}#my-svg .cluster-label span{color:#102033;}#my-svg .cluster-label span p{background-color:transparent;}#my-svg .cluster rect{fill:#F8FAFC;stroke:#CBD5E1;stroke-width:1px;}#my-svg .cluster text{fill:#102033;}#my-svg .cluster span{color:#102033;}#my-svg .nodeLabel,#my-svg .edgeLabel{color:#102033;}#my-svg .noteLabel .nodeLabel,#my-svg .noteLabel .edgeLabel{color:#102033;}#my-svg .edgeLabel .label rect{fill:#E8F3FF;}#my-svg .label text{fill:#102033;}#my-svg .labelBkg{background:#E8F3FF;}#my-svg .edgeLabel .label span{background:#E8F3FF;}#my-svg .classTitle{font-weight:bolder;}#my-svg .node rect,#my-svg .node circle,#my-svg .node ellipse,#my-svg .node polygon,#my-svg .node path{fill:#E8F3FF;stroke:#5B8DEF;stroke-width:1;}#my-svg .divider{stroke:#5B8DEF;stroke-width:1;}#my-svg g.clickable{cursor:pointer;}#my-svg g.classGroup rect{fill:#E8F3FF;stroke:#5B8DEF;}#my-svg g.classGroup line{stroke:#5B8DEF;stroke-width:1;}#my-svg .classLabel .box{stroke:none;stroke-width:0;fill:#E8F3FF;opacity:0.5;}#my-svg .classLabel .label{fill:#5B8DEF;font-size:10px;}#my-svg .relation{stroke:#7A8794;stroke-width:1;fill:none;}#my-svg .dashed-line{stroke-dasharray:3;}#my-svg .dotted-line{stroke-dasharray:1 2;}#my-svg [id$="-compositionStart"],#my-svg .composition{fill:#7A8794!important;stroke:#7A8794!important;stroke-width:1;}#my-svg [id$="-compositionEnd"],#my-svg .composition{fill:#7A8794!important;stroke:#7A8794!important;stroke-width:1;}#my-svg [id$="-dependencyStart"],#my-svg .dependency{fill:#7A8794!important;stroke:#7A8794!important;stroke-width:1;}#my-svg [id$="-dependencyEnd"],#my-svg .dependency{fill:#7A8794!important;stroke:#7A8794!important;stroke-width:1;}#my-svg [id$="-extensionStart"],#my-svg .extension{fill:transparent!important;stroke:#7A8794!important;stroke-width:1;}#my-svg [id$="-extensionEnd"],#my-svg .extension{fill:transparent!important;stroke:#7A8794!important;stroke-width:1;}#my-svg [id$="-aggregationStart"],#my-svg .aggregation{fill:transparent!important;stroke:#7A8794!important;stroke-width:1;}#my-svg [id$="-aggregationEnd"],#my-svg .aggregation{fill:transparent!important;stroke:#7A8794!important;stroke-width:1;}#my-svg [id$="-lollipopStart"],#my-svg .lollipop{fill:#E8F3FF!important;stroke:#7A8794!important;stroke-width:1;}#my-svg [id$="-lollipopEnd"],#my-svg .lollipop{fill:#E8F3FF!important;stroke:#7A8794!important;stroke-width:1;}#my-svg .edgeTerminals{font-size:11px;line-height:initial;}#my-svg .classTitleText{text-anchor:middle;font-size:18px;fill:#102033;}#my-svg .edgeLabel[data-look="neo"]{background-color:#FFFFFF;text-align:center;}#my-svg .edgeLabel[data-look="neo"] p{background-color:#FFFFFF;}#my-svg .edgeLabel[data-look="neo"] rect{opacity:0.5;background-color:#FFFFFF;fill:#FFFFFF;}#my-svg .label-icon{display:inline-block;height:1em;overflow:visible;vertical-align:-0.125em;}#my-svg .node .label-icon path{fill:currentColor;stroke:revert;stroke-width:revert;}#my-svg .node .neo-node{stroke:#5B8DEF;}#my-svg [data-look="neo"].node rect,#my-svg [data-look="neo"].cluster rect,#my-svg [data-look="neo"].node polygon{stroke:url(#my-svg-gradient);filter:drop-shadow( 1px 2px 2px rgba(185,185,185,1));}#my-svg [data-look="neo"].node path{stroke:url(#my-svg-gradient);stroke-width:1px;}#my-svg [data-look="neo"].node .outer-path{filter:drop-shadow( 1px 2px 2px rgba(185,185,185,1));}#my-svg [data-look="neo"].node .neo-line path{stroke:#5B8DEF;filter:none;}#my-svg [data-look="neo"].node circle{stroke:url(#my-svg-gradient);filter:drop-shadow( 1px 2px 2px rgba(185,185,185,1));}#my-svg [data-look="neo"].node circle .state-start{fill:#000000;}#my-svg [data-look="neo"].icon-shape .icon{fill:url(#my-svg-gradient);filter:drop-shadow( 1px 2px 2px rgba(185,185,185,1));}#my-svg [data-look="neo"].icon-shape .icon-neo path{stroke:url(#my-svg-gradient);filter:drop-shadow( 1px 2px 2px rgba(185,185,185,1));}#my-svg :root{--mermaid-font-family:"trebuchet ms",verdana,arial,sans-serif;}#my-svg .SuspendLeaderElector&gt;*{fill:rgb(253, 236, 239)!important;stroke:rgb(217, 112, 131)!important;color:rgb(16, 32, 51)!important;stroke-width:1.5px!important;}#my-svg .SuspendLeaderElector span{fill:rgb(253, 236, 239)!important;stroke:rgb(217, 112, 131)!important;color:rgb(16, 32, 51)!important;stroke-width:1.5px!important;}#my-svg .SuspendLeaderGroupElector&gt;*{fill:rgb(238, 242, 247)!important;stroke:rgb(138, 151, 168)!important;color:rgb(16, 32, 51)!important;stroke-width:1.5px!important;}#my-svg .SuspendLeaderGroupElector span{fill:rgb(238, 242, 247)!important;stroke:rgb(138, 151, 168)!important;color:rgb(16, 32, 51)!important;stroke-width:1.5px!important;}#my-svg .ExposedR2dbcLock&gt;*{fill:rgb(255, 243, 217)!important;stroke:rgb(214, 164, 65)!important;color:rgb(16, 32, 51)!important;stroke-width:1.5px!important;}#my-svg .ExposedR2dbcLock span{fill:rgb(255, 243, 217)!important;stroke:rgb(214, 164, 65)!important;color:rgb(16, 32, 51)!important;stroke-width:1.5px!important;}#my-svg .ExposedR2dbcGroupLock&gt;*{fill:rgb(255, 243, 217)!important;stroke:rgb(214, 164, 65)!important;color:rgb(16, 32, 51)!important;stroke-width:1.5px!important;}#my-svg .ExposedR2dbcGroupLock span{fill:rgb(255, 243, 217)!important;stroke:rgb(214, 164, 65)!important;color:rgb(16, 32, 51)!important;stroke-width:1.5px!important;}#my-svg .ExposedR2dbcSchemaInitializer&gt;*{fill:rgb(255, 243, 217)!important;stroke:rgb(214, 164, 65)!important;color:rgb(16, 32, 51)!important;stroke-width:1.5px!important;}#my-svg .ExposedR2dbcSchemaInitializer span{fill:rgb(255, 243, 217)!important;stroke:rgb(214, 164, 65)!important;color:rgb(16, 32, 51)!important;stroke-width:1.5px!important;}</style><g><defs><marker id="my-svg_class-aggregationStart" class="marker aggregation class" refX="18" refY="7" markerWidth="190" markerHeight="240" orient="auto"><path d="M 18,7 L9,13 L1,7 L9,1 Z"/></marker></defs><defs><marker id="my-svg_class-aggregationEnd" class="marker aggregation class" refX="1" refY="7" markerWidth="20" markerHeight="28" orient="auto"><path d="M 18,7 L9,13 L1,7 L9,1 Z"/></marker></defs><defs><marker id="my-svg_class-aggregationStart-margin" class="marker aggregation class" refX="15" refY="7" markerWidth="190" markerHeight="240" orient="auto" markerUnits="userSpaceOnUse"><path d="M 18,7 L9,13 L1,7 L9,1 Z" style="stroke-width: 2;"/></marker></defs><defs><marker id="my-svg_class-aggregationEnd-margin" class="marker aggregation class" refX="1" refY="7" markerWidth="20" markerHeight="28" orient="auto" markerUnits="userSpaceOnUse"><path d="M 18,7 L9,13 L1,7 L9,1 Z" style="stroke-width: 2;"/></marker></defs><defs><marker id="my-svg_class-extensionStart" class="marker extension class" refX="18" refY="7" markerWidth="20" markerHeight="28" orient="auto" markerUnits="userSpaceOnUse"><path d="M 1,7 L18,13 V 1 Z"/></marker></defs><defs><marker id="my-svg_class-extensionEnd" class="marker extension class" refX="1" refY="7" markerWidth="20" markerHeight="28" orient="auto"><path d="M 1,1 V 13 L18,7 Z"/></marker></defs><marker id="my-svg_class-extensionStart-margin" class="marker extension class" refX="18" refY="7" markerWidth="20" markerHeight="28" orient="auto" markerUnits="userSpaceOnUse" viewBox="0 0 20 14"><polygon points="10,7 18,13 18,1" style="stroke-width: 2; stroke-dasharray: 0;"/></marker><defs><marker id="my-svg_class-extensionEnd-margin" class="marker extension class" refX="9" refY="7" markerWidth="20" markerHeight="28" orient="auto" markerUnits="userSpaceOnUse" viewBox="0 0 20 14"><polygon points="10,1 10,13 18,7" style="stroke-width: 2; stroke-dasharray: 0;"/></marker></defs><defs><marker id="my-svg_class-compositionStart" class="marker composition class" refX="18" refY="7" markerWidth="190" markerHeight="240" orient="auto"><path d="M 18,7 L9,13 L1,7 L9,1 Z"/></marker></defs><defs><marker id="my-svg_class-compositionEnd" class="marker composition class" refX="1" refY="7" markerWidth="20" markerHeight="28" orient="auto"><path d="M 18,7 L9,13 L1,7 L9,1 Z"/></marker></defs><defs><marker id="my-svg_class-compositionStart-margin" class="marker composition class" refX="15" refY="7" markerWidth="190" markerHeight="240" orient="auto" markerUnits="userSpaceOnUse"><path viewBox="0 0 15 15" d="M 18,7 L9,13 L1,7 L9,1 Z" style="stroke-width: 0;"/></marker></defs><defs><marker id="my-svg_class-compositionEnd-margin" class="marker composition class" refX="3.5" refY="7" markerWidth="20" markerHeight="28" orient="auto" markerUnits="userSpaceOnUse"><path d="M 18,7 L9,13 L1,7 L9,1 Z" style="stroke-width: 0;"/></marker></defs><defs><marker id="my-svg_class-dependencyStart" class="marker dependency class" refX="6" refY="7" markerWidth="190" markerHeight="240" orient="auto"><path d="M 5,7 L9,13 L1,7 L9,1 Z"/></marker></defs><defs><marker id="my-svg_class-dependencyEnd" class="marker dependency class" refX="13" refY="7" markerWidth="20" markerHeight="28" orient="auto"><path d="M 18,7 L9,13 L14,7 L9,1 Z"/></marker></defs><defs><marker id="my-svg_class-dependencyStart-margin" class="marker dependency class" refX="4" refY="7" markerWidth="190" markerHeight="240" orient="auto" markerUnits="userSpaceOnUse"><path d="M 5,7 L9,13 L1,7 L9,1 Z" style="stroke-width: 0;"/></marker></defs><defs><marker id="my-svg_class-dependencyEnd-margin" class="marker dependency class" refX="16" refY="7" markerWidth="20" markerHeight="28" orient="auto" markerUnits="userSpaceOnUse"><path d="M 18,7 L9,13 L14,7 L9,1 Z" style="stroke-width: 0;"/></marker></defs><defs><marker id="my-svg_class-lollipopStart" class="marker lollipop class" refX="13" refY="7" markerWidth="190" markerHeight="240" orient="auto"><circle fill="transparent" cx="7" cy="7" r="6"/></marker></defs><defs><marker id="my-svg_class-lollipopEnd" class="marker lollipop class" refX="1" refY="7" markerWidth="190" markerHeight="240" orient="auto"><circle fill="transparent" cx="7" cy="7" r="6"/></marker></defs><defs><marker id="my-svg_class-lollipopStart-margin" class="marker lollipop class" refX="13" refY="7" markerWidth="190" markerHeight="240" orient="auto" markerUnits="userSpaceOnUse"><circle fill="transparent" cx="7" cy="7" r="6" stroke-width="2"/></marker></defs><defs><marker id="my-svg_class-lollipopEnd-margin" class="marker lollipop class" refX="1" refY="7" markerWidth="190" markerHeight="240" orient="auto" markerUnits="userSpaceOnUse"><circle fill="transparent" cx="7" cy="7" r="6" stroke-width="2"/></marker></defs><g class="root"><g class="clusters"/><g class="edgePaths"><path d="M470.164,73.364L423.672,80.637C377.18,87.909,284.195,102.455,237.703,115.019C191.211,127.583,191.211,138.167,191.211,143.458L191.211,148.75" id="my-svg-id_ExposedR2dbcSuspendLeaderElector_SuspendLeaderElector_1" class="edge-thickness-normal edge-pattern-dashed relation" style=";;;" data-edge="true" data-et="edge" data-id="id_ExposedR2dbcSuspendLeaderElector_SuspendLeaderElector_1" data-points="W3sieCI6NDcwLjE2NDA2MjUsInkiOjczLjM2Mzk2NDY4Njk5ODR9LHsieCI6MTkxLjIxMDkzNzUsInkiOjExN30seyJ4IjoxOTEuMjEwOTM3NSwieSI6MTY2fV0=" data-look="classic" marker-end="url(#my-svg_class-extensionEnd)"/><path d="M1398.625,92L1398.625,96.167C1398.625,100.333,1398.625,108.667,1398.625,114.125C1398.625,119.583,1398.625,122.167,1398.625,123.458L1398.625,124.75" id="my-svg-id_ExposedR2dbcSuspendLeaderGroupElector_SuspendLeaderGroupElector_2" class="edge-thickness-normal edge-pattern-dashed relation" style=";;;" data-edge="true" data-et="edge" data-id="id_ExposedR2dbcSuspendLeaderGroupElector_SuspendLeaderGroupElector_2" data-points="W3sieCI6MTM5OC42MjUsInkiOjkyfSx7IngiOjEzOTguNjI1LCJ5IjoxMTd9LHsieCI6MTM5OC42MjUsInkiOjE0Mn1d" data-look="classic" marker-end="url(#my-svg_class-extensionEnd)"/><path d="M619.523,92L619.523,96.167C619.523,100.333,619.523,108.667,619.523,118C619.523,127.333,619.523,137.667,619.523,142.833L619.523,148" id="my-svg-id_ExposedR2dbcSuspendLeaderElector_ExposedR2dbcLock_3" class="edge-thickness-normal edge-pattern-solid relation" style=";;;" data-edge="true" data-et="edge" data-id="id_ExposedR2dbcSuspendLeaderElector_ExposedR2dbcLock_3" data-points="W3sieCI6NjE5LjUyMzQzNzUsInkiOjkyfSx7IngiOjYxOS41MjM0Mzc1LCJ5IjoxMTd9LHsieCI6NjE5LjUyMzQzNzUsInkiOjE1NH1d" data-look="classic" marker-end="url(#my-svg_class-dependencyEnd)"/><path d="M1570.688,75.2L1618.254,82.167C1665.82,89.134,1760.953,103.067,1808.52,115.2C1856.086,127.333,1856.086,137.667,1856.086,142.833L1856.086,148" id="my-svg-id_ExposedR2dbcSuspendLeaderGroupElector_ExposedR2dbcGroupLock_4" class="edge-thickness-normal edge-pattern-solid relation" style=";;;" data-edge="true" data-et="edge" data-id="id_ExposedR2dbcSuspendLeaderGroupElector_ExposedR2dbcGroupLock_4" data-points="W3sieCI6MTU3MC42ODc1LCJ5Ijo3NS4yMDAzNzU3MTUxMzk2MX0seyJ4IjoxODU2LjA4NTkzNzUsInkiOjExN30seyJ4IjoxODU2LjA4NTkzNzUsInkiOjE1NH1d" data-look="classic" marker-end="url(#my-svg_class-dependencyEnd)"/><path d="M746.964,92L759.607,96.167C772.25,100.333,797.536,108.667,821.423,120.44C845.31,132.213,867.798,147.425,879.041,155.032L890.285,162.638" id="my-svg-id_ExposedR2dbcSuspendLeaderElector_ExposedR2dbcSchemaInitializer_5" class="edge-thickness-normal edge-pattern-solid relation" style=";;;" data-edge="true" data-et="edge" data-id="id_ExposedR2dbcSuspendLeaderElector_ExposedR2dbcSchemaInitializer_5" data-points="W3sieCI6NzQ2Ljk2NDQ5MzkzNjU2NzEsInkiOjkyfSx7IngiOjgyMi44MjIyNjU2MjUsInkiOjExN30seyJ4Ijo4OTUuMjU0ODY3MDYxNDkyLCJ5IjoxNjZ9XQ==" data-look="classic" marker-end="url(#my-svg_class-dependencyEnd)"/><path d="M1269.333,92L1256.506,96.167C1243.68,100.333,1218.026,108.667,1193.765,120.446C1169.505,132.225,1146.636,147.45,1135.202,155.062L1123.768,162.675" id="my-svg-id_ExposedR2dbcSuspendLeaderGroupElector_ExposedR2dbcSchemaInitializer_6" class="edge-thickness-normal edge-pattern-solid relation" style=";;;" data-edge="true" data-et="edge" data-id="id_ExposedR2dbcSuspendLeaderGroupElector_ExposedR2dbcSchemaInitializer_6" data-points="W3sieCI6MTI2OS4zMzI3MzA4NzY4NjU4LCJ5Ijo5Mn0seyJ4IjoxMTkyLjM3MzA0Njg3NSwieSI6MTE3fSx7IngiOjExMTguNzczNDg0NzUzMDI0MSwieSI6MTY2fV0=" data-look="classic" marker-end="url(#my-svg_class-dependencyEnd)"/></g><g class="edgeLabels"><g class="edgeLabel"><g class="label" data-id="id_ExposedR2dbcSuspendLeaderElector_SuspendLeaderElector_1" transform="translate(0, 0)"><foreignObject width="0" height="0"><div xmlns="http://www.w3.org/1999/xhtml" class="labelBkg" style="display: table-cell; white-space: nowrap; line-height: 1.5; max-width: 200px; text-align: center;"><span class="edgeLabel"></span></div></foreignObject></g></g><g class="edgeLabel"><g class="label" data-id="id_ExposedR2dbcSuspendLeaderGroupElector_SuspendLeaderGroupElector_2" transform="translate(0, 0)"><foreignObject width="0" height="0"><div xmlns="http://www.w3.org/1999/xhtml" class="labelBkg" style="display: table-cell; white-space: nowrap; line-height: 1.5; max-width: 200px; text-align: center;"><span class="edgeLabel"></span></div></foreignObject></g></g><g class="edgeLabel"><g class="label" data-id="id_ExposedR2dbcSuspendLeaderElector_ExposedR2dbcLock_3" transform="translate(0, 0)"><foreignObject width="0" height="0"><div xmlns="http://www.w3.org/1999/xhtml" class="labelBkg" style="display: table-cell; white-space: nowrap; line-height: 1.5; max-width: 200px; text-align: center;"><span class="edgeLabel"></span></div></foreignObject></g></g><g class="edgeLabel"><g class="label" data-id="id_ExposedR2dbcSuspendLeaderGroupElector_ExposedR2dbcGroupLock_4" transform="translate(0, 0)"><foreignObject width="0" height="0"><div xmlns="http://www.w3.org/1999/xhtml" class="labelBkg" style="display: table-cell; white-space: nowrap; line-height: 1.5; max-width: 200px; text-align: center;"><span class="edgeLabel"></span></div></foreignObject></g></g><g class="edgeLabel"><g class="label" data-id="id_ExposedR2dbcSuspendLeaderElector_ExposedR2dbcSchemaInitializer_5" transform="translate(0, 0)"><foreignObject width="0" height="0"><div xmlns="http://www.w3.org/1999/xhtml" class="labelBkg" style="display: table-cell; white-space: nowrap; line-height: 1.5; max-width: 200px; text-align: center;"><span class="edgeLabel"></span></div></foreignObject></g></g><g class="edgeLabel"><g class="label" data-id="id_ExposedR2dbcSuspendLeaderGroupElector_ExposedR2dbcSchemaInitializer_6" transform="translate(0, 0)"><foreignObject width="0" height="0"><div xmlns="http://www.w3.org/1999/xhtml" class="labelBkg" style="display: table-cell; white-space: nowrap; line-height: 1.5; max-width: 200px; text-align: center;"><span class="edgeLabel"></span></div></foreignObject></g></g></g><g class="nodes"><g class="node default" id="my-svg-classId-SuspendLeaderElector-0" data-look="classic" transform="translate(191.2109375, 241)"><g class="basic label-container outer-path"><path d="M-183.2109375 -75 L183.2109375 -75 L183.2109375 75 L-183.2109375 75" stroke="none" stroke-width="0" fill="#FDECEF" style="fill:#FDECEF;stroke:#D97083;color:#102033;stroke-width:1.5px"/><path d="M-183.2109375 -75 C-88.50426751325706 -75, 6.202402473485876 -75, 183.2109375 -75 M-183.2109375 -75 C-86.86191113319005 -75, 9.487115233619903 -75, 183.2109375 -75 M183.2109375 -75 C183.2109375 -23.0469884445236, 183.2109375 28.906023110952802, 183.2109375 75 M183.2109375 -75 C183.2109375 -26.465855414687965, 183.2109375 22.06828917062407, 183.2109375 75 M183.2109375 75 C82.63978949741237 75, -17.931358505175268 75, -183.2109375 75 M183.2109375 75 C38.31394761036552 75, -106.58304227926897 75, -183.2109375 75 M-183.2109375 75 C-183.2109375 28.76365752496295, -183.2109375 -17.472684950074097, -183.2109375 -75 M-183.2109375 75 C-183.2109375 32.601334489302275, -183.2109375 -9.79733102139545, -183.2109375 -75" stroke="#D97083" stroke-width="1.5" fill="none" stroke-dasharray="0 0" style="fill:#FDECEF;stroke:#D97083;color:#102033;stroke-width:1.5px"/></g><g class="annotation-group text" transform="translate(-41.171875, -51)"><g class="label" style="" transform="translate(0,-12)"><foreignObject width="82.34375" height="24"><div xmlns="http://www.w3.org/1999/xhtml" style="display: table-cell; white-space: nowrap; line-height: 1.5; max-width: 122px; text-align: center;"><span class="nodeLabel markdown-node-label" style="fill:#FDECEF;stroke:#D97083;color:#102033;stroke-width:1.5px"><p>«interface»</p></span></div></foreignObject></g></g><g class="label-group text" transform="translate(-83.546875, -27)"><g class="label" style="font-weight: bolder" transform="translate(0,-12)"><foreignObject width="167.09375" height="24"><div xmlns="http://www.w3.org/1999/xhtml" style="display: table-cell; white-space: nowrap; line-height: 1.5; max-width: 195px; text-align: center;"><span class="nodeLabel markdown-node-label" style="fill:#FDECEF;stroke:#D97083;color:#102033;stroke-width:1.5px"><p>SuspendLeaderElector</p></span></div></foreignObject></g></g><g class="members-group text" transform="translate(-171.2109375, 21)"/><g class="methods-group text" transform="translate(-171.2109375, 51)"><g class="label" style="" transform="translate(0,-12)"><foreignObject width="258.875" height="24"><div xmlns="http://www.w3.org/1999/xhtml" style="display: table-cell; white-space: nowrap; line-height: 1.5; max-width: 292px; text-align: center;"><span class="nodeLabel markdown-node-label" style="fill:#FDECEF;stroke:#D97083;color:#102033;stroke-width:1.5px"><p>+runIfLeader(lockName, action) : T?</p></span></div></foreignObject></g></g><g class="divider" style="fill:#FDECEF;stroke:#D97083;color:#102033;stroke-width:1.5px"><path d="M-183.2109375 -3 C-74.3743847810097 -2.9997029747399253, 34.46216793798061 -2.99940594947985, 183.2109375 -2.999 M-183.2109375 -3 C-53.887242077161886 -2.999647063387188, 75.43645334567623 -2.9992941267743753, 183.2109375 -2.999" stroke="#D97083" stroke-width="1.5" fill="none" stroke-dasharray="0 0" style="fill:#FDECEF;stroke:#D97083;color:#102033;stroke-width:1.5px"/></g><g class="divider" style="fill:#FDECEF;stroke:#D97083;color:#102033;stroke-width:1.5px"><path d="M-183.2109375 21 C-44.22423075912002 21.000379307885865, 94.76247598175996 21.00075861577173, 183.2109375 21.001 M-183.2109375 21 C-76.18803425292253 21.0002920756389, 30.83486899415493 21.0005841512778, 183.2109375 21.001" stroke="#D97083" stroke-width="1.5" fill="none" stroke-dasharray="0 0" style="fill:#FDECEF;stroke:#D97083;color:#102033;stroke-width:1.5px"/></g></g><g class="node default" id="my-svg-classId-SuspendLeaderGroupElector-1" data-look="classic" transform="translate(1398.625, 241)"><g class="basic label-container outer-path"><path d="M-201.0078125 -99 L201.0078125 -99 L201.0078125 99 L-201.0078125 99" stroke="none" stroke-width="0" fill="#EEF2F7" style="fill:#EEF2F7;stroke:#8A97A8;color:#102033;stroke-width:1.5px"/><path d="M-201.0078125 -99 C-56.93363707338452 -99, 87.14053835323097 -99, 201.0078125 -99 M-201.0078125 -99 C-118.01869712581568 -99, -35.029581751631355 -99, 201.0078125 -99 M201.0078125 -99 C201.0078125 -22.24986679569247, 201.0078125 54.50026640861506, 201.0078125 99 M201.0078125 -99 C201.0078125 -21.0947555827084, 201.0078125 56.8104888345832, 201.0078125 99 M201.0078125 99 C117.25269498741721 99, 33.49757747483443 99, -201.0078125 99 M201.0078125 99 C119.96420786717584 99, 38.92060323435169 99, -201.0078125 99 M-201.0078125 99 C-201.0078125 54.127299052055704, -201.0078125 9.254598104111409, -201.0078125 -99 M-201.0078125 99 C-201.0078125 41.1910829300652, -201.0078125 -16.6178341398696, -201.0078125 -99" stroke="#8A97A8" stroke-width="1.5" fill="none" stroke-dasharray="0 0" style="fill:#EEF2F7;stroke:#8A97A8;color:#102033;stroke-width:1.5px"/></g><g class="annotation-group text" transform="translate(-41.171875, -75)"><g class="label" style="" transform="translate(0,-12)"><foreignObject width="82.34375" height="24"><div xmlns="http://www.w3.org/1999/xhtml" style="display: table-cell; white-space: nowrap; line-height: 1.5; max-width: 122px; text-align: center;"><span class="nodeLabel markdown-node-label" style="fill:#EEF2F7;stroke:#8A97A8;color:#102033;stroke-width:1.5px"><p>«interface»</p></span></div></foreignObject></g></g><g class="label-group text" transform="translate(-106.25, -51)"><g class="label" style="font-weight: bolder" transform="translate(0,-12)"><foreignObject width="212.5" height="24"><div xmlns="http://www.w3.org/1999/xhtml" style="display: table-cell; white-space: nowrap; line-height: 1.5; max-width: 236px; text-align: center;"><span class="nodeLabel markdown-node-label" style="fill:#EEF2F7;stroke:#8A97A8;color:#102033;stroke-width:1.5px"><p>SuspendLeaderGroupElector</p></span></div></foreignObject></g></g><g class="members-group text" transform="translate(-189.0078125, -3)"/><g class="methods-group text" transform="translate(-189.0078125, 27)"><g class="label" style="" transform="translate(0,-12)"><foreignObject width="258.875" height="24"><div xmlns="http://www.w3.org/1999/xhtml" style="display: table-cell; white-space: nowrap; line-height: 1.5; max-width: 292px; text-align: center;"><span class="nodeLabel markdown-node-label" style="fill:#EEF2F7;stroke:#8A97A8;color:#102033;stroke-width:1.5px"><p>+runIfLeader(lockName, action) : T?</p></span></div></foreignObject></g><g class="label" style="" transform="translate(0,12)"><foreignObject width="271.765625" height="24"><div xmlns="http://www.w3.org/1999/xhtml" style="display: table-cell; white-space: nowrap; line-height: 1.5; max-width: 299px; text-align: center;"><span class="nodeLabel markdown-node-label" style="fill:#EEF2F7;stroke:#8A97A8;color:#102033;stroke-width:1.5px"><p>+state(lockName) : LeaderGroupState</p></span></div></foreignObject></g><g class="label" style="" transform="translate(0,36)"><foreignObject width="269.109375" height="24"><div xmlns="http://www.w3.org/1999/xhtml" style="display: table-cell; white-space: nowrap; line-height: 1.5; max-width: 302px; text-align: center;"><span class="nodeLabel markdown-node-label" style="fill:#EEF2F7;stroke:#8A97A8;color:#102033;stroke-width:1.5px"><p>+activeCountSuspend(lockName) : Int</p></span></div></foreignObject></g></g><g class="divider" style="fill:#EEF2F7;stroke:#8A97A8;color:#102033;stroke-width:1.5px"><path d="M-201.0078125 -27 C-85.42486594222906 -26.999712491407372, 30.158080615541877 -26.999424982814745, 201.0078125 -26.999 M-201.0078125 -27 C-65.15015209089253 -26.999662058756027, 70.70750831821493 -26.999324117512053, 201.0078125 -26.999" stroke="#8A97A8" stroke-width="1.5" fill="none" stroke-dasharray="0 0" style="fill:#EEF2F7;stroke:#8A97A8;color:#102033;stroke-width:1.5px"/></g><g class="divider" style="fill:#EEF2F7;stroke:#8A97A8;color:#102033;stroke-width:1.5px"><path d="M-201.0078125 -3 C-78.9482431963655 -2.9996963810316983, 43.11132610726901 -2.9993927620633967, 201.0078125 -2.999 M-201.0078125 -3 C-91.73890188073595 -2.999728197353973, 17.530008738528096 -2.999456394707946, 201.0078125 -2.999" stroke="#8A97A8" stroke-width="1.5" fill="none" stroke-dasharray="0 0" style="fill:#EEF2F7;stroke:#8A97A8;color:#102033;stroke-width:1.5px"/></g></g><g class="node default" id="my-svg-classId-ExposedR2dbcLock-2" data-look="classic" transform="translate(619.5234375, 241)"><g class="basic label-container outer-path"><path d="M-195.1015625 -87 L195.1015625 -87 L195.1015625 87 L-195.1015625 87" stroke="none" stroke-width="0" fill="#FFF3D9" style="fill:#FFF3D9;stroke:#D6A441;color:#102033;stroke-width:1.5px"/><path d="M-195.1015625 -87 C-103.07103874098723 -87, -11.040514981974468 -87, 195.1015625 -87 M-195.1015625 -87 C-110.8768957010468 -87, -26.65222890209361 -87, 195.1015625 -87 M195.1015625 -87 C195.1015625 -22.566889111829568, 195.1015625 41.866221776340865, 195.1015625 87 M195.1015625 -87 C195.1015625 -49.03940242185947, 195.1015625 -11.078804843718942, 195.1015625 87 M195.1015625 87 C109.76518438492236 87, 24.428806269844728 87, -195.1015625 87 M195.1015625 87 C58.324299618003266 87, -78.45296326399347 87, -195.1015625 87 M-195.1015625 87 C-195.1015625 34.289656778881564, -195.1015625 -18.42068644223687, -195.1015625 -87 M-195.1015625 87 C-195.1015625 28.127055816208475, -195.1015625 -30.74588836758305, -195.1015625 -87" stroke="#D6A441" stroke-width="1.5" fill="none" stroke-dasharray="0 0" style="fill:#FFF3D9;stroke:#D6A441;color:#102033;stroke-width:1.5px"/></g><g class="annotation-group text" transform="translate(0, -63)"/><g class="label-group text" transform="translate(-71.234375, -63)"><g class="label" style="font-weight: bolder" transform="translate(0,-12)"><foreignObject width="142.46875" height="24"><div xmlns="http://www.w3.org/1999/xhtml" style="display: table-cell; white-space: nowrap; line-height: 1.5; max-width: 180px; text-align: center;"><span class="nodeLabel markdown-node-label" style="fill:#FFF3D9;stroke:#D6A441;color:#102033;stroke-width:1.5px"><p>ExposedR2dbcLock</p></span></div></foreignObject></g></g><g class="members-group text" transform="translate(-183.1015625, -15)"/><g class="methods-group text" transform="translate(-183.1015625, 15)"><g class="label" style="" transform="translate(0,-12)"><foreignObject width="294.96875" height="24"><div xmlns="http://www.w3.org/1999/xhtml" style="display: table-cell; white-space: nowrap; line-height: 1.5; max-width: 324px; text-align: center;"><span class="nodeLabel markdown-node-label" style="fill:#FFF3D9;stroke:#D6A441;color:#102033;stroke-width:1.5px"><p>+tryLock(waitTime, leaseTime) : Boolean</p></span></div></foreignObject></g><g class="label" style="" transform="translate(0,12)"><foreignObject width="66.921875" height="24"><div xmlns="http://www.w3.org/1999/xhtml" style="display: table-cell; white-space: nowrap; line-height: 1.5; max-width: 118px; text-align: center;"><span class="nodeLabel markdown-node-label" style="fill:#FFF3D9;stroke:#D6A441;color:#102033;stroke-width:1.5px"><p>+unlock()</p></span></div></foreignObject></g><g class="label" style="" transform="translate(0,36)"><foreignObject width="267.671875" height="24"><div xmlns="http://www.w3.org/1999/xhtml" style="display: table-cell; white-space: nowrap; line-height: 1.5; max-width: 303px; text-align: center;"><span class="nodeLabel markdown-node-label" style="fill:#FFF3D9;stroke:#D6A441;color:#102033;stroke-width:1.5px"><p>+isHeldByCurrentInstance() : Boolean</p></span></div></foreignObject></g></g><g class="divider" style="fill:#FFF3D9;stroke:#D6A441;color:#102033;stroke-width:1.5px"><path d="M-195.1015625 -39 C-68.03089845686404 -38.999674347395235, 59.039765586271926 -38.99934869479048, 195.1015625 -38.999 M-195.1015625 -39 C-87.13792156154732 -38.999723314258596, 20.82571937690537 -38.9994466285172, 195.1015625 -38.999" stroke="#D6A441" stroke-width="1.5" fill="none" stroke-dasharray="0 0" style="fill:#FFF3D9;stroke:#D6A441;color:#102033;stroke-width:1.5px"/></g><g class="divider" style="fill:#FFF3D9;stroke:#D6A441;color:#102033;stroke-width:1.5px"><path d="M-195.1015625 -15 C-87.47838240520639 -14.99972418678068, 20.14479768958722 -14.99944837356136, 195.1015625 -14.999 M-195.1015625 -15 C-78.68687152124896 -14.999701656179768, 37.72781945750208 -14.999403312359538, 195.1015625 -14.999" stroke="#D6A441" stroke-width="1.5" fill="none" stroke-dasharray="0 0" style="fill:#FFF3D9;stroke:#D6A441;color:#102033;stroke-width:1.5px"/></g></g><g class="node default" id="my-svg-classId-ExposedR2dbcGroupLock-3" data-look="classic" transform="translate(1856.0859375, 241)"><g class="basic label-container outer-path"><path d="M-206.453125 -87 L206.453125 -87 L206.453125 87 L-206.453125 87" stroke="none" stroke-width="0" fill="#FFF3D9" style="fill:#FFF3D9;stroke:#D6A441;color:#102033;stroke-width:1.5px"/><path d="M-206.453125 -87 C-119.87082113685443 -87, -33.28851727370886 -87, 206.453125 -87 M-206.453125 -87 C-65.0861019105835 -87, 76.28092117883301 -87, 206.453125 -87 M206.453125 -87 C206.453125 -47.25528884327024, 206.453125 -7.510577686540486, 206.453125 87 M206.453125 -87 C206.453125 -50.03091851172559, 206.453125 -13.061837023451176, 206.453125 87 M206.453125 87 C79.63637815413514 87, -47.18036869172971 87, -206.453125 87 M206.453125 87 C103.3162321275004 87, 0.17933925500079795 87, -206.453125 87 M-206.453125 87 C-206.453125 21.629142827183983, -206.453125 -43.74171434563203, -206.453125 -87 M-206.453125 87 C-206.453125 24.433486364554206, -206.453125 -38.13302727089159, -206.453125 -87" stroke="#D6A441" stroke-width="1.5" fill="none" stroke-dasharray="0 0" style="fill:#FFF3D9;stroke:#D6A441;color:#102033;stroke-width:1.5px"/></g><g class="annotation-group text" transform="translate(0, -63)"/><g class="label-group text" transform="translate(-93.9375, -63)"><g class="label" style="font-weight: bolder" transform="translate(0,-12)"><foreignObject width="187.875" height="24"><div xmlns="http://www.w3.org/1999/xhtml" style="display: table-cell; white-space: nowrap; line-height: 1.5; max-width: 221px; text-align: center;"><span class="nodeLabel markdown-node-label" style="fill:#FFF3D9;stroke:#D6A441;color:#102033;stroke-width:1.5px"><p>ExposedR2dbcGroupLock</p></span></div></foreignObject></g></g><g class="members-group text" transform="translate(-194.453125, -15)"/><g class="methods-group text" transform="translate(-194.453125, 15)"><g class="label" style="" transform="translate(0,-12)"><foreignObject width="294.96875" height="24"><div xmlns="http://www.w3.org/1999/xhtml" style="display: table-cell; white-space: nowrap; line-height: 1.5; max-width: 324px; text-align: center;"><span class="nodeLabel markdown-node-label" style="fill:#FFF3D9;stroke:#D6A441;color:#102033;stroke-width:1.5px"><p>+tryLock(waitTime, leaseTime) : Boolean</p></span></div></foreignObject></g><g class="label" style="" transform="translate(0,12)"><foreignObject width="66.921875" height="24"><div xmlns="http://www.w3.org/1999/xhtml" style="display: table-cell; white-space: nowrap; line-height: 1.5; max-width: 118px; text-align: center;"><span class="nodeLabel markdown-node-label" style="fill:#FFF3D9;stroke:#D6A441;color:#102033;stroke-width:1.5px"><p>+unlock()</p></span></div></foreignObject></g><g class="label" style="" transform="translate(0,36)"><foreignObject width="267.671875" height="24"><div xmlns="http://www.w3.org/1999/xhtml" style="display: table-cell; white-space: nowrap; line-height: 1.5; max-width: 303px; text-align: center;"><span class="nodeLabel markdown-node-label" style="fill:#FFF3D9;stroke:#D6A441;color:#102033;stroke-width:1.5px"><p>+isHeldByCurrentInstance() : Boolean</p></span></div></foreignObject></g></g><g class="divider" style="fill:#FFF3D9;stroke:#D6A441;color:#102033;stroke-width:1.5px"><path d="M-206.453125 -39 C-78.25470277835788 -38.99968952172019, 49.94371944328424 -38.999379043440385, 206.453125 -38.999 M-206.453125 -39 C-48.00118867800475 -38.99961625202737, 110.4507476439905 -38.99923250405475, 206.453125 -38.999" stroke="#D6A441" stroke-width="1.5" fill="none" stroke-dasharray="0 0" style="fill:#FFF3D9;stroke:#D6A441;color:#102033;stroke-width:1.5px"/></g><g class="divider" style="fill:#FFF3D9;stroke:#D6A441;color:#102033;stroke-width:1.5px"><path d="M-206.453125 -15 C-122.57885158483506 -14.999796868481852, -38.70457816967013 -14.999593736963705, 206.453125 -14.999 M-206.453125 -15 C-62.92298184751891 -14.99965239048052, 80.60716130496218 -14.999304780961042, 206.453125 -14.999" stroke="#D6A441" stroke-width="1.5" fill="none" stroke-dasharray="0 0" style="fill:#FFF3D9;stroke:#D6A441;color:#102033;stroke-width:1.5px"/></g></g><g class="node default" id="my-svg-classId-ExposedR2dbcSchemaInitializer-4" data-look="classic" transform="translate(1006.12109375, 241)"><g class="basic label-container outer-path"><path d="M-141.49609375 -75 L141.49609375 -75 L141.49609375 75 L-141.49609375 75" stroke="none" stroke-width="0" fill="#FFF3D9" style="fill:#FFF3D9;stroke:#D6A441;color:#102033;stroke-width:1.5px"/><path d="M-141.49609375 -75 C-32.19579908833481 -75, 77.10449557333038 -75, 141.49609375 -75 M-141.49609375 -75 C-32.43202797316772 -75, 76.63203780366456 -75, 141.49609375 -75 M141.49609375 -75 C141.49609375 -29.82900357676524, 141.49609375 15.341992846469523, 141.49609375 75 M141.49609375 -75 C141.49609375 -16.066210788198553, 141.49609375 42.86757842360289, 141.49609375 75 M141.49609375 75 C53.90653574040515 75, -33.683022269189706 75, -141.49609375 75 M141.49609375 75 C49.59618037662136 75, -42.303732996757276 75, -141.49609375 75 M-141.49609375 75 C-141.49609375 27.712521456824533, -141.49609375 -19.574957086350935, -141.49609375 -75 M-141.49609375 75 C-141.49609375 18.777276450895755, -141.49609375 -37.44544709820849, -141.49609375 -75" stroke="#D6A441" stroke-width="1.5" fill="none" stroke-dasharray="0 0" style="fill:#FFF3D9;stroke:#D6A441;color:#102033;stroke-width:1.5px"/></g><g class="annotation-group text" transform="translate(0, -51)"/><g class="label-group text" transform="translate(-118.6171875, -51)"><g class="label" style="font-weight: bolder" transform="translate(0,-12)"><foreignObject width="237.234375" height="24"><div xmlns="http://www.w3.org/1999/xhtml" style="display: table-cell; white-space: nowrap; line-height: 1.5; max-width: 260px; text-align: center;"><span class="nodeLabel markdown-node-label" style="fill:#FFF3D9;stroke:#D6A441;color:#102033;stroke-width:1.5px"><p>ExposedR2dbcSchemaInitializer</p></span></div></foreignObject></g></g><g class="members-group text" transform="translate(-129.49609375, -3)"/><g class="methods-group text" transform="translate(-129.49609375, 27)"><g class="label" style="" transform="translate(0,-12)"><foreignObject width="140.375" height="24"><div xmlns="http://www.w3.org/1999/xhtml" style="display: table-cell; white-space: nowrap; line-height: 1.5; max-width: 183px; text-align: center;"><span class="nodeLabel markdown-node-label" style="fill:#FFF3D9;stroke:#D6A441;color:#102033;stroke-width:1.5px"><p>+ensureSchema(db)</p></span></div></foreignObject></g><g class="label" style="" transform="translate(0,12)"><foreignObject width="97.671875" height="24"><div xmlns="http://www.w3.org/1999/xhtml" style="display: table-cell; white-space: nowrap; line-height: 1.5; max-width: 143px; text-align: center;"><span class="nodeLabel markdown-node-label" style="fill:#FFF3D9;stroke:#D6A441;color:#102033;stroke-width:1.5px"><p>+resetFor(db)</p></span></div></foreignObject></g></g><g class="divider" style="fill:#FFF3D9;stroke:#D6A441;color:#102033;stroke-width:1.5px"><path d="M-141.49609375 -27 C-83.69529030400034 -26.99979575123979, -25.89448685800066 -26.99959150247958, 141.49609375 -26.999 M-141.49609375 -27 C-42.062463394422124 -26.99964863471591, 57.37116696115575 -26.999297269431825, 141.49609375 -26.999" stroke="#D6A441" stroke-width="1.5" fill="none" stroke-dasharray="0 0" style="fill:#FFF3D9;stroke:#D6A441;color:#102033;stroke-width:1.5px"/></g><g class="divider" style="fill:#FFF3D9;stroke:#D6A441;color:#102033;stroke-width:1.5px"><path d="M-141.49609375 -3 C-69.25786594321293 -2.9997447341976295, 2.9803618635741316 -2.999489468395259, 141.49609375 -2.999 M-141.49609375 -3 C-56.58160475974114 -2.9996999405187106, 28.33288423051772 -2.9993998810374207, 141.49609375 -2.999" stroke="#D6A441" stroke-width="1.5" fill="none" stroke-dasharray="0 0" style="fill:#FFF3D9;stroke:#D6A441;color:#102033;stroke-width:1.5px"/></g></g><g class="node default" id="my-svg-classId-ExposedR2dbcSuspendLeaderElector-5" data-look="classic" transform="translate(619.5234375, 50)"><g class="basic label-container outer-path"><path d="M-149.359375 -42 L149.359375 -42 L149.359375 42 L-149.359375 42" stroke="none" stroke-width="0" fill="#E8F3FF" style=""/><path d="M-149.359375 -42 C-77.2568778245635 -42, -5.154380649127006 -42, 149.359375 -42 M-149.359375 -42 C-43.87718256876734 -42, 61.60500986246532 -42, 149.359375 -42 M149.359375 -42 C149.359375 -23.126280500721204, 149.359375 -4.252561001442409, 149.359375 42 M149.359375 -42 C149.359375 -14.94572743349612, 149.359375 12.108545133007759, 149.359375 42 M149.359375 42 C50.93076317448012 42, -47.49784865103976 42, -149.359375 42 M149.359375 42 C80.37680032492578 42, 11.394225649851563 42, -149.359375 42 M-149.359375 42 C-149.359375 19.342126192289435, -149.359375 -3.315747615421131, -149.359375 -42 M-149.359375 42 C-149.359375 13.276791707430583, -149.359375 -15.446416585138834, -149.359375 -42" stroke="#5B8DEF" stroke-width="1.3" fill="none" stroke-dasharray="0 0" style=""/></g><g class="annotation-group text" transform="translate(0, -18)"/><g class="label-group text" transform="translate(-137.359375, -18)"><g class="label" style="font-weight: bolder" transform="translate(0,-12)"><foreignObject width="274.71875" height="24"><div xmlns="http://www.w3.org/1999/xhtml" style="display: table-cell; white-space: nowrap; line-height: 1.5; max-width: 292px; text-align: center;"><span class="nodeLabel markdown-node-label" style=""><p>ExposedR2dbcSuspendLeaderElector</p></span></div></foreignObject></g></g><g class="members-group text" transform="translate(-137.359375, 30)"/><g class="methods-group text" transform="translate(-137.359375, 60)"/><g class="divider" style=""><path d="M-149.359375 6 C-54.192811541293295 6.000318582490918, 40.97375191741341 6.000637164981835, 149.359375 6.001 M-149.359375 6 C-71.72260539982129 6.000259899218245, 5.914164200357419 6.000519798436491, 149.359375 6.001" stroke="#5B8DEF" stroke-width="1.3" fill="none" stroke-dasharray="0 0" style=""/></g><g class="divider" style=""><path d="M-149.359375 24 C-51.49411709494629 24.00032761672277, 46.37114081010742 24.000655233445542, 149.359375 24.001 M-149.359375 24 C-76.67037784246627 24.000243335904283, -3.9813806849325317 24.000486671808567, 149.359375 24.001" stroke="#5B8DEF" stroke-width="1.3" fill="none" stroke-dasharray="0 0" style=""/></g></g><g class="node default" id="my-svg-classId-ExposedR2dbcSuspendLeaderGroupElector-6" data-look="classic" transform="translate(1398.625, 50)"><g class="basic label-container outer-path"><path d="M-172.0625 -42 L172.0625 -42 L172.0625 42 L-172.0625 42" stroke="none" stroke-width="0" fill="#E8F3FF" style=""/><path d="M-172.0625 -42 C-61.30720609454298 -42, 49.448087810914046 -42, 172.0625 -42 M-172.0625 -42 C-45.843105696477366 -42, 80.37628860704527 -42, 172.0625 -42 M172.0625 -42 C172.0625 -14.217752754005769, 172.0625 13.564494491988462, 172.0625 42 M172.0625 -42 C172.0625 -19.237931843130134, 172.0625 3.5241363137397315, 172.0625 42 M172.0625 42 C79.8051504963735 42, -12.452199007253 42, -172.0625 42 M172.0625 42 C71.4705039579337 42, -29.121492084132598 42, -172.0625 42 M-172.0625 42 C-172.0625 22.529434873049542, -172.0625 3.0588697460990844, -172.0625 -42 M-172.0625 42 C-172.0625 23.37294108607755, -172.0625 4.745882172155099, -172.0625 -42" stroke="#5B8DEF" stroke-width="1.3" fill="none" stroke-dasharray="0 0" style=""/></g><g class="annotation-group text" transform="translate(0, -18)"/><g class="label-group text" transform="translate(-160.0625, -18)"><g class="label" style="font-weight: bolder" transform="translate(0,-12)"><foreignObject width="320.125" height="24"><div xmlns="http://www.w3.org/1999/xhtml" style="display: table-cell; white-space: nowrap; line-height: 1.5; max-width: 333px; text-align: center;"><span class="nodeLabel markdown-node-label" style=""><p>ExposedR2dbcSuspendLeaderGroupElector</p></span></div></foreignObject></g></g><g class="members-group text" transform="translate(-160.0625, 30)"/><g class="methods-group text" transform="translate(-160.0625, 60)"/><g class="divider" style=""><path d="M-172.0625 6 C-61.05346358523887 6.000322583469422, 49.955572829522254 6.000645166938844, 172.0625 6.001 M-172.0625 6 C-93.35939948757192 6.000228704977879, -14.65629897514384 6.000457409955757, 172.0625 6.001" stroke="#5B8DEF" stroke-width="1.3" fill="none" stroke-dasharray="0 0" style=""/></g><g class="divider" style=""><path d="M-172.0625 24 C-63.86367598609277 24.000314417214717, 44.335148027814455 24.00062883442943, 172.0625 24.001 M-172.0625 24 C-36.50919441205778 24.000393907172068, 99.04411117588444 24.000787814344136, 172.0625 24.001" stroke="#5B8DEF" stroke-width="1.3" fill="none" stroke-dasharray="0 0" style=""/></g></g></g></g></g><defs><filter id="my-svg-drop-shadow" height="130%" width="130%"><feDropShadow dx="4" dy="4" stdDeviation="0" flood-opacity="0.06" flood-color="#000000"/></filter></defs><defs><filter id="my-svg-drop-shadow-small" height="150%" width="150%"><feDropShadow dx="2" dy="2" stdDeviation="0" flood-opacity="0.06" flood-color="#000000"/></filter></defs><linearGradient id="my-svg-gradient" gradientUnits="objectBoundingBox" x1="0%" y1="0%" x2="100%" y2="0%"><stop offset="0%" stop-color="#5B8DEF" stop-opacity="1"/><stop offset="100%" stop-color="#58A978" stop-opacity="1"/></linearGradient></svg>