<?xml version="1.0" encoding="UTF-8" standalone="no"?>
<!DOCTYPE svg PUBLIC "-//W3C//DTD SVG 1.1//EN"
 "http://www.w3.org/Graphics/SVG/1.1/DTD/svg11.dtd">
<!-- Generated by graphviz version 15.0.0 (20260523.1842)
 -->
<!-- Title: leader&#45;core&#45;class&#45;01 Pages: 1 -->
<svg width="1578pt" height="609pt"
 viewBox="0.00 0.00 1578.00 609.00" xmlns="http://www.w3.org/2000/svg" xmlns:xlink="http://www.w3.org/1999/xlink">
<g id="graph0" class="graph" transform="scale(1 1) rotate(0) translate(4 604.5)">
<title>leader&#45;core&#45;class&#45;01</title>
<text xml:space="preserve" text-anchor="middle" x="784.92" y="-583.2" font-family="Times,serif" font-size="14.00">leader core Class Structure</text>
<!-- n3&#45;&gt;r1p1 -->
<g id="edge1" class="edge">
<title>n3&#45;&gt;r1p1</title>
<path fill="none" stroke="#758297" stroke-width="1.8" d="M169.92,-191.26C169.92,-220.46 169.92,-246.52 169.92,-252.58"/>
</g>
<!-- n4&#45;&gt;r4p1 -->
<g id="edge10" class="edge">
<title>n4&#45;&gt;r4p1</title>
<path fill="none" stroke="#758297" stroke-width="1.8" d="M579.92,-191.16C579.92,-229.86 579.92,-268.43 579.92,-276.4"/>
</g>
<!-- n5&#45;&gt;r2p1 -->
<g id="edge4" class="edge">
<title>n5&#45;&gt;r2p1</title>
<path fill="none" stroke="#758297" stroke-width="1.8" d="M989.92,-190.99C989.92,-223.07 989.92,-253.3 989.92,-260.36"/>
</g>
<!-- n6&#45;&gt;r3p1 -->
<g id="edge7" class="edge">
<title>n6&#45;&gt;r3p1</title>
<path fill="none" stroke="#758297" stroke-width="1.8" d="M1399.92,-191.07C1399.92,-227.27 1399.92,-261.52 1399.92,-268.58"/>
</g>
<!-- r1p1&#45;&gt;r1p2 -->
<g id="edge2" class="edge">
<title>r1p1&#45;&gt;r1p2</title>
<path fill="none" stroke="#758297" stroke-width="1.8" d="M171.23,-254C187.87,-254 357.83,-254 373.73,-254"/>
</g>
<!-- r1p2&#45;&gt;n0 -->
<g id="edge3" class="edge">
<title>r1p2&#45;&gt;n0</title>
<path fill="none" stroke="#758297" stroke-width="1.8" d="M376.11,-254C380.13,-254 393,-254 393,-254 393,-254 393,-305.74 393,-305.74"/>
<polygon fill="none" stroke="#758297" stroke-width="1.8" points="390.2,-305.74 393,-313.74 395.8,-305.74 390.2,-305.74"/>
</g>
<!-- r2p1&#45;&gt;r2p2 -->
<g id="edge5" class="edge">
<title>r2p1&#45;&gt;r2p2</title>
<path fill="none" stroke="#758297" stroke-width="1.8" d="M989.92,-263.45C989.92,-270.36 989.92,-298 989.92,-298 989.92,-298 766.84,-298 766.84,-298 766.84,-298 766.84,-262 766.84,-262 766.84,-262 401.99,-262 376.34,-262"/>
</g>
<!-- r2p2&#45;&gt;n0 -->
<g id="edge6" class="edge">
<title>r2p2&#45;&gt;n0</title>
<path fill="none" stroke="#758297" stroke-width="1.8" d="M374.92,-263.08C374.92,-263.08 374.92,-305.6 374.92,-305.6"/>
<polygon fill="none" stroke="#758297" stroke-width="1.8" points="372.12,-305.6 374.92,-313.6 377.72,-305.6 372.12,-305.6"/>
</g>
<!-- r3p1&#45;&gt;r3p2 -->
<g id="edge8" class="edge">
<title>r3p1&#45;&gt;r3p2</title>
<path fill="none" stroke="#758297" stroke-width="1.8" d="M1398.37,-270C1370.35,-270 971.84,-270 971.84,-270 971.84,-270 971.84,-262 971.84,-262 971.84,-262 784.92,-262 784.92,-262 784.92,-262 784.92,-266.08 784.92,-268.38"/>
</g>
<!-- r3p2&#45;&gt;n1 -->
<g id="edge9" class="edge">
<title>r3p2&#45;&gt;n1</title>
<path fill="none" stroke="#758297" stroke-width="1.8" d="M786.11,-270C790.13,-270 803,-270 803,-270 803,-270 803,-369.01 803,-369.01"/>
<polygon fill="none" stroke="#758297" stroke-width="1.8" points="800.2,-369.01 803,-377.01 805.8,-369.01 800.2,-369.01"/>
</g>
<!-- r4p1&#45;&gt;r4p2 -->
<g id="edge11" class="edge">
<title>r4p1&#45;&gt;r4p2</title>
<path fill="none" stroke="#758297" stroke-width="1.8" d="M581.23,-278C597.87,-278 767.83,-278 783.73,-278"/>
</g>
<!-- r4p2&#45;&gt;n1 -->
<g id="edge12" class="edge">
<title>r4p2&#45;&gt;n1</title>
<path fill="none" stroke="#758297" stroke-width="1.8" d="M784.92,-279.18C784.92,-279.18 784.92,-368.9 784.92,-368.9"/>
<polygon fill="none" stroke="#758297" stroke-width="1.8" points="782.12,-368.9 784.92,-376.9 787.72,-368.9 782.12,-368.9"/>
</g>
<!-- n0 -->
<g id="node1" class="node">
<title>n0</title>
<path fill="#ffffff" stroke="#5b8def" d="M532.84,-576C532.84,-576 217,-576 217,-576 211,-576 205,-570 205,-564 205,-564 205,-328.8 205,-328.8 205,-322.8 211,-316.8 217,-316.8 217,-316.8 532.84,-316.8 532.84,-316.8 538.84,-316.8 544.84,-322.8 544.84,-328.8 544.84,-328.8 544.84,-564 544.84,-564 544.84,-570 538.84,-576 532.84,-576"/>
<text xml:space="preserve" text-anchor="middle" x="374.92" y="-442.05" font-family="Architects Daughter" font-size="18.00">AsyncLeaderGroupElector</text>
</g>
<!-- n1 -->
<g id="node2" class="node">
<title>n1</title>
<path fill="#ffffff" stroke="#58a978" d="M942.84,-575.82C942.84,-575.82 627,-575.82 627,-575.82 621,-575.82 615,-569.82 615,-563.82 615,-563.82 615,-391.98 615,-391.98 615,-385.98 621,-379.98 627,-379.98 627,-379.98 942.84,-379.98 942.84,-379.98 948.84,-379.98 954.84,-385.98 954.84,-391.98 954.84,-391.98 954.84,-563.82 954.84,-563.82 954.84,-569.82 948.84,-575.82 942.84,-575.82"/>
<text xml:space="preserve" text-anchor="middle" x="784.92" y="-473.55" font-family="Architects Daughter" font-size="18.00">AsyncLeaderElector</text>
</g>
<!-- n2 -->
<g id="node3" class="node">
<title>n2</title>
<path fill="#ffffff" stroke="#d6a441" d="M1352.84,-575.88C1352.84,-575.88 1037,-575.88 1037,-575.88 1031,-575.88 1025,-569.88 1025,-563.88 1025,-563.88 1025,-412.92 1025,-412.92 1025,-406.92 1031,-400.92 1037,-400.92 1037,-400.92 1352.84,-400.92 1352.84,-400.92 1358.84,-400.92 1364.84,-406.92 1364.84,-412.92 1364.84,-412.92 1364.84,-563.88 1364.84,-563.88 1364.84,-569.88 1358.84,-575.88 1352.84,-575.88"/>
<text xml:space="preserve" text-anchor="middle" x="1194.92" y="-484.05" font-family="Architects Daughter" font-size="18.00">SuspendLeaderElector</text>
</g>
<!-- n3 -->
<g id="node4" class="node">
<title>n3</title>
<path fill="#ffffff" stroke="#dc6b82" d="M327.84,-190.8C327.84,-190.8 12,-190.8 12,-190.8 6,-190.8 0,-184.8 0,-178.8 0,-178.8 0,-12 0,-12 0,-6 6,0 12,0 12,0 327.84,0 327.84,0 333.84,0 339.84,-6 339.84,-12 339.84,-12 339.84,-178.8 339.84,-178.8 339.84,-184.8 333.84,-190.8 327.84,-190.8"/>
<text xml:space="preserve" text-anchor="middle" x="169.92" y="-91.05" font-family="Architects Daughter" font-size="18.00">Suspend Leader Group</text>
</g>
<!-- n4 -->
<g id="node5" class="node">
<title>n4</title>
<path fill="#ffffff" stroke="#45a7a1" d="M737.84,-190.88C737.84,-190.88 422,-190.88 422,-190.88 416,-190.88 410,-184.88 410,-178.88 410,-178.88 410,-27.92 410,-27.92 410,-21.92 416,-15.92 422,-15.92 422,-15.92 737.84,-15.92 737.84,-15.92 743.84,-15.92 749.84,-21.92 749.84,-27.92 749.84,-27.92 749.84,-178.88 749.84,-178.88 749.84,-184.88 743.84,-190.88 737.84,-190.88"/>
<text xml:space="preserve" text-anchor="middle" x="579.92" y="-99.05" font-family="Architects Daughter" font-size="18.00">LeaderElector</text>
</g>
<!-- n5 -->
<g id="node6" class="node">
<title>n5</title>
<path fill="#ffffff" stroke="#8a72d6" d="M1147.84,-190.88C1147.84,-190.88 832,-190.88 832,-190.88 826,-190.88 820,-184.88 820,-178.88 820,-178.88 820,-27.92 820,-27.92 820,-21.92 826,-15.92 832,-15.92 832,-15.92 1147.84,-15.92 1147.84,-15.92 1153.84,-15.92 1159.84,-21.92 1159.84,-27.92 1159.84,-27.92 1159.84,-178.88 1159.84,-178.88 1159.84,-184.88 1153.84,-190.88 1147.84,-190.88"/>
<text xml:space="preserve" text-anchor="middle" x="989.92" y="-99.05" font-family="Architects Daughter" font-size="18.00">LeaderGroupElector</text>
</g>
<!-- n6 -->
<g id="node7" class="node">
<title>n6</title>
<path fill="#ffffff" stroke="#b88a44" d="M1557.84,-190.8C1557.84,-190.8 1242,-190.8 1242,-190.8 1236,-190.8 1230,-184.8 1230,-178.8 1230,-178.8 1230,-12 1230,-12 1230,-6 1236,0 1242,0 1242,0 1557.84,0 1557.84,0 1563.84,0 1569.84,-6 1569.84,-12 1569.84,-12 1569.84,-178.8 1569.84,-178.8 1569.84,-184.8 1563.84,-190.8 1557.84,-190.8"/>
<text xml:space="preserve" text-anchor="middle" x="1399.92" y="-91.05" font-family="Architects Daughter" font-size="18.00">Virtual Thread Leader</text>
</g>
<!-- r1p1 -->
<!-- r1p2 -->
<!-- r2p1 -->
<!-- r2p2 -->
<!-- r3p1 -->
<!-- r3p2 -->
<!-- r4p1 -->
<!-- r4p2 -->
</g>
</svg>
