<?xml version="1.0" encoding="UTF-8" standalone="no"?>
<!DOCTYPE svg PUBLIC "-//W3C//DTD SVG 1.1//EN"
 "http://www.w3.org/Graphics/SVG/1.1/DTD/svg11.dtd">
<!-- Generated by graphviz version 15.0.0 (20260523.1842)
 -->
<!-- Title: leader&#45;ktor&#45;sequence&#45;01 Pages: 1 -->
<svg width="2560pt" height="336pt"
 viewBox="0.00 0.00 2560.00 336.00" xmlns="http://www.w3.org/2000/svg" xmlns:xlink="http://www.w3.org/1999/xlink">
<g id="graph0" class="graph" transform="scale(1 1) rotate(0) translate(4 332)">
<title>leader&#45;ktor&#45;sequence&#45;01</title>
<!-- app -->
<g id="node1" class="node">
<title>app</title>
<path fill="#f8fafc" stroke="#94a3b8" d="M176.5,-209C176.5,-209 12,-209 12,-209 6,-209 0,-203 0,-197 0,-197 0,-185 0,-185 0,-179 6,-173 12,-173 12,-173 176.5,-173 176.5,-173 182.5,-173 188.5,-179 188.5,-185 188.5,-185 188.5,-197 188.5,-197 188.5,-203 182.5,-209 176.5,-209"/>
<text xml:space="preserve" text-anchor="middle" x="94.25" y="-185.57" font-family="Comic Mono" font-size="14.00">Ktor Application Module</text>
</g>
<!-- plugin -->
<g id="node2" class="node">
<title>plugin</title>
<path fill="#f8fafc" stroke="#94a3b8" d="M674.25,-98C674.25,-98 517.25,-98 517.25,-98 511.25,-98 505.25,-92 505.25,-86 505.25,-86 505.25,-74 505.25,-74 505.25,-68 511.25,-62 517.25,-62 517.25,-62 674.25,-62 674.25,-62 680.25,-62 686.25,-68 686.25,-74 686.25,-74 686.25,-86 686.25,-86 686.25,-92 680.25,-98 674.25,-98"/>
<text xml:space="preserve" text-anchor="middle" x="595.75" y="-74.58" font-family="Comic Mono" font-size="14.00">Leader Election Plugin</text>
</g>
<!-- app&#45;&gt;plugin -->
<g id="edge1" class="edge">
<title>app&#45;&gt;plugin</title>
<path fill="none" stroke="#4f83bf" d="M188.87,-177.29C334.2,-177.29 595.75,-177.29 595.75,-177.29 595.75,-177.29 595.75,-106.81 595.75,-106.81"/>
<polygon fill="#4f83bf" stroke="#4f83bf" points="598.2,-106.81 595.75,-99.81 593.3,-106.81 598.2,-106.81"/>
<text xml:space="preserve" text-anchor="middle" x="334.38" y="-120.5" font-family="Comic Mono" font-size="10.00">install plugin with required leaderElection</text>
</g>
<!-- job -->
<g id="node3" class="node">
<title>job</title>
<path fill="#f8fafc" stroke="#94a3b8" d="M2089.5,-241C2089.5,-241 2000,-241 2000,-241 1994,-241 1988,-235 1988,-229 1988,-229 1988,-217 1988,-217 1988,-211 1994,-205 2000,-205 2000,-205 2089.5,-205 2089.5,-205 2095.5,-205 2101.5,-211 2101.5,-217 2101.5,-217 2101.5,-229 2101.5,-229 2101.5,-235 2095.5,-241 2089.5,-241"/>
<text xml:space="preserve" text-anchor="middle" x="2044.75" y="-217.57" font-family="Comic Mono" font-size="14.00">Scheduled Job</text>
</g>
<!-- app&#45;&gt;job -->
<g id="edge4" class="edge">
<title>app&#45;&gt;job</title>
<path fill="none" stroke="#4f83bf" d="M188.72,-190.14C576.5,-190.14 2025.75,-190.14 2025.75,-190.14 2025.75,-190.14 2025.75,-196.14 2025.75,-196.14"/>
<polygon fill="#4f83bf" stroke="#4f83bf" points="2023.3,-196.14 2025.75,-203.14 2028.2,-196.14 2023.3,-196.14"/>
<text xml:space="preserve" text-anchor="middle" x="1100.12" y="-318.5" font-family="Comic Mono" font-size="10.00">leaderScheduled(lockName, period, action)</text>
</g>
<!-- route -->
<g id="node6" class="node">
<title>route</title>
<path fill="#f8fafc" stroke="#94a3b8" d="M1156.12,-156C1156.12,-156 1044.12,-156 1044.12,-156 1038.12,-156 1032.12,-150 1032.12,-144 1032.12,-144 1032.12,-132 1032.12,-132 1032.12,-126 1038.12,-120 1044.12,-120 1044.12,-120 1156.12,-120 1156.12,-120 1162.12,-120 1168.12,-126 1168.12,-132 1168.12,-132 1168.12,-144 1168.12,-144 1168.12,-150 1162.12,-156 1156.12,-156"/>
<text xml:space="preserve" text-anchor="middle" x="1100.12" y="-132.57" font-family="Comic Mono" font-size="14.00">Management Route</text>
</g>
<!-- app&#45;&gt;route -->
<g id="edge10" class="edge">
<title>app&#45;&gt;route</title>
<path fill="none" stroke="#4f83bf" d="M188.58,-181.57C431.53,-181.57 1059.75,-181.57 1059.75,-181.57 1059.75,-181.57 1059.75,-164.99 1059.75,-164.99"/>
<polygon fill="#4f83bf" stroke="#4f83bf" points="1062.2,-164.99 1059.75,-157.99 1057.3,-164.99 1062.2,-164.99"/>
<text xml:space="preserve" text-anchor="middle" x="595.75" y="-230.5" font-family="Comic Mono" font-size="10.00">GET /management/leaderElection</text>
</g>
<!-- plugin&#45;&gt;plugin -->
<g id="edge2" class="edge">
<title>plugin&#45;&gt;plugin</title>
<path fill="none" stroke="#2e8f89" d="M504.8,-80C433.67,-80 346.75,-80 346.75,-80 346.75,-80 346.75,-109 346.75,-109 346.75,-109 858.75,-109 858.75,-109 858.75,-109 858.75,-86 858.75,-86 858.75,-86 695.14,-86 695.14,-86"/>
<polygon fill="#2e8f89" stroke="#2e8f89" points="695.14,-83.55 688.14,-86 695.14,-88.45 695.14,-83.55"/>
</g>
<!-- plugin&#45;&gt;route -->
<g id="edge3" class="edge">
<title>plugin&#45;&gt;route</title>
<path fill="none" stroke="#4f83bf" d="M686.73,-74C831.9,-74 1099.75,-74 1099.75,-74 1099.75,-74 1099.75,-111.32 1099.75,-111.32"/>
<polygon fill="#4f83bf" stroke="#4f83bf" points="1097.3,-111.32 1099.75,-118.32 1102.2,-111.32 1097.3,-111.32"/>
<text xml:space="preserve" text-anchor="middle" x="851.88" y="-111.5" font-family="Comic Mono" font-size="10.00">install GET management route when enabled</text>
</g>
<!-- job&#45;&gt;job -->
<g id="edge8" class="edge">
<title>job&#45;&gt;job</title>
<path fill="none" stroke="#4f63c7" d="M1987.53,-211.8C1941.26,-211.8 1883.75,-211.8 1883.75,-211.8 1883.75,-211.8 1883.75,-198.71 1883.75,-198.71 1883.75,-198.71 2198.75,-198.71 2198.75,-198.71 2198.75,-198.71 2198.75,-217 2198.75,-217 2198.75,-217 2110.17,-217 2110.17,-217"/>
<polygon fill="#4f63c7" stroke="#4f63c7" points="2110.17,-214.55 2103.17,-217 2110.17,-219.45 2110.17,-214.55"/>
</g>
<!-- job&#45;&gt;job -->
<g id="edge9" class="edge">
<title>job&#45;&gt;job</title>
<path fill="none" stroke="#4f63c7" d="M1987.58,-218.6C1909.67,-218.6 1779.75,-218.6 1779.75,-218.6 1779.75,-218.6 1779.75,-194.43 1779.75,-194.43 1779.75,-194.43 2295.75,-194.43 2295.75,-194.43 2295.75,-194.43 2295.75,-229 2295.75,-229 2295.75,-229 2110.22,-229 2110.22,-229"/>
<polygon fill="#4f63c7" stroke="#4f63c7" points="2110.22,-226.55 2103.22,-229 2110.22,-231.45 2110.22,-226.55"/>
</g>
<!-- elector -->
<g id="node4" class="node">
<title>elector</title>
<path fill="#f8fafc" stroke="#94a3b8" d="M1663.25,-239C1663.25,-239 1506.25,-239 1506.25,-239 1500.25,-239 1494.25,-233 1494.25,-227 1494.25,-227 1494.25,-215 1494.25,-215 1494.25,-209 1500.25,-203 1506.25,-203 1506.25,-203 1663.25,-203 1663.25,-203 1669.25,-203 1675.25,-209 1675.25,-215 1675.25,-215 1675.25,-227 1675.25,-227 1675.25,-233 1669.25,-239 1663.25,-239"/>
<text xml:space="preserve" text-anchor="middle" x="1584.75" y="-215.57" font-family="Comic Mono" font-size="14.00">Suspend Leader Elector</text>
</g>
<!-- job&#45;&gt;elector -->
<g id="edge6" class="edge">
<title>job&#45;&gt;elector</title>
<path fill="none" stroke="#b9851b" d="M1987.88,-232.2C1987.88,-232.2 1684.05,-232.2 1684.05,-232.2"/>
<polygon fill="#b9851b" stroke="#b9851b" points="1684.05,-229.75 1677.05,-232.2 1684.05,-234.65 1684.05,-229.75"/>
<text xml:space="preserve" text-anchor="middle" x="1831.62" y="-201.5" font-family="Comic Mono" font-size="10.00">runIfLeader(lockName) each active cycle</text>
</g>
<!-- registry -->
<g id="node5" class="node">
<title>registry</title>
<path fill="#f8fafc" stroke="#94a3b8" d="M2539.75,-160C2539.75,-160 2405.25,-160 2405.25,-160 2399.25,-160 2393.25,-154 2393.25,-148 2393.25,-148 2393.25,-136 2393.25,-136 2393.25,-130 2399.25,-124 2405.25,-124 2405.25,-124 2539.75,-124 2539.75,-124 2545.75,-124 2551.75,-130 2551.75,-136 2551.75,-136 2551.75,-148 2551.75,-148 2551.75,-154 2545.75,-160 2539.75,-160"/>
<text xml:space="preserve" text-anchor="middle" x="2472.5" y="-136.57" font-family="Comic Mono" font-size="14.00">Management Registry</text>
</g>
<!-- job&#45;&gt;registry -->
<g id="edge5" class="edge">
<title>job&#45;&gt;registry</title>
<path fill="none" stroke="#718a35" d="M2063.75,-204.59C2063.75,-181.63 2063.75,-145.33 2063.75,-145.33 2063.75,-145.33 2384.69,-145.33 2384.69,-145.33"/>
<polygon fill="#718a35" stroke="#718a35" points="2384.69,-147.78 2391.69,-145.33 2384.69,-142.88 2384.69,-147.78"/>
<text xml:space="preserve" text-anchor="middle" x="2247.38" y="-191.5" font-family="Comic Mono" font-size="10.00">register lockName for management visibility</text>
</g>
<!-- elector&#45;&gt;job -->
<g id="edge7" class="edge">
<title>elector&#45;&gt;job</title>
<path fill="none" stroke="#3e9868" d="M1675.63,-225.4C1675.63,-225.4 1979.29,-225.4 1979.29,-225.4"/>
<polygon fill="#3e9868" stroke="#3e9868" points="1979.29,-227.85 1986.29,-225.4 1979.29,-222.95 1979.29,-227.85"/>
<text xml:space="preserve" text-anchor="middle" x="1831.62" y="-268.5" font-family="Comic Mono" font-size="10.00">execute suspend action with lock handle context</text>
</g>
<!-- elector&#45;&gt;route -->
<g id="edge13" class="edge">
<title>elector&#45;&gt;route</title>
<path fill="none" stroke="#3e9868" d="M1493.94,-229C1357.07,-229 1113.75,-229 1113.75,-229 1113.75,-229 1113.75,-164.93 1113.75,-164.93"/>
<polygon fill="#3e9868" stroke="#3e9868" points="1116.2,-164.93 1113.75,-157.93 1111.3,-164.93 1116.2,-164.93"/>
<text xml:space="preserve" text-anchor="middle" x="1351" y="-185.5" font-family="Comic Mono" font-size="10.00">LeaderState status, audit id, lease expiry</text>
</g>
<!-- route&#45;&gt;app -->
<g id="edge14" class="edge">
<title>route&#45;&gt;app</title>
<path fill="none" stroke="#3e9868" d="M1086.75,-156.37C1086.75,-169.86 1086.75,-185.86 1086.75,-185.86 1086.75,-185.86 197.48,-185.86 197.48,-185.86"/>
<polygon fill="#3e9868" stroke="#3e9868" points="197.48,-183.41 190.48,-185.86 197.48,-188.31 197.48,-183.41"/>
<text xml:space="preserve" text-anchor="middle" x="595.75" y="-2.5" font-family="Comic Mono" font-size="10.00">respondText JSON without content negotiation</text>
</g>
<!-- route&#45;&gt;elector -->
<g id="edge12" class="edge">
<title>route&#45;&gt;elector</title>
<path fill="none" stroke="#4f83bf" d="M1140.75,-156.38C1140.75,-180.28 1140.75,-219 1140.75,-219 1140.75,-219 1485.32,-219 1485.32,-219"/>
<polygon fill="#4f83bf" stroke="#4f83bf" points="1485.32,-221.45 1492.32,-219 1485.31,-216.55 1485.32,-221.45"/>
<text xml:space="preserve" text-anchor="middle" x="1351" y="-252.5" font-family="Comic Mono" font-size="10.00">state(lockName) for each registered lock</text>
</g>
<!-- route&#45;&gt;registry -->
<g id="edge11" class="edge">
<title>route&#45;&gt;registry</title>
<path fill="none" stroke="#2e8f89" d="M1168.18,-134.67C1168.18,-134.67 2384.59,-134.67 2384.59,-134.67"/>
<polygon fill="#2e8f89" stroke="#2e8f89" points="2384.59,-137.12 2391.59,-134.67 2384.59,-132.22 2384.59,-137.12"/>
<text xml:space="preserve" text-anchor="middle" x="1831.62" y="-104.5" font-family="Comic Mono" font-size="10.00">snapshot known lock names</text>
</g>
</g>
</svg>
