<?xml version="1.0" encoding="UTF-8" standalone="no"?>
<!DOCTYPE svg PUBLIC "-//W3C//DTD SVG 1.1//EN"
 "http://www.w3.org/Graphics/SVG/1.1/DTD/svg11.dtd">
<!-- Generated by graphviz version 15.0.0 (20260523.1842)
 -->
<!-- Title: leader&#45;exposed&#45;jdbc&#45;class&#45;01 Pages: 1 -->
<svg width="5797pt" height="386pt"
 viewBox="0.00 0.00 5797.00 386.00" xmlns="http://www.w3.org/2000/svg" xmlns:xlink="http://www.w3.org/1999/xlink">
<g id="graph0" class="graph" transform="scale(1 1) rotate(0) translate(4 382)">
<title>leader&#45;exposed&#45;jdbc&#45;class&#45;01</title>
<!-- leaderContract -->
<g id="node1" class="node">
<title>leaderContract</title>
<path fill="#f8fafc" stroke="#94a3b8" d="M1829.5,-264C1829.5,-264 1177.5,-264 1177.5,-264 1171.5,-264 1165.5,-258 1165.5,-252 1165.5,-252 1165.5,-240 1165.5,-240 1165.5,-234 1171.5,-228 1177.5,-228 1177.5,-228 1829.5,-228 1829.5,-228 1835.5,-228 1841.5,-234 1841.5,-240 1841.5,-240 1841.5,-252 1841.5,-252 1841.5,-258 1835.5,-264 1829.5,-264"/>
<text xml:space="preserve" text-anchor="middle" x="1503.5" y="-240.57" font-family="Comic Mono" font-size="14.00">&lt;&lt;core interface&gt;&gt;\nLeaderElector\n+ runIfLeader(lockName)\n+ runAsyncIfLeader(lockName)</text>
</g>
<!-- virtualContract -->
<g id="node2" class="node">
<title>virtualContract</title>
<path fill="#f8fafc" stroke="#94a3b8" d="M5467,-150C5467,-150 4710,-150 4710,-150 4704,-150 4698,-144 4698,-138 4698,-138 4698,-126 4698,-126 4698,-120 4704,-114 4710,-114 4710,-114 5467,-114 5467,-114 5473,-114 5479,-120 5479,-126 5479,-126 5479,-138 5479,-138 5479,-144 5473,-150 5467,-150"/>
<text xml:space="preserve" text-anchor="middle" x="5088.5" y="-126.58" font-family="Comic Mono" font-size="14.00">&lt;&lt;core interface&gt;&gt;\nVirtualThreadLeaderElector\n+ runAsyncIfLeader(lockName)\nVirtualFuture&lt;T?&gt; result</text>
</g>
<!-- groupContract -->
<g id="node3" class="node">
<title>groupContract</title>
<path fill="#f8fafc" stroke="#94a3b8" d="M5777.25,-264C5777.25,-264 5027.75,-264 5027.75,-264 5021.75,-264 5015.75,-258 5015.75,-252 5015.75,-252 5015.75,-240 5015.75,-240 5015.75,-234 5021.75,-228 5027.75,-228 5027.75,-228 5777.25,-228 5777.25,-228 5783.25,-228 5789.25,-234 5789.25,-240 5789.25,-240 5789.25,-252 5789.25,-252 5789.25,-258 5783.25,-264 5777.25,-264"/>
<text xml:space="preserve" text-anchor="middle" x="5402.5" y="-240.57" font-family="Comic Mono" font-size="14.00">&lt;&lt;core interface&gt;&gt;\nLeaderGroupElector\n+ maxLeaders: Int\n+ runIfLeader(lockName)\n+ state(lockName)</text>
</g>
<!-- jdbcElector -->
<g id="node4" class="node">
<title>jdbcElector</title>
<path fill="#f8fafc" stroke="#94a3b8" d="M2560,-150C2560,-150 1413,-150 1413,-150 1407,-150 1401,-144 1401,-138 1401,-138 1401,-126 1401,-126 1401,-120 1407,-114 1413,-114 1413,-114 2560,-114 2560,-114 2566,-114 2572,-120 2572,-126 2572,-126 2572,-138 2572,-138 2572,-144 2566,-150 2560,-150"/>
<text xml:space="preserve" text-anchor="middle" x="1986.5" y="-126.58" font-family="Comic Mono" font-size="14.00">&lt;&lt;JDBC implementation&gt;&gt;\nExposedJdbcLeaderElector\nimplements LeaderElector\ncreates ExposedJdbcLock\nstarts lease auto&#45;extender\nrecords optional history</text>
</g>
<!-- jdbcElector&#45;&gt;leaderContract -->
<g id="edge1" class="edge">
<title>jdbcElector&#45;&gt;leaderContract</title>
<path fill="none" stroke="#4f83bf" d="M1621.25,-150.32C1621.25,-150.32 1621.25,-218.22 1621.25,-218.22"/>
<polygon fill="#4f83bf" stroke="#4f83bf" points="1618.45,-218.22 1621.25,-226.22 1624.05,-218.22 1618.45,-218.22"/>
<text xml:space="preserve" text-anchor="middle" x="1521.88" y="-185.5" font-family="Comic Mono" font-size="10.00">inherit</text>
</g>
<!-- jdbcLock -->
<g id="node7" class="node">
<title>jdbcLock</title>
<path fill="#f8fafc" stroke="#94a3b8" d="M1099,-264C1099,-264 12,-264 12,-264 6,-264 0,-258 0,-252 0,-252 0,-240 0,-240 0,-234 6,-228 12,-228 12,-228 1099,-228 1099,-228 1105,-228 1111,-234 1111,-240 1111,-240 1111,-252 1111,-252 1111,-258 1105,-264 1099,-264"/>
<text xml:space="preserve" text-anchor="middle" x="555.5" y="-240.57" font-family="Comic Mono" font-size="14.00">&lt;&lt;single lock delegate&gt;&gt;\nExposedJdbcLock\ntoken: Base58 fencing token\nUPDATE expired row\nINSERT new row on missing lock\nSELECT token ownership</text>
</g>
<!-- jdbcElector&#45;&gt;jdbcLock -->
<g id="edge5" class="edge">
<title>jdbcElector&#45;&gt;jdbcLock</title>
<path fill="none" stroke="#b9851b" d="M1400.73,-132C1249.89,-132 1129.17,-132 1129.17,-132 1129.17,-132 1129.17,-240 1129.17,-240 1129.17,-240 1120.88,-240 1120.88,-240"/>
<polygon fill="#b9851b" stroke="#b9851b" points="1120.88,-237.2 1112.88,-240 1120.88,-242.8 1120.88,-237.2"/>
<text xml:space="preserve" text-anchor="middle" x="999.88" y="-185.5" font-family="Comic Mono" font-size="10.00">creates</text>
</g>
<!-- historySink -->
<g id="node10" class="node">
<title>historySink</title>
<path fill="#f8fafc" stroke="#94a3b8" d="M4950,-264C4950,-264 4193,-264 4193,-264 4187,-264 4181,-258 4181,-252 4181,-252 4181,-240 4181,-240 4181,-234 4187,-228 4193,-228 4193,-228 4950,-228 4950,-228 4956,-228 4962,-234 4962,-240 4962,-240 4962,-252 4962,-252 4962,-258 4956,-264 4950,-264"/>
<text xml:space="preserve" text-anchor="middle" x="4571.5" y="-240.57" font-family="Comic Mono" font-size="14.00">&lt;&lt;audit sink&gt;&gt;\nExposedLeaderHistorySink\nrecord ACQUIRED\nrecord COMPLETED / FAILED\ncleanup old rows</text>
</g>
<!-- jdbcElector&#45;&gt;historySink -->
<g id="edge11" class="edge">
<title>jdbcElector&#45;&gt;historySink</title>
<path fill="none" stroke="#2e8f89" d="M2233.62,-150.39C2233.62,-171.13 2233.62,-202 2233.62,-202 2233.62,-202 4296.81,-202 4296.81,-202 4296.81,-202 4296.81,-218.08 4296.81,-218.08"/>
<polygon fill="#2e8f89" stroke="#2e8f89" points="4294.01,-218.08 4296.81,-226.08 4299.61,-218.08 4294.01,-218.08"/>
<text xml:space="preserve" text-anchor="middle" x="3603.5" y="-185.5" font-family="Comic Mono" font-size="10.00">optional history</text>
</g>
<!-- virtualElector -->
<g id="node5" class="node">
<title>virtualElector</title>
<path fill="#f8fafc" stroke="#94a3b8" d="M4137.25,-36C4137.25,-36 2937.75,-36 2937.75,-36 2931.75,-36 2925.75,-30 2925.75,-24 2925.75,-24 2925.75,-12 2925.75,-12 2925.75,-6 2931.75,0 2937.75,0 2937.75,0 4137.25,0 4137.25,0 4143.25,0 4149.25,-6 4149.25,-12 4149.25,-12 4149.25,-24 4149.25,-24 4149.25,-30 4143.25,-36 4137.25,-36"/>
<text xml:space="preserve" text-anchor="middle" x="3537.5" y="-12.57" font-family="Comic Mono" font-size="14.00">&lt;&lt;adapter implementation&gt;&gt;\nExposedJdbc VirtualThread\nExposedJdbcVirtualThreadLeaderElector\ndelegate: ExposedJdbcLeaderElector\nwraps delegate in virtualFuture</text>
</g>
<!-- virtualElector&#45;&gt;virtualContract -->
<g id="edge2" class="edge">
<title>virtualElector&#45;&gt;virtualContract</title>
<path fill="none" stroke="#4f83bf" d="M4149.66,-18C4583.38,-18 5088.5,-18 5088.5,-18 5088.5,-18 5088.5,-104.17 5088.5,-104.17"/>
<polygon fill="#4f83bf" stroke="#4f83bf" points="5085.7,-104.17 5088.5,-112.17 5091.3,-104.17 5085.7,-104.17"/>
<text xml:space="preserve" text-anchor="middle" x="5106.88" y="-71.5" font-family="Comic Mono" font-size="10.00">inherit</text>
</g>
<!-- virtualElector&#45;&gt;jdbcElector -->
<g id="edge4" class="edge">
<title>virtualElector&#45;&gt;jdbcElector</title>
<path fill="none" stroke="#758297" d="M2939.75,-36.32C2939.75,-68.54 2939.75,-132 2939.75,-132 2939.75,-132 2581.73,-132 2581.73,-132"/>
<polygon fill="#758297" stroke="#758297" points="2581.73,-129.2 2573.73,-132 2581.73,-134.8 2581.73,-129.2"/>
<text xml:space="preserve" text-anchor="middle" x="3507.75" y="-71.5" font-family="Comic Mono" font-size="10.00">dependency</text>
</g>
<!-- jdbcGroupElector -->
<g id="node6" class="node">
<title>jdbcGroupElector</title>
<path fill="#f8fafc" stroke="#94a3b8" d="M4632.25,-150C4632.25,-150 3282.75,-150 3282.75,-150 3276.75,-150 3270.75,-144 3270.75,-138 3270.75,-138 3270.75,-126 3270.75,-126 3270.75,-120 3276.75,-114 3282.75,-114 3282.75,-114 4632.25,-114 4632.25,-114 4638.25,-114 4644.25,-120 4644.25,-126 4644.25,-126 4644.25,-138 4644.25,-138 4644.25,-144 4638.25,-150 4632.25,-150"/>
<text xml:space="preserve" text-anchor="middle" x="3957.5" y="-126.58" font-family="Comic Mono" font-size="14.00">&lt;&lt;JDBC group implementation&gt;&gt;\nExposedJdbcLeaderGroupElector\nimplements LeaderGroupElector\nrandomized slot iteration\ncreates ExposedJdbcGroupLock\nstate uses LeaderGroupLockTable</text>
</g>
<!-- jdbcGroupElector&#45;&gt;groupContract -->
<g id="edge3" class="edge">
<title>jdbcGroupElector&#45;&gt;groupContract</title>
<path fill="none" stroke="#4f83bf" d="M4528.44,-150.41C4528.44,-162.46 4528.44,-176 4528.44,-176 4528.44,-176 5247.38,-176 5247.38,-176 5247.38,-176 5247.38,-218.09 5247.38,-218.09"/>
<polygon fill="#4f83bf" stroke="#4f83bf" points="5244.58,-218.09 5247.38,-226.09 5250.18,-218.09 5244.58,-218.09"/>
<text xml:space="preserve" text-anchor="middle" x="5420.88" y="-185.5" font-family="Comic Mono" font-size="10.00">inherit</text>
</g>
<!-- jdbcGroupLock -->
<g id="node8" class="node">
<title>jdbcGroupLock</title>
<path fill="#f8fafc" stroke="#94a3b8" d="M4114.75,-264C4114.75,-264 3020.25,-264 3020.25,-264 3014.25,-264 3008.25,-258 3008.25,-252 3008.25,-252 3008.25,-240 3008.25,-240 3008.25,-234 3014.25,-228 3020.25,-228 3020.25,-228 4114.75,-228 4114.75,-228 4120.75,-228 4126.75,-234 4126.75,-240 4126.75,-240 4126.75,-252 4126.75,-252 4126.75,-258 4120.75,-264 4114.75,-264"/>
<text xml:space="preserve" text-anchor="middle" x="3567.5" y="-240.57" font-family="Comic Mono" font-size="14.00">&lt;&lt;slot lock delegate&gt;&gt;\nExposedJdbcGroupLock\n(lockName, slot) composite owner\nUPDATE expired slot\nINSERT slot row\nSELECT token + slot ownership</text>
</g>
<!-- jdbcGroupElector&#45;&gt;jdbcGroupLock -->
<g id="edge6" class="edge">
<title>jdbcGroupElector&#45;&gt;jdbcGroupLock</title>
<path fill="none" stroke="#b9851b" d="M3698.75,-150.32C3698.75,-150.32 3698.75,-218.22 3698.75,-218.22"/>
<polygon fill="#b9851b" stroke="#b9851b" points="3695.95,-218.22 3698.75,-226.22 3701.55,-218.22 3695.95,-218.22"/>
<text xml:space="preserve" text-anchor="middle" x="3814.5" y="-185.5" font-family="Comic Mono" font-size="10.00">per slot</text>
</g>
<!-- jdbcGroupElector&#45;&gt;historySink -->
<g id="edge12" class="edge">
<title>jdbcGroupElector&#45;&gt;historySink</title>
<path fill="none" stroke="#2e8f89" d="M4412.62,-150.32C4412.62,-150.32 4412.62,-218.22 4412.62,-218.22"/>
<polygon fill="#2e8f89" stroke="#2e8f89" points="4409.83,-218.22 4412.63,-226.22 4415.43,-218.22 4409.83,-218.22"/>
<text xml:space="preserve" text-anchor="middle" x="4149.38" y="-185.5" font-family="Comic Mono" font-size="10.00">group audit</text>
</g>
<!-- lockTable -->
<g id="node11" class="node">
<title>lockTable</title>
<path fill="#f8fafc" stroke="#94a3b8" d="M2141.25,-378C2141.25,-378 1481.75,-378 1481.75,-378 1475.75,-378 1469.75,-372 1469.75,-366 1469.75,-366 1469.75,-354 1469.75,-354 1469.75,-348 1475.75,-342 1481.75,-342 1481.75,-342 2141.25,-342 2141.25,-342 2147.25,-342 2153.25,-348 2153.25,-354 2153.25,-354 2153.25,-366 2153.25,-366 2153.25,-372 2147.25,-378 2141.25,-378"/>
<text xml:space="preserve" text-anchor="middle" x="1811.5" y="-354.57" font-family="Comic Mono" font-size="14.00">&lt;&lt;Exposed table&gt;&gt;\nLeaderLockTable\nPK lockName\nlockOwner\ntoken\nlockedAt / lockedUntil</text>
</g>
<!-- jdbcLock&#45;&gt;lockTable -->
<g id="edge7" class="edge">
<title>jdbcLock&#45;&gt;lockTable</title>
<path fill="none" stroke="#758297" d="M1111.2,-252C1133.95,-252 1147.33,-252 1147.33,-252 1147.33,-252 1147.33,-360 1147.33,-360 1147.33,-360 1460.18,-360 1460.18,-360"/>
<polygon fill="#758297" stroke="#758297" points="1460.18,-362.8 1468.18,-360 1460.18,-357.2 1460.18,-362.8"/>
<text xml:space="preserve" text-anchor="middle" x="1321" y="-299.5" font-family="Comic Mono" font-size="10.00">UPDATE INSERT SELECT</text>
</g>
<!-- groupTable -->
<g id="node13" class="node">
<title>groupTable</title>
<path fill="#f8fafc" stroke="#94a3b8" d="M3240.25,-378C3240.25,-378 2490.75,-378 2490.75,-378 2484.75,-378 2478.75,-372 2478.75,-366 2478.75,-366 2478.75,-354 2478.75,-354 2478.75,-348 2484.75,-342 2490.75,-342 2490.75,-342 3240.25,-342 3240.25,-342 3246.25,-342 3252.25,-348 3252.25,-354 3252.25,-354 3252.25,-366 3252.25,-366 3252.25,-372 3246.25,-378 3240.25,-378"/>
<text xml:space="preserve" text-anchor="middle" x="2865.5" y="-354.57" font-family="Comic Mono" font-size="14.00">&lt;&lt;Exposed table&gt;&gt;\nLeaderGroupLockTable\nPK(lockName, slot)\nlockOwner\ntoken\nlockedAt / lockedUntil</text>
</g>
<!-- jdbcGroupLock&#45;&gt;groupTable -->
<g id="edge8" class="edge">
<title>jdbcGroupLock&#45;&gt;groupTable</title>
<path fill="none" stroke="#758297" d="M3130.25,-264.32C3130.25,-264.32 3130.25,-332.22 3130.25,-332.22"/>
<polygon fill="#758297" stroke="#758297" points="3127.45,-332.22 3130.25,-340.22 3133.05,-332.22 3127.45,-332.22"/>
<text xml:space="preserve" text-anchor="middle" x="3068.12" y="-299.5" font-family="Comic Mono" font-size="10.00">slot rows</text>
</g>
<!-- schemaInit -->
<g id="node9" class="node">
<title>schemaInit</title>
<path fill="#f8fafc" stroke="#94a3b8" d="M2941.75,-264C2941.75,-264 1907.25,-264 1907.25,-264 1901.25,-264 1895.25,-258 1895.25,-252 1895.25,-252 1895.25,-240 1895.25,-240 1895.25,-234 1901.25,-228 1907.25,-228 1907.25,-228 2941.75,-228 2941.75,-228 2947.75,-228 2953.75,-234 2953.75,-240 2953.75,-240 2953.75,-252 2953.75,-252 2953.75,-258 2947.75,-264 2941.75,-264"/>
<text xml:space="preserve" text-anchor="middle" x="2424.5" y="-240.57" font-family="Comic Mono" font-size="14.00">&lt;&lt;schema bootstrap&gt;&gt;\nExposedJdbcSchemaInitializer\nensureSchema(db)\nSchemaUtils.createMissingTablesAndColumns\nruns once per Database URL</text>
</g>
<!-- schemaInit&#45;&gt;lockTable -->
<g id="edge9" class="edge">
<title>schemaInit&#45;&gt;lockTable</title>
<path fill="none" stroke="#758297" d="M2024.25,-264.32C2024.25,-264.32 2024.25,-332.22 2024.25,-332.22"/>
<polygon fill="#758297" stroke="#758297" points="2021.45,-332.22 2024.25,-340.22 2027.05,-332.22 2021.45,-332.22"/>
<text xml:space="preserve" text-anchor="middle" x="2129.88" y="-299.5" font-family="Comic Mono" font-size="10.00">creates</text>
</g>
<!-- schemaInit&#45;&gt;groupTable -->
<g id="edge10" class="edge">
<title>schemaInit&#45;&gt;groupTable</title>
<path fill="none" stroke="#758297" d="M2716.25,-264.32C2716.25,-264.32 2716.25,-332.22 2716.25,-332.22"/>
<polygon fill="#758297" stroke="#758297" points="2713.45,-332.22 2716.25,-340.22 2719.05,-332.22 2713.45,-332.22"/>
<text xml:space="preserve" text-anchor="middle" x="2704.88" y="-299.5" font-family="Comic Mono" font-size="10.00">creates</text>
</g>
<!-- historyTable -->
<g id="node12" class="node">
<title>historyTable</title>
<path fill="#f8fafc" stroke="#94a3b8" d="M4972.5,-378C4972.5,-378 4170.5,-378 4170.5,-378 4164.5,-378 4158.5,-372 4158.5,-366 4158.5,-366 4158.5,-354 4158.5,-354 4158.5,-348 4164.5,-342 4170.5,-342 4170.5,-342 4972.5,-342 4972.5,-342 4978.5,-342 4984.5,-348 4984.5,-354 4984.5,-354 4984.5,-366 4984.5,-366 4984.5,-372 4978.5,-378 4972.5,-378"/>
<text xml:space="preserve" text-anchor="middle" x="4571.5" y="-354.57" font-family="Comic Mono" font-size="14.00">&lt;&lt;Exposed table&gt;&gt;\nLeaderLockHistoryTable\nid PK\nlockName + token\nstatus lifecycle\nslotId for group audit</text>
</g>
<!-- historySink&#45;&gt;historyTable -->
<g id="edge13" class="edge">
<title>historySink&#45;&gt;historyTable</title>
<path fill="none" stroke="#758297" d="M4571.5,-264.32C4571.5,-264.32 4571.5,-332.22 4571.5,-332.22"/>
<polygon fill="#758297" stroke="#758297" points="4568.7,-332.22 4571.5,-340.22 4574.3,-332.22 4568.7,-332.22"/>
<text xml:space="preserve" text-anchor="middle" x="4587.25" y="-299.5" font-family="Comic Mono" font-size="10.00">writes</text>
</g>
</g>
</svg>
