<?xml version="1.0" encoding="UTF-8" standalone="no"?>
<!DOCTYPE svg PUBLIC "-//W3C//DTD SVG 1.1//EN"
 "http://www.w3.org/Graphics/SVG/1.1/DTD/svg11.dtd">
<!-- Generated by graphviz version 15.0.0 (20260523.1842)
 -->
<!-- Title: leader&#45;hazelcast&#45;sequence&#45;02 Pages: 1 -->
<svg width="1036pt" height="988pt"
 viewBox="0.00 0.00 1036.00 988.00" xmlns="http://www.w3.org/2000/svg" xmlns:xlink="http://www.w3.org/1999/xlink">
<g id="graph0" class="graph" transform="scale(1 1) rotate(0) translate(4 983.58)">
<title>leader&#45;hazelcast&#45;sequence&#45;02</title>
<text xml:space="preserve" text-anchor="middle" x="513.84" y="-962.28" font-family="Times,serif" font-size="14.00">Lock acquire/release sequence</text>
<!-- n0&#45;&gt;n1 -->
<g id="edge1" class="edge">
<title>n0&#45;&gt;n1</title>
<path fill="none" stroke="#758297" stroke-width="1.8" d="M229.98,-945C229.98,-945 387.82,-945 387.82,-945"/>
<polygon fill="#758297" stroke="#758297" stroke-width="1.8" points="387.82,-947.8 395.82,-945 387.82,-942.2 387.82,-947.8"/>
</g>
<!-- n0&#45;&gt;n1 -->
<g id="edge10" class="edge">
<title>n0&#45;&gt;n1</title>
<path fill="none" stroke="#758297" stroke-width="1.8" d="M229.98,-935C229.98,-935 387.82,-935 387.82,-935"/>
<polygon fill="#758297" stroke="#758297" stroke-width="1.8" points="387.82,-937.8 395.82,-935 387.82,-932.2 387.82,-937.8"/>
</g>
<!-- n0&#45;&gt;n1 -->
<g id="edge14" class="edge">
<title>n0&#45;&gt;n1</title>
<path fill="none" stroke="#758297" stroke-width="1.8" d="M229.98,-924C229.98,-924 387.82,-924 387.82,-924"/>
<polygon fill="#758297" stroke="#758297" stroke-width="1.8" points="387.82,-926.8 395.82,-924 387.82,-921.2 387.82,-926.8"/>
</g>
<!-- n1&#45;&gt;n0 -->
<g id="edge4" class="edge">
<title>n1&#45;&gt;n0</title>
<path fill="none" stroke="#758297" stroke-width="1.8" stroke-dasharray="5,2" d="M398.7,-914C398.7,-914 240.86,-914 240.86,-914"/>
<polygon fill="#758297" stroke="#758297" stroke-width="1.8" points="240.86,-911.2 232.86,-914 240.86,-916.8 240.86,-911.2"/>
</g>
<!-- n1&#45;&gt;n0 -->
<g id="edge9" class="edge">
<title>n1&#45;&gt;n0</title>
<path fill="none" stroke="#758297" stroke-width="1.8" stroke-dasharray="5,2" d="M398.7,-904C398.7,-904 240.86,-904 240.86,-904"/>
<polygon fill="#758297" stroke="#758297" stroke-width="1.8" points="240.86,-901.2 232.86,-904 240.86,-906.8 240.86,-901.2"/>
</g>
<!-- n1&#45;&gt;n0 -->
<g id="edge13" class="edge">
<title>n1&#45;&gt;n0</title>
<path fill="none" stroke="#758297" stroke-width="1.8" stroke-dasharray="5,2" d="M398.7,-893C398.7,-893 240.86,-893 240.86,-893"/>
<polygon fill="#758297" stroke="#758297" stroke-width="1.8" points="240.86,-890.2 232.86,-893 240.86,-895.8 240.86,-890.2"/>
</g>
<!-- n1&#45;&gt;n2 -->
<g id="edge2" class="edge">
<title>n1&#45;&gt;n2</title>
<path fill="none" stroke="#758297" stroke-width="1.8" d="M628.98,-907C628.98,-907 786.82,-907 786.82,-907"/>
<polygon fill="#758297" stroke="#758297" stroke-width="1.8" points="786.82,-909.8 794.82,-907 786.82,-904.2 786.82,-909.8"/>
</g>
<!-- n1&#45;&gt;n2 -->
<g id="edge11" class="edge">
<title>n1&#45;&gt;n2</title>
<path fill="none" stroke="#758297" stroke-width="1.8" d="M628.98,-899C628.98,-899 786.82,-899 786.82,-899"/>
<polygon fill="#758297" stroke="#758297" stroke-width="1.8" points="786.82,-901.8 794.82,-899 786.82,-896.2 786.82,-901.8"/>
</g>
<!-- n1&#45;&gt;n2 -->
<g id="edge15" class="edge">
<title>n1&#45;&gt;n2</title>
<path fill="none" stroke="#758297" stroke-width="1.8" d="M628.98,-891C628.98,-891 786.82,-891 786.82,-891"/>
<polygon fill="#758297" stroke="#758297" stroke-width="1.8" points="786.82,-893.8 794.82,-891 786.82,-888.2 786.82,-893.8"/>
</g>
<!-- n1&#45;&gt;r6p1 -->
<g id="edge6" class="edge">
<title>n1&#45;&gt;r6p1</title>
<path fill="none" stroke="#758297" stroke-width="1.8" d="M577.84,-882.78C577.84,-720.98 577.84,-71.96 577.84,-36.58"/>
</g>
<!-- n2&#45;&gt;n1 -->
<g id="edge3" class="edge">
<title>n2&#45;&gt;n1</title>
<path fill="none" stroke="#758297" stroke-width="1.8" stroke-dasharray="5,2" d="M797.7,-947C797.7,-947 639.86,-947 639.86,-947"/>
<polygon fill="#758297" stroke="#758297" stroke-width="1.8" points="639.86,-944.2 631.86,-947 639.86,-949.8 639.86,-944.2"/>
</g>
<!-- n2&#45;&gt;n1 -->
<g id="edge5" class="edge">
<title>n2&#45;&gt;n1</title>
<path fill="none" stroke="#758297" stroke-width="1.8" stroke-dasharray="5,2" d="M797.7,-939C797.7,-939 639.86,-939 639.86,-939"/>
<polygon fill="#758297" stroke="#758297" stroke-width="1.8" points="639.86,-936.2 631.86,-939 639.86,-941.8 639.86,-936.2"/>
</g>
<!-- n2&#45;&gt;n1 -->
<g id="edge12" class="edge">
<title>n2&#45;&gt;n1</title>
<path fill="none" stroke="#758297" stroke-width="1.8" stroke-dasharray="5,2" d="M797.7,-931C797.7,-931 639.86,-931 639.86,-931"/>
<polygon fill="#758297" stroke="#758297" stroke-width="1.8" points="639.86,-928.2 631.86,-931 639.86,-933.8 639.86,-928.2"/>
</g>
<!-- n2&#45;&gt;n1 -->
<g id="edge16" class="edge">
<title>n2&#45;&gt;n1</title>
<path fill="none" stroke="#758297" stroke-width="1.8" stroke-dasharray="5,2" d="M797.7,-923C797.7,-923 639.86,-923 639.86,-923"/>
<polygon fill="#758297" stroke="#758297" stroke-width="1.8" points="639.86,-920.2 631.86,-923 639.86,-925.8 639.86,-920.2"/>
</g>
<!-- n2&#45;&gt;n1 -->
<g id="edge17" class="edge">
<title>n2&#45;&gt;n1</title>
<path fill="none" stroke="#758297" stroke-width="1.8" stroke-dasharray="5,2" d="M797.7,-915C797.7,-915 639.86,-915 639.86,-915"/>
<polygon fill="#758297" stroke="#758297" stroke-width="1.8" points="639.86,-912.2 631.86,-915 639.86,-917.8 639.86,-912.2"/>
</g>
<!-- r6p1&#45;&gt;r6p2 -->
<g id="edge7" class="edge">
<title>r6p1&#45;&gt;r6p2</title>
<path fill="none" stroke="#758297" stroke-width="1.8" d="M577.84,-33.62C577.84,-28.03 577.84,-8.02 577.84,-2.5"/>
</g>
<!-- r6p2&#45;&gt;n1 -->
<g id="edge8" class="edge">
<title>r6p2&#45;&gt;n1</title>
<path fill="none" stroke="#758297" stroke-width="1.8" d="M579.24,-1C584.63,-1 603.8,-1 603.8,-1 603.8,-1 603.8,-872.08 603.8,-872.08"/>
<polygon fill="#758297" stroke="#758297" stroke-width="1.8" points="601,-872.08 603.8,-880.08 606.6,-872.08 601,-872.08"/>
</g>
<!-- n0 -->
<g id="node1" class="node">
<title>n0</title>
<path fill="#ffffff" stroke="#5b8def" d="M217.68,-955.08C217.68,-955.08 12,-955.08 12,-955.08 6,-955.08 0,-949.08 0,-943.08 0,-943.08 0,-895.08 0,-895.08 0,-889.08 6,-883.08 12,-883.08 12,-883.08 217.68,-883.08 217.68,-883.08 223.68,-883.08 229.68,-889.08 229.68,-895.08 229.68,-895.08 229.68,-943.08 229.68,-943.08 229.68,-949.08 223.68,-955.08 217.68,-955.08"/>
<text xml:space="preserve" text-anchor="middle" x="114.84" y="-914.73" font-family="Architects Daughter" font-size="18.00">Caller</text>
</g>
<!-- n1 -->
<g id="node2" class="node">
<title>n1</title>
<path fill="#ffffff" stroke="#58a978" d="M616.68,-955.08C616.68,-955.08 411,-955.08 411,-955.08 405,-955.08 399,-949.08 399,-943.08 399,-943.08 399,-895.08 399,-895.08 399,-889.08 405,-883.08 411,-883.08 411,-883.08 616.68,-883.08 616.68,-883.08 622.68,-883.08 628.68,-889.08 628.68,-895.08 628.68,-895.08 628.68,-943.08 628.68,-943.08 628.68,-949.08 622.68,-955.08 616.68,-955.08"/>
<text xml:space="preserve" text-anchor="middle" x="513.84" y="-914.73" font-family="Architects Daughter" font-size="18.00">HazelcastLock</text>
</g>
<!-- n2 -->
<g id="node3" class="node">
<title>n2</title>
<path fill="#ffffff" stroke="#d6a441" d="M1015.68,-955.08C1015.68,-955.08 810,-955.08 810,-955.08 804,-955.08 798,-949.08 798,-943.08 798,-943.08 798,-895.08 798,-895.08 798,-889.08 804,-883.08 810,-883.08 810,-883.08 1015.68,-883.08 1015.68,-883.08 1021.68,-883.08 1027.68,-889.08 1027.68,-895.08 1027.68,-895.08 1027.68,-943.08 1027.68,-943.08 1027.68,-949.08 1021.68,-955.08 1015.68,-955.08"/>
<text xml:space="preserve" text-anchor="middle" x="912.84" y="-914.73" font-family="Architects Daughter" font-size="18.00">IMap</text>
</g>
<!-- r6p1 -->
<!-- r6p2 -->
</g>
</svg>
