<?xml version="1.0" encoding="UTF-8" standalone="no"?>
<!DOCTYPE svg PUBLIC "-//W3C//DTD SVG 1.1//EN"
 "http://www.w3.org/Graphics/SVG/1.1/DTD/svg11.dtd">
<!-- Generated by graphviz version 15.0.0 (20260523.1842)
 -->
<!-- Title: leader&#45;consul&#45;architecture&#45;01 Pages: 1 -->
<svg width="1128pt" height="551pt"
 viewBox="0.00 0.00 1128.00 551.00" xmlns="http://www.w3.org/2000/svg" xmlns:xlink="http://www.w3.org/1999/xlink">
<g id="graph0" class="graph" transform="scale(1 1) rotate(0) translate(4 546.5)">
<title>leader&#45;consul&#45;architecture&#45;01</title>
<text xml:space="preserve" text-anchor="middle" x="560.04" y="-525.2" font-family="Times,serif" font-size="14.00">leader consul Architecture</text>
<!-- n0&#45;&gt;r1p1 -->
<g id="edge1" class="edge">
<title>n0&#45;&gt;r1p1</title>
<path fill="none" stroke="#758297" stroke-width="1.8" d="M310.75,-439C327.33,-439 339.68,-439 343.73,-439"/>
</g>
<!-- n0&#45;&gt;r2p1 -->
<g id="edge4" class="edge">
<title>n0&#45;&gt;r2p1</title>
<path fill="none" stroke="#758297" stroke-width="1.8" d="M310.75,-439C327.33,-439 339.68,-439 343.73,-439"/>
</g>
<!-- n1&#45;&gt;r3p1 -->
<g id="edge7" class="edge">
<title>n1&#45;&gt;r3p1</title>
<path fill="none" stroke="#758297" stroke-width="1.8" d="M310.75,-189C327.33,-189 339.68,-189 343.73,-189"/>
</g>
<!-- n2&#45;&gt;n4 -->
<g id="edge10" class="edge">
<title>n2&#45;&gt;n4</title>
<path fill="none" stroke="#758297" stroke-width="1.8" d="M720.38,-464C736.51,-464 752.91,-464 769.14,-464"/>
<polygon fill="#758297" stroke="#758297" stroke-width="1.8" points="769.05,-466.8 777.05,-464 769.05,-461.2 769.05,-466.8"/>
</g>
<!-- n3&#45;&gt;n5 -->
<g id="edge11" class="edge">
<title>n3&#45;&gt;n5</title>
<path fill="none" stroke="#758297" stroke-width="1.8" d="M720.38,-259C736.51,-259 752.91,-259 769.14,-259"/>
<polygon fill="#758297" stroke="#758297" stroke-width="1.8" points="769.05,-261.8 777.05,-259 769.05,-256.2 769.05,-261.8"/>
</g>
<!-- n4&#45;&gt;n5 -->
<g id="edge12" class="edge">
<title>n4&#45;&gt;n5</title>
<path fill="none" stroke="#758297" stroke-width="1.8" d="M950.16,-409.6C950.16,-383.2 950.16,-351.3 950.16,-323.66"/>
<polygon fill="#758297" stroke="#758297" stroke-width="1.8" points="952.96,-324.02 950.16,-316.02 947.36,-324.02 952.96,-324.02"/>
</g>
<!-- n6&#45;&gt;n3 -->
<g id="edge13" class="edge">
<title>n6&#45;&gt;n3</title>
<path fill="none" stroke="#758297" stroke-width="1.8" d="M550.16,-108.4C550.16,-134.8 550.16,-166.7 550.16,-194.34"/>
<polygon fill="#758297" stroke="#758297" stroke-width="1.8" points="547.36,-193.98 550.16,-201.98 552.96,-193.98 547.36,-193.98"/>
</g>
<!-- r1p1&#45;&gt;r1p2 -->
<g id="edge2" class="edge">
<title>r1p1&#45;&gt;r1p2</title>
<path fill="none" stroke="#758297" stroke-width="1.8" d="M345.16,-440.34C345.16,-444.64 345.16,-458.05 345.16,-462.52"/>
</g>
<!-- r1p2&#45;&gt;n2 -->
<g id="edge3" class="edge">
<title>r1p2&#45;&gt;n2</title>
<path fill="none" stroke="#758297" stroke-width="1.8" d="M346.47,-464C349.53,-464 357.79,-464 369.33,-464"/>
<polygon fill="#758297" stroke="#758297" stroke-width="1.8" points="369.03,-466.8 377.03,-464 369.03,-461.2 369.03,-466.8"/>
</g>
<!-- r2p1&#45;&gt;r2p2 -->
<g id="edge5" class="edge">
<title>r2p1&#45;&gt;r2p2</title>
<path fill="none" stroke="#758297" stroke-width="1.8" d="M345.16,-437.44C345.16,-420.81 345.16,-276.16 345.16,-260.39"/>
</g>
<!-- r2p2&#45;&gt;n3 -->
<g id="edge6" class="edge">
<title>r2p2&#45;&gt;n3</title>
<path fill="none" stroke="#758297" stroke-width="1.8" d="M346.47,-259C349.53,-259 357.79,-259 369.33,-259"/>
<polygon fill="#758297" stroke="#758297" stroke-width="1.8" points="369.03,-261.8 377.03,-259 369.03,-256.2 369.03,-261.8"/>
</g>
<!-- r3p1&#45;&gt;r3p2 -->
<g id="edge8" class="edge">
<title>r3p1&#45;&gt;r3p2</title>
<path fill="none" stroke="#758297" stroke-width="1.8" d="M345.16,-187.48C345.16,-173.58 345.16,-68.43 345.16,-55.34"/>
</g>
<!-- r3p2&#45;&gt;n6 -->
<g id="edge9" class="edge">
<title>r3p2&#45;&gt;n6</title>
<path fill="none" stroke="#758297" stroke-width="1.8" d="M346.47,-54C349.53,-54 357.79,-54 369.33,-54"/>
<polygon fill="#758297" stroke="#758297" stroke-width="1.8" points="369.03,-56.8 377.03,-54 369.03,-51.2 369.03,-56.8"/>
</g>
<!-- n0 -->
<g id="node1" class="node">
<title>n0</title>
<path fill="#ffffff" stroke="#5b8def" d="M298.32,-493C298.32,-493 12,-493 12,-493 6,-493 0,-487 0,-481 0,-481 0,-397 0,-397 0,-391 6,-385 12,-385 12,-385 298.32,-385 298.32,-385 304.32,-385 310.32,-391 310.32,-397 310.32,-397 310.32,-481 310.32,-481 310.32,-487 304.32,-493 298.32,-493"/>
<text xml:space="preserve" text-anchor="middle" x="155.16" y="-434.65" font-family="Architects Daughter" font-size="18.00">ConsulEndpoint</text>
</g>
<!-- n1 -->
<g id="node2" class="node">
<title>n1</title>
<path fill="#ffffff" stroke="#58a978" d="M298.32,-243C298.32,-243 12,-243 12,-243 6,-243 0,-237 0,-231 0,-231 0,-147 0,-147 0,-141 6,-135 12,-135 12,-135 298.32,-135 298.32,-135 304.32,-135 310.32,-141 310.32,-147 310.32,-147 310.32,-231 310.32,-231 310.32,-237 304.32,-243 298.32,-243"/>
<text xml:space="preserve" text-anchor="middle" x="155.16" y="-184.65" font-family="Architects Daughter" font-size="18.00">Spring Boot</text>
</g>
<!-- n2 -->
<g id="node3" class="node">
<title>n2</title>
<path fill="#ffffff" stroke="#d6a441" d="M708.08,-518C708.08,-518 392.24,-518 392.24,-518 386.24,-518 380.24,-512 380.24,-506 380.24,-506 380.24,-422 380.24,-422 380.24,-416 386.24,-410 392.24,-410 392.24,-410 708.08,-410 708.08,-410 714.08,-410 720.08,-416 720.08,-422 720.08,-422 720.08,-506 720.08,-506 720.08,-512 714.08,-518 708.08,-518"/>
<text xml:space="preserve" text-anchor="middle" x="550.16" y="-459.65" font-family="Architects Daughter" font-size="18.00">ConsulLeaderElector</text>
</g>
<!-- n3 -->
<g id="node4" class="node">
<title>n3</title>
<path fill="#ffffff" stroke="#dc6b82" d="M708.08,-313C708.08,-313 392.24,-313 392.24,-313 386.24,-313 380.24,-307 380.24,-301 380.24,-301 380.24,-217 380.24,-217 380.24,-211 386.24,-205 392.24,-205 392.24,-205 708.08,-205 708.08,-205 714.08,-205 720.08,-211 720.08,-217 720.08,-217 720.08,-301 720.08,-301 720.08,-307 714.08,-313 708.08,-313"/>
<text xml:space="preserve" text-anchor="middle" x="550.16" y="-254.65" font-family="Architects Daughter" font-size="18.00">ConsulLeaderGroupElector</text>
</g>
<!-- n4 -->
<g id="node5" class="node">
<title>n4</title>
<path fill="#ffffff" stroke="#45a7a1" d="M1108.08,-518C1108.08,-518 792.24,-518 792.24,-518 786.24,-518 780.24,-512 780.24,-506 780.24,-506 780.24,-422 780.24,-422 780.24,-416 786.24,-410 792.24,-410 792.24,-410 1108.08,-410 1108.08,-410 1114.08,-410 1120.08,-416 1120.08,-422 1120.08,-422 1120.08,-506 1120.08,-506 1120.08,-512 1114.08,-518 1108.08,-518"/>
<text xml:space="preserve" text-anchor="middle" x="950.16" y="-459.65" font-family="Architects Daughter" font-size="18.00">Consul Session</text>
</g>
<!-- n5 -->
<g id="node6" class="node">
<title>n5</title>
<path fill="#ffffff" stroke="#8a72d6" d="M1108.08,-313C1108.08,-313 792.24,-313 792.24,-313 786.24,-313 780.24,-307 780.24,-301 780.24,-301 780.24,-217 780.24,-217 780.24,-211 786.24,-205 792.24,-205 792.24,-205 1108.08,-205 1108.08,-205 1114.08,-205 1120.08,-211 1120.08,-217 1120.08,-217 1120.08,-301 1120.08,-301 1120.08,-307 1114.08,-313 1108.08,-313"/>
<text xml:space="preserve" text-anchor="middle" x="950.16" y="-254.65" font-family="Architects Daughter" font-size="18.00">Consul KV</text>
</g>
<!-- n6 -->
<g id="node7" class="node">
<title>n6</title>
<path fill="#ffffff" stroke="#b88a44" d="M708.08,-108C708.08,-108 392.24,-108 392.24,-108 386.24,-108 380.24,-102 380.24,-96 380.24,-96 380.24,-12 380.24,-12 380.24,-6 386.24,0 392.24,0 392.24,0 708.08,0 708.08,0 714.08,0 720.08,-6 720.08,-12 720.08,-12 720.08,-96 720.08,-96 720.08,-102 714.08,-108 708.08,-108"/>
<text xml:space="preserve" text-anchor="middle" x="550.16" y="-49.65" font-family="Architects Daughter" font-size="18.00">Core listeners</text>
</g>
<!-- r1p1 -->
<!-- r1p2 -->
<!-- r2p1 -->
<!-- r2p2 -->
<!-- r3p1 -->
<!-- r3p2 -->
</g>
</svg>
