<?xml version="1.0" encoding="UTF-8" standalone="no"?>
<!DOCTYPE svg PUBLIC "-//W3C//DTD SVG 1.1//EN"
 "http://www.w3.org/Graphics/SVG/1.1/DTD/svg11.dtd">
<!-- Generated by graphviz version 15.0.0 (20260523.1842)
 -->
<!-- Title: leader&#45;dynamodb&#45;architecture&#45;01 Pages: 1 -->
<svg width="1128pt" height="511pt"
 viewBox="0.00 0.00 1128.00 511.00" xmlns="http://www.w3.org/2000/svg" xmlns:xlink="http://www.w3.org/1999/xlink">
<g id="graph0" class="graph" transform="scale(1 1) rotate(0) translate(4 506.5)">
<title>leader&#45;dynamodb&#45;architecture&#45;01</title>
<text xml:space="preserve" text-anchor="middle" x="560.04" y="-485.2" font-family="Times,serif" font-size="14.00">leader dynamodb Architecture</text>
<!-- n0&#45;&gt;r1p1 -->
<g id="edge1" class="edge">
<title>n0&#45;&gt;r1p1</title>
<path fill="none" stroke="#758297" stroke-width="1.8" d="M310.75,-399C327.33,-399 339.68,-399 343.73,-399"/>
</g>
<!-- n0&#45;&gt;r2p1 -->
<g id="edge4" class="edge">
<title>n0&#45;&gt;r2p1</title>
<path fill="none" stroke="#758297" stroke-width="1.8" d="M310.75,-399C327.33,-399 339.68,-399 343.73,-399"/>
</g>
<!-- n1&#45;&gt;r3p1 -->
<g id="edge7" class="edge">
<title>n1&#45;&gt;r3p1</title>
<path fill="none" stroke="#758297" stroke-width="1.8" d="M310.75,-149C327.33,-149 339.68,-149 343.73,-149"/>
</g>
<!-- n2&#45;&gt;r4p1 -->
<g id="edge10" class="edge">
<title>n2&#45;&gt;r4p1</title>
<path fill="none" stroke="#758297" stroke-width="1.8" d="M720.22,-424C734.86,-424 745.48,-424 748.94,-424"/>
</g>
<!-- n3&#45;&gt;r5p1 -->
<g id="edge13" class="edge">
<title>n3&#45;&gt;r5p1</title>
<path fill="none" stroke="#758297" stroke-width="1.8" d="M720.22,-239C734.86,-239 745.48,-239 748.94,-239"/>
</g>
<!-- n4&#45;&gt;r6p1 -->
<g id="edge16" class="edge">
<title>n4&#45;&gt;r6p1</title>
<path fill="none" stroke="#758297" stroke-width="1.8" d="M720.22,-54C734.86,-54 745.48,-54 748.94,-54"/>
</g>
<!-- n5&#45;&gt;n6 -->
<g id="edge19" class="edge">
<title>n5&#45;&gt;n6</title>
<path fill="none" stroke="#758297" stroke-width="1.8" d="M950.16,-279.73C950.16,-237.4 950.16,-178.46 950.16,-133.68"/>
<polygon fill="#758297" stroke="#758297" stroke-width="1.8" points="952.96,-133.92 950.16,-125.92 947.36,-133.92 952.96,-133.92"/>
</g>
<!-- r1p1&#45;&gt;r1p2 -->
<g id="edge2" class="edge">
<title>r1p1&#45;&gt;r1p2</title>
<path fill="none" stroke="#758297" stroke-width="1.8" d="M345.16,-400.34C345.16,-404.64 345.16,-418.05 345.16,-422.52"/>
</g>
<!-- r1p2&#45;&gt;n2 -->
<g id="edge3" class="edge">
<title>r1p2&#45;&gt;n2</title>
<path fill="none" stroke="#758297" stroke-width="1.8" d="M346.47,-424C349.53,-424 357.79,-424 369.33,-424"/>
<polygon fill="#758297" stroke="#758297" stroke-width="1.8" points="369.03,-426.8 377.03,-424 369.03,-421.2 369.03,-426.8"/>
</g>
<!-- r2p1&#45;&gt;r2p2 -->
<g id="edge5" class="edge">
<title>r2p1&#45;&gt;r2p2</title>
<path fill="none" stroke="#758297" stroke-width="1.8" d="M345.16,-397.62C345.16,-382.83 345.16,-254.26 345.16,-240.24"/>
</g>
<!-- r2p2&#45;&gt;n3 -->
<g id="edge6" class="edge">
<title>r2p2&#45;&gt;n3</title>
<path fill="none" stroke="#758297" stroke-width="1.8" d="M346.47,-239C349.53,-239 357.79,-239 369.33,-239"/>
<polygon fill="#758297" stroke="#758297" stroke-width="1.8" points="369.03,-241.8 377.03,-239 369.03,-236.2 369.03,-241.8"/>
</g>
<!-- r3p1&#45;&gt;r3p2 -->
<g id="edge8" class="edge">
<title>r3p1&#45;&gt;r3p2</title>
<path fill="none" stroke="#758297" stroke-width="1.8" d="M345.16,-147.66C345.16,-137.01 345.16,-66.4 345.16,-55.43"/>
</g>
<!-- r3p2&#45;&gt;n4 -->
<g id="edge9" class="edge">
<title>r3p2&#45;&gt;n4</title>
<path fill="none" stroke="#758297" stroke-width="1.8" d="M346.47,-54C349.53,-54 357.79,-54 369.33,-54"/>
<polygon fill="#758297" stroke="#758297" stroke-width="1.8" points="369.03,-56.8 377.03,-54 369.03,-51.2 369.03,-56.8"/>
</g>
<!-- r4p1&#45;&gt;r4p2 -->
<g id="edge11" class="edge">
<title>r4p1&#45;&gt;r4p2</title>
<path fill="none" stroke="#758297" stroke-width="1.8" d="M750.16,-422.44C750.16,-411.42 750.16,-345.56 750.16,-335.33"/>
</g>
<!-- r4p2&#45;&gt;n5 -->
<g id="edge12" class="edge">
<title>r4p2&#45;&gt;n5</title>
<path fill="none" stroke="#758297" stroke-width="1.8" d="M751.44,-334C754.03,-334 760.42,-334 769.41,-334"/>
<polygon fill="#758297" stroke="#758297" stroke-width="1.8" points="769.39,-336.8 777.39,-334 769.39,-331.2 769.39,-336.8"/>
</g>
<!-- r5p1&#45;&gt;r5p2 -->
<g id="edge14" class="edge">
<title>r5p1&#45;&gt;r5p2</title>
<path fill="none" stroke="#758297" stroke-width="1.8" d="M750.16,-240.34C750.16,-250.99 750.16,-321.6 750.16,-332.57"/>
</g>
<!-- r5p2&#45;&gt;n5 -->
<g id="edge15" class="edge">
<title>r5p2&#45;&gt;n5</title>
<path fill="none" stroke="#758297" stroke-width="1.8" d="M751.44,-334C754.03,-334 760.42,-334 769.41,-334"/>
<polygon fill="#758297" stroke="#758297" stroke-width="1.8" points="769.39,-336.8 777.39,-334 769.39,-331.2 769.39,-336.8"/>
</g>
<!-- r6p1&#45;&gt;r6p2 -->
<g id="edge17" class="edge">
<title>r6p1&#45;&gt;r6p2</title>
<path fill="none" stroke="#758297" stroke-width="1.8" d="M750.16,-55.38C750.16,-58.29 750.16,-64.96 750.16,-67.75"/>
</g>
<!-- r6p2&#45;&gt;n6 -->
<g id="edge18" class="edge">
<title>r6p2&#45;&gt;n6</title>
<path fill="none" stroke="#758297" stroke-width="1.8" d="M751.44,-69C754.03,-69 760.42,-69 769.41,-69"/>
<polygon fill="#758297" stroke="#758297" stroke-width="1.8" points="769.39,-71.8 777.39,-69 769.39,-66.2 769.39,-71.8"/>
</g>
<!-- n0 -->
<g id="node1" class="node">
<title>n0</title>
<path fill="#ffffff" stroke="#5b8def" d="M298.32,-453C298.32,-453 12,-453 12,-453 6,-453 0,-447 0,-441 0,-441 0,-357 0,-357 0,-351 6,-345 12,-345 12,-345 298.32,-345 298.32,-345 304.32,-345 310.32,-351 310.32,-357 310.32,-357 310.32,-441 310.32,-441 310.32,-447 304.32,-453 298.32,-453"/>
<text xml:space="preserve" text-anchor="middle" x="155.16" y="-394.65" font-family="Architects Daughter" font-size="18.00">DynamoDbClient</text>
</g>
<!-- n1 -->
<g id="node2" class="node">
<title>n1</title>
<path fill="#ffffff" stroke="#58a978" d="M298.32,-203C298.32,-203 12,-203 12,-203 6,-203 0,-197 0,-191 0,-191 0,-107 0,-107 0,-101 6,-95 12,-95 12,-95 298.32,-95 298.32,-95 304.32,-95 310.32,-101 310.32,-107 310.32,-107 310.32,-191 310.32,-191 310.32,-197 304.32,-203 298.32,-203"/>
<text xml:space="preserve" text-anchor="middle" x="155.16" y="-144.65" font-family="Architects Daughter" font-size="18.00">Spring Boot</text>
</g>
<!-- n2 -->
<g id="node3" class="node">
<title>n2</title>
<path fill="#ffffff" stroke="#d6a441" d="M708.08,-478C708.08,-478 392.24,-478 392.24,-478 386.24,-478 380.24,-472 380.24,-466 380.24,-466 380.24,-382 380.24,-382 380.24,-376 386.24,-370 392.24,-370 392.24,-370 708.08,-370 708.08,-370 714.08,-370 720.08,-376 720.08,-382 720.08,-382 720.08,-466 720.08,-466 720.08,-472 714.08,-478 708.08,-478"/>
<text xml:space="preserve" text-anchor="middle" x="550.16" y="-419.65" font-family="Architects Daughter" font-size="18.00">DynamoDbLeaderElector</text>
</g>
<!-- n3 -->
<g id="node4" class="node">
<title>n3</title>
<path fill="#ffffff" stroke="#dc6b82" d="M708.08,-293C708.08,-293 392.24,-293 392.24,-293 386.24,-293 380.24,-287 380.24,-281 380.24,-281 380.24,-197 380.24,-197 380.24,-191 386.24,-185 392.24,-185 392.24,-185 708.08,-185 708.08,-185 714.08,-185 720.08,-191 720.08,-197 720.08,-197 720.08,-281 720.08,-281 720.08,-287 714.08,-293 708.08,-293"/>
<text xml:space="preserve" text-anchor="middle" x="550.16" y="-234.65" font-family="Architects Daughter" font-size="18.00">DynamoDbLeaderGroupElector</text>
</g>
<!-- n4 -->
<g id="node5" class="node">
<title>n4</title>
<path fill="#ffffff" stroke="#45a7a1" d="M708.08,-108C708.08,-108 392.24,-108 392.24,-108 386.24,-108 380.24,-102 380.24,-96 380.24,-96 380.24,-12 380.24,-12 380.24,-6 386.24,0 392.24,0 392.24,0 708.08,0 708.08,0 714.08,0 720.08,-6 720.08,-12 720.08,-12 720.08,-96 720.08,-96 720.08,-102 714.08,-108 708.08,-108"/>
<text xml:space="preserve" text-anchor="middle" x="550.16" y="-49.65" font-family="Architects Daughter" font-size="18.00">Virtual / Suspend</text>
</g>
<!-- n5 -->
<g id="node6" class="node">
<title>n5</title>
<path fill="#ffffff" stroke="#8a72d6" d="M1108.08,-388C1108.08,-388 792.24,-388 792.24,-388 786.24,-388 780.24,-382 780.24,-376 780.24,-376 780.24,-292 780.24,-292 780.24,-286 786.24,-280 792.24,-280 792.24,-280 1108.08,-280 1108.08,-280 1114.08,-280 1120.08,-286 1120.08,-292 1120.08,-292 1120.08,-376 1120.08,-376 1120.08,-382 1114.08,-388 1108.08,-388"/>
<text xml:space="preserve" text-anchor="middle" x="950.16" y="-329.65" font-family="Architects Daughter" font-size="18.00">DynamoDB lock table</text>
</g>
<!-- n6 -->
<g id="node7" class="node">
<title>n6</title>
<path fill="#ffffff" stroke="#b88a44" d="M1108.08,-123C1108.08,-123 792.24,-123 792.24,-123 786.24,-123 780.24,-117 780.24,-111 780.24,-111 780.24,-27 780.24,-27 780.24,-21 786.24,-15 792.24,-15 792.24,-15 1108.08,-15 1108.08,-15 1114.08,-15 1120.08,-21 1120.08,-27 1120.08,-27 1120.08,-111 1120.08,-111 1120.08,-117 1114.08,-123 1108.08,-123"/>
<text xml:space="preserve" text-anchor="middle" x="950.16" y="-64.65" font-family="Architects Daughter" font-size="18.00">Lock row</text>
</g>
<!-- r1p1 -->
<!-- r1p2 -->
<!-- r2p1 -->
<!-- r2p2 -->
<!-- r3p1 -->
<!-- r3p2 -->
<!-- r4p1 -->
<!-- r4p2 -->
<!-- r5p1 -->
<!-- r5p2 -->
<!-- r6p1 -->
<!-- r6p2 -->
</g>
</svg>
