<svg xmlns="http://www.w3.org/2000/svg" width="1188" height="1440" viewBox="0 0 1188 1440" role="img" aria-label="Group election slot sequence (maxLeaders = N)">
  <metadata id="graphviz-evidence">Regenerated with Graphviz evidence: leader-hazelcast-sequence-03.dot, leader-hazelcast-sequence-03.plain, leader-hazelcast-sequence-03-graphviz.svg via scripts/regenerate-readme-diagram-graphviz-evidence.mjs.</metadata>
<defs>
  <filter id="shadow" x="-8%" y="-8%" width="116%" height="116%"><feDropShadow dx="0" dy="8" stdDeviation="9" flood-color="#1f2937" flood-opacity="0.10"/></filter>
  <marker id="openArrow" markerWidth="12" markerHeight="10" refX="10" refY="5" orient="auto" markerUnits="strokeWidth"><path d="M 1 1 L 10 5 L 1 9" fill="none" stroke="#758297" stroke-width="1.8" stroke-linecap="round" stroke-linejoin="round"/></marker>
  <marker id="inherit" markerWidth="14" markerHeight="12" refX="12" refY="6" orient="auto" markerUnits="strokeWidth"><path d="M 0 1 L 12 6 L 0 11 Z" fill="#ffffff" stroke="#758297" stroke-width="1.8"/></marker>
  <style>
    .canvas{fill:#f7f9fc}.frame{fill:#fff;stroke:#d8e0ea;stroke-width:1.5}
    .title{font-family:"Architects Daughter","Comic Mono","Comic Sans MS","Comic Sans",cursive;font-size:43px;font-weight:400;fill:#102033}
    .subtitle{font-family:"Comic Mono","Comic Sans MS","Comic Sans","Comic Neue",Arial,sans-serif;font-size:15px;font-weight:400;fill:#536273}
    .label{font-family:"Architects Daughter","Comic Mono","Comic Sans MS","Comic Sans",cursive;font-size:25px;font-weight:400;fill:#102033}
    .smallLabel{font-family:"Architects Daughter","Comic Mono","Comic Sans MS","Comic Sans",cursive;font-size:21px;font-weight:400;fill:#102033}
    .mono{font-family:"Comic Mono","Comic Sans MS","Comic Sans","Comic Neue",Arial,sans-serif;font-size:12px;font-weight:400;fill:#102033}
    .small{font-family:"Comic Mono","Comic Sans MS","Comic Sans","Comic Neue",Arial,sans-serif;font-size:12px;font-weight:400;fill:#536273}
    .strong{font-family:"Comic Mono","Comic Sans MS","Comic Sans","Comic Neue",Arial,sans-serif;font-size:13px;font-weight:400;fill:#102033}
    .card{stroke-width:2.1;filter:url(#shadow)}.compartment{stroke-width:1.5;fill:none}
    .line{stroke:#758297;stroke-width:2.1;fill:none;marker-end:url(#openArrow)}
    .plainLine{stroke:#758297;stroke-width:2.1;fill:none}
    .dashed{stroke:#758297;stroke-width:2.1;stroke-dasharray:7 6;fill:none;marker-end:url(#openArrow)}
    .inheritLine{stroke:#758297;stroke-width:2.2;fill:none;marker-end:url(#inherit)}
    .implLine{stroke:#758297;stroke-width:2.2;stroke-dasharray:8 7;fill:none;marker-end:url(#inherit)}
  </style>
</defs>
<rect class="canvas" width="1188" height="1440"/>
<rect class="frame" x="32" y="28" width="1124" height="1384" rx="28"/>
<text class="title" x="66" y="82">Group election slot sequence</text>
<text class="subtitle" x="70" y="118">Sequence messages from the original Mermaid source</text>
<rect class="card" x="80" y="166" width="230" height="72" rx="12" fill="#E8F3FF" stroke="#5B8DEF"/>
<text class="smallLabel" x="195" y="209" text-anchor="middle">Caller</text>
<line class="lifeline" x1="195" y1="252" x2="195" y2="1380" stroke="#b7c2d1" stroke-width="2" stroke-dasharray="10 10"/>
<rect class="card" x="479" y="166" width="230" height="72" rx="12" fill="#EAF7EF" stroke="#58A978"/>
<text class="smallLabel" x="594" y="209" text-anchor="middle">GroupElection</text>
<line class="lifeline" x1="594" y1="252" x2="594" y2="1380" stroke="#b7c2d1" stroke-width="2" stroke-dasharray="10 10"/>
<rect class="card" x="878" y="166" width="230" height="72" rx="12" fill="#FFF3D9" stroke="#D6A441"/>
<text class="smallLabel" x="993" y="209" text-anchor="middle">IMap</text>
<line class="lifeline" x1="993" y1="252" x2="993" y2="1380" stroke="#b7c2d1" stroke-width="2" stroke-dasharray="10 10"/>
<rect x="279.5" y="286" width="230" height="40" rx="67" fill="#ffffff" opacity="0.97"/>
<text class="strong" x="297.5" y="313" text-anchor="start">1. runIfLeader(lockName)</text>
<path class="line" d="M195 332 L594 332"/>
<rect x="125" y="396" width="938" height="40" rx="71" fill="#F7F1E7" stroke="#B88A44" stroke-width="1.6" opacity="0.96"/>
<text class="strong" x="147" y="423" text-anchor="start">LOOP: slot = 0..N-1</text>
<rect x="569.5" y="464" width="448" height="40" rx="67" fill="#ffffff" opacity="0.97"/>
<text class="strong" x="587.5" y="491" text-anchor="start">3. putIfAbsent(lockName:slot:i, token, leaseTimeMs)</text>
<path class="line" d="M594 510 L993 510"/>
<rect x="125" y="574" width="938" height="40" rx="71" fill="#F7F1E7" stroke="#B88A44" stroke-width="1.6" opacity="0.96"/>
<text class="strong" x="147" y="601" text-anchor="start">ALT: slot acquired</text>
<rect x="688.5" y="642" width="210" height="40" rx="67" fill="#ffffff" opacity="0.97"/>
<text class="strong" x="706.5" y="669" text-anchor="start">5. null</text>
<path class="dashed" d="M993 688 L594 688"/>
<rect x="289.5" y="752" width="210" height="40" rx="67" fill="#ffffff" opacity="0.97"/>
<text class="strong" x="307.5" y="779" text-anchor="start">6. action()</text>
<path class="line" d="M594 798 L195 798"/>
<rect x="289.5" y="862" width="210" height="40" rx="67" fill="#ffffff" opacity="0.97"/>
<text class="strong" x="307.5" y="889" text-anchor="start">7. result</text>
<path class="dashed" d="M195 908 L594 908"/>
<rect x="642.5" y="972" width="302" height="40" rx="67" fill="#ffffff" opacity="0.97"/>
<text class="strong" x="660.5" y="999" text-anchor="start">8. remove(lockName:slot:i, token)</text>
<path class="line" d="M594 1018 L993 1018"/>
<rect x="289.5" y="1082" width="210" height="40" rx="67" fill="#ffffff" opacity="0.97"/>
<text class="strong" x="307.5" y="1109" text-anchor="start">9. result</text>
<path class="dashed" d="M594 1128 L195 1128"/>
<rect x="125" y="1192" width="938" height="40" rx="71" fill="#F7F1E7" stroke="#B88A44" stroke-width="1.6" opacity="0.96"/>
<text class="strong" x="147" y="1219" text-anchor="start">ELSE: slot busy</text>
<rect x="688.5" y="1260" width="210" height="40" rx="67" fill="#ffffff" opacity="0.97"/>
<text class="strong" x="706.5" y="1287" text-anchor="start">11. existingToken</text>
<path class="dashed" d="M993 1306 L594 1306"/>
</svg>
