<svg xmlns="http://www.w3.org/2000/svg" width="1360" height="800" viewBox="0 0 1360 800" role="img" aria-label="leader spring boot Architecture">
  <metadata id="graphviz-evidence">Regenerated with Graphviz evidence: leader-spring-boot-architecture-01.dot, leader-spring-boot-architecture-01.plain, leader-spring-boot-architecture-01-graphviz.svg via scripts/regenerate-readme-diagram-graphviz-evidence.mjs.</metadata>
<defs>
  <filter id="shadow" x="-8%" y="-8%" width="116%" height="116%"><feDropShadow dx="0" dy="8" stdDeviation="9" flood-color="#1f2937" flood-opacity="0.10"/></filter>
  <marker id="openArrow" markerWidth="12" markerHeight="10" refX="10" refY="5" orient="auto" markerUnits="strokeWidth"><path d="M 1 1 L 10 5 L 1 9" fill="none" stroke="#758297" stroke-width="1.8" stroke-linecap="round" stroke-linejoin="round"/></marker>
  <style>
    .canvas{fill:#f7f9fc}.frame{fill:#fff;stroke:#d8e0ea;stroke-width:1.5}
    .title{font-family:"Architects Daughter","Comic Mono","Comic Sans MS","Comic Sans",cursive;font-size:43px;font-weight:400;fill:#102033}
    .subtitle{font-family:"Comic Mono","Comic Sans MS","Comic Sans","Comic Neue",Arial,sans-serif;font-size:15px;font-weight:400;fill:#536273}
    .smallLabel{font-family:"Architects Daughter","Comic Mono","Comic Sans MS","Comic Sans",cursive;font-size:21px;font-weight:400;fill:#102033}
    .mono{font-family:"Comic Mono","Comic Sans MS","Comic Sans","Comic Neue",Arial,sans-serif;font-size:12px;font-weight:400;fill:#102033}
    .card{stroke-width:2.1;filter:url(#shadow)}
    .line{stroke:#758297;stroke-width:2.1;fill:none;marker-end:url(#openArrow)}

    .layerBand{fill-opacity:0.45;stroke-width:1.4;stroke-dasharray:9 7}
    .layerLabel{font-family:"Architects Daughter","Comic Mono","Comic Sans MS","Comic Sans",cursive;font-size:19px;font-weight:400;fill:#536273}
  </style>
</defs>
<rect class="canvas" width="1360" height="800"/>
<rect class="frame" x="32" y="28" width="1296" height="744" rx="28"/>
<text class="title" x="66" y="82">leader spring boot Architecture</text>
<text class="subtitle" x="70" y="118">Properties and auto-configuration select backend factories before woven leader aspects execute</text>
<g id="layer-bands" aria-label="Layer bands">
  <g data-layer="Configuration Properties">
    <rect class="layerBand" x="40" y="136" width="1280" height="158" rx="18" fill="#EEF6FF" stroke="#9BC4F8"/>
    <text class="layerLabel" x="58" y="163">Configuration Properties</text>
  </g>
  <g data-layer="Auto Configuration">
    <rect class="layerBand" x="40" y="306" width="1280" height="148" rx="18" fill="#EEF8F1" stroke="#A5D6B7"/>
    <text class="layerLabel" x="58" y="333">Auto Configuration</text>
  </g>
  <g data-layer="Runtime AOP Execution">
    <rect class="layerBand" x="40" y="496" width="1280" height="238" rx="18" fill="#FFF7E8" stroke="#E3BE70"/>
    <text class="layerLabel" x="58" y="523">Runtime AOP Execution</text>
  </g>
</g>

<path class="line" d="M370 214 L430 214"/>
<path class="line" d="M750 214 L790 214 L790 219 L830 219"/>
<path class="line" d="M370 384 L430 384"/>
<path class="line" d="M370 574 L400 574 L400 384 L430 384"/>
<path class="line" d="M750 384 L830 384"/>
<path class="line" d="M590 438 L590 600"/>
<path class="line" d="M980 438 L980 560 L1010 560 L1010 600"/>
<path class="line" d="M750 654 L790 654 L790 659 L830 659"/>
<path class="line" d="M1010 278 L1010 300 L1230 300 L1230 659 L1190 659"/>
<path class="line" d="M430 214 L400 214 L400 574 L370 574"/>
<g id="leaderProps" transform="translate(70,160)">
  <rect class="card" x="0" y="0" width="300" height="108" rx="14" fill="#E8F3FF" stroke="#5B8DEF"/>
  <text class="smallLabel" x="150" y="39" text-anchor="middle">LeaderProperties</text>
  <text class="smallLabel" x="150" y="66" text-anchor="middle">bluetape4k.leader.*</text>
</g>
<g id="factoryAuto" transform="translate(430,160)">
  <rect class="card" x="0" y="0" width="320" height="108" rx="14" fill="#EAF7EF" stroke="#58A978"/>
  <text class="smallLabel" x="160" y="39" text-anchor="middle">Leader Aop Factory</text>
  <text class="smallLabel" x="160" y="66" text-anchor="middle">Auto Configuration</text>
</g>
<g id="electorFactory" transform="translate(830,160)">
  <rect class="card" x="0" y="0" width="360" height="118" rx="14" fill="#FFF3D9" stroke="#D6A441"/>
  <text class="smallLabel" x="180" y="31" text-anchor="middle">LeaderElectorFactory</text>
  <text class="smallLabel" x="180" y="58" text-anchor="middle">Leader Group Elector</text>
  <text class="smallLabel" x="180" y="83" text-anchor="middle">Factory Suspend</text>
</g>
<g id="aopProps" transform="translate(70,330)">
  <rect class="card" x="0" y="0" width="300" height="108" rx="14" fill="#FDECEF" stroke="#DC6B82"/>
  <text class="smallLabel" x="150" y="39" text-anchor="middle">LeaderAopProperties</text>
  <text class="smallLabel" x="150" y="66" text-anchor="middle">bluetape4k.leader.aop.*</text>
</g>
<g id="aopAuto" transform="translate(430,330)">
  <rect class="card" x="0" y="0" width="320" height="108" rx="14" fill="#E9F7F6" stroke="#45A7A1"/>
  <text class="smallLabel" x="160" y="39" text-anchor="middle">Leader Aop Auto</text>
  <text class="smallLabel" x="160" y="66" text-anchor="middle">Configuration</text>
</g>
<g id="selector" transform="translate(830,330)">
  <rect class="card" x="0" y="0" width="300" height="108" rx="14" fill="#F1ECFF" stroke="#8A72D6"/>
  <text class="smallLabel" x="150" y="54" text-anchor="middle">LeaderBeanSelector</text>
</g>
<g id="micrometer" transform="translate(70,520)">
  <rect class="card" x="0" y="0" width="300" height="108" rx="14" fill="#F7F1E7" stroke="#B88A44"/>
  <text class="smallLabel" x="150" y="39" text-anchor="middle">Leader Micrometer</text>
  <text class="smallLabel" x="150" y="66" text-anchor="middle">Auto Configuration</text>
</g>
<g id="spel" transform="translate(430,600)">
  <rect class="card" x="0" y="0" width="320" height="108" rx="14" fill="#EEF6D9" stroke="#8BA84D"/>
  <text class="smallLabel" x="160" y="39" text-anchor="middle">Spel Expression</text>
  <text class="smallLabel" x="160" y="66" text-anchor="middle">Evaluator</text>
</g>
<g id="aspects" transform="translate(830,600)">
  <rect class="card" x="0" y="0" width="360" height="118" rx="14" fill="#F2F5F9" stroke="#7B8798"/>
  <text class="smallLabel" x="180" y="31" text-anchor="middle">LeaderElectionAspect</text>
  <text class="smallLabel" x="180" y="58" text-anchor="middle">Leader Group</text>
  <text class="smallLabel" x="180" y="83" text-anchor="middle">Election Aspect</text>
</g>
</svg>
