<svg xmlns="http://www.w3.org/2000/svg" width="1468" height="1644" viewBox="0 0 1468 1644" role="img" aria-label="Scenario 1 — Normal acquire/release plus crash recovery">
  <metadata id="graphviz-evidence">Regenerated with Graphviz evidence: leader-redis-lettuce-sequence-02.dot, leader-redis-lettuce-sequence-02.plain, leader-redis-lettuce-sequence-02-graphviz.svg via scripts/regenerate-readme-diagram-graphviz-evidence.mjs.</metadata>
<defs>
  <filter id="shadow" x="-8%" y="-8%" width="116%" height="116%"><feDropShadow dx="0" dy="8" stdDeviation="9" flood-color="#1f2937" flood-opacity="0.10"/></filter>
  <marker id="openArrow" markerWidth="12" markerHeight="10" refX="10" refY="5" orient="auto" markerUnits="strokeWidth"><path d="M 1 1 L 10 5 L 1 9" fill="none" stroke="#758297" stroke-width="1.8" stroke-linecap="round" stroke-linejoin="round"/></marker>
  <marker id="inherit" markerWidth="14" markerHeight="12" refX="12" refY="6" orient="auto" markerUnits="strokeWidth"><path d="M 0 1 L 12 6 L 0 11 Z" fill="#ffffff" stroke="#758297" stroke-width="1.8"/></marker>
  <style>
    .canvas{fill:#f7f9fc}.frame{fill:#fff;stroke:#d8e0ea;stroke-width:1.5}
    .title{font-family:"Architects Daughter","Comic Mono","Comic Sans MS","Comic Sans",cursive;font-size:43px;font-weight:400;fill:#102033}
    .subtitle{font-family:"Comic Mono","Comic Sans MS","Comic Sans","Comic Neue",Arial,sans-serif;font-size:15px;font-weight:400;fill:#536273}
    .label{font-family:"Architects Daughter","Comic Mono","Comic Sans MS","Comic Sans",cursive;font-size:25px;font-weight:400;fill:#102033}
    .smallLabel{font-family:"Architects Daughter","Comic Mono","Comic Sans MS","Comic Sans",cursive;font-size:21px;font-weight:400;fill:#102033}
    .mono{font-family:"Comic Mono","Comic Sans MS","Comic Sans","Comic Neue",Arial,sans-serif;font-size:12px;font-weight:400;fill:#102033}
    .small{font-family:"Comic Mono","Comic Sans MS","Comic Sans","Comic Neue",Arial,sans-serif;font-size:12px;font-weight:400;fill:#536273}
    .strong{font-family:"Comic Mono","Comic Sans MS","Comic Sans","Comic Neue",Arial,sans-serif;font-size:13px;font-weight:400;fill:#102033}
    .card{stroke-width:2.1;filter:url(#shadow)}.compartment{stroke-width:1.5;fill:none}
    .line{stroke:#758297;stroke-width:2.1;fill:none;marker-end:url(#openArrow)}
    .plainLine{stroke:#758297;stroke-width:2.1;fill:none}
    .dashed{stroke:#758297;stroke-width:2.1;stroke-dasharray:7 6;fill:none;marker-end:url(#openArrow)}
    .inheritLine{stroke:#758297;stroke-width:2.2;fill:none;marker-end:url(#inherit)}
    .implLine{stroke:#758297;stroke-width:2.2;stroke-dasharray:8 7;fill:none;marker-end:url(#inherit)}
  </style>
  <!-- semantic lock-state route markers -->
  <marker id="semanticArrow-neutral" markerWidth="8" markerHeight="8" refX="7" refY="4" orient="auto" markerUnits="strokeWidth"><path d="M 1 1 L 7 4 L 1 7" fill="none" stroke="#758297" stroke-width="1.9" stroke-linecap="round" stroke-linejoin="round"/></marker>
  <marker id="semanticArrow-leader" markerWidth="8" markerHeight="8" refX="7" refY="4" orient="auto" markerUnits="strokeWidth"><path d="M 1 1 L 7 4 L 1 7" fill="none" stroke="#43A76B" stroke-width="1.9" stroke-linecap="round" stroke-linejoin="round"/></marker>
  <marker id="semanticArrow-skipped" markerWidth="8" markerHeight="8" refX="7" refY="4" orient="auto" markerUnits="strokeWidth"><path d="M 1 1 L 7 4 L 1 7" fill="none" stroke="#EF5B7A" stroke-width="1.9" stroke-linecap="round" stroke-linejoin="round"/></marker>
  <marker id="semanticArrow-contention" markerWidth="8" markerHeight="8" refX="7" refY="4" orient="auto" markerUnits="strokeWidth"><path d="M 1 1 L 7 4 L 1 7" fill="none" stroke="#D99A2B" stroke-width="1.9" stroke-linecap="round" stroke-linejoin="round"/></marker>
  <marker id="semanticArrow-reacquire" markerWidth="8" markerHeight="8" refX="7" refY="4" orient="auto" markerUnits="strokeWidth"><path d="M 1 1 L 7 4 L 1 7" fill="none" stroke="#8B6EEB" stroke-width="1.9" stroke-linecap="round" stroke-linejoin="round"/></marker>
  <!-- /semantic lock-state route markers -->
</defs>
<rect class="canvas" width="1468" height="1644"/>
<rect class="frame" x="32" y="28" width="1404" height="1588" rx="28"/>
<text class="title" x="66" y="82">Scenario 1 — Normal acquire/release plus cra.</text>
<text class="subtitle" x="70" y="118">Sequence messages from the original Mermaid source</text>
<rect class="card" x="80" y="166" width="300" height="72" rx="12" fill="#E8F3FF" stroke="#5B8DEF"/>
<text class="smallLabel" x="230" y="209" text-anchor="middle">ClientA</text>
<line class="lifeline" x1="230" y1="252" x2="230" y2="1584" stroke="#b7c2d1" stroke-width="2" stroke-dasharray="10 10"/>
<rect class="card" x="584" y="166" width="300" height="72" rx="12" fill="#EAF7EF" stroke="#58A978"/>
<text class="smallLabel" x="734" y="209" text-anchor="middle">ClientB</text>
<line class="lifeline" x1="734" y1="252" x2="734" y2="1584" stroke="#b7c2d1" stroke-width="2" stroke-dasharray="10 10"/>
<rect class="card" x="1088" y="166" width="300" height="72" rx="12" fill="#FFF3D9" stroke="#D6A441"/>
<text class="smallLabel" x="1238" y="198.5" text-anchor="middle">Redis</text>
<text class="smallLabel" x="1238" y="219.5" text-anchor="middle">(lg:{lockName}</text>
<line class="lifeline" x1="1238" y1="252" x2="1238" y2="1584" stroke="#b7c2d1" stroke-width="2" stroke-dasharray="10 10"/>
<rect x="490" y="286" width="488" height="40" rx="102" fill="#ffffff" opacity="0.97"/>
<text class="strong" x="508" y="313" text-anchor="start" style="fill:#43A76B">1. EVALSHA ACQUIRE (maxLeaders=2, token=A1, leaseMs=10s)</text>
<path class="line" d="M230 332 L1238 332" data-route-tone="leader" style="stroke:#43A76B;marker-end:url(#semanticArrow-leader)"/>
<rect x="758" y="360" width="560" height="62" rx="102" fill="#ffffff" opacity="0.97"/>
<text class="strong" x="776" y="387" text-anchor="start">2. TIME -&gt; nowMs ZREMRANGEBYSCORE 0 nowMs ZCARD &lt; maxLeaders ZADD</text>
<text class="strong" x="776" y="409" text-anchor="start" style="fill:#43A76B">score=(nowMs+10s) member=A1 PEXPIRE key (15s)</text>
<path class="line" d="M1238 440 C1302 440 1302 474 1238 474" data-route-tone="leader" style="stroke:#43A76B;marker-end:url(#semanticArrow-leader)"/>
<rect x="629" y="502" width="210" height="40" rx="102" fill="#ffffff" opacity="0.97"/>
<text class="strong" x="647" y="529" text-anchor="start" style="fill:#43A76B">3. token A1</text>
<path class="dashed" d="M1238 548 L230 548" data-route-tone="leader" style="stroke:#43A76B;marker-end:url(#semanticArrow-leader)"/>
<rect x="173" y="576" width="210" height="40" rx="102" fill="#ffffff" opacity="0.97"/>
<text class="strong" x="191" y="603" text-anchor="start" style="fill:#43A76B">4. action() running</text>
<path class="line" d="M230 622 C294 622 294 656 230 656" data-route-tone="leader" style="stroke:#43A76B;marker-end:url(#semanticArrow-leader)"/>
<rect x="851" y="684" width="270" height="40" rx="102" fill="#ffffff" opacity="0.97"/>
<text class="strong" x="869" y="711" text-anchor="start" style="fill:#43A76B">5. EVALSHA ACQUIRE (token=B1)</text>
<path class="line" d="M734 730 L1238 730" data-route-tone="leader" style="stroke:#43A76B;marker-end:url(#semanticArrow-leader)"/>
<rect x="881" y="758" width="210" height="40" rx="102" fill="#ffffff" opacity="0.97"/>
<text class="strong" x="899" y="785" text-anchor="start" style="fill:#43A76B">6. token B1 (slot 2)</text>
<path class="dashed" d="M1238 804 L734 804" data-route-tone="leader" style="stroke:#43A76B;marker-end:url(#semanticArrow-leader)"/>
<rect x="530.5" y="832" width="407" height="40" rx="102" fill="#ffffff" opacity="0.97"/>
<text class="strong" x="548.5" y="859" text-anchor="start" style="fill:#D99A2B">7. EVALSHA RELEASE (A1, remainingMinLeaseMs=0)</text>
<path class="line" d="M230 878 L1238 878" data-route-tone="contention" style="stroke:#D99A2B;marker-end:url(#semanticArrow-contention)"/>
<rect x="1088" y="906" width="230" height="40" rx="102" fill="#ffffff" opacity="0.97"/>
<text class="strong" x="1106" y="933" text-anchor="start" style="fill:#D99A2B">8. ZREM lg:{lockName} A1</text>
<path class="line" d="M1238 952 C1302 952 1302 986 1238 986" data-route-tone="contention" style="stroke:#D99A2B;marker-end:url(#semanticArrow-contention)"/>
<rect x="629" y="1014" width="210" height="40" rx="102" fill="#ffffff" opacity="0.97"/>
<text class="strong" x="647" y="1041" text-anchor="start" style="fill:#D99A2B">9. 1</text>
<path class="dashed" d="M1238 1060 L230 1060" data-route-tone="contention" style="stroke:#D99A2B;marker-end:url(#semanticArrow-contention)"/>
<rect x="546.5" y="1088" width="375" height="40" rx="102" fill="#ffffff" opacity="0.97"/>
<text class="strong" x="564.5" y="1115" text-anchor="start" style="fill:#8B6EEB">10. EVALSHA ACQUIRE (token=A2, leaseMs=2s)</text>
<path class="line" d="M230 1134 L1238 1134" data-route-tone="reacquire" style="stroke:#8B6EEB;marker-end:url(#semanticArrow-reacquire)"/>
<rect x="629" y="1162" width="210" height="40" rx="102" fill="#ffffff" opacity="0.97"/>
<text class="strong" x="647" y="1189" text-anchor="start" style="fill:#8B6EEB">11. token A2</text>
<path class="dashed" d="M1238 1208 L230 1208" data-route-tone="reacquire" style="stroke:#8B6EEB;marker-end:url(#semanticArrow-reacquire)"/>
<rect x="163" y="1236" width="230" height="40" rx="102" fill="#ffffff" opacity="0.97"/>
<text class="strong" x="181" y="1263" text-anchor="start" style="fill:#D99A2B">12. crash before release</text>
<path class="line" d="M230 1282 C294 1282 294 1316 230 1316" data-route-tone="contention" style="stroke:#D99A2B;marker-end:url(#semanticArrow-contention)"/>
<rect x="847" y="1344" width="278" height="40" rx="102" fill="#ffffff" opacity="0.97"/>
<text class="strong" x="865" y="1371" text-anchor="start" style="fill:#8B6EEB">13. EVALSHA ACQUIRE (token=B3)</text>
<path class="line" d="M734 1390 L1238 1390" data-route-tone="reacquire" style="stroke:#8B6EEB;marker-end:url(#semanticArrow-reacquire)"/>
<rect x="943" y="1418" width="375" height="40" rx="102" fill="#ffffff" opacity="0.97"/>
<text class="strong" x="961" y="1445" text-anchor="start" style="fill:#8B6EEB">14. ZREMRANGEBYSCORE -&gt; A2 evicted ZADD B3</text>
<path class="line" d="M1238 1464 C1302 1464 1302 1498 1238 1498" data-route-tone="reacquire" style="stroke:#8B6EEB;marker-end:url(#semanticArrow-reacquire)"/>
<rect x="851" y="1526" width="270" height="40" rx="102" fill="#ffffff" opacity="0.97"/>
<text class="strong" x="869" y="1553" text-anchor="start" style="fill:#8B6EEB">15. token B3 (auto-recovered)</text>
<path class="dashed" d="M1238 1572 L734 1572" data-route-tone="reacquire" style="stroke:#8B6EEB;marker-end:url(#semanticArrow-reacquire)"/>
</svg>
