<?xml version="1.0" encoding="UTF-8" standalone="no"?>
<!DOCTYPE svg PUBLIC "-//W3C//DTD SVG 1.1//EN"
 "http://www.w3.org/Graphics/SVG/1.1/DTD/svg11.dtd">
<!-- Generated by graphviz version 15.0.0 (20260523.1842)
 -->
<!-- Title: leader&#45;redis&#45;redisson&#45;sequence&#45;03 Pages: 1 -->
<svg width="1036pt" height="411pt"
 viewBox="0.00 0.00 1036.00 411.00" xmlns="http://www.w3.org/2000/svg" xmlns:xlink="http://www.w3.org/1999/xlink">
<g id="graph0" class="graph" transform="scale(1 1) rotate(0) translate(4 406.5)">
<title>leader&#45;redis&#45;redisson&#45;sequence&#45;03</title>
<text xml:space="preserve" text-anchor="middle" x="513.84" y="-385.2" font-family="Times,serif" font-size="14.00">Scenario 2 — minLeaseTime via update.</text>
<!-- n0&#45;&gt;n2 -->
<g id="edge1" class="edge">
<title>n0&#45;&gt;n2</title>
<path fill="none" stroke="#758297" stroke-width="1.8" d="M91.87,-349.36C91.87,-357.1 91.87,-363 91.87,-363 91.87,-363 889.87,-363 889.87,-363 889.87,-363 889.87,-360.08 889.87,-360.08"/>
<polygon fill="#758297" stroke="#758297" stroke-width="1.8" points="892.67,-360.08 889.87,-352.08 887.07,-360.08 892.67,-360.08"/>
</g>
<!-- n0&#45;&gt;n2 -->
<g id="edge6" class="edge">
<title>n0&#45;&gt;n2</title>
<path fill="none" stroke="#758297" stroke-width="1.8" d="M45.94,-349.43C45.94,-361.07 45.94,-371 45.94,-371 45.94,-371 935.81,-371 935.81,-371 935.81,-371 935.81,-360.16 935.81,-360.16"/>
<polygon fill="#758297" stroke="#758297" stroke-width="1.8" points="938.61,-360.16 935.81,-352.16 933.01,-360.16 938.61,-360.16"/>
</g>
<!-- n0&#45;&gt;r3p1 -->
<g id="edge3" class="edge">
<title>n0&#45;&gt;r3p1</title>
<path fill="none" stroke="#758297" stroke-width="1.8" d="M178.84,-276.74C178.84,-205.5 178.84,-53 178.84,-36.53"/>
</g>
<!-- n1&#45;&gt;n2 -->
<g id="edge8" class="edge">
<title>n1&#45;&gt;n2</title>
<path fill="none" stroke="#758297" stroke-width="1.8" d="M628.98,-291C628.98,-291 786.82,-291 786.82,-291"/>
<polygon fill="#758297" stroke="#758297" stroke-width="1.8" points="786.82,-293.8 794.82,-291 786.82,-288.2 786.82,-293.8"/>
</g>
<!-- n1&#45;&gt;n2 -->
<g id="edge10" class="edge">
<title>n1&#45;&gt;n2</title>
<path fill="none" stroke="#758297" stroke-width="1.8" d="M628.98,-306C628.98,-306 786.82,-306 786.82,-306"/>
<polygon fill="#758297" stroke="#758297" stroke-width="1.8" points="786.82,-308.8 794.82,-306 786.82,-303.2 786.82,-308.8"/>
</g>
<!-- n2&#45;&gt;n0 -->
<g id="edge2" class="edge">
<title>n2&#45;&gt;n0</title>
<path fill="none" stroke="#758297" stroke-width="1.8" stroke-dasharray="5,2" d="M981.74,-349.34C981.74,-364.21 981.74,-378 981.74,-378 981.74,-378 137.81,-378 137.81,-378 137.81,-378 137.81,-360.06 137.81,-360.06"/>
<polygon fill="#758297" stroke="#758297" stroke-width="1.8" points="140.61,-360.06 137.81,-352.06 135.01,-360.06 140.61,-360.06"/>
</g>
<!-- n2&#45;&gt;n0 -->
<g id="edge7" class="edge">
<title>n2&#45;&gt;n0</title>
<path fill="none" stroke="#758297" stroke-width="1.8" stroke-dasharray="5,2" d="M843.94,-349.29C843.94,-353.32 843.94,-356 843.94,-356 843.94,-356 183.74,-356 183.74,-356 183.74,-356 183.74,-355.33 183.74,-355.33"/>
<polygon fill="#758297" stroke="#758297" stroke-width="1.8" points="186.54,-360.02 183.74,-352.02 180.94,-360.02 186.54,-360.02"/>
</g>
<!-- n2&#45;&gt;n1 -->
<g id="edge9" class="edge">
<title>n2&#45;&gt;n1</title>
<path fill="none" stroke="#758297" stroke-width="1.8" stroke-dasharray="5,2" d="M797.7,-335C797.7,-335 639.86,-335 639.86,-335"/>
<polygon fill="#758297" stroke="#758297" stroke-width="1.8" points="639.86,-332.2 631.86,-335 639.86,-337.8 639.86,-332.2"/>
</g>
<!-- n2&#45;&gt;n1 -->
<g id="edge11" class="edge">
<title>n2&#45;&gt;n1</title>
<path fill="none" stroke="#758297" stroke-width="1.8" stroke-dasharray="5,2" d="M797.7,-320C797.7,-320 639.86,-320 639.86,-320"/>
<polygon fill="#758297" stroke="#758297" stroke-width="1.8" points="639.86,-317.2 631.86,-320 639.86,-322.8 639.86,-317.2"/>
</g>
<!-- r3p1&#45;&gt;r3p2 -->
<g id="edge4" class="edge">
<title>r3p1&#45;&gt;r3p2</title>
<path fill="none" stroke="#758297" stroke-width="1.8" d="M178.84,-33.62C178.84,-28.03 178.84,-8.02 178.84,-2.5"/>
</g>
<!-- r3p2&#45;&gt;n0 -->
<g id="edge5" class="edge">
<title>r3p2&#45;&gt;n0</title>
<path fill="none" stroke="#758297" stroke-width="1.8" d="M180.24,-1C185.63,-1 204.8,-1 204.8,-1 204.8,-1 204.8,-265.95 204.8,-265.95"/>
<polygon fill="#758297" stroke="#758297" stroke-width="1.8" points="202,-265.95 204.8,-273.95 207.6,-265.95 202,-265.95"/>
</g>
<!-- n0 -->
<g id="node1" class="node">
<title>n0</title>
<path fill="#ffffff" stroke="#5b8def" d="M217.68,-349.08C217.68,-349.08 12,-349.08 12,-349.08 6,-349.08 0,-343.08 0,-337.08 0,-337.08 0,-289.08 0,-289.08 0,-283.08 6,-277.08 12,-277.08 12,-277.08 217.68,-277.08 217.68,-277.08 223.68,-277.08 229.68,-283.08 229.68,-289.08 229.68,-289.08 229.68,-337.08 229.68,-337.08 229.68,-343.08 223.68,-349.08 217.68,-349.08"/>
<text xml:space="preserve" text-anchor="middle" x="114.84" y="-308.73" font-family="Architects Daughter" font-size="18.00">ClientA</text>
</g>
<!-- n1 -->
<g id="node2" class="node">
<title>n1</title>
<path fill="#ffffff" stroke="#58a978" d="M616.68,-349.08C616.68,-349.08 411,-349.08 411,-349.08 405,-349.08 399,-343.08 399,-337.08 399,-337.08 399,-289.08 399,-289.08 399,-283.08 405,-277.08 411,-277.08 411,-277.08 616.68,-277.08 616.68,-277.08 622.68,-277.08 628.68,-283.08 628.68,-289.08 628.68,-289.08 628.68,-337.08 628.68,-337.08 628.68,-343.08 622.68,-349.08 616.68,-349.08"/>
<text xml:space="preserve" text-anchor="middle" x="513.84" y="-308.73" font-family="Architects Daughter" font-size="18.00">ClientB</text>
</g>
<!-- n2 -->
<g id="node3" class="node">
<title>n2</title>
<path fill="#ffffff" stroke="#d6a441" d="M1015.68,-349.08C1015.68,-349.08 810,-349.08 810,-349.08 804,-349.08 798,-343.08 798,-337.08 798,-337.08 798,-289.08 798,-289.08 798,-283.08 804,-277.08 810,-277.08 810,-277.08 1015.68,-277.08 1015.68,-277.08 1021.68,-277.08 1027.68,-283.08 1027.68,-289.08 1027.68,-289.08 1027.68,-337.08 1027.68,-337.08 1027.68,-343.08 1021.68,-349.08 1015.68,-349.08"/>
<text xml:space="preserve" text-anchor="middle" x="912.84" y="-308.73" font-family="Architects Daughter" font-size="18.00">Redis</text>
</g>
<!-- r3p1 -->
<!-- r3p2 -->
</g>
</svg>
