<svg xmlns="http://www.w3.org/2000/svg" width="1468" height="2046" viewBox="0 0 1468 2046" role="img" aria-label="Scenario 1 — Normal acquire/release plus crash recovery">
  <metadata id="graphviz-evidence">Regenerated with Graphviz evidence: leader-redis-redisson-sequence-02.dot, leader-redis-redisson-sequence-02.plain, leader-redis-redisson-sequence-02-graphviz.svg via scripts/regenerate-readme-diagram-graphviz-evidence.mjs.</metadata>
<defs>
  <filter id="shadow" x="-8%" y="-8%" width="116%" height="116%"><feDropShadow dx="0" dy="8" stdDeviation="9" flood-color="#1f2937" flood-opacity="0.10"/></filter>
  <marker id="openArrow" markerWidth="12" markerHeight="10" refX="10" refY="5" orient="auto" markerUnits="strokeWidth"><path d="M 1 1 L 10 5 L 1 9" fill="none" stroke="#758297" stroke-width="1.8" stroke-linecap="round" stroke-linejoin="round"/></marker>
  <marker id="inherit" markerWidth="14" markerHeight="12" refX="12" refY="6" orient="auto" markerUnits="strokeWidth"><path d="M 0 1 L 12 6 L 0 11 Z" fill="#ffffff" stroke="#758297" stroke-width="1.8"/></marker>
  <style>
    .canvas{fill:#f7f9fc}.frame{fill:#fff;stroke:#d8e0ea;stroke-width:1.5}
    .title{font-family:"Architects Daughter","Comic Mono","Comic Sans MS","Comic Sans",cursive;font-size:43px;font-weight:400;fill:#102033}
    .subtitle{font-family:"Comic Mono","Comic Sans MS","Comic Sans","Comic Neue",Arial,sans-serif;font-size:15px;font-weight:400;fill:#536273}
    .label{font-family:"Architects Daughter","Comic Mono","Comic Sans MS","Comic Sans",cursive;font-size:25px;font-weight:400;fill:#102033}
    .smallLabel{font-family:"Architects Daughter","Comic Mono","Comic Sans MS","Comic Sans",cursive;font-size:21px;font-weight:400;fill:#102033}
    .mono{font-family:"Comic Mono","Comic Sans MS","Comic Sans","Comic Neue",Arial,sans-serif;font-size:12px;font-weight:400;fill:#102033}
    .small{font-family:"Comic Mono","Comic Sans MS","Comic Sans","Comic Neue",Arial,sans-serif;font-size:12px;font-weight:400;fill:#536273}
    .strong{font-family:"Comic Mono","Comic Sans MS","Comic Sans","Comic Neue",Arial,sans-serif;font-size:13px;font-weight:400;fill:#102033}
    .card{stroke-width:2.1;filter:url(#shadow)}.compartment{stroke-width:1.5;fill:none}
    .line{stroke:#758297;stroke-width:2.1;fill:none;marker-end:url(#openArrow)}
    .plainLine{stroke:#758297;stroke-width:2.1;fill:none}
    .dashed{stroke:#758297;stroke-width:2.1;stroke-dasharray:7 6;fill:none;marker-end:url(#openArrow)}
    .inheritLine{stroke:#758297;stroke-width:2.2;fill:none;marker-end:url(#inherit)}
    .implLine{stroke:#758297;stroke-width:2.2;stroke-dasharray:8 7;fill:none;marker-end:url(#inherit)}
  </style>
</defs>
<rect class="canvas" width="1468" height="2046"/>
<rect class="frame" x="32" y="28" width="1404" height="1990" rx="28"/>
<text class="title" x="66" y="82">Scenario 1 — Normal acquire/release plus cra.</text>
<text class="subtitle" x="70" y="118">Sequence messages from the original Mermaid source</text>
<rect class="card" x="80" y="166" width="300" height="72" rx="12" fill="#E8F3FF" stroke="#5B8DEF"/>
<text class="smallLabel" x="230" y="209" text-anchor="middle">ClientA</text>
<line class="lifeline" x1="230" y1="252" x2="230" y2="1986" stroke="#b7c2d1" stroke-width="2" stroke-dasharray="10 10"/>
<rect class="card" x="584" y="166" width="300" height="72" rx="12" fill="#EAF7EF" stroke="#58A978"/>
<text class="smallLabel" x="734" y="209" text-anchor="middle">ClientB</text>
<line class="lifeline" x1="734" y1="252" x2="734" y2="1986" stroke="#b7c2d1" stroke-width="2" stroke-dasharray="10 10"/>
<rect class="card" x="1088" y="166" width="300" height="72" rx="12" fill="#FFF3D9" stroke="#D6A441"/>
<text class="smallLabel" x="1238" y="198.5" text-anchor="middle">Redis (RPermit</text>
<text class="smallLabel" x="1238" y="219.5" text-anchor="middle">Expirable</text>
<line class="lifeline" x1="1238" y1="252" x2="1238" y2="1986" stroke="#b7c2d1" stroke-width="2" stroke-dasharray="10 10"/>
<rect x="534.5" y="286" width="399" height="40" rx="102" fill="#ffffff" opacity="0.97"/>
<text class="strong" x="552.5" y="313" text-anchor="start">1. getPermitExpirableSemaphore(lg:{lockName})</text>
<path class="line" d="M230 332 L1238 332"/>
<rect x="595" y="396" width="278" height="40" rx="102" fill="#ffffff" opacity="0.97"/>
<text class="strong" x="613" y="423" text-anchor="start">2. trySetPermits(maxLeaders=2)</text>
<path class="line" d="M230 442 L1238 442"/>
<rect x="629" y="506" width="210" height="40" rx="102" fill="#ffffff" opacity="0.97"/>
<text class="strong" x="647" y="533" text-anchor="start">3. ok</text>
<path class="dashed" d="M1238 552 L230 552"/>
<rect x="595" y="616" width="278" height="40" rx="102" fill="#ffffff" opacity="0.97"/>
<text class="strong" x="613" y="643" text-anchor="start">4. tryAcquire(waitMs, leaseMs)</text>
<path class="line" d="M230 662 L1238 662"/>
<rect x="629" y="726" width="210" height="40" rx="102" fill="#ffffff" opacity="0.97"/>
<text class="strong" x="647" y="753" text-anchor="start">5. permitId A1</text>
<path class="dashed" d="M1238 772 L230 772"/>
<rect x="173" y="836" width="210" height="40" rx="102" fill="#ffffff" opacity="0.97"/>
<text class="strong" x="191" y="863" text-anchor="start">6. action()</text>
<path class="line" d="M230 882 C294 882 294 916 230 916"/>
<rect x="881" y="966" width="210" height="40" rx="102" fill="#ffffff" opacity="0.97"/>
<text class="strong" x="899" y="993" text-anchor="start">7. tryAcquire(...)</text>
<path class="line" d="M734 1012 L1238 1012"/>
<rect x="881" y="1076" width="210" height="40" rx="102" fill="#ffffff" opacity="0.97"/>
<text class="strong" x="899" y="1103" text-anchor="start">8. permitId B1</text>
<path class="dashed" d="M1238 1122 L734 1122"/>
<rect x="629" y="1186" width="210" height="40" rx="102" fill="#ffffff" opacity="0.97"/>
<text class="strong" x="647" y="1213" text-anchor="start">9. release(A1)</text>
<path class="line" d="M230 1232 L1238 1232"/>
<rect x="629" y="1296" width="210" height="40" rx="102" fill="#ffffff" opacity="0.97"/>
<text class="strong" x="647" y="1323" text-anchor="start">10. ok</text>
<path class="dashed" d="M1238 1342 L230 1342"/>
<rect x="615" y="1406" width="238" height="40" rx="102" fill="#ffffff" opacity="0.97"/>
<text class="strong" x="633" y="1433" text-anchor="start">11. tryAcquire (lease=2s)</text>
<path class="line" d="M230 1452 L1238 1452"/>
<rect x="629" y="1516" width="210" height="40" rx="102" fill="#ffffff" opacity="0.97"/>
<text class="strong" x="647" y="1543" text-anchor="start">12. permitId A2</text>
<path class="dashed" d="M1238 1562 L230 1562"/>
<rect x="173" y="1626" width="210" height="40" rx="102" fill="#ffffff" opacity="0.97"/>
<text class="strong" x="191" y="1653" text-anchor="start">13. crash</text>
<path class="line" d="M230 1672 C294 1672 294 1706 230 1706"/>
<rect x="881" y="1756" width="210" height="40" rx="102" fill="#ffffff" opacity="0.97"/>
<text class="strong" x="899" y="1783" text-anchor="start">14. tryAcquire</text>
<path class="line" d="M734 1802 L1238 1802"/>
<rect x="839" y="1866" width="294" height="40" rx="102" fill="#ffffff" opacity="0.97"/>
<text class="strong" x="857" y="1893" text-anchor="start">15. permitId B3 (auto-recovered)</text>
<path class="dashed" d="M1238 1912 L734 1912"/>
</svg>
