<?xml version="1.0" encoding="UTF-8" standalone="no"?>
<!DOCTYPE svg PUBLIC "-//W3C//DTD SVG 1.1//EN"
 "http://www.w3.org/Graphics/SVG/1.1/DTD/svg11.dtd">
<!-- Generated by graphviz version 15.0.0 (20260523.1842)
 -->
<!-- Title: leader&#45;ktor&#45;sequence&#45;01 Pages: 1 -->
<svg width="1652pt" height="918pt"
 viewBox="0.00 0.00 1652.00 918.00" xmlns="http://www.w3.org/2000/svg" xmlns:xlink="http://www.w3.org/1999/xlink">
<g id="graph0" class="graph" transform="scale(1 1) rotate(0) translate(4 913.5)">
<title>leader&#45;ktor&#45;sequence&#45;01</title>
<text xml:space="preserve" text-anchor="middle" x="822.12" y="-892.2" font-family="Times,serif" font-size="14.00">leader ktor Sequence Flow</text>
<!-- n0&#45;&gt;n1 -->
<g id="edge1" class="edge">
<title>n0&#45;&gt;n1</title>
<path fill="none" stroke="#758297" stroke-width="1.8" d="M300.54,-803C300.54,-803 436.99,-803 436.99,-803"/>
<polygon fill="#758297" stroke="#758297" stroke-width="1.8" points="436.99,-805.8 444.99,-803 436.99,-800.2 436.99,-805.8"/>
</g>
<!-- n0&#45;&gt;n1 -->
<g id="edge10" class="edge">
<title>n0&#45;&gt;n1</title>
<path fill="none" stroke="#758297" stroke-width="1.8" d="M300.54,-818C300.54,-818 436.99,-818 436.99,-818"/>
<polygon fill="#758297" stroke="#758297" stroke-width="1.8" points="436.99,-820.8 444.99,-818 436.99,-815.2 436.99,-820.8"/>
</g>
<!-- n0&#45;&gt;n2 -->
<g id="edge3" class="edge">
<title>n0&#45;&gt;n2</title>
<path fill="none" stroke="#758297" stroke-width="1.8" d="M100.08,-861.4C100.08,-868.08 100.08,-873 100.08,-873 100.08,-873 996.08,-873 996.08,-873 996.08,-873 996.08,-871.84 996.08,-871.84"/>
<polygon fill="#758297" stroke="#758297" stroke-width="1.8" points="998.88,-872.12 996.08,-864.12 993.28,-872.12 998.88,-872.12"/>
</g>
<!-- n1&#45;&gt;n0 -->
<g id="edge2" class="edge">
<title>n1&#45;&gt;n0</title>
<path fill="none" stroke="#758297" stroke-width="1.8" stroke-dasharray="5,2" d="M447.7,-847C447.7,-847 311.25,-847 311.25,-847"/>
<polygon fill="#758297" stroke="#758297" stroke-width="1.8" points="311.25,-844.2 303.25,-847 311.25,-849.8 311.25,-844.2"/>
</g>
<!-- n1&#45;&gt;n0 -->
<g id="edge11" class="edge">
<title>n1&#45;&gt;n0</title>
<path fill="none" stroke="#758297" stroke-width="1.8" stroke-dasharray="5,2" d="M447.7,-832C447.7,-832 311.25,-832 311.25,-832"/>
<polygon fill="#758297" stroke="#758297" stroke-width="1.8" points="311.25,-829.2 303.25,-832 311.25,-834.8 311.25,-829.2"/>
</g>
<!-- n2&#45;&gt;n0 -->
<g id="edge4" class="edge">
<title>n2&#45;&gt;n0</title>
<path fill="none" stroke="#758297" stroke-width="1.8" stroke-dasharray="5,2" d="M1096.16,-861.32C1096.16,-873.94 1096.16,-885 1096.16,-885 1096.16,-885 200.16,-885 200.16,-885 200.16,-885 200.16,-872.04 200.16,-872.04"/>
<polygon fill="#758297" stroke="#758297" stroke-width="1.8" points="202.96,-872.04 200.16,-864.04 197.36,-872.04 202.96,-872.04"/>
</g>
<!-- n2&#45;&gt;n3 -->
<g id="edge5" class="edge">
<title>n2&#45;&gt;n3</title>
<path fill="none" stroke="#758297" stroke-width="1.8" d="M1196.54,-813C1196.54,-813 1332.99,-813 1332.99,-813"/>
<polygon fill="#758297" stroke="#758297" stroke-width="1.8" points="1332.99,-815.8 1340.99,-813 1332.99,-810.2 1332.99,-815.8"/>
</g>
<!-- n2&#45;&gt;r7p1 -->
<g id="edge7" class="edge">
<title>n2&#45;&gt;r7p1</title>
<path fill="none" stroke="#758297" stroke-width="1.8" d="M1110.12,-788.82C1110.12,-638.1 1110.12,-67.49 1110.12,-36.4"/>
</g>
<!-- n3&#45;&gt;n2 -->
<g id="edge6" class="edge">
<title>n3&#45;&gt;n2</title>
<path fill="none" stroke="#758297" stroke-width="1.8" stroke-dasharray="5,2" d="M1343.7,-837C1343.7,-837 1207.25,-837 1207.25,-837"/>
<polygon fill="#758297" stroke="#758297" stroke-width="1.8" points="1207.25,-834.2 1199.25,-837 1207.25,-839.8 1207.25,-834.2"/>
</g>
<!-- r7p1&#45;&gt;r7p2 -->
<g id="edge8" class="edge">
<title>r7p1&#45;&gt;r7p2</title>
<path fill="none" stroke="#758297" stroke-width="1.8" d="M1110.12,-33.62C1110.12,-28.03 1110.12,-8.02 1110.12,-2.5"/>
</g>
<!-- r7p2&#45;&gt;n2 -->
<g id="edge9" class="edge">
<title>r7p2&#45;&gt;n2</title>
<path fill="none" stroke="#758297" stroke-width="1.8" d="M1111.57,-1C1119.14,-1 1153.72,-1 1153.72,-1 1153.72,-1 1153.72,-777.88 1153.72,-777.88"/>
<polygon fill="#758297" stroke="#758297" stroke-width="1.8" points="1150.92,-777.88 1153.72,-785.88 1156.52,-777.88 1150.92,-777.88"/>
</g>
<!-- n0 -->
<g id="node1" class="node">
<title>n0</title>
<path fill="#ffffff" stroke="#5b8def" d="M288.24,-861.08C288.24,-861.08 12,-861.08 12,-861.08 6,-861.08 0,-855.08 0,-849.08 0,-849.08 0,-801.08 0,-801.08 0,-795.08 6,-789.08 12,-789.08 12,-789.08 288.24,-789.08 288.24,-789.08 294.24,-789.08 300.24,-795.08 300.24,-801.08 300.24,-801.08 300.24,-849.08 300.24,-849.08 300.24,-855.08 294.24,-861.08 288.24,-861.08"/>
<text xml:space="preserve" text-anchor="middle" x="150.12" y="-820.73" font-family="Architects Daughter" font-size="18.00">Application (Ktor)</text>
</g>
<!-- n1 -->
<g id="node2" class="node">
<title>n1</title>
<path fill="#ffffff" stroke="#58a978" d="M736.24,-861.08C736.24,-861.08 460,-861.08 460,-861.08 454,-861.08 448,-855.08 448,-849.08 448,-849.08 448,-801.08 448,-801.08 448,-795.08 454,-789.08 460,-789.08 460,-789.08 736.24,-789.08 736.24,-789.08 742.24,-789.08 748.24,-795.08 748.24,-801.08 748.24,-801.08 748.24,-849.08 748.24,-849.08 748.24,-855.08 742.24,-861.08 736.24,-861.08"/>
<text xml:space="preserve" text-anchor="middle" x="598.12" y="-820.73" font-family="Architects Daughter" font-size="18.00">Leader Election</text>
</g>
<!-- n2 -->
<g id="node3" class="node">
<title>n2</title>
<path fill="#ffffff" stroke="#d6a441" d="M1184.24,-861.08C1184.24,-861.08 908,-861.08 908,-861.08 902,-861.08 896,-855.08 896,-849.08 896,-849.08 896,-801.08 896,-801.08 896,-795.08 902,-789.08 908,-789.08 908,-789.08 1184.24,-789.08 1184.24,-789.08 1190.24,-789.08 1196.24,-795.08 1196.24,-801.08 1196.24,-801.08 1196.24,-849.08 1196.24,-849.08 1196.24,-855.08 1190.24,-861.08 1184.24,-861.08"/>
<text xml:space="preserve" text-anchor="middle" x="1046.12" y="-820.73" font-family="Architects Daughter" font-size="18.00">leaderScheduled</text>
</g>
<!-- n3 -->
<g id="node4" class="node">
<title>n3</title>
<path fill="#ffffff" stroke="#dc6b82" d="M1632.24,-861.08C1632.24,-861.08 1356,-861.08 1356,-861.08 1350,-861.08 1344,-855.08 1344,-849.08 1344,-849.08 1344,-801.08 1344,-801.08 1344,-795.08 1350,-789.08 1356,-789.08 1356,-789.08 1632.24,-789.08 1632.24,-789.08 1638.24,-789.08 1644.24,-795.08 1644.24,-801.08 1644.24,-801.08 1644.24,-849.08 1644.24,-849.08 1644.24,-855.08 1638.24,-861.08 1632.24,-861.08"/>
<text xml:space="preserve" text-anchor="middle" x="1494.12" y="-820.73" font-family="Architects Daughter" font-size="18.00">Suspend Leader</text>
</g>
<!-- r7p1 -->
<!-- r7p2 -->
</g>
</svg>
