<?xml version="1.0" encoding="UTF-8" standalone="no"?>
<!DOCTYPE svg PUBLIC "-//W3C//DTD SVG 1.1//EN"
 "http://www.w3.org/Graphics/SVG/1.1/DTD/svg11.dtd">
<!-- Generated by graphviz version 15.0.0 (20260523.1842)
 -->
<!-- Title: leader&#45;exposed&#45;jdbc&#45;class&#45;01 Pages: 1 -->
<svg width="974pt" height="1386pt"
 viewBox="0.00 0.00 974.00 1386.00" xmlns="http://www.w3.org/2000/svg" xmlns:xlink="http://www.w3.org/1999/xlink">
<g id="graph0" class="graph" transform="scale(1 1) rotate(0) translate(4 1381.74)">
<title>leader&#45;exposed&#45;jdbc&#45;class&#45;01</title>
<text xml:space="preserve" text-anchor="middle" x="483.08" y="-1360.44" font-family="Times,serif" font-size="14.00">leader exposed jdbc Class Structu.</text>
<!-- n6&#45;&gt;r3p1 -->
<g id="edge9" class="edge">
<title>n6&#45;&gt;r3p1</title>
<path fill="none" stroke="#758297" stroke-width="1.8" d="M253.08,-471.56C253.08,-495.12 253.08,-518.45 253.08,-524.55"/>
</g>
<!-- n6&#45;&gt;r6p1 -->
<g id="edge20" class="edge">
<title>n6&#45;&gt;r6p1</title>
<path fill="none" stroke="#758297" stroke-width="1.8" stroke-dasharray="5,2" d="M157.5,-471.52C157.5,-508.49 157.5,-550 157.5,-550 157.5,-550 240.11,-550 251.73,-550"/>
</g>
<!-- n6&#45;&gt;r7p1 -->
<g id="edge25" class="edge">
<title>n6&#45;&gt;r7p1</title>
<path fill="none" stroke="#758297" stroke-width="1.8" stroke-dasharray="5,2" d="M253.08,-358.6C253.08,-335.04 253.08,-311.71 253.08,-305.61"/>
</g>
<!-- n7&#45;&gt;r2p1 -->
<g id="edge4" class="edge">
<title>n7&#45;&gt;r2p1</title>
<path fill="none" stroke="#758297" stroke-width="1.8" d="M703.08,-471.65C703.08,-492.25 703.08,-511.14 703.08,-516.54"/>
</g>
<!-- n7&#45;&gt;r5p1 -->
<g id="edge17" class="edge">
<title>n7&#45;&gt;r5p1</title>
<path fill="none" stroke="#758297" stroke-width="1.8" stroke-dasharray="5,2" d="M607.5,-471.38C607.5,-506.13 607.5,-542 607.5,-542 607.5,-542 690.11,-542 701.73,-542"/>
</g>
<!-- n8&#45;&gt;r1p1 -->
<g id="edge1" class="edge">
<title>n8&#45;&gt;r1p1</title>
<path fill="none" stroke="#758297" stroke-width="1.8" d="M478.08,-88.62C478.08,-51.07 478.08,-9.68 478.08,-2.25"/>
</g>
<!-- n8&#45;&gt;r4p1 -->
<g id="edge14" class="edge">
<title>n8&#45;&gt;r4p1</title>
<path fill="none" stroke="#758297" stroke-width="1.8" stroke-dasharray="5,2" d="M478.08,-217.28C478.08,-320.77 478.08,-514.78 478.08,-532.74"/>
</g>
<!-- r1p1&#45;&gt;r1p2 -->
<g id="edge2" class="edge">
<title>r1p1&#45;&gt;r1p2</title>
<path fill="none" stroke="#758297" stroke-width="1.8" d="M476.64,-1C458.38,-1 271.84,-1 254.39,-1"/>
</g>
<!-- r1p2&#45;&gt;n6 -->
<g id="edge3" class="edge">
<title>r1p2&#45;&gt;n6</title>
<path fill="none" stroke="#758297" stroke-width="1.8" d="M251.73,-1C240.11,-1 157.5,-1 157.5,-1 157.5,-1 157.5,-348.08 157.5,-348.08"/>
<polygon fill="#758297" stroke="#758297" stroke-width="1.8" points="154.7,-348.08 157.5,-356.08 160.3,-348.08 154.7,-348.08"/>
</g>
<!-- r2p1&#45;&gt;r2p2 -->
<g id="edge5" class="edge">
<title>r2p1&#45;&gt;r2p2</title>
<path fill="none" stroke="#758297" stroke-width="1.8" d="M704.49,-518C724.15,-518 943.06,-518 963.55,-518"/>
</g>
<!-- r2p2&#45;&gt;r2p3 -->
<g id="edge6" class="edge">
<title>r2p2&#45;&gt;r2p3</title>
<path fill="none" stroke="#758297" stroke-width="1.8" d="M965.08,-519.31C965.08,-547.38 965.08,-1045.46 965.08,-1076.56"/>
</g>
<!-- r2p3&#45;&gt;r2p4 -->
<g id="edge7" class="edge">
<title>r2p3&#45;&gt;r2p4</title>
<path fill="none" stroke="#758297" stroke-width="1.8" d="M963.67,-1078C944.01,-1078 725.1,-1078 704.61,-1078"/>
</g>
<!-- r2p4&#45;&gt;n1 -->
<g id="edge8" class="edge">
<title>r2p4&#45;&gt;n1</title>
<path fill="none" stroke="#758297" stroke-width="1.8" d="M703.08,-1079.61C703.08,-1079.61 703.08,-1145.98 703.08,-1145.98"/>
<polygon fill="#758297" stroke="#758297" stroke-width="1.8" points="700.28,-1145.98 703.08,-1153.98 705.88,-1145.98 700.28,-1145.98"/>
</g>
<!-- r3p1&#45;&gt;r3p2 -->
<g id="edge10" class="edge">
<title>r3p1&#45;&gt;r3p2</title>
<path fill="none" stroke="#758297" stroke-width="1.8" d="M251.96,-526C234.63,-526 22.42,-526 2.57,-526"/>
</g>
<!-- r3p2&#45;&gt;r3p3 -->
<g id="edge11" class="edge">
<title>r3p2&#45;&gt;r3p3</title>
<path fill="none" stroke="#758297" stroke-width="1.8" d="M1.08,-527.6C1.08,-546.92 1.08,-744.24 1.08,-762.7"/>
</g>
<!-- r3p3&#45;&gt;r3p4 -->
<g id="edge12" class="edge">
<title>r3p3&#45;&gt;r3p4</title>
<path fill="none" stroke="#758297" stroke-width="1.8" d="M2.2,-764C19.53,-764 231.74,-764 251.59,-764"/>
</g>
<!-- r3p4&#45;&gt;n2 -->
<g id="edge13" class="edge">
<title>r3p4&#45;&gt;n2</title>
<path fill="none" stroke="#758297" stroke-width="1.8" d="M253.08,-765.54C253.08,-765.54 253.08,-824.25 253.08,-824.25"/>
<polygon fill="#758297" stroke="#758297" stroke-width="1.8" points="250.28,-824.25 253.08,-832.25 255.88,-824.25 250.28,-824.25"/>
</g>
<!-- r4p1&#45;&gt;r4p2 -->
<g id="edge15" class="edge">
<title>r4p1&#45;&gt;r4p2</title>
<path fill="none" stroke="#758297" stroke-width="1.8" stroke-dasharray="5,2" d="M479.52,-534C497.78,-534 684.32,-534 701.77,-534"/>
</g>
<!-- r4p2&#45;&gt;n5 -->
<g id="edge16" class="edge">
<title>r4p2&#45;&gt;n5</title>
<path fill="none" stroke="#758297" stroke-width="1.8" stroke-dasharray="5,2" d="M704.43,-534C716.05,-534 798.66,-534 798.66,-534 798.66,-534 798.66,-585.95 798.66,-585.95"/>
<polygon fill="none" stroke="#758297" stroke-width="1.8" points="795.86,-585.95 798.66,-593.95 801.46,-585.95 795.86,-585.95"/>
</g>
<!-- r5p1&#45;&gt;r5p2 -->
<g id="edge18" class="edge">
<title>r5p1&#45;&gt;r5p2</title>
<path fill="none" stroke="#758297" stroke-width="1.8" stroke-dasharray="5,2" d="M702,-543C684.47,-543 460.08,-543 460.08,-543 460.08,-543 460.08,-534 460.08,-534 460.08,-534 253.08,-534 253.08,-534 253.08,-534 253.08,-538.17 253.08,-540.52"/>
</g>
<!-- r5p2&#45;&gt;n4 -->
<g id="edge19" class="edge">
<title>r5p2&#45;&gt;n4</title>
<path fill="none" stroke="#758297" stroke-width="1.8" stroke-dasharray="5,2" d="M254.43,-542C266.05,-542 348.66,-542 348.66,-542 348.66,-542 348.66,-585.84 348.66,-585.84"/>
<polygon fill="none" stroke="#758297" stroke-width="1.8" points="345.86,-585.84 348.66,-593.84 351.46,-585.84 345.86,-585.84"/>
</g>
<!-- r6p1&#45;&gt;r6p2 -->
<g id="edge21" class="edge">
<title>r6p1&#45;&gt;r6p2</title>
<path fill="none" stroke="#758297" stroke-width="1.8" stroke-dasharray="5,2" d="M251.66,-550C233.64,-550 49.59,-550 32.37,-550"/>
</g>
<!-- r6p2&#45;&gt;r6p3 -->
<g id="edge22" class="edge">
<title>r6p2&#45;&gt;r6p3</title>
<path fill="none" stroke="#758297" stroke-width="1.8" stroke-dasharray="5,2" d="M31.08,-551.31C31.08,-579.38 31.08,-1077.46 31.08,-1108.56"/>
</g>
<!-- r6p3&#45;&gt;r6p4 -->
<g id="edge23" class="edge">
<title>r6p3&#45;&gt;r6p4</title>
<path fill="none" stroke="#758297" stroke-width="1.8" stroke-dasharray="5,2" d="M32.5,-1110C50.52,-1110 234.57,-1110 251.79,-1110"/>
</g>
<!-- r6p4&#45;&gt;n0 -->
<g id="edge24" class="edge">
<title>r6p4&#45;&gt;n0</title>
<path fill="none" stroke="#758297" stroke-width="1.8" stroke-dasharray="5,2" d="M253.08,-1111.27C253.08,-1111.27 253.08,-1229.84 253.08,-1229.84"/>
<polygon fill="none" stroke="#758297" stroke-width="1.8" points="250.28,-1229.84 253.08,-1237.84 255.88,-1229.84 250.28,-1229.84"/>
</g>
<!-- r7p1&#45;&gt;r7p2 -->
<g id="edge26" class="edge">
<title>r7p1&#45;&gt;r7p2</title>
<path fill="none" stroke="#758297" stroke-width="1.8" stroke-dasharray="5,2" d="M251.73,-304C234.52,-304 58.75,-304 42.31,-304"/>
</g>
<!-- r7p2&#45;&gt;r7p3 -->
<g id="edge27" class="edge">
<title>r7p2&#45;&gt;r7p3</title>
<path fill="none" stroke="#758297" stroke-width="1.8" stroke-dasharray="5,2" d="M41.08,-305.49C41.08,-333.45 41.08,-767.64 41.08,-794.75"/>
</g>
<!-- r7p3&#45;&gt;r7p4 -->
<g id="edge28" class="edge">
<title>r7p3&#45;&gt;r7p4</title>
<path fill="none" stroke="#758297" stroke-width="1.8" stroke-dasharray="5,2" d="M42.54,-796C75.85,-796 669.27,-796 701.7,-796"/>
</g>
<!-- r7p4&#45;&gt;n3 -->
<g id="edge29" class="edge">
<title>r7p4&#45;&gt;n3</title>
<path fill="none" stroke="#758297" stroke-width="1.8" stroke-dasharray="5,2" d="M703.08,-797.63C703.08,-797.63 703.08,-907.77 703.08,-907.77"/>
<polygon fill="none" stroke="#758297" stroke-width="1.8" points="700.28,-907.77 703.08,-915.77 705.88,-907.77 700.28,-907.77"/>
</g>
<!-- n0 -->
<g id="node1" class="node">
<title>n0</title>
<path fill="#ffffff" stroke="#5b8def" d="M431.16,-1353.24C431.16,-1353.24 75,-1353.24 75,-1353.24 69,-1353.24 63,-1347.24 63,-1341.24 63,-1341.24 63,-1252.92 63,-1252.92 63,-1246.92 69,-1240.92 75,-1240.92 75,-1240.92 431.16,-1240.92 431.16,-1240.92 437.16,-1240.92 443.16,-1246.92 443.16,-1252.92 443.16,-1252.92 443.16,-1341.24 443.16,-1341.24 443.16,-1347.24 437.16,-1353.24 431.16,-1353.24"/>
<text xml:space="preserve" text-anchor="middle" x="253.08" y="-1292.73" font-family="Architects Daughter" font-size="18.00">AsyncLeaderElector</text>
</g>
<!-- n1 -->
<g id="node2" class="node">
<title>n1</title>
<path fill="#ffffff" stroke="#58a978" d="M881.16,-1353C881.16,-1353 525,-1353 525,-1353 519,-1353 513,-1347 513,-1341 513,-1341 513,-1169.16 513,-1169.16 513,-1163.16 519,-1157.16 525,-1157.16 525,-1157.16 881.16,-1157.16 881.16,-1157.16 887.16,-1157.16 893.16,-1163.16 893.16,-1169.16 893.16,-1169.16 893.16,-1341 893.16,-1341 893.16,-1347 887.16,-1353 881.16,-1353"/>
<text xml:space="preserve" text-anchor="middle" x="703.08" y="-1250.73" font-family="Architects Daughter" font-size="18.00">ExposedJdbcGroupLock</text>
</g>
<!-- n2 -->
<g id="node3" class="node">
<title>n2</title>
<path fill="#ffffff" stroke="#d6a441" d="M431.16,-1031C431.16,-1031 75,-1031 75,-1031 69,-1031 63,-1025 63,-1019 63,-1019 63,-847.16 63,-847.16 63,-841.16 69,-835.16 75,-835.16 75,-835.16 431.16,-835.16 431.16,-835.16 437.16,-835.16 443.16,-841.16 443.16,-847.16 443.16,-847.16 443.16,-1019 443.16,-1019 443.16,-1025 437.16,-1031 431.16,-1031"/>
<text xml:space="preserve" text-anchor="middle" x="253.08" y="-928.73" font-family="Architects Daughter" font-size="18.00">ExposedJdbcLock</text>
</g>
<!-- n3 -->
<g id="node4" class="node">
<title>n3</title>
<path fill="#ffffff" stroke="#dc6b82" d="M881.16,-1031.24C881.16,-1031.24 525,-1031.24 525,-1031.24 519,-1031.24 513,-1025.24 513,-1019.24 513,-1019.24 513,-930.92 513,-930.92 513,-924.92 519,-918.92 525,-918.92 525,-918.92 881.16,-918.92 881.16,-918.92 887.16,-918.92 893.16,-924.92 893.16,-930.92 893.16,-930.92 893.16,-1019.24 893.16,-1019.24 893.16,-1025.24 887.16,-1031.24 881.16,-1031.24"/>
<text xml:space="preserve" text-anchor="middle" x="703.08" y="-970.73" font-family="Architects Daughter" font-size="18.00">LeaderElector</text>
</g>
<!-- n4 -->
<g id="node5" class="node">
<title>n4</title>
<path fill="#ffffff" stroke="#45a7a1" d="M431.16,-709.24C431.16,-709.24 75,-709.24 75,-709.24 69,-709.24 63,-703.24 63,-697.24 63,-697.24 63,-608.92 63,-608.92 63,-602.92 69,-596.92 75,-596.92 75,-596.92 431.16,-596.92 431.16,-596.92 437.16,-596.92 443.16,-602.92 443.16,-608.92 443.16,-608.92 443.16,-697.24 443.16,-697.24 443.16,-703.24 437.16,-709.24 431.16,-709.24"/>
<text xml:space="preserve" text-anchor="middle" x="253.08" y="-648.73" font-family="Architects Daughter" font-size="18.00">LeaderGroupElector</text>
</g>
<!-- n5 -->
<g id="node6" class="node">
<title>n5</title>
<path fill="#ffffff" stroke="#8a72d6" d="M881.16,-709.24C881.16,-709.24 525,-709.24 525,-709.24 519,-709.24 513,-703.24 513,-697.24 513,-697.24 513,-608.92 513,-608.92 513,-602.92 519,-596.92 525,-596.92 525,-596.92 881.16,-596.92 881.16,-596.92 887.16,-596.92 893.16,-602.92 893.16,-608.92 893.16,-608.92 893.16,-697.24 893.16,-697.24 893.16,-703.24 887.16,-709.24 881.16,-709.24"/>
<text xml:space="preserve" text-anchor="middle" x="703.08" y="-648.73" font-family="Architects Daughter" font-size="18.00">VirtualThreadLeaderElector</text>
</g>
<!-- n6 -->
<g id="node7" class="node">
<title>n6</title>
<path fill="#ffffff" stroke="#b88a44" d="M431.16,-471.24C431.16,-471.24 75,-471.24 75,-471.24 69,-471.24 63,-465.24 63,-459.24 63,-459.24 63,-370.92 63,-370.92 63,-364.92 69,-358.92 75,-358.92 75,-358.92 431.16,-358.92 431.16,-358.92 437.16,-358.92 443.16,-364.92 443.16,-370.92 443.16,-370.92 443.16,-459.24 443.16,-459.24 443.16,-465.24 437.16,-471.24 431.16,-471.24"/>
<text xml:space="preserve" text-anchor="middle" x="253.08" y="-410.73" font-family="Architects Daughter" font-size="18.00">ExposedJdbcLeaderElector</text>
</g>
<!-- n7 -->
<g id="node8" class="node">
<title>n7</title>
<path fill="#ffffff" stroke="#8ba84d" d="M881.16,-471.16C881.16,-471.16 525,-471.16 525,-471.16 519,-471.16 513,-465.16 513,-459.16 513,-459.16 513,-355 513,-355 513,-349 519,-343 525,-343 525,-343 881.16,-343 881.16,-343 887.16,-343 893.16,-349 893.16,-355 893.16,-355 893.16,-459.16 893.16,-459.16 893.16,-465.16 887.16,-471.16 881.16,-471.16"/>
<text xml:space="preserve" text-anchor="middle" x="703.08" y="-402.73" font-family="Architects Daughter" font-size="18.00">Exposed Jdbc Leader Group</text>
</g>
<!-- n8 -->
<g id="node9" class="node">
<title>n8</title>
<path fill="#ffffff" stroke="#5b8def" d="M656.16,-217.16C656.16,-217.16 300,-217.16 300,-217.16 294,-217.16 288,-211.16 288,-205.16 288,-205.16 288,-101 288,-101 288,-95 294,-89 300,-89 300,-89 656.16,-89 656.16,-89 662.16,-89 668.16,-95 668.16,-101 668.16,-101 668.16,-205.16 668.16,-205.16 668.16,-211.16 662.16,-217.16 656.16,-217.16"/>
<text xml:space="preserve" text-anchor="middle" x="478.08" y="-148.73" font-family="Architects Daughter" font-size="18.00">Exposed Jdbc Virtual Thread</text>
</g>
<!-- r1p1 -->
<!-- r1p2 -->
<!-- r2p1 -->
<!-- r2p2 -->
<!-- r2p3 -->
<!-- r2p4 -->
<!-- r3p1 -->
<!-- r3p2 -->
<!-- r3p3 -->
<!-- r3p4 -->
<!-- r4p1 -->
<!-- r4p2 -->
<!-- r5p1 -->
<!-- r5p2 -->
<!-- r6p1 -->
<!-- r6p2 -->
<!-- r6p3 -->
<!-- r6p4 -->
<!-- r7p1 -->
<!-- r7p2 -->
<!-- r7p3 -->
<!-- r7p4 -->
</g>
</svg>
