<svg xmlns="http://www.w3.org/2000/svg" width="1406" height="1761" viewBox="0 0 1406 1761" role="img" aria-label="leader mongodb Class Structure">
<defs>
  <filter id="shadow" x="-8%" y="-8%" width="116%" height="116%"><feDropShadow dx="0" dy="8" stdDeviation="9" flood-color="#1f2937" flood-opacity="0.10"/></filter>
  <marker id="openArrow" markerWidth="10" markerHeight="8" refX="8.5" refY="4" orient="auto" markerUnits="strokeWidth"><path d="M 1 1 L 8.5 4 L 1 7" fill="none" stroke="#758297" stroke-width="1.7" stroke-linecap="round" stroke-linejoin="round"/></marker>
  <marker id="inherit" markerWidth="11" markerHeight="10" refX="9.5" refY="5" orient="auto" markerUnits="strokeWidth"><path d="M 0.5 1 L 9.5 5 L 0.5 9 Z" fill="#ffffff" stroke="#758297" stroke-width="1.7"/></marker>
  <style>
    .canvas{fill:#f7f9fc}.frame{fill:#fff;stroke:#d8e0ea;stroke-width:1.5}
    .title{font-family:"Architects Daughter","Comic Sans MS","Comic Sans",cursive;font-size:43px;font-weight:400;fill:#102033}
    .subtitle{font-family:"Comic Sans MS","Comic Sans","Comic Neue",Arial,sans-serif;font-size:15px;font-weight:400;fill:#536273}
    .label{font-family:"Architects Daughter","Comic Sans MS","Comic Sans",cursive;font-size:25px;font-weight:400;fill:#102033}
    .smallLabel{font-family:"Architects Daughter","Comic Sans MS","Comic Sans",cursive;font-size:21px;font-weight:400;fill:#102033}
    .mono{font-family:"Comic Sans MS","Comic Sans","Comic Neue",Arial,sans-serif;font-size:12px;font-weight:400;fill:#102033}
    .small{font-family:"Comic Sans MS","Comic Sans","Comic Neue",Arial,sans-serif;font-size:12px;font-weight:400;fill:#536273}
    .strong{font-family:"Comic Sans MS","Comic Sans","Comic Neue",Arial,sans-serif;font-size:13px;font-weight:400;fill:#102033}
    .card{stroke-width:2.1;filter:url(#shadow)}.compartment{stroke-width:1.5;fill:none}
    .line{stroke:#758297;stroke-width:2.1;fill:none;marker-end:url(#openArrow)}
    .plainLine{stroke:#758297;stroke-width:2.1;fill:none}
    .dashed{stroke:#758297;stroke-width:2.1;stroke-dasharray:7 6;fill:none;marker-end:url(#openArrow)}
    .inheritLine{stroke:#758297;stroke-width:2.2;fill:none;marker-end:url(#inherit)}
    .implLine{stroke:#758297;stroke-width:2.2;stroke-dasharray:8 7;fill:none;marker-end:url(#inherit)}
  </style>
</defs>
<rect class="canvas" width="1406" height="1761"/>
<rect class="frame" x="32" y="28" width="1342" height="1705" rx="28"/>
<text class="title" x="66" y="82">leader mongodb Class Structure</text>
<text class="subtitle" x="70" y="118">UML classes from the original Mermaid source</text>
<path class="line" d="M924 1099 L924 999 L703 999 L703 651"/>
<path class="line" d="M924 308 L924 368 L703 368 L703 476"/>
<path class="line" d="M482 1099 L482 1039 L1145 1039 L1145 651"/>
<path class="line" d="M482 292 L482 408 L1145 408 L1145 476"/>
<path class="implLine" d="M924 1227 L924 1395"/>
<path class="implLine" d="M924 308 L924 819"/>
<path class="implLine" d="M482 1211 L482 1395"/>
<path class="implLine" d="M482 292 L482 819"/>
<path class="implLine" d="M482 292 L482 368 L261 368 L261 476"/>
<g transform="translate(317,180)">
  <rect class="card" x="0" y="0" width="330" height="112" rx="5" fill="#E8F3FF" stroke="#5B8DEF"/>
  <line class="compartment" x1="0" y1="78" x2="330" y2="78" stroke="#5B8DEF"/>
  <text class="small" x="165" y="26" text-anchor="middle"></text>
  <text class="label" x="165" y="61" text-anchor="middle">MongoLeaderElector</text>

</g>
<g transform="translate(759,180)">
  <rect class="card" x="0" y="0" width="330" height="128" rx="5" fill="#EAF7EF" stroke="#58A978"/>
  <line class="compartment" x1="0" y1="94" x2="330" y2="94" stroke="#58A978"/>
  <text class="small" x="165" y="26" text-anchor="middle"></text>
  <text class="label" x="165" y="56.5" text-anchor="middle">Mongo Suspend Leader</text>
<text class="label" x="165" y="81.5" text-anchor="middle">Elector</text>

</g>
<g transform="translate(96,476)">
  <rect class="card" x="0" y="0" width="330" height="112" rx="5" fill="#FFF3D9" stroke="#D6A441"/>
  <line class="compartment" x1="0" y1="78" x2="330" y2="78" stroke="#D6A441"/>
  <text class="small" x="165" y="26" text-anchor="middle">«interface»</text>
  <text class="label" x="165" y="61" text-anchor="middle">LeaderElector</text>

</g>
<g transform="translate(538,476)">
  <rect class="card" x="0" y="0" width="330" height="175" rx="5" fill="#FDECEF" stroke="#DC6B82"/>
  <line class="compartment" x1="0" y1="78" x2="330" y2="78" stroke="#DC6B82"/>
  <text class="small" x="165" y="26" text-anchor="middle"></text>
  <text class="label" x="165" y="61" text-anchor="middle">MongoSuspendLock</text>
  <text class="mono" x="18" y="108">+tryLock(waitTime, leaseTime) Boolean</text>
<text class="mono" x="18" y="129">+unlock()</text>
<text class="mono" x="18" y="150">+isHeldByCurrentInstance() Boolean</text>
</g>
<g transform="translate(980,476)">
  <rect class="card" x="0" y="0" width="330" height="175" rx="5" fill="#E9F7F6" stroke="#45A7A1"/>
  <line class="compartment" x1="0" y1="78" x2="330" y2="78" stroke="#45A7A1"/>
  <text class="small" x="165" y="26" text-anchor="middle"></text>
  <text class="label" x="165" y="61" text-anchor="middle">MongoLock</text>
  <text class="mono" x="18" y="108">+tryLock(waitTime, leaseTime) Boolean</text>
<text class="mono" x="18" y="129">+unlock()</text>
<text class="mono" x="18" y="150">+isHeldByCurrentInstance() Boolean</text>
</g>
<g transform="translate(317,819)">
  <rect class="card" x="0" y="0" width="330" height="112" rx="5" fill="#F1ECFF" stroke="#8A72D6"/>
  <line class="compartment" x1="0" y1="78" x2="330" y2="78" stroke="#8A72D6"/>
  <text class="small" x="165" y="26" text-anchor="middle">«interface»</text>
  <text class="label" x="165" y="61" text-anchor="middle">AsyncLeaderElector</text>

</g>
<g transform="translate(759,819)">
  <rect class="card" x="0" y="0" width="330" height="112" rx="5" fill="#F7F1E7" stroke="#B88A44"/>
  <line class="compartment" x1="0" y1="78" x2="330" y2="78" stroke="#B88A44"/>
  <text class="small" x="165" y="26" text-anchor="middle">«interface»</text>
  <text class="label" x="165" y="61" text-anchor="middle">SuspendLeaderElector</text>

</g>
<g transform="translate(317,1099)">
  <rect class="card" x="0" y="0" width="330" height="112" rx="5" fill="#EEF6D9" stroke="#8BA84D"/>
  <line class="compartment" x1="0" y1="78" x2="330" y2="78" stroke="#8BA84D"/>
  <text class="small" x="165" y="26" text-anchor="middle"></text>
  <text class="label" x="165" y="61" text-anchor="middle">MongoLeaderGroupElector</text>

</g>
<g transform="translate(759,1099)">
  <rect class="card" x="0" y="0" width="330" height="128" rx="5" fill="#E8F3FF" stroke="#5B8DEF"/>
  <line class="compartment" x1="0" y1="94" x2="330" y2="94" stroke="#5B8DEF"/>
  <text class="small" x="165" y="26" text-anchor="middle"></text>
  <text class="label" x="165" y="56.5" text-anchor="middle">Mongo Suspend Leader</text>
<text class="label" x="165" y="81.5" text-anchor="middle">Group Elector</text>

</g>
<g transform="translate(317,1395)">
  <rect class="card" x="0" y="0" width="330" height="112" rx="5" fill="#EAF7EF" stroke="#58A978"/>
  <line class="compartment" x1="0" y1="78" x2="330" y2="78" stroke="#58A978"/>
  <text class="small" x="165" y="26" text-anchor="middle">«interface»</text>
  <text class="label" x="165" y="61" text-anchor="middle">LeaderGroupElector</text>

</g>
<g transform="translate(759,1395)">
  <rect class="card" x="0" y="0" width="330" height="128" rx="5" fill="#FFF3D9" stroke="#D6A441"/>
  <line class="compartment" x1="0" y1="94" x2="330" y2="94" stroke="#D6A441"/>
  <text class="small" x="165" y="26" text-anchor="middle">«interface»</text>
  <text class="label" x="165" y="56.5" text-anchor="middle">Suspend Leader Group</text>
<text class="label" x="165" y="81.5" text-anchor="middle">Elector</text>

</g>
</svg>
