<?xml version="1.0" encoding="UTF-8" standalone="no"?>
<!DOCTYPE svg PUBLIC "-//W3C//DTD SVG 1.1//EN"
 "http://www.w3.org/Graphics/SVG/1.1/DTD/svg11.dtd">
<!-- Generated by graphviz version 15.0.0 (20260523.1842)
 -->
<!-- Title: leader&#45;k8s&#45;sequence&#45;02 Pages: 1 -->
<svg width="1348pt" height="102pt"
 viewBox="0.00 0.00 1348.00 102.00" xmlns="http://www.w3.org/2000/svg" xmlns:xlink="http://www.w3.org/1999/xlink">
<g id="graph0" class="graph" transform="scale(1 1) rotate(0) translate(4 98.34)">
<title>leader&#45;k8s&#45;sequence&#45;02</title>
<text xml:space="preserve" text-anchor="middle" x="670.16" y="-77.04" font-family="Times,serif" font-size="14.00">leader&#45;k8s Acquire and Release</text>
<!-- n0&#45;&gt;n1 -->
<g id="edge1" class="edge">
<title>n0&#45;&gt;n1</title>
<path fill="none" stroke="#758297" stroke-width="1.8" d="M220.61,-52C220.61,-52 359.3,-52 359.3,-52"/>
<polygon fill="#758297" stroke="#758297" stroke-width="1.8" points="359.3,-54.8 367.3,-52 359.3,-49.2 359.3,-54.8"/>
</g>
<!-- n1&#45;&gt;n0 -->
<g id="edge6" class="edge">
<title>n1&#45;&gt;n0</title>
<path fill="none" stroke="#758297" stroke-width="1.8" d="M369.75,-17C369.75,-17 231.3,-17 231.3,-17"/>
<polygon fill="#758297" stroke="#758297" stroke-width="1.8" points="231.3,-14.2 223.3,-17 231.3,-19.8 231.3,-14.2"/>
</g>
<!-- n1&#45;&gt;n0 -->
<g id="edge7" class="edge">
<title>n1&#45;&gt;n0</title>
<path fill="none" stroke="#758297" stroke-width="1.8" d="M369.75,-35C369.75,-35 231.3,-35 231.3,-35"/>
<polygon fill="#758297" stroke="#758297" stroke-width="1.8" points="231.3,-32.2 223.3,-35 231.3,-37.8 231.3,-32.2"/>
</g>
<!-- n1&#45;&gt;n2 -->
<g id="edge2" class="edge">
<title>n1&#45;&gt;n2</title>
<path fill="none" stroke="#758297" stroke-width="1.8" d="M630.61,-35C630.61,-35 734.2,-35 734.2,-35"/>
<polygon fill="#758297" stroke="#758297" stroke-width="1.8" points="734.2,-37.8 742.2,-35 734.2,-32.2 734.2,-37.8"/>
</g>
<!-- n1&#45;&gt;n2 -->
<g id="edge4" class="edge">
<title>n1&#45;&gt;n2</title>
<path fill="none" stroke="#758297" stroke-width="1.8" d="M630.61,-52C630.61,-52 734.2,-52 734.2,-52"/>
<polygon fill="#758297" stroke="#758297" stroke-width="1.8" points="734.2,-54.8 742.2,-52 734.2,-49.2 734.2,-54.8"/>
</g>
<!-- n1&#45;&gt;n2 -->
<g id="edge8" class="edge">
<title>n1&#45;&gt;n2</title>
<path fill="none" stroke="#758297" stroke-width="1.8" d="M630.61,-17C630.61,-17 734.2,-17 734.2,-17"/>
<polygon fill="#758297" stroke="#758297" stroke-width="1.8" points="734.2,-19.8 742.2,-17 734.2,-14.2 734.2,-19.8"/>
</g>
<!-- n2&#45;&gt;n3 -->
<g id="edge3" class="edge">
<title>n2&#45;&gt;n3</title>
<path fill="none" stroke="#758297" stroke-width="1.8" d="M995.57,-35C995.57,-35 1108.88,-35 1108.88,-35"/>
<polygon fill="#758297" stroke="#758297" stroke-width="1.8" points="1108.88,-37.8 1116.88,-35 1108.88,-32.2 1108.88,-37.8"/>
</g>
<!-- n2&#45;&gt;n3 -->
<g id="edge5" class="edge">
<title>n2&#45;&gt;n3</title>
<path fill="none" stroke="#758297" stroke-width="1.8" d="M995.57,-17C995.57,-17 1108.88,-17 1108.88,-17"/>
<polygon fill="#758297" stroke="#758297" stroke-width="1.8" points="1108.88,-19.8 1116.88,-17 1108.88,-14.2 1108.88,-19.8"/>
</g>
<!-- n2&#45;&gt;n3 -->
<g id="edge9" class="edge">
<title>n2&#45;&gt;n3</title>
<path fill="none" stroke="#758297" stroke-width="1.8" d="M995.57,-52C995.57,-52 1108.88,-52 1108.88,-52"/>
<polygon fill="#758297" stroke="#758297" stroke-width="1.8" points="1108.88,-54.8 1116.88,-52 1108.88,-49.2 1108.88,-54.8"/>
</g>
<!-- n0 -->
<g id="node1" class="node">
<title>n0</title>
<path fill="#ffffff" stroke="#5b8def" d="M208.32,-69.84C208.32,-69.84 12,-69.84 12,-69.84 6,-69.84 0,-63.84 0,-57.84 0,-57.84 0,-12 0,-12 0,-6 6,0 12,0 12,0 208.32,0 208.32,0 214.32,0 220.32,-6 220.32,-12 220.32,-12 220.32,-57.84 220.32,-57.84 220.32,-63.84 214.32,-69.84 208.32,-69.84"/>
<text xml:space="preserve" text-anchor="middle" x="110.16" y="-30.57" font-family="Architects Daughter" font-size="18.00">Worker</text>
</g>
<!-- n1 -->
<g id="node2" class="node">
<title>n1</title>
<path fill="#ffffff" stroke="#58a978" d="M618.12,-69.84C618.12,-69.84 382.2,-69.84 382.2,-69.84 376.2,-69.84 370.2,-63.84 370.2,-57.84 370.2,-57.84 370.2,-12 370.2,-12 370.2,-6 376.2,0 382.2,0 382.2,0 618.12,0 618.12,0 624.12,0 630.12,-6 630.12,-12 630.12,-12 630.12,-57.84 630.12,-57.84 630.12,-63.84 624.12,-69.84 618.12,-69.84"/>
<text xml:space="preserve" text-anchor="middle" x="500.16" y="-30.57" font-family="Architects Daughter" font-size="18.00">KubernetesLease</text>
</g>
<!-- n2 -->
<g id="node3" class="node">
<title>n2</title>
<path fill="#ffffff" stroke="#d6a441" d="M983.08,-69.84C983.08,-69.84 757.24,-69.84 757.24,-69.84 751.24,-69.84 745.24,-63.84 745.24,-57.84 745.24,-57.84 745.24,-12 745.24,-12 745.24,-6 751.24,0 757.24,0 757.24,0 983.08,0 983.08,0 989.08,0 995.08,-6 995.08,-12 995.08,-12 995.08,-57.84 995.08,-57.84 995.08,-63.84 989.08,-69.84 983.08,-69.84"/>
<text xml:space="preserve" text-anchor="middle" x="870.16" y="-30.57" font-family="Architects Daughter" font-size="18.00">Kubernetes API</text>
</g>
<!-- n3 -->
<g id="node4" class="node">
<title>n3</title>
<path fill="#ffffff" stroke="#dc6b82" d="M1328.32,-69.84C1328.32,-69.84 1132,-69.84 1132,-69.84 1126,-69.84 1120,-63.84 1120,-57.84 1120,-57.84 1120,-12 1120,-12 1120,-6 1126,0 1132,0 1132,0 1328.32,0 1328.32,0 1334.32,0 1340.32,-6 1340.32,-12 1340.32,-12 1340.32,-57.84 1340.32,-57.84 1340.32,-63.84 1334.32,-69.84 1328.32,-69.84"/>
<text xml:space="preserve" text-anchor="middle" x="1230.16" y="-30.57" font-family="Architects Daughter" font-size="18.00">Lease object</text>
</g>
</g>
</svg>
