<?xml version="1.0" encoding="UTF-8" standalone="no"?>
<!DOCTYPE svg PUBLIC "-//W3C//DTD SVG 1.1//EN"
 "http://www.w3.org/Graphics/SVG/1.1/DTD/svg11.dtd">
<!-- Generated by graphviz version 15.0.0 (20260523.1842)
 -->
<!-- Title: leader&#45;core&#45;sequence&#45;02 Pages: 1 -->
<svg width="859pt" height="440pt"
 viewBox="0.00 0.00 859.00 440.00" xmlns="http://www.w3.org/2000/svg" xmlns:xlink="http://www.w3.org/1999/xlink">
<g id="graph0" class="graph" transform="scale(1 1) rotate(0) translate(4 436)">
<title>leader&#45;core&#45;sequence&#45;02</title>
<!-- caller -->
<g id="node1" class="node">
<title>caller</title>
<path fill="#f8fafc" stroke="#94a3b8" d="M49,-237C49,-237 12,-237 12,-237 6,-237 0,-231 0,-225 0,-225 0,-213 0,-213 0,-207 6,-201 12,-201 12,-201 49,-201 49,-201 55,-201 61,-207 61,-213 61,-213 61,-225 61,-225 61,-231 55,-237 49,-237"/>
<text xml:space="preserve" text-anchor="middle" x="30.5" y="-213.57" font-family="Comic Mono" font-size="14.00">Caller</text>
</g>
<!-- elector -->
<g id="node2" class="node">
<title>elector</title>
<path fill="#f8fafc" stroke="#94a3b8" d="M410,-237C410,-237 328,-237 328,-237 322,-237 316,-231 316,-225 316,-225 316,-213 316,-213 316,-207 322,-201 328,-201 328,-201 410,-201 410,-201 416,-201 422,-207 422,-213 422,-213 422,-225 422,-225 422,-231 416,-237 410,-237"/>
<text xml:space="preserve" text-anchor="middle" x="369" y="-213.57" font-family="Comic Mono" font-size="14.00">Core elector</text>
</g>
<!-- caller&#45;&gt;elector -->
<g id="edge1" class="edge">
<title>caller&#45;&gt;elector</title>
<path fill="none" stroke="#4f83bf" d="M61.44,-210C61.44,-210 307.2,-210 307.2,-210"/>
<polygon fill="#4f83bf" stroke="#4f83bf" points="307.2,-212.45 314.2,-210 307.2,-207.55 307.2,-212.45"/>
<text xml:space="preserve" text-anchor="middle" x="188.5" y="-288.5" font-family="Comic Mono" font-size="10.00">runIfLeader(lockName, options, body)</text>
</g>
<!-- elector&#45;&gt;caller -->
<g id="edge7" class="edge">
<title>elector&#45;&gt;caller</title>
<path fill="none" stroke="#3e9868" d="M315.74,-219C315.74,-219 69.73,-219 69.73,-219"/>
<polygon fill="#3e9868" stroke="#3e9868" points="69.73,-216.55 62.73,-219 69.73,-221.45 69.73,-216.55"/>
<text xml:space="preserve" text-anchor="middle" x="188.5" y="-221.5" font-family="Comic Mono" font-size="10.00">return body result</text>
</g>
<!-- elector&#45;&gt;caller -->
<g id="edge10" class="edge">
<title>elector&#45;&gt;caller</title>
<path fill="none" stroke="#c94d68" d="M315.74,-228C315.74,-228 69.73,-228 69.73,-228"/>
<polygon fill="#c94d68" stroke="#c94d68" points="69.73,-225.55 62.73,-228 69.73,-230.45 69.73,-225.55"/>
<text xml:space="preserve" text-anchor="middle" x="188.5" y="-154.5" font-family="Comic Mono" font-size="10.00">return skipped result</text>
</g>
<!-- backend -->
<g id="node3" class="node">
<title>backend</title>
<path fill="#f8fafc" stroke="#94a3b8" d="M838.5,-337C838.5,-337 741.5,-337 741.5,-337 735.5,-337 729.5,-331 729.5,-325 729.5,-325 729.5,-313 729.5,-313 729.5,-307 735.5,-301 741.5,-301 741.5,-301 838.5,-301 838.5,-301 844.5,-301 850.5,-307 850.5,-313 850.5,-313 850.5,-325 850.5,-325 850.5,-331 844.5,-337 838.5,-337"/>
<text xml:space="preserve" text-anchor="middle" x="790" y="-313.57" font-family="Comic Mono" font-size="14.00">Lock primitive</text>
</g>
<!-- elector&#45;&gt;backend -->
<g id="edge2" class="edge">
<title>elector&#45;&gt;backend</title>
<path fill="none" stroke="#b9851b" d="M422.44,-228C524.36,-228 736.5,-228 736.5,-228 736.5,-228 736.5,-292.07 736.5,-292.07"/>
<polygon fill="#b9851b" stroke="#b9851b" points="734.05,-292.07 736.5,-299.07 738.95,-292.07 734.05,-292.07"/>
<text xml:space="preserve" text-anchor="middle" x="575.75" y="-422.5" font-family="Comic Mono" font-size="10.00">tryAcquire(lockName, waitTime, leaseTime)</text>
</g>
<!-- elector&#45;&gt;backend -->
<g id="edge6" class="edge">
<title>elector&#45;&gt;backend</title>
<path fill="none" stroke="#755bc6" d="M395.5,-237.42C395.5,-264.01 395.5,-310 395.5,-310 395.5,-310 720.71,-310 720.71,-310"/>
<polygon fill="#755bc6" stroke="#755bc6" points="720.71,-312.45 727.71,-310 720.71,-307.55 720.71,-312.45"/>
<text xml:space="preserve" text-anchor="middle" x="575.75" y="-355.5" font-family="Comic Mono" font-size="10.00">release owned token after minLeaseTime</text>
</g>
<!-- body -->
<g id="node4" class="node">
<title>body</title>
<path fill="#f8fafc" stroke="#94a3b8" d="M827.25,-146C827.25,-146 752.75,-146 752.75,-146 746.75,-146 740.75,-140 740.75,-134 740.75,-134 740.75,-122 740.75,-122 740.75,-116 746.75,-110 752.75,-110 752.75,-110 827.25,-110 827.25,-110 833.25,-110 839.25,-116 839.25,-122 839.25,-122 839.25,-134 839.25,-134 839.25,-140 833.25,-146 827.25,-146"/>
<text xml:space="preserve" text-anchor="middle" x="790" y="-122.58" font-family="Comic Mono" font-size="14.00">Leader body</text>
</g>
<!-- elector&#45;&gt;body -->
<g id="edge4" class="edge">
<title>elector&#45;&gt;body</title>
<path fill="none" stroke="#4f83bf" d="M422.21,-219C538.8,-219 806.5,-219 806.5,-219 806.5,-219 806.5,-154.93 806.5,-154.93"/>
<polygon fill="#4f83bf" stroke="#4f83bf" points="808.95,-154.93 806.5,-147.93 804.05,-154.93 808.95,-154.93"/>
<text xml:space="preserve" text-anchor="middle" x="575.75" y="-154.5" font-family="Comic Mono" font-size="10.00">execute protected leader body</text>
</g>
<!-- cleanup -->
<g id="node5" class="node">
<title>cleanup</title>
<path fill="#f8fafc" stroke="#94a3b8" d="M834.75,-36C834.75,-36 745.25,-36 745.25,-36 739.25,-36 733.25,-30 733.25,-24 733.25,-24 733.25,-12 733.25,-12 733.25,-6 739.25,0 745.25,0 745.25,0 834.75,0 834.75,0 840.75,0 846.75,-6 846.75,-12 846.75,-12 846.75,-24 846.75,-24 846.75,-30 840.75,-36 834.75,-36"/>
<text xml:space="preserve" text-anchor="middle" x="790" y="-12.57" font-family="Comic Mono" font-size="14.00">Recovery path</text>
</g>
<!-- elector&#45;&gt;cleanup -->
<g id="edge9" class="edge">
<title>elector&#45;&gt;cleanup</title>
<path fill="none" stroke="#2e8f89" d="M368.5,-200.81C368.5,-151.33 368.5,-18 368.5,-18 368.5,-18 724.64,-18 724.64,-18"/>
<polygon fill="#2e8f89" stroke="#2e8f89" points="724.64,-20.45 731.64,-18 724.64,-15.55 724.64,-20.45"/>
<text xml:space="preserve" text-anchor="middle" x="575.75" y="-20.5" font-family="Comic Mono" font-size="10.00">lease expiry or local state clears stale owner</text>
</g>
<!-- backend&#45;&gt;elector -->
<g id="edge3" class="edge">
<title>backend&#45;&gt;elector</title>
<path fill="none" stroke="#3e9868" d="M729.18,-328C606.83,-328 342.5,-328 342.5,-328 342.5,-328 342.5,-246 342.5,-246"/>
<polygon fill="#3e9868" stroke="#3e9868" points="344.95,-246 342.5,-239 340.05,-246 344.95,-246"/>
<text xml:space="preserve" text-anchor="middle" x="575.75" y="-288.5" font-family="Comic Mono" font-size="10.00">token accepted</text>
</g>
<!-- backend&#45;&gt;elector -->
<g id="edge8" class="edge">
<title>backend&#45;&gt;elector</title>
<path fill="none" stroke="#c94d68" d="M729.16,-319C612.43,-319 368.5,-319 368.5,-319 368.5,-319 368.5,-245.86 368.5,-245.86"/>
<polygon fill="#c94d68" stroke="#c94d68" points="370.95,-245.86 368.5,-238.86 366.05,-245.86 370.95,-245.86"/>
<text xml:space="preserve" text-anchor="middle" x="575.75" y="-221.5" font-family="Comic Mono" font-size="10.00">existing owner token blocks acquire</text>
</g>
<!-- body&#45;&gt;elector -->
<g id="edge5" class="edge">
<title>body&#45;&gt;elector</title>
<path fill="none" stroke="#3e9868" d="M773.5,-146.2C773.5,-170.36 773.5,-210 773.5,-210 773.5,-210 430.81,-210 430.81,-210"/>
<polygon fill="#3e9868" stroke="#3e9868" points="430.81,-207.55 423.81,-210 430.81,-212.45 430.81,-207.55"/>
<text xml:space="preserve" text-anchor="middle" x="575.75" y="-87.5" font-family="Comic Mono" font-size="10.00">body result</text>
</g>
</g>
</svg>
