<svg xmlns="http://www.w3.org/2000/svg" width="1240" height="860" viewBox="0 0 1240 860" role="img" aria-labelledby="title desc">
  <title id="title">leader-exposed-jdbc Class Structure</title>
  <desc id="desc">Class structure for blocking JDBC leader election built on Exposed tables, token fencing, retry strategy, schema initialization, and history recording.</desc>
  <defs>
    <filter id="shadow" x="-12%" y="-16%" width="124%" height="140%">
      <feDropShadow dx="0" dy="6" stdDeviation="7" flood-color="#64748b" flood-opacity="0.13"/>
    </filter>
    <marker id="arrowBlue" viewBox="0 0 14 12" markerWidth="13" markerHeight="11" refX="12" refY="6" orient="auto" markerUnits="userSpaceOnUse">
      <path d="M 1 1 L 13 6 L 1 11" fill="none" stroke="#2563eb" stroke-width="1.8" stroke-linecap="round" stroke-linejoin="round"/>
    </marker>
    <marker id="arrowGreen" viewBox="0 0 14 12" markerWidth="13" markerHeight="11" refX="12" refY="6" orient="auto" markerUnits="userSpaceOnUse">
      <path d="M 1 1 L 13 6 L 1 11" fill="none" stroke="#16a34a" stroke-width="1.8" stroke-linecap="round" stroke-linejoin="round"/>
    </marker>
    <marker id="arrowPurple" viewBox="0 0 14 12" markerWidth="13" markerHeight="11" refX="12" refY="6" orient="auto" markerUnits="userSpaceOnUse">
      <path d="M 1 1 L 13 6 L 1 11" fill="none" stroke="#7c3aed" stroke-width="1.8" stroke-linecap="round" stroke-linejoin="round"/>
    </marker>
    <marker id="hollowTri" viewBox="0 0 18 16" markerWidth="16" markerHeight="14" refX="16" refY="8" orient="auto" markerUnits="userSpaceOnUse">
      <path d="M 1 1 L 16 8 L 1 15 Z" fill="#ffffff" stroke="#334155" stroke-width="1.7"/>
    </marker>
  </defs>
  <style>
    text { font-family: "Comic Mono", monospace; fill: #263244; }
    .title { font-family: "Architects Daughter", cursive; font-size: 34px; fill: #172033; }
    .subtitle { font-size: 13px; fill: #64748b; }
    .panel-label { font-family: "Architects Daughter", cursive; font-size: 18px; fill: #334155; }
    .card-title { font-family: "Architects Daughter", cursive; font-size: 16px; fill: #172033; }
    .stereo { font-size: 10px; fill: #64748b; }
    .member { font-size: 11px; fill: #475569; }
    .small { font-size: 10px; fill: #64748b; }
    .footer { font-size: 11px; fill: #64748b; }
    .frame { fill: #ffffff; stroke: #cbd5e1; stroke-width: 1.4; filter: url(#shadow); }
    .panel { fill: #f8fafc; stroke: #dbe4f0; stroke-width: 1.2; }
    .contract { fill: #eff6ff; stroke: #93c5fd; }
    .adapter { fill: #f0fdf4; stroke: #86efac; }
    .runtime { fill: #fff7ed; stroke: #fdba74; }
    .table { fill: #fdf2f8; stroke: #f9a8d4; }
    .history { fill: #faf5ff; stroke: #c4b5fd; }
    .divider { stroke: rgba(100,116,139,0.35); stroke-width: 1; }
    .impl { stroke: #334155; stroke-width: 1.2; fill: none; marker-end: url(#hollowTri); }
    .uses { stroke: #2563eb; stroke-width: 1.45; fill: none; stroke-dasharray: 6 5; marker-end: url(#arrowBlue); }
    .data { stroke: #16a34a; stroke-width: 1.45; fill: none; stroke-dasharray: 6 5; marker-end: url(#arrowGreen); }
    .audit { stroke: #7c3aed; stroke-width: 1.35; fill: none; stroke-dasharray: 5 5; marker-end: url(#arrowPurple); }
  </style>

  <rect width="1240" height="860" fill="#f6f8fb"/>
  <rect class="frame" x="34" y="30" width="1172" height="790" rx="18"/>
  <text class="title" x="620" y="76" text-anchor="middle">leader-exposed-jdbc Class Structure</text>
  <text class="subtitle" x="620" y="102" text-anchor="middle">Blocking JDBC electors use Exposed transactions, token fencing, TTL rows, and optional history recording.</text>

  <rect class="panel" x="64" y="138" width="300" height="552" rx="14"/>
  <rect class="panel" x="410" y="138" width="404" height="552" rx="14"/>
  <rect class="panel" x="860" y="138" width="300" height="552" rx="14"/>
  <text class="panel-label" x="214" y="168" text-anchor="middle">leader-core contracts</text>
  <text class="panel-label" x="612" y="168" text-anchor="middle">JDBC adapters</text>
  <text class="panel-label" x="1010" y="168" text-anchor="middle">Exposed runtime tables</text>

  <g id="LeaderElector" transform="translate(94 198)">
    <rect class="contract" width="240" height="78" rx="6"/>
    <text class="stereo" x="120" y="18" text-anchor="middle">&lt;&lt;interface&gt;&gt;</text>
    <text class="card-title" x="120" y="41" text-anchor="middle">LeaderElector</text>
    <line class="divider" x1="0" y1="54" x2="240" y2="54"/>
    <text class="member" x="16" y="70">+ runIfLeader() / runAsyncIfLeader()</text>
  </g>
  <g id="LeaderGroupElector" transform="translate(94 320)">
    <rect class="contract" width="240" height="78" rx="6"/>
    <text class="stereo" x="120" y="18" text-anchor="middle">&lt;&lt;interface&gt;&gt;</text>
    <text class="card-title" x="120" y="41" text-anchor="middle">LeaderGroupElector</text>
    <line class="divider" x1="0" y1="54" x2="240" y2="54"/>
    <text class="member" x="16" y="70">+ maxLeaders, state(), slots</text>
  </g>
  <g id="VirtualThread" transform="translate(94 442)">
    <rect class="contract" width="240" height="78" rx="6"/>
    <text class="stereo" x="120" y="18" text-anchor="middle">&lt;&lt;interface&gt;&gt;</text>
    <text class="card-title" x="120" y="41" text-anchor="middle">VirtualThreadLeaderElector</text>
    <line class="divider" x1="0" y1="54" x2="240" y2="54"/>
    <text class="member" x="16" y="70">+ VirtualFuture&lt;T?&gt;</text>
  </g>
  <g id="Factories" transform="translate(94 564)">
    <rect class="contract" width="240" height="78" rx="6"/>
    <text class="stereo" x="120" y="18" text-anchor="middle">&lt;&lt;SPI&gt;&gt;</text>
    <text class="card-title" x="120" y="41" text-anchor="middle">Leader factories</text>
    <line class="divider" x1="0" y1="54" x2="240" y2="54"/>
    <text class="member" x="16" y="70">+ create(options)</text>
  </g>

  <g id="JdbcSingle" transform="translate(442 198)">
    <rect class="adapter" width="160" height="118" rx="6"/>
    <text class="card-title" x="80" y="27" text-anchor="middle">ExposedJdbc</text>
    <text class="card-title" x="80" y="44" text-anchor="middle">LeaderElector</text>
    <line class="divider" x1="0" y1="58" x2="160" y2="58"/>
    <text class="member" x="14" y="76">- Database</text>
    <text class="member" x="14" y="94">- RetryStrategy</text>
    <line class="divider" x1="0" y1="102" x2="160" y2="102"/>
    <text class="member" x="14" y="114">+ transaction lock</text>
  </g>
  <g id="JdbcGroup" transform="translate(624 198)">
    <rect class="adapter" width="160" height="118" rx="6"/>
    <text class="card-title" x="80" y="27" text-anchor="middle">ExposedJdbc</text>
    <text class="card-title" x="80" y="44" text-anchor="middle">LeaderGroupElector</text>
    <line class="divider" x1="0" y1="58" x2="160" y2="58"/>
    <text class="member" x="14" y="76">- maxLeaders</text>
    <text class="member" x="14" y="94">- slot scan</text>
    <line class="divider" x1="0" y1="102" x2="160" y2="102"/>
    <text class="member" x="14" y="114">+ availableSlots()</text>
  </g>
  <g id="JdbcVirtual" transform="translate(442 376)">
    <rect class="adapter" width="160" height="94" rx="6"/>
    <text class="card-title" x="80" y="27" text-anchor="middle">ExposedJdbc</text>
    <text class="card-title" x="80" y="44" text-anchor="middle">VirtualThreadElector</text>
    <line class="divider" x1="0" y1="58" x2="160" y2="58"/>
    <text class="member" x="14" y="77">delegate + virtual task</text>
  </g>
  <g id="JdbcFactories" transform="translate(624 376)">
    <rect class="adapter" width="160" height="94" rx="6"/>
    <text class="card-title" x="80" y="27" text-anchor="middle">JDBC factory</text>
    <text class="card-title" x="80" y="44" text-anchor="middle">adapters</text>
    <line class="divider" x1="0" y1="58" x2="160" y2="58"/>
    <text class="member" x="14" y="77">single + group SPI</text>
  </g>
  <g id="JdbcDelegates" transform="translate(490 546)">
    <rect class="runtime" width="246" height="94" rx="6"/>
    <text class="card-title" x="123" y="27" text-anchor="middle">Extend delegates</text>
    <line class="divider" x1="0" y1="42" x2="246" y2="42"/>
    <text class="member" x="14" y="62">LockExtendDelegate</text>
    <text class="member" x="14" y="80">SlotExtendDelegate via Dispatchers.IO</text>
  </g>

  <g id="JdbcLock" transform="translate(890 198)">
    <rect class="runtime" width="240" height="86" rx="6"/>
    <text class="card-title" x="120" y="28" text-anchor="middle">ExposedJdbcLock</text>
    <line class="divider" x1="0" y1="44" x2="240" y2="44"/>
    <text class="member" x="14" y="64">UPDATE expired -> INSERT -> SELECT</text>
  </g>
  <g id="JdbcGroupLock" transform="translate(890 320)">
    <rect class="runtime" width="240" height="86" rx="6"/>
    <text class="card-title" x="120" y="28" text-anchor="middle">ExposedJdbcGroupLock</text>
    <line class="divider" x1="0" y1="44" x2="240" y2="44"/>
    <text class="member" x="14" y="64">one independent lock per slot</text>
  </g>
  <g id="JdbcTables" transform="translate(890 442)">
    <rect class="table" width="240" height="110" rx="6"/>
    <text class="card-title" x="120" y="28" text-anchor="middle">ExposedLeaderSchema</text>
    <line class="divider" x1="0" y1="44" x2="240" y2="44"/>
    <text class="member" x="14" y="64">LeaderLockTable: PK lockName</text>
    <text class="member" x="14" y="82">LeaderGroupLockTable: PK lockName+slot</text>
    <text class="member" x="14" y="100">SchemaInitializer: once per DB URL</text>
  </g>
  <g id="JdbcHistory" transform="translate(890 588)">
    <rect class="history" width="240" height="70" rx="6"/>
    <text class="card-title" x="120" y="27" text-anchor="middle">ExposedLeaderHistorySink</text>
    <line class="divider" x1="0" y1="42" x2="240" y2="42"/>
    <text class="member" x="14" y="60">ACQUIRED / COMPLETED / FAILED</text>
  </g>

  <path class="impl" d="M 442 257 L 364 257 L 334 257"/>
  <path class="impl" d="M 624 306 L 614 306 L 614 330 L 392 330 L 392 359 L 334 359"/>
  <path class="impl" d="M 442 458 L 384 458 L 384 481 L 334 481"/>
  <path class="impl" d="M 624 458 L 614 458 L 614 508 L 384 508 L 384 603 L 334 603"/>

  <path class="uses" d="M 602 241 L 614 241 L 614 184 L 838 184 L 838 241 L 890 241"/>
  <path class="uses" d="M 784 257 L 838 257 L 838 363 L 890 363"/>
  <path class="uses" d="M 522 470 L 522 516 L 560 516 L 560 546"/>
  <path class="uses" d="M 704 470 L 704 516 L 660 516 L 660 546"/>
  <path class="audit" d="M 736 593 L 850 593 L 850 623 L 890 623"/>

  <g transform="translate(82 724)">
    <rect fill="#f8fafc" stroke="#dbe4f0" width="1076" height="58" rx="12"/>
    <text class="footer" x="538" y="24" text-anchor="middle">github.com/bluetape4k/bluetape4k-leader / leader-exposed-jdbc</text>
    <text class="footer" x="538" y="43" text-anchor="middle">JDBC path: transaction-bound UPDATE -> INSERT -> SELECT, then token-guarded unlock or TTL extension.</text>
  </g>
</svg>
