<?xml version="1.0" encoding="UTF-8" standalone="no"?>
<!DOCTYPE svg PUBLIC "-//W3C//DTD SVG 1.1//EN"
 "http://www.w3.org/Graphics/SVG/1.1/DTD/svg11.dtd">
<!-- Generated by graphviz version 15.0.0 (20260523.1842)
 -->
<!-- Title: leader&#45;redis&#45;lettuce&#45;sequence&#45;03 Pages: 1 -->
<svg width="908pt" height="440pt"
 viewBox="0.00 0.00 908.00 440.00" xmlns="http://www.w3.org/2000/svg" xmlns:xlink="http://www.w3.org/1999/xlink">
<g id="graph0" class="graph" transform="scale(1 1) rotate(0) translate(4 436)">
<title>leader&#45;redis&#45;lettuce&#45;sequence&#45;03</title>
<!-- caller -->
<g id="node1" class="node">
<title>caller</title>
<path fill="#f8fafc" stroke="#94a3b8" d="M49,-237C49,-237 12,-237 12,-237 6,-237 0,-231 0,-225 0,-225 0,-213 0,-213 0,-207 6,-201 12,-201 12,-201 49,-201 49,-201 55,-201 61,-207 61,-213 61,-213 61,-225 61,-225 61,-231 55,-237 49,-237"/>
<text xml:space="preserve" text-anchor="middle" x="30.5" y="-213.57" font-family="Comic Mono" font-size="14.00">Caller</text>
</g>
<!-- elector -->
<g id="node2" class="node">
<title>elector</title>
<path fill="#f8fafc" stroke="#94a3b8" d="M477.5,-237C477.5,-237 328,-237 328,-237 322,-237 316,-231 316,-225 316,-225 316,-213 316,-213 316,-207 322,-201 328,-201 328,-201 477.5,-201 477.5,-201 483.5,-201 489.5,-207 489.5,-213 489.5,-213 489.5,-225 489.5,-225 489.5,-231 483.5,-237 477.5,-237"/>
<text xml:space="preserve" text-anchor="middle" x="402.75" y="-213.57" font-family="Comic Mono" font-size="14.00">Lettuce Redis elector</text>
</g>
<!-- caller&#45;&gt;elector -->
<g id="edge1" class="edge">
<title>caller&#45;&gt;elector</title>
<path fill="none" stroke="#4f83bf" d="M61.28,-210C61.28,-210 307.01,-210 307.01,-210"/>
<polygon fill="#4f83bf" stroke="#4f83bf" points="307.01,-212.45 314.01,-210 307.01,-207.55 307.01,-212.45"/>
<text xml:space="preserve" text-anchor="middle" x="188.5" y="-288.5" font-family="Comic Mono" font-size="10.00">runIfLeader(lockName, options, body)</text>
</g>
<!-- elector&#45;&gt;caller -->
<g id="edge7" class="edge">
<title>elector&#45;&gt;caller</title>
<path fill="none" stroke="#3e9868" d="M315.94,-219C315.94,-219 69.87,-219 69.87,-219"/>
<polygon fill="#3e9868" stroke="#3e9868" points="69.87,-216.55 62.87,-219 69.87,-221.45 69.87,-216.55"/>
<text xml:space="preserve" text-anchor="middle" x="188.5" y="-221.5" font-family="Comic Mono" font-size="10.00">return body result</text>
</g>
<!-- elector&#45;&gt;caller -->
<g id="edge10" class="edge">
<title>elector&#45;&gt;caller</title>
<path fill="none" stroke="#c94d68" d="M315.94,-228C315.94,-228 69.87,-228 69.87,-228"/>
<polygon fill="#c94d68" stroke="#c94d68" points="69.87,-225.55 62.87,-228 69.87,-230.45 69.87,-225.55"/>
<text xml:space="preserve" text-anchor="middle" x="188.5" y="-154.5" font-family="Comic Mono" font-size="10.00">return skipped result</text>
</g>
<!-- backend -->
<g id="node3" class="node">
<title>backend</title>
<path fill="#f8fafc" stroke="#94a3b8" d="M873,-337C873,-337 813.5,-337 813.5,-337 807.5,-337 801.5,-331 801.5,-325 801.5,-325 801.5,-313 801.5,-313 801.5,-307 807.5,-301 813.5,-301 813.5,-301 873,-301 873,-301 879,-301 885,-307 885,-313 885,-313 885,-325 885,-325 885,-331 879,-337 873,-337"/>
<text xml:space="preserve" text-anchor="middle" x="843.25" y="-313.57" font-family="Comic Mono" font-size="14.00">Redis TTL</text>
</g>
<!-- elector&#45;&gt;backend -->
<g id="edge2" class="edge">
<title>elector&#45;&gt;backend</title>
<path fill="none" stroke="#b9851b" d="M489.8,-231.86C611.56,-231.86 818,-231.86 818,-231.86 818,-231.86 818,-292.01 818,-292.01"/>
<polygon fill="#b9851b" stroke="#b9851b" points="815.55,-292.01 818,-299.01 820.45,-292.01 815.55,-292.01"/>
<text xml:space="preserve" text-anchor="middle" x="638" y="-422.5" font-family="Comic Mono" font-size="10.00">SET lockKey token NX PX leaseTime</text>
</g>
<!-- elector&#45;&gt;backend -->
<g id="edge6" class="edge">
<title>elector&#45;&gt;backend</title>
<path fill="none" stroke="#755bc6" d="M489.99,-216.43C624.7,-216.43 868,-216.43 868,-216.43 868,-216.43 868,-292.15 868,-292.15"/>
<polygon fill="#755bc6" stroke="#755bc6" points="865.55,-292.15 868,-299.15 870.45,-292.15 865.55,-292.15"/>
<text xml:space="preserve" text-anchor="middle" x="638" y="-355.5" font-family="Comic Mono" font-size="10.00">update PTTL or DEL after minLeaseTime</text>
</g>
<!-- body -->
<g id="node4" class="node">
<title>body</title>
<path fill="#f8fafc" stroke="#94a3b8" d="M880.5,-146C880.5,-146 806,-146 806,-146 800,-146 794,-140 794,-134 794,-134 794,-122 794,-122 794,-116 800,-110 806,-110 806,-110 880.5,-110 880.5,-110 886.5,-110 892.5,-116 892.5,-122 892.5,-122 892.5,-134 892.5,-134 892.5,-140 886.5,-146 880.5,-146"/>
<text xml:space="preserve" text-anchor="middle" x="843.25" y="-122.58" font-family="Comic Mono" font-size="14.00">Leader body</text>
</g>
<!-- elector&#45;&gt;body -->
<g id="edge4" class="edge">
<title>elector&#45;&gt;body</title>
<path fill="none" stroke="#4f83bf" d="M489.71,-211.29C606.35,-211.29 799,-211.29 799,-211.29 799,-211.29 799,-155 799,-155"/>
<polygon fill="#4f83bf" stroke="#4f83bf" points="801.45,-155 799,-148 796.55,-155 801.45,-155"/>
<text xml:space="preserve" text-anchor="middle" x="638" y="-154.5" font-family="Comic Mono" font-size="10.00">execute protected leader body</text>
</g>
<!-- cleanup -->
<g id="node5" class="node">
<title>cleanup</title>
<path fill="#f8fafc" stroke="#94a3b8" d="M888,-36C888,-36 798.5,-36 798.5,-36 792.5,-36 786.5,-30 786.5,-24 786.5,-24 786.5,-12 786.5,-12 786.5,-6 792.5,0 798.5,0 798.5,0 888,0 888,0 894,0 900,-6 900,-12 900,-12 900,-24 900,-24 900,-30 894,-36 888,-36"/>
<text xml:space="preserve" text-anchor="middle" x="843.25" y="-12.57" font-family="Comic Mono" font-size="14.00">Recovery path</text>
</g>
<!-- elector&#45;&gt;cleanup -->
<g id="edge9" class="edge">
<title>elector&#45;&gt;cleanup</title>
<path fill="none" stroke="#2e8f89" d="M403,-200.81C403,-151.33 403,-18 403,-18 403,-18 777.63,-18 777.63,-18"/>
<polygon fill="#2e8f89" stroke="#2e8f89" points="777.63,-20.45 784.63,-18 777.63,-15.55 777.63,-20.45"/>
<text xml:space="preserve" text-anchor="middle" x="638" y="-20.5" font-family="Comic Mono" font-size="10.00">backend TTL enforces remaining minimum lease</text>
</g>
<!-- backend&#45;&gt;elector -->
<g id="edge3" class="edge">
<title>backend&#45;&gt;elector</title>
<path fill="none" stroke="#3e9868" d="M835,-300.77C835,-273.87 835,-226.71 835,-226.71 835,-226.71 498.48,-226.71 498.48,-226.71"/>
<polygon fill="#3e9868" stroke="#3e9868" points="498.48,-224.26 491.48,-226.71 498.48,-229.16 498.48,-224.26"/>
<text xml:space="preserve" text-anchor="middle" x="638" y="-288.5" font-family="Comic Mono" font-size="10.00">token accepted</text>
</g>
<!-- backend&#45;&gt;elector -->
<g id="edge8" class="edge">
<title>backend&#45;&gt;elector</title>
<path fill="none" stroke="#c94d68" d="M852,-300.67C852,-272.45 852,-221.57 852,-221.57 852,-221.57 498.42,-221.57 498.42,-221.57"/>
<polygon fill="#c94d68" stroke="#c94d68" points="498.42,-219.12 491.42,-221.57 498.42,-224.02 498.42,-219.12"/>
<text xml:space="preserve" text-anchor="middle" x="638" y="-221.5" font-family="Comic Mono" font-size="10.00">existing owner token blocks acquire</text>
</g>
<!-- body&#45;&gt;elector -->
<g id="edge5" class="edge">
<title>body&#45;&gt;elector</title>
<path fill="none" stroke="#3e9868" d="M796,-146.12C796,-169.21 796,-206.14 796,-206.14 796,-206.14 498.05,-206.14 498.05,-206.14"/>
<polygon fill="#3e9868" stroke="#3e9868" points="498.05,-203.69 491.05,-206.14 498.05,-208.59 498.05,-203.69"/>
<text xml:space="preserve" text-anchor="middle" x="638" y="-87.5" font-family="Comic Mono" font-size="10.00">body result</text>
</g>
</g>
</svg>
