<svg xmlns="http://www.w3.org/2000/svg" width="1754" height="952" viewBox="0 0 1754 952" role="img" aria-label="leader core Class Structure">
<defs>
  <filter id="shadow" x="-8%" y="-8%" width="116%" height="116%"><feDropShadow dx="0" dy="8" stdDeviation="9" flood-color="#1f2937" flood-opacity="0.10"/></filter>
  <marker id="openArrow" markerWidth="10" markerHeight="8" refX="8.5" refY="4" orient="auto" markerUnits="strokeWidth"><path d="M 1 1 L 8.5 4 L 1 7" fill="none" stroke="#758297" stroke-width="1.7" stroke-linecap="round" stroke-linejoin="round"/></marker>
  <marker id="inherit" markerWidth="11" markerHeight="10" refX="9.5" refY="5" orient="auto" markerUnits="strokeWidth"><path d="M 0.5 1 L 9.5 5 L 0.5 9 Z" fill="#ffffff" stroke="#758297" stroke-width="1.7"/></marker>
  <style>
    .canvas{fill:#f7f9fc}.frame{fill:#fff;stroke:#d8e0ea;stroke-width:1.5}
    .title{font-family:"Architects Daughter","Comic Sans MS","Comic Sans",cursive;font-size:43px;font-weight:400;fill:#102033}
    .subtitle{font-family:"Comic Sans MS","Comic Sans","Comic Neue",Arial,sans-serif;font-size:15px;font-weight:400;fill:#536273}
    .label{font-family:"Architects Daughter","Comic Sans MS","Comic Sans",cursive;font-size:25px;font-weight:400;fill:#102033}
    .smallLabel{font-family:"Architects Daughter","Comic Sans MS","Comic Sans",cursive;font-size:21px;font-weight:400;fill:#102033}
    .mono{font-family:"Comic Sans MS","Comic Sans","Comic Neue",Arial,sans-serif;font-size:12px;font-weight:400;fill:#102033}
    .small{font-family:"Comic Sans MS","Comic Sans","Comic Neue",Arial,sans-serif;font-size:12px;font-weight:400;fill:#536273}
    .strong{font-family:"Comic Sans MS","Comic Sans","Comic Neue",Arial,sans-serif;font-size:13px;font-weight:400;fill:#102033}
    .card{stroke-width:2.1;filter:url(#shadow)}.compartment{stroke-width:1.5;fill:none}
    .line{stroke:#758297;stroke-width:2.1;fill:none;marker-end:url(#openArrow)}
    .plainLine{stroke:#758297;stroke-width:2.1;fill:none}
    .dashed{stroke:#758297;stroke-width:2.1;stroke-dasharray:7 6;fill:none;marker-end:url(#openArrow)}
    .inheritLine{stroke:#758297;stroke-width:2.2;fill:none;marker-end:url(#inherit)}
    .implLine{stroke:#758297;stroke-width:2.2;stroke-dasharray:8 7;fill:none;marker-end:url(#inherit)}
  </style>
</defs>
<rect class="canvas" width="1754" height="952"/>
<rect class="frame" x="32" y="28" width="1690" height="896" rx="28"/>
<text class="title" x="66" y="82">leader core Class Structure</text>
<text class="subtitle" x="70" y="118">UML classes from the original Mermaid source</text>
<path class="inheritLine" d="M262 565 L262 502 L467 502 L467 439"/>
<path class="inheritLine" d="M1082 565 L1082 494 L467 494 L467 439"/>
<path class="inheritLine" d="M1492 565 L1492 486 L877 486 L877 376"/>
<path class="inheritLine" d="M672 565 L672 478 L877 478 L877 376"/>
<g transform="translate(297,180)">
  <rect class="card" x="0" y="0" width="340" height="259" rx="5" fill="#E8F3FF" stroke="#5B8DEF"/>
  <line class="compartment" x1="0" y1="78" x2="340" y2="78" stroke="#5B8DEF"/>
  <text class="small" x="170" y="26" text-anchor="middle">«interface»</text>
  <text class="label" x="170" y="61" text-anchor="middle">AsyncLeaderGroupElector</text>
  <text class="mono" x="18" y="108">+runAsyncIfLeader(lockName, action)</text>
<text class="mono" x="18" y="129">CompletableFuture~T?~</text>
<text class="mono" x="18" y="150">+runAsyncIfLeaderResult(slot, action)</text>
<text class="mono" x="18" y="171">CompletableFuture~LeaderRunResult~</text>
<text class="mono" x="18" y="192">+state(lockName) LeaderGroupState</text>
<text class="mono" x="18" y="213">+activeCount(lockName) Int</text>
<text class="mono" x="18" y="234">+availableSlots(lockName) Int</text>
</g>
<g transform="translate(707,180)">
  <rect class="card" x="0" y="0" width="340" height="196" rx="5" fill="#EAF7EF" stroke="#58A978"/>
  <line class="compartment" x1="0" y1="78" x2="340" y2="78" stroke="#58A978"/>
  <text class="small" x="170" y="26" text-anchor="middle">«interface»</text>
  <text class="label" x="170" y="61" text-anchor="middle">AsyncLeaderElector</text>
  <text class="mono" x="18" y="108">+runAsyncIfLeader(lockName, action)</text>
<text class="mono" x="18" y="129">CompletableFuture~T?~</text>
<text class="mono" x="18" y="150">+runAsyncIfLeaderResult(slot, action)</text>
<text class="mono" x="18" y="171">CompletableFuture~LeaderRunResult~</text>
</g>
<g transform="translate(1117,180)">
  <rect class="card" x="0" y="0" width="340" height="175" rx="5" fill="#FFF3D9" stroke="#D6A441"/>
  <line class="compartment" x1="0" y1="78" x2="340" y2="78" stroke="#D6A441"/>
  <text class="small" x="170" y="26" text-anchor="middle">«interface»</text>
  <text class="label" x="170" y="61" text-anchor="middle">SuspendLeaderElector</text>
  <text class="mono" x="18" y="108">+runIfLeader(lockName, action) T?</text>
<text class="mono" x="18" y="129">+runIfLeaderResultSuspend(lockName,</text>
<text class="mono" x="18" y="150">action) LeaderRunResult</text>
</g>
<g transform="translate(92,565)">
  <rect class="card" x="0" y="0" width="340" height="191" rx="5" fill="#FDECEF" stroke="#DC6B82"/>
  <line class="compartment" x1="0" y1="94" x2="340" y2="94" stroke="#DC6B82"/>
  <text class="small" x="170" y="26" text-anchor="middle">«interface»</text>
  <text class="label" x="170" y="56.5" text-anchor="middle">Suspend Leader Group</text>
<text class="label" x="170" y="81.5" text-anchor="middle">Elector</text>
  <text class="mono" x="18" y="124">+runIfLeader(lockName, action) T?</text>
<text class="mono" x="18" y="145">+runIfLeaderResultSuspend(lockName,</text>
<text class="mono" x="18" y="166">action) LeaderRunResult</text>
</g>
<g transform="translate(502,565)">
  <rect class="card" x="0" y="0" width="340" height="175" rx="5" fill="#E9F7F6" stroke="#45A7A1"/>
  <line class="compartment" x1="0" y1="78" x2="340" y2="78" stroke="#45A7A1"/>
  <text class="small" x="170" y="26" text-anchor="middle">«interface»</text>
  <text class="label" x="170" y="61" text-anchor="middle">LeaderElector</text>
  <text class="mono" x="18" y="108">+runIfLeader(lockName, action) T?</text>
<text class="mono" x="18" y="129">+runIfLeaderResult(lockName, action)</text>
<text class="mono" x="18" y="150">LeaderRunResult</text>
</g>
<g transform="translate(912,565)">
  <rect class="card" x="0" y="0" width="340" height="175" rx="5" fill="#F1ECFF" stroke="#8A72D6"/>
  <line class="compartment" x1="0" y1="78" x2="340" y2="78" stroke="#8A72D6"/>
  <text class="small" x="170" y="26" text-anchor="middle">«interface»</text>
  <text class="label" x="170" y="61" text-anchor="middle">LeaderGroupElector</text>
  <text class="mono" x="18" y="108">+runIfLeader(lockName, action) T?</text>
<text class="mono" x="18" y="129">+runIfLeaderResult(lockName, action)</text>
<text class="mono" x="18" y="150">LeaderRunResult</text>
</g>
<g transform="translate(1322,565)">
  <rect class="card" x="0" y="0" width="340" height="191" rx="5" fill="#F7F1E7" stroke="#B88A44"/>
  <line class="compartment" x1="0" y1="94" x2="340" y2="94" stroke="#B88A44"/>
  <text class="small" x="170" y="26" text-anchor="middle">«interface»</text>
  <text class="label" x="170" y="56.5" text-anchor="middle">Virtual Thread Leader</text>
<text class="label" x="170" y="81.5" text-anchor="middle">Elector</text>
  <text class="mono" x="18" y="124">+runIfLeader(lockName, action) T?</text>
<text class="mono" x="18" y="145">+runAsyncIfLeaderResult(slot, action)</text>
<text class="mono" x="18" y="166">VirtualFuture~LeaderRunResult~</text>
</g>
</svg>
