<?xml version="1.0" encoding="UTF-8" standalone="no"?>
<!DOCTYPE svg PUBLIC "-//W3C//DTD SVG 1.1//EN"
 "http://www.w3.org/Graphics/SVG/1.1/DTD/svg11.dtd">
<!-- Generated by graphviz version 15.0.0 (20260523.1842)
 -->
<!-- Title: leader&#45;redis&#45;lettuce&#45;class&#45;01 Pages: 1 -->
<svg width="7278pt" height="614pt"
 viewBox="0.00 0.00 7278.00 614.00" xmlns="http://www.w3.org/2000/svg" xmlns:xlink="http://www.w3.org/1999/xlink">
<g id="graph0" class="graph" transform="scale(1 1) rotate(0) translate(4 610)">
<title>leader&#45;redis&#45;lettuce&#45;class&#45;01</title>
<!-- leaderContract -->
<g id="node1" class="node">
<title>leaderContract</title>
<path fill="#f8fafc" stroke="#94a3b8" d="M1076.25,-264C1076.25,-264 154.25,-264 154.25,-264 148.25,-264 142.25,-258 142.25,-252 142.25,-252 142.25,-240 142.25,-240 142.25,-234 148.25,-228 154.25,-228 154.25,-228 1076.25,-228 1076.25,-228 1082.25,-228 1088.25,-234 1088.25,-240 1088.25,-240 1088.25,-252 1088.25,-252 1088.25,-258 1082.25,-264 1076.25,-264"/>
<text xml:space="preserve" text-anchor="middle" x="615.25" y="-240.57" font-family="Comic Mono" font-size="14.00">&lt;&lt;core interface&gt;&gt;\nLeaderElector\n+ runIfLeader(lockName): T?\n+ runAsyncIfLeader(lockName)\n+ state(lockName): LeaderState</text>
</g>
<!-- suspendContract -->
<g id="node2" class="node">
<title>suspendContract</title>
<path fill="#f8fafc" stroke="#94a3b8" d="M3534,-264C3534,-264 2484.5,-264 2484.5,-264 2478.5,-264 2472.5,-258 2472.5,-252 2472.5,-252 2472.5,-240 2472.5,-240 2472.5,-234 2478.5,-228 2484.5,-228 2484.5,-228 3534,-228 3534,-228 3540,-228 3546,-234 3546,-240 3546,-240 3546,-252 3546,-252 3546,-258 3540,-264 3534,-264"/>
<text xml:space="preserve" text-anchor="middle" x="3009.25" y="-240.57" font-family="Comic Mono" font-size="14.00">&lt;&lt;core suspend interface&gt;&gt;\nSuspendLeaderElector\n+ suspend runIfLeader(lockName)\n+ runIfLeaderResultSuspend(slot)\ncoroutine context handle</text>
</g>
<!-- groupContract -->
<g id="node3" class="node">
<title>groupContract</title>
<path fill="#f8fafc" stroke="#94a3b8" d="M4663.25,-264C4663.25,-264 3741.25,-264 3741.25,-264 3735.25,-264 3729.25,-258 3729.25,-252 3729.25,-252 3729.25,-240 3729.25,-240 3729.25,-234 3735.25,-228 3741.25,-228 3741.25,-228 4663.25,-228 4663.25,-228 4669.25,-228 4675.25,-234 4675.25,-240 4675.25,-240 4675.25,-252 4675.25,-252 4675.25,-258 4669.25,-264 4663.25,-264"/>
<text xml:space="preserve" text-anchor="middle" x="4202.25" y="-240.57" font-family="Comic Mono" font-size="14.00">&lt;&lt;core group interface&gt;&gt;\nLeaderGroupElector\n+ maxLeaders: Int\n+ runIfLeader(lockName): T?\n+ activeCount / availableSlots</text>
</g>
<!-- suspendGroupContract -->
<g id="node4" class="node">
<title>suspendGroupContract</title>
<path fill="#f8fafc" stroke="#94a3b8" d="M7257.75,-264C7257.75,-264 6230.75,-264 6230.75,-264 6224.75,-264 6218.75,-258 6218.75,-252 6218.75,-252 6218.75,-240 6218.75,-240 6218.75,-234 6224.75,-228 6230.75,-228 6230.75,-228 7257.75,-228 7257.75,-228 7263.75,-228 7269.75,-234 7269.75,-240 7269.75,-240 7269.75,-252 7269.75,-252 7269.75,-258 7263.75,-264 7257.75,-264"/>
<text xml:space="preserve" text-anchor="middle" x="6744.25" y="-240.57" font-family="Comic Mono" font-size="14.00">&lt;&lt;core suspend group&gt;&gt;\nSuspendLeaderGroupElector\n+ maxLeaders: Int\n+ suspend runIfLeader(lockName)\n+ state(lockName): LeaderGroupState</text>
</g>
<!-- lettuceLeader -->
<g id="node5" class="node">
<title>lettuceLeader</title>
<path fill="#f8fafc" stroke="#94a3b8" d="M1316.5,-150C1316.5,-150 12,-150 12,-150 6,-150 0,-144 0,-138 0,-138 0,-126 0,-126 0,-120 6,-114 12,-114 12,-114 1316.5,-114 1316.5,-114 1322.5,-114 1328.5,-120 1328.5,-126 1328.5,-126 1328.5,-138 1328.5,-138 1328.5,-144 1322.5,-150 1316.5,-150"/>
<text xml:space="preserve" text-anchor="middle" x="664.25" y="-126.58" font-family="Comic Mono" font-size="14.00">&lt;&lt;blocking + async implementation&gt;&gt;\nLettuceLeaderElector\nStatefulRedisConnection&lt;String,String&gt;\ncreates LettuceLock\nautoExtend watchdog optional\noptional history recorder</text>
</g>
<!-- lettuceLeader&#45;&gt;leaderContract -->
<g id="edge1" class="edge">
<title>lettuceLeader&#45;&gt;leaderContract</title>
<path fill="none" stroke="#4f83bf" d="M615.25,-150.32C615.25,-150.32 615.25,-218.22 615.25,-218.22"/>
<polygon fill="#4f83bf" stroke="#4f83bf" points="612.45,-218.22 615.25,-226.22 618.05,-218.22 612.45,-218.22"/>
<text xml:space="preserve" text-anchor="middle" x="633.62" y="-185.5" font-family="Comic Mono" font-size="10.00">inherit</text>
</g>
<!-- singleDelegates -->
<g id="node10" class="node">
<title>singleDelegates</title>
<path fill="#f8fafc" stroke="#94a3b8" d="M2406.25,-264C2406.25,-264 1154.25,-264 1154.25,-264 1148.25,-264 1142.25,-258 1142.25,-252 1142.25,-252 1142.25,-240 1142.25,-240 1142.25,-234 1148.25,-228 1154.25,-228 1154.25,-228 2406.25,-228 2406.25,-228 2412.25,-228 2418.25,-234 2418.25,-240 2418.25,-240 2418.25,-252 2418.25,-252 2418.25,-258 2412.25,-264 2406.25,-264"/>
<text xml:space="preserve" text-anchor="middle" x="1780.25" y="-240.57" font-family="Comic Mono" font-size="14.00">&lt;&lt;renewal delegates&gt;&gt;\nSingle Extend Delegates\nLettuceLockExtendDelegate\nLettuceSuspendLockExtendDelegate\nshare lock with LeaderLockHandle\nR2 watchdog skip deadline</text>
</g>
<!-- lettuceLeader&#45;&gt;singleDelegates -->
<g id="edge9" class="edge">
<title>lettuceLeader&#45;&gt;singleDelegates</title>
<path fill="none" stroke="#b9851b" d="M1235.38,-150.32C1235.38,-150.32 1235.38,-218.22 1235.38,-218.22"/>
<polygon fill="#b9851b" stroke="#b9851b" points="1232.58,-218.22 1235.38,-226.22 1238.18,-218.22 1232.58,-218.22"/>
<text xml:space="preserve" text-anchor="middle" x="1285.62" y="-185.5" font-family="Comic Mono" font-size="10.00">handle delegate</text>
</g>
<!-- lettuceSuspend -->
<g id="node6" class="node">
<title>lettuceSuspend</title>
<path fill="#f8fafc" stroke="#94a3b8" d="M2631.75,-150C2631.75,-150 1394.75,-150 1394.75,-150 1388.75,-150 1382.75,-144 1382.75,-138 1382.75,-138 1382.75,-126 1382.75,-126 1382.75,-120 1388.75,-114 1394.75,-114 1394.75,-114 2631.75,-114 2631.75,-114 2637.75,-114 2643.75,-120 2643.75,-126 2643.75,-126 2643.75,-138 2643.75,-138 2643.75,-144 2637.75,-150 2631.75,-150"/>
<text xml:space="preserve" text-anchor="middle" x="2013.25" y="-126.58" font-family="Comic Mono" font-size="14.00">&lt;&lt;coroutine implementation&gt;&gt;\nLettuceSuspendLeaderElector\nuses Lettuce async commands\ncreates LettuceSuspendLock\nwithContext(handle element)\nNonCancellable unlock</text>
</g>
<!-- lettuceSuspend&#45;&gt;suspendContract -->
<g id="edge2" class="edge">
<title>lettuceSuspend&#45;&gt;suspendContract</title>
<path fill="none" stroke="#4f83bf" d="M2558.12,-150.32C2558.12,-150.32 2558.12,-218.22 2558.12,-218.22"/>
<polygon fill="#4f83bf" stroke="#4f83bf" points="2555.33,-218.22 2558.13,-226.22 2560.93,-218.22 2555.33,-218.22"/>
<text xml:space="preserve" text-anchor="middle" x="3027.62" y="-185.5" font-family="Comic Mono" font-size="10.00">inherit</text>
</g>
<!-- lettuceSuspend&#45;&gt;singleDelegates -->
<g id="edge10" class="edge">
<title>lettuceSuspend&#45;&gt;singleDelegates</title>
<path fill="none" stroke="#b9851b" d="M1727.92,-150.32C1727.92,-150.32 1727.92,-218.22 1727.92,-218.22"/>
<polygon fill="#b9851b" stroke="#b9851b" points="1725.12,-218.22 1727.92,-226.22 1730.72,-218.22 1725.12,-218.22"/>
<text xml:space="preserve" text-anchor="middle" x="2022.25" y="-185.5" font-family="Comic Mono" font-size="10.00">suspend delegate</text>
</g>
<!-- lettuceGroup -->
<g id="node7" class="node">
<title>lettuceGroup</title>
<path fill="#f8fafc" stroke="#94a3b8" d="M5374.5,-150C5374.5,-150 4160,-150 4160,-150 4154,-150 4148,-144 4148,-138 4148,-138 4148,-126 4148,-126 4148,-120 4154,-114 4160,-114 4160,-114 5374.5,-114 5374.5,-114 5380.5,-114 5386.5,-120 5386.5,-126 5386.5,-126 5386.5,-138 5386.5,-138 5386.5,-144 5380.5,-150 5374.5,-150"/>
<text xml:space="preserve" text-anchor="middle" x="4767.25" y="-126.58" font-family="Comic Mono" font-size="14.00">&lt;&lt;slot&#45;token group implementation&gt;&gt;\nLettuceLeaderGroupElector\nreuses slotGroups map\ncreates LettuceSlotTokenGroup\ntoken becomes slotId\ngroup watchdog disabled</text>
</g>
<!-- lettuceGroup&#45;&gt;groupContract -->
<g id="edge3" class="edge">
<title>lettuceGroup&#45;&gt;groupContract</title>
<path fill="none" stroke="#4f83bf" d="M4411.62,-150.32C4411.62,-150.32 4411.62,-218.22 4411.62,-218.22"/>
<polygon fill="#4f83bf" stroke="#4f83bf" points="4408.83,-218.22 4411.63,-226.22 4414.43,-218.22 4408.83,-218.22"/>
<text xml:space="preserve" text-anchor="middle" x="4220.62" y="-185.5" font-family="Comic Mono" font-size="10.00">inherit</text>
</g>
<!-- slotDelegates -->
<g id="node11" class="node">
<title>slotDelegates</title>
<path fill="#f8fafc" stroke="#94a3b8" d="M6023.25,-264C6023.25,-264 4741.25,-264 4741.25,-264 4735.25,-264 4729.25,-258 4729.25,-252 4729.25,-252 4729.25,-240 4729.25,-240 4729.25,-234 4735.25,-228 4741.25,-228 4741.25,-228 6023.25,-228 6023.25,-228 6029.25,-228 6035.25,-234 6035.25,-240 6035.25,-240 6035.25,-252 6035.25,-252 6035.25,-258 6029.25,-264 6023.25,-264"/>
<text xml:space="preserve" text-anchor="middle" x="5382.25" y="-240.57" font-family="Comic Mono" font-size="14.00">&lt;&lt;group renewal delegates&gt;&gt;\nSlot Extend Delegates\nLettuceSlotExtendDelegate\nLettuceSuspendSlotExtendDelegate\nextend slot token via server TIME\nmanual LockExtender path</text>
</g>
<!-- lettuceGroup&#45;&gt;slotDelegates -->
<g id="edge11" class="edge">
<title>lettuceGroup&#45;&gt;slotDelegates</title>
<path fill="none" stroke="#755bc6" d="M5167.42,-150.32C5167.42,-150.32 5167.42,-218.22 5167.42,-218.22"/>
<polygon fill="#755bc6" stroke="#755bc6" points="5164.62,-218.22 5167.42,-226.22 5170.22,-218.22 5164.62,-218.22"/>
<text xml:space="preserve" text-anchor="middle" x="5087.38" y="-185.5" font-family="Comic Mono" font-size="10.00">slot delegate</text>
</g>
<!-- slotGroup -->
<g id="node13" class="node">
<title>slotGroup</title>
<path fill="#f8fafc" stroke="#94a3b8" d="M4969.25,-378C4969.25,-378 3657.25,-378 3657.25,-378 3651.25,-378 3645.25,-372 3645.25,-366 3645.25,-366 3645.25,-354 3645.25,-354 3645.25,-348 3651.25,-342 3657.25,-342 3657.25,-342 4969.25,-342 4969.25,-342 4975.25,-342 4981.25,-348 4981.25,-354 4981.25,-354 4981.25,-366 4981.25,-366 4981.25,-372 4975.25,-378 4969.25,-378"/>
<text xml:space="preserve" text-anchor="middle" x="4313.25" y="-354.57" font-family="Comic Mono" font-size="14.00">&lt;&lt;ZSET slot&#45;token primitive&gt;&gt;\nLettuceSlotTokenGroup\nslotKey: lg:{lockName}\nmember token, score expiryAtMs\nmetaKey stores LeaderSlot leaderId\nno legacy semaphore dependency</text>
</g>
<!-- lettuceGroup&#45;&gt;slotGroup -->
<g id="edge16" class="edge">
<title>lettuceGroup&#45;&gt;slotGroup</title>
<path fill="none" stroke="#755bc6" d="M4702.25,-150.27C4702.25,-150.27 4702.25,-332.13 4702.25,-332.13"/>
<polygon fill="#755bc6" stroke="#755bc6" points="4699.45,-332.13 4702.25,-340.13 4705.05,-332.13 4699.45,-332.13"/>
<text xml:space="preserve" text-anchor="middle" x="3664.75" y="-242.5" font-family="Comic Mono" font-size="10.00">slot</text>
</g>
<!-- lettuceSuspendGroup -->
<g id="node8" class="node">
<title>lettuceSuspendGroup</title>
<path fill="#f8fafc" stroke="#94a3b8" d="M6702.5,-150C6702.5,-150 5458,-150 5458,-150 5452,-150 5446,-144 5446,-138 5446,-138 5446,-126 5446,-126 5446,-120 5452,-114 5458,-114 5458,-114 6702.5,-114 6702.5,-114 6708.5,-114 6714.5,-120 6714.5,-126 6714.5,-126 6714.5,-138 6714.5,-138 6714.5,-144 6708.5,-150 6702.5,-150"/>
<text xml:space="preserve" text-anchor="middle" x="6080.25" y="-126.58" font-family="Comic Mono" font-size="14.00">&lt;&lt;coroutine slot group&gt;&gt;\nLettuceSuspend Group\nLettuceSuspendLeaderGroupElector\nuses same SlotTokenGroup primitive\ntryAcquireSuspending\nNonCancellable slot release</text>
</g>
<!-- lettuceSuspendGroup&#45;&gt;suspendGroupContract -->
<g id="edge4" class="edge">
<title>lettuceSuspendGroup&#45;&gt;suspendGroupContract</title>
<path fill="none" stroke="#4f83bf" d="M6466.62,-150.32C6466.62,-150.32 6466.62,-218.22 6466.62,-218.22"/>
<polygon fill="#4f83bf" stroke="#4f83bf" points="6463.83,-218.22 6466.63,-226.22 6469.43,-218.22 6463.83,-218.22"/>
<text xml:space="preserve" text-anchor="middle" x="6762.62" y="-185.5" font-family="Comic Mono" font-size="10.00">inherit</text>
</g>
<!-- lettuceSuspendGroup&#45;&gt;slotDelegates -->
<g id="edge12" class="edge">
<title>lettuceSuspendGroup&#45;&gt;slotDelegates</title>
<path fill="none" stroke="#755bc6" d="M5740.62,-150.32C5740.62,-150.32 5740.62,-218.22 5740.62,-218.22"/>
<polygon fill="#755bc6" stroke="#755bc6" points="5737.83,-218.22 5740.63,-226.22 5743.43,-218.22 5737.83,-218.22"/>
<text xml:space="preserve" text-anchor="middle" x="6068.75" y="-185.5" font-family="Comic Mono" font-size="10.00">suspend slot</text>
</g>
<!-- lettuceSuspendGroup&#45;&gt;slotGroup -->
<g id="edge17" class="edge">
<title>lettuceSuspendGroup&#45;&gt;slotGroup</title>
<path fill="none" stroke="#755bc6" d="M6127,-150.27C6127,-204.38 6127,-360 6127,-360 6127,-360 4991.05,-360 4991.05,-360"/>
<polygon fill="#755bc6" stroke="#755bc6" points="4991.05,-357.2 4983.05,-360 4991.05,-362.8 4991.05,-357.2"/>
<text xml:space="preserve" text-anchor="middle" x="6153.75" y="-242.5" font-family="Comic Mono" font-size="10.00">slot</text>
</g>
<!-- factories -->
<g id="node9" class="node">
<title>factories</title>
<path fill="#f8fafc" stroke="#94a3b8" d="M3372.25,-36C3372.25,-36 2030.25,-36 2030.25,-36 2024.25,-36 2018.25,-30 2018.25,-24 2018.25,-24 2018.25,-12 2018.25,-12 2018.25,-6 2024.25,0 2030.25,0 2030.25,0 3372.25,0 3372.25,0 3378.25,0 3384.25,-6 3384.25,-12 3384.25,-12 3384.25,-24 3384.25,-24 3384.25,-30 3378.25,-36 3372.25,-36"/>
<text xml:space="preserve" text-anchor="middle" x="2701.25" y="-12.57" font-family="Comic Mono" font-size="14.00">&lt;&lt;factory + extensions&gt;&gt;\nFactory Entrypoints\nLettuceLeaderElectorFactory\nLettuceLeaderGroupElectorFactory\nLettuceSuspendLeaderElectorFactory\nStatefulRedisConnection extensions</text>
</g>
<!-- factories&#45;&gt;lettuceLeader -->
<g id="edge5" class="edge">
<title>factories&#45;&gt;lettuceLeader</title>
<path fill="none" stroke="#758297" d="M2018.09,-18C1685.17,-18 1355.62,-18 1355.62,-18 1355.62,-18 1355.62,-132 1355.62,-132 1355.62,-132 1338.46,-132 1338.46,-132"/>
<polygon fill="#758297" stroke="#758297" points="1338.46,-129.2 1330.46,-132 1338.46,-134.8 1338.46,-129.2"/>
<text xml:space="preserve" text-anchor="middle" x="1941.5" y="-71.5" font-family="Comic Mono" font-size="10.00">dependency</text>
</g>
<!-- factories&#45;&gt;lettuceSuspend -->
<g id="edge6" class="edge">
<title>factories&#45;&gt;lettuceSuspend</title>
<path fill="none" stroke="#758297" d="M2331,-36.32C2331,-36.32 2331,-104.22 2331,-104.22"/>
<polygon fill="#758297" stroke="#758297" points="2328.2,-104.22 2331,-112.22 2333.8,-104.22 2328.2,-104.22"/>
<text xml:space="preserve" text-anchor="middle" x="2671.5" y="-71.5" font-family="Comic Mono" font-size="10.00">dependency</text>
</g>
<!-- factories&#45;&gt;lettuceGroup -->
<g id="edge7" class="edge">
<title>factories&#45;&gt;lettuceGroup</title>
<path fill="none" stroke="#758297" d="M3384.67,-24C3748.26,-24 4121.12,-24 4121.12,-24 4121.12,-24 4121.12,-132 4121.12,-132 4121.12,-132 4138.14,-132 4138.14,-132"/>
<polygon fill="#758297" stroke="#758297" points="4138.14,-134.8 4146.14,-132 4138.14,-129.2 4138.14,-134.8"/>
<text xml:space="preserve" text-anchor="middle" x="4104.5" y="-71.5" font-family="Comic Mono" font-size="10.00">dependency</text>
</g>
<!-- factories&#45;&gt;lettuceSuspendGroup -->
<g id="edge8" class="edge">
<title>factories&#45;&gt;lettuceSuspendGroup</title>
<path fill="none" stroke="#758297" d="M3384.61,-12C4188.87,-12 5416.25,-12 5416.25,-12 5416.25,-12 5416.25,-132 5416.25,-132 5416.25,-132 5436.12,-132 5436.12,-132"/>
<polygon fill="#758297" stroke="#758297" points="5436.12,-134.8 5444.12,-132 5436.12,-129.2 5436.12,-134.8"/>
<text xml:space="preserve" text-anchor="middle" x="5474.5" y="-71.5" font-family="Comic Mono" font-size="10.00">dependency</text>
</g>
<!-- lettuceLock -->
<g id="node12" class="node">
<title>lettuceLock</title>
<path fill="#f8fafc" stroke="#94a3b8" d="M2338.75,-378C2338.75,-378 1221.75,-378 1221.75,-378 1215.75,-378 1209.75,-372 1209.75,-366 1209.75,-366 1209.75,-354 1209.75,-354 1209.75,-348 1215.75,-342 1221.75,-342 1221.75,-342 2338.75,-342 2338.75,-342 2344.75,-342 2350.75,-348 2350.75,-354 2350.75,-354 2350.75,-366 2350.75,-366 2350.75,-372 2344.75,-378 2338.75,-378"/>
<text xml:space="preserve" text-anchor="middle" x="1780.25" y="-354.57" font-family="Comic Mono" font-size="14.00">&lt;&lt;Redis SET NX PX lock&gt;&gt;\nLettuceLock\ntoken: Base58 fencing value\nSET key token NX PX lease\nLua token unlock / PEXPIRE\nasync retry uses same token</text>
</g>
<!-- singleDelegates&#45;&gt;lettuceLock -->
<g id="edge13" class="edge">
<title>singleDelegates&#45;&gt;lettuceLock</title>
<path fill="none" stroke="#b9851b" d="M1780.25,-264.32C1780.25,-264.32 1780.25,-332.22 1780.25,-332.22"/>
<polygon fill="#b9851b" stroke="#b9851b" points="1777.45,-332.22 1780.25,-340.22 1783.05,-332.22 1777.45,-332.22"/>
<text xml:space="preserve" text-anchor="middle" x="1809.12" y="-299.5" font-family="Comic Mono" font-size="10.00">sync extend</text>
</g>
<!-- lettuceSuspendLock -->
<g id="node14" class="node">
<title>lettuceSuspendLock</title>
<path fill="#f8fafc" stroke="#94a3b8" d="M3579.25,-378C3579.25,-378 2417.25,-378 2417.25,-378 2411.25,-378 2405.25,-372 2405.25,-366 2405.25,-366 2405.25,-354 2405.25,-354 2405.25,-348 2411.25,-342 2417.25,-342 2417.25,-342 3579.25,-342 3579.25,-342 3585.25,-342 3591.25,-348 3591.25,-354 3591.25,-354 3591.25,-366 3591.25,-366 3591.25,-372 3585.25,-378 3579.25,-378"/>
<text xml:space="preserve" text-anchor="middle" x="2998.25" y="-354.57" font-family="Comic Mono" font-size="14.00">&lt;&lt;coroutine Redis lock&gt;&gt;\nLettuceSuspendLock\nasyncCommands.set NX PX\ndelay retry + ensureActive\nLua token unlock / PEXPIRE\nsuspend native extendDetailed</text>
</g>
<!-- singleDelegates&#45;&gt;lettuceSuspendLock -->
<g id="edge14" class="edge">
<title>singleDelegates&#45;&gt;lettuceSuspendLock</title>
<path fill="none" stroke="#b9851b" d="M2411.75,-264.32C2411.75,-264.32 2411.75,-332.22 2411.75,-332.22"/>
<polygon fill="#b9851b" stroke="#b9851b" points="2408.95,-332.22 2411.75,-340.22 2414.55,-332.22 2408.95,-332.22"/>
<text xml:space="preserve" text-anchor="middle" x="2460.38" y="-299.5" font-family="Comic Mono" font-size="10.00">local</text>
</g>
<!-- slotDelegates&#45;&gt;slotGroup -->
<g id="edge15" class="edge">
<title>slotDelegates&#45;&gt;slotGroup</title>
<path fill="none" stroke="#755bc6" d="M4855.25,-264.32C4855.25,-264.32 4855.25,-332.22 4855.25,-332.22"/>
<polygon fill="#755bc6" stroke="#755bc6" points="4852.45,-332.22 4855.25,-340.22 4858.05,-332.22 4852.45,-332.22"/>
<text xml:space="preserve" text-anchor="middle" x="4857.75" y="-299.5" font-family="Comic Mono" font-size="10.00">slot</text>
</g>
<!-- scriptRunner -->
<g id="node15" class="node">
<title>scriptRunner</title>
<path fill="#f8fafc" stroke="#94a3b8" d="M3523,-492C3523,-492 2473.5,-492 2473.5,-492 2467.5,-492 2461.5,-486 2461.5,-480 2461.5,-480 2461.5,-468 2461.5,-468 2461.5,-462 2467.5,-456 2473.5,-456 2473.5,-456 3523,-456 3523,-456 3529,-456 3535,-462 3535,-468 3535,-468 3535,-480 3535,-480 3535,-486 3529,-492 3523,-492"/>
<text xml:space="preserve" text-anchor="middle" x="2998.25" y="-468.57" font-family="Comic Mono" font-size="14.00">&lt;&lt;Lua execution helper&gt;&gt;\nRedisScriptRunner\nRedisScript.sha1\nEVALSHA first\nNOSCRIPT falls back to EVAL\nsync / async / suspend entrypoints</text>
</g>
<!-- lettuceLock&#45;&gt;scriptRunner -->
<g id="edge18" class="edge">
<title>lettuceLock&#45;&gt;scriptRunner</title>
<path fill="none" stroke="#758297" d="M2351.1,-366C2358.79,-366 2363,-366 2363,-366 2363,-366 2363,-474 2363,-474 2363,-474 2451.7,-474 2451.7,-474"/>
<polygon fill="#758297" stroke="#758297" points="2451.7,-476.8 2459.7,-474 2451.7,-471.2 2451.7,-476.8"/>
<text xml:space="preserve" text-anchor="middle" x="2546.62" y="-413.5" font-family="Comic Mono" font-size="10.00">unlock / extend</text>
</g>
<!-- redisKeys -->
<g id="node16" class="node">
<title>redisKeys</title>
<path fill="#f8fafc" stroke="#94a3b8" d="M3609.25,-606C3609.25,-606 2387.25,-606 2387.25,-606 2381.25,-606 2375.25,-600 2375.25,-594 2375.25,-594 2375.25,-582 2375.25,-582 2375.25,-576 2381.25,-570 2387.25,-570 2387.25,-570 3609.25,-570 3609.25,-570 3615.25,-570 3621.25,-576 3621.25,-582 3621.25,-582 3621.25,-594 3621.25,-594 3621.25,-600 3615.25,-606 3609.25,-606"/>
<text xml:space="preserve" text-anchor="middle" x="2998.25" y="-582.58" font-family="Comic Mono" font-size="14.00">&lt;&lt;Redis storage contract&gt;&gt;\nRedis Runtime Keys\nsingle lock key: SET NX PX\ngroup ZSET: lg:{lockName}\ngroup hash: lg:{lockName}:meta\nACQUIRE evicts expired scores</text>
</g>
<!-- lettuceLock&#45;&gt;redisKeys -->
<g id="edge22" class="edge">
<title>lettuceLock&#45;&gt;redisKeys</title>
<path fill="none" stroke="#758297" d="M2351.16,-354C2375.73,-354 2390.25,-354 2390.25,-354 2390.25,-354 2390.25,-560.12 2390.25,-560.12"/>
<polygon fill="#758297" stroke="#758297" points="2387.45,-560.12 2390.25,-568.12 2393.05,-560.12 2387.45,-560.12"/>
<text xml:space="preserve" text-anchor="middle" x="2093.5" y="-470.5" font-family="Comic Mono" font-size="10.00">dependency</text>
</g>
<!-- slotGroup&#45;&gt;scriptRunner -->
<g id="edge20" class="edge">
<title>slotGroup&#45;&gt;scriptRunner</title>
<path fill="none" stroke="#758297" d="M3644.77,-366C3637.3,-366 3633.25,-366 3633.25,-366 3633.25,-366 3633.25,-474 3633.25,-474 3633.25,-474 3544.94,-474 3544.94,-474"/>
<polygon fill="#758297" stroke="#758297" points="3544.94,-471.2 3536.94,-474 3544.94,-476.8 3544.94,-471.2"/>
<text xml:space="preserve" text-anchor="middle" x="3698" y="-413.5" font-family="Comic Mono" font-size="10.00">acquire release status</text>
</g>
<!-- slotGroup&#45;&gt;redisKeys -->
<g id="edge23" class="edge">
<title>slotGroup&#45;&gt;redisKeys</title>
<path fill="none" stroke="#755bc6" d="M3644.76,-354C3620.43,-354 3606.25,-354 3606.25,-354 3606.25,-354 3606.25,-560.12 3606.25,-560.12"/>
<polygon fill="#755bc6" stroke="#755bc6" points="3603.45,-560.12 3606.25,-568.12 3609.05,-560.12 3603.45,-560.12"/>
<text xml:space="preserve" text-anchor="middle" x="4020.25" y="-470.5" font-family="Comic Mono" font-size="10.00">ZSET + meta hash</text>
</g>
<!-- lettuceSuspendLock&#45;&gt;scriptRunner -->
<g id="edge19" class="edge">
<title>lettuceSuspendLock&#45;&gt;scriptRunner</title>
<path fill="none" stroke="#758297" d="M2998.25,-378.32C2998.25,-378.32 2998.25,-446.22 2998.25,-446.22"/>
<polygon fill="#758297" stroke="#758297" points="2995.45,-446.22 2998.25,-454.22 3001.05,-446.22 2995.45,-446.22"/>
<text xml:space="preserve" text-anchor="middle" x="3027.12" y="-413.5" font-family="Comic Mono" font-size="10.00">suspend Lua</text>
</g>
<!-- scriptRunner&#45;&gt;redisKeys -->
<g id="edge21" class="edge">
<title>scriptRunner&#45;&gt;redisKeys</title>
<path fill="none" stroke="#758297" d="M2998.25,-492.32C2998.25,-492.32 2998.25,-560.22 2998.25,-560.22"/>
<polygon fill="#758297" stroke="#758297" points="2995.45,-560.22 2998.25,-568.22 3001.05,-560.22 2995.45,-560.22"/>
<text xml:space="preserve" text-anchor="middle" x="3035" y="-527.5" font-family="Comic Mono" font-size="10.00">EVALSHA / EVAL</text>
</g>
<!-- classifier -->
<g id="node17" class="node">
<title>classifier</title>
<path fill="#f8fafc" stroke="#94a3b8" d="M4082.25,-150C4082.25,-150 2710.25,-150 2710.25,-150 2704.25,-150 2698.25,-144 2698.25,-138 2698.25,-138 2698.25,-126 2698.25,-126 2698.25,-120 2704.25,-114 2710.25,-114 2710.25,-114 4082.25,-114 4082.25,-114 4088.25,-114 4094.25,-120 4094.25,-126 4094.25,-126 4094.25,-138 4094.25,-138 4094.25,-144 4088.25,-150 4082.25,-150"/>
<text xml:space="preserve" text-anchor="middle" x="3396.25" y="-126.58" font-family="Comic Mono" font-size="14.00">&lt;&lt;watchdog error policy&gt;&gt;\nLettuceBackendErrorClassifier\nRedisCommandTimeout &#45;&gt; transient\nRedisConnection &#45;&gt; transient\nRedisCommandExecution &#45;&gt; non&#45;transient\nother errors delegated</text>
</g>
<!-- classifier&#45;&gt;singleDelegates -->
<g id="edge24" class="edge">
<title>classifier&#45;&gt;singleDelegates</title>
<path fill="none" stroke="#2e8f89" d="M3122.12,-150.39C3122.12,-171.13 3122.12,-202 3122.12,-202 3122.12,-202 2073.08,-202 2073.08,-202 2073.08,-202 2073.08,-218.08 2073.08,-218.08"/>
<polygon fill="#2e8f89" stroke="#2e8f89" points="2070.28,-218.08 2073.08,-226.08 2075.88,-218.08 2070.28,-218.08"/>
<text xml:space="preserve" text-anchor="middle" x="3264.38" y="-185.5" font-family="Comic Mono" font-size="10.00">event</text>
</g>
<!-- classifier&#45;&gt;slotDelegates -->
<g id="edge25" class="edge">
<title>classifier&#45;&gt;slotDelegates</title>
<path fill="none" stroke="#2e8f89" d="M3911.75,-150.41C3911.75,-162.46 3911.75,-176 3911.75,-176 3911.75,-176 4948.33,-176 4948.33,-176 4948.33,-176 4948.33,-218.09 4948.33,-218.09"/>
<polygon fill="#2e8f89" stroke="#2e8f89" points="4945.53,-218.09 4948.33,-226.09 4951.13,-218.09 4945.53,-218.09"/>
<text xml:space="preserve" text-anchor="middle" x="3537.38" y="-185.5" font-family="Comic Mono" font-size="10.00">event</text>
</g>
</g>
</svg>
