<svg xmlns="http://www.w3.org/2000/svg" width="1910" height="1496" viewBox="0 0 1910 1496" role="img" aria-labelledby="title desc" data-intent="Answer the Kubernetes reader's single-leader runtime question: which caller message attempts ownership, which backend operation decides success or skip, how the protected body runs, and how release or lease recovery prevents stale ownership." data-evidence="leader-k8s README and Kubernetes lease elector source" data-source-read="leader-k8s/README.md; leader-k8s/README.ko.md; leader-k8s/src/main/kotlin/io/bluetape4k/leader/k8s/K8sLeaderElector.kt">
  <title id="title">Kubernetes Lease Acquire Release Sequence</title>
  <desc id="desc">Kubernetes Lease Acquire Release Sequence sequence diagram.</desc>
  <defs>
    <filter id="shadow" x="-8%" y="-8%" width="116%" height="116%"><feDropShadow dx="0" dy="6" stdDeviation="7" flood-color="#203040" flood-opacity="0.10"/></filter>
    <marker id="seqArrow-call" markerWidth="5" markerHeight="5" refX="4.5" refY="2.5" orient="auto" markerUnits="strokeWidth"><path d="M 0.5 0.5 L 4.5 2.5 L 0.5 4.5 Z" fill="#4F83BF"/></marker>
    <marker id="seqArrow-success" markerWidth="5" markerHeight="5" refX="4.5" refY="2.5" orient="auto" markerUnits="strokeWidth"><path d="M 0.5 0.5 L 4.5 2.5 L 0.5 4.5 Z" fill="#3E9868"/></marker>
    <marker id="seqArrow-skip" markerWidth="5" markerHeight="5" refX="4.5" refY="2.5" orient="auto" markerUnits="strokeWidth"><path d="M 0.5 0.5 L 4.5 2.5 L 0.5 4.5 Z" fill="#C94D68"/></marker>
    <marker id="seqArrow-contention" markerWidth="5" markerHeight="5" refX="4.5" refY="2.5" orient="auto" markerUnits="strokeWidth"><path d="M 0.5 0.5 L 4.5 2.5 L 0.5 4.5 Z" fill="#B9851B"/></marker>
    <marker id="seqArrow-release" markerWidth="5" markerHeight="5" refX="4.5" refY="2.5" orient="auto" markerUnits="strokeWidth"><path d="M 0.5 0.5 L 4.5 2.5 L 0.5 4.5 Z" fill="#755BC6"/></marker>
    <marker id="seqArrow-retry" markerWidth="5" markerHeight="5" refX="4.5" refY="2.5" orient="auto" markerUnits="strokeWidth"><path d="M 0.5 0.5 L 4.5 2.5 L 0.5 4.5 Z" fill="#4F63C7"/></marker>
    <marker id="seqArrow-dependency" markerWidth="5" markerHeight="5" refX="4.5" refY="2.5" orient="auto" markerUnits="strokeWidth"><path d="M 0.5 0.5 L 4.5 2.5 L 0.5 4.5 Z" fill="#2E8F89"/></marker>
    <marker id="seqArrow-metric" markerWidth="5" markerHeight="5" refX="4.5" refY="2.5" orient="auto" markerUnits="strokeWidth"><path d="M 0.5 0.5 L 4.5 2.5 L 0.5 4.5 Z" fill="#718A35"/></marker>
    <marker id="seqArrow-neutral" markerWidth="5" markerHeight="5" refX="4.5" refY="2.5" orient="auto" markerUnits="strokeWidth"><path d="M 0.5 0.5 L 4.5 2.5 L 0.5 4.5 Z" fill="#758297"/></marker>
    <style>
      .canvas{fill:#F7FAFC}
      .frame{fill:#FFFFFF;stroke:#D7E2EC;stroke-width:2}
      .title{font-family:"Architects Daughter";font-size:44px;fill:#22344A;font-weight:400}
      .subtitle{font-family:"Comic Mono";font-size:16px;fill:#536476;font-weight:400}
      .band{fill:#F3F7FB;stroke:#D7E2EC;stroke-width:2}
      .bandTitle{font-family:"Architects Daughter";font-size:24px;fill:#22344A;font-weight:400;paint-order:stroke;stroke:#F3F7FB;stroke-width:5px;stroke-linejoin:round}
      .card{filter:url(#shadow);stroke-width:2}
      .cardTitle{font-family:"Architects Daughter";font-size:23px;fill:#22344A;font-weight:400}
      .detail{font-family:"Comic Mono";font-size:13px;fill:#42556B;font-weight:400}
      .small{font-family:"Comic Mono";font-size:12px;fill:#627184;font-weight:400}
      .route{fill:none;stroke-width:2.45;stroke-linejoin:round;stroke-linecap:round}
      .seq{fill:none;stroke-width:3;stroke-linecap:round}
      .seqReturn{fill:none;stroke-width:2.7;stroke-linecap:round;stroke-dasharray:8 7}
      .lifeline{stroke:#A7B4C3;stroke-width:1.8;stroke-dasharray:8 8}
      .pill{fill:#FFFFFF;stroke:#D6E3EF;stroke-width:1.4}
      .branchBox{fill:#FFFFFF;fill-opacity:.42;stroke:#D6A441;stroke-width:1.8;stroke-dasharray:8 8}
    </style>
  </defs>
  <rect class="canvas" width="1910" height="1496"/>
  <rect class="frame" x="32" y="28" width="1846" height="1440" rx="28"/>
  <text class="title" x="66" y="82">Kubernetes Lease Acquire Release Sequence</text>
  <text class="subtitle" x="70" y="116">Lease holder identity and renewTime decide ownership, skip, and recovery behavior.</text>
<g id="participant-caller">
  <rect class="card" x="128" y="228" width="260" height="76" rx="10" fill="#E8F3FF" stroke="#5B8DEF"/>
  <text class="cardTitle" x="258" y="273" text-anchor="middle">Caller</text>
  <line class="lifeline" x1="258" y1="304" x2="258" y2="1372"/>
</g>
<g id="participant-elector">
  <rect class="card" x="476.5" y="228" width="260" height="76" rx="10" fill="#EAF7EF" stroke="#58A978"/>
  <text class="cardTitle" x="606.5" y="273" text-anchor="middle">Kubernetes elector</text>
  <line class="lifeline" x1="606.5" y1="304" x2="606.5" y2="1372"/>
</g>
<g id="participant-backend">
  <rect class="card" x="825" y="228" width="260" height="76" rx="10" fill="#FFF3D9" stroke="#D6A441"/>
  <text class="cardTitle" x="955" y="273" text-anchor="middle">Kubernetes Lease</text>
  <line class="lifeline" x1="955" y1="304" x2="955" y2="1372"/>
</g>
<g id="participant-body">
  <rect class="card" x="1173.5" y="228" width="260" height="76" rx="10" fill="#E9F7F6" stroke="#45A7A1"/>
  <text class="cardTitle" x="1303.5" y="273" text-anchor="middle">Leader body</text>
  <line class="lifeline" x1="1303.5" y1="304" x2="1303.5" y2="1372"/>
</g>
<g id="participant-cleanup">
  <rect class="card" x="1522" y="228" width="260" height="76" rx="10" fill="#F1ECFF" stroke="#8A72D6"/>
  <text class="cardTitle" x="1652" y="273" text-anchor="middle">Recovery path</text>
  <line class="lifeline" x1="1652" y1="304" x2="1652" y2="1372"/>
</g>
<g id="m1">
  <rect class="pill" x="304.65" y="329" width="255.20000000000002" height="42" rx="7"/>
  <circle cx="323.65" cy="350" r="12" fill="#4F83BF"/>
  <text class="detail" x="323.65" y="351" text-anchor="middle" dominant-baseline="middle" style="fill:#fff;font-size:12px">1</text>
  <text class="detail" x="450.25" y="342" text-anchor="middle" dominant-baseline="middle">runIfLeader(lockName,</text>
  <text class="detail" x="450.25" y="357" text-anchor="middle" dominant-baseline="middle">options, body)</text>
  <path class="seq" d="M258 388 L606.5 388" stroke="#4F83BF" marker-end="url(#seqArrow-call)"/>
</g>
<g id="m2">
  <rect class="pill" x="627.95" y="411" width="305.6" height="42" rx="7"/>
  <circle cx="646.95" cy="432" r="12" fill="#B9851B"/>
  <text class="detail" x="646.95" y="433" text-anchor="middle" dominant-baseline="middle" style="fill:#fff;font-size:12px">2</text>
  <text class="detail" x="798.75" y="424" text-anchor="middle" dominant-baseline="middle">create or replace Lease with</text>
  <text class="detail" x="798.75" y="439" text-anchor="middle" dominant-baseline="middle">holderIdentity</text>
  <path class="seq" d="M606.5 470 L955 470" stroke="#B9851B" marker-end="url(#seqArrow-contention)"/>
</g>
<g>
  <rect class="branchBox" x="128" y="517" width="1654" height="46" rx="15"/>
  <rect class="pill" x="327.75" y="511" width="209" height="30" rx="8"/>
  <text class="detail" x="432.25" y="527" text-anchor="middle" dominant-baseline="middle">alt ownership acquired</text>
</g>
<g id="m4">
  <rect class="pill" x="665.75" y="589" width="230" height="28" rx="7"/>
  <circle cx="684.75" cy="603" r="12" fill="#3E9868"/>
  <text class="detail" x="684.75" y="604" text-anchor="middle" dominant-baseline="middle" style="fill:#fff;font-size:12px">4</text>
  <text class="detail" x="798.75" y="604" text-anchor="middle" dominant-baseline="middle">token accepted</text>
  <path class="seqReturn" d="M955 634 L606.5 634" stroke="#3E9868" marker-end="url(#seqArrow-success)"/>
</g>
<g id="m5">
  <rect class="pill" x="798.6" y="671" width="312.8" height="28" rx="7"/>
  <circle cx="817.6" cy="685" r="12" fill="#4F83BF"/>
  <text class="detail" x="817.6" y="686" text-anchor="middle" dominant-baseline="middle" style="fill:#fff;font-size:12px">5</text>
  <text class="detail" x="973" y="686" text-anchor="middle" dominant-baseline="middle">execute protected leader body</text>
  <path class="seq" d="M606.5 716 L1303.5 716" stroke="#4F83BF" marker-end="url(#seqArrow-call)"/>
</g>
<g id="m6">
  <rect class="pill" x="840" y="753" width="230" height="28" rx="7"/>
  <circle cx="859" cy="767" r="12" fill="#3E9868"/>
  <text class="detail" x="859" y="768" text-anchor="middle" dominant-baseline="middle" style="fill:#fff;font-size:12px">6</text>
  <text class="detail" x="973" y="768" text-anchor="middle" dominant-baseline="middle">body result</text>
  <path class="seqReturn" d="M1303.5 798 L606.5 798" stroke="#3E9868" marker-end="url(#seqArrow-success)"/>
</g>
<g id="m7">
  <rect class="pill" x="635.15" y="821" width="291.20000000000005" height="42" rx="7"/>
  <circle cx="654.15" cy="842" r="12" fill="#755BC6"/>
  <text class="detail" x="654.15" y="843" text-anchor="middle" dominant-baseline="middle" style="fill:#fff;font-size:12px">7</text>
  <text class="detail" x="798.75" y="834" text-anchor="middle" dominant-baseline="middle">clear holder identity when</text>
  <text class="detail" x="798.75" y="849" text-anchor="middle" dominant-baseline="middle">token still matches</text>
  <path class="seq" d="M606.5 880 L955 880" stroke="#755BC6" marker-end="url(#seqArrow-release)"/>
</g>
<g id="m8">
  <rect class="pill" x="315.45" y="917" width="233.6" height="28" rx="7"/>
  <circle cx="334.45" cy="931" r="12" fill="#3E9868"/>
  <text class="detail" x="334.45" y="932" text-anchor="middle" dominant-baseline="middle" style="fill:#fff;font-size:12px">8</text>
  <text class="detail" x="450.25" y="932" text-anchor="middle" dominant-baseline="middle">return body result</text>
  <path class="seqReturn" d="M606.5 962 L258 962" stroke="#3E9868" marker-end="url(#seqArrow-success)"/>
</g>
<g>
  <rect class="branchBox" x="128" y="1009" width="1654" height="46" rx="15"/>
  <rect class="pill" x="320.25" y="1003" width="224" height="30" rx="8"/>
  <text class="detail" x="432.25" y="1019" text-anchor="middle" dominant-baseline="middle">else contention or crash</text>
</g>
<g id="m10">
  <rect class="pill" x="631.55" y="1067" width="298.4" height="42" rx="7"/>
  <circle cx="650.55" cy="1088" r="12" fill="#C94D68"/>
  <text class="detail" x="650.55" y="1089" text-anchor="middle" dominant-baseline="middle" style="fill:#fff;font-size:12px">10</text>
  <text class="detail" x="798.75" y="1080" text-anchor="middle" dominant-baseline="middle">existing owner token blocks</text>
  <text class="detail" x="798.75" y="1095" text-anchor="middle" dominant-baseline="middle">acquire</text>
  <path class="seqReturn" d="M955 1126 L606.5 1126" stroke="#C94D68" marker-end="url(#seqArrow-skip)"/>
</g>
<g id="m11">
  <rect class="pill" x="929.65" y="1163" width="399.2" height="28" rx="7"/>
  <circle cx="948.65" cy="1177" r="12" fill="#2E8F89"/>
  <text class="detail" x="948.65" y="1178" text-anchor="middle" dominant-baseline="middle" style="fill:#fff;font-size:12px">11</text>
  <text class="detail" x="1147.25" y="1178" text-anchor="middle" dominant-baseline="middle">leaseDurationSeconds expires stale holder</text>
  <path class="seq" d="M606.5 1208 L1652 1208" stroke="#2E8F89" marker-end="url(#seqArrow-dependency)"/>
</g>
<g id="m12">
  <rect class="pill" x="304.65" y="1245" width="255.20000000000002" height="28" rx="7"/>
  <circle cx="323.65" cy="1259" r="12" fill="#C94D68"/>
  <text class="detail" x="323.65" y="1260" text-anchor="middle" dominant-baseline="middle" style="fill:#fff;font-size:12px">12</text>
  <text class="detail" x="450.25" y="1260" text-anchor="middle" dominant-baseline="middle">return skipped result</text>
  <path class="seqReturn" d="M606.5 1290 L258 1290" stroke="#C94D68" marker-end="url(#seqArrow-skip)"/>
</g>
</svg>
