<?xml version="1.0" encoding="UTF-8" standalone="no"?>
<!DOCTYPE svg PUBLIC "-//W3C//DTD SVG 1.1//EN"
 "http://www.w3.org/Graphics/SVG/1.1/DTD/svg11.dtd">
<!-- Generated by graphviz version 15.0.0 (20260523.1842)
 -->
<!-- Title: leader&#45;hazelcast&#45;sequence&#45;02 Pages: 1 -->
<svg width="1036pt" height="808pt"
 viewBox="0.00 0.00 1036.00 808.00" xmlns="http://www.w3.org/2000/svg" xmlns:xlink="http://www.w3.org/1999/xlink">
<g id="graph0" class="graph" transform="scale(1 1) rotate(0) translate(4 803.58)">
<title>leader&#45;hazelcast&#45;sequence&#45;02</title>
<text xml:space="preserve" text-anchor="middle" x="513.84" y="-782.28" font-family="Times,serif" font-size="14.00">Lock acquire/release sequence</text>
<!-- n0&#45;&gt;n1 -->
<g id="edge1" class="edge">
<title>n0&#45;&gt;n1</title>
<path fill="none" stroke="#758297" stroke-width="1.8" d="M229.98,-765C229.98,-765 387.82,-765 387.82,-765"/>
<polygon fill="#758297" stroke="#758297" stroke-width="1.8" points="387.82,-767.8 395.82,-765 387.82,-762.2 387.82,-767.8"/>
</g>
<!-- n0&#45;&gt;n1 -->
<g id="edge10" class="edge">
<title>n0&#45;&gt;n1</title>
<path fill="none" stroke="#758297" stroke-width="1.8" d="M229.98,-755C229.98,-755 387.82,-755 387.82,-755"/>
<polygon fill="#758297" stroke="#758297" stroke-width="1.8" points="387.82,-757.8 395.82,-755 387.82,-752.2 387.82,-757.8"/>
</g>
<!-- n0&#45;&gt;n1 -->
<g id="edge14" class="edge">
<title>n0&#45;&gt;n1</title>
<path fill="none" stroke="#758297" stroke-width="1.8" d="M229.98,-744C229.98,-744 387.82,-744 387.82,-744"/>
<polygon fill="#758297" stroke="#758297" stroke-width="1.8" points="387.82,-746.8 395.82,-744 387.82,-741.2 387.82,-746.8"/>
</g>
<!-- n1&#45;&gt;n0 -->
<g id="edge4" class="edge">
<title>n1&#45;&gt;n0</title>
<path fill="none" stroke="#758297" stroke-width="1.8" stroke-dasharray="5,2" d="M398.7,-734C398.7,-734 240.86,-734 240.86,-734"/>
<polygon fill="#758297" stroke="#758297" stroke-width="1.8" points="240.86,-731.2 232.86,-734 240.86,-736.8 240.86,-731.2"/>
</g>
<!-- n1&#45;&gt;n0 -->
<g id="edge9" class="edge">
<title>n1&#45;&gt;n0</title>
<path fill="none" stroke="#758297" stroke-width="1.8" stroke-dasharray="5,2" d="M398.7,-724C398.7,-724 240.86,-724 240.86,-724"/>
<polygon fill="#758297" stroke="#758297" stroke-width="1.8" points="240.86,-721.2 232.86,-724 240.86,-726.8 240.86,-721.2"/>
</g>
<!-- n1&#45;&gt;n0 -->
<g id="edge13" class="edge">
<title>n1&#45;&gt;n0</title>
<path fill="none" stroke="#758297" stroke-width="1.8" stroke-dasharray="5,2" d="M398.7,-713C398.7,-713 240.86,-713 240.86,-713"/>
<polygon fill="#758297" stroke="#758297" stroke-width="1.8" points="240.86,-710.2 232.86,-713 240.86,-715.8 240.86,-710.2"/>
</g>
<!-- n1&#45;&gt;n2 -->
<g id="edge2" class="edge">
<title>n1&#45;&gt;n2</title>
<path fill="none" stroke="#758297" stroke-width="1.8" d="M628.98,-727C628.98,-727 786.82,-727 786.82,-727"/>
<polygon fill="#758297" stroke="#758297" stroke-width="1.8" points="786.82,-729.8 794.82,-727 786.82,-724.2 786.82,-729.8"/>
</g>
<!-- n1&#45;&gt;n2 -->
<g id="edge11" class="edge">
<title>n1&#45;&gt;n2</title>
<path fill="none" stroke="#758297" stroke-width="1.8" d="M628.98,-719C628.98,-719 786.82,-719 786.82,-719"/>
<polygon fill="#758297" stroke="#758297" stroke-width="1.8" points="786.82,-721.8 794.82,-719 786.82,-716.2 786.82,-721.8"/>
</g>
<!-- n1&#45;&gt;n2 -->
<g id="edge15" class="edge">
<title>n1&#45;&gt;n2</title>
<path fill="none" stroke="#758297" stroke-width="1.8" d="M628.98,-711C628.98,-711 786.82,-711 786.82,-711"/>
<polygon fill="#758297" stroke="#758297" stroke-width="1.8" points="786.82,-713.8 794.82,-711 786.82,-708.2 786.82,-713.8"/>
</g>
<!-- n1&#45;&gt;r6p1 -->
<g id="edge6" class="edge">
<title>n1&#45;&gt;r6p1</title>
<path fill="none" stroke="#758297" stroke-width="1.8" d="M577.84,-702.71C577.84,-563.06 577.84,-67.43 577.84,-36.59"/>
</g>
<!-- n2&#45;&gt;n1 -->
<g id="edge3" class="edge">
<title>n2&#45;&gt;n1</title>
<path fill="none" stroke="#758297" stroke-width="1.8" stroke-dasharray="5,2" d="M797.7,-767C797.7,-767 639.86,-767 639.86,-767"/>
<polygon fill="#758297" stroke="#758297" stroke-width="1.8" points="639.86,-764.2 631.86,-767 639.86,-769.8 639.86,-764.2"/>
</g>
<!-- n2&#45;&gt;n1 -->
<g id="edge5" class="edge">
<title>n2&#45;&gt;n1</title>
<path fill="none" stroke="#758297" stroke-width="1.8" stroke-dasharray="5,2" d="M797.7,-759C797.7,-759 639.86,-759 639.86,-759"/>
<polygon fill="#758297" stroke="#758297" stroke-width="1.8" points="639.86,-756.2 631.86,-759 639.86,-761.8 639.86,-756.2"/>
</g>
<!-- n2&#45;&gt;n1 -->
<g id="edge12" class="edge">
<title>n2&#45;&gt;n1</title>
<path fill="none" stroke="#758297" stroke-width="1.8" stroke-dasharray="5,2" d="M797.7,-751C797.7,-751 639.86,-751 639.86,-751"/>
<polygon fill="#758297" stroke="#758297" stroke-width="1.8" points="639.86,-748.2 631.86,-751 639.86,-753.8 639.86,-748.2"/>
</g>
<!-- n2&#45;&gt;n1 -->
<g id="edge16" class="edge">
<title>n2&#45;&gt;n1</title>
<path fill="none" stroke="#758297" stroke-width="1.8" stroke-dasharray="5,2" d="M797.7,-743C797.7,-743 639.86,-743 639.86,-743"/>
<polygon fill="#758297" stroke="#758297" stroke-width="1.8" points="639.86,-740.2 631.86,-743 639.86,-745.8 639.86,-740.2"/>
</g>
<!-- n2&#45;&gt;n1 -->
<g id="edge17" class="edge">
<title>n2&#45;&gt;n1</title>
<path fill="none" stroke="#758297" stroke-width="1.8" stroke-dasharray="5,2" d="M797.7,-735C797.7,-735 639.86,-735 639.86,-735"/>
<polygon fill="#758297" stroke="#758297" stroke-width="1.8" points="639.86,-732.2 631.86,-735 639.86,-737.8 639.86,-732.2"/>
</g>
<!-- r6p1&#45;&gt;r6p2 -->
<g id="edge7" class="edge">
<title>r6p1&#45;&gt;r6p2</title>
<path fill="none" stroke="#758297" stroke-width="1.8" d="M577.84,-33.62C577.84,-28.03 577.84,-8.02 577.84,-2.5"/>
</g>
<!-- r6p2&#45;&gt;n1 -->
<g id="edge8" class="edge">
<title>r6p2&#45;&gt;n1</title>
<path fill="none" stroke="#758297" stroke-width="1.8" d="M579.24,-1C584.63,-1 603.8,-1 603.8,-1 603.8,-1 603.8,-692.01 603.8,-692.01"/>
<polygon fill="#758297" stroke="#758297" stroke-width="1.8" points="601,-692.01 603.8,-700.01 606.6,-692.01 601,-692.01"/>
</g>
<!-- n0 -->
<g id="node1" class="node">
<title>n0</title>
<path fill="#ffffff" stroke="#5b8def" d="M217.68,-775.08C217.68,-775.08 12,-775.08 12,-775.08 6,-775.08 0,-769.08 0,-763.08 0,-763.08 0,-715.08 0,-715.08 0,-709.08 6,-703.08 12,-703.08 12,-703.08 217.68,-703.08 217.68,-703.08 223.68,-703.08 229.68,-709.08 229.68,-715.08 229.68,-715.08 229.68,-763.08 229.68,-763.08 229.68,-769.08 223.68,-775.08 217.68,-775.08"/>
<text xml:space="preserve" text-anchor="middle" x="114.84" y="-734.73" font-family="Architects Daughter" font-size="18.00">Caller</text>
</g>
<!-- n1 -->
<g id="node2" class="node">
<title>n1</title>
<path fill="#ffffff" stroke="#58a978" d="M616.68,-775.08C616.68,-775.08 411,-775.08 411,-775.08 405,-775.08 399,-769.08 399,-763.08 399,-763.08 399,-715.08 399,-715.08 399,-709.08 405,-703.08 411,-703.08 411,-703.08 616.68,-703.08 616.68,-703.08 622.68,-703.08 628.68,-709.08 628.68,-715.08 628.68,-715.08 628.68,-763.08 628.68,-763.08 628.68,-769.08 622.68,-775.08 616.68,-775.08"/>
<text xml:space="preserve" text-anchor="middle" x="513.84" y="-734.73" font-family="Architects Daughter" font-size="18.00">HazelcastLock</text>
</g>
<!-- n2 -->
<g id="node3" class="node">
<title>n2</title>
<path fill="#ffffff" stroke="#d6a441" d="M1015.68,-775.08C1015.68,-775.08 810,-775.08 810,-775.08 804,-775.08 798,-769.08 798,-763.08 798,-763.08 798,-715.08 798,-715.08 798,-709.08 804,-703.08 810,-703.08 810,-703.08 1015.68,-703.08 1015.68,-703.08 1021.68,-703.08 1027.68,-709.08 1027.68,-715.08 1027.68,-715.08 1027.68,-763.08 1027.68,-763.08 1027.68,-769.08 1021.68,-775.08 1015.68,-775.08"/>
<text xml:space="preserve" text-anchor="middle" x="912.84" y="-734.73" font-family="Architects Daughter" font-size="18.00">IMap</text>
</g>
<!-- r6p1 -->
<!-- r6p2 -->
</g>
</svg>
