<svg xmlns="http://www.w3.org/2000/svg" width="1500" height="940" viewBox="0 0 1500 940" role="img" aria-label="leader-k8s acquire and release sequence">
  <metadata id="graphviz-evidence">Regenerated with Graphviz evidence: leader-k8s-sequence-02.dot, leader-k8s-sequence-02.plain, leader-k8s-sequence-02-graphviz.svg via scripts/regenerate-readme-diagram-graphviz-evidence.mjs.</metadata>
<defs>
  <filter id="shadow" x="-8%" y="-8%" width="116%" height="116%"><feDropShadow dx="0" dy="8" stdDeviation="9" flood-color="#1f2937" flood-opacity="0.10"/></filter>
  <marker id="arrow" markerWidth="12" markerHeight="10" refX="10" refY="5" orient="auto" markerUnits="strokeWidth"><path d="M 1 1 L 10 5 L 1 9" fill="none" stroke="#758297" stroke-width="2" stroke-linecap="round" stroke-linejoin="round"/></marker>
  <style>
    .canvas{fill:#f7f9fc}.frame{fill:#fff;stroke:#d8e0ea;stroke-width:1.5}
    .title{font-family:"Architects Daughter","Comic Mono","Comic Sans MS","Comic Sans",cursive;font-size:43px;font-weight:400;fill:#102033}
    .subtitle{font-family:"Comic Mono","Comic Sans MS","Comic Sans","Comic Neue",Arial,sans-serif;font-size:15px;font-weight:400;fill:#536273}
    .label{font-family:"Architects Daughter","Comic Mono","Comic Sans MS","Comic Sans",cursive;font-size:24px;font-weight:400;fill:#102033}
    .smallLabel{font-family:"Architects Daughter","Comic Mono","Comic Sans MS","Comic Sans",cursive;font-size:20px;font-weight:400;fill:#102033}
    .small{font-family:"Comic Mono","Comic Sans MS","Comic Sans","Comic Neue",Arial,sans-serif;font-size:13px;font-weight:400;fill:#536273}
    .strong{font-family:"Comic Mono","Comic Sans MS","Comic Sans","Comic Neue",Arial,sans-serif;font-size:14px;font-weight:400;fill:#102033}
    .card{stroke-width:2.1;filter:url(#shadow)}
    .line{stroke:#758297;stroke-width:2.2;fill:none;marker-end:url(#arrow)}
    .dash{stroke:#758297;stroke-width:2.2;stroke-dasharray:7 6;fill:none;marker-end:url(#arrow)}
    .lifeline{stroke:#b7c2d1;stroke-width:2;stroke-dasharray:10 10}
    .panel{fill:#ffffff;stroke:#d8e0ea;stroke-width:1.5;filter:url(#shadow)}
  </style>
</defs>
<rect class="canvas" width="1500" height="940"/>
<rect class="frame" x="32" y="28" width="1436" height="884" rx="28"/>
<text class="title" x="66" y="82">leader-k8s Acquire and Release</text>
<text class="subtitle" x="70" y="118">Owner-conditional Lease writes keep execution single-leader and release-safe</text>

<rect class="card" x="80" y="165" width="220" height="70" rx="16" fill="#E8F3FF" stroke="#5B8DEF"/>
<text class="label" x="190" y="208" text-anchor="middle">Worker</text>
<line class="lifeline" x1="190" y1="252" x2="190" y2="860"/>

<rect class="card" x="450" y="165" width="260" height="70" rx="16" fill="#EAF7EF" stroke="#58A978"/>
<text class="smallLabel" x="580" y="194" text-anchor="middle">KubernetesLease</text>
<text class="smallLabel" x="580" y="218" text-anchor="middle">LeaderElector</text>
<line class="lifeline" x1="580" y1="252" x2="580" y2="860"/>

<rect class="card" x="825" y="165" width="250" height="70" rx="16" fill="#FFF3D9" stroke="#D6A441"/>
<text class="label" x="950" y="208" text-anchor="middle">Kubernetes API</text>
<line class="lifeline" x1="950" y1="252" x2="950" y2="860"/>

<rect class="card" x="1200" y="165" width="220" height="70" rx="16" fill="#FDECEF" stroke="#DC6B82"/>
<text class="label" x="1310" y="208" text-anchor="middle">Lease object</text>
<line class="lifeline" x1="1310" y1="252" x2="1310" y2="860"/>

<text class="strong" x="275" y="304" text-anchor="middle">1. runIfLeader(lockName)</text>
<path class="line" d="M190 320 L580 320"/>

<text class="strong" x="765" y="374" text-anchor="middle">2. get Lease</text>
<path class="line" d="M580 390 L950 390"/>
<text class="strong" x="1130" y="424" text-anchor="middle">3. read current spec</text>
<path class="line" d="M950 440 L1310 440"/>

<rect class="panel" x="110" y="500" width="590" height="122" rx="18"/>
<text class="smallLabel" x="405" y="536" text-anchor="middle">Acquire succeeds</text>
<text class="small" x="405" y="566" text-anchor="middle">Lease is missing, empty, or expired</text>
<text class="small" x="405" y="591" text-anchor="middle">Elector writes a new fencing token</text>

<text class="strong" x="765" y="536" text-anchor="middle">4. create or update with resourceVersion</text>
<path class="line" d="M580 552 L950 552"/>
<text class="strong" x="1130" y="586" text-anchor="middle">5. holderIdentity = fencing token</text>
<path class="line" d="M950 602 L1310 602"/>

<rect class="panel" x="110" y="632" width="590" height="82" rx="18" fill="#fff"/>
<text class="smallLabel" x="405" y="664" text-anchor="middle">Acquire skips before action</text>
<text class="small" x="405" y="692" text-anchor="middle">Lease is still held by a different fencing token</text>
<text class="strong" x="385" y="732" text-anchor="middle">6. null / Skipped</text>
<path class="dash" d="M580 748 L190 748"/>

<text class="strong" x="385" y="792" text-anchor="middle">7. execute action only after acquire</text>
<path class="line" d="M580 808 L190 808"/>

<text class="strong" x="765" y="842" text-anchor="middle">8. owner-conditional release/update</text>
<path class="line" d="M580 858 L950 858"/>
<text class="strong" x="1130" y="878" text-anchor="middle">9. clear holderIdentity or shorten minLeaseTime</text>
<path class="line" d="M950 862 L1310 862"/>
</svg>
