<?xml version="1.0" encoding="UTF-8" standalone="no"?>
<!DOCTYPE svg PUBLIC "-//W3C//DTD SVG 1.1//EN"
 "http://www.w3.org/Graphics/SVG/1.1/DTD/svg11.dtd">
<!-- Generated by graphviz version 15.0.0 (20260523.1842)
 -->
<!-- Title: leader&#45;redis&#45;lettuce&#45;sequence&#45;02 Pages: 1 -->
<svg width="887pt" height="440pt"
 viewBox="0.00 0.00 887.00 440.00" xmlns="http://www.w3.org/2000/svg" xmlns:xlink="http://www.w3.org/1999/xlink">
<g id="graph0" class="graph" transform="scale(1 1) rotate(0) translate(4 436)">
<title>leader&#45;redis&#45;lettuce&#45;sequence&#45;02</title>
<!-- caller -->
<g id="node1" class="node">
<title>caller</title>
<path fill="#f8fafc" stroke="#94a3b8" d="M49,-237C49,-237 12,-237 12,-237 6,-237 0,-231 0,-225 0,-225 0,-213 0,-213 0,-207 6,-201 12,-201 12,-201 49,-201 49,-201 55,-201 61,-207 61,-213 61,-213 61,-225 61,-225 61,-231 55,-237 49,-237"/>
<text xml:space="preserve" text-anchor="middle" x="30.5" y="-213.57" font-family="Comic Mono" font-size="14.00">Caller</text>
</g>
<!-- elector -->
<g id="node2" class="node">
<title>elector</title>
<path fill="#f8fafc" stroke="#94a3b8" d="M477.5,-237C477.5,-237 328,-237 328,-237 322,-237 316,-231 316,-225 316,-225 316,-213 316,-213 316,-207 322,-201 328,-201 328,-201 477.5,-201 477.5,-201 483.5,-201 489.5,-207 489.5,-213 489.5,-213 489.5,-225 489.5,-225 489.5,-231 483.5,-237 477.5,-237"/>
<text xml:space="preserve" text-anchor="middle" x="402.75" y="-213.57" font-family="Comic Mono" font-size="14.00">Lettuce Redis elector</text>
</g>
<!-- caller&#45;&gt;elector -->
<g id="edge1" class="edge">
<title>caller&#45;&gt;elector</title>
<path fill="none" stroke="#4f83bf" d="M61.28,-210C61.28,-210 307.01,-210 307.01,-210"/>
<polygon fill="#4f83bf" stroke="#4f83bf" points="307.01,-212.45 314.01,-210 307.01,-207.55 307.01,-212.45"/>
<text xml:space="preserve" text-anchor="middle" x="188.5" y="-288.5" font-family="Comic Mono" font-size="10.00">runIfLeader(lockName, options, body)</text>
</g>
<!-- elector&#45;&gt;caller -->
<g id="edge7" class="edge">
<title>elector&#45;&gt;caller</title>
<path fill="none" stroke="#3e9868" d="M315.94,-219C315.94,-219 69.87,-219 69.87,-219"/>
<polygon fill="#3e9868" stroke="#3e9868" points="69.87,-216.55 62.87,-219 69.87,-221.45 69.87,-216.55"/>
<text xml:space="preserve" text-anchor="middle" x="188.5" y="-221.5" font-family="Comic Mono" font-size="10.00">return body result</text>
</g>
<!-- elector&#45;&gt;caller -->
<g id="edge10" class="edge">
<title>elector&#45;&gt;caller</title>
<path fill="none" stroke="#c94d68" d="M315.94,-228C315.94,-228 69.87,-228 69.87,-228"/>
<polygon fill="#c94d68" stroke="#c94d68" points="69.87,-225.55 62.87,-228 69.87,-230.45 69.87,-225.55"/>
<text xml:space="preserve" text-anchor="middle" x="188.5" y="-154.5" font-family="Comic Mono" font-size="10.00">return skipped result</text>
</g>
<!-- backend -->
<g id="node3" class="node">
<title>backend</title>
<path fill="#f8fafc" stroke="#94a3b8" d="M852,-337C852,-337 792.5,-337 792.5,-337 786.5,-337 780.5,-331 780.5,-325 780.5,-325 780.5,-313 780.5,-313 780.5,-307 786.5,-301 792.5,-301 792.5,-301 852,-301 852,-301 858,-301 864,-307 864,-313 864,-313 864,-325 864,-325 864,-331 858,-337 852,-337"/>
<text xml:space="preserve" text-anchor="middle" x="822.25" y="-313.57" font-family="Comic Mono" font-size="14.00">Redis key</text>
</g>
<!-- elector&#45;&gt;backend -->
<g id="edge2" class="edge">
<title>elector&#45;&gt;backend</title>
<path fill="none" stroke="#b9851b" d="M489.76,-231.86C605.86,-231.86 797,-231.86 797,-231.86 797,-231.86 797,-292.01 797,-292.01"/>
<polygon fill="#b9851b" stroke="#b9851b" points="794.55,-292.01 797,-299.01 799.45,-292.01 794.55,-292.01"/>
<text xml:space="preserve" text-anchor="middle" x="627.5" y="-422.5" font-family="Comic Mono" font-size="10.00">SET lockKey token NX PX leaseTime</text>
</g>
<!-- elector&#45;&gt;backend -->
<g id="edge6" class="edge">
<title>elector&#45;&gt;backend</title>
<path fill="none" stroke="#755bc6" d="M489.99,-216.43C619.37,-216.43 847,-216.43 847,-216.43 847,-216.43 847,-292.15 847,-292.15"/>
<polygon fill="#755bc6" stroke="#755bc6" points="844.55,-292.15 847,-299.15 849.45,-292.15 844.55,-292.15"/>
<text xml:space="preserve" text-anchor="middle" x="627.5" y="-355.5" font-family="Comic Mono" font-size="10.00">Lua compare token then DEL</text>
</g>
<!-- body -->
<g id="node4" class="node">
<title>body</title>
<path fill="#f8fafc" stroke="#94a3b8" d="M859.5,-146C859.5,-146 785,-146 785,-146 779,-146 773,-140 773,-134 773,-134 773,-122 773,-122 773,-116 779,-110 785,-110 785,-110 859.5,-110 859.5,-110 865.5,-110 871.5,-116 871.5,-122 871.5,-122 871.5,-134 871.5,-134 871.5,-140 865.5,-146 859.5,-146"/>
<text xml:space="preserve" text-anchor="middle" x="822.25" y="-122.58" font-family="Comic Mono" font-size="14.00">Leader body</text>
</g>
<!-- elector&#45;&gt;body -->
<g id="edge4" class="edge">
<title>elector&#45;&gt;body</title>
<path fill="none" stroke="#4f83bf" d="M489.78,-211.29C600.64,-211.29 778,-211.29 778,-211.29 778,-211.29 778,-155 778,-155"/>
<polygon fill="#4f83bf" stroke="#4f83bf" points="780.45,-155 778,-148 775.55,-155 780.45,-155"/>
<text xml:space="preserve" text-anchor="middle" x="627.5" y="-154.5" font-family="Comic Mono" font-size="10.00">execute protected leader body</text>
</g>
<!-- cleanup -->
<g id="node5" class="node">
<title>cleanup</title>
<path fill="#f8fafc" stroke="#94a3b8" d="M867,-36C867,-36 777.5,-36 777.5,-36 771.5,-36 765.5,-30 765.5,-24 765.5,-24 765.5,-12 765.5,-12 765.5,-6 771.5,0 777.5,0 777.5,0 867,0 867,0 873,0 879,-6 879,-12 879,-12 879,-24 879,-24 879,-30 873,-36 867,-36"/>
<text xml:space="preserve" text-anchor="middle" x="822.25" y="-12.57" font-family="Comic Mono" font-size="14.00">Recovery path</text>
</g>
<!-- elector&#45;&gt;cleanup -->
<g id="edge9" class="edge">
<title>elector&#45;&gt;cleanup</title>
<path fill="none" stroke="#2e8f89" d="M403,-200.81C403,-151.33 403,-18 403,-18 403,-18 756.76,-18 756.76,-18"/>
<polygon fill="#2e8f89" stroke="#2e8f89" points="756.76,-20.45 763.76,-18 756.76,-15.55 756.76,-20.45"/>
<text xml:space="preserve" text-anchor="middle" x="627.5" y="-20.5" font-family="Comic Mono" font-size="10.00">Redis TTL deletes unreleased crash token</text>
</g>
<!-- backend&#45;&gt;elector -->
<g id="edge3" class="edge">
<title>backend&#45;&gt;elector</title>
<path fill="none" stroke="#3e9868" d="M814,-300.77C814,-273.87 814,-226.71 814,-226.71 814,-226.71 498.48,-226.71 498.48,-226.71"/>
<polygon fill="#3e9868" stroke="#3e9868" points="498.48,-224.26 491.48,-226.71 498.48,-229.16 498.48,-224.26"/>
<text xml:space="preserve" text-anchor="middle" x="627.5" y="-288.5" font-family="Comic Mono" font-size="10.00">token accepted</text>
</g>
<!-- backend&#45;&gt;elector -->
<g id="edge8" class="edge">
<title>backend&#45;&gt;elector</title>
<path fill="none" stroke="#c94d68" d="M831,-300.67C831,-272.45 831,-221.57 831,-221.57 831,-221.57 498.44,-221.57 498.44,-221.57"/>
<polygon fill="#c94d68" stroke="#c94d68" points="498.44,-219.12 491.44,-221.57 498.44,-224.02 498.44,-219.12"/>
<text xml:space="preserve" text-anchor="middle" x="627.5" y="-221.5" font-family="Comic Mono" font-size="10.00">existing owner token blocks acquire</text>
</g>
<!-- body&#45;&gt;elector -->
<g id="edge5" class="edge">
<title>body&#45;&gt;elector</title>
<path fill="none" stroke="#3e9868" d="M775,-146.12C775,-169.21 775,-206.14 775,-206.14 775,-206.14 498.07,-206.14 498.07,-206.14"/>
<polygon fill="#3e9868" stroke="#3e9868" points="498.07,-203.69 491.07,-206.14 498.07,-208.59 498.07,-203.69"/>
<text xml:space="preserve" text-anchor="middle" x="627.5" y="-87.5" font-family="Comic Mono" font-size="10.00">body result</text>
</g>
</g>
</svg>
