<?xml version="1.0" encoding="UTF-8" standalone="no"?>
<!DOCTYPE svg PUBLIC "-//W3C//DTD SVG 1.1//EN"
 "http://www.w3.org/Graphics/SVG/1.1/DTD/svg11.dtd">
<!-- Generated by graphviz version 15.0.0 (20260523.1842)
 -->
<!-- Title: leader&#45;redis&#45;lettuce&#45;sequence&#45;03 Pages: 1 -->
<svg width="1316pt" height="1423pt"
 viewBox="0.00 0.00 1316.00 1423.00" xmlns="http://www.w3.org/2000/svg" xmlns:xlink="http://www.w3.org/1999/xlink">
<g id="graph0" class="graph" transform="scale(1 1) rotate(0) translate(4 1418.5)">
<title>leader&#45;redis&#45;lettuce&#45;sequence&#45;03</title>
<text xml:space="preserve" text-anchor="middle" x="654.12" y="-1397.2" font-family="Times,serif" font-size="14.00">Scenario 2 — minLeaseTime delegated to backe.</text>
<!-- n0&#45;&gt;n2 -->
<g id="edge1" class="edge">
<title>n0&#45;&gt;n2</title>
<path fill="none" stroke="#758297" stroke-width="1.8" d="M180.14,-1361.34C180.14,-1376.21 180.14,-1390 180.14,-1390 180.14,-1390 1248.19,-1390 1248.19,-1390 1248.19,-1390 1248.19,-1372.06 1248.19,-1372.06"/>
<polygon fill="#758297" stroke="#758297" stroke-width="1.8" points="1250.99,-1372.06 1248.19,-1364.06 1245.39,-1372.06 1250.99,-1372.06"/>
</g>
<!-- n0&#45;&gt;n2 -->
<g id="edge6" class="edge">
<title>n0&#45;&gt;n2</title>
<path fill="none" stroke="#758297" stroke-width="1.8" d="M240.19,-1361.43C240.19,-1373.07 240.19,-1383 240.19,-1383 240.19,-1383 1188.14,-1383 1188.14,-1383 1188.14,-1383 1188.14,-1372.16 1188.14,-1372.16"/>
<polygon fill="#758297" stroke="#758297" stroke-width="1.8" points="1190.94,-1372.16 1188.14,-1364.16 1185.34,-1372.16 1190.94,-1372.16"/>
</g>
<!-- n0&#45;&gt;r3p1 -->
<g id="edge3" class="edge">
<title>n0&#45;&gt;r3p1</title>
<path fill="none" stroke="#758297" stroke-width="1.8" d="M214.12,-1288.61C214.12,-1203.17 214.12,-995.77 214.12,-976.52"/>
</g>
<!-- n1&#45;&gt;n2 -->
<g id="edge11" class="edge">
<title>n1&#45;&gt;n2</title>
<path fill="none" stroke="#758297" stroke-width="1.8" d="M804.65,-1303C804.65,-1303 997.2,-1303 997.2,-1303"/>
<polygon fill="#758297" stroke="#758297" stroke-width="1.8" points="997.2,-1305.8 1005.2,-1303 997.2,-1300.2 997.2,-1305.8"/>
</g>
<!-- n1&#45;&gt;n2 -->
<g id="edge16" class="edge">
<title>n1&#45;&gt;n2</title>
<path fill="none" stroke="#758297" stroke-width="1.8" d="M804.65,-1347C804.65,-1347 997.2,-1347 997.2,-1347"/>
<polygon fill="#758297" stroke="#758297" stroke-width="1.8" points="997.2,-1349.8 1005.2,-1347 997.2,-1344.2 997.2,-1349.8"/>
</g>
<!-- n2&#45;&gt;n0 -->
<g id="edge2" class="edge">
<title>n2&#45;&gt;n0</title>
<path fill="none" stroke="#758297" stroke-width="1.8" stroke-dasharray="5,2" d="M1128.1,-1361.36C1128.1,-1369.1 1128.1,-1375 1128.1,-1375 1128.1,-1375 60.05,-1375 60.05,-1375 60.05,-1375 60.05,-1372.08 60.05,-1372.08"/>
<polygon fill="#758297" stroke="#758297" stroke-width="1.8" points="62.85,-1372.08 60.05,-1364.08 57.25,-1372.08 62.85,-1372.08"/>
</g>
<!-- n2&#45;&gt;n0 -->
<g id="edge10" class="edge">
<title>n2&#45;&gt;n0</title>
<path fill="none" stroke="#758297" stroke-width="1.8" stroke-dasharray="5,2" d="M1068.05,-1361.29C1068.05,-1365.32 1068.05,-1368 1068.05,-1368 1068.05,-1368 120.1,-1368 120.1,-1368 120.1,-1368 120.1,-1367.33 120.1,-1367.33"/>
<polygon fill="#758297" stroke="#758297" stroke-width="1.8" points="122.9,-1372.02 120.1,-1364.02 117.3,-1372.02 122.9,-1372.02"/>
</g>
<!-- n2&#45;&gt;n1 -->
<g id="edge15" class="edge">
<title>n2&#45;&gt;n1</title>
<path fill="none" stroke="#758297" stroke-width="1.8" stroke-dasharray="5,2" d="M1007.59,-1332C1007.59,-1332 815.04,-1332 815.04,-1332"/>
<polygon fill="#758297" stroke="#758297" stroke-width="1.8" points="815.04,-1329.2 807.04,-1332 815.04,-1334.8 815.04,-1329.2"/>
</g>
<!-- n2&#45;&gt;n1 -->
<g id="edge20" class="edge">
<title>n2&#45;&gt;n1</title>
<path fill="none" stroke="#758297" stroke-width="1.8" stroke-dasharray="5,2" d="M1007.59,-1318C1007.59,-1318 815.04,-1318 815.04,-1318"/>
<polygon fill="#758297" stroke="#758297" stroke-width="1.8" points="815.04,-1315.2 807.04,-1318 815.04,-1320.8 815.04,-1315.2"/>
</g>
<!-- n2&#45;&gt;r5p1 -->
<g id="edge7" class="edge">
<title>n2&#45;&gt;r5p1</title>
<path fill="none" stroke="#758297" stroke-width="1.8" d="M1222.12,-1288.62C1222.12,-1164.51 1222.12,-764.59 1222.12,-736.62"/>
</g>
<!-- n2&#45;&gt;r8p1 -->
<g id="edge12" class="edge">
<title>n2&#45;&gt;r8p1</title>
<path fill="none" stroke="#758297" stroke-width="1.8" d="M1251.55,-1288.8C1251.55,-1116.04 1251.55,-385 1251.55,-385 1251.55,-385 1229.02,-385 1223.38,-385"/>
</g>
<!-- n2&#45;&gt;r11p1 -->
<g id="edge17" class="edge">
<title>n2&#45;&gt;r11p1</title>
<path fill="none" stroke="#758297" stroke-width="1.8" d="M1279.89,-1288.89C1279.89,-1079.74 1279.89,-35 1279.89,-35 1279.89,-35 1232.44,-35 1223.55,-35"/>
</g>
<!-- r3p1&#45;&gt;r3p2 -->
<g id="edge4" class="edge">
<title>r3p1&#45;&gt;r3p2</title>
<path fill="none" stroke="#758297" stroke-width="1.8" d="M214.12,-973.62C214.12,-968.03 214.12,-948.02 214.12,-942.5"/>
</g>
<!-- r3p2&#45;&gt;n0 -->
<g id="edge5" class="edge">
<title>r3p2&#45;&gt;n0</title>
<path fill="none" stroke="#758297" stroke-width="1.8" d="M215.57,-941C223.14,-941 257.72,-941 257.72,-941 257.72,-941 257.72,-1277.88 257.72,-1277.88"/>
<polygon fill="#758297" stroke="#758297" stroke-width="1.8" points="254.92,-1277.88 257.72,-1285.88 260.52,-1277.88 254.92,-1277.88"/>
</g>
<!-- r5p1&#45;&gt;r5p2 -->
<g id="edge8" class="edge">
<title>r5p1&#45;&gt;r5p2</title>
<path fill="none" stroke="#758297" stroke-width="1.8" d="M1222.12,-733.62C1222.12,-728.03 1222.12,-708.02 1222.12,-702.5"/>
</g>
<!-- r5p2&#45;&gt;n2 -->
<g id="edge9" class="edge">
<title>r5p2&#45;&gt;n2</title>
<path fill="none" stroke="#758297" stroke-width="1.8" d="M1223.53,-701C1227.3,-701 1237.37,-701 1237.37,-701 1237.37,-701 1237.37,-1278.1 1237.37,-1278.1"/>
<polygon fill="#758297" stroke="#758297" stroke-width="1.8" points="1234.57,-1278.1 1237.37,-1286.1 1240.17,-1278.1 1234.57,-1278.1"/>
</g>
<!-- r8p1&#45;&gt;r8p2 -->
<g id="edge13" class="edge">
<title>r8p1&#45;&gt;r8p2</title>
<path fill="none" stroke="#758297" stroke-width="1.8" d="M1222.12,-383.62C1222.12,-378.03 1222.12,-358.02 1222.12,-352.5"/>
</g>
<!-- r8p2&#45;&gt;n2 -->
<g id="edge14" class="edge">
<title>r8p2&#45;&gt;n2</title>
<path fill="none" stroke="#758297" stroke-width="1.8" d="M1223.57,-351C1231.14,-351 1265.72,-351 1265.72,-351 1265.72,-351 1265.72,-1277.95 1265.72,-1277.95"/>
<polygon fill="#758297" stroke="#758297" stroke-width="1.8" points="1262.92,-1277.95 1265.72,-1285.95 1268.52,-1277.95 1262.92,-1277.95"/>
</g>
<!-- r11p1&#45;&gt;r11p2 -->
<g id="edge18" class="edge">
<title>r11p1&#45;&gt;r11p2</title>
<path fill="none" stroke="#758297" stroke-width="1.8" d="M1222.12,-33.62C1222.12,-28.03 1222.12,-8.02 1222.12,-2.5"/>
</g>
<!-- r11p2&#45;&gt;n2 -->
<g id="edge19" class="edge">
<title>r11p2&#45;&gt;n2</title>
<path fill="none" stroke="#758297" stroke-width="1.8" d="M1223.62,-1C1233.95,-1 1294.07,-1 1294.07,-1 1294.07,-1 1294.07,-1277.91 1294.07,-1277.91"/>
<polygon fill="#758297" stroke="#758297" stroke-width="1.8" points="1291.27,-1277.91 1294.07,-1285.91 1296.87,-1277.91 1291.27,-1277.91"/>
</g>
<!-- n0 -->
<g id="node1" class="node">
<title>n0</title>
<path fill="#ffffff" stroke="#5b8def" d="M288.24,-1361.08C288.24,-1361.08 12,-1361.08 12,-1361.08 6,-1361.08 0,-1355.08 0,-1349.08 0,-1349.08 0,-1301.08 0,-1301.08 0,-1295.08 6,-1289.08 12,-1289.08 12,-1289.08 288.24,-1289.08 288.24,-1289.08 294.24,-1289.08 300.24,-1295.08 300.24,-1301.08 300.24,-1301.08 300.24,-1349.08 300.24,-1349.08 300.24,-1355.08 294.24,-1361.08 288.24,-1361.08"/>
<text xml:space="preserve" text-anchor="middle" x="150.12" y="-1320.73" font-family="Architects Daughter" font-size="18.00">ClientA</text>
</g>
<!-- n1 -->
<g id="node2" class="node">
<title>n1</title>
<path fill="#ffffff" stroke="#58a978" d="M792.24,-1361.08C792.24,-1361.08 516,-1361.08 516,-1361.08 510,-1361.08 504,-1355.08 504,-1349.08 504,-1349.08 504,-1301.08 504,-1301.08 504,-1295.08 510,-1289.08 516,-1289.08 516,-1289.08 792.24,-1289.08 792.24,-1289.08 798.24,-1289.08 804.24,-1295.08 804.24,-1301.08 804.24,-1301.08 804.24,-1349.08 804.24,-1349.08 804.24,-1355.08 798.24,-1361.08 792.24,-1361.08"/>
<text xml:space="preserve" text-anchor="middle" x="654.12" y="-1320.73" font-family="Architects Daughter" font-size="18.00">ClientB</text>
</g>
<!-- n2 -->
<g id="node3" class="node">
<title>n2</title>
<path fill="#ffffff" stroke="#d6a441" d="M1296.24,-1361.08C1296.24,-1361.08 1020,-1361.08 1020,-1361.08 1014,-1361.08 1008,-1355.08 1008,-1349.08 1008,-1349.08 1008,-1301.08 1008,-1301.08 1008,-1295.08 1014,-1289.08 1020,-1289.08 1020,-1289.08 1296.24,-1289.08 1296.24,-1289.08 1302.24,-1289.08 1308.24,-1295.08 1308.24,-1301.08 1308.24,-1301.08 1308.24,-1349.08 1308.24,-1349.08 1308.24,-1355.08 1302.24,-1361.08 1296.24,-1361.08"/>
<text xml:space="preserve" text-anchor="middle" x="1158.12" y="-1320.73" font-family="Architects Daughter" font-size="18.00">Redis</text>
</g>
<!-- r3p1 -->
<!-- r3p2 -->
<!-- r5p1 -->
<!-- r5p2 -->
<!-- r8p1 -->
<!-- r8p2 -->
<!-- r11p1 -->
<!-- r11p2 -->
</g>
</svg>
