<svg xmlns="http://www.w3.org/2000/svg" width="2470" height="987" viewBox="0 0 2470 987" role="img" aria-label="leader redis lettuce Class Structure">
  <metadata id="graphviz-evidence">Regenerated with Graphviz evidence: leader-redis-lettuce-class-01.dot, leader-redis-lettuce-class-01.plain, leader-redis-lettuce-class-01-graphviz.svg via scripts/regenerate-readme-diagram-graphviz-evidence.mjs.</metadata>
<defs>
  <filter id="shadow" x="-8%" y="-8%" width="116%" height="116%"><feDropShadow dx="0" dy="8" stdDeviation="9" flood-color="#1f2937" flood-opacity="0.10"/></filter>
  <marker id="openArrow" markerWidth="10" markerHeight="8" refX="8.5" refY="4" orient="auto" markerUnits="strokeWidth"><path d="M 1 1 L 8.5 4 L 1 7" fill="none" stroke="#758297" stroke-width="1.7" stroke-linecap="round" stroke-linejoin="round"/></marker>
  <marker id="inherit" markerWidth="11" markerHeight="10" refX="9.5" refY="5" orient="auto" markerUnits="strokeWidth"><path d="M 0.5 1 L 9.5 5 L 0.5 9 Z" fill="#ffffff" stroke="#758297" stroke-width="1.7"/></marker>
  <style>
    .canvas{fill:#f7f9fc}.frame{fill:#fff;stroke:#d8e0ea;stroke-width:1.5}
    .title{font-family:"Architects Daughter","Comic Mono","Comic Sans MS","Comic Sans",cursive;font-size:43px;font-weight:400;fill:#102033}
    .subtitle{font-family:"Comic Mono","Comic Sans MS","Comic Sans","Comic Neue",Arial,sans-serif;font-size:15px;font-weight:400;fill:#536273}
    .label{font-family:"Architects Daughter","Comic Mono","Comic Sans MS","Comic Sans",cursive;font-size:25px;font-weight:400;fill:#102033}
    .smallLabel{font-family:"Architects Daughter","Comic Mono","Comic Sans MS","Comic Sans",cursive;font-size:21px;font-weight:400;fill:#102033}
    .mono{font-family:"Comic Mono","Comic Sans MS","Comic Sans","Comic Neue",Arial,sans-serif;font-size:12px;font-weight:400;fill:#102033}
    .small{font-family:"Comic Mono","Comic Sans MS","Comic Sans","Comic Neue",Arial,sans-serif;font-size:12px;font-weight:400;fill:#536273}
    .strong{font-family:"Comic Mono","Comic Sans MS","Comic Sans","Comic Neue",Arial,sans-serif;font-size:13px;font-weight:400;fill:#102033}
    .card{stroke-width:2.1;filter:url(#shadow)}.compartment{stroke-width:1.5;fill:none}
    .line{stroke:#758297;stroke-width:2.1;fill:none;marker-end:url(#openArrow)}
    .plainLine{stroke:#758297;stroke-width:2.1;fill:none}
    .dashed{stroke:#758297;stroke-width:2.1;stroke-dasharray:7 6;fill:none;marker-end:url(#openArrow)}
    .inheritLine{stroke:#758297;stroke-width:2.2;fill:none;marker-end:url(#inherit)}
    .implLine{stroke:#758297;stroke-width:2.2;stroke-dasharray:8 7;fill:none;marker-end:url(#inherit)}
  </style>
</defs>
<rect class="canvas" width="2470" height="987"/>
<rect class="frame" x="32" y="28" width="2406" height="931" rx="28"/>
<text class="title" x="66" y="82">leader redis lettuce Class Structure</text>
<text class="subtitle" x="70" y="118">UML classes from the original Mermaid source</text>
<path class="line" d="M1600 492 L1635 492 L1635 515.5 L1670 515.5"/>
<path class="line" d="M2070 492 L1235 492 L1235 505 L400 505"/>
<path class="line" d="M800 492 L1235 492 L1235 515.5 L1670 515.5"/>
<path class="line" d="M1035 540 L1035 631.5 L1235 631.5 L1235 723"/>
<path class="implLine" d="M1435 428 L1435 368 L901.7 368 L901.7 308"/>
<path class="implLine" d="M2235 428 L2235 360 L1568.3 360 L1568.3 292"/>
<path class="implLine" d="M635 428 L635 360 L235 360 L235 292"/>
<path class="implLine" d="M1035 428 L1035 360 L2235 360 L2235 292"/>
<g transform="translate(470,428)">
  <rect class="card" x="0" y="0" width="330" height="128" rx="5" fill="#E8F3FF" stroke="#5B8DEF"/>
  <line class="compartment" x1="0" y1="94" x2="330" y2="94" stroke="#5B8DEF"/>
  <text class="small" x="165" y="26" text-anchor="middle"></text>
  <text class="label" x="165" y="56.5" text-anchor="middle">Lettuce Leader Group</text>
<text class="label" x="165" y="81.5" text-anchor="middle">Elector</text>

</g>
<g transform="translate(870,428)">
  <rect class="card" x="0" y="0" width="330" height="112" rx="5" fill="#EAF7EF" stroke="#58A978"/>
  <line class="compartment" x1="0" y1="78" x2="330" y2="78" stroke="#58A978"/>
  <text class="small" x="165" y="26" text-anchor="middle"></text>
  <text class="label" x="165" y="61" text-anchor="middle">LettuceLeaderElector</text>

</g>
<g transform="translate(2070,428)">
  <rect class="card" x="0" y="0" width="330" height="128" rx="5" fill="#FFF3D9" stroke="#D6A441"/>
  <line class="compartment" x1="0" y1="94" x2="330" y2="94" stroke="#D6A441"/>
  <text class="small" x="165" y="26" text-anchor="middle"></text>
  <text class="label" x="165" y="56.5" text-anchor="middle">Lettuce Suspend Leader</text>
<text class="label" x="165" y="81.5" text-anchor="middle">Elector</text>

</g>
<g transform="translate(70,428)">
  <rect class="card" x="0" y="0" width="330" height="154" rx="5" fill="#FDECEF" stroke="#DC6B82"/>
  <line class="compartment" x1="0" y1="78" x2="330" y2="78" stroke="#DC6B82"/>
  <text class="small" x="165" y="26" text-anchor="middle"></text>
  <text class="label" x="165" y="61" text-anchor="middle">LettuceSuspendLock</text>
  <text class="mono" x="18" y="108">+tryLock(key, value, ttl) Boolean</text>
<text class="mono" x="18" y="129">+unlock(key, value)</text>
</g>
<g transform="translate(70,180)">
  <rect class="card" x="0" y="0" width="330" height="112" rx="5" fill="#E9F7F6" stroke="#45A7A1"/>
  <line class="compartment" x1="0" y1="78" x2="330" y2="78" stroke="#45A7A1"/>
  <text class="small" x="165" y="26" text-anchor="middle">«interface»</text>
  <text class="label" x="165" y="61" text-anchor="middle">LeaderGroupElector</text>

</g>
<g transform="translate(1670,428)">
  <rect class="card" x="0" y="0" width="330" height="175" rx="5" fill="#F1ECFF" stroke="#8A72D6"/>
  <line class="compartment" x1="0" y1="78" x2="330" y2="78" stroke="#8A72D6"/>
  <text class="small" x="165" y="26" text-anchor="middle"></text>
  <text class="label" x="165" y="61" text-anchor="middle">LettuceSlotTokenGroup</text>
  <text class="mono" x="18" y="108">+tryAcquire(waitTime, leaseTime) String?</text>
<text class="mono" x="18" y="129">+release(token, remainingMinLeaseMs)</text>
<text class="mono" x="18" y="150">+activeCount() Int</text>
</g>
<g transform="translate(2070,180)">
  <rect class="card" x="0" y="0" width="330" height="112" rx="5" fill="#F7F1E7" stroke="#B88A44"/>
  <line class="compartment" x1="0" y1="78" x2="330" y2="78" stroke="#B88A44"/>
  <text class="small" x="165" y="26" text-anchor="middle">«interface»</text>
  <text class="label" x="165" y="61" text-anchor="middle">LeaderElector</text>

</g>
<g transform="translate(1070,723)">
  <rect class="card" x="0" y="0" width="330" height="154" rx="5" fill="#EEF6D9" stroke="#8BA84D"/>
  <line class="compartment" x1="0" y1="78" x2="330" y2="78" stroke="#8BA84D"/>
  <text class="small" x="165" y="26" text-anchor="middle"></text>
  <text class="label" x="165" y="61" text-anchor="middle">LettuceLock</text>
  <text class="mono" x="18" y="108">+tryLock(key, value, ttl) Boolean</text>
<text class="mono" x="18" y="129">+unlock(key, value)</text>
</g>
<g transform="translate(1403.3,180)">
  <rect class="card" x="0" y="0" width="330" height="112" rx="5" fill="#E8F3FF" stroke="#5B8DEF"/>
  <line class="compartment" x1="0" y1="78" x2="330" y2="78" stroke="#5B8DEF"/>
  <text class="small" x="165" y="26" text-anchor="middle">«interface»</text>
  <text class="label" x="165" y="61" text-anchor="middle">SuspendLeaderElector</text>

</g>
<g transform="translate(1270,428)">
  <rect class="card" x="0" y="0" width="330" height="128" rx="5" fill="#EAF7EF" stroke="#58A978"/>
  <line class="compartment" x1="0" y1="94" x2="330" y2="94" stroke="#58A978"/>
  <text class="small" x="165" y="26" text-anchor="middle"></text>
  <text class="label" x="165" y="56.5" text-anchor="middle">Lettuce Suspend Leader</text>
<text class="label" x="165" y="81.5" text-anchor="middle">Group Elector</text>

</g>
<g transform="translate(736.7,180)">
  <rect class="card" x="0" y="0" width="330" height="128" rx="5" fill="#FFF3D9" stroke="#D6A441"/>
  <line class="compartment" x1="0" y1="94" x2="330" y2="94" stroke="#D6A441"/>
  <text class="small" x="165" y="26" text-anchor="middle">«interface»</text>
  <text class="label" x="165" y="56.5" text-anchor="middle">Suspend Leader Group</text>
<text class="label" x="165" y="81.5" text-anchor="middle">Elector</text>

</g>
</svg>
