<?xml version="1.0" encoding="UTF-8" standalone="no"?>
<!DOCTYPE svg PUBLIC "-//W3C//DTD SVG 1.1//EN"
 "http://www.w3.org/Graphics/SVG/1.1/DTD/svg11.dtd">
<!-- Generated by graphviz version 15.0.0 (20260523.1842)
 -->
<!-- Title: leader&#45;exposed&#45;r2dbc&#45;class&#45;01 Pages: 1 -->
<svg width="7679pt" height="386pt"
 viewBox="0.00 0.00 7679.00 386.00" xmlns="http://www.w3.org/2000/svg" xmlns:xlink="http://www.w3.org/1999/xlink">
<g id="graph0" class="graph" transform="scale(1 1) rotate(0) translate(4 382)">
<title>leader&#45;exposed&#45;r2dbc&#45;class&#45;01</title>
<!-- suspendContract -->
<g id="node1" class="node">
<title>suspendContract</title>
<path fill="#f8fafc" stroke="#94a3b8" d="M2331.75,-264C2331.75,-264 1237.25,-264 1237.25,-264 1231.25,-264 1225.25,-258 1225.25,-252 1225.25,-252 1225.25,-240 1225.25,-240 1225.25,-234 1231.25,-228 1237.25,-228 1237.25,-228 2331.75,-228 2331.75,-228 2337.75,-228 2343.75,-234 2343.75,-240 2343.75,-240 2343.75,-252 2343.75,-252 2343.75,-258 2337.75,-264 2331.75,-264"/>
<text xml:space="preserve" text-anchor="middle" x="1784.5" y="-240.57" font-family="Comic Mono" font-size="14.00">&lt;&lt;core suspend interface&gt;&gt;\nSuspendLeaderElector\n+ suspend runIfLeader(lockName)\n+ runIfLeaderResultSuspend(slot)\n+ state(lockName): LeaderState</text>
</g>
<!-- factoryContract -->
<g id="node2" class="node">
<title>factoryContract</title>
<path fill="#f8fafc" stroke="#94a3b8" d="M7335.75,-150C7335.75,-150 6301.25,-150 6301.25,-150 6295.25,-150 6289.25,-144 6289.25,-138 6289.25,-138 6289.25,-126 6289.25,-126 6289.25,-120 6295.25,-114 6301.25,-114 6301.25,-114 7335.75,-114 7335.75,-114 7341.75,-114 7347.75,-120 7347.75,-126 7347.75,-126 7347.75,-138 7347.75,-138 7347.75,-144 7341.75,-150 7335.75,-150"/>
<text xml:space="preserve" text-anchor="middle" x="6818.5" y="-126.58" font-family="Comic Mono" font-size="14.00">&lt;&lt;core SPI interfaces&gt;&gt;\nSuspend Factories\nSuspendLeaderElectorFactory\nSuspendLeaderGroupElectorFactory\ncreate(options): suspend elector</text>
</g>
<!-- groupContract -->
<g id="node3" class="node">
<title>groupContract</title>
<path fill="#f8fafc" stroke="#94a3b8" d="M7659.25,-264C7659.25,-264 6669.75,-264 6669.75,-264 6663.75,-264 6657.75,-258 6657.75,-252 6657.75,-252 6657.75,-240 6657.75,-240 6657.75,-234 6663.75,-228 6669.75,-228 6669.75,-228 7659.25,-228 7659.25,-228 7665.25,-228 7671.25,-234 7671.25,-240 7671.25,-240 7671.25,-252 7671.25,-252 7671.25,-258 7665.25,-264 7659.25,-264"/>
<text xml:space="preserve" text-anchor="middle" x="7164.5" y="-240.57" font-family="Comic Mono" font-size="14.00">&lt;&lt;core suspend group&gt;&gt;\nSuspendLeaderGroupElector\n+ maxLeaders: Int\n+ suspend runIfLeader(lockName)\n+ activeCount / availableSlots</text>
</g>
<!-- r2dbcElector -->
<g id="node4" class="node">
<title>r2dbcElector</title>
<path fill="#f8fafc" stroke="#94a3b8" d="M4270.5,-150C4270.5,-150 3018.5,-150 3018.5,-150 3012.5,-150 3006.5,-144 3006.5,-138 3006.5,-138 3006.5,-126 3006.5,-126 3006.5,-120 3012.5,-114 3018.5,-114 3018.5,-114 4270.5,-114 4270.5,-114 4276.5,-114 4282.5,-120 4282.5,-126 4282.5,-126 4282.5,-138 4282.5,-138 4282.5,-144 4276.5,-150 4270.5,-150"/>
<text xml:space="preserve" text-anchor="middle" x="3644.5" y="-126.58" font-family="Comic Mono" font-size="14.00">&lt;&lt;R2DBC implementation&gt;&gt;\nR2DBC Suspend Elector\nExposedR2DbcSuspendLeaderElector\nimplements SuspendLeaderElector\ncreates ExposedR2dbcLock\nNonCancellable unlock path</text>
</g>
<!-- r2dbcElector&#45;&gt;suspendContract -->
<g id="edge1" class="edge">
<title>r2dbcElector&#45;&gt;suspendContract</title>
<path fill="none" stroke="#4f83bf" d="M3006.16,-138C2688.16,-138 2370.62,-138 2370.62,-138 2370.62,-138 2370.62,-246 2370.62,-246 2370.62,-246 2353.43,-246 2353.43,-246"/>
<polygon fill="#4f83bf" stroke="#4f83bf" points="2353.43,-243.2 2345.43,-246 2353.43,-248.8 2353.43,-243.2"/>
<text xml:space="preserve" text-anchor="middle" x="1802.88" y="-185.5" font-family="Comic Mono" font-size="10.00">inherit</text>
</g>
<!-- r2dbcLock -->
<g id="node7" class="node">
<title>r2dbcLock</title>
<path fill="#f8fafc" stroke="#94a3b8" d="M1159,-264C1159,-264 12,-264 12,-264 6,-264 0,-258 0,-252 0,-252 0,-240 0,-240 0,-234 6,-228 12,-228 12,-228 1159,-228 1159,-228 1165,-228 1171,-234 1171,-240 1171,-240 1171,-252 1171,-252 1171,-258 1165,-264 1159,-264"/>
<text xml:space="preserve" text-anchor="middle" x="585.5" y="-240.57" font-family="Comic Mono" font-size="14.00">&lt;&lt;single suspend lock&gt;&gt;\nExposedR2dbcLock\ntoken: Base58 fencing token\nsuspendTransaction per attempt\nUPDATE expired row\ninsertIgnore then SELECT token</text>
</g>
<!-- r2dbcElector&#45;&gt;r2dbcLock -->
<g id="edge6" class="edge">
<title>r2dbcElector&#45;&gt;r2dbcLock</title>
<path fill="none" stroke="#b9851b" d="M3006.18,-126C2278.65,-126 1189.08,-126 1189.08,-126 1189.08,-126 1189.08,-240 1189.08,-240 1189.08,-240 1180.86,-240 1180.86,-240"/>
<polygon fill="#b9851b" stroke="#b9851b" points="1180.86,-237.2 1172.86,-240 1180.86,-242.8 1180.86,-237.2"/>
<text xml:space="preserve" text-anchor="middle" x="1154.88" y="-185.5" font-family="Comic Mono" font-size="10.00">creates</text>
</g>
<!-- historySink -->
<g id="node11" class="node">
<title>historySink</title>
<path fill="#f8fafc" stroke="#94a3b8" d="M6591.75,-264C6591.75,-264 5047.25,-264 5047.25,-264 5041.25,-264 5035.25,-258 5035.25,-252 5035.25,-252 5035.25,-240 5035.25,-240 5035.25,-234 5041.25,-228 5047.25,-228 5047.25,-228 6591.75,-228 6591.75,-228 6597.75,-228 6603.75,-234 6603.75,-240 6603.75,-240 6603.75,-252 6603.75,-252 6603.75,-258 6597.75,-264 6591.75,-264"/>
<text xml:space="preserve" text-anchor="middle" x="5819.5" y="-240.57" font-family="Comic Mono" font-size="14.00">&lt;&lt;audit sink + inline group audit&gt;&gt;\nExposed Suspend History\nExposedSuspendLeaderHistorySink\nSuspendSafeLeaderHistoryRecorder\ngroup elector writes when recordHistory\nbest&#45;effort ACQUIRED/COMPLETED/FAILED</text>
</g>
<!-- r2dbcElector&#45;&gt;historySink -->
<g id="edge12" class="edge">
<title>r2dbcElector&#45;&gt;historySink</title>
<path fill="none" stroke="#2e8f89" d="M4020.12,-150.41C4020.12,-162.46 4020.12,-176 4020.12,-176 4020.12,-176 5008.25,-176 5008.25,-176 5008.25,-176 5008.25,-246 5008.25,-246 5008.25,-246 5025.27,-246 5025.27,-246"/>
<polygon fill="#2e8f89" stroke="#2e8f89" points="5025.27,-248.8 5033.27,-246 5025.27,-243.2 5025.27,-248.8"/>
<text xml:space="preserve" text-anchor="middle" x="3970.12" y="-185.5" font-family="Comic Mono" font-size="10.00">optional recorder</text>
</g>
<!-- factoryImpl -->
<g id="node5" class="node">
<title>factoryImpl</title>
<path fill="#f8fafc" stroke="#94a3b8" d="M6309.75,-36C6309.75,-36 4795.25,-36 4795.25,-36 4789.25,-36 4783.25,-30 4783.25,-24 4783.25,-24 4783.25,-12 4783.25,-12 4783.25,-6 4789.25,0 4795.25,0 4795.25,0 6309.75,0 6309.75,0 6315.75,0 6321.75,-6 6321.75,-12 6321.75,-12 6321.75,-24 6321.75,-24 6321.75,-30 6315.75,-36 6309.75,-36"/>
<text xml:space="preserve" text-anchor="middle" x="5552.5" y="-12.57" font-family="Comic Mono" font-size="14.00">&lt;&lt;factory + extensions&gt;&gt;\nR2DBC Factory Entrypoints\nExposedR2DbcSuspendLeaderElectorFactory\nExposedR2DbcSuspendLeaderGroupElectorFactory\nR2dbcDatabase.suspendRunIfLeader*\ninvokes schema&#45;safe electors</text>
</g>
<!-- factoryImpl&#45;&gt;factoryContract -->
<g id="edge2" class="edge">
<title>factoryImpl&#45;&gt;factoryContract</title>
<path fill="none" stroke="#4f83bf" d="M6305.5,-36.32C6305.5,-36.32 6305.5,-104.22 6305.5,-104.22"/>
<polygon fill="#4f83bf" stroke="#4f83bf" points="6302.7,-104.22 6305.5,-112.22 6308.3,-104.22 6302.7,-104.22"/>
<text xml:space="preserve" text-anchor="middle" x="6836.88" y="-71.5" font-family="Comic Mono" font-size="10.00">inherit</text>
</g>
<!-- factoryImpl&#45;&gt;r2dbcElector -->
<g id="edge4" class="edge">
<title>factoryImpl&#45;&gt;r2dbcElector</title>
<path fill="none" stroke="#758297" d="M4826.38,-36.32C4826.38,-68.54 4826.38,-132 4826.38,-132 4826.38,-132 4292.08,-132 4292.08,-132"/>
<polygon fill="#758297" stroke="#758297" points="4292.08,-129.2 4284.08,-132 4292.08,-134.8 4292.08,-129.2"/>
<text xml:space="preserve" text-anchor="middle" x="4835.88" y="-71.5" font-family="Comic Mono" font-size="10.00">creates</text>
</g>
<!-- r2dbcGroupElector -->
<g id="node6" class="node">
<title>r2dbcGroupElector</title>
<path fill="#f8fafc" stroke="#94a3b8" d="M6223.5,-150C6223.5,-150 4881.5,-150 4881.5,-150 4875.5,-150 4869.5,-144 4869.5,-138 4869.5,-138 4869.5,-126 4869.5,-126 4869.5,-120 4875.5,-114 4881.5,-114 4881.5,-114 6223.5,-114 6223.5,-114 6229.5,-114 6235.5,-120 6235.5,-126 6235.5,-126 6235.5,-138 6235.5,-138 6235.5,-144 6229.5,-150 6223.5,-150"/>
<text xml:space="preserve" text-anchor="middle" x="5552.5" y="-126.58" font-family="Comic Mono" font-size="14.00">&lt;&lt;R2DBC group implementation&gt;&gt;\nR2DBC Suspend Group\nExposedR2DbcSuspendLeaderGroupElector\nrandomized slot iteration\nactiveCountSuspend DB query\nrecordHistory gates audit writes</text>
</g>
<!-- factoryImpl&#45;&gt;r2dbcGroupElector -->
<g id="edge5" class="edge">
<title>factoryImpl&#45;&gt;r2dbcGroupElector</title>
<path fill="none" stroke="#758297" d="M5552.5,-36.32C5552.5,-36.32 5552.5,-104.22 5552.5,-104.22"/>
<polygon fill="#758297" stroke="#758297" points="5549.7,-104.22 5552.5,-112.22 5555.3,-104.22 5549.7,-104.22"/>
<text xml:space="preserve" text-anchor="middle" x="5570.88" y="-71.5" font-family="Comic Mono" font-size="10.00">creates</text>
</g>
<!-- r2dbcGroupElector&#45;&gt;groupContract -->
<g id="edge3" class="edge">
<title>r2dbcGroupElector&#45;&gt;groupContract</title>
<path fill="none" stroke="#4f83bf" d="M6235.84,-132C6252.79,-132 6262.38,-132 6262.38,-132 6262.38,-132 6262.38,-202 6262.38,-202 6262.38,-202 7002.75,-202 7002.75,-202 7002.75,-202 7002.75,-218.08 7002.75,-218.08"/>
<polygon fill="#4f83bf" stroke="#4f83bf" points="6999.95,-218.08 7002.75,-226.08 7005.55,-218.08 6999.95,-218.08"/>
<text xml:space="preserve" text-anchor="middle" x="7182.88" y="-185.5" font-family="Comic Mono" font-size="10.00">inherit</text>
</g>
<!-- r2dbcGroupLock -->
<g id="node9" class="node">
<title>r2dbcGroupLock</title>
<path fill="#f8fafc" stroke="#94a3b8" d="M4969.25,-264C4969.25,-264 3769.75,-264 3769.75,-264 3763.75,-264 3757.75,-258 3757.75,-252 3757.75,-252 3757.75,-240 3757.75,-240 3757.75,-234 3763.75,-228 3769.75,-228 3769.75,-228 4969.25,-228 4969.25,-228 4975.25,-228 4981.25,-234 4981.25,-240 4981.25,-240 4981.25,-252 4981.25,-252 4981.25,-258 4975.25,-264 4969.25,-264"/>
<text xml:space="preserve" text-anchor="middle" x="4369.5" y="-240.57" font-family="Comic Mono" font-size="14.00">&lt;&lt;slot suspend lock&gt;&gt;\nExposedR2dbcGroupLock\n(lockName, slot) composite owner\nsuspendTransaction per slot\ninsertIgnore slot row\nSELECT token + slot ownership</text>
</g>
<!-- r2dbcGroupElector&#45;&gt;r2dbcGroupLock -->
<g id="edge7" class="edge">
<title>r2dbcGroupElector&#45;&gt;r2dbcGroupLock</title>
<path fill="none" stroke="#b9851b" d="M4925.38,-150.32C4925.38,-150.32 4925.38,-218.22 4925.38,-218.22"/>
<polygon fill="#b9851b" stroke="#b9851b" points="4922.58,-218.22 4925.38,-226.22 4928.18,-218.22 4922.58,-218.22"/>
<text xml:space="preserve" text-anchor="middle" x="4657.5" y="-185.5" font-family="Comic Mono" font-size="10.00">per slot</text>
</g>
<!-- r2dbcGroupElector&#45;&gt;historySink -->
<g id="edge13" class="edge">
<title>r2dbcGroupElector&#45;&gt;historySink</title>
<path fill="none" stroke="#2e8f89" d="M5635.38,-150.32C5635.38,-150.32 5635.38,-218.22 5635.38,-218.22"/>
<polygon fill="#2e8f89" stroke="#2e8f89" points="5632.58,-218.22 5635.38,-226.22 5638.18,-218.22 5632.58,-218.22"/>
<text xml:space="preserve" text-anchor="middle" x="5719.62" y="-185.5" font-family="Comic Mono" font-size="10.00">recordHistory</text>
</g>
<!-- lockTable -->
<g id="node10" class="node">
<title>lockTable</title>
<path fill="#f8fafc" stroke="#94a3b8" d="M2671.25,-378C2671.25,-378 2011.75,-378 2011.75,-378 2005.75,-378 1999.75,-372 1999.75,-366 1999.75,-366 1999.75,-354 1999.75,-354 1999.75,-348 2005.75,-342 2011.75,-342 2011.75,-342 2671.25,-342 2671.25,-342 2677.25,-342 2683.25,-348 2683.25,-354 2683.25,-354 2683.25,-366 2683.25,-366 2683.25,-372 2677.25,-378 2671.25,-378"/>
<text xml:space="preserve" text-anchor="middle" x="2341.5" y="-354.57" font-family="Comic Mono" font-size="14.00">&lt;&lt;Exposed table&gt;&gt;\nLeaderLockTable\nPK lockName\nlockOwner\ntoken\nlockedAt / lockedUntil</text>
</g>
<!-- r2dbcLock&#45;&gt;lockTable -->
<g id="edge8" class="edge">
<title>r2dbcLock&#45;&gt;lockTable</title>
<path fill="none" stroke="#758297" d="M1171.06,-252C1193.83,-252 1207.17,-252 1207.17,-252 1207.17,-252 1207.17,-360 1207.17,-360 1207.17,-360 1990.11,-360 1990.11,-360"/>
<polygon fill="#758297" stroke="#758297" points="1990.11,-362.8 1998.11,-360 1990.11,-357.2 1990.11,-362.8"/>
<text xml:space="preserve" text-anchor="middle" x="1511" y="-299.5" font-family="Comic Mono" font-size="10.00">uses</text>
</g>
<!-- schemaInit -->
<g id="node8" class="node">
<title>schemaInit</title>
<path fill="#f8fafc" stroke="#94a3b8" d="M3691.5,-264C3691.5,-264 2409.5,-264 2409.5,-264 2403.5,-264 2397.5,-258 2397.5,-252 2397.5,-252 2397.5,-240 2397.5,-240 2397.5,-234 2403.5,-228 2409.5,-228 2409.5,-228 3691.5,-228 3691.5,-228 3697.5,-228 3703.5,-234 3703.5,-240 3703.5,-240 3703.5,-252 3703.5,-252 3703.5,-258 3697.5,-264 3691.5,-264"/>
<text xml:space="preserve" text-anchor="middle" x="3050.5" y="-240.57" font-family="Comic Mono" font-size="14.00">&lt;&lt;coroutine schema bootstrap&gt;&gt;\nExposedR2dbcSchemaInitializer\nMutex + ConcurrentHashMap guard\nSchemaUtils.createMissingTablesAndColumns\nrequires H2 MODE for insertIgnore</text>
</g>
<!-- schemaInit&#45;&gt;lockTable -->
<g id="edge10" class="edge">
<title>schemaInit&#45;&gt;lockTable</title>
<path fill="none" stroke="#758297" d="M2540.38,-264.32C2540.38,-264.32 2540.38,-332.22 2540.38,-332.22"/>
<polygon fill="#758297" stroke="#758297" points="2537.58,-332.22 2540.38,-340.22 2543.18,-332.22 2537.58,-332.22"/>
<text xml:space="preserve" text-anchor="middle" x="2640.75" y="-299.5" font-family="Comic Mono" font-size="10.00">dependency</text>
</g>
<!-- groupTable -->
<g id="node12" class="node">
<title>groupTable</title>
<path fill="#f8fafc" stroke="#94a3b8" d="M3919.25,-378C3919.25,-378 3169.75,-378 3169.75,-378 3163.75,-378 3157.75,-372 3157.75,-366 3157.75,-366 3157.75,-354 3157.75,-354 3157.75,-348 3163.75,-342 3169.75,-342 3169.75,-342 3919.25,-342 3919.25,-342 3925.25,-342 3931.25,-348 3931.25,-354 3931.25,-354 3931.25,-366 3931.25,-366 3931.25,-372 3925.25,-378 3919.25,-378"/>
<text xml:space="preserve" text-anchor="middle" x="3544.5" y="-354.57" font-family="Comic Mono" font-size="14.00">&lt;&lt;Exposed table&gt;&gt;\nLeaderGroupLockTable\nPK(lockName, slot)\nlockOwner\ntoken\nlockedAt / lockedUntil</text>
</g>
<!-- schemaInit&#45;&gt;groupTable -->
<g id="edge11" class="edge">
<title>schemaInit&#45;&gt;groupTable</title>
<path fill="none" stroke="#758297" d="M3430.62,-264.32C3430.62,-264.32 3430.62,-332.22 3430.62,-332.22"/>
<polygon fill="#758297" stroke="#758297" points="3427.83,-332.22 3430.63,-340.22 3433.43,-332.22 3427.83,-332.22"/>
<text xml:space="preserve" text-anchor="middle" x="3297.75" y="-299.5" font-family="Comic Mono" font-size="10.00">dependency</text>
</g>
<!-- r2dbcGroupLock&#45;&gt;groupTable -->
<g id="edge9" class="edge">
<title>r2dbcGroupLock&#45;&gt;groupTable</title>
<path fill="none" stroke="#758297" d="M3844.5,-264.32C3844.5,-264.32 3844.5,-332.22 3844.5,-332.22"/>
<polygon fill="#758297" stroke="#758297" points="3841.7,-332.22 3844.5,-340.22 3847.3,-332.22 3841.7,-332.22"/>
<text xml:space="preserve" text-anchor="middle" x="3777" y="-299.5" font-family="Comic Mono" font-size="10.00">uses</text>
</g>
<!-- historyTable -->
<g id="node13" class="node">
<title>historyTable</title>
<path fill="#f8fafc" stroke="#94a3b8" d="M6246.75,-378C6246.75,-378 5392.25,-378 5392.25,-378 5386.25,-378 5380.25,-372 5380.25,-366 5380.25,-366 5380.25,-354 5380.25,-354 5380.25,-348 5386.25,-342 5392.25,-342 5392.25,-342 6246.75,-342 6246.75,-342 6252.75,-342 6258.75,-348 6258.75,-354 6258.75,-354 6258.75,-366 6258.75,-366 6258.75,-372 6252.75,-378 6246.75,-378"/>
<text xml:space="preserve" text-anchor="middle" x="5819.5" y="-354.57" font-family="Comic Mono" font-size="14.00">&lt;&lt;Exposed table&gt;&gt;\nLeaderLockHistoryTable\nid PK\nlockName + token\nstatus lifecycle\nslot / slotId for group audit</text>
</g>
<!-- historySink&#45;&gt;historyTable -->
<g id="edge14" class="edge">
<title>historySink&#45;&gt;historyTable</title>
<path fill="none" stroke="#758297" d="M5819.5,-264.32C5819.5,-264.32 5819.5,-332.22 5819.5,-332.22"/>
<polygon fill="#758297" stroke="#758297" points="5816.7,-332.22 5819.5,-340.22 5822.3,-332.22 5816.7,-332.22"/>
<text xml:space="preserve" text-anchor="middle" x="5835.25" y="-299.5" font-family="Comic Mono" font-size="10.00">writes</text>
</g>
</g>
</svg>
