<?xml version="1.0" encoding="UTF-8" standalone="no"?>
<!DOCTYPE svg PUBLIC "-//W3C//DTD SVG 1.1//EN"
 "http://www.w3.org/Graphics/SVG/1.1/DTD/svg11.dtd">
<!-- Generated by graphviz version 15.0.0 (20260523.1842)
 -->
<!-- Title: leader&#45;hazelcast&#45;class&#45;01 Pages: 1 -->
<svg width="6900pt" height="500pt"
 viewBox="0.00 0.00 6900.00 500.00" xmlns="http://www.w3.org/2000/svg" xmlns:xlink="http://www.w3.org/1999/xlink">
<g id="graph0" class="graph" transform="scale(1 1) rotate(0) translate(4 496)">
<title>leader&#45;hazelcast&#45;class&#45;01</title>
<!-- leaderContract -->
<g id="node1" class="node">
<title>leaderContract</title>
<path fill="#f8fafc" stroke="#94a3b8" d="M2061.75,-264C2061.75,-264 1139.75,-264 1139.75,-264 1133.75,-264 1127.75,-258 1127.75,-252 1127.75,-252 1127.75,-240 1127.75,-240 1127.75,-234 1133.75,-228 1139.75,-228 1139.75,-228 2061.75,-228 2061.75,-228 2067.75,-228 2073.75,-234 2073.75,-240 2073.75,-240 2073.75,-252 2073.75,-252 2073.75,-258 2067.75,-264 2061.75,-264"/>
<text xml:space="preserve" text-anchor="middle" x="1600.75" y="-240.57" font-family="Comic Mono" font-size="14.00">&lt;&lt;core interface&gt;&gt;\nLeaderElector\n+ runIfLeader(lockName): T?\n+ runAsyncIfLeader(lockName)\n+ state(lockName): LeaderState</text>
</g>
<!-- suspendContract -->
<g id="node2" class="node">
<title>suspendContract</title>
<path fill="#f8fafc" stroke="#94a3b8" d="M1061.5,-264C1061.5,-264 12,-264 12,-264 6,-264 0,-258 0,-252 0,-252 0,-240 0,-240 0,-234 6,-228 12,-228 12,-228 1061.5,-228 1061.5,-228 1067.5,-228 1073.5,-234 1073.5,-240 1073.5,-240 1073.5,-252 1073.5,-252 1073.5,-258 1067.5,-264 1061.5,-264"/>
<text xml:space="preserve" text-anchor="middle" x="536.75" y="-240.57" font-family="Comic Mono" font-size="14.00">&lt;&lt;core suspend interface&gt;&gt;\nSuspendLeaderElector\n+ suspend runIfLeader(lockName)\n+ runIfLeaderResultSuspend(slot)\ncoroutine context handle</text>
</g>
<!-- groupContract -->
<g id="node3" class="node">
<title>groupContract</title>
<path fill="#f8fafc" stroke="#94a3b8" d="M4407.75,-264C4407.75,-264 3485.75,-264 3485.75,-264 3479.75,-264 3473.75,-258 3473.75,-252 3473.75,-252 3473.75,-240 3473.75,-240 3473.75,-234 3479.75,-228 3485.75,-228 3485.75,-228 4407.75,-228 4407.75,-228 4413.75,-228 4419.75,-234 4419.75,-240 4419.75,-240 4419.75,-252 4419.75,-252 4419.75,-258 4413.75,-264 4407.75,-264"/>
<text xml:space="preserve" text-anchor="middle" x="3946.75" y="-240.57" font-family="Comic Mono" font-size="14.00">&lt;&lt;core group interface&gt;&gt;\nLeaderGroupElector\n+ maxLeaders: Int\n+ runIfLeader(lockName): T?\n+ activeCount / availableSlots</text>
</g>
<!-- suspendGroupContract -->
<g id="node4" class="node">
<title>suspendGroupContract</title>
<path fill="#f8fafc" stroke="#94a3b8" d="M6820.25,-264C6820.25,-264 5793.25,-264 5793.25,-264 5787.25,-264 5781.25,-258 5781.25,-252 5781.25,-252 5781.25,-240 5781.25,-240 5781.25,-234 5787.25,-228 5793.25,-228 5793.25,-228 6820.25,-228 6820.25,-228 6826.25,-228 6832.25,-234 6832.25,-240 6832.25,-240 6832.25,-252 6832.25,-252 6832.25,-258 6826.25,-264 6820.25,-264"/>
<text xml:space="preserve" text-anchor="middle" x="6306.75" y="-240.57" font-family="Comic Mono" font-size="14.00">&lt;&lt;core suspend group&gt;&gt;\nSuspendLeaderGroupElector\n+ maxLeaders: Int\n+ suspend runIfLeader(lockName)\n+ state(lockName): LeaderGroupState</text>
</g>
<!-- hazelcastLeader -->
<g id="node5" class="node">
<title>hazelcastLeader</title>
<path fill="#f8fafc" stroke="#94a3b8" d="M2664,-150C2664,-150 1359.5,-150 1359.5,-150 1353.5,-150 1347.5,-144 1347.5,-138 1347.5,-138 1347.5,-126 1347.5,-126 1347.5,-120 1353.5,-114 1359.5,-114 1359.5,-114 2664,-114 2664,-114 2670,-114 2676,-120 2676,-126 2676,-126 2676,-138 2676,-138 2676,-144 2670,-150 2664,-150"/>
<text xml:space="preserve" text-anchor="middle" x="2011.75" y="-126.58" font-family="Comic Mono" font-size="14.00">&lt;&lt;blocking + async implementation&gt;&gt;\nHazelcastLeaderElector\nuses bluetape4k:leader:locks\ncreates HazelcastLock\nautoExtend watchdog optional\nasync release is thread&#45;unbound</text>
</g>
<!-- hazelcastLeader&#45;&gt;leaderContract -->
<g id="edge1" class="edge">
<title>hazelcastLeader&#45;&gt;leaderContract</title>
<path fill="none" stroke="#4f83bf" d="M1710.62,-150.32C1710.62,-150.32 1710.62,-218.22 1710.62,-218.22"/>
<polygon fill="#4f83bf" stroke="#4f83bf" points="1707.83,-218.22 1710.63,-226.22 1713.43,-218.22 1707.83,-218.22"/>
<text xml:space="preserve" text-anchor="middle" x="1619.12" y="-185.5" font-family="Comic Mono" font-size="10.00">inherit</text>
</g>
<!-- singleDelegates -->
<g id="node10" class="node">
<title>singleDelegates</title>
<path fill="#f8fafc" stroke="#94a3b8" d="M3407.25,-264C3407.25,-264 2140.25,-264 2140.25,-264 2134.25,-264 2128.25,-258 2128.25,-252 2128.25,-252 2128.25,-240 2128.25,-240 2128.25,-234 2134.25,-228 2140.25,-228 2140.25,-228 3407.25,-228 3407.25,-228 3413.25,-228 3419.25,-234 3419.25,-240 3419.25,-240 3419.25,-252 3419.25,-252 3419.25,-258 3413.25,-264 3407.25,-264"/>
<text xml:space="preserve" text-anchor="middle" x="2773.75" y="-240.57" font-family="Comic Mono" font-size="14.00">&lt;&lt;renewal delegates&gt;&gt;\nSingle Extend Delegates\nHazelcastLockExtendDelegate\nHazelcastSuspendLockExtendDelegate\nshare lock with LeaderLockHandle\nclassify backend errors</text>
</g>
<!-- hazelcastLeader&#45;&gt;singleDelegates -->
<g id="edge9" class="edge">
<title>hazelcastLeader&#45;&gt;singleDelegates</title>
<path fill="none" stroke="#b9851b" d="M2493.42,-150.32C2493.42,-150.32 2493.42,-218.22 2493.42,-218.22"/>
<polygon fill="#b9851b" stroke="#b9851b" points="2490.62,-218.22 2493.42,-226.22 2496.22,-218.22 2490.62,-218.22"/>
<text xml:space="preserve" text-anchor="middle" x="2447.12" y="-185.5" font-family="Comic Mono" font-size="10.00">handle delegate</text>
</g>
<!-- hazelcastSuspend -->
<g id="node6" class="node">
<title>hazelcastSuspend</title>
<path fill="#f8fafc" stroke="#94a3b8" d="M1281.5,-150C1281.5,-150 22,-150 22,-150 16,-150 10,-144 10,-138 10,-138 10,-126 10,-126 10,-120 16,-114 22,-114 22,-114 1281.5,-114 1281.5,-114 1287.5,-114 1293.5,-120 1293.5,-126 1293.5,-126 1293.5,-138 1293.5,-138 1293.5,-144 1287.5,-150 1281.5,-150"/>
<text xml:space="preserve" text-anchor="middle" x="651.75" y="-126.58" font-family="Comic Mono" font-size="14.00">&lt;&lt;coroutine implementation&gt;&gt;\nHazelcastSuspendLeaderElector\nuses same single lock map\ncreates HazelcastSuspendLock\nwithContext(handle element)\nNonCancellable release</text>
</g>
<!-- hazelcastSuspend&#45;&gt;suspendContract -->
<g id="edge2" class="edge">
<title>hazelcastSuspend&#45;&gt;suspendContract</title>
<path fill="none" stroke="#4f83bf" d="M541.75,-150.32C541.75,-150.32 541.75,-218.22 541.75,-218.22"/>
<polygon fill="#4f83bf" stroke="#4f83bf" points="538.95,-218.22 541.75,-226.22 544.55,-218.22 538.95,-218.22"/>
<text xml:space="preserve" text-anchor="middle" x="555.12" y="-185.5" font-family="Comic Mono" font-size="10.00">inherit</text>
</g>
<!-- hazelcastSuspend&#45;&gt;singleDelegates -->
<g id="edge10" class="edge">
<title>hazelcastSuspend&#45;&gt;singleDelegates</title>
<path fill="none" stroke="#b9851b" d="M1210.62,-150.41C1210.62,-162.46 1210.62,-176 1210.62,-176 1210.62,-176 2310.83,-176 2310.83,-176 2310.83,-176 2310.83,-218.09 2310.83,-218.09"/>
<polygon fill="#b9851b" stroke="#b9851b" points="2308.03,-218.09 2310.83,-226.09 2313.63,-218.09 2308.03,-218.09"/>
<text xml:space="preserve" text-anchor="middle" x="2235.75" y="-185.5" font-family="Comic Mono" font-size="10.00">suspend delegate</text>
</g>
<!-- hazelcastGroup -->
<g id="node7" class="node">
<title>hazelcastGroup</title>
<path fill="#f8fafc" stroke="#94a3b8" d="M5512,-150C5512,-150 4327.5,-150 4327.5,-150 4321.5,-150 4315.5,-144 4315.5,-138 4315.5,-138 4315.5,-126 4315.5,-126 4315.5,-120 4321.5,-114 4327.5,-114 4327.5,-114 5512,-114 5512,-114 5518,-114 5524,-120 5524,-126 5524,-126 5524,-138 5524,-138 5524,-144 5518,-150 5512,-150"/>
<text xml:space="preserve" text-anchor="middle" x="4919.75" y="-126.58" font-family="Comic Mono" font-size="14.00">&lt;&lt;slot group implementation&gt;&gt;\nHazelcastLeaderGroupElector\nuses group lock map\niterates lockName:slot:N\nactiveCount reads slot keys\ngroup watchdog disabled</text>
</g>
<!-- hazelcastGroup&#45;&gt;groupContract -->
<g id="edge3" class="edge">
<title>hazelcastGroup&#45;&gt;groupContract</title>
<path fill="none" stroke="#4f83bf" d="M4367.62,-150.32C4367.62,-150.32 4367.62,-218.22 4367.62,-218.22"/>
<polygon fill="#4f83bf" stroke="#4f83bf" points="4364.83,-218.22 4367.63,-226.22 4370.43,-218.22 4364.83,-218.22"/>
<text xml:space="preserve" text-anchor="middle" x="3965.12" y="-185.5" font-family="Comic Mono" font-size="10.00">inherit</text>
</g>
<!-- slotDelegates -->
<g id="node11" class="node">
<title>slotDelegates</title>
<path fill="#f8fafc" stroke="#94a3b8" d="M5715.5,-264C5715.5,-264 4486,-264 4486,-264 4480,-264 4474,-258 4474,-252 4474,-252 4474,-240 4474,-240 4474,-234 4480,-228 4486,-228 4486,-228 5715.5,-228 5715.5,-228 5721.5,-228 5727.5,-234 5727.5,-240 5727.5,-240 5727.5,-252 5727.5,-252 5727.5,-258 5721.5,-264 5715.5,-264"/>
<text xml:space="preserve" text-anchor="middle" x="5100.75" y="-240.57" font-family="Comic Mono" font-size="14.00">&lt;&lt;group renewal delegates&gt;&gt;\nSlot Extend Delegates\nHazelcastSlotExtendDelegate\nHazelcastSuspendSlotExtendDelegate\nextend lockName:slot:N\nmanual LockExtender path</text>
</g>
<!-- hazelcastGroup&#45;&gt;slotDelegates -->
<g id="edge11" class="edge">
<title>hazelcastGroup&#45;&gt;slotDelegates</title>
<path fill="none" stroke="#755bc6" d="M4999,-150.32C4999,-150.32 4999,-218.22 4999,-218.22"/>
<polygon fill="#755bc6" stroke="#755bc6" points="4996.2,-218.22 4999,-226.22 5001.8,-218.22 4996.2,-218.22"/>
<text xml:space="preserve" text-anchor="middle" x="4995.88" y="-185.5" font-family="Comic Mono" font-size="10.00">slot delegate</text>
</g>
<!-- hazelcastSuspendGroup -->
<g id="node8" class="node">
<title>hazelcastSuspendGroup</title>
<path fill="#f8fafc" stroke="#94a3b8" d="M6879.5,-150C6879.5,-150 5590,-150 5590,-150 5584,-150 5578,-144 5578,-138 5578,-138 5578,-126 5578,-126 5578,-120 5584,-114 5590,-114 5590,-114 6879.5,-114 6879.5,-114 6885.5,-114 6891.5,-120 6891.5,-126 6891.5,-126 6891.5,-138 6891.5,-138 6891.5,-144 6885.5,-150 6879.5,-150"/>
<text xml:space="preserve" text-anchor="middle" x="6234.75" y="-126.58" font-family="Comic Mono" font-size="14.00">&lt;&lt;coroutine slot group&gt;&gt;\nHazelcastSuspend Group\nHazelcastSuspendLeaderGroupElector\nensureActive while trying slots\ncreates suspend slot lock\nNonCancellable slot release</text>
</g>
<!-- hazelcastSuspendGroup&#45;&gt;suspendGroupContract -->
<g id="edge4" class="edge">
<title>hazelcastSuspendGroup&#45;&gt;suspendGroupContract</title>
<path fill="none" stroke="#4f83bf" d="M6306.75,-150.32C6306.75,-150.32 6306.75,-218.22 6306.75,-218.22"/>
<polygon fill="#4f83bf" stroke="#4f83bf" points="6303.95,-218.22 6306.75,-226.22 6309.55,-218.22 6303.95,-218.22"/>
<text xml:space="preserve" text-anchor="middle" x="6325.12" y="-185.5" font-family="Comic Mono" font-size="10.00">inherit</text>
</g>
<!-- hazelcastSuspendGroup&#45;&gt;slotDelegates -->
<g id="edge12" class="edge">
<title>hazelcastSuspendGroup&#45;&gt;slotDelegates</title>
<path fill="none" stroke="#755bc6" d="M5652.75,-150.32C5652.75,-150.32 5652.75,-218.22 5652.75,-218.22"/>
<polygon fill="#755bc6" stroke="#755bc6" points="5649.95,-218.22 5652.75,-226.22 5655.55,-218.22 5649.95,-218.22"/>
<text xml:space="preserve" text-anchor="middle" x="5204.25" y="-185.5" font-family="Comic Mono" font-size="10.00">suspend slot</text>
</g>
<!-- factories -->
<g id="node9" class="node">
<title>factories</title>
<path fill="#f8fafc" stroke="#94a3b8" d="M3405,-36C3405,-36 2040.5,-36 2040.5,-36 2034.5,-36 2028.5,-30 2028.5,-24 2028.5,-24 2028.5,-12 2028.5,-12 2028.5,-6 2034.5,0 2040.5,0 2040.5,0 3405,0 3405,0 3411,0 3417,-6 3417,-12 3417,-12 3417,-24 3417,-24 3417,-30 3411,-36 3405,-36"/>
<text xml:space="preserve" text-anchor="middle" x="2722.75" y="-12.57" font-family="Comic Mono" font-size="14.00">&lt;&lt;factory + extensions&gt;&gt;\nFactory Entrypoints\nHazelcastLeaderElectorFactory\nHazelcastLeaderGroupElectorFactory\nHazelcastInstance.runIfLeader*\nHazelcastInstance.suspendRunIfLeader*</text>
</g>
<!-- factories&#45;&gt;hazelcastLeader -->
<g id="edge5" class="edge">
<title>factories&#45;&gt;hazelcastLeader</title>
<path fill="none" stroke="#758297" d="M2352.25,-36.32C2352.25,-36.32 2352.25,-104.22 2352.25,-104.22"/>
<polygon fill="#758297" stroke="#758297" points="2349.45,-104.22 2352.25,-112.22 2355.05,-104.22 2349.45,-104.22"/>
<text xml:space="preserve" text-anchor="middle" x="2693.5" y="-71.5" font-family="Comic Mono" font-size="10.00">factory create</text>
</g>
<!-- factories&#45;&gt;hazelcastSuspend -->
<g id="edge7" class="edge">
<title>factories&#45;&gt;hazelcastSuspend</title>
<path fill="none" stroke="#758297" d="M2028.04,-18C1675.35,-18 1320.5,-18 1320.5,-18 1320.5,-18 1320.5,-132 1320.5,-132 1320.5,-132 1303.39,-132 1303.39,-132"/>
<polygon fill="#758297" stroke="#758297" points="1303.39,-129.2 1295.39,-132 1303.39,-134.8 1303.39,-129.2"/>
<text xml:space="preserve" text-anchor="middle" x="1947" y="-71.5" font-family="Comic Mono" font-size="10.00">extensions</text>
</g>
<!-- factories&#45;&gt;hazelcastGroup -->
<g id="edge6" class="edge">
<title>factories&#45;&gt;hazelcastGroup</title>
<path fill="none" stroke="#758297" d="M3417.43,-24C3835.89,-24 4288.38,-24 4288.38,-24 4288.38,-24 4288.38,-132 4288.38,-132 4288.38,-132 4305.59,-132 4305.59,-132"/>
<polygon fill="#758297" stroke="#758297" points="4305.59,-134.8 4313.59,-132 4305.59,-129.2 4305.59,-134.8"/>
<text xml:space="preserve" text-anchor="middle" x="4208.25" y="-71.5" font-family="Comic Mono" font-size="10.00">group create</text>
</g>
<!-- factories&#45;&gt;hazelcastSuspendGroup -->
<g id="edge8" class="edge">
<title>factories&#45;&gt;hazelcastSuspendGroup</title>
<path fill="none" stroke="#758297" d="M3417.33,-12C4254.72,-12 5551,-12 5551,-12 5551,-12 5551,-132 5551,-132 5551,-132 5568.29,-132 5568.29,-132"/>
<polygon fill="#758297" stroke="#758297" points="5568.29,-134.8 5576.29,-132 5568.29,-129.2 5568.29,-134.8"/>
<text xml:space="preserve" text-anchor="middle" x="5617.62" y="-71.5" font-family="Comic Mono" font-size="10.00">suspend ext</text>
</g>
<!-- hazelcastLock -->
<g id="node12" class="node">
<title>hazelcastLock</title>
<path fill="#f8fafc" stroke="#94a3b8" d="M3878,-378C3878,-378 2843.5,-378 2843.5,-378 2837.5,-378 2831.5,-372 2831.5,-366 2831.5,-366 2831.5,-354 2831.5,-354 2831.5,-348 2837.5,-342 2843.5,-342 2843.5,-342 3878,-342 3878,-342 3884,-342 3890,-348 3890,-354 3890,-354 3890,-366 3890,-366 3890,-372 3884,-378 3878,-378"/>
<text xml:space="preserve" text-anchor="middle" x="3360.75" y="-354.57" font-family="Comic Mono" font-size="14.00">&lt;&lt;IMap token lock&gt;&gt;\nHazelcastLock\ntoken: Base58 fencing value\nputIfAbsent(key, token, TTL)\nremove(key, token)\nreplace + setTtl renewal</text>
</g>
<!-- singleDelegates&#45;&gt;hazelcastLock -->
<g id="edge13" class="edge">
<title>singleDelegates&#45;&gt;hazelcastLock</title>
<path fill="none" stroke="#b9851b" d="M3027.42,-264.32C3027.42,-264.32 3027.42,-332.22 3027.42,-332.22"/>
<polygon fill="#b9851b" stroke="#b9851b" points="3024.62,-332.22 3027.42,-340.22 3030.22,-332.22 3024.62,-332.22"/>
<text xml:space="preserve" text-anchor="middle" x="3331.62" y="-299.5" font-family="Comic Mono" font-size="10.00">sync extend</text>
</g>
<!-- hazelcastSuspendLock -->
<g id="node13" class="node">
<title>hazelcastSuspendLock</title>
<path fill="#f8fafc" stroke="#94a3b8" d="M5185.5,-378C5185.5,-378 3956,-378 3956,-378 3950,-378 3944,-372 3944,-366 3944,-366 3944,-354 3944,-354 3944,-348 3950,-342 3956,-342 3956,-342 5185.5,-342 5185.5,-342 5191.5,-342 5197.5,-348 5197.5,-354 5197.5,-354 5197.5,-366 5197.5,-366 5197.5,-372 5191.5,-378 5185.5,-378"/>
<text xml:space="preserve" text-anchor="middle" x="4570.75" y="-354.57" font-family="Comic Mono" font-size="14.00">&lt;&lt;suspend IMap token lock&gt;&gt;\nHazelcastSuspendLock\nblocking IMap wrapped in Dispatchers.IO\ndelay retry loop\ntoken check before unlock\nsame extendDetailed contract</text>
</g>
<!-- singleDelegates&#45;&gt;hazelcastSuspendLock -->
<g id="edge14" class="edge">
<title>singleDelegates&#45;&gt;hazelcastSuspendLock</title>
<path fill="none" stroke="#b9851b" d="M3223.33,-264.41C3223.33,-276.46 3223.33,-290 3223.33,-290 3223.33,-290 4181.88,-290 4181.88,-290 4181.88,-290 4181.88,-332.09 4181.88,-332.09"/>
<polygon fill="#b9851b" stroke="#b9851b" points="4179.08,-332.09 4181.88,-340.09 4184.68,-332.09 4179.08,-332.09"/>
<text xml:space="preserve" text-anchor="middle" x="4246.5" y="-299.5" font-family="Comic Mono" font-size="10.00">suspend extend</text>
</g>
<!-- slotDelegates&#45;&gt;hazelcastLock -->
<g id="edge15" class="edge">
<title>slotDelegates&#45;&gt;hazelcastLock</title>
<path fill="none" stroke="#755bc6" d="M4715.17,-264.39C4715.17,-285.13 4715.17,-316 4715.17,-316 4715.17,-316 3681.88,-316 3681.88,-316 3681.88,-316 3681.88,-332.08 3681.88,-332.08"/>
<polygon fill="#755bc6" stroke="#755bc6" points="3679.08,-332.08 3681.88,-340.08 3684.68,-332.08 3679.08,-332.08"/>
<text xml:space="preserve" text-anchor="middle" x="3899.38" y="-299.5" font-family="Comic Mono" font-size="10.00">slot lock</text>
</g>
<!-- slotDelegates&#45;&gt;hazelcastSuspendLock -->
<g id="edge16" class="edge">
<title>slotDelegates&#45;&gt;hazelcastSuspendLock</title>
<path fill="none" stroke="#755bc6" d="M4956.33,-264.32C4956.33,-264.32 4956.33,-332.22 4956.33,-332.22"/>
<polygon fill="#755bc6" stroke="#755bc6" points="4953.53,-332.22 4956.33,-340.22 4959.13,-332.22 4953.53,-332.22"/>
<text xml:space="preserve" text-anchor="middle" x="4880.38" y="-299.5" font-family="Comic Mono" font-size="10.00">suspend slot lock</text>
</g>
<!-- hazelcastMap -->
<g id="node14" class="node">
<title>hazelcastMap</title>
<path fill="#f8fafc" stroke="#94a3b8" d="M4633,-492C4633,-492 3298.5,-492 3298.5,-492 3292.5,-492 3286.5,-486 3286.5,-480 3286.5,-480 3286.5,-468 3286.5,-468 3286.5,-462 3292.5,-456 3298.5,-456 3298.5,-456 4633,-456 4633,-456 4639,-456 4645,-462 4645,-468 4645,-468 4645,-480 4645,-480 4645,-486 4639,-492 4633,-492"/>
<text xml:space="preserve" text-anchor="middle" x="3965.75" y="-468.57" font-family="Comic Mono" font-size="14.00">&lt;&lt;runtime primitive&gt;&gt;\nHazelcast IMap Store\nsingle map: bluetape4k:leader:locks\ngroup map: bluetape4k:leader:group:locks\nno CP Subsystem required\nnear&#45;cache must stay disabled</text>
</g>
<!-- hazelcastLock&#45;&gt;hazelcastMap -->
<g id="edge17" class="edge">
<title>hazelcastLock&#45;&gt;hazelcastMap</title>
<path fill="none" stroke="#758297" d="M3588.25,-378.32C3588.25,-378.32 3588.25,-446.22 3588.25,-446.22"/>
<polygon fill="#758297" stroke="#758297" points="3585.45,-446.22 3588.25,-454.22 3591.05,-446.22 3585.45,-446.22"/>
<text xml:space="preserve" text-anchor="middle" x="3936.12" y="-413.5" font-family="Comic Mono" font-size="10.00">putIfAbsent TTL</text>
</g>
<!-- hazelcastSuspendLock&#45;&gt;hazelcastMap -->
<g id="edge18" class="edge">
<title>hazelcastSuspendLock&#45;&gt;hazelcastMap</title>
<path fill="none" stroke="#758297" d="M4294.5,-378.32C4294.5,-378.32 4294.5,-446.22 4294.5,-446.22"/>
<polygon fill="#758297" stroke="#758297" points="4291.7,-446.22 4294.5,-454.22 4297.3,-446.22 4291.7,-446.22"/>
<text xml:space="preserve" text-anchor="middle" x="4339.5" y="-413.5" font-family="Comic Mono" font-size="10.00">Dispatchers.IO</text>
</g>
<!-- hazelcastClassifier -->
<g id="node15" class="node">
<title>hazelcastClassifier</title>
<path fill="#f8fafc" stroke="#94a3b8" d="M4249.25,-150C4249.25,-150 2742.25,-150 2742.25,-150 2736.25,-150 2730.25,-144 2730.25,-138 2730.25,-138 2730.25,-126 2730.25,-126 2730.25,-120 2736.25,-114 2742.25,-114 2742.25,-114 4249.25,-114 4249.25,-114 4255.25,-114 4261.25,-120 4261.25,-126 4261.25,-126 4261.25,-138 4261.25,-138 4261.25,-144 4255.25,-150 4249.25,-150"/>
<text xml:space="preserve" text-anchor="middle" x="3495.75" y="-126.58" font-family="Comic Mono" font-size="14.00">&lt;&lt;watchdog error policy&gt;&gt;\nHazelcastBackendErrorClassifier\nRetryable / TargetNotMember &#45;&gt; transient\nWrongTarget &#45;&gt; transient\nHazelcastException &#45;&gt; non&#45;transient\nfeeds CompositeBackendErrorClassifier</text>
</g>
<!-- hazelcastClassifier&#45;&gt;singleDelegates -->
<g id="edge19" class="edge">
<title>hazelcastClassifier&#45;&gt;singleDelegates</title>
<path fill="none" stroke="#2e8f89" d="M3074.75,-150.32C3074.75,-150.32 3074.75,-218.22 3074.75,-218.22"/>
<polygon fill="#2e8f89" stroke="#2e8f89" points="3071.95,-218.22 3074.75,-226.22 3077.55,-218.22 3071.95,-218.22"/>
<text xml:space="preserve" text-anchor="middle" x="3089.88" y="-185.5" font-family="Comic Mono" font-size="10.00">event</text>
</g>
<!-- hazelcastClassifier&#45;&gt;slotDelegates -->
<g id="edge20" class="edge">
<title>hazelcastClassifier&#45;&gt;slotDelegates</title>
<path fill="none" stroke="#2e8f89" d="M3867.5,-150.39C3867.5,-171.13 3867.5,-202 3867.5,-202 3867.5,-202 4446.88,-202 4446.88,-202 4446.88,-202 4446.88,-246 4446.88,-246 4446.88,-246 4464.21,-246 4464.21,-246"/>
<polygon fill="#2e8f89" stroke="#2e8f89" points="4464.21,-248.8 4472.21,-246 4464.21,-243.2 4464.21,-248.8"/>
<text xml:space="preserve" text-anchor="middle" x="3706.88" y="-185.5" font-family="Comic Mono" font-size="10.00">event</text>
</g>
</g>
</svg>
