<?xml version="1.0" encoding="UTF-8" standalone="no"?>
<!DOCTYPE svg PUBLIC "-//W3C//DTD SVG 1.1//EN"
 "http://www.w3.org/Graphics/SVG/1.1/DTD/svg11.dtd">
<!-- Generated by graphviz version 15.0.0 (20260523.1842)
 -->
<!-- Title: leader&#45;consul&#45;architecture&#45;01 Pages: 1 -->
<svg width="1474pt" height="348pt"
 viewBox="0.00 0.00 1474.00 348.00" xmlns="http://www.w3.org/2000/svg" xmlns:xlink="http://www.w3.org/1999/xlink">
<g id="graph0" class="graph" transform="scale(1 1) rotate(0) translate(4 344)">
<title>leader&#45;consul&#45;architecture&#45;01</title>
<!-- caller -->
<g id="node1" class="node">
<title>caller</title>
<path fill="#f8fafc" stroke="#94a3b8" d="M139,-257C139,-257 12,-257 12,-257 6,-257 0,-251 0,-245 0,-245 0,-233 0,-233 0,-227 6,-221 12,-221 12,-221 139,-221 139,-221 145,-221 151,-227 151,-233 151,-233 151,-245 151,-245 151,-251 145,-257 139,-257"/>
<text xml:space="preserve" text-anchor="middle" x="75.5" y="-233.57" font-family="Comic Mono" font-size="14.00">Application Caller</text>
</g>
<!-- single -->
<g id="node4" class="node">
<title>single</title>
<path fill="#f8fafc" stroke="#94a3b8" d="M407,-299C407,-299 250,-299 250,-299 244,-299 238,-293 238,-287 238,-287 238,-275 238,-275 238,-269 244,-263 250,-263 250,-263 407,-263 407,-263 413,-263 419,-269 419,-275 419,-275 419,-287 419,-287 419,-293 413,-299 407,-299"/>
<text xml:space="preserve" text-anchor="middle" x="328.5" y="-275.57" font-family="Comic Mono" font-size="14.00">Single Leader Electors</text>
</g>
<!-- caller&#45;&gt;single -->
<g id="edge1" class="edge">
<title>caller&#45;&gt;single</title>
<path fill="none" stroke="#758297" d="M143.5,-257.06C143.5,-268.44 143.5,-281 143.5,-281 143.5,-281 226.11,-281 226.11,-281"/>
<polygon fill="#758297" stroke="#758297" points="226.11,-284.5 236.11,-281 226.11,-277.5 226.11,-284.5"/>
<text xml:space="preserve" text-anchor="middle" x="194.5" y="-278.5" font-family="Comic Mono" font-size="10.00">call</text>
</g>
<!-- group -->
<g id="node5" class="node">
<title>group</title>
<path fill="#f8fafc" stroke="#94a3b8" d="M403.25,-216C403.25,-216 253.75,-216 253.75,-216 247.75,-216 241.75,-210 241.75,-204 241.75,-204 241.75,-192 241.75,-192 241.75,-186 247.75,-180 253.75,-180 253.75,-180 403.25,-180 403.25,-180 409.25,-180 415.25,-186 415.25,-192 415.25,-192 415.25,-204 415.25,-204 415.25,-210 409.25,-216 403.25,-216"/>
<text xml:space="preserve" text-anchor="middle" x="328.5" y="-192.57" font-family="Comic Mono" font-size="14.00">Group Leader Electors</text>
</g>
<!-- caller&#45;&gt;group -->
<g id="edge2" class="edge">
<title>caller&#45;&gt;group</title>
<path fill="none" stroke="#758297" d="M75.5,-220.9C75.5,-209.91 75.5,-198 75.5,-198 75.5,-198 229.92,-198 229.92,-198"/>
<polygon fill="#758297" stroke="#758297" points="229.92,-201.5 239.92,-198 229.92,-194.5 229.92,-201.5"/>
<text xml:space="preserve" text-anchor="middle" x="194.5" y="-209.5" font-family="Comic Mono" font-size="10.00">call</text>
</g>
<!-- endpoint -->
<g id="node2" class="node">
<title>endpoint</title>
<path fill="#f8fafc" stroke="#94a3b8" d="M672,-36C672,-36 575,-36 575,-36 569,-36 563,-30 563,-24 563,-24 563,-12 563,-12 563,-6 569,0 575,0 575,0 672,0 672,0 678,0 684,-6 684,-12 684,-12 684,-24 684,-24 684,-30 678,-36 672,-36"/>
<text xml:space="preserve" text-anchor="middle" x="623.5" y="-12.57" font-family="Comic Mono" font-size="14.00">ConsulEndpoint</text>
</g>
<!-- client -->
<g id="node6" class="node">
<title>client</title>
<path fill="#f8fafc" stroke="#94a3b8" d="M967.75,-186C967.75,-186 855.75,-186 855.75,-186 849.75,-186 843.75,-180 843.75,-174 843.75,-174 843.75,-162 843.75,-162 843.75,-156 849.75,-150 855.75,-150 855.75,-150 967.75,-150 967.75,-150 973.75,-150 979.75,-156 979.75,-162 979.75,-162 979.75,-174 979.75,-174 979.75,-180 973.75,-186 967.75,-186"/>
<text xml:space="preserve" text-anchor="middle" x="911.75" y="-162.57" font-family="Comic Mono" font-size="14.00">ConsulLockClient</text>
</g>
<!-- endpoint&#45;&gt;client -->
<g id="edge3" class="edge">
<title>endpoint&#45;&gt;client</title>
<path fill="none" stroke="#758297" d="M623.5,-36.24C623.5,-74.05 623.5,-157.5 623.5,-157.5 623.5,-157.5 831.93,-157.5 831.93,-157.5"/>
<polygon fill="#758297" stroke="#758297" points="831.93,-161 841.93,-157.5 831.93,-154 831.93,-161"/>
<text xml:space="preserve" text-anchor="middle" x="784.5" y="-20.5" font-family="Comic Mono" font-size="10.00">dependency</text>
</g>
<!-- options -->
<g id="node3" class="node">
<title>options</title>
<path fill="#f8fafc" stroke="#94a3b8" d="M124,-340C124,-340 27,-340 27,-340 21,-340 15,-334 15,-328 15,-328 15,-316 15,-316 15,-310 21,-304 27,-304 27,-304 124,-304 124,-304 130,-304 136,-310 136,-316 136,-316 136,-328 136,-328 136,-334 130,-340 124,-340"/>
<text xml:space="preserve" text-anchor="middle" x="75.5" y="-316.57" font-family="Comic Mono" font-size="14.00">Consul Options</text>
</g>
<!-- single&#45;&gt;client -->
<g id="edge4" class="edge">
<title>single&#45;&gt;client</title>
<path fill="none" stroke="#758297" d="M419.26,-271.5C578.03,-271.5 889.5,-271.5 889.5,-271.5 889.5,-271.5 889.5,-197.54 889.5,-197.54"/>
<polygon fill="#758297" stroke="#758297" points="893,-197.54 889.5,-187.54 886,-197.54 893,-197.54"/>
<text xml:space="preserve" text-anchor="middle" x="623.5" y="-321.5" font-family="Comic Mono" font-size="10.00">call</text>
</g>
<!-- lease -->
<g id="node7" class="node">
<title>lease</title>
<path fill="#f8fafc" stroke="#94a3b8" d="M713.25,-225C713.25,-225 533.75,-225 533.75,-225 527.75,-225 521.75,-219 521.75,-213 521.75,-213 521.75,-201 521.75,-201 521.75,-195 527.75,-189 533.75,-189 533.75,-189 713.25,-189 713.25,-189 719.25,-189 725.25,-195 725.25,-201 725.25,-201 725.25,-213 725.25,-213 725.25,-219 719.25,-225 713.25,-225"/>
<text xml:space="preserve" text-anchor="middle" x="623.5" y="-201.57" font-family="Comic Mono" font-size="14.00">Lease Handle And Extender</text>
</g>
<!-- single&#45;&gt;lease -->
<g id="edge6" class="edge">
<title>single&#45;&gt;lease</title>
<path fill="none" stroke="#758297" d="M419.42,-267.25C506.09,-267.25 623.5,-267.25 623.5,-267.25 623.5,-267.25 623.5,-236.92 623.5,-236.92"/>
<polygon fill="#758297" stroke="#758297" points="627,-236.92 623.5,-226.92 620,-236.92 627,-236.92"/>
<text xml:space="preserve" text-anchor="middle" x="470.38" y="-276.5" font-family="Comic Mono" font-size="10.00">success</text>
</g>
<!-- group&#45;&gt;client -->
<g id="edge5" class="edge">
<title>group&#45;&gt;client</title>
<path fill="none" stroke="#758297" d="M328.5,-179.57C328.5,-172.01 328.5,-165 328.5,-165 328.5,-165 831.9,-165 831.9,-165"/>
<polygon fill="#758297" stroke="#758297" points="831.9,-168.5 841.9,-165 831.9,-161.5 831.9,-168.5"/>
<text xml:space="preserve" text-anchor="middle" x="623.5" y="-132.5" font-family="Comic Mono" font-size="10.00">call</text>
</g>
<!-- group&#45;&gt;lease -->
<g id="edge7" class="edge">
<title>group&#45;&gt;lease</title>
<path fill="none" stroke="#758297" d="M415.41,-202.5C415.41,-202.5 509.84,-202.5 509.84,-202.5"/>
<polygon fill="#758297" stroke="#758297" points="509.84,-206 519.84,-202.5 509.84,-199 509.84,-206"/>
<text xml:space="preserve" text-anchor="middle" x="470.38" y="-208.5" font-family="Comic Mono" font-size="10.00">success</text>
</g>
<!-- session -->
<g id="node8" class="node">
<title>session</title>
<path fill="#f8fafc" stroke="#94a3b8" d="M1222.25,-319C1222.25,-319 1125.25,-319 1125.25,-319 1119.25,-319 1113.25,-313 1113.25,-307 1113.25,-307 1113.25,-295 1113.25,-295 1113.25,-289 1119.25,-283 1125.25,-283 1125.25,-283 1222.25,-283 1222.25,-283 1228.25,-283 1234.25,-289 1234.25,-295 1234.25,-295 1234.25,-307 1234.25,-307 1234.25,-313 1228.25,-319 1222.25,-319"/>
<text xml:space="preserve" text-anchor="middle" x="1173.75" y="-295.57" font-family="Comic Mono" font-size="14.00">Consul Session</text>
</g>
<!-- client&#45;&gt;session -->
<g id="edge9" class="edge">
<title>client&#45;&gt;session</title>
<path fill="none" stroke="#758297" d="M934.5,-186.41C934.5,-220.73 934.5,-291 934.5,-291 934.5,-291 1101.24,-291 1101.24,-291"/>
<polygon fill="#758297" stroke="#758297" points="1101.24,-294.5 1111.24,-291 1101.24,-287.5 1101.24,-294.5"/>
<text xml:space="preserve" text-anchor="middle" x="1039" y="-302.5" font-family="Comic Mono" font-size="10.00">dependency</text>
</g>
<!-- singleKey -->
<g id="node9" class="node">
<title>singleKey</title>
<path fill="#f8fafc" stroke="#94a3b8" d="M1453.5,-280C1453.5,-280 1364,-280 1364,-280 1358,-280 1352,-274 1352,-268 1352,-268 1352,-256 1352,-256 1352,-250 1358,-244 1364,-244 1364,-244 1453.5,-244 1453.5,-244 1459.5,-244 1465.5,-250 1465.5,-256 1465.5,-256 1465.5,-268 1465.5,-268 1465.5,-274 1459.5,-280 1453.5,-280"/>
<text xml:space="preserve" text-anchor="middle" x="1408.75" y="-256.57" font-family="Comic Mono" font-size="14.00">Single KV Key</text>
</g>
<!-- client&#45;&gt;singleKey -->
<g id="edge10" class="edge">
<title>client&#45;&gt;singleKey</title>
<path fill="none" stroke="#758297" d="M980.04,-174C1116.2,-174 1408.5,-174 1408.5,-174 1408.5,-174 1408.5,-232.25 1408.5,-232.25"/>
<polygon fill="#758297" stroke="#758297" points="1405,-232.25 1408.5,-242.25 1412,-232.25 1405,-232.25"/>
<text xml:space="preserve" text-anchor="middle" x="1173.75" y="-226.5" font-family="Comic Mono" font-size="10.00">contention</text>
</g>
<!-- groupKeys -->
<g id="node10" class="node">
<title>groupKeys</title>
<path fill="#f8fafc" stroke="#94a3b8" d="M1237.25,-130C1237.25,-130 1110.25,-130 1110.25,-130 1104.25,-130 1098.25,-124 1098.25,-118 1098.25,-118 1098.25,-106 1098.25,-106 1098.25,-100 1104.25,-94 1110.25,-94 1110.25,-94 1237.25,-94 1237.25,-94 1243.25,-94 1249.25,-100 1249.25,-106 1249.25,-106 1249.25,-118 1249.25,-118 1249.25,-124 1243.25,-130 1237.25,-130"/>
<text xml:space="preserve" text-anchor="middle" x="1173.75" y="-106.58" font-family="Comic Mono" font-size="14.00">Group Slot KV Keys</text>
</g>
<!-- client&#45;&gt;groupKeys -->
<g id="edge11" class="edge">
<title>client&#45;&gt;groupKeys</title>
<path fill="none" stroke="#758297" d="M980.06,-162C1035.84,-162 1105.5,-162 1105.5,-162 1105.5,-162 1105.5,-141.85 1105.5,-141.85"/>
<polygon fill="#758297" stroke="#758297" points="1109,-141.85 1105.5,-131.85 1102,-141.85 1109,-141.85"/>
<text xml:space="preserve" text-anchor="middle" x="1039" y="-114.5" font-family="Comic Mono" font-size="10.00">contention</text>
</g>
<!-- agentApi -->
<g id="node11" class="node">
<title>agentApi</title>
<path fill="#f8fafc" stroke="#94a3b8" d="M1226,-47C1226,-47 1121.5,-47 1121.5,-47 1115.5,-47 1109.5,-41 1109.5,-35 1109.5,-35 1109.5,-23 1109.5,-23 1109.5,-17 1115.5,-11 1121.5,-11 1121.5,-11 1226,-11 1226,-11 1232,-11 1238,-17 1238,-23 1238,-23 1238,-35 1238,-35 1238,-41 1232,-47 1226,-47"/>
<text xml:space="preserve" text-anchor="middle" x="1173.75" y="-23.57" font-family="Comic Mono" font-size="14.00">Consul HTTP API</text>
</g>
<!-- client&#45;&gt;agentApi -->
<g id="edge12" class="edge">
<title>client&#45;&gt;agentApi</title>
<path fill="none" stroke="#758297" d="M911.5,-149.61C911.5,-114.52 911.5,-41.5 911.5,-41.5 911.5,-41.5 1097.75,-41.5 1097.75,-41.5"/>
<polygon fill="#758297" stroke="#758297" points="1097.75,-45 1107.75,-41.5 1097.75,-38 1097.75,-45"/>
<text xml:space="preserve" text-anchor="middle" x="1039" y="-31.5" font-family="Comic Mono" font-size="10.00">dependency</text>
</g>
<!-- lease&#45;&gt;client -->
<g id="edge8" class="edge">
<title>lease&#45;&gt;client</title>
<path fill="none" stroke="#758297" d="M704.5,-188.54C704.5,-180.34 704.5,-172.5 704.5,-172.5 704.5,-172.5 831.8,-172.5 831.8,-172.5"/>
<polygon fill="#758297" stroke="#758297" points="831.8,-176 841.8,-172.5 831.8,-169 831.8,-176"/>
<text xml:space="preserve" text-anchor="middle" x="784.5" y="-209.5" font-family="Comic Mono" font-size="10.00">retry</text>
</g>
<!-- session&#45;&gt;singleKey -->
<g id="edge13" class="edge">
<title>session&#45;&gt;singleKey</title>
<path fill="none" stroke="#758297" d="M1173.5,-282.65C1173.5,-278.73 1173.5,-275.75 1173.5,-275.75 1173.5,-275.75 1339.99,-275.75 1339.99,-275.75"/>
<polygon fill="#758297" stroke="#758297" points="1339.99,-279.25 1349.99,-275.75 1339.99,-272.25 1339.99,-279.25"/>
<text xml:space="preserve" text-anchor="middle" x="1300.62" y="-302.5" font-family="Comic Mono" font-size="10.00">release</text>
</g>
</g>
</svg>
