<?xml version="1.0" encoding="UTF-8" standalone="no"?>
<!DOCTYPE svg PUBLIC "-//W3C//DTD SVG 1.1//EN"
 "http://www.w3.org/Graphics/SVG/1.1/DTD/svg11.dtd">
<!-- Generated by graphviz version 15.0.0 (20260523.1842)
 -->
<!-- Title: leader&#45;redis&#45;redisson&#45;sequence&#45;03 Pages: 1 -->
<svg width="878pt" height="440pt"
 viewBox="0.00 0.00 878.00 440.00" xmlns="http://www.w3.org/2000/svg" xmlns:xlink="http://www.w3.org/1999/xlink">
<g id="graph0" class="graph" transform="scale(1 1) rotate(0) translate(4 436)">
<title>leader&#45;redis&#45;redisson&#45;sequence&#45;03</title>
<!-- caller -->
<g id="node1" class="node">
<title>caller</title>
<path fill="#f8fafc" stroke="#94a3b8" d="M49,-237C49,-237 12,-237 12,-237 6,-237 0,-231 0,-225 0,-225 0,-213 0,-213 0,-207 6,-201 12,-201 12,-201 49,-201 49,-201 55,-201 61,-207 61,-213 61,-213 61,-225 61,-225 61,-231 55,-237 49,-237"/>
<text xml:space="preserve" text-anchor="middle" x="30.5" y="-213.57" font-family="Comic Mono" font-size="14.00">Caller</text>
</g>
<!-- elector -->
<g id="node2" class="node">
<title>elector</title>
<path fill="#f8fafc" stroke="#94a3b8" d="M440,-237C440,-237 328,-237 328,-237 322,-237 316,-231 316,-225 316,-225 316,-213 316,-213 316,-207 322,-201 328,-201 328,-201 440,-201 440,-201 446,-201 452,-207 452,-213 452,-213 452,-225 452,-225 452,-231 446,-237 440,-237"/>
<text xml:space="preserve" text-anchor="middle" x="384" y="-213.57" font-family="Comic Mono" font-size="14.00">Redisson elector</text>
</g>
<!-- caller&#45;&gt;elector -->
<g id="edge1" class="edge">
<title>caller&#45;&gt;elector</title>
<path fill="none" stroke="#4f83bf" d="M61.25,-210C61.25,-210 307.3,-210 307.3,-210"/>
<polygon fill="#4f83bf" stroke="#4f83bf" points="307.3,-212.45 314.3,-210 307.3,-207.55 307.3,-212.45"/>
<text xml:space="preserve" text-anchor="middle" x="188.5" y="-288.5" font-family="Comic Mono" font-size="10.00">runIfLeader(lockName, options, body)</text>
</g>
<!-- elector&#45;&gt;caller -->
<g id="edge7" class="edge">
<title>elector&#45;&gt;caller</title>
<path fill="none" stroke="#3e9868" d="M315.84,-219C315.84,-219 69.59,-219 69.59,-219"/>
<polygon fill="#3e9868" stroke="#3e9868" points="69.59,-216.55 62.59,-219 69.59,-221.45 69.59,-216.55"/>
<text xml:space="preserve" text-anchor="middle" x="188.5" y="-221.5" font-family="Comic Mono" font-size="10.00">return body result</text>
</g>
<!-- elector&#45;&gt;caller -->
<g id="edge10" class="edge">
<title>elector&#45;&gt;caller</title>
<path fill="none" stroke="#c94d68" d="M315.84,-228C315.84,-228 69.59,-228 69.59,-228"/>
<polygon fill="#c94d68" stroke="#c94d68" points="69.59,-225.55 62.59,-228 69.59,-230.45 69.59,-225.55"/>
<text xml:space="preserve" text-anchor="middle" x="188.5" y="-154.5" font-family="Comic Mono" font-size="10.00">return skipped result</text>
</g>
<!-- backend -->
<g id="node3" class="node">
<title>backend</title>
<path fill="#f8fafc" stroke="#94a3b8" d="M858,-337C858,-337 761,-337 761,-337 755,-337 749,-331 749,-325 749,-325 749,-313 749,-313 749,-307 755,-301 761,-301 761,-301 858,-301 858,-301 864,-301 870,-307 870,-313 870,-313 870,-325 870,-325 870,-331 864,-337 858,-337"/>
<text xml:space="preserve" text-anchor="middle" x="809.5" y="-313.57" font-family="Comic Mono" font-size="14.00">Redisson RLock</text>
</g>
<!-- elector&#45;&gt;backend -->
<g id="edge2" class="edge">
<title>elector&#45;&gt;backend</title>
<path fill="none" stroke="#b9851b" d="M452.23,-231.86C559.62,-231.86 756,-231.86 756,-231.86 756,-231.86 756,-292.01 756,-292.01"/>
<polygon fill="#b9851b" stroke="#b9851b" points="753.55,-292.01 756,-299.01 758.45,-292.01 753.55,-292.01"/>
<text xml:space="preserve" text-anchor="middle" x="600.5" y="-422.5" font-family="Comic Mono" font-size="10.00">tryLock(waitTime, leaseTime)</text>
</g>
<!-- elector&#45;&gt;backend -->
<g id="edge6" class="edge">
<title>elector&#45;&gt;backend</title>
<path fill="none" stroke="#755bc6" d="M452.44,-216.43C572.86,-216.43 810,-216.43 810,-216.43 810,-216.43 810,-292.15 810,-292.15"/>
<polygon fill="#755bc6" stroke="#755bc6" points="807.55,-292.15 810,-299.15 812.45,-292.15 807.55,-292.15"/>
<text xml:space="preserve" text-anchor="middle" x="600.5" y="-355.5" font-family="Comic Mono" font-size="10.00">updateLeaseTime or unlock after minimum hold</text>
</g>
<!-- body -->
<g id="node4" class="node">
<title>body</title>
<path fill="#f8fafc" stroke="#94a3b8" d="M846.75,-146C846.75,-146 772.25,-146 772.25,-146 766.25,-146 760.25,-140 760.25,-134 760.25,-134 760.25,-122 760.25,-122 760.25,-116 766.25,-110 772.25,-110 772.25,-110 846.75,-110 846.75,-110 852.75,-110 858.75,-116 858.75,-122 858.75,-122 858.75,-134 858.75,-134 858.75,-140 852.75,-146 846.75,-146"/>
<text xml:space="preserve" text-anchor="middle" x="809.5" y="-122.58" font-family="Comic Mono" font-size="14.00">Leader body</text>
</g>
<!-- elector&#45;&gt;body -->
<g id="edge4" class="edge">
<title>elector&#45;&gt;body</title>
<path fill="none" stroke="#4f83bf" d="M452.07,-211.29C579.66,-211.29 842,-211.29 842,-211.29 842,-211.29 842,-155 842,-155"/>
<polygon fill="#4f83bf" stroke="#4f83bf" points="844.45,-155 842,-148 839.55,-155 844.45,-155"/>
<text xml:space="preserve" text-anchor="middle" x="600.5" y="-154.5" font-family="Comic Mono" font-size="10.00">execute protected leader body</text>
</g>
<!-- cleanup -->
<g id="node5" class="node">
<title>cleanup</title>
<path fill="#f8fafc" stroke="#94a3b8" d="M854.25,-36C854.25,-36 764.75,-36 764.75,-36 758.75,-36 752.75,-30 752.75,-24 752.75,-24 752.75,-12 752.75,-12 752.75,-6 758.75,0 764.75,0 764.75,0 854.25,0 854.25,0 860.25,0 866.25,-6 866.25,-12 866.25,-12 866.25,-24 866.25,-24 866.25,-30 860.25,-36 854.25,-36"/>
<text xml:space="preserve" text-anchor="middle" x="809.5" y="-12.57" font-family="Comic Mono" font-size="14.00">Recovery path</text>
</g>
<!-- elector&#45;&gt;cleanup -->
<g id="edge9" class="edge">
<title>elector&#45;&gt;cleanup</title>
<path fill="none" stroke="#2e8f89" d="M384,-200.81C384,-151.33 384,-18 384,-18 384,-18 744.04,-18 744.04,-18"/>
<polygon fill="#2e8f89" stroke="#2e8f89" points="744.04,-20.45 751.04,-18 744.04,-15.55 744.04,-20.45"/>
<text xml:space="preserve" text-anchor="middle" x="600.5" y="-20.5" font-family="Comic Mono" font-size="10.00">remaining lease protects minimum hold window</text>
</g>
<!-- backend&#45;&gt;elector -->
<g id="edge3" class="edge">
<title>backend&#45;&gt;elector</title>
<path fill="none" stroke="#3e9868" d="M777,-300.77C777,-273.87 777,-226.71 777,-226.71 777,-226.71 460.97,-226.71 460.97,-226.71"/>
<polygon fill="#3e9868" stroke="#3e9868" points="460.97,-224.26 453.97,-226.71 460.97,-229.16 460.97,-224.26"/>
<text xml:space="preserve" text-anchor="middle" x="600.5" y="-288.5" font-family="Comic Mono" font-size="10.00">token accepted</text>
</g>
<!-- backend&#45;&gt;elector -->
<g id="edge8" class="edge">
<title>backend&#45;&gt;elector</title>
<path fill="none" stroke="#c94d68" d="M793,-300.67C793,-272.45 793,-221.57 793,-221.57 793,-221.57 460.97,-221.57 460.97,-221.57"/>
<polygon fill="#c94d68" stroke="#c94d68" points="460.97,-219.12 453.97,-221.57 460.97,-224.02 460.97,-219.12"/>
<text xml:space="preserve" text-anchor="middle" x="600.5" y="-221.5" font-family="Comic Mono" font-size="10.00">existing owner token blocks acquire</text>
</g>
<!-- body&#45;&gt;elector -->
<g id="edge5" class="edge">
<title>body&#45;&gt;elector</title>
<path fill="none" stroke="#3e9868" d="M826,-146.12C826,-169.21 826,-206.14 826,-206.14 826,-206.14 460.61,-206.14 460.61,-206.14"/>
<polygon fill="#3e9868" stroke="#3e9868" points="460.61,-203.69 453.61,-206.14 460.61,-208.59 460.61,-203.69"/>
<text xml:space="preserve" text-anchor="middle" x="600.5" y="-87.5" font-family="Comic Mono" font-size="10.00">body result</text>
</g>
</g>
</svg>
