<svg xmlns="http://www.w3.org/2000/svg" width="1600" height="1100" viewBox="0 0 1600 1100" role="img" aria-labelledby="title desc">
  <title id="title">Hazelcast Group Slot Sequence</title>
  <desc id="desc">Hazelcast group leader election using bounded slot permits in IMap-backed group locks.</desc>
  <defs>
    <style>
      .title { font-family: "Architects Daughter"; font-size: 40px; fill: #263238; }
      .subtitle, .msg, .note, .footer { font-family: "Comic Mono"; fill: #36464f; }
      .subtitle { font-size: 18px; }
      .participant { font-family: "Architects Daughter"; font-size: 19px; fill: #1f3138; }
      .role { font-family: "Comic Mono"; font-size: 13px; fill: #546a73; }
      .msg { font-size: 14px; }
      .note { font-size: 13px; }
      .footer { font-size: 14px; fill: #60727d; }
      .frame { fill: #fbfcf8; stroke: #41545d; stroke-width: 3; }
      .header { fill: #ffffff; stroke: #546e7a; stroke-width: 2; }
      .lifeline { stroke: #9aaab1; stroke-width: 2; stroke-dasharray: 7 8; }
      .activation { fill: #f3ecdf; stroke: #8f784e; stroke-width: 1.5; }
      .call { fill: none; stroke: #3f7d9c; stroke-width: 3; marker-end: url(#arrowCall); stroke-linecap: round; stroke-linejoin: round; }
      .slot { fill: none; stroke: #a2743d; stroke-width: 3; marker-end: url(#arrowSlot); stroke-linecap: round; stroke-linejoin: round; }
      .state { fill: none; stroke: #6e8f4f; stroke-width: 3; marker-end: url(#arrowState); stroke-linecap: round; stroke-linejoin: round; }
      .return { fill: none; stroke: #9b7d54; stroke-width: 2.5; stroke-dasharray: 8 6; marker-end: url(#arrowReturn); stroke-linecap: round; stroke-linejoin: round; }
      .wait { fill: none; stroke: #8e6aa9; stroke-width: 3; marker-end: url(#arrowWait); stroke-linecap: round; stroke-linejoin: round; }
      .skip { fill: none; stroke: #b86868; stroke-width: 3; marker-end: url(#arrowSkip); stroke-linecap: round; stroke-linejoin: round; }
      .alt { fill: none; stroke: #78909c; stroke-width: 3; stroke-dasharray: 12 7; }
      .branchDivider { stroke: #78909c; stroke-width: 3; stroke-dasharray: 12 8; }
      .label { fill: #ffffff; stroke: #d7e0e4; stroke-width: 1.5; }
      .label.callLabel { stroke: #9cc2d1; }
      .label.slotLabel { stroke: #d0b078; }
      .label.stateLabel { stroke: #b6c9a4; }
      .label.returnLabel { stroke: #c8b38f; }
      .label.waitLabel { stroke: #c7abd8; }
      .label.skipLabel { stroke: #d9abab; }
      .branchOk { fill: #f8f1e6; stroke: #a2743d; stroke-width: 1.8; }
      .branchWait { fill: #f7f0fb; stroke: #8e6aa9; stroke-width: 1.8; }
      .branchSkip { fill: #fff5f5; stroke: #b86868; stroke-width: 3; }
      .badge { stroke-width: 1.8; }
      .badge.callBadge { fill: #eaf4f8; stroke: #3f7d9c; }
      .badge.slotBadge { fill: #fff4df; stroke: #a2743d; }
      .badge.stateBadge { fill: #eef7f0; stroke: #6e8f4f; }
      .badge.returnBadge { fill: #fff7e8; stroke: #9b7d54; }
      .badge.waitBadge { fill: #f7f0fb; stroke: #8e6aa9; }
      .badge.skipBadge { fill: #fff0f0; stroke: #b86868; }
      .badgeText { font-family: "Comic Mono"; font-size: 12px; font-weight: 700; }
      .msg.callText, .badgeText.callText { fill: #2f6f8e; }
      .msg.slotText, .badgeText.slotText { fill: #855a29; }
      .msg.stateText, .badgeText.stateText { fill: #55783f; }
      .msg.returnText, .badgeText.returnText { fill: #7f6038; }
      .msg.waitText, .badgeText.waitText { fill: #774f92; }
      .msg.skipText, .badgeText.skipText { fill: #9d4f4f; }
    </style>
    <marker viewBox="0 0 10 10" markerUnits="userSpaceOnUse" id="arrowCall" markerWidth="16" markerHeight="16" refX="9" refY="5" orient="auto"><path d="M 0 0 L 10 5 L 0 10 Z" fill="#3f7d9c" stroke="#3f7d9c" stroke-width="0" stroke-dasharray="none" style="stroke-dasharray:none!important"/></marker>
    <marker viewBox="0 0 10 10" markerUnits="userSpaceOnUse" id="arrowSlot" markerWidth="16" markerHeight="16" refX="9" refY="5" orient="auto"><path d="M 0 0 L 10 5 L 0 10 Z" fill="#a2743d" stroke="#a2743d" stroke-width="0" stroke-dasharray="none" style="stroke-dasharray:none!important"/></marker>
    <marker viewBox="0 0 10 10" markerUnits="userSpaceOnUse" id="arrowState" markerWidth="16" markerHeight="16" refX="9" refY="5" orient="auto"><path d="M 0 0 L 10 5 L 0 10 Z" fill="#6e8f4f" stroke="#6e8f4f" stroke-width="0" stroke-dasharray="none" style="stroke-dasharray:none!important"/></marker>
    <marker viewBox="0 0 10 10" markerUnits="userSpaceOnUse" id="arrowReturn" markerWidth="16" markerHeight="16" refX="9" refY="5" orient="auto"><path d="M 0 0 L 10 5 L 0 10 Z" fill="#9b7d54" stroke="#9b7d54" stroke-width="0" stroke-dasharray="none" style="stroke-dasharray:none!important"/></marker>
    <marker viewBox="0 0 10 10" markerUnits="userSpaceOnUse" id="arrowWait" markerWidth="16" markerHeight="16" refX="9" refY="5" orient="auto"><path d="M 0 0 L 10 5 L 0 10 Z" fill="#8e6aa9" stroke="#8e6aa9" stroke-width="0" stroke-dasharray="none" style="stroke-dasharray:none!important"/></marker>
    <marker viewBox="0 0 10 10" markerUnits="userSpaceOnUse" id="arrowSkip" markerWidth="16" markerHeight="16" refX="9" refY="5" orient="auto"><path d="M 0 0 L 10 5 L 0 10 Z" fill="#b86868" stroke="#b86868" stroke-width="0" stroke-dasharray="none" style="stroke-dasharray:none!important"/></marker>
  </defs>

  <rect x="24" y="24" width="1552" height="1052" rx="20" class="frame"/>
  <text x="800" y="78" text-anchor="middle" class="title">Hazelcast Group Slot Sequence</text>
  <text x="800" y="108" text-anchor="middle" class="subtitle">A group election tries bounded slots; the first acquired slot runs work and cleanup is token guarded.</text>

  <g>
    <rect x="55" y="150" width="150" height="68" rx="10" class="header"/>
    <text x="130" y="179" text-anchor="middle" class="participant">Worker</text>
    <text x="130" y="201" text-anchor="middle" class="role">caller thread</text>
    <rect x="290" y="150" width="200" height="68" rx="10" class="header"/>
    <text x="390" y="179" text-anchor="middle" class="participant">GroupElector</text>
    <text x="390" y="201" text-anchor="middle" class="role">maxLeaders</text>
    <rect x="555" y="150" width="190" height="68" rx="10" class="header"/>
    <text x="650" y="179" text-anchor="middle" class="participant">Slot Lock</text>
    <text x="650" y="201" text-anchor="middle" class="role">slot-N token</text>
    <rect x="825" y="150" width="210" height="68" rx="10" class="header"/>
    <text x="930" y="179" text-anchor="middle" class="participant">Group IMap</text>
    <text x="930" y="201" text-anchor="middle" class="role">slot keys</text>
    <rect x="1135" y="150" width="170" height="68" rx="10" class="header"/>
    <text x="1220" y="179" text-anchor="middle" class="participant">Action</text>
    <text x="1220" y="201" text-anchor="middle" class="role">protected work</text>
  </g>

  <line x1="130" y1="218" x2="130" y2="966" class="lifeline"/>
  <line x1="390" y1="218" x2="390" y2="966" class="lifeline"/>
  <line x1="650" y1="218" x2="650" y2="966" class="lifeline"/>
  <line x1="930" y1="218" x2="930" y2="966" class="lifeline"/>
  <line x1="1220" y1="218" x2="1220" y2="966" class="lifeline"/>
  <rect x="123" y="290" width="14" height="70" rx="6" class="activation"/>
  <rect x="383" y="290" width="14" height="590" rx="6" class="activation"/>
  <rect x="643" y="350" width="14" height="530" rx="6" class="activation"/>
  <rect x="923" y="422" width="14" height="458" rx="6" class="activation"/>
  <rect x="1213" y="646" width="14" height="72" rx="6" class="activation"/>

  <rect x="70" y="486" width="1478" height="300" rx="14" class="alt"/>
  <line x1="70" y1="806" x2="1548" y2="806" class="branchDivider"/>
  <rect x="96" y="504" width="208" height="30" rx="15" class="branchOk"/>
  <text x="118" y="524" class="note">alt slot acquired</text>
  <rect x="96" y="824" width="256" height="30" rx="15" class="branchSkip"/>
  <text x="118" y="844" class="note">else all slots occupied</text>

  <rect x="104" y="242" width="312" height="34" rx="17" class="label callLabel"/>
  <circle cx="128" cy="259" r="13" class="badge callBadge"/><text x="128" y="264" text-anchor="middle" class="badgeText callText">1</text>
  <text x="152" y="264" class="msg callText">runIfLeader(group, maxLeaders)</text>
  <path d="M 130 300 L 390 300" class="call"/>

  <rect x="384" y="312" width="272" height="34" rx="17" class="label slotLabel"/>
  <circle cx="408" cy="329" r="13" class="badge slotBadge"/><text x="408" y="334" text-anchor="middle" class="badgeText slotText">2</text>
  <text x="432" y="334" class="msg slotText">select candidate slot key</text>
  <path d="M 390 370 L 650 370" class="slot"/>

  <rect x="654" y="384" width="272" height="34" rx="17" class="label stateLabel"/>
  <circle cx="678" cy="401" r="13" class="badge stateBadge"/><text x="678" y="406" text-anchor="middle" class="badgeText stateText">3</text>
  <text x="702" y="406" class="msg stateText">trySetPermits(maxLeaders)</text>
  <path d="M 650 442 L 930 442" class="state"/>

  <rect x="642" y="458" width="296" height="34" rx="17" class="label stateLabel"/>
  <circle cx="666" cy="475" r="13" class="badge stateBadge"/><text x="666" y="480" text-anchor="middle" class="badgeText stateText">4</text>
  <text x="690" y="480" class="msg stateText">tryAcquire(slot lease token)</text>
  <path d="M 650 516 L 930 516" class="state"/>

  <rect x="670" y="532" width="240" height="34" rx="17" class="label returnLabel"/>
  <circle cx="694" cy="549" r="13" class="badge returnBadge"/><text x="694" y="554" text-anchor="middle" class="badgeText returnText">5</text>
  <text x="718" y="554" class="msg returnText">permitId for one slot</text>
  <path d="M 930 590 L 650 590" class="return"/>

  <rect x="661" y="608" width="288" height="34" rx="17" class="label callLabel"/>
  <circle cx="685" cy="625" r="13" class="badge callBadge"/><text x="685" y="630" text-anchor="middle" class="badgeText callText">6</text>
  <text x="709" y="630" class="msg callText">run action with slot handle</text>
  <path d="M 390 666 L 1220 666" class="call"/>

  <rect x="642" y="684" width="296" height="34" rx="17" class="label slotLabel"/>
  <circle cx="666" cy="701" r="13" class="badge slotBadge"/><text x="666" y="706" text-anchor="middle" class="badgeText slotText">7</text>
  <text x="690" y="706" class="msg slotText">release permit or retain TTL</text>
  <path d="M 650 742 L 930 742" class="slot"/>

  <rect x="686" y="800" width="208" height="34" rx="17" class="label skipLabel"/>
  <circle cx="710" cy="817" r="13" class="badge skipBadge"/><text x="710" y="822" text-anchor="middle" class="badgeText skipText">8</text>
  <text x="734" y="822" class="msg skipText">no slot available</text>
  <path d="M 930 858 L 650 858" class="skip"/>

  <rect x="435" y="864" width="170" height="34" rx="17" class="label skipLabel"/>
  <circle cx="459" cy="881" r="13" class="badge skipBadge"/><text x="459" y="886" text-anchor="middle" class="badgeText skipText">9</text>
  <text x="483" y="886" class="msg skipText">return null</text>
  <path d="M 650 922 L 390 922" class="skip"/>

  <rect x="98" y="986" width="1404" height="44" rx="12" fill="#ffffff" stroke="#ccd7da" stroke-width="2"/>
  <text x="118" y="1014" class="note">Each slot is independent: cleanup checks the slot token before deleting or extending the TTL.</text>
  <text x="800" y="1044" text-anchor="middle" class="footer">github.com/bluetape4k/bluetape4k-leader - leader-hazelcast-sequence-03</text>
</svg>
