<svg xmlns="http://www.w3.org/2000/svg" width="1864" height="1803" viewBox="0 0 1864 1803" role="img" aria-label="leader redis lettuce Class Structure">
<defs>
  <filter id="shadow" x="-8%" y="-8%" width="116%" height="116%"><feDropShadow dx="0" dy="8" stdDeviation="9" flood-color="#1f2937" flood-opacity="0.10"/></filter>
  <marker id="openArrow" markerWidth="10" markerHeight="8" refX="8.5" refY="4" orient="auto" markerUnits="strokeWidth"><path d="M 1 1 L 8.5 4 L 1 7" fill="none" stroke="#758297" stroke-width="1.7" stroke-linecap="round" stroke-linejoin="round"/></marker>
  <marker id="inherit" markerWidth="11" markerHeight="10" refX="9.5" refY="5" orient="auto" markerUnits="strokeWidth"><path d="M 0.5 1 L 9.5 5 L 0.5 9 Z" fill="#ffffff" stroke="#758297" stroke-width="1.7"/></marker>
  <style>
    .canvas{fill:#f7f9fc}.frame{fill:#fff;stroke:#d8e0ea;stroke-width:1.5}
    .title{font-family:"Architects Daughter","Comic Sans MS","Comic Sans",cursive;font-size:43px;font-weight:400;fill:#102033}
    .subtitle{font-family:"Comic Sans MS","Comic Sans","Comic Neue",Arial,sans-serif;font-size:15px;font-weight:400;fill:#536273}
    .label{font-family:"Architects Daughter","Comic Sans MS","Comic Sans",cursive;font-size:25px;font-weight:400;fill:#102033}
    .smallLabel{font-family:"Architects Daughter","Comic Sans MS","Comic Sans",cursive;font-size:21px;font-weight:400;fill:#102033}
    .mono{font-family:"Comic Sans MS","Comic Sans","Comic Neue",Arial,sans-serif;font-size:12px;font-weight:400;fill:#102033}
    .small{font-family:"Comic Sans MS","Comic Sans","Comic Neue",Arial,sans-serif;font-size:12px;font-weight:400;fill:#536273}
    .strong{font-family:"Comic Sans MS","Comic Sans","Comic Neue",Arial,sans-serif;font-size:13px;font-weight:400;fill:#102033}
    .card{stroke-width:2.1;filter:url(#shadow)}.compartment{stroke-width:1.5;fill:none}
    .line{stroke:#758297;stroke-width:2.1;fill:none;marker-end:url(#openArrow)}
    .plainLine{stroke:#758297;stroke-width:2.1;fill:none}
    .dashed{stroke:#758297;stroke-width:2.1;stroke-dasharray:7 6;fill:none;marker-end:url(#openArrow)}
    .inheritLine{stroke:#758297;stroke-width:2.2;fill:none;marker-end:url(#inherit)}
    .implLine{stroke:#758297;stroke-width:2.2;stroke-dasharray:8 7;fill:none;marker-end:url(#inherit)}
  </style>
</defs>
<rect class="canvas" width="1864" height="1803"/>
<rect class="frame" x="32" y="28" width="1800" height="1747" rx="28"/>
<text class="title" x="66" y="82">leader redis lettuce Class Structure</text>
<text class="subtitle" x="70" y="118">UML classes from the original Mermaid source</text>
<path class="line" d="M932 1141 L932 711 L1153 711 L1153 651"/>
<path class="line" d="M1374 308 L1374 416 L269 416 L269 476"/>
<path class="line" d="M490 308 L490 408 L1153 408 L1153 476"/>
<path class="line" d="M932 292 L932 743 L711 743 L711 819"/>
<path class="implLine" d="M932 1269 L932 1437"/>
<path class="implLine" d="M1374 308 L1374 727 L1153 727 L1153 819"/>
<path class="implLine" d="M490 308 L490 376 L711 376 L711 476"/>
<path class="implLine" d="M932 292 L932 368 L1595 368 L1595 476"/>
<g transform="translate(325,180)">
  <rect class="card" x="0" y="0" width="330" height="128" rx="5" fill="#E8F3FF" stroke="#5B8DEF"/>
  <line class="compartment" x1="0" y1="94" x2="330" y2="94" stroke="#5B8DEF"/>
  <text class="small" x="165" y="26" text-anchor="middle"></text>
  <text class="label" x="165" y="56.5" text-anchor="middle">Lettuce Leader Group</text>
<text class="label" x="165" y="81.5" text-anchor="middle">Elector</text>

</g>
<g transform="translate(767,180)">
  <rect class="card" x="0" y="0" width="330" height="112" rx="5" fill="#EAF7EF" stroke="#58A978"/>
  <line class="compartment" x1="0" y1="78" x2="330" y2="78" stroke="#58A978"/>
  <text class="small" x="165" y="26" text-anchor="middle"></text>
  <text class="label" x="165" y="61" text-anchor="middle">LettuceLeaderElector</text>

</g>
<g transform="translate(1209,180)">
  <rect class="card" x="0" y="0" width="330" height="128" rx="5" fill="#FFF3D9" stroke="#D6A441"/>
  <line class="compartment" x1="0" y1="94" x2="330" y2="94" stroke="#D6A441"/>
  <text class="small" x="165" y="26" text-anchor="middle"></text>
  <text class="label" x="165" y="56.5" text-anchor="middle">Lettuce Suspend Leader</text>
<text class="label" x="165" y="81.5" text-anchor="middle">Elector</text>

</g>
<g transform="translate(104,476)">
  <rect class="card" x="0" y="0" width="330" height="154" rx="5" fill="#FDECEF" stroke="#DC6B82"/>
  <line class="compartment" x1="0" y1="78" x2="330" y2="78" stroke="#DC6B82"/>
  <text class="small" x="165" y="26" text-anchor="middle"></text>
  <text class="label" x="165" y="61" text-anchor="middle">LettuceSuspendLock</text>
  <text class="mono" x="18" y="108">+tryLock(key, value, ttl) Boolean</text>
<text class="mono" x="18" y="129">+unlock(key, value)</text>
</g>
<g transform="translate(546,476)">
  <rect class="card" x="0" y="0" width="330" height="112" rx="5" fill="#E9F7F6" stroke="#45A7A1"/>
  <line class="compartment" x1="0" y1="78" x2="330" y2="78" stroke="#45A7A1"/>
  <text class="small" x="165" y="26" text-anchor="middle">«interface»</text>
  <text class="label" x="165" y="61" text-anchor="middle">LeaderGroupElector</text>

</g>
<g transform="translate(988,476)">
  <rect class="card" x="0" y="0" width="330" height="175" rx="5" fill="#F1ECFF" stroke="#8A72D6"/>
  <line class="compartment" x1="0" y1="78" x2="330" y2="78" stroke="#8A72D6"/>
  <text class="small" x="165" y="26" text-anchor="middle"></text>
  <text class="label" x="165" y="61" text-anchor="middle">LettuceSlotTokenGroup</text>
  <text class="mono" x="18" y="108">+tryAcquire(waitTime, leaseTime) String?</text>
<text class="mono" x="18" y="129">+release(token, remainingMinLeaseMs)</text>
<text class="mono" x="18" y="150">+activeCount() Int</text>
</g>
<g transform="translate(1430,476)">
  <rect class="card" x="0" y="0" width="330" height="112" rx="5" fill="#F7F1E7" stroke="#B88A44"/>
  <line class="compartment" x1="0" y1="78" x2="330" y2="78" stroke="#B88A44"/>
  <text class="small" x="165" y="26" text-anchor="middle">«interface»</text>
  <text class="label" x="165" y="61" text-anchor="middle">LeaderElector</text>

</g>
<g transform="translate(546,819)">
  <rect class="card" x="0" y="0" width="330" height="154" rx="5" fill="#EEF6D9" stroke="#8BA84D"/>
  <line class="compartment" x1="0" y1="78" x2="330" y2="78" stroke="#8BA84D"/>
  <text class="small" x="165" y="26" text-anchor="middle"></text>
  <text class="label" x="165" y="61" text-anchor="middle">LettuceLock</text>
  <text class="mono" x="18" y="108">+tryLock(key, value, ttl) Boolean</text>
<text class="mono" x="18" y="129">+unlock(key, value)</text>
</g>
<g transform="translate(988,819)">
  <rect class="card" x="0" y="0" width="330" height="112" rx="5" fill="#E8F3FF" stroke="#5B8DEF"/>
  <line class="compartment" x1="0" y1="78" x2="330" y2="78" stroke="#5B8DEF"/>
  <text class="small" x="165" y="26" text-anchor="middle">«interface»</text>
  <text class="label" x="165" y="61" text-anchor="middle">SuspendLeaderElector</text>

</g>
<g transform="translate(767,1141)">
  <rect class="card" x="0" y="0" width="330" height="128" rx="5" fill="#EAF7EF" stroke="#58A978"/>
  <line class="compartment" x1="0" y1="94" x2="330" y2="94" stroke="#58A978"/>
  <text class="small" x="165" y="26" text-anchor="middle"></text>
  <text class="label" x="165" y="56.5" text-anchor="middle">Lettuce Suspend Leader</text>
<text class="label" x="165" y="81.5" text-anchor="middle">Group Elector</text>

</g>
<g transform="translate(767,1437)">
  <rect class="card" x="0" y="0" width="330" height="128" rx="5" fill="#FFF3D9" stroke="#D6A441"/>
  <line class="compartment" x1="0" y1="94" x2="330" y2="94" stroke="#D6A441"/>
  <text class="small" x="165" y="26" text-anchor="middle">«interface»</text>
  <text class="label" x="165" y="56.5" text-anchor="middle">Suspend Leader Group</text>
<text class="label" x="165" y="81.5" text-anchor="middle">Elector</text>

</g>
</svg>
