<?xml version="1.0" encoding="UTF-8" standalone="no"?>
<!DOCTYPE svg PUBLIC "-//W3C//DTD SVG 1.1//EN"
 "http://www.w3.org/Graphics/SVG/1.1/DTD/svg11.dtd">
<!-- Generated by graphviz version 15.0.0 (20260523.1842)
 -->
<!-- Title: readme&#45;table&#45;relationships&#45;erd&#45;01 Pages: 1 -->
<svg width="1035pt" height="219pt"
 viewBox="0.00 0.00 1035.00 219.00" xmlns="http://www.w3.org/2000/svg" xmlns:xlink="http://www.w3.org/1999/xlink">
<g id="graph0" class="graph" transform="scale(1 1) rotate(0) translate(4 215)">
<title>readme&#45;table&#45;relationships&#45;erd&#45;01</title>
<!-- modules -->
<g id="node1" class="node">
<title>modules</title>
<path fill="#f8fafc" stroke="#94a3b8" d="M94,-73C94,-73 12,-73 12,-73 6,-73 0,-67 0,-61 0,-61 0,-49 0,-49 0,-43 6,-37 12,-37 12,-37 94,-37 94,-37 100,-37 106,-43 106,-49 106,-49 106,-61 106,-61 106,-67 100,-73 94,-73"/>
<text xml:space="preserve" text-anchor="middle" x="53" y="-49.58" font-family="Comic Mono" font-size="14.00">Module table</text>
</g>
<!-- backends -->
<g id="node2" class="node">
<title>backends</title>
<path fill="#f8fafc" stroke="#94a3b8" d="M408.5,-134C408.5,-134 236.5,-134 236.5,-134 230.5,-134 224.5,-128 224.5,-122 224.5,-122 224.5,-110 224.5,-110 224.5,-104 230.5,-98 236.5,-98 236.5,-98 408.5,-98 408.5,-98 414.5,-98 420.5,-104 420.5,-110 420.5,-110 420.5,-122 420.5,-122 420.5,-128 414.5,-134 408.5,-134"/>
<text xml:space="preserve" text-anchor="middle" x="322.5" y="-110.58" font-family="Comic Mono" font-size="14.00">Backend capability table</text>
</g>
<!-- modules&#45;&gt;backends -->
<g id="edge1" class="edge">
<title>modules&#45;&gt;backends</title>
<path fill="none" stroke="#758297" d="M53.25,-73.3C53.25,-91.27 53.25,-116 53.25,-116 53.25,-116 212.64,-116 212.64,-116"/>
<polygon fill="#758297" stroke="#758297" points="212.64,-119.5 222.64,-116 212.64,-112.5 212.64,-119.5"/>
<text xml:space="preserve" text-anchor="middle" x="165.25" y="-101.5" font-family="Comic Mono" font-size="10.00">dependency</text>
</g>
<!-- benchmarks -->
<g id="node4" class="node">
<title>benchmarks</title>
<path fill="#f8fafc" stroke="#94a3b8" d="M570,-36C570,-36 465.5,-36 465.5,-36 459.5,-36 453.5,-30 453.5,-24 453.5,-24 453.5,-12 453.5,-12 453.5,-6 459.5,0 465.5,0 465.5,0 570,0 570,0 576,0 582,-6 582,-12 582,-12 582,-24 582,-24 582,-30 576,-36 570,-36"/>
<text xml:space="preserve" text-anchor="middle" x="517.75" y="-12.57" font-family="Comic Mono" font-size="14.00">Benchmark table</text>
</g>
<!-- modules&#45;&gt;benchmarks -->
<g id="edge3" class="edge">
<title>modules&#45;&gt;benchmarks</title>
<path fill="none" stroke="#758297" d="M53.25,-36.5C53.25,-27.25 53.25,-18 53.25,-18 53.25,-18 441.65,-18 441.65,-18"/>
<polygon fill="#758297" stroke="#758297" points="441.65,-21.5 451.65,-18 441.65,-14.5 441.65,-21.5"/>
<text xml:space="preserve" text-anchor="middle" x="165.25" y="-25.5" font-family="Comic Mono" font-size="10.00">metric</text>
</g>
<!-- examples -->
<g id="node3" class="node">
<title>examples</title>
<path fill="#f8fafc" stroke="#94a3b8" d="M716.5,-211C716.5,-211 627,-211 627,-211 621,-211 615,-205 615,-199 615,-199 615,-187 615,-187 615,-181 621,-175 627,-175 627,-175 716.5,-175 716.5,-175 722.5,-175 728.5,-181 728.5,-187 728.5,-187 728.5,-199 728.5,-199 728.5,-205 722.5,-211 716.5,-211"/>
<text xml:space="preserve" text-anchor="middle" x="671.75" y="-187.57" font-family="Comic Mono" font-size="14.00">Example table</text>
</g>
<!-- backends&#45;&gt;examples -->
<g id="edge2" class="edge">
<title>backends&#45;&gt;examples</title>
<path fill="none" stroke="#758297" d="M420.84,-119.6C518.34,-119.6 653.25,-119.6 653.25,-119.6 653.25,-119.6 653.25,-163.34 653.25,-163.34"/>
<polygon fill="#758297" stroke="#758297" points="649.75,-163.34 653.25,-173.34 656.75,-163.34 649.75,-163.34"/>
<text xml:space="preserve" text-anchor="middle" x="517.75" y="-194.5" font-family="Comic Mono" font-size="10.00">call</text>
</g>
<!-- assets -->
<g id="node5" class="node">
<title>assets</title>
<path fill="#f8fafc" stroke="#94a3b8" d="M1015.25,-134C1015.25,-134 843.25,-134 843.25,-134 837.25,-134 831.25,-128 831.25,-122 831.25,-122 831.25,-110 831.25,-110 831.25,-104 837.25,-98 843.25,-98 843.25,-98 1015.25,-98 1015.25,-98 1021.25,-98 1027.25,-104 1027.25,-110 1027.25,-110 1027.25,-122 1027.25,-122 1027.25,-128 1021.25,-134 1015.25,-134"/>
<text xml:space="preserve" text-anchor="middle" x="929.25" y="-110.58" font-family="Comic Mono" font-size="14.00">Diagram and chart assets</text>
</g>
<!-- backends&#45;&gt;assets -->
<g id="edge6" class="edge">
<title>backends&#45;&gt;assets</title>
<path fill="none" stroke="#758297" d="M421,-112.4C421,-112.4 819.33,-112.4 819.33,-112.4"/>
<polygon fill="#758297" stroke="#758297" points="819.33,-115.9 829.33,-112.4 819.33,-108.9 819.33,-115.9"/>
<text xml:space="preserve" text-anchor="middle" x="671.75" y="-118.5" font-family="Comic Mono" font-size="10.00">dependency</text>
</g>
<!-- examples&#45;&gt;assets -->
<g id="edge5" class="edge">
<title>examples&#45;&gt;assets</title>
<path fill="none" stroke="#758297" d="M690.25,-174.56C690.25,-154.97 690.25,-126.8 690.25,-126.8 690.25,-126.8 819.49,-126.8 819.49,-126.8"/>
<polygon fill="#758297" stroke="#758297" points="819.49,-130.3 829.49,-126.8 819.49,-123.3 819.49,-130.3"/>
<text xml:space="preserve" text-anchor="middle" x="779.88" y="-194.5" font-family="Comic Mono" font-size="10.00">success</text>
</g>
<!-- benchmarks&#45;&gt;assets -->
<g id="edge4" class="edge">
<title>benchmarks&#45;&gt;assets</title>
<path fill="none" stroke="#758297" d="M517.25,-36.49C517.25,-62.09 517.25,-105.2 517.25,-105.2 517.25,-105.2 819.31,-105.2 819.31,-105.2"/>
<polygon fill="#758297" stroke="#758297" points="819.31,-108.7 829.31,-105.2 819.31,-101.7 819.31,-108.7"/>
<text xml:space="preserve" text-anchor="middle" x="671.75" y="-12.5" font-family="Comic Mono" font-size="10.00">metric</text>
</g>
</g>
</svg>
