<?xml version="1.0" encoding="UTF-8" standalone="no"?>
<!DOCTYPE svg PUBLIC "-//W3C//DTD SVG 1.1//EN"
 "http://www.w3.org/Graphics/SVG/1.1/DTD/svg11.dtd">
<!-- Generated by graphviz version 15.0.0 (20260523.1842)
 -->
<!-- Title: readme&#45;table&#45;relationships&#45;erd&#45;01 Pages: 1 -->
<svg width="1256pt" height="616pt"
 viewBox="0.00 0.00 1256.00 616.00" xmlns="http://www.w3.org/2000/svg" xmlns:xlink="http://www.w3.org/1999/xlink">
<g id="graph0" class="graph" transform="scale(1 1) rotate(0) translate(4 612.42)">
<title>readme&#45;table&#45;relationships&#45;erd&#45;01</title>
<text xml:space="preserve" text-anchor="middle" x="623.88" y="-591.12" font-family="Times,serif" font-size="14.00">README table relationship ERD</text>
<!-- n0&#45;&gt;r1p1 -->
<g id="edge1" class="edge">
<title>n0&#45;&gt;r1p1</title>
<path fill="none" stroke="#758297" stroke-width="1.8" d="M330.01,-471C354.37,-471 373.13,-471 378.39,-471"/>
</g>
<!-- n0&#45;&gt;r3p1 -->
<g id="edge7" class="edge">
<title>n0&#45;&gt;r3p1</title>
<path fill="none" stroke="#758297" stroke-width="1.8" d="M330.02,-403C357.78,-403 377.8,-403 377.8,-403 377.8,-403 377.8,-335.83 377.8,-325.33"/>
</g>
<!-- n1&#45;&gt;r2p1 -->
<g id="edge4" class="edge">
<title>n1&#45;&gt;r2p1</title>
<path fill="none" stroke="#758297" stroke-width="1.8" d="M798.2,-451C825.77,-451 847.08,-451 852.52,-451"/>
</g>
<!-- n2&#45;&gt;r4p1 -->
<g id="edge10" class="edge">
<title>n2&#45;&gt;r4p1</title>
<path fill="none" stroke="#758297" stroke-width="1.8" d="M798.23,-136C826.69,-136 848.81,-136 854.47,-136"/>
</g>
<!-- r1p1&#45;&gt;r1p2 -->
<g id="edge2" class="edge">
<title>r1p1&#45;&gt;r1p2</title>
<path fill="none" stroke="#758297" stroke-width="1.8" d="M379.88,-472.35C379.88,-476.07 379.88,-486 379.88,-486 379.88,-486 393.6,-486 398.31,-486"/>
</g>
<!-- r1p2&#45;&gt;n1 -->
<g id="edge3" class="edge">
<title>r1p2&#45;&gt;n1</title>
<path fill="none" stroke="#758297" stroke-width="1.8" d="M401.31,-486C401.31,-486 438.87,-486 438.87,-486"/>
<polygon fill="#758297" stroke="#758297" stroke-width="1.8" points="438.87,-488.8 446.87,-486 438.87,-483.2 438.87,-488.8"/>
</g>
<!-- r2p1&#45;&gt;r2p2 -->
<g id="edge5" class="edge">
<title>r2p1&#45;&gt;r2p2</title>
<path fill="none" stroke="#758297" stroke-width="1.8" d="M854.88,-449.9C854.88,-443.28 854.88,-408 854.88,-408 854.88,-408 861.59,-408 864.53,-408"/>
</g>
<!-- r2p2&#45;&gt;n3 -->
<g id="edge6" class="edge">
<title>r2p2&#45;&gt;n3</title>
<path fill="none" stroke="#758297" stroke-width="1.8" d="M867.27,-408C867.27,-408 906.96,-408 906.96,-408"/>
<polygon fill="#758297" stroke="#758297" stroke-width="1.8" points="906.96,-410.8 914.96,-408 906.96,-405.2 906.96,-410.8"/>
</g>
<!-- r3p1&#45;&gt;r3p2 -->
<g id="edge8" class="edge">
<title>r3p1&#45;&gt;r3p2</title>
<path fill="none" stroke="#758297" stroke-width="1.8" d="M377.88,-322.51C377.88,-306.09 377.88,-156 377.88,-156 377.88,-156 393.54,-156 398.44,-156"/>
</g>
<!-- r3p2&#45;&gt;n2 -->
<g id="edge9" class="edge">
<title>r3p2&#45;&gt;n2</title>
<path fill="none" stroke="#758297" stroke-width="1.8" d="M401.31,-156C401.31,-156 438.87,-156 438.87,-156"/>
<polygon fill="#758297" stroke="#758297" stroke-width="1.8" points="438.87,-158.8 446.87,-156 438.87,-153.2 438.87,-158.8"/>
</g>
<!-- r4p1&#45;&gt;r4p2 -->
<g id="edge11" class="edge">
<title>r4p1&#45;&gt;r4p2</title>
<path fill="none" stroke="#758297" stroke-width="1.8" d="M857.44,-136C860.25,-136 865.88,-136 865.88,-136 865.88,-136 865.88,-186.89 865.88,-196.43"/>
</g>
<!-- r4p2&#45;&gt;n3 -->
<g id="edge12" class="edge">
<title>r4p2&#45;&gt;n3</title>
<path fill="none" stroke="#758297" stroke-width="1.8" d="M867.27,-198C867.27,-198 906.96,-198 906.96,-198"/>
<polygon fill="#758297" stroke="#758297" stroke-width="1.8" points="906.96,-200.8 914.96,-198 906.96,-195.2 906.96,-200.8"/>
</g>
<!-- n0 -->
<g id="node1" class="node">
<title>n0</title>
<path fill="#ffffff" stroke="#75a9e8" d="M317.76,-556.12C317.76,-556.12 12,-556.12 12,-556.12 6,-556.12 0,-550.12 0,-544.12 0,-544.12 0,-347.8 0,-347.8 0,-341.8 6,-335.8 12,-335.8 12,-335.8 317.76,-335.8 317.76,-335.8 323.76,-335.8 329.76,-341.8 329.76,-347.8 329.76,-347.8 329.76,-544.12 329.76,-544.12 329.76,-550.12 323.76,-556.12 317.76,-556.12"/>
<text xml:space="preserve" text-anchor="middle" x="164.88" y="-441.61" font-family="Architects Daughter" font-size="18.00">Module Catalog</text>
</g>
<!-- n1 -->
<g id="node2" class="node">
<title>n1</title>
<path fill="#ffffff" stroke="#d9aa4d" d="M785.76,-573.96C785.76,-573.96 462,-573.96 462,-573.96 456,-573.96 450,-567.96 450,-561.96 450,-561.96 450,-315.96 450,-315.96 450,-309.96 456,-303.96 462,-303.96 462,-303.96 785.76,-303.96 785.76,-303.96 791.76,-303.96 797.76,-309.96 797.76,-315.96 797.76,-315.96 797.76,-561.96 797.76,-561.96 797.76,-567.96 791.76,-573.96 785.76,-573.96"/>
<text xml:space="preserve" text-anchor="middle" x="623.88" y="-434.61" font-family="Architects Daughter" font-size="18.00">Backend Capability</text>
</g>
<!-- n2 -->
<g id="node3" class="node">
<title>n2</title>
<path fill="#ffffff" stroke="#db7890" d="M785.76,-230C785.76,-230 462,-230 462,-230 456,-230 450,-224 450,-218 450,-218 450,-51.92 450,-51.92 450,-45.92 456,-39.92 462,-39.92 462,-39.92 785.76,-39.92 785.76,-39.92 791.76,-39.92 797.76,-45.92 797.76,-51.92 797.76,-51.92 797.76,-218 797.76,-218 797.76,-224 791.76,-230 785.76,-230"/>
<text xml:space="preserve" text-anchor="middle" x="623.88" y="-130.61" font-family="Architects Daughter" font-size="18.00">Integration Surface</text>
</g>
<!-- n3 -->
<g id="node4" class="node">
<title>n3</title>
<path fill="#ffffff" stroke="#55b5af" d="M1235.76,-583.92C1235.76,-583.92 930,-583.92 930,-583.92 924,-583.92 918,-577.92 918,-571.92 918,-571.92 918,-12 918,-12 918,-6 924,0 930,0 930,0 1235.76,0 1235.76,0 1241.76,0 1247.76,-6 1247.76,-12 1247.76,-12 1247.76,-571.92 1247.76,-571.92 1247.76,-577.92 1241.76,-583.92 1235.76,-583.92"/>
<text xml:space="preserve" text-anchor="middle" x="1082.88" y="-287.61" font-family="Architects Daughter" font-size="18.00">Runnable Example</text>
</g>
<!-- r1p1 -->
<!-- r1p2 -->
<!-- r2p1 -->
<!-- r2p2 -->
<!-- r3p1 -->
<!-- r3p2 -->
<!-- r4p1 -->
<!-- r4p2 -->
</g>
</svg>
