<svg xmlns="http://www.w3.org/2000/svg" width="1400" height="900" viewBox="0 0 1400 900" role="img" aria-labelledby="title desc">
  <metadata id="graphviz-evidence">Regenerated with Graphviz evidence: root-readme-overview-01.dot, root-readme-overview-01.plain, root-readme-overview-01-graphviz.svg via scripts/regenerate-readme-diagram-graphviz-evidence.mjs.</metadata>
  <title id="title">Bluetape4k Leader module map</title>
  <desc id="desc">Current repository module map covering core APIs, backend modules, preview backends, Ktor, Metrics, Spring, examples, and BOM.</desc>
  <defs>
    <filter id="shadow" x="-8%" y="-8%" width="116%" height="116%">
      <feDropShadow dx="0" dy="5" stdDeviation="6" flood-color="#203040" flood-opacity="0.09"/>
    </filter>
    <style>
      .canvas{fill:#F6F9FC}
      .frame{fill:#FFFFFF;stroke:#D7E2EC;stroke-width:2}
      .group{filter:url(#shadow);stroke-width:2}
      .title{font-family:"Architects Daughter","Comic Mono","Comic Sans MS","Comic Sans",cursive;font-size:42px;fill:#22344A;font-weight:400}
      .subtitle{font-family:"Comic Mono","Comic Sans MS","Comic Sans","Comic Neue",Arial,sans-serif;font-size:17px;fill:#536476;font-weight:400}
      .gtitle{font-family:"Architects Daughter","Comic Mono","Comic Sans MS","Comic Sans",cursive;font-size:24px;fill:#22344A;font-weight:400}
      .label{font-family:"Comic Mono","Comic Sans MS","Comic Sans","Comic Neue",Arial,sans-serif;font-size:14px;fill:#34465B;font-weight:400}
      .small{font-family:"Comic Mono","Comic Sans MS","Comic Sans","Comic Neue",Arial,sans-serif;font-size:13px;fill:#627184;font-weight:400}
      .chip{fill:#FFFFFF;opacity:0.78;stroke:#D7E2EC}
    </style>
  </defs>
  <rect class="canvas" width="1400" height="900"/>
  <rect class="frame" x="36" y="28" width="1328" height="844" rx="24"/>

  <text class="title" x="72" y="82">Bluetape4k Leader module map</text>
  <text class="subtitle" x="76" y="114">Source-checked module map for APIs, backends, integrations, examples, and release BOM.</text>

  <g transform="translate(76,145)">
    <rect class="group" x="0" y="0" width="300" height="116" rx="14" fill="#EAF7EF" stroke="#69B888"/>
    <text class="gtitle" x="150" y="36" text-anchor="middle">BOM</text>
    <rect class="chip" x="22" y="55" width="256" height="28" rx="7"/>
    <text class="label" x="150" y="69" text-anchor="middle" dominant-baseline="middle">leader-bom</text>
  </g>

  <g transform="translate(410,145)">
    <rect class="group" x="0" y="0" width="374" height="144" rx="14" fill="#E8F3FF" stroke="#75A9E8"/>
    <text class="gtitle" x="187" y="36" text-anchor="middle">Core APIs</text>
    <rect class="chip" x="24" y="55" width="326" height="28" rx="7"/>
    <text class="label" x="187" y="69" text-anchor="middle" dominant-baseline="middle">leader-core</text>
    <rect class="chip" x="24" y="91" width="326" height="28" rx="7"/>
    <text class="label" x="187" y="105" text-anchor="middle" dominant-baseline="middle">leader-exposed-core</text>
  </g>

  <g transform="translate(818,145)">
    <rect class="group" x="0" y="0" width="506" height="292" rx="14" fill="#FFF3D9" stroke="#D9AA4D"/>
    <text class="gtitle" x="253" y="36" text-anchor="middle">Backend Modules</text>
    <rect class="chip" x="28" y="55" width="210" height="28" rx="7"/>
    <text class="label" x="133" y="69" text-anchor="middle" dominant-baseline="middle">leader-redis-lettuce</text>
    <rect class="chip" x="268" y="55" width="210" height="28" rx="7"/>
    <text class="label" x="373" y="69" text-anchor="middle" dominant-baseline="middle">leader-redis-redisson</text>
    <rect class="chip" x="28" y="93" width="210" height="28" rx="7"/>
    <text class="label" x="133" y="107" text-anchor="middle" dominant-baseline="middle">leader-exposed-jdbc</text>
    <rect class="chip" x="268" y="93" width="210" height="28" rx="7"/>
    <text class="label" x="373" y="107" text-anchor="middle" dominant-baseline="middle">leader-exposed-r2dbc</text>
    <rect class="chip" x="28" y="131" width="210" height="28" rx="7"/>
    <text class="label" x="133" y="145" text-anchor="middle" dominant-baseline="middle">leader-mongodb</text>
    <rect class="chip" x="268" y="131" width="210" height="28" rx="7"/>
    <text class="label" x="373" y="145" text-anchor="middle" dominant-baseline="middle">leader-hazelcast</text>
    <rect class="chip" x="148" y="169" width="210" height="28" rx="7"/>
    <text class="label" x="253" y="183" text-anchor="middle" dominant-baseline="middle">leader-zookeeper</text>
    <text class="small" x="253" y="235" text-anchor="middle">Redis, Exposed, MongoDB,</text>
    <text class="small" x="253" y="254" text-anchor="middle">Hazelcast, and ZooKeeper backends.</text>
  </g>

  <g transform="translate(76,322)">
    <rect class="group" x="0" y="0" width="708" height="154" rx="14" fill="#F6EBFF" stroke="#A982DA"/>
    <text class="gtitle" x="354" y="36" text-anchor="middle">Preview Backends</text>
    <rect class="chip" x="30" y="55" width="300" height="28" rx="7"/>
    <text class="label" x="180" y="69" text-anchor="middle" dominant-baseline="middle">leader-dynamodb</text>
    <rect class="chip" x="378" y="55" width="300" height="28" rx="7"/>
    <text class="label" x="528" y="69" text-anchor="middle" dominant-baseline="middle">leader-etcd</text>
    <rect class="chip" x="30" y="93" width="300" height="28" rx="7"/>
    <text class="label" x="180" y="107" text-anchor="middle" dominant-baseline="middle">leader-consul</text>
    <rect class="chip" x="378" y="93" width="300" height="28" rx="7"/>
    <text class="label" x="528" y="107" text-anchor="middle" dominant-baseline="middle">leader-k8s</text>
  </g>

  <g transform="translate(76,510)">
    <rect class="group" x="0" y="0" width="558" height="154" rx="14" fill="#FDECEF" stroke="#DB7890"/>
    <text class="gtitle" x="279" y="36" text-anchor="middle">Ktor, Metrics, Spring</text>
    <rect class="chip" x="28" y="62" width="154" height="28" rx="7"/>
    <text class="label" x="105" y="76" text-anchor="middle" dominant-baseline="middle">leader-ktor</text>
    <rect class="chip" x="202" y="62" width="154" height="28" rx="7"/>
    <text class="label" x="279" y="76" text-anchor="middle" dominant-baseline="middle">leader-micrometer</text>
    <rect class="chip" x="376" y="62" width="154" height="28" rx="7"/>
    <text class="label" x="453" y="76" text-anchor="middle" dominant-baseline="middle">leader-spring-boot</text>
    <text class="small" x="279" y="124" text-anchor="middle">Ktor scheduling, metrics, and Spring Boot 4 auto-configuration.</text>
  </g>

  <g transform="translate(668,510)">
    <rect class="group" x="0" y="0" width="656" height="286" rx="14" fill="#E9F7F6" stroke="#55B5AF"/>
    <text class="gtitle" x="328" y="36" text-anchor="middle">Examples</text>
    <rect class="chip" x="30" y="55" width="280" height="28" rx="7"/>
    <text class="label" x="170" y="69" text-anchor="middle" dominant-baseline="middle">batch-scheduler</text>
    <rect class="chip" x="346" y="55" width="280" height="28" rx="7"/>
    <text class="label" x="486" y="69" text-anchor="middle" dominant-baseline="middle">cache-warmer</text>
    <rect class="chip" x="30" y="93" width="280" height="28" rx="7"/>
    <text class="label" x="170" y="107" text-anchor="middle" dominant-baseline="middle">ktor-app</text>
    <rect class="chip" x="346" y="93" width="280" height="28" rx="7"/>
    <text class="label" x="486" y="107" text-anchor="middle" dominant-baseline="middle">migration-gate</text>
    <rect class="chip" x="30" y="131" width="280" height="28" rx="7"/>
    <text class="label" x="170" y="145" text-anchor="middle" dominant-baseline="middle">prometheus-dashboard</text>
    <rect class="chip" x="346" y="131" width="280" height="28" rx="7"/>
    <text class="label" x="486" y="145" text-anchor="middle" dominant-baseline="middle">webhook-poller</text>
    <rect class="chip" x="30" y="169" width="280" height="28" rx="7"/>
    <text class="label" x="170" y="183" text-anchor="middle" dominant-baseline="middle">tenant-aggregator</text>
    <rect class="chip" x="346" y="169" width="280" height="28" rx="7"/>
    <text class="label" x="486" y="183" text-anchor="middle" dominant-baseline="middle">k8s-lease</text>
    <rect class="chip" x="30" y="207" width="280" height="28" rx="7"/>
    <text class="label" x="170" y="221" text-anchor="middle" dominant-baseline="middle">k8s-operator</text>
    <rect class="chip" x="346" y="207" width="280" height="28" rx="7"/>
    <text class="label" x="486" y="221" text-anchor="middle" dominant-baseline="middle">rate-limiter</text>
  </g>

  <text class="small" x="700" y="842" text-anchor="middle">Image labels enumerate the current modules and examples.</text>
</svg>
