<?xml version="1.0" encoding="UTF-8" standalone="no"?>
<!DOCTYPE svg PUBLIC "-//W3C//DTD SVG 1.1//EN"
 "http://www.w3.org/Graphics/SVG/1.1/DTD/svg11.dtd">
<!-- Generated by graphviz version 15.0.0 (20260523.1842)
 -->
<!-- Title: root&#45;readme&#45;overview&#45;01 Pages: 1 -->
<svg width="1256pt" height="684pt"
 viewBox="0.00 0.00 1256.00 684.00" xmlns="http://www.w3.org/2000/svg" xmlns:xlink="http://www.w3.org/1999/xlink">
<g id="graph0" class="graph" transform="scale(1 1) rotate(0) translate(4 679.58)">
<title>root&#45;readme&#45;overview&#45;01</title>
<text xml:space="preserve" text-anchor="middle" x="624.1" y="-658.28" font-family="Times,serif" font-size="14.00">Bluetape4k Leader module map</text>
<!-- n0 -->
<g id="node1" class="node">
<title>n0</title>
<path fill="#ffffff" stroke="#69b888" d="M288.24,-650.88C288.24,-650.88 12,-650.88 12,-650.88 6,-650.88 0,-644.88 0,-638.88 0,-638.88 0,-546.96 0,-546.96 0,-540.96 6,-534.96 12,-534.96 12,-534.96 288.24,-534.96 288.24,-534.96 294.24,-534.96 300.24,-540.96 300.24,-546.96 300.24,-546.96 300.24,-638.88 300.24,-638.88 300.24,-644.88 294.24,-650.88 288.24,-650.88"/>
<text xml:space="preserve" text-anchor="middle" x="150.12" y="-588.57" font-family="Architects Daughter" font-size="18.00">BOM</text>
</g>
<!-- n1 -->
<g id="node2" class="node">
<title>n1</title>
<path fill="#ffffff" stroke="#75a9e8" d="M695.96,-650.92C695.96,-650.92 346.28,-650.92 346.28,-650.92 340.28,-650.92 334.28,-644.92 334.28,-638.92 334.28,-638.92 334.28,-518.92 334.28,-518.92 334.28,-512.92 340.28,-506.92 346.28,-506.92 346.28,-506.92 695.96,-506.92 695.96,-506.92 701.96,-506.92 707.96,-512.92 707.96,-518.92 707.96,-518.92 707.96,-638.92 707.96,-638.92 707.96,-644.92 701.96,-650.92 695.96,-650.92"/>
<text xml:space="preserve" text-anchor="middle" x="521.12" y="-574.57" font-family="Architects Daughter" font-size="18.00">Core APIs</text>
</g>
<!-- n2 -->
<g id="node3" class="node">
<title>n2</title>
<path fill="#ffffff" stroke="#d9aa4d" d="M1236.2,-651.08C1236.2,-651.08 754.04,-651.08 754.04,-651.08 748.04,-651.08 742.04,-645.08 742.04,-639.08 742.04,-639.08 742.04,-370.76 742.04,-370.76 742.04,-364.76 748.04,-358.76 754.04,-358.76 754.04,-358.76 1236.2,-358.76 1236.2,-358.76 1242.2,-358.76 1248.2,-364.76 1248.2,-370.76 1248.2,-370.76 1248.2,-639.08 1248.2,-639.08 1248.2,-645.08 1242.2,-651.08 1236.2,-651.08"/>
<text xml:space="preserve" text-anchor="middle" x="995.12" y="-500.57" font-family="Architects Daughter" font-size="18.00">Backend Modules</text>
</g>
<!-- n3 -->
<g id="node4" class="node">
<title>n3</title>
<path fill="#ffffff" stroke="#a982da" d="M696,-473.96C696,-473.96 12.24,-473.96 12.24,-473.96 6.24,-473.96 0.24,-467.96 0.24,-461.96 0.24,-461.96 0.24,-331.88 0.24,-331.88 0.24,-325.88 6.24,-319.88 12.24,-319.88 12.24,-319.88 696,-319.88 696,-319.88 702,-319.88 708,-325.88 708,-331.88 708,-331.88 708,-461.96 708,-461.96 708,-467.96 702,-473.96 696,-473.96"/>
<text xml:space="preserve" text-anchor="middle" x="354.12" y="-392.57" font-family="Architects Daughter" font-size="18.00">Preview Backends</text>
</g>
<!-- n4 -->
<g id="node5" class="node">
<title>n4</title>
<path fill="#ffffff" stroke="#db7890" d="M546.12,-285.96C546.12,-285.96 12.12,-285.96 12.12,-285.96 6.12,-285.96 0.12,-279.96 0.12,-273.96 0.12,-273.96 0.12,-143.88 0.12,-143.88 0.12,-137.88 6.12,-131.88 12.12,-131.88 12.12,-131.88 546.12,-131.88 546.12,-131.88 552.12,-131.88 558.12,-137.88 558.12,-143.88 558.12,-143.88 558.12,-273.96 558.12,-273.96 558.12,-279.96 552.12,-285.96 546.12,-285.96"/>
<text xml:space="preserve" text-anchor="middle" x="279.12" y="-204.57" font-family="Architects Daughter" font-size="18.00">Ktor, Metrics, Spring</text>
</g>
<!-- n5 -->
<g id="node6" class="node">
<title>n5</title>
<path fill="#ffffff" stroke="#55b5af" d="M1236.08,-285.84C1236.08,-285.84 604.16,-285.84 604.16,-285.84 598.16,-285.84 592.16,-279.84 592.16,-273.84 592.16,-273.84 592.16,-12 592.16,-12 592.16,-6 598.16,0 604.16,0 604.16,0 1236.08,0 1236.08,0 1242.08,0 1248.08,-6 1248.08,-12 1248.08,-12 1248.08,-273.84 1248.08,-273.84 1248.08,-279.84 1242.08,-285.84 1236.08,-285.84"/>
<text xml:space="preserve" text-anchor="middle" x="920.12" y="-138.57" font-family="Architects Daughter" font-size="18.00">Examples</text>
</g>
</g>
</svg>
