<?xml version="1.0" encoding="UTF-8" standalone="no"?>
<!DOCTYPE svg PUBLIC "-//W3C//DTD SVG 1.1//EN"
 "http://www.w3.org/Graphics/SVG/1.1/DTD/svg11.dtd">
<!-- Generated by graphviz version 15.0.0 (20260523.1842)
 -->
<!-- Title: root&#45;readme&#45;overview&#45;01 Pages: 1 -->
<svg width="1467pt" height="328pt"
 viewBox="0.00 0.00 1467.00 328.00" xmlns="http://www.w3.org/2000/svg" xmlns:xlink="http://www.w3.org/1999/xlink">
<g id="graph0" class="graph" transform="scale(1 1) rotate(0) translate(4 324)">
<title>root&#45;readme&#45;overview&#45;01</title>
<!-- readme -->
<g id="node1" class="node">
<title>readme</title>
<path fill="#f8fafc" stroke="#94a3b8" d="M86.5,-196C86.5,-196 12,-196 12,-196 6,-196 0,-190 0,-184 0,-184 0,-172 0,-172 0,-166 6,-160 12,-160 12,-160 86.5,-160 86.5,-160 92.5,-160 98.5,-166 98.5,-172 98.5,-172 98.5,-184 98.5,-184 98.5,-190 92.5,-196 86.5,-196"/>
<text xml:space="preserve" text-anchor="middle" x="49.25" y="-172.57" font-family="Comic Mono" font-size="14.00">Root README</text>
</g>
<!-- core -->
<g id="node2" class="node">
<title>core</title>
<path fill="#f8fafc" stroke="#94a3b8" d="M249.5,-196C249.5,-196 197.5,-196 197.5,-196 191.5,-196 185.5,-190 185.5,-184 185.5,-184 185.5,-172 185.5,-172 185.5,-166 191.5,-160 197.5,-160 197.5,-160 249.5,-160 249.5,-160 255.5,-160 261.5,-166 261.5,-172 261.5,-172 261.5,-184 261.5,-184 261.5,-190 255.5,-196 249.5,-196"/>
<text xml:space="preserve" text-anchor="middle" x="223.5" y="-172.57" font-family="Comic Mono" font-size="14.00">Core API</text>
</g>
<!-- readme&#45;&gt;core -->
<g id="edge1" class="edge">
<title>readme&#45;&gt;core</title>
<path fill="none" stroke="#758297" d="M98.72,-178C98.72,-178 173.76,-178 173.76,-178"/>
<polygon fill="#758297" stroke="#758297" points="173.76,-181.5 183.76,-178 173.76,-174.5 173.76,-181.5"/>
<text xml:space="preserve" text-anchor="middle" x="142" y="-180.5" font-family="Comic Mono" font-size="10.00">call</text>
</g>
<!-- consumer -->
<g id="node3" class="node">
<title>consumer</title>
<path fill="#f8fafc" stroke="#94a3b8" d="M472.5,-196C472.5,-196 360.5,-196 360.5,-196 354.5,-196 348.5,-190 348.5,-184 348.5,-184 348.5,-172 348.5,-172 348.5,-166 354.5,-160 360.5,-160 360.5,-160 472.5,-160 472.5,-160 478.5,-160 484.5,-166 484.5,-172 484.5,-172 484.5,-184 484.5,-184 484.5,-190 478.5,-196 472.5,-196"/>
<text xml:space="preserve" text-anchor="middle" x="416.5" y="-172.57" font-family="Comic Mono" font-size="14.00">Application code</text>
</g>
<!-- core&#45;&gt;consumer -->
<g id="edge2" class="edge">
<title>core&#45;&gt;consumer</title>
<path fill="none" stroke="#758297" d="M261.63,-178C261.63,-178 336.85,-178 336.85,-178"/>
<polygon fill="#758297" stroke="#758297" points="336.85,-181.5 346.85,-178 336.85,-174.5 336.85,-181.5"/>
<text xml:space="preserve" text-anchor="middle" x="305" y="-180.5" font-family="Comic Mono" font-size="10.00">call</text>
</g>
<!-- contracts -->
<g id="node7" class="node">
<title>contracts</title>
<path fill="#f8fafc" stroke="#94a3b8" d="M703,-196C703,-196 583.5,-196 583.5,-196 577.5,-196 571.5,-190 571.5,-184 571.5,-184 571.5,-172 571.5,-172 571.5,-166 577.5,-160 583.5,-160 583.5,-160 703,-160 703,-160 709,-160 715,-166 715,-172 715,-172 715,-184 715,-184 715,-190 709,-196 703,-196"/>
<text xml:space="preserve" text-anchor="middle" x="643.25" y="-172.57" font-family="Comic Mono" font-size="14.00">Elector contracts</text>
</g>
<!-- consumer&#45;&gt;contracts -->
<g id="edge3" class="edge">
<title>consumer&#45;&gt;contracts</title>
<path fill="none" stroke="#758297" d="M484.84,-178C484.84,-178 559.6,-178 559.6,-178"/>
<polygon fill="#758297" stroke="#758297" points="559.6,-181.5 569.6,-178 559.6,-174.5 559.6,-181.5"/>
<text xml:space="preserve" text-anchor="middle" x="528" y="-180.5" font-family="Comic Mono" font-size="10.00">call</text>
</g>
<!-- bom -->
<g id="node4" class="node">
<title>bom</title>
<path fill="#f8fafc" stroke="#94a3b8" d="M658.25,-36C658.25,-36 628.25,-36 628.25,-36 622.25,-36 616.25,-30 616.25,-24 616.25,-24 616.25,-12 616.25,-12 616.25,-6 622.25,0 628.25,0 628.25,0 658.25,0 658.25,0 664.25,0 670.25,-6 670.25,-12 670.25,-12 670.25,-24 670.25,-24 670.25,-30 664.25,-36 658.25,-36"/>
<text xml:space="preserve" text-anchor="middle" x="643.25" y="-12.57" font-family="Comic Mono" font-size="14.00">BOM</text>
</g>
<!-- redis -->
<g id="node8" class="node">
<title>redis</title>
<path fill="#f8fafc" stroke="#94a3b8" d="M968.75,-49C968.75,-49 871.75,-49 871.75,-49 865.75,-49 859.75,-43 859.75,-37 859.75,-37 859.75,-25 859.75,-25 859.75,-19 865.75,-13 871.75,-13 871.75,-13 968.75,-13 968.75,-13 974.75,-13 980.75,-19 980.75,-25 980.75,-25 980.75,-37 980.75,-37 980.75,-43 974.75,-49 968.75,-49"/>
<text xml:space="preserve" text-anchor="middle" x="920.25" y="-25.57" font-family="Comic Mono" font-size="14.00">Redis adapters</text>
</g>
<!-- bom&#45;&gt;redis -->
<g id="edge4" class="edge">
<title>bom&#45;&gt;redis</title>
<path fill="none" stroke="#758297" d="M670.57,-24.5C670.57,-24.5 847.89,-24.5 847.89,-24.5"/>
<polygon fill="#758297" stroke="#758297" points="847.89,-28 857.89,-24.5 847.89,-21 847.89,-28"/>
<text xml:space="preserve" text-anchor="middle" x="774.25" y="-20.5" font-family="Comic Mono" font-size="10.00">dependency</text>
</g>
<!-- database -->
<g id="node5" class="node">
<title>database</title>
<path fill="#f8fafc" stroke="#94a3b8" d="M980,-237C980,-237 860.5,-237 860.5,-237 854.5,-237 848.5,-231 848.5,-225 848.5,-225 848.5,-213 848.5,-213 848.5,-207 854.5,-201 860.5,-201 860.5,-201 980,-201 980,-201 986,-201 992,-207 992,-213 992,-213 992,-225 992,-225 992,-231 986,-237 980,-237"/>
<text xml:space="preserve" text-anchor="middle" x="920.25" y="-213.57" font-family="Comic Mono" font-size="14.00">Database adapters</text>
</g>
<!-- distributed -->
<g id="node6" class="node">
<title>distributed</title>
<path fill="#f8fafc" stroke="#94a3b8" d="M983.75,-154C983.75,-154 856.75,-154 856.75,-154 850.75,-154 844.75,-148 844.75,-142 844.75,-142 844.75,-130 844.75,-130 844.75,-124 850.75,-118 856.75,-118 856.75,-118 983.75,-118 983.75,-118 989.75,-118 995.75,-124 995.75,-130 995.75,-130 995.75,-142 995.75,-142 995.75,-148 989.75,-154 983.75,-154"/>
<text xml:space="preserve" text-anchor="middle" x="920.25" y="-130.57" font-family="Comic Mono" font-size="14.00">Distributed stores</text>
</g>
<!-- contracts&#45;&gt;database -->
<g id="edge7" class="edge">
<title>contracts&#45;&gt;database</title>
<path fill="none" stroke="#758297" d="M715.24,-172C797.24,-172 920,-172 920,-172 920,-172 920,-189.18 920,-189.18"/>
<polygon fill="#758297" stroke="#758297" points="916.5,-189.18 920,-199.18 923.5,-189.18 916.5,-189.18"/>
<text xml:space="preserve" text-anchor="middle" x="774.25" y="-221.5" font-family="Comic Mono" font-size="10.00">dependency</text>
</g>
<!-- contracts&#45;&gt;distributed -->
<g id="edge6" class="edge">
<title>contracts&#45;&gt;distributed</title>
<path fill="none" stroke="#758297" d="M700,-159.94C700,-148.56 700,-136 700,-136 700,-136 832.94,-136 832.94,-136"/>
<polygon fill="#758297" stroke="#758297" points="832.94,-139.5 842.94,-136 832.94,-132.5 832.94,-139.5"/>
<text xml:space="preserve" text-anchor="middle" x="774.25" y="-148.5" font-family="Comic Mono" font-size="10.00">dependency</text>
</g>
<!-- contracts&#45;&gt;redis -->
<g id="edge5" class="edge">
<title>contracts&#45;&gt;redis</title>
<path fill="none" stroke="#758297" d="M685,-159.73C685,-122.74 685,-42.5 685,-42.5 685,-42.5 847.85,-42.5 847.85,-42.5"/>
<polygon fill="#758297" stroke="#758297" points="847.85,-46 857.85,-42.5 847.85,-39 847.85,-46"/>
<text xml:space="preserve" text-anchor="middle" x="774.25" y="-84.5" font-family="Comic Mono" font-size="10.00">dependency</text>
</g>
<!-- framework -->
<g id="node9" class="node">
<title>framework</title>
<path fill="#f8fafc" stroke="#94a3b8" d="M995,-320C995,-320 845.5,-320 845.5,-320 839.5,-320 833.5,-314 833.5,-308 833.5,-308 833.5,-296 833.5,-296 833.5,-290 839.5,-284 845.5,-284 845.5,-284 995,-284 995,-284 1001,-284 1007,-290 1007,-296 1007,-296 1007,-308 1007,-308 1007,-314 1001,-320 995,-320"/>
<text xml:space="preserve" text-anchor="middle" x="920.25" y="-296.57" font-family="Comic Mono" font-size="14.00">Framework integration</text>
</g>
<!-- contracts&#45;&gt;framework -->
<g id="edge8" class="edge">
<title>contracts&#45;&gt;framework</title>
<path fill="none" stroke="#758297" d="M715.31,-184C771.12,-184 839,-184 839,-184 839,-184 839,-272.05 839,-272.05"/>
<polygon fill="#758297" stroke="#758297" points="835.5,-272.05 839,-282.05 842.5,-272.05 835.5,-272.05"/>
<text xml:space="preserve" text-anchor="middle" x="774.25" y="-294.5" font-family="Comic Mono" font-size="10.00">call</text>
</g>
<!-- metrics -->
<g id="node10" class="node">
<title>metrics</title>
<path fill="#f8fafc" stroke="#94a3b8" d="M1206,-320C1206,-320 1116.5,-320 1116.5,-320 1110.5,-320 1104.5,-314 1104.5,-308 1104.5,-308 1104.5,-296 1104.5,-296 1104.5,-290 1110.5,-284 1116.5,-284 1116.5,-284 1206,-284 1206,-284 1212,-284 1218,-290 1218,-296 1218,-296 1218,-308 1218,-308 1218,-314 1212,-320 1206,-320"/>
<text xml:space="preserve" text-anchor="middle" x="1161.25" y="-296.57" font-family="Comic Mono" font-size="14.00">Observability</text>
</g>
<!-- framework&#45;&gt;metrics -->
<g id="edge9" class="edge">
<title>framework&#45;&gt;metrics</title>
<path fill="none" stroke="#758297" d="M1007.26,-302C1007.26,-302 1092.57,-302 1092.57,-302"/>
<polygon fill="#758297" stroke="#758297" points="1092.57,-305.5 1102.57,-302 1092.57,-298.5 1092.57,-305.5"/>
<text xml:space="preserve" text-anchor="middle" x="1055.75" y="-304.5" font-family="Comic Mono" font-size="10.00">metric</text>
</g>
<!-- examples -->
<g id="node11" class="node">
<title>examples</title>
<path fill="#f8fafc" stroke="#94a3b8" d="M1447,-320C1447,-320 1327.5,-320 1327.5,-320 1321.5,-320 1315.5,-314 1315.5,-308 1315.5,-308 1315.5,-296 1315.5,-296 1315.5,-290 1321.5,-284 1327.5,-284 1327.5,-284 1447,-284 1447,-284 1453,-284 1459,-290 1459,-296 1459,-296 1459,-308 1459,-308 1459,-314 1453,-320 1447,-320"/>
<text xml:space="preserve" text-anchor="middle" x="1387.25" y="-296.57" font-family="Comic Mono" font-size="14.00">Runnable examples</text>
</g>
<!-- metrics&#45;&gt;examples -->
<g id="edge10" class="edge">
<title>metrics&#45;&gt;examples</title>
<path fill="none" stroke="#758297" d="M1218.28,-302C1218.28,-302 1303.71,-302 1303.71,-302"/>
<polygon fill="#758297" stroke="#758297" points="1303.71,-305.5 1313.71,-302 1303.71,-298.5 1303.71,-305.5"/>
<text xml:space="preserve" text-anchor="middle" x="1266.75" y="-304.5" font-family="Comic Mono" font-size="10.00">metric</text>
</g>
</g>
</svg>
